<?xml version="1.0" encoding="utf-8"?>
<!-- Generator: Adobe Illustrator 16.0.0, SVG Export Plug-In . SVG Version: 6.00 Build 0)  -->
<!DOCTYPE svg PUBLIC "-//W3C//DTD SVG 1.1//EN" "http://www.w3.org/Graphics/SVG/1.1/DTD/svg11.dtd">
<svg version="1.1" id="Layer_1" xmlns="http://www.w3.org/2000/svg" xmlns:xlink="http://www.w3.org/1999/xlink" x="0px" y="0px"
	 width="157.114px" height="118.156px" viewBox="0 0 157.114 118.156" enable-background="new 0 0 157.114 118.156"
	 xml:space="preserve">
<g>
	<path fill="#1F689E" d="M157.113,107.376c0,1.559-1.02,2.834-2.435,2.834H2.691c-1.416,0-2.69-1.275-2.69-2.834V3.719
		c0-1.559,1.274-2.694,2.69-2.694h151.987c1.415,0,2.435,1.135,2.435,2.694V107.376z"/>
	<path fill="#FFFFFF" d="M154.807,104.832c0,1.513-0.989,2.751-2.362,2.751H4.919c-1.374,0-2.612-1.238-2.612-2.751V4.218
		c0-1.513,1.238-2.616,2.612-2.616h147.525c1.373,0,2.362,1.103,2.362,2.616V104.832z"/>
	<g opacity="0.1">
		<g>
			<defs>
				<rect id="SVGID_1_" y="2.178" width="157.114" height="14.353"/>
			</defs>
			<clipPath id="SVGID_2_">
				<use xlink:href="#SVGID_1_"  overflow="visible"/>
			</clipPath>
			<path clip-path="url(#SVGID_2_)" fill="#010101" d="M157.113,16.532V4.873c0-1.559-1.02-2.694-2.435-2.694H2.691
				c-1.416,0-2.69,1.135-2.69,2.694v11.659H157.113z"/>
		</g>
	</g>
	<path fill="#5285C5" d="M157.113,14.353V2.694c0-1.559-1.02-2.694-2.435-2.694H2.691c-1.416,0-2.69,1.135-2.69,2.694v11.659
		H157.113z"/>
	<path fill="#2B72B3" d="M11.396,10.767c-0.359,0.36-0.944,0.36-1.306,0L5.252,5.928c-0.36-0.36-0.36-0.945,0-1.306l0.077-0.077
		c0.36-0.36,0.944-0.36,1.306,0l4.839,4.839c0.36,0.361,0.36,0.946,0,1.306L11.396,10.767z"/>
	<path fill="#2B72B3" d="M5.252,10.69c-0.36-0.36-0.36-0.945,0-1.306l4.839-4.839c0.361-0.36,0.946-0.36,1.306,0l0.077,0.078
		c0.361,0.36,0.361,0.945,0,1.305l-4.839,4.839c-0.361,0.36-0.946,0.36-1.306,0L5.252,10.69z"/>
	<path fill="#2B72B3" d="M21.273,9.067c0,0.937-0.76,1.698-1.698,1.698H16.82c-0.938,0-1.698-0.761-1.698-1.698V6.312
		c0-0.937,0.76-1.698,1.698-1.698h2.755c0.938,0,1.698,0.761,1.698,1.698V9.067z"/>
	<path fill="#2B72B3" d="M30.756,9.403c0,0.47-0.38,0.85-0.849,0.85h-4.453c-0.469,0-0.849-0.38-0.849-0.85V9.307
		c0-0.468,0.38-0.848,0.849-0.848h4.453c0.469,0,0.849,0.38,0.849,0.848V9.403z"/>
	<g>
		<defs>
			<path id="SVGID_3_" d="M4.919,1.538c-1.373,0-2.612,1.168-2.612,2.681v100.613c0,1.513,1.239,2.816,2.612,2.816h147.524
				c1.375,0,2.364-1.303,2.364-2.816V4.218c0-1.513-0.989-2.681-2.364-2.681H4.919z"/>
		</defs>
		<clipPath id="SVGID_4_">
			<use xlink:href="#SVGID_3_"  overflow="visible"/>
		</clipPath>
		<path clip-path="url(#SVGID_4_)" fill="#CAD4DF" d="M78.124,115.294H99.42c4.613,0,8.353-3.715,8.353-8.328
			c0,0,1.515-7.923,0-16.901c-0.767-4.549-4.229-8.144-8.353-9.605c-5.059-1.79-16.016-2.654-21.34-2.654h-0.331
			c-5.324,0-16.282,0.87-21.342,2.66c-4.124,1.461-7.585,5.059-8.353,9.608c-1.515,8.98,0,16.891,0,16.891
			c0,4.613,3.74,8.329,8.353,8.329h21.3H78.124z"/>
		<path clip-path="url(#SVGID_4_)" fill="#7892B0" d="M64.649,78.747c-3.201,0.426-6.201,0.998-8.241,1.72
			c-4.124,1.461-7.586,5.059-8.354,9.608c-1.515,8.98,0,16.891,0,16.891c0,4.613,3.74,8.329,8.354,8.329H72.82L64.649,78.747z"/>
		<path clip-path="url(#SVGID_4_)" fill="#7892B0" d="M107.772,90.065c-0.768-4.549-4.229-8.144-8.353-9.604
			c-2.045-0.724-5.055-1.296-8.268-1.722L82.5,115.294h16.92c4.613,0,8.353-3.714,8.353-8.328
			C107.772,106.966,109.287,99.044,107.772,90.065"/>
		<polygon clip-path="url(#SVGID_4_)" fill="#667B8E" points="64.683,78.747 57.374,88.133 64.658,92.803 60.105,102.266 
			68.476,115.294 72.887,115.294 		"/>
		<polygon clip-path="url(#SVGID_4_)" fill="#667B8E" points="90.951,78.747 98.261,88.133 90.977,92.803 95.529,102.266 
			87.158,115.294 82.747,115.294 		"/>
		<rect x="68.177" y="65.102" clip-path="url(#SVGID_4_)" fill="#ECB8A2" width="18.71" height="14.609"/>
		<path clip-path="url(#SVGID_4_)" fill="#FDD6BC" d="M96.627,56.566c0,10.274-8.561,18.603-18.967,18.603
			S58.693,66.84,58.693,56.566V46.31c0-10.273,8.561-18.602,18.967-18.602s18.904,8.329,18.904,18.602L96.627,56.566z"/>
		<path clip-path="url(#SVGID_4_)" fill="#876956" d="M59.034,47.665c10.833,3.468,22.52-2.35,25.943-13.044l1.837-5.859
			c-2.717-1.487-5.837-2.335-9.154-2.335c-10.407,0-18.967,8.328-18.967,18.602v2.518C58.807,47.584,58.919,47.627,59.034,47.665"/>
		<path clip-path="url(#SVGID_4_)" fill="#876956" d="M96.564,45.029c0-7.822-4.929-14.513-11.872-17.262
			c-0.875,8.207,3.946,16.241,11.885,19.409L96.564,45.029z"/>
		<path clip-path="url(#SVGID_4_)" fill="#ECB8A2" d="M86.814,79.71c0,0.874-4.092,1.583-9.141,1.583
			c-5.048,0-9.139-0.709-9.139-1.583s4.091-1.583,9.139-1.583C82.723,78.127,86.814,78.836,86.814,79.71"/>
		<path clip-path="url(#SVGID_4_)" fill="#667B8E" d="M81.761,84.586c0,1.695-1.374,3.069-3.069,3.069h-1.807
			c-1.695,0-3.069-1.374-3.069-3.069v-0.013c0-1.695,1.374-3.069,3.069-3.069h1.807c1.695,0,3.069,1.374,3.069,3.069V84.586z"/>
		<polygon clip-path="url(#SVGID_4_)" fill="#667B8E" points="82.5,118.156 72.887,118.156 75.63,86.631 80.202,86.631 		"/>
	</g>
	<g opacity="0.1">
		<g>
			<defs>
				<rect id="SVGID_5_" x="3.559" y="96.011" width="148.972" height="10.201"/>
			</defs>
			<clipPath id="SVGID_6_">
				<use xlink:href="#SVGID_5_"  overflow="visible"/>
			</clipPath>
			<path clip-path="url(#SVGID_6_)" fill="#010101" d="M152.53,101.112c0,2.816-1.694,5.101-3.783,5.101H7.342
				c-2.09,0-3.783-2.285-3.783-5.101c0-2.817,1.693-5.101,3.783-5.101h141.405C150.836,96.011,152.53,98.295,152.53,101.112"/>
		</g>
	</g>
	<path fill="#F3F3F3" d="M151.219,101.112c0,2.251-1.664,4.075-3.716,4.075H8.587c-2.054,0-3.718-1.824-3.718-4.075
		s1.664-4.075,3.718-4.075h138.916C149.555,97.037,151.219,98.861,151.219,101.112"/>
	<path fill="#5285C5" d="M149.168,101.112c0,0.92-0.745,1.666-1.666,1.666H9.867c-0.92,0-1.665-0.746-1.665-1.666
		s0.745-1.666,1.665-1.666h137.635C148.423,99.446,149.168,100.192,149.168,101.112"/>
	<path fill="#F04C69" d="M49.979,101.112c0,0.92-0.746,1.666-1.666,1.666H9.867c-0.92,0-1.665-0.746-1.665-1.666
		s0.745-1.666,1.665-1.666h38.446C49.233,99.446,49.979,100.192,49.979,101.112"/>
	<g opacity="0.1">
		<g>
			<defs>
				<rect id="SVGID_7_" x="43.443" y="99.445" width="6.023" height="3.332"/>
			</defs>
			<clipPath id="SVGID_8_">
				<use xlink:href="#SVGID_7_"  overflow="visible"/>
			</clipPath>
			<path clip-path="url(#SVGID_8_)" fill="#010101" d="M49.467,101.112c0-0.92-0.746-1.666-1.666-1.666h-3.886
				c-0.298,0.485-0.472,1.055-0.472,1.666c0,0.61,0.174,1.18,0.472,1.666h3.886C48.721,102.778,49.467,102.032,49.467,101.112"/>
		</g>
	</g>
	<path fill="#5285C5" d="M50.877,101.112c0,1.77-1.436,3.204-3.204,3.204c-1.77,0-3.204-1.434-3.204-3.204s1.435-3.204,3.204-3.204
		C49.441,97.908,50.877,99.342,50.877,101.112"/>
	<g opacity="0.1">
		<g>
			<defs>
				<rect id="SVGID_9_" x="43.596" y="23.5" width="69.41" height="69.41"/>
			</defs>
			<clipPath id="SVGID_10_">
				<use xlink:href="#SVGID_9_"  overflow="visible"/>
			</clipPath>
			<path clip-path="url(#SVGID_10_)" fill="#010101" d="M78.301,23.5c-19.167,0-34.705,15.538-34.705,34.705
				S59.134,92.91,78.301,92.91s34.705-15.538,34.705-34.705S97.468,23.5,78.301,23.5 M78.301,85.605
				c-15.133,0-27.401-12.268-27.401-27.4c0-15.134,12.269-27.402,27.401-27.402s27.4,12.268,27.4,27.402
				C105.701,73.337,93.434,85.605,78.301,85.605"/>
		</g>
	</g>
	<path fill="#5285C5" d="M78.557,21.449c-19.167,0-34.706,15.538-34.706,34.705c0,19.167,15.539,34.705,34.706,34.705
		s34.705-15.538,34.705-34.705C113.262,36.987,97.724,21.449,78.557,21.449 M78.557,83.555c-15.133,0-27.4-12.268-27.4-27.401
		c0-15.133,12.268-27.401,27.4-27.401c15.134,0,27.401,12.268,27.401,27.401C105.958,71.287,93.69,83.555,78.557,83.555"/>
	<g opacity="0.3">
		<g>
			<defs>
				<rect id="SVGID_11_" x="51.156" y="28.752" width="54.802" height="54.802"/>
			</defs>
			<clipPath id="SVGID_12_">
				<use xlink:href="#SVGID_11_"  overflow="visible"/>
			</clipPath>
			<path clip-path="url(#SVGID_12_)" fill="#FFFFFF" d="M78.557,83.555c-15.133,0-27.4-12.268-27.4-27.401
				c0-15.133,12.268-27.401,27.4-27.401c15.134,0,27.401,12.268,27.401,27.401C105.958,71.287,93.69,83.555,78.557,83.555"/>
		</g>
	</g>
	<polygon fill="#5285C5" points="68.979,41.525 95.874,58.383 69.126,75.093 	"/>
</g>
</svg>
