<svg xmlns="http://www.w3.org/2000/svg" xmlns:xlink="http://www.w3.org/1999/xlink"  width="61" height="61" version="1.2" baseProfile="tiny" x="0px" y="0px" viewBox="0 0 96 120" xml:space="preserve"><g><path fill="none" stroke="#fff" stroke-width="3" stroke-miterlimit="10" d="M47.995,63L47.995,63   c-5.523,0-10-4.477-10-10v0c0-5.523,4.477-10,10-10h0c5.523,0,10,4.477,10,10v0C57.995,58.523,53.518,63,47.995,63z"/><path fill="none" stroke="#fff" stroke-width="3" stroke-miterlimit="10" d="M68.995,82.16V90h-42v-7.84   c0-6.4,4.96-11.66,11.25-12.12c2.52,2.45,5.96,3.96,9.75,3.96s7.23-1.51,9.75-3.96C64.035,70.5,68.995,75.76,68.995,82.16z"/><path fill="none" stroke="#fff" stroke-width="3" stroke-miterlimit="10" d="M73.995,65L73.995,65   c-4.418,0-8-3.582-8-8v0c0-4.418,3.582-8,8-8h0c4.418,0,8,3.582,8,8v0C81.995,61.418,78.413,65,73.995,65z"/><path fill="none" stroke="#fff" stroke-width="3" stroke-miterlimit="10" d="M74.005,75.001   c2.87,0,5.16-1.051,6.99-3.001h1.01c4.42,0,8,3.58,8,8v6H73.984"/><path fill="none" stroke="#fff" stroke-width="3" stroke-miterlimit="10" d="M22.005,65L22.005,65   c4.418,0,8-3.582,8-8v0c0-4.418-3.582-8-8-8h0c-4.418,0-8,3.582-8,8v0C14.005,61.418,17.587,65,22.005,65z"/><path fill="none" stroke="#fff" stroke-width="3" stroke-miterlimit="10" d="M21.995,75.001   c-2.87,0-5.17-1.051-7.024-3.001h-1c-4.396,0-7.976,3.58-7.976,8v6h16.021"/><path fill="none" stroke="#fff" stroke-width="3" stroke-miterlimit="10" d="M6,27v9c0,1.1,0.9,2,2,2h6l3,5   l2.38-5H26c1.1,0,2-0.9,2-2v-9c0-1.1-0.9-2-2-2H8C6.9,25,6,25.9,6,27z"/><path fill="none" stroke="#fff" stroke-width="3" stroke-miterlimit="10" d="M36,8v21c0,1.1,0.9,2,2,2h18l3,7l4-7   h10c1.1,0,2-0.9,2-2V8c0-1.1-0.9-2-2-2H38C36.9,6,36,6.9,36,8z"/><line fill="none" stroke="#fff" stroke-width="3" stroke-miterlimit="10" x1="44" y1="14" x2="66" y2="14"/><line fill="none" stroke="#fff" stroke-width="3" stroke-miterlimit="10" x1="44" y1="22" x2="58" y2="22"/></g></svg>