<?xml version="1.0" encoding="utf-8"?>
<!-- Generator: Adobe Illustrator 16.0.0, SVG Export Plug-In . SVG Version: 6.00 Build 0)  -->
<!DOCTYPE svg PUBLIC "-//W3C//DTD SVG 1.1//EN" "http://www.w3.org/Graphics/SVG/1.1/DTD/svg11.dtd">
<svg version="1.1" id="Layer_1" xmlns="http://www.w3.org/2000/svg" xmlns:xlink="http://www.w3.org/1999/xlink" x="0px" y="0px"
	 width="174px" height="122px" viewBox="0 0 174 122" enable-background="new 0 0 174 122" xml:space="preserve">
<g>
	<g>
		<path fill="#F2F2F2" d="M156.933,121.526c-2.238-36.494-32.529-65.403-69.585-65.403c-37.058,0-67.349,28.909-69.585,65.403
			H156.933z"/>
	</g>
	<g>
		<path fill="#F9A160" d="M103.822,33.755c-0.008-0.09-0.011-0.182-0.019-0.272V16.756c0-4.754-4.306-8.608-9.618-8.608H76.162
			c-0.34,0-0.674,0.024-1.002,0.061c0.025,0.585,0.101,1.349,0.291,2.196h-1.869c-3.831,0-6.936,3.105-6.936,6.936v17.434h28.506
			v-5.882l3.181,3.273L103.822,33.755z"/>
	</g>
	<g>
		<path fill="#575757" d="M95.152,35.386H66.646c-0.338,0-0.611-0.274-0.611-0.611V17.341c0-4.162,3.385-7.547,7.547-7.547h1.129
			c-0.085-0.515-0.139-1.037-0.161-1.559c-0.014-0.321,0.224-0.599,0.543-0.633c0.392-0.044,0.742-0.065,1.069-0.065h18.023
			c5.641,0,10.229,4.136,10.229,9.219v16.702c0.004,0.048,0.007,0.097,0.009,0.145l0.007,0.107c0.016,0.2-0.068,0.394-0.224,0.52
			c-0.156,0.126-0.362,0.168-0.555,0.112l-5.489-1.589c-0.101-0.029-0.194-0.085-0.269-0.161l-2.132-2.194v4.377
			C95.763,35.112,95.488,35.386,95.152,35.386 M67.257,34.164h27.284v-5.271c0-0.249,0.15-0.473,0.381-0.565
			c0.23-0.094,0.495-0.038,0.668,0.14l3.068,3.158l4.535,1.312V16.756c0-4.409-4.041-7.997-9.008-7.997H76.162
			c-0.114,0-0.231,0.003-0.352,0.009c0.047,0.506,0.127,1.01,0.236,1.503c0.041,0.182-0.003,0.371-0.119,0.516
			c-0.115,0.145-0.291,0.229-0.477,0.229h-1.869c-3.488,0-6.325,2.837-6.325,6.325V34.164z"/>
	</g>
	<g>
		<path fill="#FFFFFF" d="M70.654,30.863c0,0-4.022-0.209-5.028,1.173c-1.006,1.383-0.67,2.641-0.209,5.742s1.131,5.783,5.321,5.616
			c4.363-0.175,0.043-11.902,0.043-11.902L70.654,30.863z"/>
	</g>
	<g>
		<path fill="#575757" d="M70.376,44.012c-4.651,0-5.177-3.54-5.564-6.144c-0.048-0.322-0.095-0.624-0.138-0.909
			c-0.381-2.476-0.591-3.839,0.458-5.282c1.167-1.604,5.109-1.447,5.553-1.424c0.281,0.015,0.515,0.217,0.568,0.491l0.116,0.582
			c0.399,1.093,3.14,8.869,1.29,11.64c-0.434,0.646-1.088,1.006-1.896,1.038C70.631,44.01,70.502,44.012,70.376,44.012
			 M70.035,31.458c-1.5,0-3.424,0.262-3.915,0.937c-0.753,1.035-0.603,2.014-0.239,4.377c0.045,0.287,0.092,0.591,0.139,0.915
			c0.472,3.173,1.063,5.242,4.695,5.095c0.418-0.016,0.713-0.174,0.928-0.496c1.304-1.95-0.594-8.301-1.436-10.584
			c-0.011-0.03-0.02-0.06-0.025-0.092l-0.03-0.152C70.113,31.458,70.074,31.458,70.035,31.458"/>
	</g>
	<g opacity="0.5">
		<g>
			<defs>
				<rect id="SVGID_1_" x="67.177" y="33.029" width="2.438" height="7.25"/>
			</defs>
			<clipPath id="SVGID_2_">
				<use xlink:href="#SVGID_1_"  overflow="visible"/>
			</clipPath>
			<g clip-path="url(#SVGID_2_)">
				<path fill="#575757" d="M69.051,40.275c-1.587-0.71-1.863-4.654-1.866-4.693c-0.055-0.857,0.158-1.521,0.635-1.974
					c0.719-0.683,1.753-0.571,1.796-0.566L69.5,34.034l0.058-0.497l-0.055,0.497c-0.006,0-0.625-0.06-0.999,0.302
					c-0.249,0.239-0.356,0.636-0.321,1.18c0.104,1.595,0.655,3.567,1.276,3.845L69.051,40.275z"/>
			</g>
		</g>
	</g>
	<g>
		<path fill="#FFFFFF" d="M77,54.557l0.177,6.415c0,0-0.295,3.708-2.413,4.65h21.188c0,0-2.59-1.825-2.707-4.238
			c-0.119-2.413-0.119-6.533-0.119-6.533L77,54.557z"/>
	</g>
	<g>
		<path fill="#575757" d="M97.879,66.233H71.885l2.631-1.169c1.449-0.646,1.966-3.154,2.048-4.108l-0.192-7.021l17.365,0.316v0.601
			c0,0.041,0.002,4.132,0.117,6.503c0.102,2.09,2.426,3.75,2.449,3.768L97.879,66.233z M76.416,65.011h17.945
			c-0.781-0.842-1.656-2.106-1.729-3.597c-0.09-1.852-0.111-4.725-0.116-5.963l-14.89-0.271l0.16,5.809l-0.002,0.032
			C77.774,61.147,77.578,63.445,76.416,65.011"/>
	</g>
	<g>
		<path fill="#FFFFFF" d="M99.608,30.863c0,0,4.023-0.209,5.029,1.173c1.006,1.383,0.671,2.641,0.21,5.742s-1.132,5.783-5.322,5.616
			c-4.363-0.175-0.042-11.902-0.042-11.902L99.608,30.863z"/>
	</g>
	<g>
		<path fill="#575757" d="M99.888,44.013c-0.127,0-0.255-0.003-0.388-0.009c-0.809-0.032-1.464-0.391-1.896-1.038
			c-1.85-2.771,0.891-10.547,1.289-11.64l0.116-0.582c0.056-0.274,0.289-0.476,0.568-0.491c0.444-0.022,4.388-0.18,5.555,1.424
			c1.049,1.443,0.839,2.806,0.458,5.282c-0.044,0.285-0.09,0.587-0.138,0.909C105.065,40.472,104.538,44.012,99.888,44.013
			 M100.113,31.458l-0.031,0.152c-0.006,0.032-0.015,0.062-0.025,0.092c-0.841,2.284-2.738,8.637-1.437,10.584
			c0.215,0.322,0.51,0.48,0.929,0.497c3.646,0.143,4.223-1.924,4.694-5.096c0.048-0.324,0.095-0.628,0.139-0.915
			c0.364-2.363,0.515-3.342-0.239-4.377C103.639,31.702,101.628,31.441,100.113,31.458 M99.482,31.491h0.004H99.482z"/>
	</g>
	<g opacity="0.5">
		<g>
			<defs>
				<rect id="SVGID_3_" x="100.578" y="33.029" width="2.439" height="7.25"/>
			</defs>
			<clipPath id="SVGID_4_">
				<use xlink:href="#SVGID_3_"  overflow="visible"/>
			</clipPath>
			<g clip-path="url(#SVGID_4_)">
				<path fill="#575757" d="M101.144,40.275l-0.408-0.913c0.622-0.278,1.171-2.25,1.275-3.846c0.035-0.543-0.072-0.941-0.321-1.18
					c-0.374-0.361-0.994-0.302-0.998-0.302l-0.112-0.994c0.04-0.006,1.075-0.118,1.795,0.566c0.477,0.453,0.69,1.117,0.635,1.974
					C103.006,35.621,102.731,39.564,101.144,40.275z"/>
			</g>
		</g>
	</g>
	<g>
		<path fill="#FFFFFF" d="M100.269,41.482V23.727c0-3.473-2.815-6.288-6.288-6.288H76.791c-3.836,0-6.946,3.11-6.946,6.947v19.029
			h0.051c0.028,7.344,6.988,15.695,15.216,15.695c8.401,0,15.157-7.842,15.212-16.161C100.326,42.455,100.306,41.965,100.269,41.482
			"/>
	</g>
	<g>
		<path fill="#575757" d="M85.111,59.719c-8.494,0-15.41-8.438-15.807-15.695h-0.07V24.385c0-4.166,3.39-7.556,7.556-7.556H93.98
			c3.805,0,6.897,3.094,6.897,6.897v17.733c0.041,0.531,0.059,1.02,0.055,1.494c-0.027,4.188-1.717,8.419-4.636,11.607
			C93.253,57.887,89.279,59.719,85.111,59.719 M70.453,42.805h0.051l0.002,0.607C70.531,50.246,77.053,58.5,85.111,58.5
			c7.725,0,14.549-7.27,14.603-15.555c0.004-0.447-0.015-0.91-0.053-1.416l-0.001-0.046V23.726c0-3.131-2.549-5.678-5.68-5.678
			H76.791c-3.494,0-6.338,2.843-6.338,6.337V42.805z"/>
	</g>
	<g>
		<path fill="#575757" d="M85.195,52.448c-2.928,0-4.928-1.512-5.047-1.604c-0.25-0.193-0.295-0.552-0.103-0.802
			c0.192-0.249,0.551-0.295,0.801-0.103c0.151,0.116,3.683,2.751,8.142,0.368c0.276-0.149,0.625-0.044,0.772,0.235
			c0.149,0.278,0.044,0.625-0.233,0.773C87.958,52.154,86.486,52.448,85.195,52.448"/>
	</g>
	<g>
		<path fill="#575757" d="M85.305,46.817c-0.045,0-0.09-0.001-0.137-0.003c-1.975-0.082-2.699-1.79-2.807-2.682
			c-0.037-0.314,0.187-0.598,0.5-0.636c0.311-0.038,0.597,0.185,0.635,0.497c0.021,0.168,0.255,1.618,1.72,1.679
			c1.341,0.051,1.627-1.322,1.668-1.596L86.8,33.423c-0.002-0.315,0.252-0.573,0.567-0.575c0.313,0.005,0.574,0.251,0.576,0.566
			l0.084,10.693c0,0.023-0.002,0.046-0.004,0.069C87.918,45.103,87.214,46.817,85.305,46.817"/>
	</g>
	<g>
		<path fill="#575757" d="M94.453,37.819c0,0.764-0.618,1.383-1.383,1.383c-0.763,0-1.383-0.619-1.383-1.383
			c0-0.764,0.62-1.383,1.383-1.383C93.835,36.437,94.453,37.056,94.453,37.819"/>
	</g>
	<g>
		<path fill="#575757" d="M78.57,37.819c0,0.764-0.619,1.383-1.383,1.383s-1.383-0.619-1.383-1.383c0-0.764,0.619-1.383,1.383-1.383
			S78.57,37.056,78.57,37.819"/>
	</g>
	<g>
		<path fill="#575757" d="M79.701,32.691h-5.656c-0.316,0-0.572-0.256-0.572-0.572c0-0.315,0.256-0.571,0.572-0.571h5.656
			c0.316,0,0.572,0.256,0.572,0.571C80.273,32.436,80.018,32.691,79.701,32.691"/>
	</g>
	<g>
		<path fill="#575757" d="M96.424,32.691h-5.657c-0.316,0-0.572-0.256-0.572-0.572c0-0.315,0.256-0.571,0.572-0.571h5.657
			c0.315,0,0.572,0.256,0.572,0.571C96.996,32.436,96.739,32.691,96.424,32.691"/>
	</g>
	<g>
		<path fill="#80C0E9" d="M105.843,65.047H67.548c-4.609,0-8.625,2.538-10.728,6.292c-0.415,0.739-4.46,9.183-4.46,9.183
			l-9.484,19.391c0,0-4.763,11.431,4.286,16.385c3.057,1.673,5.765,1.757,8.097,1.056v3.708h62.586V77.05
			C117.846,70.421,112.472,65.047,105.843,65.047"/>
	</g>
	<g>
		<path fill="#FFFFFF" d="M91.403,72.017H77.922c-1.926,0-3.486,1.561-3.486,3.485v2.001c-4.895,2.237-7.195,9.594-7.195,9.594
			l0.871,7.399l6.371,3.767c0.262,1.666,1.7,2.94,3.439,2.94h13.481c1.925,0,3.486-1.562,3.486-3.485V75.502
			C94.89,73.577,93.328,72.017,91.403,72.017"/>
	</g>
	<g>
		<path fill="#575757" d="M91.403,101.814H77.922c-1.928,0-3.56-1.313-3.986-3.165L67.8,95.022
			c-0.164-0.098-0.273-0.266-0.296-0.454l-0.87-7.399c-0.011-0.086-0.002-0.173,0.024-0.254c0.094-0.304,2.329-7.301,7.166-9.795
			v-1.617c0-2.26,1.838-4.098,4.098-4.098h13.481c2.259,0,4.097,1.838,4.097,4.098v22.215
			C95.5,99.977,93.662,101.814,91.403,101.814 M68.683,94.124l6.11,3.613c0.157,0.093,0.266,0.251,0.293,0.43
			c0.221,1.405,1.413,2.426,2.836,2.426h13.481c1.586,0,2.875-1.291,2.875-2.875V75.503c0-1.586-1.289-2.875-2.875-2.875H77.922
			c-1.586,0-2.875,1.289-2.875,2.875v2c0,0.239-0.14,0.457-0.357,0.556c-4.256,1.944-6.506,8.161-6.826,9.102L68.683,94.124z"/>
	</g>
	<g>
		<path fill="#FFFFFF" d="M70.886,84.703c0,0,1.851-3.372,4.407-3.862l18.878-0.108c0,0,2.883-0.218,2.231,3.317
			c0,0,2.338,0,2.338,2.068c0,2.067-2.447,1.687-2.447,1.687s1.142,3.264-1.251,3.373c-2.394,0.108-3.482,0.055-3.482,0.055
			s1.142,3.373-1.415,3.373s-11.697,0.163-11.697,0.163"/>
	</g>
	<g>
		<path fill="#575757" d="M78.447,95.38c-0.332,0-0.604-0.267-0.609-0.601c-0.007-0.337,0.262-0.616,0.6-0.622
			c0.092-0.001,9.174-0.162,11.707-0.162c0.611,0,0.787-0.246,0.846-0.328c0.385-0.537,0.16-1.739-0.01-2.238
			c-0.064-0.192-0.031-0.403,0.092-0.564c0.121-0.162,0.311-0.248,0.518-0.242c0.01,0,1.098,0.051,3.424-0.055
			c0.482-0.021,0.657-0.201,0.746-0.333c0.367-0.542,0.129-1.735-0.044-2.228c-0.071-0.203-0.03-0.428,0.106-0.594
			c0.139-0.164,0.353-0.244,0.563-0.212c0.267,0.038,1.042,0.063,1.448-0.288c0.199-0.172,0.296-0.432,0.296-0.795
			c0-1.4-1.554-1.455-1.731-1.457c-0.18-0.001-0.352-0.082-0.467-0.222s-0.164-0.322-0.131-0.5c0.18-0.976,0.081-1.687-0.295-2.11
			c-0.471-0.531-1.283-0.488-1.293-0.488c-0.012,0.002-0.027,0.002-0.038,0.002l-18.819,0.108c-2.223,0.468-3.916,3.515-3.934,3.546
			c-0.162,0.295-0.534,0.403-0.83,0.242c-0.296-0.162-0.404-0.533-0.242-0.83c0.082-0.147,2.021-3.631,4.828-4.169
			c0.037-0.007,0.074-0.01,0.112-0.011l18.862-0.109c0.207-0.01,1.437-0.027,2.256,0.887c0.543,0.602,0.771,1.443,0.683,2.507
			c1.019,0.208,2.261,0.903,2.261,2.604c0,0.912-0.394,1.442-0.725,1.726c-0.469,0.401-1.059,0.545-1.543,0.587
			c0.133,0.716,0.193,1.742-0.311,2.488c-0.252,0.373-0.752,0.826-1.705,0.869c-1.25,0.057-2.151,0.065-2.727,0.068
			c0.128,0.727,0.178,1.775-0.359,2.523c-0.273,0.382-0.814,0.836-1.838,0.836c-2.521,0-11.594,0.162-11.686,0.164H78.447z"/>
	</g>
	<g>
		<path fill="#80C0E9" d="M50.459,102.563l16.682-16.114l11.487,8.767l-17.21,17.697c0,0-3.409,4.465-8.321,4.83"/>
	</g>
	<g>
		<path fill="#575757" d="M96.729,84.705H81.114c-0.338,0-0.611-0.273-0.611-0.611c0-0.337,0.273-0.61,0.611-0.61h15.614
			c0.336,0,0.611,0.273,0.611,0.61C97.34,84.432,97.064,84.705,96.729,84.705"/>
	</g>
	<g>
		<path fill="#575757" d="M96.438,88.425H81.113c-0.337,0-0.611-0.273-0.611-0.611c0-0.337,0.274-0.61,0.611-0.61h15.324
			c0.337,0,0.611,0.273,0.611,0.61C97.049,88.151,96.774,88.425,96.438,88.425"/>
	</g>
	<g>
		<path fill="#575757" d="M91.613,91.857h-10.5c-0.336,0-0.61-0.272-0.61-0.61s0.274-0.611,0.61-0.611h10.5
			c0.338,0,0.611,0.273,0.611,0.611S91.951,91.857,91.613,91.857"/>
	</g>
	<g>
		<path fill="#575757" d="M102.837,121.791c-0.337,0-0.611-0.273-0.611-0.611V87.751c0-0.338,0.274-0.611,0.611-0.611
			s0.61,0.273,0.61,0.611v33.429C103.447,121.518,103.174,121.791,102.837,121.791"/>
	</g>
	<g>
		<path fill="#575757" d="M80.762,18.015c-0.078,0-0.156-0.015-0.232-0.046c-4.982-2.05-5.895-7.442-5.931-7.671
			c-0.053-0.333,0.175-0.646,0.507-0.7c0.33-0.053,0.646,0.174,0.699,0.507c0.01,0.049,0.852,4.949,5.189,6.734
			c0.312,0.128,0.461,0.485,0.332,0.797C81.23,17.872,81.002,18.015,80.762,18.015"/>
	</g>
	<g opacity="0.8">
		<g>
			<defs>
				<rect id="SVGID_5_" x="126.089" y="51.279" width="15.586" height="0.73"/>
			</defs>
			<clipPath id="SVGID_6_">
				<use xlink:href="#SVGID_5_"  overflow="visible"/>
			</clipPath>
			<g clip-path="url(#SVGID_6_)">
				<path fill="#523D66" d="M126.451,52.005h14.862c0.199,0,0.362-0.163,0.362-0.362c0-0.2-0.163-0.362-0.362-0.362h-14.862
					c-0.199,0-0.362,0.162-0.362,0.362C126.089,51.842,126.252,52.005,126.451,52.005"/>
			</g>
		</g>
	</g>
	<g opacity="0.8">
		<g>
			<defs>
				<rect id="SVGID_7_" x="119.621" y="47.169" width="9.398" height="0.73"/>
			</defs>
			<clipPath id="SVGID_8_">
				<use xlink:href="#SVGID_7_"  overflow="visible"/>
			</clipPath>
			<g clip-path="url(#SVGID_8_)">
				<path fill="#523D66" d="M119.984,47.897h8.673c0.198,0,0.361-0.163,0.361-0.362c0-0.199-0.163-0.362-0.361-0.362h-8.673
					c-0.199,0-0.362,0.163-0.362,0.362C119.622,47.734,119.785,47.897,119.984,47.897"/>
			</g>
		</g>
	</g>
	<g opacity="0.8">
		<g>
			<defs>
				<rect id="SVGID_9_" x="129.911" y="47.169" width="3.208" height="0.73"/>
			</defs>
			<clipPath id="SVGID_10_">
				<use xlink:href="#SVGID_9_"  overflow="visible"/>
			</clipPath>
			<g clip-path="url(#SVGID_10_)">
				<path fill="#523D66" d="M130.273,47.897h2.483c0.199,0,0.362-0.163,0.362-0.362c0-0.199-0.163-0.362-0.362-0.362h-2.483
					c-0.199,0-0.362,0.163-0.362,0.362C129.911,47.734,130.074,47.897,130.273,47.897"/>
			</g>
		</g>
	</g>
	<g opacity="0.8">
		<g>
			<defs>
				<rect id="SVGID_11_" x="30.69" y="55.06" width="15.587" height="0.72"/>
			</defs>
			<clipPath id="SVGID_12_">
				<use xlink:href="#SVGID_11_"  overflow="visible"/>
			</clipPath>
			<g clip-path="url(#SVGID_12_)">
				<path fill="#523D66" d="M31.052,55.784h14.863c0.199,0,0.362-0.163,0.362-0.362c0-0.2-0.163-0.362-0.362-0.362H31.052
					c-0.199,0-0.362,0.162-0.362,0.362C30.69,55.621,30.854,55.784,31.052,55.784"/>
			</g>
		</g>
	</g>
	<g opacity="0.8">
		<g>
			<defs>
				<rect id="SVGID_13_" x="24.223" y="50.949" width="9.398" height="0.73"/>
			</defs>
			<clipPath id="SVGID_14_">
				<use xlink:href="#SVGID_13_"  overflow="visible"/>
			</clipPath>
			<g clip-path="url(#SVGID_14_)">
				<path fill="#523D66" d="M24.585,51.676h8.673c0.199,0,0.362-0.163,0.362-0.362c0-0.199-0.163-0.362-0.362-0.362h-8.673
					c-0.199,0-0.362,0.163-0.362,0.362C24.224,51.513,24.387,51.676,24.585,51.676"/>
			</g>
		</g>
	</g>
	<g opacity="0.8">
		<g>
			<defs>
				<rect id="SVGID_15_" x="34.512" y="50.949" width="3.208" height="0.73"/>
			</defs>
			<clipPath id="SVGID_16_">
				<use xlink:href="#SVGID_15_"  overflow="visible"/>
			</clipPath>
			<g clip-path="url(#SVGID_16_)">
				<path fill="#523D66" d="M34.875,51.676h2.484c0.199,0,0.362-0.163,0.362-0.362c0-0.199-0.163-0.362-0.362-0.362h-2.484
					c-0.199,0-0.362,0.163-0.362,0.362C34.513,51.513,34.676,51.676,34.875,51.676"/>
			</g>
		</g>
	</g>
	<g>
		<path fill="#575757" d="M11.238,122H0.426c-0.225,0-0.409-0.184-0.409-0.409s0.184-0.409,0.409-0.409h10.812
			c0.225,0,0.409,0.184,0.409,0.409S11.463,122,11.238,122"/>
	</g>
	<g>
		<path fill="#575757" d="M173.574,122h-10.813c-0.225,0-0.409-0.184-0.409-0.409s0.185-0.409,0.409-0.409h10.813
			c0.225,0,0.408,0.184,0.408,0.409S173.799,122,173.574,122"/>
	</g>
	<g>
		<path fill="#F2F2F2" d="M164.923,109.842c0,1.42-1.15,2.571-2.57,2.571s-2.57-1.151-2.57-2.571c0-1.419,1.15-2.569,2.57-2.569
			S164.923,108.423,164.923,109.842"/>
	</g>
	<g>
		<path fill="#F2F2F2" d="M21.116,89.534c0,1.039-0.842,1.882-1.881,1.882s-1.881-0.843-1.881-1.882s0.842-1.881,1.881-1.881
			S21.116,88.495,21.116,89.534"/>
	</g>
	<g>
		<path fill="#F2F2F2" d="M11.508,108.066c0,2.493-2.021,4.515-4.514,4.515c-2.493,0-4.514-2.021-4.514-4.515
			s2.021-4.514,4.514-4.514C9.487,103.553,11.508,105.573,11.508,108.066"/>
	</g>
	<g opacity="0.7">
		<g>
			<defs>
				<rect id="SVGID_17_" x="149.269" y="77.619" width="4.613" height="4.62"/>
			</defs>
			<clipPath id="SVGID_18_">
				<use xlink:href="#SVGID_17_"  overflow="visible"/>
			</clipPath>
			<g clip-path="url(#SVGID_18_)">
				<path fill="#523D66" d="M151.575,82.237c-1.272,0-2.308-1.035-2.308-2.307s1.035-2.307,2.308-2.307
					c1.271,0,2.307,1.035,2.307,2.307S152.847,82.237,151.575,82.237z M151.575,78.624c-0.721,0-1.308,0.586-1.308,1.307
					s0.587,1.307,1.308,1.307s1.307-0.586,1.307-1.307S152.296,78.624,151.575,78.624z"/>
			</g>
		</g>
	</g>
	<g>
		<path fill="#F68D52" d="M33.621,71.212c-1.272,0-2.307-1.035-2.307-2.308c0-1.271,1.035-2.307,2.307-2.307
			s2.307,1.035,2.307,2.307C35.928,70.177,34.893,71.212,33.621,71.212z M33.621,67.598c-0.721,0-1.307,0.586-1.307,1.307
			s0.586,1.308,1.307,1.308s1.307-0.587,1.307-1.308S34.341,67.598,33.621,67.598z"/>
	</g>
	<g>
		<rect x="139.574" y="64.151" fill="#F68D52" width="4.203" height="1"/>
	</g>
	<g>
		<rect x="141.176" y="62.55" fill="#F68D52" width="1" height="4.204"/>
	</g>
	<g>
		<rect x="3.73" y="87.249" fill="#F68D52" width="4.204" height="1"/>
	</g>
	<g>
		<rect x="5.333" y="85.647" fill="#F68D52" width="1" height="4.203"/>
	</g>
	<g>
		<path fill="#575757" d="M158.648,122H16.812c-0.225,0-0.409-0.184-0.409-0.409s0.184-0.409,0.409-0.409h141.837
			c0.225,0,0.409,0.184,0.409,0.409S158.873,122,158.648,122"/>
	</g>
	<g>
		<path fill="#575757" d="M117.846,121.671H55.26c-0.338,0-0.611-0.274-0.611-0.611v-2.918c-2.556,0.559-5.17,0.12-7.779-1.309
			c-9.423-5.158-4.607-17.036-4.558-17.155l9.5-19.424c0.163-0.343,4.057-8.465,4.475-9.213c2.282-4.074,6.597-6.605,11.261-6.605
			h38.295c6.955,0,12.613,5.659,12.613,12.614v44.01C118.456,121.396,118.183,121.671,117.846,121.671 M55.871,120.449h61.363V77.05
			c0-6.281-5.109-11.392-11.391-11.392H67.548c-4.222,0-8.129,2.29-10.195,5.979c-0.32,0.572-3.045,6.235-4.441,9.149l-9.487,19.395
			c-0.17,0.412-4.424,10.952,4.031,15.58c2.581,1.413,5.147,1.752,7.628,1.007c0.186-0.055,0.386-0.02,0.54,0.095
			c0.155,0.115,0.247,0.297,0.247,0.49V120.449z"/>
	</g>
	<g>
		<path fill="#575757" d="M53.097,118.354c-0.316,0-0.584-0.244-0.608-0.566c-0.025-0.336,0.227-0.629,0.564-0.653
			c4.57-0.341,7.848-4.55,7.881-4.593c0.014-0.019,0.03-0.037,0.047-0.055l16.73-17.203l-10.522-8.031l-16.305,15.75
			c-0.243,0.234-0.629,0.228-0.864-0.016c-0.234-0.242-0.228-0.63,0.015-0.863L66.718,86.01c0.218-0.209,0.555-0.229,0.795-0.046
			l11.486,8.767c0.139,0.106,0.226,0.267,0.239,0.44c0.013,0.175-0.051,0.347-0.172,0.472l-17.186,17.672
			c-0.343,0.438-3.772,4.669-8.738,5.038C53.128,118.354,53.113,118.354,53.097,118.354"/>
	</g>
</g>
</svg>
