<?xml version="1.0" encoding="utf-8"?>
<!-- Generator: Adobe Illustrator 16.0.0, SVG Export Plug-In . SVG Version: 6.00 Build 0)  -->
<!DOCTYPE svg PUBLIC "-//W3C//DTD SVG 1.1//EN" "http://www.w3.org/Graphics/SVG/1.1/DTD/svg11.dtd">
<svg version="1.1" id="Layer_1" xmlns="http://www.w3.org/2000/svg" xmlns:xlink="http://www.w3.org/1999/xlink" x="0px" y="0px"
	 width="45.258px" height="45.27px" viewBox="0 0 45.258 45.27" enable-background="new 0 0 45.258 45.27" xml:space="preserve">
<g>
	<g>
		<defs>
			<path id="SVGID_1_" d="M0,22.629c0,12.497,10.132,22.628,22.629,22.628c12.497,0,22.628-10.131,22.628-22.628
				C45.257,10.131,35.126,0,22.629,0C10.132,0,0,10.131,0,22.629"/>
		</defs>
		<clipPath id="SVGID_2_">
			<use xlink:href="#SVGID_1_"  overflow="visible"/>
		</clipPath>
		<path clip-path="url(#SVGID_2_)" fill="#C8B299" d="M45.258,22.629c0-12.498-10.131-22.63-22.629-22.63
			c-12.497,0-22.628,10.132-22.628,22.63c0,12.497,10.131,22.629,22.628,22.629C35.127,45.258,45.258,35.126,45.258,22.629"/>
		<path clip-path="url(#SVGID_2_)" fill="#F4E2D6" d="M26.3,31.603c-0.932-1.354-1.481-2.671-1.446-4.343
			c0.009-0.362-0.301-0.519-0.578-0.475c-0.032-0.039-0.069-0.075-0.118-0.105c-1.405-0.895-3.224-0.669-4.724-0.132
			c-0.122,0.042-0.199,0.143-0.235,0.257c-0.178,0.028-0.33,0.18-0.272,0.424c0.459,1.964-0.24,3.268-1.15,4.923
			c-0.488,0.886-0.651,1.845-0.363,2.825c0.664,2.254,2.992,3.288,5.2,3.163c2.134-0.119,4.269-1.186,4.583-3.495
			C27.355,33.485,26.946,32.54,26.3,31.603"/>
		<path clip-path="url(#SVGID_2_)" fill="#F3D2BC" d="M30.253,18.027c0.119-1.054,0.148-2.1,0.026-3.062
			c-0.645-5.047-7.377-4.5-11.069-4.475c-2.218,0.015-3.553,1.104-4.148,3.226c-0.408,1.453-0.569,2.982-0.558,4.511
			c-0.353-0.062-0.725,0.054-0.981,0.33c-0.39,0.418-0.406,1.069-0.343,1.603c0.065,0.538,0.267,1.107,0.758,1.396
			c0.268,0.159,0.579,0.208,0.86,0.134c0.012,0.082,0.025,0.164,0.038,0.245c0.009,0.051,0.028,0.093,0.055,0.127
			c0.278,1.44,0.815,2.808,1.704,4.017c2.323,3.161,6.615,4.043,9.694,1.445c1.636-1.38,2.601-3.34,3.145-5.379
			c0.045-0.165,0.089-0.334,0.132-0.506c0.048,0.018,0.104,0.026,0.166,0.023C31.321,21.572,31.615,18.42,30.253,18.027"/>
		<path clip-path="url(#SVGID_2_)" fill="#7D4F23" d="M28.865,11.365c-1.912-1.711-4.478-2.236-6.998-2.307
			c-2.301-0.065-4.741,0.553-6.331,2.315c-1.686,1.87-2.161,4.54-1.872,6.974c0.007,0.056,0.043,0.094,0.086,0.109
			c0.015,0.034,0.049,0.057,0.093,0.042c0.145-0.054,0.29-0.081,0.424-0.075c0.161,0.092,0.335,0.167,0.493,0.291
			c0.002,0.003,0.006,0.006,0.007,0.011c0.194,0.314,0.142,0.7,0.127,1.051c-0.003,0.038,0.01,0.065,0.029,0.087
			c0.005,0.031,0.021,0.06,0.058,0.067c0.335,0.06,0.715,0.045,1.03-0.094c0.051-0.021,0.068-0.065,0.063-0.11
			c0.022-0.019,0.036-0.047,0.035-0.086c-0.061-1.837-0.593-5.024,1.955-5.386c1.623-0.23,2.987,1.426,4.666,1.234
			c1.523-0.174,2.576-1.603,4.138-1.568c2.956,0.064,2.03,4.211,1.553,5.945c-0.01,0.039-0.009,0.072-0.004,0.104
			c-0.012,0.005-0.024,0.012-0.035,0.017c-0.064,0.028-0.022,0.107,0.03,0.114c0.166,0.021,0.36,0.147,0.531,0.093
			c0.001,0,0.001-0.003,0.003-0.003c0.119-0.002,0.237-0.005,0.356-0.007c0.081-0.002,0.156-0.068,0.154-0.154
			c-0.014-0.417-0.014-0.868,0.097-1.274c0.04-0.145,0.108-0.388,0.246-0.478c0.313-0.199,0.631,0.018,0.897,0.181
			c0.04,0.023,0.076,0.014,0.102-0.009c0.093,0.025,0.204-0.023,0.207-0.151C31.065,15.923,30.721,13.027,28.865,11.365"/>
		<path clip-path="url(#SVGID_2_)" fill="#F5F6F6" d="M27.135,32.466c0.004-0.021,0.005-0.042,0-0.065
			c-0.048-0.225-0.229-0.424-0.359-0.611c-0.14-0.196-0.296-0.364-0.475-0.527c-0.029-0.025-0.069-0.032-0.106-0.021
			c-0.042-0.124-0.195-0.206-0.307-0.08c-0.47,0.526-1.051,0.837-1.695,1.058c-0.044-0.071-0.123-0.115-0.228-0.075
			c-0.52,0.201-1.049,0.32-1.61,0.32c-0.446,0.001-0.879-0.148-1.32-0.085c-0.005,0-0.007,0.004-0.012,0.006
			c-0.363-0.064-0.724-0.144-1.064-0.28c-0.494-0.196-0.857-0.559-1.315-0.794c0.032-0.161-0.2-0.262-0.313-0.112
			c-2.064,2.728-2.628,6.481-1.649,9.752c0.92,3.078,3.463,5.76,6.902,5.381c3.236-0.357,4.925-3.113,5.349-6.098
			C29.32,37.475,28.735,34.692,27.135,32.466"/>
		<path clip-path="url(#SVGID_2_)" fill="#ECECEC" d="M20.888,32.202c-0.54-0.072-2.01-0.46-2.315-1.109
			c-0.003-0.03-0.014-0.059-0.028-0.084c-0.006-0.019-0.015-0.038-0.019-0.057c-0.015-0.082-0.099-0.098-0.16-0.068
			c-0.053-0.004-0.108,0.016-0.153,0.073c-0.675,0.829-1.181,1.286-0.554,2.317c0.577,0.951,1.377,1.729,2.284,2.362
			c0.132,0.093,0.315-0.031,0.315-0.18c-0.002-1.068,0.259-2.049,0.791-2.974C21.126,32.347,21.022,32.22,20.888,32.202"/>
		<path clip-path="url(#SVGID_2_)" fill="#ECECEC" d="M26.401,30.984c-0.017-0.015-0.033-0.02-0.051-0.028
			c-0.044-0.129-0.216-0.221-0.347-0.097c-0.581,0.551-1.258,0.921-2.021,1.159c-0.113,0.036-0.133,0.141-0.095,0.22
			c-0.009,0.03-0.007,0.066,0.014,0.102c0.471,0.808,0.754,1.591,0.57,2.533c-0.028,0.138,0.096,0.317,0.255,0.255
			C26.157,34.571,27.981,32.314,26.401,30.984"/>
		<path clip-path="url(#SVGID_2_)" fill="#585857" d="M25.278,43.403c-0.645-3.02-1.125-6.136-2.035-9.088
			c0.052-0.006,0.103-0.035,0.125-0.098c0.196-0.549,0.445-1.25,0.35-1.854c0.089-0.085,0.015-0.275-0.137-0.253
			c-0.022-0.004-0.045-0.005-0.071,0c-0.113,0.028-0.228,0.045-0.343,0.062c-0.217,0.024-0.434,0.034-0.651,0.034
			c-0.226-0.006-0.453-0.026-0.676-0.07c-0.06-0.013-0.106,0.01-0.137,0.046c-0.084-0.004-0.169-0.007-0.256-0.011
			c-0.045-0.001-0.066,0.03-0.066,0.064c-0.029,0.026-0.047,0.066-0.038,0.112c0.066,0.327,0.187,0.637,0.298,0.952
			c0.101,0.279,0.173,0.587,0.333,0.838c0.008,0.015,0.021,0.026,0.034,0.034c0,0.025,0.012,0.05,0.041,0.066
			c0.006,0.003,0.013,0.008,0.019,0.013c-0.005,0.009-0.01,0.018-0.012,0.028c-0.639,2.927-0.787,6.029-1.125,9.003
			c-0.009,0.078,0.032,0.124,0.088,0.143c0.293,2.095,3.682,2.321,4.171,0.209c0.001-0.007,0-0.014,0.001-0.021
			C25.253,43.572,25.298,43.498,25.278,43.403"/>
		<path clip-path="url(#SVGID_2_)" fill="#3D3D3C" d="M36.525,47.855c-0.006-0.031-0.013-0.063-0.018-0.095
			c-0.002-0.013-0.003-0.027-0.008-0.041c-0.643-3.409-1.377-6.856-2.764-10.048c-0.536-1.236-1.117-2.557-2.224-3.387
			c-1.221-0.917-2.893-1.445-4.321-1.938c-0.045-0.015-0.085,0.002-0.11,0.035c-0.039-0.014-0.088-0.001-0.103,0.044
			c-0.439,1.275-1.393,2.291-2.191,3.357c-0.771,1.033-1.554,2.061-2.316,3.103c-1.758-1.968-3.8-3.896-5.077-6.188
			c-0.006-0.017-0.015-0.034-0.027-0.046c-0.01-0.018-0.02-0.035-0.03-0.052c-0.021-0.041-0.067-0.021-0.079,0.014
			c-0.013,0.002-0.027,0.003-0.039,0.01c-2.563,1.153-5.183,2.596-6.146,5.375c-0.521,1.504-0.71,3.126-0.983,4.688
			c-0.306,1.747-0.611,3.493-0.917,5.238c-0.147-0.096-0.296-0.189-0.44-0.292c-0.112-0.08-0.245,0.097-0.146,0.191
			c0.187,0.172,0.381,0.336,0.579,0.493c0.023,0.035,0.056,0.059,0.093,0.075c3.507,2.713,8.781,2.976,13.008,2.939
			c2.686-0.023,5.375-0.308,8.009-0.837c2.001-0.402,4.605-0.75,6.025-2.384C36.42,48.115,36.555,48.014,36.525,47.855"/>
		<path clip-path="url(#SVGID_2_)" fill="#1D1D1B" d="M27.284,32.378c-0.039-0.146-0.268-0.083-0.227,0.062
			c0.362,1.211,0.401,2.599,0.859,3.767c-0.008,0.001-0.015,0-0.022,0.002c-0.683,0.235-1.388,0.387-2.073,0.609
			c-0.075-0.028-0.172,0.006-0.167,0.11c0.051,1.06,0.087,2.15,0.233,3.202c-0.019,0.009-0.035,0.021-0.048,0.042
			c-1.029,1.787-1.971,3.667-2.935,5.497c-0.08-2.268-0.206-4.537-0.345-6.785c-0.006-0.111-0.177-0.114-0.175,0
			c0.025,2.21,0.053,4.435,0.113,6.658c-1.073-1.998-2.31-4.065-3.781-5.768c0.213-1.021,0.268-2.236,0.086-3.259
			c-0.008-0.039-0.036-0.052-0.064-0.049c-0.017-0.034-0.048-0.061-0.094-0.067c-0.436-0.053-0.87-0.094-1.299-0.189
			c-0.299-0.067-0.591-0.161-0.895-0.203c0.245-0.635,0.413-1.308,0.602-1.96c0.11-0.378,0.426-0.969,0.289-1.361
			c-0.029-0.085-0.147-0.068-0.155,0.021c-0.041,0.527-0.336,1.126-0.49,1.638c-0.168,0.564-0.363,1.131-0.478,1.71
			c-0.012,0.066,0.025,0.109,0.071,0.121c0.662,0.354,1.612,0.433,2.354,0.453c0.001,0,0.002,0,0.003,0
			c-0.125,1.036-0.165,2.149-0.167,3.188c0,0.061,0.047,0.099,0.098,0.109c1.279,2.09,2.69,4.086,3.93,6.208
			c0.001,0.002,0.004,0.003,0.006,0.006c0.055,1.834,0.132,3.666,0.254,5.484c0.009,0.133,0.208,0.138,0.211,0
			c0.026-1.843-0.002-3.7-0.062-5.557c0.002-0.004,0.003-0.005,0.006-0.007c1.185-1.792,2.334-3.8,3.12-5.8
			c0.006-0.018,0.008-0.034,0.006-0.047c0.017-0.017,0.028-0.037,0.029-0.064c0.036-1.04-0.066-2.113-0.167-3.151
			c0.701-0.086,1.386-0.333,2.038-0.592c0.056-0.022,0.075-0.077,0.064-0.124c0.005-0.006,0.009-0.012,0.011-0.02
			C28.154,35.013,27.597,33.57,27.284,32.378"/>
	</g>
</g>
</svg>
