<?xml version="1.0" encoding="utf-8"?>
<!-- Generator: Adobe Illustrator 16.0.0, SVG Export Plug-In . SVG Version: 6.00 Build 0)  -->
<!DOCTYPE svg PUBLIC "-//W3C//DTD SVG 1.1//EN" "http://www.w3.org/Graphics/SVG/1.1/DTD/svg11.dtd">
<svg version="1.1"
	 id="svg2" xmlns:dc="http://purl.org/dc/elements/1.1/" xmlns:cc="http://creativecommons.org/ns#" xmlns:rdf="http://www.w3.org/1999/02/22-rdf-syntax-ns#" xmlns:svg="http://www.w3.org/2000/svg" xmlns:inkscape="http://www.inkscape.org/namespaces/inkscape"
	 xmlns="http://www.w3.org/2000/svg" xmlns:xlink="http://www.w3.org/1999/xlink" x="0px" y="0px" width="150px" height="70.78px"
	 viewBox="56.385 26.606 150 70.78" enable-background="new 56.385 26.606 150 70.78" xml:space="preserve">
<g id="g10" transform="matrix(1.25,0,0,-1.25,0,123.99187)">
	<g id="g12">
		<g>
			<defs>
				<rect id="SVGID_1_" x="30.108" y="14.207" width="150" height="70.78"/>
			</defs>
			<clipPath id="SVGID_2_">
				<use xlink:href="#SVGID_1_"  overflow="visible"/>
			</clipPath>
			<g id="g14" clip-path="url(#SVGID_2_)">
				<g id="g20" transform="translate(19.7083,12.3094)">
					<path id="path22" inkscape:connector-curvature="0" fill="#231F20" d="M36.65,16.002h0.434c0.635,0,0.827,0.368,0.827,0.73
						c0,0.541-0.317,0.737-0.922,0.737H36.65V16.002z M36.65,17.908h0.428c0.226,0,0.422-0.041,0.434-0.041
						c0.101,0.136,0.225,0.337,0.225,0.599c0,0.417-0.254,0.613-0.831,0.613c-0.077,0-0.167-0.006-0.256-0.013V17.908z
						 M36.978,19.512c0.742,0.024,1.27-0.309,1.27-0.927c0-0.326-0.29-0.659-0.444-0.812c0.386-0.179,0.671-0.423,0.671-0.988
						c0-0.635-0.381-1.212-1.461-1.212h-0.897v3.363l-0.077,0.546L36.978,19.512z"/>
				</g>
				<g id="g24" transform="translate(26.6897,12.1004)">
					<path id="path26" inkscape:connector-curvature="0" fill="#231F20" d="M33.654,16.092c0.625,0,1.034,0.566,1.034,1.259
						c0,0.696-0.41,1.26-1.034,1.26c-0.624,0-1.04-0.564-1.04-1.26C32.615,16.657,33.031,16.092,33.654,16.092 M35.235,17.382
						c0-0.933-0.701-1.676-1.623-1.676c-0.985,0-1.55,0.725-1.55,1.616c0,0.933,0.695,1.675,1.615,1.675
						C34.717,18.997,35.235,18.308,35.235,17.382"/>
				</g>
				<g id="g28" transform="translate(35.0667,16.284)">
					<path id="path30" inkscape:connector-curvature="0" fill="#231F20" d="M30.059,14.296l-0.072,0.457h0.548v-1.9
						c0-0.779-0.577-1.33-1.457-1.33c-1.277,0-1.307,1.134-1.307,1.212v1.555l-0.078,0.463h0.582V12.77
						c0-0.493,0.38-0.855,0.897-0.855c0.522,0,0.885,0.399,0.885,0.891V14.296z"/>
				</g>
				<g id="g32" transform="translate(37.051,17.0848)">
					<path id="path34" inkscape:connector-curvature="0" fill="#231F20" d="M29.207,13.953h2.786v-0.403h-1.158v-2.365l0.059-0.385
						h-0.564v2.75h-1.124V13.953z"/>
				</g>
				<g id="g36" transform="translate(44.0325,12.2362)">
					<path id="path38" inkscape:connector-curvature="0" fill="#231F20" d="M26.211,16.033l0.061-0.386h-0.565v2.691l-0.077,0.463
						h0.582V16.033z"/>
				</g>
				<g id="g40" transform="translate(48.4441,12.1004)">
					<path id="path42" inkscape:connector-curvature="0" fill="#231F20" d="M24.318,16.092c0.625,0,1.034,0.566,1.034,1.259
						c0,0.696-0.409,1.26-1.034,1.26c-0.623,0-1.04-0.564-1.04-1.26C23.278,16.657,23.695,16.092,24.318,16.092 M25.899,17.382
						c0-0.831-0.564-1.509-1.331-1.652c0.369-0.143,0.749-0.279,1.117-0.416l-0.22-0.446l-1.302,0.548v0.297
						c-0.914,0.053-1.437,0.748-1.437,1.61c0,0.933,0.696,1.675,1.616,1.675C25.381,18.997,25.899,18.308,25.899,17.382"/>
				</g>
				<g id="g44" transform="translate(56.8201,16.284)">
					<path id="path46" inkscape:connector-curvature="0" fill="#231F20" d="M20.724,14.296l-0.072,0.457h0.547v-1.9
						c0-0.779-0.577-1.33-1.456-1.33c-1.277,0-1.307,1.134-1.307,1.212v1.555l-0.077,0.463h0.582V12.77
						c0-0.493,0.38-0.855,0.898-0.855c0.522,0,0.885,0.399,0.885,0.891V14.296z"/>
				</g>
				<g id="g48" transform="translate(59.9192,16.2733)">
					<path id="path50" inkscape:connector-curvature="0" fill="#231F20" d="M19.393,14.301l-0.078,0.463h1.86v-0.398h-1.277v-0.938
						h1.129l-0.125-0.398h-1.004v-1.023h1.349l-0.126-0.398h-1.729V14.301z"/>
				</g>
				<g id="g52" transform="translate(71.9568,16.9715)">
					<path id="path54" inkscape:connector-curvature="0" fill="#231F20" d="M14.228,14.002c-0.279,0.29-0.606,0.451-0.998,0.451
						c-0.766,0-1.295-0.784-1.295-1.609c0-0.957,0.671-1.551,1.337-1.551c0.541,0,1.152,0.498,1.152,0.498l0.131-0.439
						c0,0-0.57-0.517-1.378-0.517c-0.921,0-1.812,0.678-1.812,1.949c0,1.218,0.844,2.108,1.889,2.108
						c0.493,0,0.897-0.165,1.248-0.487L14.228,14.002z"/>
				</g>
				<g id="g56" transform="translate(74.5984,13.7039)">
					<path id="path58" inkscape:connector-curvature="0" fill="#231F20" d="M13.094,15.404h0.981l-0.416,1.027l-0.053,0.178
						l-0.065-0.178L13.094,15.404z M13.487,17.334l0.302,0.065l1.087-2.661l0.285-0.559h-0.594L14.229,15h-1.295l-0.35-0.821h-0.475
						L13.487,17.334z"/>
				</g>
				<g id="g60" transform="translate(79.2908,17.0848)">
					<path id="path62" inkscape:connector-curvature="0" fill="#231F20" d="M11.08,13.953h1.86v-0.397h-1.277v-0.939h1.128
						l-0.124-0.398h-1.004v-1.034l0.06-0.385h-0.565v2.691L11.08,13.953z"/>
				</g>
				<g id="g64" transform="translate(84.1292,16.2733)">
					<path id="path66" inkscape:connector-curvature="0" fill="#231F20" d="M9.003,14.301l-0.077,0.463h1.858v-0.398H9.508v-0.938
						h1.128l-0.124-0.398H9.508v-1.023h1.349l-0.125-0.398H9.003V14.301z"/>
				</g>
				<g id="g68" transform="translate(92.5256,14.1414)">
					<path id="path70" inkscape:connector-curvature="0" fill="#231F20" d="M5.4,15.216h1.146l-0.494,1.366l-0.059,0.232
						l-0.072-0.238L5.4,15.216z M5.844,17.651l0.363,0.077l1.212-3.332l0.297-0.654H7.068l-0.375,1.023H5.24l-0.387-1.023H4.336
						L5.844,17.651z"/>
				</g>
				<g id="g72" transform="translate(102.7849,12.2264)">
					<path id="path74" inkscape:connector-curvature="0" fill="#231F20" d="M0.997,16.038l0.035-0.38H0.747l-1.984,1.991
						l-0.208,0.279v-1.883l0.059-0.387h-0.51v2.697l-0.072,0.457h0.333l1.971-1.984l0.208-0.28v1.806l-0.071,0.457h0.523V16.038z"/>
				</g>
				<g id="g76" transform="translate(105.884,16.409)">
					<path id="path78" inkscape:connector-curvature="0" fill="#231F20" d="M-0.333,14.243v-2.377h0.67
						c0.607,0,1.033,0.529,1.033,1.181c0,0.655-0.427,1.195-1.033,1.195H-0.333z M0.433,14.629c0.748,0,1.485-0.475,1.485-1.556
						c0-0.897-0.642-1.598-1.646-1.598h-1.111v2.691l-0.077,0.464H0.433z"/>
				</g>
				<g id="g80" transform="translate(114.9431,14.1414)">
					<path id="path82" inkscape:connector-curvature="0" fill="#231F20" d="M-4.221,15.216h1.148l-0.493,1.366l-0.06,0.232
						l-0.072-0.238L-4.221,15.216z M-3.773,17.651l0.361,0.077l1.212-3.332l0.299-0.654H-2.55l-0.374,1.023H-4.38l-0.386-1.023
						h-0.517L-3.773,17.651z"/>
				</g>
				<g id="g84" transform="translate(121.6765,14.2762)">
					<path id="path86" inkscape:connector-curvature="0" fill="#231F20" d="M-7.111,15.158c0.392,0,0.73,0.291,0.73,0.641
						c0,0.374-0.338,0.564-0.73,0.564h-0.332v-1.205H-7.111z M-6.06,13.607l-0.938,1.159l-0.445-0.006v-0.766l0.059-0.386h-0.564
						v2.691l-0.077,0.463h1.009c0.594,0,1.172-0.302,1.172-0.962c0-0.362-0.262-0.719-0.655-0.903l1.099-1.289H-6.06z"/>
				</g>
				<g id="g88" transform="translate(124.8289,17.0848)">
					<path id="path90" inkscape:connector-curvature="0" fill="#231F20" d="M-8.463,13.953h2.786v-0.403h-1.159v-2.365l0.06-0.385
						h-0.565v2.75h-1.122V13.953z"/>
				</g>
				<g id="g92" transform="translate(131.8103,12.2362)">
					<path id="path94" inkscape:connector-curvature="0" fill="#231F20" d="M-11.459,16.033l0.059-0.386h-0.565v2.691l-0.077,0.463
						h0.583V16.033z"/>
				</g>
				<g id="g96" transform="translate(133.5134,12.0809)">
					<path id="path98" inkscape:connector-curvature="0" fill="#231F20" d="M-12.19,16.1c0-0.005,0.06,0.457,0.06,0.457
						s0.398-0.427,0.921-0.427c0.303,0,0.548,0.16,0.548,0.475c0,0.6-1.521,0.629-1.521,1.498c0,0.498,0.433,0.914,1.044,0.914
						c0.417,0,0.733-0.137,0.904-0.237l-0.161-0.416c-0.01,0.023-0.355,0.249-0.76,0.249c-0.243,0-0.499-0.125-0.499-0.386
						c0-0.66,1.509-0.576,1.509-1.556c0-0.57-0.423-0.945-1.076-0.945c-0.635,0-0.961,0.356-0.961,0.356L-12.19,16.1z"/>
				</g>
				<g id="g100" transform="translate(139.3005,13.7039)">
					<path id="path102" inkscape:connector-curvature="0" fill="#231F20" d="M-14.674,15.404h0.979l-0.415,1.027l-0.054,0.178
						l-0.065-0.178L-14.674,15.404z M-14.281,17.334l0.302,0.065l1.088-2.661l0.284-0.559H-13.2L-13.54,15h-1.295l-0.349-0.821
						h-0.476L-14.281,17.334z"/>
				</g>
				<g id="g104" transform="translate(149.1228,12.2264)">
					<path id="path106" inkscape:connector-curvature="0" fill="#231F20" d="M-18.889,16.038l0.035-0.38h-0.286l-1.984,1.991
						l-0.206,0.279v-1.883l0.059-0.387h-0.512v2.697l-0.071,0.457h0.333l1.973-1.984l0.208-0.28v1.806l-0.071,0.457h0.523V16.038z"
						/>
				</g>
				<g id="g108" transform="translate(155.0808,12.3094)">
					<path id="path110" inkscape:connector-curvature="0" fill="#231F20" d="M-21.446,16.002h0.434c0.637,0,0.826,0.368,0.826,0.73
						c0,0.541-0.315,0.737-0.919,0.737h-0.341V16.002z M-21.446,17.908h0.428c0.226,0,0.423-0.041,0.434-0.041
						c0.101,0.136,0.226,0.337,0.226,0.599c0,0.417-0.255,0.613-0.831,0.613c-0.078,0-0.166-0.006-0.257-0.013V17.908z
						 M-21.12,19.512c0.745,0.024,1.273-0.309,1.273-0.927c0-0.326-0.292-0.659-0.445-0.812c0.385-0.179,0.67-0.423,0.67-0.988
						c0-0.635-0.38-1.212-1.461-1.212h-0.897v3.363l-0.078,0.546L-21.12,19.512z"/>
				</g>
				<g id="g112" transform="translate(160.5027,13.7039)">
					<path id="path114" inkscape:connector-curvature="0" fill="#231F20" d="M-23.773,15.404h0.98l-0.417,1.027l-0.053,0.178
						l-0.066-0.178L-23.773,15.404z M-23.381,17.334l0.304,0.065l1.087-2.661l0.285-0.559h-0.594L-22.638,15h-1.294l-0.351-0.821
						h-0.477L-23.381,17.334z"/>
				</g>
				<g id="g116" transform="translate(168.5329,11.5594)">
					<path id="path118" inkscape:connector-curvature="0" fill="#231F20" d="M-27.219,16.324l-1.323,1.557v-1.17l0.06-0.387h-0.566
						v2.691l-0.076,0.462h0.582v-1.455l1.04,1.141l-0.006-0.005l0.167,0.32h0.743l-1.391-1.484l1.462-1.67H-27.219z"/>
				</g>
				<g id="g120" transform="translate(170.9695,16.2733)">
					<path id="path122" inkscape:connector-curvature="0" fill="#231F20" d="M-28.264,14.301l-0.078,0.463h1.86v-0.398h-1.277
						v-0.938h1.128l-0.125-0.398h-1.003v-1.023h1.348l-0.126-0.398h-1.727V14.301z"/>
				</g>
				<g id="g124" transform="translate(177.3464,14.2762)">
					<path id="path126" inkscape:connector-curvature="0" fill="#231F20" d="M-31.002,15.158c0.392,0,0.731,0.291,0.731,0.641
						c0,0.374-0.34,0.564-0.731,0.564h-0.332v-1.205H-31.002z M-29.951,13.607l-0.938,1.159l-0.445-0.006v-0.766l0.059-0.386h-0.564
						v2.691l-0.077,0.463h1.01c0.594,0,1.169-0.302,1.169-0.962c0-0.362-0.261-0.719-0.653-0.903l1.098-1.289H-29.951z"/>
				</g>
				<g id="g128" transform="translate(183.1413,12.2362)">
					<path id="path130" inkscape:connector-curvature="0" fill="#231F20" d="M-33.489,16.033l0.059-0.386h-0.564v1.378l-0.831,1.408
						v-0.005l-0.316,0.373h0.679l0.695-1.163l0.064-0.179l0.09,0.173l0.707,1.17h0.524l-1.106-1.776V16.033z"/>
				</g>
				<g id="g132" transform="translate(46.5168,67.2923)">
					<path id="path134" inkscape:connector-curvature="0" fill="#6B212A" d="M25.145-7.594c-0.109,0-0.201,0.13-0.201,0.283
						c0,0.145,0.055,0.278,0.167,0.402c0.143-0.137,0.218-0.275,0.218-0.402C25.329-7.472,25.25-7.594,25.145-7.594 M25.425-8.582
						c-0.862,0-1.777,0.49-1.777,1.399c0,0.316,0.074,0.57,0.239,0.818c0.334-0.053,0.683-0.179,0.957-0.345
						c-0.166-0.184-0.25-0.387-0.25-0.602c0-0.35,0.247-0.636,0.551-0.636c0.296,0,0.536,0.286,0.536,0.636
						c0,0.21-0.101,0.421-0.294,0.616c0.191,0.118,0.429,0.178,0.706,0.178c0.589,0,1-0.379,1-0.924
						C27.093-8.229,26.255-8.582,25.425-8.582 M51.362,1.916c0.009,0.005,0.02,0.011,0.03,0.016c0.184,0.066,0.398,0.1,0.636,0.1
						c0.206,0,0.4-0.026,0.554-0.055c-0.63-0.202-1.176-0.073-1.176-0.073C51.388,1.908,51.374,1.912,51.362,1.916 M61.304,1.882
						c0.005,0,0.031-0.004,0.037-0.004c0.081-0.005,0.166-0.014,0.244-0.025c0.207-0.034,0.309-0.073,0.355-0.098
						C61.929,1.749,61.916,1.744,61.9,1.74c-0.005-0.002-0.009-0.002-0.012-0.003c-0.053-0.013-0.13-0.02-0.217-0.02
						c-0.116,0-0.462,0.014-0.88,0.169C60.943,1.894,61.129,1.894,61.304,1.882 M69.959-7.467l0.12,0.037
						c0.091,1.01,2.284,1.955,3.222,2.314c0.234,0.087,0.478,0.17,0.722,0.245c0.637,0.182,1.338,0.341,2.024,0.459
						c0.223,0.034,0.463,0.062,0.718,0.084l0.004-0.054c-0.016-0.51-0.308-1.017-0.865-1.508c-0.004-0.004-0.008-0.009-0.011-0.013
						c-0.002-0.002-0.003-0.002-0.004-0.004l-0.031-0.025c-0.012-0.011-0.027-0.022-0.048-0.038
						c-0.125-0.105-0.263-0.212-0.417-0.32c-0.001-0.002-0.026-0.018-0.027-0.018L75.33-6.331c-0.03-0.023-0.067-0.048-0.104-0.073
						l-0.037-0.025C75.159-6.45,75.131-6.47,75.097-6.49L75.06-6.515c-1.309-0.844-3.094-1.481-4.152-1.481
						c-0.359,0-0.616,0.076-0.733,0.211c-0.046,0.064-0.093,0.151-0.098,0.318H69.959z M79.283-3.611
						c0.083,0.075,0.188,0.138,0.303,0.183c0.112,0.032,0.219,0.048,0.322,0.048c0.397,0,0.643-0.244,0.776-0.444
						c0.014-0.022,0.026-0.045,0.038-0.068c0.012-0.025,0.027-0.05,0.041-0.075c0.022-0.038,0.059-0.059,0.105-0.059
						c0.07-0.002,0.12,0.052,0.12,0.118c0,0.018-0.004,0.035-0.012,0.051c-0.028,0.181-0.199,0.849-1.179,0.857
						c-0.215-0.016-0.909-0.127-1.128-0.848c-0.449,0.038-0.934,0.046-1.482,0.022c-0.017,0.06-0.03,0.093-0.03,0.093
						c-0.002,0.003-0.003,0.007-0.006,0.01c-0.27,0.711-0.941,1.072-1.993,1.072c-1.044,0-2.13-0.365-2.341-0.44
						c-0.118-0.041-0.234-0.083-0.336-0.127c-0.54-0.214-1.04-0.453-1.525-0.684l-0.329-0.156l-0.38-0.202
						c-0.872-0.464-1.774-0.945-2.609-1.461c-1.282-0.705-3.012-1.615-3.971-1.946c-0.752-0.238-1.455-0.318-2.149-0.244
						c-0.741,0.078-1.406,0.329-1.913,0.721c-0.017,0.016-0.033,0.031-0.047,0.046c0.191-0.016,0.391-0.025,0.592-0.025
						c1.232,0,2.305,0.297,2.834,0.474c0.417,0.139,0.874,0.33,1.401,0.583c1.044,0.515,3.67,2,3.697,2.015
						c1.166,0.67,2.421,1.369,3.82,1.91c1.623,0.63,3.09,0.989,4.483,1.095c0.661,0.052,1.167,0.052,1.838,0
						c0.773-0.057,1.669-0.281,2.338-0.583c0.681-0.311,1.516-0.893,1.619-1.9c0.052-0.552-0.142-1.01-0.596-1.394
						c-0.206,0.253-0.849,0.854-2.469,1.073C79.155-3.783,79.212-3.686,79.283-3.611 M81.201-5.207
						c-0.299-0.198-0.796-0.247-1.239-0.131c-0.596,0.171-0.846,0.612-0.891,0.987C80.079-4.482,80.809-4.776,81.201-5.207
						 M32.742-4.959c0.161,0.088,0.339,0.165,0.557,0.239c0.021,0.008,0.041,0.014,0.07,0.022l0.201,0.062
						c0.134,0.033,0.271,0.066,0.412,0.089c0.117,0.019,0.266,0.041,0.376,0.057c0.003-0.174-0.035-0.334-0.114-0.479
						c-0.059-0.105-0.14-0.202-0.246-0.291c-0.268-0.21-0.581-0.316-0.929-0.316c-0.308,0-0.581,0.083-0.757,0.152
						c-0.032,0.013-0.064,0.026-0.094,0.039C32.36-5.222,32.535-5.079,32.742-4.959 M38.624-6.854
						c-0.477,0.299-0.97,0.608-1.342,0.976c-0.354,0.356-0.727,0.784-0.745,1.393c0.572-0.055,1.056-0.132,1.368-0.188
						c0.945-0.176,1.765-0.393,2.438-0.645c0.273-0.103,0.517-0.204,0.747-0.312l0.041-0.017c0.004-0.001,0.008-0.003,0.01-0.005
						c0.002,0,0.003-0.002,0.006-0.002l0.035-0.018c0.004-0.002,0.007-0.003,0.012-0.004c0.475-0.235,2.245-1.18,1.952-2.098
						c-0.081-0.253-0.346-0.381-0.788-0.381c-0.852,0-2.15,0.482-3.002,0.895c-0.248,0.121-0.48,0.25-0.69,0.38L38.624-6.854z
						 M50.951-7.956c-0.012,0.002-0.025,0.002-0.044,0.004c-1.34,0.11-2.505,0.684-3.584,1.261
						c-0.712,0.381-1.547,0.836-2.356,1.316l-0.083,0.048c-0.243,0.143-0.474,0.278-0.705,0.393c-0.25,0.126-0.5,0.257-0.752,0.388
						c-0.811,0.423-1.648,0.859-2.573,1.205c-0.32,0.12-1.45,0.509-2.568,0.509c-0.669,0-1.193-0.144-1.555-0.428
						c-0.225-0.174-0.389-0.407-0.514-0.73c-0.526,0.021-0.999,0.007-1.46-0.038c-0.079,0.208-0.326,0.677-0.976,0.799
						c-0.023,0.003-0.045,0.006-0.078,0.012c-0.116,0.013-0.245,0.013-0.361,0c-0.007,0-0.016-0.002-0.024-0.006
						c-0.049-0.006-0.075-0.013-0.073-0.013h0c-0.479-0.096-0.796-0.421-0.824-0.846c-0.004-0.059,0.036-0.111,0.094-0.123
						c0.058-0.012,0.115,0.021,0.135,0.076c0,0.002,0.055,0.153,0.204,0.303c0.003,0.003,0.007,0.008,0.01,0.013
						c0.095,0.091,0.258,0.201,0.498,0.232c0.01,0,0.028,0,0.05,0.006v-0.002c0.011,0,0.031-0.001,0.042,0.002
						c0.091,0.008,0.185,0.001,0.266-0.013c0.012-0.004,0.019-0.005,0.032-0.006c0.001-0.001,0.037-0.011,0.039-0.012
						c0.015-0.007,0.019-0.012,0.036-0.012l0.012-0.004c0.013-0.009,0.028-0.015,0.044-0.018c0.157-0.076,0.302-0.247,0.389-0.454
						c-0.054-0.009-0.115-0.02-0.156-0.028c-0.911-0.165-1.362-0.417-1.378-0.427c-0.326-0.162-0.617-0.375-0.867-0.635
						c-0.938,0.696-0.51,1.898-0.492,1.947c0.067,0.173,0.163,0.336,0.282,0.485c0.509,0.618,1.343,0.933,1.351,0.936
						c0.005,0.002,0.009,0.004,0.014,0.006c0.035,0.013,0.068,0.027,0.103,0.04l0.048,0.019c1.104,0.403,2.207,0.557,3.581,0.488
						c0.054-0.002,0.105-0.006,0.158-0.01l0.073-0.006c0.708-0.063,3.29-0.404,6.763-2.099c0.246-0.128,0.488-0.255,0.729-0.381
						l0.313-0.164c0.343-0.182,0.681-0.381,1.01-0.573c0.152-0.089,0.304-0.178,0.482-0.279c0.007-0.005,0.014-0.009,0.022-0.011
						l0.022-0.013c0.057-0.032,0.115-0.066,0.188-0.11c0.562-0.311,1.143-0.634,1.751-0.931c1.103-0.534,2.474-1.2,4.107-1.327
						c0.472-0.035,0.982-0.03,1.465,0.016c-0.256-0.295-0.917-0.823-2.377-0.823c-0.157,0-0.322,0.006-0.491,0.018
						C50.964-7.957,50.958-7.956,50.951-7.956 M51.355-1.65c2.257-0.154,4.072,0.948,4.433,1.183l0.376-0.225l-1.583-0.807
						l-0.882-0.387c-0.003,0-0.007-0.002-0.01-0.003c-0.705-0.251-1.339-0.32-1.833-0.21c-0.453,0.116-0.705,0.303-0.845,0.481
						C51.125-1.632,51.24-1.643,51.355-1.65 M56.559-0.481l-0.284,0.167l-0.126,0.066l0.534,0.313l0.463-0.246L56.559-0.481z
						 M62.125-1.77l0.092,0.003c-0.168-0.178-0.544-0.453-1.248-0.453c-0.15,0-0.31,0.013-0.474,0.037
						c-0.605,0.089-1.337,0.338-2.186,0.742l-1.095,0.595l0.587,0.332c0.316-0.16,1.818-0.902,2.779-1.082
						c0.765-0.143,1.18-0.166,1.453-0.17L62.125-1.77z M63.872-0.483c-0.038-0.413-0.424-0.635-0.751-0.753l-0.026-0.01
						c-0.005,0-0.036-0.009-0.041-0.011c-0.023-0.008-0.048-0.015-0.074-0.022c-0.007,0.346-0.154,0.604-0.158,0.611
						c-0.206,0.402-0.566,0.559-0.599,0.573c-0.259,0.127-0.575,0.191-0.938,0.191c-0.177,0-0.332-0.016-0.427-0.029
						c-0.259-0.029-0.442-0.089-0.543-0.173c-0.016-0.008-0.029-0.017-0.044-0.027c-0.013-0.009-0.026-0.022-0.035-0.036
						c-0.01-0.013-0.021-0.028-0.025-0.039c-0.041-0.071-0.045-0.154-0.009-0.216c0.052-0.092,0.169-0.118,0.312-0.054
						c0.003,0.001,0.029,0.015,0.031,0.017c0.026,0.014,0.054,0.026,0.08,0.038l0.037,0.018c0.128,0.045,0.344,0.101,0.651,0.101
						l0.074,0c0.029,0,0.052-0.003,0.079-0.006c0.222-0.02,0.626-0.096,0.837-0.381c0.125-0.168,0.167-0.393,0.125-0.669
						c-0.028,0-0.061,0-0.099,0c-0.458,0-1.406,0.059-2.615,0.45L59.18-0.724l-0.814,0.353l-0.05-0.107l0.013,0.126l-0.131,0.063
						l0.999,0.51l0.24,0.105l0.723,0.259l0.478,0.118l0.256,0.036l0.239,0.028c0.049,0.003,0.125,0.007,0.223,0.007
						c0.291,0,0.874-0.032,1.5-0.243C62.967,0.489,63.921,0.106,63.872-0.483 M53.928,2.211c0.297,0.231,0.554,0.495,0.744,0.7
						c0.115,0.123,0.222,0.249,0.333,0.382l0.105,0.138c0.003,0.003,0.018,0.022,0.021,0.025c0,0,0.02,0.023,0.021,0.024
						c0.046,0.055,0.094,0.107,0.146,0.158c0.207,0.201,0.45,0.369,0.705,0.484c0.255,0.114,0.534,0.167,0.795,0.153
						c0.263-0.016,0.531-0.102,0.778-0.251c0.134-0.075,0.266-0.173,0.416-0.304c0.028-0.032,0.095-0.104,0.181-0.195
						c0.076-0.082,0.166-0.178,0.255-0.275c0.009-0.014,0.019-0.024,0.024-0.029c0.024-0.029,0.049-0.057,0.075-0.087
						c0.021-0.023,0.043-0.047,0.083-0.092c0.016-0.018,0.032-0.036,0.049-0.055c0.005-0.007,0.01-0.014,0.016-0.021
						c0.071-0.077,0.589-0.631,0.99-0.924l-0.498-0.146l-0.742-0.271l-0.952-0.449L56.52,0.65l-1.315,0.763L54.656,1.69l-0.54,0.236
						l-0.405,0.13C53.791,2.108,53.863,2.163,53.928,2.211 M50.445-0.83c-0.002-0.004-0.031-0.091-0.043-0.215
						c-0.001-0.011-0.003-0.022-0.005-0.033c-0.443,0.146-0.718,0.399-0.76,0.707c-0.045,0.328,0.176,0.677,0.573,0.908l0.152,0.076
						c0.023,0.013,0.045,0.024,0.066,0.033l0.227,0.075l0.38,0.08c0.027,0.002,0.057,0.005,0.089,0.009
						c0.147,0.012,0.3,0.019,0.453,0.019c1.586,0,3.061-0.675,3.589-0.943c-1.872-1.013-3.005-1.07-3.025-1.07
						c-0.494-0.052-0.936-0.05-1.306,0.008c-0.016,0.226,0.036,0.408,0.153,0.542c0.234,0.269,0.661,0.28,0.719,0.28
						c0.26-0.01,0.496-0.067,0.565-0.085c0.072-0.017,0.151-0.057,0.213-0.088l0.069-0.033c0.026-0.01,0.094-0.034,0.169-0.034
						c0.107,0,0.188,0.049,0.22,0.134c0.021,0.052,0.02,0.106-0.003,0.157c-0.048,0.106-0.178,0.159-0.215,0.172
						c-0.15,0.055-0.444,0.127-0.771,0.147l-0.098,0.005c-0.4,0.014-0.74-0.056-0.966-0.207C50.673-0.331,50.517-0.557,50.445-0.83
						 M55.749-6.138l-0.076-0.047c-0.013-0.007-0.028-0.017-0.052-0.029c-0.032-0.021-0.067-0.039-0.099-0.057l-0.049-0.026
						c-0.011-0.007-0.02-0.012-0.039-0.021c-0.272-0.139-0.571-0.255-0.873-0.338c0.01,0.057,0.013,0.098,0.014,0.118
						c0.069,0.647-0.221,1.213-0.23,1.229c-0.419,0.979-1.461,2.182-1.91,2.674c0.225-0.011,0.453,0,0.682,0.03
						c1.379,0.17,3.316,1.301,3.7,1.53c0.008-0.005,0.017-0.011,0.026-0.018c0.296-0.205,1.198-0.829,2.487-1.235l0.681-0.194
						l0.397-0.072l0.042-0.002c0.114-0.018,0.219-0.033,0.319-0.043c-0.418-0.383-1.339-1.313-1.824-2.458
						c-0.008-0.016-0.015-0.034-0.023-0.052l-0.018-0.04c-0.003-0.007-0.016-0.043-0.02-0.058c-0.029-0.076-0.052-0.154-0.072-0.231
						c-0.01-0.035-0.172-0.585-0.029-1.154c-0.152,0.044-0.314,0.096-0.428,0.138c-0.003,0.001-0.007,0.003-0.011,0.004
						c-0.008,0.004-0.016,0.008-0.024,0.011c-0.611,0.192-1.083,0.539-1.372,0.798C56.93-5.669,56.911-5.65,56.89-5.631
						c-0.092,0.086-0.152,0.14-0.223,0.144c-0.038,0.002-0.077-0.016-0.1-0.046C56.565-5.535,56.422-5.712,55.749-6.138
						 M88.329-7.421c-0.105,0-0.185,0.122-0.185,0.284c0,0.127,0.073,0.263,0.217,0.403c0.11-0.125,0.166-0.261,0.166-0.403
						C88.526-7.291,88.437-7.421,88.329-7.421 M87.379-6.344c0.281,0,0.52-0.06,0.71-0.178c-0.195-0.191-0.296-0.402-0.296-0.615
						c0-0.351,0.24-0.637,0.536-0.637c0.298,0,0.55,0.292,0.55,0.637c0,0.214-0.084,0.416-0.251,0.601
						c0.275,0.165,0.626,0.292,0.955,0.346c0.169-0.245,0.248-0.507,0.248-0.819c0-0.907-0.917-1.397-1.781-1.397
						c-0.83,0-1.668,0.353-1.668,1.141C86.381-6.723,86.792-6.344,87.379-6.344 M94.895-6.138c-0.92,0-1.537-0.483-1.537-0.934
						c0-0.122,0.038-0.233,0.07-0.305c0.019-0.042,0.061-0.07,0.108-0.07h0.076c0.209,0,0.376,0.123,0.446,0.328
						c0.152,0.416,0.329,0.627,0.875,0.627c0.579,0,1.2-0.331,1.2-0.823c0-0.468-0.552-0.822-1.284-0.822
						c-0.874,0-1.616,0.553-2.226,1.093c-0.653,0.585-1.537,1.257-2.569,1.257c-0.068,0-0.142,0-0.217-0.006
						c-0.532,0.55-1.378,0.89-2.218,0.89c-1.651,0-2.798-0.819-3.702-1.621c-0.08-0.073-0.159-0.15-0.237-0.226l-0.087-0.085
						c-0.573-0.564-1.115-1.097-1.984-1.097c-0.471,0-0.875,0.131-1.281,0.42c0.049,0.014,0.095,0.029,0.141,0.044l0.032,0.011
						c0.467,0.148,0.889,0.447,1.136,0.804c0.009,0.01,0.019,0.023,0.023,0.031l0.019,0.031c0.016,0.027,0.031,0.054,0.046,0.079
						c0.001,0.003,0.002,0.007,0.004,0.011c0.009,0.013,0.018,0.025,0.025,0.041c0.205,0.4,0.219,0.797,0.044,1.155
						c0.163,0.133,0.307,0.295,0.413,0.464c0.005,0.004,0.009,0.009,0.012,0.014c0.003,0.004,0.007,0.01,0.01,0.016l0.021,0.034
						c0.013,0.023,0.026,0.045,0.032,0.059c0.064,0.104,0.117,0.214,0.159,0.327c0.004,0.011,0.005,0.021,0.006,0.032
						c0.012,0.031,0.021,0.059,0.024,0.078c0.01,0.016,0.015,0.034,0.009,0.026c0.01,0.017,0.017,0.043,0.02,0.063
						c0.014,0.039,0.019,0.065,0.019,0.065c0.001,0.009,0.001,0.017,0.001,0.025c0.042,0.223,0.047,0.446,0.016,0.68
						c-0.027,0.216-0.112,0.444-0.18,0.6c-0.201,0.436-0.542,0.825-1.016,1.155c-0.98,0.666-2.609,1.034-4.582,1.034
						c-0.413,0-0.833-0.017-1.251-0.05l-0.271-0.027c-1.123-0.136-4.205-0.748-8.599-3.507l-0.162-0.105
						c-1.3-0.835-2.642-1.699-4.301-2.189c-0.706-0.207-1.355-0.308-1.984-0.309c-0.14,0-0.282,0.006-0.427,0.016
						c-0.105,0.007-0.286,0.019-0.444,0.04c-0.073,0.243-0.064,0.502-0.041,0.682c0.012,0.089,0.033,0.174,0.056,0.278
						c0.128,0.465,0.292,0.858,0.497,1.202c0.205,0.344,0.472,0.698,0.817,1.084c0.26,0.296,0.556,0.592,0.881,0.882
						c0.398,0.05,0.724,0.179,0.972,0.383c0.012,0.008,0.026,0.02,0.033,0.026c0.029,0.027,0.058,0.053,0.088,0.084
						c0.005,0.005,0.011,0.01,0.016,0.018l0.031,0.035c0.012,0.014,0.023,0.029,0.035,0.043c0.001,0.002,0.02,0.025,0.022,0.026
						c0.074,0.1,0.132,0.202,0.172,0.306l0.105,0.014c1.191,0.194,1.36,0.959,1.384,1.144c0.005,0.013,0.008,0.027,0.008,0.041
						l0.001,0.129c0,0.102-0.016,0.204-0.049,0.302c-0.001,0.003-0.001,0.005-0.002,0.007c-0.217,0.633-1.061,1.099-2.257,1.246
						c-0.316,0.038-0.621,0.059-0.909,0.062c-0.302-0.007-1.137-0.078-2.347-0.583c-0.055-0.021-0.111-0.044-0.178-0.075
						c-0.014-0.009-0.03-0.016-0.057-0.027l-1.04-0.5l-0.465,0.266l1.659,0.957l0.461,0.219l0.686,0.27
						c0.008,0.001,0.016,0.004,0.02,0.004c0.059,0.022,0.112,0.036,0.145,0.043l0.206-0.116c0.432-0.225,0.836-0.36,1.205-0.401
						c0.202-0.014,0.354-0.008,0.495,0.013c0.014,0,0.029,0.003,0.044,0.01c0.189,0.041,0.319,0.122,0.386,0.24
						c0.082,0.145,0.037,0.284,0.031,0.3c-0.001,0.002-0.014,0.03-0.015,0.033c-0.006,0.014-0.013,0.028-0.02,0.039
						c-0.002,0.004-0.02,0.028-0.023,0.032c-0.012,0.015-0.023,0.029-0.036,0.043c-0.016,0.022-0.033,0.034-0.034,0.034
						c-0.001,0.001-0.022,0.02-0.023,0.021c-0.252,0.209-0.822,0.268-1.594,0.179c-0.204-0.025-0.375-0.052-0.452-0.066
						l-0.303,0.215l-0.183,0.158l-0.317,0.312c-0.132,0.149-0.255,0.303-0.374,0.457l-0.1,0.134
						c-0.047,0.062-0.094,0.125-0.139,0.189c-0.132,0.18-0.367,0.456-0.424,0.519c-0.161,0.164-0.327,0.302-0.494,0.412
						c-0.158,0.102-0.328,0.186-0.501,0.248c-0.176,0.065-0.365,0.107-0.562,0.123c-0.372,0.027-0.755-0.044-1.107-0.204
						c-0.327-0.146-0.628-0.36-0.897-0.642l-0.034-0.039c-0.049-0.054-0.096-0.108-0.146-0.173L54.644,3.85
						c-0.006-0.005-0.02-0.026-0.025-0.031l-0.107-0.146c-0.092-0.129-0.186-0.252-0.29-0.375c-0.098-0.125-0.202-0.245-0.306-0.36
						c-0.106-0.116-0.216-0.23-0.326-0.338C53.537,2.55,53.479,2.5,53.425,2.454l-0.124-0.096c-0.017-0.012-0.034-0.025-0.057-0.039
						c-0.038-0.026-0.079-0.051-0.12-0.076l-0.045-0.028c-0.18,0.05-0.791,0.211-1.325,0.211c-0.245,0-0.445-0.035-0.598-0.105
						c-0.092-0.047-0.305-0.184-0.305-0.442c0-0.112,0.044-0.317,0.344-0.423c0.066-0.021,0.135-0.036,0.205-0.043
						c0.046-0.009,0.086-0.013,0.135-0.012c0.696-0.033,1.497,0.312,1.695,0.403l0.397-0.139l0.507-0.21l1.937-1.057l-0.538-0.311
						c-0.171,0.095-0.698,0.378-1.408,0.641l-0.232,0.088l-0.558,0.169l-0.608,0.139c-0.514,0.096-1.01,0.13-1.431,0.099
						c-0.037,0-0.918-0.012-1.634-0.432c-0.181-0.1-0.328-0.213-0.447-0.345c-0.331-0.363-0.286-0.715-0.285-0.715
						c-0.001-0.037-0.017-0.895,1.51-1.251c0.002-0.007,0.004-0.013,0.007-0.018c0.001-0.008,0.004-0.027,0.007-0.034
						c0.107-0.316,0.404-0.735,1.213-0.942c0.329-0.359,0.618-0.698,0.88-1.04c0.311-0.386,0.589-0.78,0.825-1.172
						c0.13-0.214,0.24-0.422,0.326-0.617c0.089-0.205,0.181-0.423,0.255-0.641c0.08-0.244,0.115-0.441,0.112-0.62
						c-0.002-0.061-0.008-0.121-0.019-0.182c-0.143-0.022-0.317-0.034-0.476-0.047L53.52-6.833
						c-0.655-0.049-1.257,0.006-1.818,0.154c-0.088,0.022-0.178,0.039-0.267,0.055c-0.104,0.02-0.208,0.04-0.307,0.069
						c-0.832,0.251-1.482,0.559-2.007,0.828c-0.85,0.435-1.628,0.927-2.381,1.402l-0.034,0.022C42.51-1.583,39.201-1.017,37.969-0.9
						c-1.178,0.09-2.32,0.056-3.298-0.098c-0.667-0.109-1.122-0.205-1.611-0.406c-1.016-0.412-1.643-0.93-1.977-1.632
						c-0.078-0.169-0.16-0.373-0.191-0.6c0,0-0.009-0.071-0.012-0.188c-0.01-0.149,0.001-0.288,0.013-0.392
						c0.05-0.422,0.223-0.991,0.757-1.365c-0.006-0.015-0.012-0.029-0.018-0.043c-0.011-0.026-0.021-0.051-0.03-0.078
						c-0.244-0.836,0.326-1.474,0.939-1.792c0.18-0.095,0.382-0.17,0.574-0.214c-0.396-0.275-0.792-0.4-1.254-0.4
						c-0.87,0-1.411,0.534-1.984,1.096c-0.104,0.106-0.211,0.209-0.325,0.316C28.648-5.897,27.5-5.08,25.85-5.08
						c-0.843,0-1.693-0.343-2.219-0.888c-0.07,0.008-0.143,0.008-0.216,0.008c-1.022,0-1.909-0.673-2.567-1.259
						c-0.614-0.54-1.359-1.093-2.225-1.093c-0.734,0-1.288,0.355-1.288,0.824c0,0.507,0.626,0.821,1.206,0.821
						c0.538,0,0.716-0.211,0.87-0.623c0.108-0.309,0.372-0.334,0.45-0.334c0.035,0,0.062,0,0.087,0.004
						c0.039,0.005,0.072,0.029,0.09,0.064c0.048,0.097,0.075,0.209,0.075,0.308c0,0.45-0.617,0.933-1.534,0.933
						c-0.894,0-1.595-0.516-1.595-1.174c0-0.66,0.719-1.177,1.639-1.177c1.118,0,2.026,0.558,2.591,1.027l0.079,0.068
						c0.092,0.078,0.185,0.157,0.274,0.233c0.58,0.503,1.129,0.978,1.784,1.019c-0.184-0.302-0.253-0.545-0.253-0.865
						c0-1.081,1.207-1.751,2.325-1.751c1.073,0,2.213,0.523,2.213,1.492c0,0.789-0.802,1.277-1.545,1.277
						c-0.263,0-0.644-0.054-0.976-0.306c-0.27,0.185-0.609,0.33-0.967,0.413c0.434,0.405,1.033,0.627,1.7,0.627
						c1.173,0,1.824-0.644,2.457-1.268l0.152-0.145c0.073-0.07,0.146-0.14,0.22-0.208c1.052-0.972,2.033-1.405,3.183-1.405
						c0.682,0,1.238,0.225,1.8,0.729c0.026,0.014,0.047,0.029,0.064,0.046c0.03,0.029,0.042,0.073,0.031,0.114
						c-0.018,0.066-0.062,0.116-0.122,0.141c-0.006,0.003-0.012,0.007-0.02,0.009C33.56-7.4,33.496-7.397,33.454-7.401
						c-0.014,0-0.028,0-0.038,0.001c-0.606,0.075-1.1,0.374-1.356,0.82c-0.095,0.168-0.222,0.534-0.085,0.818
						c0.171-0.075,0.365-0.13,0.577-0.163c0.012-0.004,0.033-0.01,0.059-0.01l0,0c0.001,0,0.003-0.001,0.003-0.001
						c0.013-0.004,0.031-0.005,0.05-0.006l0.01,0.117l0.021-0.121l0.038-0.004c0.029-0.003,0.061-0.007,0.099-0.009
						c0.326-0.019,0.63,0.025,0.906,0.129c0.067,0.024,0.132,0.055,0.172,0.079c0.011,0.003,0.018,0.006,0.027,0.012
						c0.021,0.011,0.042,0.022,0.061,0.034c0.473,0.273,0.781,0.756,0.807,1.254c0.41,0.027,0.853,0.025,1.317-0.004
						c0.057-0.703,0.434-1.221,0.787-1.653c0.341-0.418,0.779-0.8,1.342-1.17c0.454-0.296,1.001-0.63,1.626-0.861
						c0.532-0.198,1.242-0.43,2.018-0.462c0.71-0.031,1.247,0.132,1.53,0.465c0.018,0.012,0.034,0.032,0.042,0.051
						c0.018,0.023,0.036,0.045,0.047,0.066c0.088,0.139,0.132,0.295,0.132,0.461c0.002,0.384-0.229,0.751-0.423,0.993
						c-0.179,0.219-0.386,0.423-0.653,0.643c-0.503,0.391-1.05,0.635-1.66,0.891c-0.637,0.268-1.288,0.485-1.936,0.646
						c-0.361,0.09-0.737,0.165-1.115,0.223c-0.406,0.068-0.816,0.116-1.246,0.148c0.111,0.298,0.36,0.525,0.741,0.677
						c0.207,0.084,0.468,0.125,0.776,0.125c0.395,0,0.865-0.074,1.257-0.198c0.455-0.144,0.869-0.296,1.265-0.464
						c0.664-0.282,1.272-0.63,1.86-0.965c0.136-0.078,0.271-0.155,0.406-0.232c0.71-0.398,1.404-0.774,2.094-1.146l0.221-0.12
						c0.043-0.024,0.085-0.047,0.128-0.069c0.005-0.003,0.009-0.005,0.013-0.009c0.023-0.013,2.344-1.348,4.525-1.798v0.001
						c0.006-0.001,0.011-0.003,0.015-0.003c0.259-0.051,0.508-0.09,0.762-0.118c0.338-0.04,0.661-0.061,0.959-0.061
						c1.881,0,2.557,0.807,2.797,1.323c0.024,0.007,0.044,0.011,0.049,0.011c0.201,0.049,1.23,0.324,2.164,1.1
						c0.267-0.216,1.175-0.898,2.293-1.136c0.041-0.038,0.081-0.082,0.119-0.123c0.042-0.047,0.084-0.091,0.132-0.134
						c0.015-0.017,0.027-0.03,0.031-0.027c0.024-0.023,0.053-0.046,0.082-0.069l0.042-0.034c0.008-0.008,0.017-0.015,0.027-0.02
						c0.681-0.518,1.591-0.814,2.498-0.814c0.455,0,0.885,0.043,1.313,0.129c0.838,0.173,1.616,0.442,2.202,0.657
						c0.617,0.229,1.265,0.518,1.979,0.884c0.591,0.3,1.223,0.627,1.849,0.994c0.247,0.146,0.5,0.288,0.754,0.429
						c0.345,0.193,0.702,0.393,1.044,0.607c0.07,0.042,0.141,0.084,0.216,0.125l-0.002,0.001c0.006,0.003,0.012,0.006,0.015,0.009
						c0.198,0.113,0.422,0.228,0.685,0.354c0.145,0.072,0.289,0.144,0.443,0.213c0.799,0.361,1.951,0.792,2.902,0.792
						c0.146,0,0.283-0.01,0.409-0.03c0.026-0.004,0.055-0.01,0.091-0.017c0.32-0.075,0.72-0.256,0.897-0.699
						c-0.405-0.04-0.823-0.095-1.249-0.164c-1.077-0.177-2.001-0.44-2.91-0.829c-0.532-0.226-1.097-0.488-1.629-0.879
						c-0.238-0.177-0.446-0.372-0.656-0.612c-0.203-0.232-0.421-0.513-0.493-0.83c-0.067-0.292-0.017-0.563,0.144-0.787
						c0.206-0.284,0.588-0.478,1.023-0.517c0.684-0.064,1.249,0.062,1.753,0.203c0.799,0.217,1.542,0.541,2.204,0.961
						c2.028,1.238,2.386,2.388,2.395,3.027c0.478,0.025,0.941,0.021,1.369-0.011c0.01-0.116,0.035-0.227,0.075-0.334
						c0.095-0.309,0.378-0.854,1.208-1.055c0.003-0.001,0.005-0.003,0.008-0.003c0.009-0.005,0.02-0.009,0.031-0.01
						c0.003,0,0.008-0.001,0.013-0.002c0.02-0.004,0.034-0.004,0.024-0.001c0.057-0.015,0.116-0.029,0.188-0.039l0.013,0.117
						l0.024-0.123c0.033-0.004,0.074-0.007,0.1-0.008c0.026-0.002,0.048-0.003,0.072-0.003c0.005-0.001,0.01-0.001,0.014-0.002
						c0.387-0.015,0.736,0.061,1.052,0.224c0.002-0.006,0.005-0.012,0.008-0.018c0.066-0.13,0.065-0.297,0.053-0.412
						c-0.066-0.582-0.689-1.076-1.229-1.201c-0.054-0.013-0.108-0.018-0.16-0.023c-0.081-0.007-0.164-0.016-0.247-0.046
						c-0.011-0.004-0.021-0.011-0.031-0.017c-0.035-0.014-0.071-0.037-0.106-0.067c-0.028-0.023-0.043-0.057-0.043-0.094
						c0.001-0.036,0.019-0.069,0.048-0.091c0.027-0.02,0.054-0.033,0.08-0.043c0.562-0.505,1.118-0.731,1.799-0.731
						c1.148,0,2.131,0.434,3.185,1.407c0.126,0.116,0.246,0.236,0.366,0.356c0.636,0.622,1.293,1.266,2.458,1.266
						c0.668,0,1.268-0.222,1.7-0.626c-0.361-0.086-0.701-0.232-0.967-0.414c-0.338,0.251-0.716,0.304-0.976,0.304
						c-0.744,0-1.546-0.486-1.546-1.274c0-0.971,1.142-1.493,2.216-1.493c1.118,0,2.325,0.669,2.325,1.749
						c0,0.321-0.071,0.565-0.255,0.869c0.645-0.041,1.188-0.508,1.762-1.002l0.027-0.024c0.116-0.099,0.233-0.199,0.352-0.299
						C92.818-7.933,93.72-8.49,94.85-8.49c0.917,0,1.637,0.516,1.637,1.174C96.487-6.655,95.787-6.138,94.895-6.138"/>
				</g>
				<g id="g136" transform="translate(46.5168,34.6004)">
					<path id="path138" inkscape:connector-curvature="0" fill="#6B212A" d="M25.145,6.436c0.103,0,0.184-0.126,0.184-0.284
						c0-0.128-0.074-0.263-0.219-0.402C25,5.875,24.944,6.009,24.944,6.152C24.944,6.305,25.036,6.436,25.145,6.436 M26.093,5.357
						c-0.281,0-0.52,0.061-0.708,0.18c0.195,0.191,0.296,0.403,0.296,0.616c0,0.351-0.24,0.636-0.536,0.636
						c-0.304,0-0.551-0.285-0.551-0.636c0-0.216,0.085-0.423,0.249-0.602c-0.269-0.164-0.619-0.291-0.955-0.345
						c-0.164,0.24-0.24,0.502-0.24,0.818c0,0.907,0.916,1.396,1.777,1.396c0.83,0,1.668-0.352,1.668-1.138
						C27.093,5.737,26.681,5.357,26.093,5.357 M41.195,4.516c-0.006-0.002-0.012-0.005-0.019-0.008
						c-0.017-0.009-0.034-0.016-0.054-0.024C41.115,4.48,41.107,4.476,41.1,4.471l-0.013-0.005c-0.238-0.11-0.481-0.21-0.742-0.308
						c-0.675-0.253-1.495-0.47-2.438-0.644c-0.315-0.059-0.803-0.138-1.369-0.19c0.019,0.61,0.392,1.036,0.745,1.389
						c0.365,0.366,0.845,0.668,1.311,0.959l0.068,0.043c0.214,0.134,0.44,0.259,0.695,0.382c0.849,0.413,2.145,0.896,3,0.896
						c0.444,0,0.709-0.13,0.791-0.383C43.439,5.696,41.674,4.752,41.195,4.516 M34.327,3.464l0.004-0.056
						c0.001-0.023,0.003-0.047,0.003-0.074c-0.253,0.027-0.51,0.073-0.758,0.141c-0.072,0.023-0.143,0.045-0.213,0.063
						c-0.034,0.009-0.059,0.018-0.093,0.031c-0.201,0.069-0.374,0.144-0.528,0.23c-0.211,0.122-0.387,0.263-0.525,0.424
						c0.03,0.014,0.061,0.028,0.094,0.041c0.14,0.057,0.425,0.152,0.754,0.152c0.148,0,0.291-0.02,0.428-0.059
						c0.066-0.016,0.179-0.058,0.297-0.122C33.968,4.126,34.273,3.882,34.327,3.464 M46.502,3.739
						c-0.231-0.129-0.459-0.263-0.687-0.396c-0.333-0.196-0.677-0.398-1.023-0.582l-0.191-0.1C43.519,2.09,42.399,1.5,41.154,1.042
						c-0.224-0.082-0.458-0.148-0.706-0.218c-0.106-0.029-0.213-0.059-0.319-0.091c-0.887-0.26-2.072-0.568-3.376-0.634
						c-1.354-0.067-2.468,0.086-3.577,0.486c-0.054,0.021-0.107,0.044-0.165,0.069c-0.01,0.005-0.021,0.008-0.032,0.009
						c-0.154,0.063-0.865,0.374-1.319,0.923c-0.121,0.151-0.216,0.316-0.283,0.485c-0.019,0.052-0.441,1.239,0.495,1.948
						c0.249-0.259,0.539-0.472,0.861-0.631c0.021-0.012,0.523-0.295,1.543-0.458c-0.008-0.026-0.017-0.052-0.027-0.08
						C34.169,2.67,34.024,2.536,33.8,2.447c-0.02-0.006-0.038-0.012-0.04-0.014C33.63,2.404,33.497,2.4,33.372,2.421
						c-0.005,0-0.018,0.002-0.026,0.002c-0.012,0.004-0.031,0.007-0.037,0.009c-0.003,0.002-0.029,0.006-0.032,0.007
						c-0.094,0.022-0.179,0.056-0.255,0.102C33.016,2.543,33.008,2.546,33,2.549l0.001,0.002c-0.073,0.043-0.138,0.097-0.193,0.156
						c-0.115,0.131-0.158,0.257-0.159,0.258c-0.019,0.056-0.075,0.088-0.134,0.078c-0.058-0.012-0.099-0.064-0.095-0.122
						c0.028-0.46,0.394-0.799,0.95-0.868c0.194-0.023,0.363-0.005,0.514,0.041c0.014,0.003,0.036,0.008,0.047,0.016
						c0.004,0,0.009,0.002,0.014,0.003c0.014,0.002,0.029,0.007,0.041,0.015c0.092,0.034,0.181,0.081,0.265,0.139
						c0.276,0.196,0.407,0.463,0.461,0.605c0.462-0.05,0.954-0.065,1.502-0.043c0.127-0.324,0.292-0.557,0.514-0.73
						c0.364-0.283,0.888-0.426,1.559-0.426c1.118,0,2.247,0.387,2.568,0.505c0.919,0.345,1.753,0.779,2.559,1.199
						c0.256,0.134,0.51,0.266,0.765,0.395c0.2,0.102,0.405,0.22,0.613,0.34l0.177,0.101c0.771,0.457,1.588,0.903,2.355,1.318
						c1.081,0.577,2.248,1.149,3.592,1.261c0.016,0.001,0.031,0.002,0.043,0.003h0c0.52,0.036,0.961,0.019,1.349-0.048
						c0.001,0,0.035-0.004,0.036-0.004l0.069-0.015c0.073-0.016,0.145-0.03,0.21-0.048C53.01,6.567,53.381,6.339,53.729,6
						c-0.454,0.039-0.922,0.04-1.355,0.005c-1.632-0.125-3.003-0.792-4.107-1.328C47.668,4.388,47.113,4.082,46.502,3.739
						 M55.925,4.821l0.332-0.269c0.007-0.009,0.015-0.016,0.021-0.021l0.096-0.08c0.078-0.065,0.168-0.139,0.192-0.152
						c0.016-0.009,0.037-0.013,0.055-0.013c0.067,0,0.12,0.044,0.319,0.228l0.063,0.058c0.015,0.014,0.03,0.027,0.059,0.047
						c0.085,0.067,0.627,0.453,1.191,0.681c0.016,0.006,0.032,0.013,0.05,0.017L58.29,5.298c-0.02-0.027-0.477-0.649-0.668-1.634
						c-0.384,0.059-0.766,0.088-1.139,0.088c-0.29,0-0.578-0.017-0.857-0.052c-0.105,0.6-0.29,1.132-0.552,1.587
						C55.362,5.178,55.639,5.026,55.925,4.821 M54.567,0.728l-0.025-0.034c-0.344-0.395-0.711-0.596-1.088-0.596
						c-0.187,0-0.334,0.051-0.419,0.091c-0.015,0.007-0.031,0.016-0.051,0.026c-0.002,0.002-0.005,0.002-0.007,0.004
						c-0.194,0.111-0.311,0.259-0.357,0.454c-0.12,0.498,0.277,1.112,0.283,1.122c0.023,0.039,0.05,0.076,0.082,0.115
						c0.334,0.449,0.991,1.033,2.226,1.286c0.088-0.566,0.037-1.105-0.152-1.603c-0.076-0.179-0.167-0.36-0.29-0.578
						c-0.022-0.03-0.045-0.063-0.064-0.094c-0.022-0.035-0.046-0.07-0.082-0.114C54.607,0.779,54.587,0.753,54.567,0.728
						 M59.468,2.625c0.017-0.013,0.034-0.02,0.037-0.02C59.688,2.478,59.85,2.343,60,2.192c0.004-0.006,0.009-0.013,0.013-0.018
						c0.083-0.089,0.154-0.164,0.209-0.24c0.012-0.02,0.027-0.038,0.056-0.079c0.02-0.03,0.039-0.055,0.06-0.095
						c0.202-0.316,0.414-0.784,0.275-1.218c-0.013-0.043-0.14-0.422-0.663-0.49c-0.064-0.006-0.14-0.006-0.207,0
						c-0.691,0.081-1.234,0.928-1.24,0.937c-0.464,0.73-0.477,1.573-0.444,2.002c0.005,0.037,0.01,0.07,0.013,0.1
						c0.004,0.023,0.008,0.06,0.013,0.098c0.225-0.042,0.744-0.169,1.285-0.504c0.022-0.013,0.042-0.027,0.062-0.039L59.468,2.625z
						 M79.619,3.233c-0.173-0.04-0.359-0.073-0.554-0.097c0.029,0.416,0.305,0.872,0.894,1.041c0.162,0.041,0.334,0.064,0.499,0.064
						c0.298,0,0.56-0.07,0.752-0.198C80.888,3.652,80.379,3.393,79.619,3.233 M70.907,6.834c0.987,0,2.643-0.564,3.934-1.339
						l0.057-0.037c0.053-0.034,0.108-0.069,0.159-0.105c0.018-0.013,0.037-0.023,0.036-0.021l0.151-0.101
						c0.025-0.016,0.051-0.033,0.074-0.051c0.559-0.401,1.466-1.183,1.486-2.042c-0.149,0.016-0.284,0.033-0.406,0.049
						c-0.876,0.139-1.76,0.336-2.55,0.568c-0.373,0.126-3.653,1.266-3.77,2.52c-0.002,0.009-0.001,0.02-0.001,0.034
						c0.005,0.164,0.058,0.257,0.091,0.304C70.29,6.758,70.546,6.834,70.907,6.834 M78.224-0.071c-0.67-0.051-1.177-0.051-1.838,0
						c-1.389,0.108-2.857,0.467-4.488,1.098c-1.229,0.477-2.323,1.066-3.321,1.63c-0.005,0.002-0.011,0.006-0.018,0.008
						c-0.143,0.08-0.286,0.163-0.428,0.245c-0.135,0.079-0.271,0.156-0.408,0.233c-1.523,0.855-3.323,1.803-3.364,1.823
						c-0.512,0.244-0.961,0.429-1.374,0.568c-0.531,0.177-1.605,0.474-2.834,0.474c-0.195,0-0.387-0.008-0.577-0.023
						c0.026,0.023,0.051,0.044,0.072,0.062l0.023,0.02c0.001,0,0.023,0.019,0.023,0.019L59.708,6.1
						c0.009,0.005,0.02,0.012,0.03,0.021c0,0,0.001,0.001,0.001,0.002c0.491,0.343,1.09,0.555,1.78,0.628
						c0.693,0.072,1.398-0.009,2.147-0.244c0.527-0.18,1.34-0.557,2.415-1.114c0.029-0.016,2.843-1.604,3.782-2.091l0.247-0.131
						c0.173-0.091,0.345-0.182,0.523-0.279l0.327-0.155c0.421-0.198,0.855-0.405,1.313-0.595c0.061-0.027,1.502-0.673,2.842-0.673
						c1.065,0,1.759,0.402,2.066,1.196c0.43-0.003,0.895,0.005,1.47,0.028c0.078-0.237,0.285-0.637,0.827-0.796
						c0.329-0.086,0.669-0.058,0.947,0.087c0.462,0.252,0.549,0.72,0.553,0.74c0.009,0.058-0.023,0.113-0.079,0.132
						c-0.055,0.019-0.115-0.005-0.142-0.057l-0.018-0.036c-0.018-0.034-0.035-0.068-0.051-0.095
						c-0.138-0.205-0.384-0.448-0.779-0.448c-0.102,0-0.211,0.016-0.317,0.047c-0.11,0.04-0.218,0.103-0.302,0.175
						c-0.077,0.081-0.136,0.183-0.176,0.296c0.757,0.141,1.294,0.308,1.727,0.534c0.003,0.002,0.005,0.003,0.009,0.004
						c0.018,0.008,0.419,0.188,0.727,0.537c0.46-0.384,0.658-0.841,0.605-1.397c-0.104-1.009-0.938-1.591-1.62-1.902
						C79.897,0.214,79.001-0.011,78.224-0.071 M88.325,6.264c0.108,0,0.199-0.131,0.199-0.288c0-0.146-0.056-0.282-0.162-0.403
						c-0.145,0.14-0.218,0.277-0.218,0.403C88.144,6.137,88.224,6.264,88.325,6.264 M88.049,7.246c0.864,0,1.781-0.491,1.781-1.398
						c0-0.308-0.079-0.569-0.247-0.818c-0.331,0.055-0.691,0.184-0.957,0.345c0.167,0.187,0.252,0.39,0.252,0.602
						c0,0.347-0.253,0.638-0.554,0.638c-0.293,0-0.532-0.285-0.532-0.638c0-0.21,0.101-0.422,0.294-0.616
						c-0.192-0.118-0.431-0.177-0.708-0.177c-0.587,0-0.998,0.38-0.998,0.925C86.381,6.893,87.219,7.246,88.049,7.246 M94.846,7.329
						c-1.121,0-2.026-0.556-2.587-1.024c-0.12-0.102-0.238-0.202-0.357-0.307c-0.58-0.502-1.13-0.977-1.783-1.018
						c0.185,0.305,0.256,0.548,0.256,0.867c0,1.081-1.207,1.751-2.325,1.751c-1.074,0-2.216-0.523-2.216-1.49
						c0-0.789,0.802-1.277,1.546-1.277c0.26,0,0.636,0.052,0.977,0.302c0.267-0.183,0.607-0.327,0.968-0.41
						c-0.432-0.404-1.032-0.626-1.704-0.626c-1.17,0-1.823,0.642-2.456,1.262c-0.122,0.123-0.242,0.243-0.37,0.357
						c-1.052,0.973-2.034,1.406-3.183,1.406c-0.685,0-1.24-0.224-1.798-0.727c-0.03-0.012-0.056-0.024-0.081-0.042
						c-0.027-0.02-0.046-0.052-0.048-0.088c-0.002-0.034,0.012-0.069,0.037-0.093c0.031-0.03,0.061-0.048,0.096-0.068
						c0.009-0.006,0.027-0.013,0.044-0.019c0.086-0.033,0.173-0.041,0.256-0.049c0.051-0.005,0.102-0.01,0.154-0.021
						c0.539-0.127,1.162-0.622,1.228-1.202c0.017-0.162-0.003-0.31-0.055-0.418c-0.001-0.006-0.004-0.013-0.006-0.019
						c-0.003-0.006-0.007-0.014-0.011-0.021c-0.143,0.069-0.427,0.194-0.689,0.237c-0.148,0.02-0.295,0.02-0.431,0.008
						c-0.035-0.002-0.065-0.004-0.115-0.006c-0.002,0-0.039-0.006-0.042-0.007c-0.234-0.036-0.449-0.104-0.64-0.202
						c-0.014-0.005-0.027-0.012-0.038-0.019c-0.223-0.12-0.38-0.261-0.476-0.362c-0.01-0.009-0.021-0.021-0.027-0.034
						c-0.022-0.02-0.039-0.041-0.059-0.063c-0.01-0.011-0.018-0.024-0.023-0.039c-0.005-0.006-0.008-0.011-0.011-0.014
						c-0.038-0.054-0.078-0.112-0.11-0.17c-0.007-0.013-0.149-0.267-0.164-0.592c-0.402-0.027-0.853-0.022-1.246,0
						c-0.005,0.001-0.011,0.002-0.017,0.002L77.248,3.1c0.048,1.42-1.957,2.775-2.035,2.826c-0.016,0.014-0.034,0.026-0.076,0.055
						c-0.085,0.059-0.147,0.1-0.183,0.123c-0.012,0.014-0.028,0.025-0.047,0.031c-0.668,0.428-1.427,0.76-2.257,0.987
						c-0.599,0.163-1.105,0.262-1.753,0.203c-0.462-0.045-0.855-0.255-1.055-0.563c0,0-0.018-0.028-0.041-0.08
						c-0.06-0.112-0.092-0.23-0.098-0.349c-0.046-0.515,0.24-1.313,1.863-2.191c0.326-0.176,0.655-0.322,0.936-0.441
						c0.904-0.387,1.831-0.651,2.917-0.83c0.458-0.077,0.886-0.134,1.306-0.173c-0.229-0.529-0.876-0.719-0.963-0.742
						c-0.003-0.001-0.006-0.001-0.01-0.002c-0.414-0.082-0.948-0.052-1.534,0.082c-0.026,0.006-0.053,0.013-0.08,0.019l-0.053,0.012
						c-0.001,0-0.003,0.001-0.005,0.001c-0.018,0.005-0.039,0.01-0.054,0.014c-0.953,0.256-2.717,1.222-3.431,1.625L70.22,3.918
						c-0.002,0.002-0.006,0.005-0.012,0.006c-0.126,0.072-0.252,0.143-0.379,0.214c-0.206,0.115-0.413,0.23-0.616,0.351
						c-0.607,0.356-1.221,0.674-1.848,0.995c-0.167,0.085-0.339,0.167-0.51,0.249l-0.035,0.017
						c-0.334,0.172-0.673,0.328-1.034,0.477c-1.08,0.492-2.143,0.79-3.155,0.884c-0.24,0.027-0.495,0.041-0.76,0.041h-0.054
						c-0.354-0.002-0.544-0.041-0.541-0.041c-0.038-0.004-0.081-0.011-0.123-0.022c-0.007,0-0.021-0.002-0.034-0.005l-0.001,0.001
						c-0.042-0.007-0.09-0.017-0.152-0.03l-0.105-0.024c-0.033-0.008-0.064-0.016-0.096-0.025L60.71,6.992
						c-0.057-0.016-0.119-0.034-0.175-0.052c-0.023-0.005-0.044-0.012-0.064-0.021l-0.028-0.011
						c-0.651-0.221-1.209-0.562-1.664-1.013c-0.039-0.01-0.112-0.031-0.214-0.063L58.5,5.81c-0.076-0.026-0.152-0.052-0.225-0.08
						c-0.484-0.177-1.149-0.474-1.639-0.919c-0.223,0.202-0.878,0.729-1.948,1.031c-0.286,0.345-0.633,0.634-1.031,0.859
						c-0.204,0.123-0.431,0.226-0.678,0.305c-0.19,0.062-0.307,0.082-0.308,0.082c-0.554,0.127-1.205,0.153-1.893,0.08
						c-0.329-0.028-0.692-0.09-1.077-0.184c-0.006-0.001-0.501-0.12-0.663-0.187v0.002c-0.585-0.177-1.23-0.42-1.97-0.737
						c-0.374-0.15-0.774-0.334-1.219-0.563c-0.001,0-0.027-0.014-0.027-0.015c-0.144-0.072-0.284-0.147-0.424-0.223l-0.69-0.371
						c-0.589-0.32-1.183-0.642-1.788-0.98c-0.14-0.079-0.281-0.159-0.423-0.241c-0.583-0.334-1.185-0.678-1.843-0.956
						c-0.411-0.173-0.825-0.326-1.265-0.465c-0.401-0.127-0.862-0.199-1.262-0.199c-0.306,0-0.566,0.042-0.771,0.123
						c-0.381,0.154-0.63,0.382-0.741,0.678c0.416,0.03,0.834,0.08,1.245,0.148c0.373,0.059,0.748,0.134,1.116,0.223
						c0.654,0.163,1.305,0.38,1.936,0.645c0.529,0.225,1.129,0.481,1.661,0.895c0.249,0.203,0.461,0.412,0.651,0.641
						c0.158,0.193,0.423,0.578,0.423,0.992c0,0.162-0.045,0.321-0.128,0.454c-0.018,0.032-0.039,0.059-0.059,0.083
						c-0.005,0.009-0.013,0.017-0.021,0.025c-0.28,0.343-0.82,0.51-1.544,0.48c-0.608-0.027-1.249-0.173-2.018-0.461
						c-0.632-0.238-1.176-0.568-1.626-0.86c-0.572-0.377-0.999-0.75-1.342-1.173c-0.352-0.43-0.729-0.943-0.787-1.65
						c-0.494-0.03-0.949-0.03-1.363-0.002c-0.021,0.355-0.182,0.641-0.187,0.65c-0.306,0.583-0.95,0.898-1.741,0.853
						c-0.028,0-0.056-0.002-0.083-0.005c-0.017-0.002-0.034-0.004-0.064-0.006c-0.017-0.002-0.038-0.004-0.045-0.005
						c-0.005,0-0.039-0.005-0.044-0.005c-0.006-0.001-0.035-0.009-0.042-0.01c-0.216-0.034-0.409-0.089-0.579-0.163
						c-0.137,0.283-0.01,0.651,0.085,0.818c0.257,0.446,0.75,0.745,1.357,0.82c0.006,0.002,0.014,0.002,0.033,0.002
						c0.034,0,0.104-0.002,0.163,0.016c0.01,0.002,0.02,0.008,0.029,0.015c0.062,0.03,0.102,0.081,0.115,0.149
						c0.007,0.036-0.004,0.073-0.028,0.1c-0.021,0.023-0.047,0.038-0.069,0.048c-0.563,0.505-1.118,0.73-1.798,0.73
						c-1.152,0-2.133-0.435-3.183-1.41c-0.126-0.115-0.249-0.232-0.375-0.355c-0.632-0.621-1.285-1.262-2.454-1.262
						c-0.669,0-1.269,0.22-1.7,0.626c0.362,0.085,0.7,0.23,0.966,0.412c0.336-0.251,0.716-0.305,0.977-0.305
						c0.745,0,1.549,0.488,1.549,1.277c0,0.969-1.142,1.492-2.217,1.492c-1.118,0-2.325-0.67-2.325-1.751
						c0-0.323,0.071-0.566,0.254-0.867c-0.653,0.041-1.203,0.518-1.785,1.02L21.214,6.48c-0.564,0.466-1.473,1.023-2.59,1.023
						c-0.92,0-1.639-0.516-1.639-1.174c0-0.659,0.701-1.174,1.595-1.174c0.918,0,1.534,0.482,1.534,0.932
						c0,0.091-0.022,0.189-0.066,0.301c-0.017,0.041-0.056,0.07-0.101,0.074c-0.029,0.002-0.054,0.002-0.086,0.002
						c-0.078,0-0.342-0.025-0.449-0.334c-0.148-0.405-0.33-0.624-0.871-0.624c-0.58,0-1.206,0.315-1.206,0.823
						c0,0.469,0.554,0.822,1.288,0.822c0.869,0,1.611-0.552,2.222-1.092c0.66-0.585,1.548-1.256,2.571-1.256
						c0.073,0,0.147,0,0.213,0.006c0.535-0.549,1.384-0.89,2.22-0.89c1.652,0,2.799,0.818,3.704,1.62
						c0.113,0.101,0.219,0.207,0.327,0.316c0.573,0.561,1.114,1.091,1.98,1.091c0.461,0,0.858-0.123,1.255-0.398
						c-0.197-0.045-0.399-0.119-0.575-0.212c-0.614-0.32-1.182-0.961-0.939-1.797c0.008-0.028,0.021-0.059,0.035-0.091
						c0.004-0.009,0.008-0.019,0.01-0.027c-0.247-0.177-0.966-0.795-0.757-1.908c0-0.005,0.001-0.033,0.002-0.038
						c0.03-0.223,0.113-0.427,0.191-0.601c0.334-0.7,0.961-1.22,1.978-1.634c0.496-0.198,0.949-0.295,1.61-0.402
						c0.622-0.098,1.305-0.148,2.03-0.148c1.335,0,2.771,0.173,3.939,0.477c1.564,0.408,2.858,1.07,4.024,1.726
						c0.677,0.382,1.308,0.784,1.918,1.171c0.837,0.532,1.629,1.035,2.538,1.502c0.65,0.335,1.171,0.558,1.746,0.747
						c0.002,0.001,0.066,0.025,0.182,0.059l0.097,0.027c0.016,0.005,0.031,0.009,0.037,0.013c0.332,0.094,0.979,0.254,1.594,0.27
						c0.241,0.012,0.485,0.011,0.742-0.009l0.071-0.005c0.138-0.01,0.291-0.021,0.428-0.041c0.018-0.003,0.037-0.005,0.056-0.007
						c0.264-0.326,0.518-0.723,0.734-1.152c0.134-0.282,0.24-0.569,0.316-0.852c-0.398-0.084-0.776-0.202-1.118-0.35
						c-0.01-0.004-0.021-0.009-0.044-0.02c-0.023-0.01-0.047-0.02-0.069-0.03l-0.073-0.034c-0.013-0.008-0.023-0.014-0.042-0.022
						c-0.159-0.079-0.244-0.133-0.244-0.133c-0.004-0.003-0.009-0.006-0.012-0.009c-0.159-0.099-0.293-0.196-0.41-0.296
						c-0.496-0.429-0.777-0.845-0.884-1.313c-0.032-0.137-0.051-0.32-0.046-0.455c0.016-0.373,0.158-0.675,0.437-0.92
						c0.068-0.057,0.473-0.371,1.092-0.294c0.003,0.001,0.057,0.011,0.061,0.013c0.038,0.005,0.08,0.012,0.092,0.019
						c0.01,0,0.022,0.001,0.031,0.004c0.089,0.021,0.184,0.055,0.308,0.11c1.051,0.484,1.611,1.781,1.47,3.387
						c0.692,0.093,1.3,0.089,1.893-0.007c-0.002-0.019-0.004-0.038-0.007-0.057l-0.006-0.033c0-0.002,0-0.029,0-0.031
						c-0.029-0.402-0.002-0.807,0.084-1.221c0.211-1.063,0.772-1.835,1.54-2.123c0.599-0.226,1.212-0.11,1.572,0.288
						c0.243,0.268,0.355,0.639,0.314,1.05c-0.198,1.497-1.876,2.136-2.59,2.341c-0.104,0.029-0.21,0.055-0.317,0.081
						c0.104,0.424,0.239,0.748,0.294,0.87c0.196,0.408,0.428,0.777,0.689,1.102c0.014,0.01,0.028,0.027,0.038,0.043
						c0.003,0.003,0.006,0.006,0.009,0.009l0.105,0.011c0.006,0.001,0.012,0.002,0.017,0.004c0.048,0.008,0.098,0.013,0.163,0.019
						l0.04,0.003c0.012,0,0.019,0.001,0.029,0.005c0.049,0.005,0.094,0.008,0.137,0.011l0.093,0.007
						c0.782,0.059,1.539-0.039,2.409-0.293c1.655-0.491,2.986-1.344,4.272-2.168c0.027-0.018,2.747-1.762,4.461-2.526
						c1.456-0.629,2.961-0.998,4.603-1.132c0.415-0.033,0.835-0.049,1.247-0.049c1.977,0,3.605,0.366,4.584,1.031
						c0.473,0.33,0.814,0.718,1.016,1.156c0.086,0.197,0.152,0.42,0.177,0.598c0.116,0.904-0.284,1.435-0.754,1.863
						c0.186,0.358,0.177,0.759-0.027,1.157c-0.007,0.023-0.017,0.042-0.029,0.057c-0.001,0.002-0.002,0.005-0.002,0.006
						c-0.019,0.038-0.04,0.071-0.061,0.105c-0.004,0.009-0.01,0.02-0.019,0.03c-0.245,0.36-0.673,0.666-1.159,0.823
						c-0.052,0.017-0.105,0.034-0.16,0.049c0.408,0.29,0.812,0.42,1.281,0.42c0.87,0,1.412-0.534,1.984-1.098
						c0.105-0.102,0.214-0.208,0.325-0.313c0.904-0.801,2.05-1.619,3.699-1.619c0.844,0,1.695,0.345,2.217,0.89
						c0.069-0.005,0.147-0.005,0.219-0.005c1.023,0,1.911,0.672,2.569,1.257c0.613,0.54,1.356,1.092,2.222,1.092
						c0.732,0,1.285-0.354,1.285-0.823c0-0.507-0.626-0.821-1.206-0.821c-0.54,0-0.716,0.211-0.867,0.623
						c-0.103,0.308-0.366,0.332-0.445,0.332c-0.035,0-0.065,0-0.091-0.003c-0.041-0.005-0.076-0.031-0.094-0.069
						c-0.032-0.073-0.07-0.184-0.07-0.305c0-0.449,0.617-0.931,1.537-0.931c0.892,0,1.591,0.516,1.591,1.174
						C96.487,6.812,95.766,7.329,94.846,7.329"/>
				</g>
				<g id="g140" transform="translate(174.7439,54.3968)">
					<path id="path142" inkscape:connector-curvature="0" fill="#211D1D" d="M-29.885-2.06c0.496,0.471,0.691,0.848,0.691,1.152
						c0,0.388-0.145,0.463-0.299,0.463c-0.044,0.337,0.227,0.63,0.532,0.63c0.4,0,0.601-0.252,0.601-0.669
						c0-0.514-0.452-1.261-1.333-1.827L-29.885-2.06z"/>
				</g>
				<g id="g144" transform="translate(20.6179,51.5252)">
					<path id="path146" inkscape:connector-curvature="0" fill="#211D1D" d="M36.26-0.828c0.208,0.203,0.471,0.567,0.471,1.146
						c0,0.775-0.523,1.225-1.176,1.214l-0.51-0.009c0-0.282,0-0.669-0.01-1.121C35.023,0.026,35-0.365,35-0.762h0.555
						C35.777-0.762,36.016-0.786,36.26-0.828 M34.99-1.244c-0.014-1.136-0.014-2.276,0.019-3.095h0.672
						c1.05,0,1.469,0.641,1.469,1.27c0,1.184-0.752,1.763-1.718,1.802L34.99-1.244z M33.941-4.131v4.844
						c0,0.831-0.16,0.991-0.275,1.167l0.074,0.18l1.856,0.051c1.385,0.043,2.026-0.757,2.026-1.5c0-0.639-0.41-1.154-1.02-1.511
						c0.788-0.23,1.484-0.755,1.484-1.825c0-1.29-0.98-2.119-2.501-2.119h-1.653C33.95-4.498,33.941-4.131,33.941-4.131"/>
				</g>
				<g id="g148" transform="translate(31.1384,44.4901)">
					<path id="path150" inkscape:connector-curvature="0" fill="#211D1D" d="M31.745,2.191c0.011,0.346,0.02,0.713,0.02,5.58
						c0,0.829-0.156,0.976-0.271,1.154l0.072,0.18c0,0,0.324,0.136,0.724,0.136c0.187,0,0.398-0.031,0.596-0.126
						c-0.053-1.173-0.105-2.713-0.105-4.155c0-0.732,0-1.613,0.031-2.19h1.207c0.616,0,1.04,0.243,1.104,0.555h0.197
						c0.139-0.18,0.097-0.912-0.124-1.134H31.745z"/>
				</g>
				<g id="g152" transform="translate(66.2747,45.3534)">
					<path id="path154" inkscape:connector-curvature="0" fill="#211D1D" d="M16.666,1.821c1.01,0,1.761,1.227,1.761,2.728
						c0,1.73-0.929,3.159-2.01,3.159c-1.02,0-1.784-1.217-1.784-2.708C14.632,3.373,15.524,1.821,16.666,1.821 M16.782,8.356
						c1.52,0,2.79-1.185,2.79-3.452c-0.04-2.086-1.331-3.712-3.407-3.712c-1.313,0-2.665,1.196-2.665,3.472
						C13.5,6.836,14.893,8.356,16.782,8.356"/>
				</g>
				<g id="g156" transform="translate(99.4143,46.1102)">
					<path id="path158" inkscape:connector-curvature="0" fill="#211D1D" d="M2.443,1.496c0,0.115,0.043,0.23,0.116,0.346
						c0.084-0.303,0.906-0.673,1.563-0.673c0.615,0,1.31,0.21,1.31,0.966c0,1.405-2.957,1.699-2.957,3.618
						c0,0.914,0.662,1.878,1.943,1.878c0.86,0,1.364-0.305,1.648-0.473c0.074-0.253,0.087-0.88-0.178-1.145L5.688,6.059
						C5.447,6.801,4.71,7.065,4.301,7.065c-0.472,0-1.017-0.283-1.017-0.891c0-1.376,3.146-1.628,3.146-3.735
						c0-1.091-0.911-2.003-2.267-2.003C3.253,0.437,2.443,0.951,2.443,1.496"/>
				</g>
				<g id="g160" transform="translate(134.2361,44.2372)">
					<path id="path162" inkscape:connector-curvature="0" fill="#211D1D" d="M-12.501,2.3c-1.436,0-2.477,0.48-2.528,2.337
						c-0.02,0.797-0.053,1.689-0.053,3.388c0,0.828-0.159,0.976-0.273,1.153l0.072,0.179c0,0,0.327,0.136,0.723,0.136
						c0.192,0,0.402-0.031,0.601-0.125c-0.052-1.301-0.052-3.031-0.052-4.596c0-1.54,0.984-1.77,1.601-1.77
						c1.041,0,1.794,0.64,1.849,1.405c0,0,0.042,0.337,0.042,3.641c0,0.617-0.096,0.925-0.273,1.13l0.073,0.179
						c0.104,0.073,0.315,0.126,0.523,0.126c0.19,0,0.379-0.041,0.475-0.114C-9.787,7.975-9.823,6.37-9.823,4.721
						C-9.823,3.369-10.792,2.3-12.501,2.3"/>
				</g>
				<g id="g164" transform="translate(48.6331,45.3534)">
					<path id="path166" inkscape:connector-curvature="0" fill="#211D1D" d="M24.237,1.821c1.012,0,1.766,1.227,1.766,2.728
						c0,1.73-0.934,3.159-2.012,3.159c-1.02,0-1.785-1.217-1.785-2.708C22.206,3.373,23.095,1.821,24.237,1.821 M24.354,8.356
						c1.522,0,2.789-1.185,2.789-3.452c-0.04-2.086-1.33-3.712-3.409-3.712c-1.309,0-2.661,1.196-2.661,3.472
						C21.073,6.836,22.469,8.356,24.354,8.356"/>
				</g>
				<g id="g168" transform="translate(84.6091,44.2704)">
					<path id="path170" inkscape:connector-curvature="0" fill="#211D1D" d="M8.797,2.286C8.283,2.38,8.094,2.852,8.031,3.084
						L6.3,7.331C6.225,7.52,6.131,7.899,6.124,7.941c0.008-0.149,0.018-0.516,0.018-0.692C6.124,5.988,6.099,3.976,6.068,2.957
						c0-0.188,0.011-0.419,0.042-0.545H5.346L5.367,2.58c0.126,2.318,0.218,5.297,0.229,6.166c-0.146,0.273-0.25,0.38-0.281,0.4
						l0.071,0.179C5.565,9.387,5.816,9.46,6.11,9.46c0.254,0,0.514-0.051,0.66-0.155C7.043,8.223,8.608,4.437,9.08,3.44
						c1.954,4.994,2.089,5.339,2.15,5.509c0.157,0.397,0.736,0.407,1.407,0.47c-0.035-0.554-0.011-0.65-0.035-1.718
						c-0.029-1.596,0.023-3.442,0.064-4.669c0.012-0.188,0.033-0.452,0.077-0.62h-1.156l0.008,0.631
						c0.034,1.886-0.017,3.294-0.037,4.266c0,0.179-0.026,0.514-0.026,0.632L11.313,7.26L9.521,3.084L9.237,2.193L8.797,2.286z"/>
				</g>
				<g id="g172" transform="translate(118.4714,51.5252)">
					<path id="path174" inkscape:connector-curvature="0" fill="#211D1D" d="M-5.735-0.828c0.208,0.203,0.469,0.567,0.469,1.146
						c0,0.775-0.523,1.225-1.172,1.214l-0.515-0.009c0-0.282,0-0.669-0.009-1.121c-0.013-0.377-0.031-0.768-0.031-1.164h0.555
						C-6.219-0.762-5.977-0.786-5.735-0.828 M-7.006-1.244C-7.014-2.38-7.014-3.521-6.983-4.339h0.672
						c1.045,0,1.469,0.641,1.469,1.27c0,1.184-0.755,1.763-1.723,1.802L-7.006-1.244z M-8.055-4.131v4.844
						c0,0.831-0.156,0.991-0.271,1.167l0.076,0.18l1.854,0.051c1.386,0.043,2.021-0.757,2.021-1.5c0-0.639-0.403-1.154-1.015-1.511
						c0.785-0.23,1.477-0.755,1.477-1.825c0-1.29-0.972-2.119-2.495-2.119h-1.657C-8.043-4.498-8.055-4.131-8.055-4.131"/>
				</g>
				<g id="g176" transform="translate(153.4558,52.535)">
					<path id="path178" inkscape:connector-curvature="0" fill="#211D1D" d="M-20.749-1.261c0,1.356-0.886,1.806-1.541,1.784
						l-0.57-0.02c-0.034-0.378-0.034-1.857-0.034-2.798V-2.61c0.151-0.074,0.324-0.095,0.661-0.095
						C-21.419-2.706-20.749-2.15-20.749-1.261 M-23.94-5.854v0.169c0,0.914,0.027,1.813,0.012,2.622
						c0,1.773,0.094,3.461-0.286,3.933l0.076,0.18c1.933,0.051,1.963,0.051,2.006,0.051c1.048,0,2.318-0.417,2.318-2.129
						c0-0.932-0.59-1.678-1.45-2.003c0.25-0.126,2.118-2.602,2.413-2.823h-1.416c-0.378,0.766-1.394,1.869-2.066,2.625
						c-0.188,0-0.367,0.019-0.56,0.063c0.023-1.062,0.057-2.365,0.099-2.688H-23.94z"/>
				</g>
				<g id="g180" transform="translate(165.6726,44.4901)">
					<path id="path182" inkscape:connector-curvature="0" fill="#211D1D" d="M-25.992,2.191v0.167c0,0.777,0.01,1.365,0.01,1.796
						c0,0.669,0,1.016-0.01,1.194c-0.059,0.064-0.117,0.149-0.218,0.327l-1.011,1.763c-0.595,1.057-0.65,1.332-1.028,1.478
						l0.075,0.18c0.178,0.082,0.46,0.145,0.733,0.145c0.252,0,0.491-0.052,0.618-0.189c0.337-0.828,1.183-2.434,1.523-2.979
						c0,0,0.063,0.189,0.178,0.39l0.866,1.54c0.177,0.305,0.195,0.63,0.014,0.913l0.074,0.18c0.203,0.094,0.419,0.145,0.589,0.145
						c0.167,0,0.366-0.052,0.552-0.145c0-0.255-0.354-1.05-0.604-1.439l-1.293-2.076c0-0.41-0.011-0.997-0.011-1.585
						c0-0.7,0.025-1.395,0.083-1.805H-25.992z"/>
				</g>
				<g id="g184" transform="translate(180.655,46.1102)">
					<path id="path186" inkscape:connector-curvature="0" fill="#211D1D" d="M-32.422,1.496c0,0.115,0.037,0.23,0.118,0.346
						c0.084-0.303,0.897-0.673,1.559-0.673c0.62,0,1.314,0.21,1.314,0.966c0,1.405-2.961,1.699-2.961,3.618
						c0,0.914,0.662,1.878,1.937,1.878c0.865,0,1.367-0.305,1.652-0.473c0.072-0.253,0.085-0.88-0.179-1.145l-0.199,0.045
						c-0.243,0.743-0.978,1.006-1.385,1.006c-0.471,0-1.021-0.283-1.021-0.891c0-1.376,3.148-1.628,3.148-3.735
						c0-1.091-0.909-2.003-2.266-2.003C-31.613,0.437-32.422,0.951-32.422,1.496"/>
				</g>
				<g id="g188" transform="translate(188.239,61.7289)">
					<path id="path190" inkscape:connector-curvature="0" fill="#231F20" d="M-35.676-5.207h1.445v-0.314h-0.538v-1.461h-0.371
						v1.461h-0.536V-5.207z"/>
				</g>
				<g id="g192" transform="translate(191.1238,61.7289)">
					<path id="path194" inkscape:connector-curvature="0" fill="#231F20" d="M-36.914-5.207h0.542l0.321-1.4h0.005l0.316,1.4h0.538
						v-1.775h-0.346v1.486l-0.005-0.002l-0.333-1.484h-0.363L-36.563-5.5h-0.006v-1.482h-0.346V-5.207z"/>
				</g>
			</g>
		</g>
	</g>
</g>
</svg>
