<?xml version="1.0" encoding="utf-8"?>
<!-- Generator: Adobe Illustrator 16.0.0, SVG Export Plug-In . SVG Version: 6.00 Build 0)  -->
<!DOCTYPE svg PUBLIC "-//W3C//DTD SVG 1.1//EN" "http://www.w3.org/Graphics/SVG/1.1/DTD/svg11.dtd">
<svg version="1.1" id="Layer_1" xmlns="http://www.w3.org/2000/svg" xmlns:xlink="http://www.w3.org/1999/xlink" x="0px" y="0px"
	 width="140.953px" height="35.047px" viewBox="0 0 140.953 35.047" enable-background="new 0 0 140.953 35.047"
	 xml:space="preserve">
<g>
	<polygon fill="#FFFFFF" points="80.271,8.313 80.271,8.313 80.27,8.313 	"/>
	<path fill="#0664AC" d="M98.119,3.631C90.324-0.25,82.626-0.662,77.835,0.726c-8.853,2.569-11.598,13.433-3.395,18.756
		c0.496,0.322,0.184,1-0.438,2.084c-0.769,1.346-2.196,3.997-4.713,5.907c-1.518,1.155-2.503,1.631-1.255,3.054
		c0,0,2.774,2.996,4.822,3.87c2.47,1.043,3.089,0.869,4.927-0.794c1.155-1.045,3.447-3.904,6.212-8.452
		c1.433-2.365,3.352-2.41,3.09,1.48c0,0-0.377,3.746-0.48,4.521c-0.31,2.231-0.069,3.007,2,3.026c0,0,4.449-0.24,5.992-0.448
		c2.173-0.285,2.055-0.625,2.623-2.279c3.04-8.83,3.297-23.99,3.297-23.99C100.646,5.432,99.981,4.561,98.119,3.631 M92.428,11.807
		c0,0-2.76,1.828-2.829,1.875c-0.234,0.179-0.556,0.387-0.599,1.233c-0.017,0.352-0.125,2.848-0.131,3.157
		c-0.006,0.345-0.161,1.286-1.286,0.326c0,0-1.88-1.591-2.159-1.829c-0.062-0.051-0.708-0.755-1.713-0.337l-2.945,1.135
		c0,0-1.773,0.698-1.111-0.838c0.64-1.494,1.068-2.739,1.21-3.139c0.146-0.416,0.094-1.004-0.264-1.416
		c-0.165-0.185-1.577-1.988-1.902-2.434c0,0-1.161-1.335,0.775-1.245c0,0,3.305,0.071,3.356,0.077
		c0.056,0.004,0.675,0.045,1.117-0.627c0.545-0.826,2.142-2.762,1.809-2.352c0.279-0.336,0.927-1.183,1.357,0.217
		c0,0,0.607,1.845,0.895,2.618c0.197,0.524,0.322,0.882,1.305,1.185l3.037,1.06C92.35,10.473,93.769,10.896,92.428,11.807"/>
	<path fill="#F08022" d="M34.128,15.386c-1.416-2.268-3.685-3.728-6.388-4.096c-3.452-0.47-6.793,0.895-8.718,3.55
		c-1.413,1.957-1.869,4.309-1.277,6.631c1.422,5.596,7.114,7.156,10.676,6.138c4.021-1.15,6.269-3.423,6.88-6.936
		C35.593,18.977,35.166,17.054,34.128,15.386 M24.338,22.946c-1.125-0.363-1.962-2.095-1.556-3.975
		c0.405-1.883,1.774-3.188,3.046-2.799c1.13,0.35,1.96,2.19,1.568,4.074C26.975,22.25,25.629,23.365,24.338,22.946"/>
	<path fill="#78BD43" d="M106.058,11.104c-0.326,0.483-2.897,4.25-3.219,10.043c-0.14,2.576,1.032,4.846,3.139,6.08
		c2.337,1.369,5.372,1.257,8.116-0.311c5.891-3.368,6.553-11.848,6.387-15.674c-0.036-0.887-0.575-1.417-1.479-1.456
		c-0.345-0.017-1.092,0.009-1.935,0.08c-0.856,0.071-1.369,0.647-1.41,1.584l-0.009,0.249c-0.039,3.554-0.288,6.711-1.889,8.652
		c-1.047,1.281-2.298,1.792-3.122,1.459c-0.737-0.292-1.209-1.245-1.093-2.222c0.281-2.429,1.344-4.339,2.001-5.561l0.281-0.529
		c0.401-0.823,0.199-1.698-0.475-2.035c-0.39-0.198-1.243-0.503-1.996-0.771l-0.908-0.326
		C107.801,10.122,106.849,9.93,106.058,11.104"/>
	<path fill="#E4205E" d="M126.706,8.628c-2.559,1.322-3.873,3.127-4.143,5.681c-0.367,3.445,4.486,5.846,5.641,6.452
		c1.391,0.731,1.442,1.577,1.082,2.08c-0.569,0.785-2.145,0.564-3.306,0.111c-1.274-0.487-1.923-1.077-2.973-2.255
		c-0.616-0.691-2.487,1.287-2.779,2.668c-0.135,0.63,0.12,0.929,0.518,1.493c1.019,1.442,4.298,4.007,9.052,4.353
		c1.311,0.096,4.724,0.171,7.027-1.9c0.931-0.833,1.946-2.219,2.298-3.87c0.241-1.144,0.224-2.638-0.699-4.001
		c-1.294-1.916-3.451-3.185-5.847-4.275c-3.494-1.591-2.82-2.531-2.039-2.964c0.734-0.412,3.22-0.122,5.168,1.666
		c0.988,0.905,3.036-1.906,2.186-2.864C134.78,7.516,129.496,7.188,126.706,8.628"/>
	<path fill="#78BD43" d="M54.878,8.871c-1.947,6.093-10.257,20.025-13.501,21.359c-0.459,0.189-0.551,0.243-1.028,0.178
		c-1.723-0.24-3.871-2.395-4.56-3.191c-0.308-0.352-0.972-1.163-0.438-1.593c2.027-1.616,4.543-4.082,4.663-5.528
		c0.027-0.316-0.072-0.649-0.189-0.805c-0.189-0.252-5.455-7.191-5.985-7.929c-0.896-1.27-0.891-1.567,0.102-2.05
		c0.993-0.487,2.574-1.148,3.681-1.577c1.11-0.423,1.279-0.125,1.592,0.225l4.721,5.936c0.339,0.233,0.648,0.168,0.896-0.124
		c0.603-0.711,3.151-5.312,3.551-6.037c0.471-0.805,1.246-0.584,2.026-0.589c0.829-0.006,2.111,0.005,3.452,0.069
		C55.151,7.283,55.27,7.645,54.878,8.871"/>
	<path fill="#E4205E" d="M57.24,10.319c-2.125,1.322-3.135,2.983-3.184,5.22c-0.068,3.02,4.116,5.02,5.167,5.472
		c1.261,0.543,1.439,1.192,1.213,1.679c-0.329,0.725-1.081,0.858-1.963,0.68c-1.6-0.328-2.848-1.728-4.107-2.432
		c-0.712-0.39-1.763,0.966-1.916,2.188c-0.071,0.553,0.101,0.864,0.56,1.255c1.178,1.023,3.606,3.413,8.424,3.625
		c1.145,0.049,4.121-0.178,5.971-2.131c0.75-0.792,1.536-1.839,1.72-3.299c0.124-1.005-0.107-2.23-0.9-3.427
		c-0.663-1-1.875-2-3.998-2.883c-3.444-1.416-2.356-2.846-1.538-3.114c0.699-0.231,1.925-0.051,3.963,1.174
		c1.105,0.665,2.568-1.946,1.656-2.601C63.737,8.432,59.564,8.877,57.24,10.319"/>
	<path fill="#E4205E" d="M1.666,7.02C9.14,6.962,11.667,6.818,18.41,5.711c1.52-0.251,1.645,0.504,1.893,0.99
		c0.206,0.403,0.602,2.511,0.575,3.052c-0.028,0.536,0.241,1.322-0.67,1.578c-2.839,0.792-3.583,1.038-5.468,1.596
		c-0.871,0.262-0.816,0.627-0.791,1.293c0.134,3.691,1.363,8.571,2.233,11.3c0.367,1.15,0.531,1.97-0.273,2.274
		c-1.117,0.41-4.231,1.256-5.066,1.43c-1.446,0.302-1.655-0.758-1.791-1.301c-1.227-4.91-1.835-9.911-1.954-11.78
		c-0.061-0.954-0.374-1.846-1.27-1.823c-0.922,0.017-1.952,0.131-3.957,0.168c-1.072,0.024-1.64-0.043-1.782-0.96
		c-0.144-0.923-0.105-5.095,0.053-5.743C0.301,7.127,1.061,7.027,1.666,7.02"/>
	<path fill="#0865AC" d="M140.953,10.081c0-0.642-0.541-1.161-1.211-1.161c-0.665,0-1.206,0.519-1.206,1.161
		c0,0.65,0.542,1.166,1.206,1.166C140.412,11.247,140.953,10.73,140.953,10.081"/>
	<path fill="#FFFFFF" d="M140.805,10.081c0,0.566-0.474,1.03-1.062,1.03c-0.584,0-1.059-0.464-1.059-1.03
		c0-0.558,0.475-1.026,1.059-1.026C140.331,9.056,140.805,9.522,140.805,10.081"/>
	<path fill="#0865AC" d="M139.257,10.82V9.248h0.494c0.154,0,0.275,0.035,0.356,0.101c0.086,0.064,0.127,0.159,0.127,0.292
		c0,0.208-0.11,0.357-0.328,0.446l0.54,0.732h-0.283l-0.461-0.663h-0.213v0.663L139.257,10.82 M139.489,9.993h0.073
		c0.292,0,0.433-0.116,0.433-0.334c0-0.162-0.12-0.246-0.36-0.246h-0.146V9.993z"/>
</g>
</svg>
