<?xml version="1.0" encoding="utf-8"?>
<!-- Generator: Adobe Illustrator 16.0.0, SVG Export Plug-In . SVG Version: 6.00 Build 0)  -->
<!DOCTYPE svg PUBLIC "-//W3C//DTD SVG 1.1//EN" "http://www.w3.org/Graphics/SVG/1.1/DTD/svg11.dtd">
<svg version="1.1" id="Layer_1" xmlns="http://www.w3.org/2000/svg" xmlns:xlink="http://www.w3.org/1999/xlink" x="0px" y="0px"
	 width="149.95px" height="36.258px" viewBox="0 0 149.95 36.258" enable-background="new 0 0 149.95 36.258" xml:space="preserve">
<g>
	<g>
		<path fill="#231F20" d="M29.875,31.21c-0.203,0.073-0.604,0.192-1.077,0.192c-0.531,0-0.968-0.135-1.312-0.463
			c-0.302-0.291-0.489-0.76-0.489-1.306c0.005-1.046,0.723-1.811,1.899-1.811c0.406,0,0.723,0.088,0.874,0.161l-0.109,0.369
			c-0.188-0.083-0.422-0.151-0.775-0.151c-0.854,0-1.41,0.531-1.41,1.41c0,0.891,0.536,1.416,1.353,1.416
			c0.296,0,0.5-0.042,0.604-0.094v-1.046H28.72v-0.364h1.155V31.21z"/>
	</g>
	<g>
		<path fill="#231F20" d="M31.644,27.859h0.453v3.127h1.499v0.38h-1.951V27.859z"/>
		<path fill="#231F20" d="M37.49,29.576c0,1.207-0.734,1.848-1.629,1.848c-0.926,0-1.576-0.719-1.576-1.78
			c0-1.113,0.692-1.842,1.628-1.842C36.871,27.802,37.49,28.536,37.49,29.576z M34.769,29.634c0,0.749,0.406,1.42,1.119,1.42
			c0.718,0,1.124-0.66,1.124-1.457c0-0.697-0.364-1.425-1.119-1.425C35.144,28.172,34.769,28.863,34.769,29.634z"/>
	</g>
	<g>
		<path fill="#231F20" d="M39.557,27.906c0.198-0.042,0.51-0.073,0.827-0.073c0.453,0,0.744,0.078,0.963,0.255
			c0.182,0.136,0.291,0.344,0.291,0.619c0,0.339-0.224,0.635-0.593,0.771v0.011c0.333,0.083,0.723,0.358,0.723,0.879
			c0,0.302-0.12,0.53-0.297,0.702c-0.244,0.224-0.64,0.328-1.212,0.328c-0.312,0-0.551-0.021-0.702-0.042V27.906z M40.01,29.342
			h0.411c0.479,0,0.76-0.249,0.76-0.588c0-0.411-0.313-0.572-0.77-0.572c-0.208,0-0.328,0.016-0.401,0.031V29.342z M40.01,31.022
			c0.088,0.016,0.219,0.021,0.38,0.021c0.468,0,0.9-0.172,0.9-0.682c0-0.479-0.411-0.677-0.905-0.677H40.01V31.022z"/>
		<path fill="#231F20" d="M43.333,30.263l-0.364,1.104H42.5l1.192-3.507h0.546l1.197,3.507h-0.484l-0.375-1.104H43.333z
			 M44.483,29.909l-0.343-1.01c-0.078-0.229-0.13-0.437-0.182-0.64h-0.01c-0.052,0.208-0.109,0.422-0.177,0.635l-0.344,1.015H44.483
			z"/>
	</g>
	<g>
		<path fill="#231F20" d="M47.563,27.859h0.453v3.127h1.499v0.38h-1.951V27.859z"/>
		<path fill="#231F20" d="M51.908,27.859h0.453v1.69h0.016c0.094-0.135,0.188-0.26,0.276-0.374l1.072-1.316h0.562l-1.27,1.488
			l1.368,2.019h-0.536l-1.155-1.723l-0.333,0.386v1.337h-0.453V27.859z"/>
		<path fill="#231F20" d="M55.574,27.859v3.507h-0.453v-3.507H55.574z"/>
		<path fill="#231F20" d="M57.423,28.244h-1.067v-0.385h2.597v0.385h-1.072v3.122h-0.458V28.244z"/>
	</g>
	<g>
		<path fill="#231F20" d="M64.6,31.252c-0.167,0.083-0.5,0.166-0.926,0.166c-0.989,0-1.732-0.624-1.732-1.774
			c0-1.098,0.744-1.842,1.832-1.842c0.437,0,0.713,0.094,0.833,0.156l-0.109,0.369c-0.172-0.083-0.417-0.146-0.708-0.146
			c-0.822,0-1.369,0.525-1.369,1.446c0,0.859,0.494,1.41,1.348,1.41c0.276,0,0.557-0.057,0.739-0.146L64.6,31.252z"/>
	</g>
	<g>
		<path fill="#231F20" d="M66.556,27.859v1.467h1.696v-1.467h0.458v3.507h-0.458v-1.645h-1.696v1.645h-0.453v-3.507H66.556z"/>
		<path fill="#231F20" d="M71.706,29.722h-1.363v1.265h1.52v0.38H69.89v-3.507h1.894v0.38h-1.441v1.108h1.363V29.722z"/>
		<path fill="#231F20" d="M72.844,31.366v-3.507h0.494l1.124,1.774c0.26,0.411,0.463,0.78,0.629,1.14l0.011-0.006
			c-0.042-0.468-0.052-0.895-0.052-1.441v-1.467h0.427v3.507h-0.458l-1.113-1.779c-0.245-0.391-0.479-0.791-0.656-1.171
			l-0.016,0.005c0.026,0.442,0.037,0.864,0.037,1.447v1.498H72.844z"/>
		<path fill="#231F20" d="M80.353,31.366c-0.099-0.099-0.192-0.197-0.328-0.344c-0.302,0.281-0.64,0.401-1.025,0.401
			c-0.682,0-1.077-0.458-1.077-0.983c0-0.479,0.286-0.807,0.687-1.025v-0.016c-0.182-0.229-0.292-0.484-0.292-0.733
			c0-0.427,0.307-0.864,0.89-0.864c0.438,0,0.775,0.292,0.775,0.744c0,0.369-0.213,0.661-0.77,0.937v0.016
			c0.296,0.344,0.629,0.729,0.854,0.979c0.161-0.245,0.271-0.583,0.338-1.025h0.417c-0.094,0.552-0.245,0.989-0.505,1.296
			c0.188,0.197,0.37,0.396,0.578,0.619H80.353z M79.801,30.763c-0.208-0.229-0.598-0.655-0.988-1.104
			c-0.188,0.12-0.453,0.344-0.453,0.713c0,0.401,0.297,0.708,0.718,0.708C79.379,31.08,79.634,30.944,79.801,30.763z M78.734,28.624
			c0,0.25,0.114,0.442,0.265,0.63c0.354-0.203,0.583-0.391,0.583-0.688c0-0.213-0.12-0.452-0.406-0.452
			C78.885,28.114,78.734,28.354,78.734,28.624z"/>
	</g>
	<g>
		<path fill="#231F20" d="M86.966,27.906c0.198-0.042,0.51-0.073,0.827-0.073c0.453,0,0.744,0.078,0.963,0.255
			c0.182,0.136,0.291,0.344,0.291,0.619c0,0.339-0.224,0.635-0.593,0.771v0.011c0.333,0.083,0.723,0.358,0.723,0.879
			c0,0.302-0.12,0.53-0.297,0.702c-0.244,0.224-0.64,0.328-1.212,0.328c-0.312,0-0.551-0.021-0.702-0.042V27.906z M87.419,29.342
			h0.411c0.479,0,0.76-0.249,0.76-0.588c0-0.411-0.313-0.572-0.77-0.572c-0.208,0-0.328,0.016-0.401,0.031V29.342z M87.419,31.022
			c0.088,0.016,0.219,0.021,0.38,0.021c0.468,0,0.9-0.172,0.9-0.682c0-0.479-0.411-0.677-0.905-0.677h-0.375V31.022z"/>
		<path fill="#231F20" d="M90.737,30.263l-0.364,1.104h-0.468l1.192-3.507h0.546l1.197,3.507h-0.484l-0.375-1.104H90.737z
			 M91.887,29.909l-0.343-1.01c-0.078-0.229-0.13-0.437-0.182-0.64h-0.01c-0.052,0.208-0.109,0.422-0.177,0.635l-0.344,1.015H91.887
			z"/>
	</g>
	<g>
		<path fill="#231F20" d="M94.973,27.859h0.453v1.69h0.016c0.094-0.135,0.188-0.26,0.276-0.374l1.072-1.316h0.562l-1.27,1.488
			l1.368,2.019h-0.536l-1.155-1.723l-0.333,0.386v1.337h-0.453V27.859z"/>
		<path fill="#231F20" d="M100.002,29.722h-1.363v1.265h1.52v0.38h-1.972v-3.507h1.894v0.38h-1.441v1.108h1.363V29.722z"/>
		<path fill="#231F20" d="M101.593,27.859v1.467h1.696v-1.467h0.458v3.507h-0.458v-1.645h-1.696v1.645h-0.453v-3.507H101.593z"/>
		<path fill="#231F20" d="M107.924,29.576c0,1.207-0.734,1.848-1.629,1.848c-0.926,0-1.576-0.719-1.576-1.78
			c0-1.113,0.692-1.842,1.628-1.842C107.305,27.802,107.924,28.536,107.924,29.576z M105.203,29.634c0,0.749,0.406,1.42,1.119,1.42
			c0.718,0,1.124-0.66,1.124-1.457c0-0.697-0.364-1.425-1.119-1.425C105.578,28.172,105.203,28.863,105.203,29.634z"/>
	</g>
	<g>
		<path fill="#231F20" d="M112.319,27.859v2.076c0,0.785,0.349,1.118,0.817,1.118c0.521,0,0.854-0.343,0.854-1.118v-2.076h0.458
			v2.045c0,1.077-0.567,1.52-1.327,1.52c-0.718,0-1.259-0.411-1.259-1.499v-2.065H112.319z"/>
	</g>
	<g>
		<path fill="#231F20" d="M116.049,30.814c0.203,0.125,0.5,0.229,0.812,0.229c0.463,0,0.734-0.245,0.734-0.599
			c0-0.328-0.188-0.516-0.661-0.697c-0.573-0.203-0.926-0.5-0.926-0.994c0-0.546,0.453-0.952,1.134-0.952
			c0.359,0,0.619,0.083,0.775,0.172l-0.125,0.369c-0.115-0.063-0.349-0.166-0.666-0.166c-0.479,0-0.661,0.286-0.661,0.525
			c0,0.328,0.213,0.489,0.697,0.677c0.593,0.229,0.895,0.515,0.895,1.03c0,0.541-0.4,1.009-1.228,1.009
			c-0.338,0-0.708-0.099-0.895-0.224L116.049,30.814z"/>
	</g>
	<g>
		<path fill="#231F20" d="M121.308,29.722h-1.363v1.265h1.52v0.38h-1.972v-3.507h1.894v0.38h-1.441v1.108h1.363V29.722z"/>
	</g>
	<path fill="#B82B30" d="M17.491,14.843c-0.131-0.06-0.26-0.118-0.396-0.182c0.047-0.063,0.056-0.089,0.076-0.099
		c0.089-0.056,0.177-0.109,0.27-0.165c1.69-0.971,3.265-2.102,4.646-3.492c1.79-1.801,3.124-3.841,3.439-6.436
		c0.136-1.111-0.02-2.147-0.598-3.108c-0.152-0.253-0.331-0.471-0.528-0.657V0.702c-0.002,0-0.002,0-0.004-0.002
		c-0.497-0.468-1.119-0.714-1.763-0.696c-0.867-0.043-1.522,0.3-1.522,0.3v0.007c-1.821,0.702-2.936,2.678-2.936,2.678V2.723
		c0.002-1.217-0.831-2.28-1.985-2.531C15.769,0.1,15.64,0.194,15.595,0.62c-0.011,0.094-0.032,0.187-0.054,0.274
		c-0.277,1.074-0.619,1.796-1.042,2.637c-0.991,1.967-2.058,3.89-3.075,5.84c-0.153,0.295-0.351,0.424-0.672,0.46
		c-1.308,0.143-2.587,0.426-3.815,0.906c-3.77,1.473-5.997,4.238-6.755,8.183c-0.277,1.423-0.227,2.861,0.079,4.293
		c0.417,1.948,1.266,3.665,2.635,5.11c1.796,1.898,4.011,2.951,6.619,3.176c1.921,0.168,3.799-0.07,5.593-0.745
		c2.526-0.949,4.424-2.691,5.819-4.973c1.119-1.832,1.557-3.826,1.02-5.933C21.331,17.434,19.736,15.835,17.491,14.843
		 M15.506,9.412c1.373-1.886,2.869-3.667,4.502-5.328c0.108-0.101,1.445-1.31,2.186-0.942c0.12,0.082,0.428,0.395,0.172,1.359
		c-0.018,0.063-0.034,0.127-0.054,0.188c-0.012,0.034-0.023,0.07-0.037,0.107c-0.369,1.08-1.022,2.009-1.767,2.87
		c-1.626,1.873-3.543,3.363-5.867,4.288c-0.231,0.093-0.473,0.163-0.711,0.244c-0.041-0.048-0.082-0.094-0.122-0.143
		C14.372,11.173,14.89,10.257,15.506,9.412 M18.044,23.584c-0.764,1.998-1.923,3.716-3.754,4.907
		c-1.64,1.069-3.303,1.451-5.344,1.044c-5.081-1.018-6.27-5.676-6.288-8.431V21.09c0-0.285,0.009-0.551,0.029-0.786
		c0.104-0.874,0.408-1.839,0.456-1.991c0.525-1.583,1.601-3.466,3.744-5.232c0.127-0.097,0.245-0.197,0.374-0.29
		c0.681-0.489,1.461-0.788,2.283-0.956c0.168-0.036,0.342-0.029,0.583-0.045c-0.123,0.251-0.213,0.448-0.311,0.641
		c-1.117,2.19-2.233,4.381-3.074,6.691c-0.508,1.396-0.816,2.839-0.818,4.325c-0.005,2.014,1.078,3.334,3.045,3.771
		c0.079,0.015,0.16,0.025,0.244,0.029c0.383,0.032,0.386,0.012,0.34-0.378c-0.167-1.45-0.145-2.902,0.12-4.341
		c0.517-2.811,1.577-5.428,2.936-7.929c0.039-0.07,0.091-0.136,0.179-0.271c0.376,1.006,1.214,1.394,2.023,1.828
		c1.216,0.65,2.277,1.483,2.961,2.716C18.617,20.395,18.655,21.987,18.044,23.584"/>
	<path fill="#B82B30" d="M149.801,18.275c-0.195-0.965-0.563-1.973-0.948-3.04c-0.498-1.373-1.012-2.791-1.277-4.373
		c0.018-0.046,0.038-0.094,0.054-0.14c0.057-0.143,0.105-0.267,0.168-0.387l0.009-0.021c0.269-0.671,0.503-1.248-0.143-1.679
		c-0.552-0.367-1.488-0.12-2.181,0.575c-0.698,0.697-0.909,1.382-0.793,2.599c-0.653,1.59-1.72,3.536-2.587,5.026
		c-0.032-0.086-0.061-0.178-0.097-0.266c-0.141-0.423-0.372-0.563-0.54-0.608c-0.158-0.041-0.408-0.036-0.7,0.229
		c-0.401,0.355-0.63,0.877-0.661,1.508c-0.018,0.307,0.07,0.871,0.142,1.197c-0.496,0.666-1.162,1.304-2.002,1.948
		c-0.05,0.034-0.1,0.072-0.15,0.115c-0.149,0.111-0.305,0.225-0.464,0.335c1.314-3.857,3.099-9.036,3.099-9.036
		c0.61-1.665-0.211-2.834-0.383-3.051c-0.143-0.146-0.288-0.272-0.437-0.367c-0.029-0.021-0.061-0.039-0.091-0.058
		c-0.002-0.003-0.002-0.003-0.004-0.004c-0.009-0.005-0.018-0.009-0.025-0.016c-0.698-0.412-1.301-0.331-1.301-0.331
		c-0.156,0.027-0.23,0.111-0.224,0.256c0.005,0.118-0.009,0.26-0.034,0.419l0.005-0.004c0,0-0.007,0.036-0.02,0.097
		c-0.032,0.175-0.08,0.37-0.145,0.59c-0.286,1.042-1.02,3.305-2.746,6.841c-0.288,0.63-0.568,1.183-0.84,1.672
		c-0.003,0.005-0.005,0.012-0.01,0.018v-0.002c-2.12,3.793-3.683,3.512-3.683,3.512c-0.587,0.004-0.965-0.322-1.137-0.736
		c-0.005-0.009-0.009-0.021-0.012-0.029c-0.009-0.022-0.018-0.041-0.025-0.063c-0.015-0.041-0.025-0.082-0.033-0.129
		c-0.053-0.227-0.05-0.46,0.007-0.685c0.26-2.086,2.212-6.599,2.711-7.956c0.609-1.667-0.211-2.834-0.383-3.054
		c-0.142-0.144-0.287-0.272-0.437-0.366c-0.03-0.021-0.061-0.039-0.091-0.057c-0.002-0.003-0.002-0.003-0.004-0.003
		c-0.009-0.004-0.018-0.01-0.025-0.016c-0.698-0.416-1.3-0.333-1.3-0.333c-0.157,0.027-0.234,0.111-0.227,0.255
		c0.018,0.329-0.086,0.816-0.308,1.462c-0.193,0.558-0.444,1.188-0.752,1.892c0,0-1.522,3.636-1.869,4.882
		c-0.016,0.07-0.034,0.138-0.05,0.206l-0.011,0.041c-0.021,0.091-0.041,0.179-0.062,0.267c-0.004,0.015-0.008,0.028-0.015,0.038
		c0.002,0.003,0.004,0.003,0.007,0.003c-0.039,0.175-0.071,0.338-0.1,0.492c-0.05,0.27-0.098,0.604-0.12,0.979
		c-0.408,0.903-0.902,1.651-1.425,2.193c-0.204,0.189-0.843,0.706-1.268,0.176c-0.012-0.016-0.023-0.031-0.032-0.051
		c-0.011-0.015-0.023-0.03-0.034-0.049c-0.041-0.073-0.078-0.151-0.111-0.23c-0.007-0.016-0.014-0.027-0.018-0.041
		c-0.225-0.558-0.272-1.275-0.13-2.055c0.313-1.617,1.625-4.023,3.344-6.132c0.505-0.626,0.532-1.421,0.075-2.295
		c-0.43-0.827-1.169-1.498-1.464-1.749c-0.478-0.41-1.01-0.376-1.581,0.102c-1.314,0.861-2.553,1.389-3.778,1.608
		c0.398-2.664-0.1-3.7-0.444-4.082c-0.254-0.284-0.592-0.419-0.981-0.396c-1.217,0.084-2.764,2.08-2.952,3.817
		c-0.143,1.297,0.446,2.245,1.663,2.691c-0.447,1.966-1.088,3.812-1.849,5.354c-0.165,0.324-0.614,1.183-1.13,1.938
		c-0.052,0.077-0.107,0.148-0.152,0.211c-0.027,0.045-0.061,0.09-0.097,0.138c-0.007,0.012-0.016,0.022-0.025,0.032
		c-0.041,0.056-0.084,0.108-0.132,0.165v0.002v-0.002c-0.149,0.177-0.305,0.342-0.405,0.444c-0.061,0.057-0.111,0.106-0.152,0.149
		c-0.473,0.439-1.176,0.882-1.506,0.081c-0.005-0.014-0.012-0.03-0.019-0.048c-0.02-0.057-0.038-0.115-0.054-0.181
		c-0.07-0.297-0.079-0.638-0.041-0.994c0.023-0.259,0.073-0.535,0.145-0.825c0.025-0.113,0.055-0.227,0.084-0.337
		c0.236-0.85,0.564-1.725,0.652-1.958l1.863-4.818c0.122-0.437,0.178-0.779,0.156-1.006c-0.063-0.591-0.229-1.074-0.5-1.445
		c-0.098-0.133-0.198-0.254-0.297-0.359c-0.18-0.195-0.365-0.351-0.556-0.467c0.005-0.003,0.007-0.008,0.012-0.013h-0.002
		c-0.003-0.001-0.003-0.001-0.005-0.003c-0.009-0.005-0.018-0.01-0.025-0.014c-0.186-0.105-0.365-0.177-0.525-0.225
		c-0.472-0.154-0.82-0.1-0.82-0.1c-0.15,0.029-0.22,0.111-0.209,0.247c0.023,0.313-0.063,0.779-0.258,1.397
		c-0.021,0.063-0.045,0.132-0.066,0.196c-0.299,0.821-0.804,2.185-1.191,3.143c-0.163,0.365-0.324,0.719-0.46,1.021h-0.002
		c-0.241,0.533-0.415,0.906-0.415,0.906c-0.172,0.367-0.351,0.745-0.546,1.138c-1.767,3.529-3.466,5.432-4.778,5.355
		c-0.222-0.02-0.403-0.123-0.541-0.314c-0.34-0.472-0.38-1.385-0.107-2.445c0.055-0.211,0.202-0.745,0.231-0.836
		c0.209-0.672,0.9-2.355,0.95-2.479c0.081-0.213,0.163-0.426,0.242-0.632c0.353-0.942,0.632-1.765,0.831-2.469
		c0.202-0.702,0.279-1.208,0.234-1.518c-0.091-0.62-0.288-1.118-0.592-1.498c-0.106-0.136-0.214-0.256-0.326-0.364
		c-0.199-0.197-0.403-0.354-0.611-0.469c-0.032-0.019-0.062-0.035-0.093-0.05c-0.002,0-0.005-0.003-0.007-0.003l-0.025-0.011
		c-0.723-0.369-1.318-0.245-1.318-0.245c-0.157,0.039-0.227,0.127-0.209,0.269c0.039,0.33-0.029,0.823-0.208,1.482
		c-0.07,0.259-0.156,0.539-0.249,0.831l0.002-0.002c0,0-0.002,0.012-0.009,0.029c-0.038,0.116-0.075,0.231-0.115,0.356
		c-0.032,0.083-0.372,0.951-0.533,1.352c-0.584,1.596-1.393,3.908-1.683,5.311c-0.052,0.319-0.081,0.627-0.093,0.929
		c-0.684,1.835-2.088,2.832-2.875,2.852c-0.292,0.01-0.532-0.139-0.697-0.394c0.795-0.991,1.406-2.302,1.814-3.911
		c0.716-2.781,0.413-5.422-0.793-6.893c-0.72-0.881-1.728-1.314-2.915-1.253c-0.773,0.041-1.583,0.367-2.349,0.938l2.456-6.355
		c0.122-0.438,0.178-0.779,0.156-1.006C94.62,2.162,94.453,1.68,94.18,1.306c-0.095-0.131-0.195-0.251-0.295-0.358
		c-0.181-0.196-0.369-0.353-0.562-0.471c-0.029-0.018-0.059-0.031-0.088-0.05c0,0-0.002,0-0.004-0.002l-0.025-0.014
		c-0.671-0.377-1.242-0.283-1.242-0.283c-0.149,0.028-0.22,0.11-0.208,0.247c0.023,0.313-0.064,0.779-0.258,1.396
		c-0.114,0.357-0.252,0.752-0.413,1.169c0,0-4.195,11.758-4.827,13.566c-0.143,0.384-0.281,0.731-0.413,1.057
		c-0.004,0.01-0.008,0.022-0.013,0.033c-1.448,3.806-2.408,3.865-2.408,3.865c0.464-0.807,0.444-1.817,0.335-2.763
		c-0.125-1.019-0.426-2.099-0.743-3.24c-0.407-1.467-0.829-2.981-0.981-4.648c0.025-0.053,0.048-0.098,0.071-0.146
		c0.068-0.143,0.126-0.268,0.201-0.39l0.012-0.021c0.335-0.675,0.623-1.259-0.014-1.758c-0.544-0.426-1.541-0.242-2.315,0.426
		c-0.782,0.671-1.056,1.366-1.033,2.642c-0.807,1.604-2.073,3.543-3.095,5.024c-0.004-0.009-0.009-0.022-0.011-0.036
		c-0.002-0.009-0.005-0.016-0.007-0.025v0.003c-0.018-0.075-0.038-0.147-0.061-0.227c-0.113-0.451-0.342-0.616-0.512-0.675
		c-0.163-0.057-0.424-0.07-0.747,0.183c-0.415,0.315-0.678,0.796-0.782,1.386c-0.023,0.153-0.032,0.291-0.036,0.425l-0.003-0.004
		v0.049c0,0.062,0,0.12,0.003,0.175v0.041c0.004,0.102,0.013,0.199,0.025,0.287c0.004,0.034,0.013,0.068,0.018,0.104
		c0.063,0.401,0.167,0.714,0.167,0.714l0.003,0.001c0.022,0.073,0.045,0.15,0.07,0.223c-0.222,0.239-0.433,0.458-0.634,0.65
		c-0.034,0.031-0.066,0.062-0.1,0.095c-0.002,0.003-0.005,0.005-0.005,0.005c-0.342,0.315-0.759,0.666-1.171,0.907
		c-0.077,0.041-0.163,0.082-0.26,0.125c-0.007,0.008-0.016,0.012-0.025,0.019c-0.288,0.12-0.734,0.24-1.045,0.012
		c-0.015-0.014-0.036-0.024-0.05-0.045c-0.058-0.057-0.106-0.127-0.142-0.202c-0.023-0.055-0.109-0.319-0.052-0.711
		c0.004-0.014,0.004-0.029,0.009-0.043c0.093-0.485,0.358-1.332,1.11-2.59l0.002-0.002c0.265-0.484,0.562-0.977,0.865-1.464
		c1.475-2.369,2.221-4.093,2.196-5.354c-0.025-1.225-0.639-2.215-1.718-2.23c-1.187-0.012-3.128,1.289-4.771,2.807
		c-0.029-1.561-0.835-2.881-2.022-2.856c-1.178,0.025-3.201,1.449-4.76,3.024c0.018-0.127,0.025-0.239,0.018-0.328
		c-0.043-0.597-0.196-1.088-0.46-1.473c-0.092-0.139-0.188-0.261-0.285-0.372c-0.177-0.204-0.36-0.366-0.553-0.491
		c-0.027-0.021-0.056-0.037-0.086-0.052c0,0-0.002-0.003-0.004-0.005c-0.009-0.005-0.016-0.009-0.025-0.014
		c-0.664-0.401-1.241-0.326-1.241-0.326c-0.152,0.023-0.225,0.104-0.22,0.245c0.015,0.313-0.086,0.778-0.304,1.397
		c-0.217,0.616-0.51,1.329-0.874,2.133c-0.15,0.332-0.315,0.681-0.485,1.034c-0.573,0.552-1.3,0.942-2.114,1.103
		c-0.183,0.017-0.367,0.025-0.552,0.025c0.33-3.122-0.705-3.392-1.738-4.62c-0.704-0.969-1.375-1.381-2.453-1.386
		c-2.272-0.007-3.767,1.478-5.299,3.038c-0.86,1.114-2.054,2.226-3.212,2.594c0.195-2.752-0.734-3.054-1.771-4.287
		c-0.705-0.971-1.375-1.383-2.454-1.388c-2.458-0.004-4.812,1.848-6.497,4.821c-0.974,1.748-1.576,3.572-1.581,5.208
		c0,0.222,0.013,0.439,0.036,0.651c-0.222,0.528-0.67,1.478-1.234,2.087c-0.104,0.111-0.197,0.195-0.286,0.261
		c-0.059,0.055-0.127,0.098-0.208,0.127c-0.154,0.066-0.279,0.07-0.381,0.043c-0.059-0.021-0.115-0.048-0.163-0.077
		c-0.002-0.002-0.002-0.002-0.004-0.002c-0.256-0.175-0.342-0.494-0.37-0.664l-0.004-0.028c-0.002-0.02-0.007-0.041-0.007-0.056
		c-0.077-0.865,0.401-2.134,0.401-2.134c0.131-0.441,0.31-0.956,0.546-1.555c0.022-0.067,0.045-0.133,0.072-0.198
		c0.037-0.084,0.077-0.178,0.114-0.264c0.011-0.026,0.02-0.052,0.031-0.079c0.08-0.19,0.155-0.355,0.222-0.51
		c0.012-0.026,0.023-0.054,0.037-0.081l0.498-1.204l1.273-2.964l-0.032-0.014l2.562-6.155V5.397
		c0.293-0.702,0.474-1.273,0.587-1.743c0.218-0.939,0.109-1.637-0.142-2.153c-0.098-0.178-0.223-0.352-0.374-0.521
		c-0.021-0.024-0.041-0.043-0.061-0.063c-0.154-0.165-0.333-0.321-0.546-0.471C31.66,0.362,31.54,0.31,31.431,0.26
		c-0.084-0.032-0.161-0.061-0.231-0.077c-0.433-0.107-0.736-0.055-0.736-0.055c-0.161,0.034-0.236,0.122-0.222,0.27
		c0.029,0.338-0.057,0.842-0.258,1.514c-0.204,0.673-0.481,1.449-0.836,2.327c-0.354,0.883-0.759,1.839-1.217,2.874
		c-0.285,0.646-0.577,1.295-0.872,1.95v0.002c0,0-3.505,7.715-3.633,9.823c0,0-0.084,0.548-0.014,1.008c0,0,0.097,2.471,1.697,3.253
		c0.054,0.029,0.113,0.055,0.174,0.079c0.011,0.005,0.022,0.011,0.034,0.015V23.24c0.256,0.099,0.567,0.15,0.936,0.114
		c0.163-0.016,0.353-0.05,0.57-0.122c0.002,0,0.005,0,0.01-0.003H26.83c0.252-0.083,0.533-0.215,0.843-0.416
		c0,0,0.007-0.005,0.009-0.007c0.226-0.152,0.464-0.343,0.716-0.578c0.448-0.395,1.006-0.949,1.386-1.557
		c0.136,0.272,0.288,0.54,0.474,0.789c1.04,1.38,2.415,1.906,3.645,1.912c0.557,0,1.005-0.109,1.341-0.22
		c2.834-0.961,5.228-4.602,6.021-7.691c0.41-0.034,0.895-0.106,1.305-0.219c-0.415,1.116-0.603,1.973-0.607,3.017
		c-0.003,1.188,0.328,2.309,1.033,3.241c1.037,1.383,2.412,1.907,3.642,1.912c0.56,0,1.006-0.108,1.341-0.22
		c2.737-0.926,5.059-4.354,5.929-7.37c0.713-0.063,1.384-0.271,1.982-0.595c-0.014,0.029-0.023,0.048-0.023,0.048
		c-0.854,1.755-1.54,3.335-1.866,4.329c-0.282,0.858-0.381,1.162-0.369,1.681c0.015,0.854,0.4,1.516,0.928,1.95
		c0.643,0.543,1.047,0.313,1.296-0.288c0.809-2.02,1.71-3.701,2.727-5.477V17.47c0.322-0.597,1.099-1.745,1.106-1.756
		c0.312-0.451,0.639-0.877,0.974-1.271c0.029-0.037,0.048-0.059,0.048-0.059l-0.003,0.005c0.068-0.077,0.134-0.156,0.202-0.232
		c2.177-2.493,3.609-3.338,3.905-3.345c0.333-0.007-0.677,1.425-1.646,3.114c-0.97,1.579-1.919,3.079-2.411,4.427
		c-0.353,0.936-0.625,2.127-0.614,2.761c0.021,0.964,0.29,1.478,0.859,2.023c0.605,0.583,1.123,0.46,1.479-0.251
		c1.49-3.481,2.963-6.519,5.801-9.472c2.146-2.231,2.918-2.618,3.215-2.625c0.297-0.008-0.573,1.125-1.364,2.366
		c-0.827,1.355-2.011,3.383-2.58,4.656c-0.39,0.938-0.521,1.755-0.509,2.424c0.022,1.033,0.412,1.881,1.123,2.464
		c0.82,0.717,1.744,0.666,1.744,0.666v-0.003c1.763,0.086,3.482-1.027,4.964-2.5c0.072,0.096,0.145,0.188,0.213,0.268
		c1.064,1.189,2.412,1.935,4.077,2.259c1.384,0.211,2.508,0.154,3.409-0.029c0.007-0.003,0.014-0.005,0.021-0.005
		c0.779-0.163,1.391-0.424,1.855-0.69l0.002-0.012c0.03-0.019,0.061-0.035,0.091-0.05v0.005c0.039-0.023,0.07-0.046,0.107-0.068
		c0.758-0.458,1.003-0.865,1.003-0.865c0.242,0.831,0.702,1.332,1.14,1.691c0.215,0.178,0.391,0.223,0.525,0.214
		c0.05-0.004,0.093-0.01,0.131-0.023c0.123-0.045,0.284-0.163,0.345-0.462c0.081-0.354,0.176-0.736,0.269-1.107
		c0.052-0.208,0.107-0.424,0.159-0.635c1.178,1.296,2.759,1.928,4.605,1.833c0.556-0.03,1.092-0.172,1.599-0.412
		c0.56,0.254,1.247,0.384,2.055,0.362c1.339-0.034,2.778-0.729,3.913-1.735c0.101,0.195,0.217,0.379,0.348,0.546
		c0.635,0.797,1.575,1.237,2.789,1.301c1.842,0.104,3.577-0.902,5.047-2.921c0.152,0.578,0.412,1.09,0.77,1.525
		c2.424,2.53,4.971,0.713,5.482,0.304c2.472-2.064,3.947-5.995,4.805-9.47c0.816-0.028,2.395-0.271,3.824-0.91
		c-0.043,0.054-0.086,0.113-0.129,0.171c-0.7,0.959-3.958,5.709-2.501,9.119c0.02,0.045,0.043,0.09,0.066,0.138
		c0.018,0.035,0.036,0.075,0.056,0.113c0.091,0.174,0.206,0.355,0.345,0.539c2.032,2.434,4.843,0.956,5.058,0.839
		c0.333-0.213,0.646-0.456,0.926-0.729c0.035,0.047,0.069,0.097,0.105,0.143c0.639,0.822,1.592,1.28,2.838,1.363
		c1.274,0.073,2.488-0.383,3.625-1.357c-0.064,0.223-0.123,0.442-0.184,0.66c-0.072,0.262-0.14,0.514-0.21,0.76
		c-0.218,0.105-0.431,0.205-0.63,0.298c-0.614,0.247-1.191,0.505-1.726,0.781h-0.003c-3.065,1.577-4.82,3.584-5.23,5.983
		c-0.39,2.201,0.725,3.529,1.9,4.698c0.764,0.75,1.43,0.97,1.996,0.965c0.317-0.002,0.603-0.072,0.856-0.158
		c2.701-1.095,4.932-8.056,5.698-10.722c0.097-0.352,0.324-1.203,0.414-1.543c0.028-0.01,0.055-0.017,0.082-0.022l0.002-0.017
		c0.161-0.07,0.311-0.139,0.435-0.206l-0.004,0.005c0,0,0.978-0.378,2.299-1.323l0.002-0.002c0.154-0.114,0.315-0.229,0.481-0.358
		c0.081-0.057,0.17-0.115,0.249-0.173v-0.023c0.328-0.269,0.672-0.569,1.019-0.904c0.027,0.031,0.052,0.065,0.082,0.099
		c0.656,0.709,1.411,1.245,2.26,1.614c-0.002,0.002-0.009,0.006-0.009,0.006c0.057,0.023,0.109,0.041,0.163,0.066
		c0.025,0.009,0.048,0.02,0.073,0.029c0.55,0.227,1.044,0.372,1.486,0.458c1.298,0.22,2.306-0.141,2.843-0.41h0.002
		c0.005-0.003,0.007-0.005,0.009-0.007c0.109-0.054,0.197-0.104,0.263-0.146c0.004-0.002,0.009-0.004,0.014-0.009
		c0.047-0.029,0.086-0.057,0.109-0.072c0.015-0.009,0.026-0.022,0.04-0.035c0.261-0.191,0.471-0.418,0.639-0.651
		c0.05-0.068,0.091-0.137,0.134-0.204c0.013-0.024,0.027-0.048,0.041-0.07c0.11-0.188,0.206-0.378,0.271-0.566
		c-0.004,0.005-0.009,0.007-0.014,0.012c0.028-0.072,0.05-0.142,0.071-0.206c0,0,0.002-0.002,0.002-0.005
		c0.009-0.034,0.018-0.065,0.028-0.093c0.013-0.046,0.026-0.089,0.04-0.132c0.007-0.031,0.009-0.061,0.016-0.095
		c0.052-0.224,0.066-0.374,0.066-0.374h-0.002c0.006-0.063,0.015-0.129,0.02-0.183v-0.034c0.005-0.063,0.006-0.12,0.009-0.175
		C149.95,19.18,149.886,18.72,149.801,18.275 M36.863,17.57c-1.387,2.529-2.88,3.901-3.849,3.899
		c-0.56-0.002-0.893-0.451-0.888-1.57c0.004-1.377,0.607-3.459,1.581-5.245c0.636-1.113,1.347-2.042,2.132-2.786
		c0.294,1.306,1.071,2.275,2.26,3.025C37.875,15.675,37.424,16.604,36.863,17.57 M38.703,13.479
		c-0.41-0.484-0.591-1.451-0.589-2.124c0-0.597,0.337-0.893,0.562-0.893c0.26,0.002,0.557,0.227,0.555,0.786
		C39.228,11.731,39.075,12.624,38.703,13.479 M49.599,17.613c-1.386,2.529-2.879,3.899-3.849,3.897
		c-0.557-0.003-0.892-0.451-0.888-1.568c0.005-1.375,0.607-3.459,1.582-5.245c0.623-1.091,1.318-2.002,2.084-2.735
		c0.133,0.549,0.342,1.063,0.638,1.526c0.399,0.662,0.956,1.215,1.611,1.623C50.537,15.856,50.12,16.715,49.599,17.613
		 M51.449,13.488h-0.034c-0.392-0.491-0.569-1.434-0.567-2.09c0.003-0.597,0.338-0.893,0.562-0.893
		c0.261,0.002,0.557,0.227,0.556,0.786C51.966,11.77,51.816,12.644,51.449,13.488 M80.206,21.552
		c-0.091,0.144-0.206,0.231-0.351,0.269c-0.705,0.164-1.566-0.394-2.338-1.455h-0.002c-0.041-0.058-0.084-0.119-0.127-0.183
		c-0.172-0.253-0.46-0.716-0.754-1.329c0.185-0.242,0.362-0.482,0.532-0.721c0.757-1.023,1.364-2.027,1.756-2.724
		c0.072-0.131,0.14-0.262,0.21-0.394c0.184-0.335,0.286-0.537,0.286-0.537c0.025,0.093,0.047,0.19,0.07,0.288
		C80.038,17.041,80.866,20.476,80.206,21.552 M94.676,16.571v0.002c-1.033,3.297-2.352,4.86-3.921,4.649
		c-1.004-0.127-1.695-1.076-2.001-1.88c0.886-3.013,2.037-5.53,3.163-6.909c0.813-0.986,1.499-1.396,2.29-1.373
		c0.181,0.002,0.371,0.134,0.534,0.362C95.268,12.156,95.528,13.896,94.676,16.571 M130.543,31.428
		c-0.988,1.754-1.667,2.279-1.822,2.25l-0.006-0.005c-0.172-0.163-0.338-0.663-0.231-1.543c0.337-2.757,2.435-4.992,4.344-6.233
		C132.227,27.919,131.424,29.862,130.543,31.428 M146.613,21.259c-0.075,0.146-0.179,0.238-0.315,0.283
		c-0.894,0.28-2.356-0.847-3.38-2.566c0.567-0.743,1.11-1.593,1.597-2.56c0.003-0.003,0.003-0.005,0.003-0.005
		c0.142-0.271,0.278-0.558,0.409-0.847c0.012-0.025,0.023-0.05,0.035-0.076c0.133-0.301,0.262-0.606,0.382-0.928
		c0.028,0.088,0.057,0.178,0.089,0.271C146.122,16.964,147.167,20.183,146.613,21.259"/>
	<path fill="#B82B30" d="M136.325,6.22c-0.781-0.319-1.513,0.027-1.683,0.882c-0.186,0.924-0.295,1.862-0.426,2.795
		c-0.009,0.039-0.036,0.182-0.038,0.338h-0.003c0,0-0.025,0.281,0.091,0.496c0.007,0.011,0.011,0.021,0.018,0.031
		c0.02,0.034,0.045,0.066,0.077,0.094c0.014,0.012,0.023,0.021,0.032,0.029l0.002,0.002c0.138,0.12,0.041,0.034,0.007,0.002
		c0.009,0.005,0.02,0.012,0.043,0.02c0.006,0.006,0.013,0.008,0.018,0.011c0.016,0.004,0.032,0.011,0.052,0.016
		c0.014,0.004,0.03,0.009,0.045,0.011c0.023,0.004,0.048,0.007,0.073,0.007c0.002,0,0.005,0.003,0.009,0.003
		c0.004,0,0.007-0.003,0.011-0.003c0.157-0.003,0.367-0.076,0.578-0.373l0.013-0.021c0.021-0.032,0.041-0.062,0.062-0.098
		c0.095-0.147,0.201-0.319,0.303-0.501c0.213-0.38,0.422-0.762,0.61-1.15c0.233-0.489,0.45-0.988,0.623-1.502
		C137.005,6.82,136.781,6.407,136.325,6.22"/>
</g>
</svg>
