<?xml version="1.0" encoding="utf-8"?>
<!-- Generator: Adobe Illustrator 16.0.0, SVG Export Plug-In . SVG Version: 6.00 Build 0)  -->
<!DOCTYPE svg PUBLIC "-//W3C//DTD SVG 1.1//EN" "http://www.w3.org/Graphics/SVG/1.1/DTD/svg11.dtd">
<svg version="1.1" id="Layer_1" xmlns="http://www.w3.org/2000/svg" xmlns:xlink="http://www.w3.org/1999/xlink" x="0px" y="0px"
	 width="115.588px" height="23.57px" viewBox="0 0 115.588 23.57" enable-background="new 0 0 115.588 23.57" xml:space="preserve">
<g>
	<path fill="#231F20" d="M8.534,3.924C7.976,3.162,7.587,2.809,7.065,2.531C6.563,2.25,5.95,2.102,5.337,2.102
		c-1.284,0-2.215,0.633-2.215,1.525c0,0.725,0.429,1.041,1.785,1.357l1.805,0.428c1.301,0.316,2.138,0.67,2.714,1.152
		C10.171,7.197,10.56,8.09,10.56,9.15c0,2.379-2.046,3.979-5.056,3.979c-1.675,0-3.143-0.426-4.184-1.246
		C0.799,11.492,0.558,11.232,0,10.49l1.971-1.396c0.521,0.764,1.023,1.209,1.746,1.523c0.577,0.262,1.338,0.412,2.028,0.412
		c1.413,0,2.323-0.67,2.323-1.693c0-0.838-0.575-1.303-2.063-1.617L4.388,7.365C1.803,6.807,0.687,5.746,0.687,3.832
		C0.687,1.564,2.584,0,5.373,0C6.879,0,8.162,0.428,9.26,1.32c0.409,0.355,0.612,0.559,1.172,1.191L8.534,3.924z"/>
	<path fill="#231F20" d="M15.095,12.756h-2.288V0.373h4.522c2.897,0,4.647,1.543,4.647,4.092c0,1.447-0.652,2.695-1.805,3.459
		c-0.743,0.502-1.487,0.686-2.696,0.686h-2.38V12.756z M16.935,6.621c1.769,0,2.622-0.725,2.622-2.25
		c0-1.375-0.761-2.027-2.435-2.027h-2.027v4.277H16.935z"/>
	<path fill="#231F20" d="M26.267,12.756h-2.286V0.373h4.721c1.823,0,2.939,0.41,3.739,1.395c0.557,0.688,0.891,1.654,0.891,2.566
		c0,1.115-0.445,2.08-1.283,2.75c-0.354,0.281-0.577,0.43-1.191,0.707l2.717,4.965h-2.569l-2.451-4.592h-2.288V12.756z M28.46,6.193
		c1.563,0,2.454-0.725,2.454-1.971c0-1.191-0.874-1.879-2.396-1.879h-2.251v3.85H28.46z"/>
	<rect x="36.354" y="0.373" fill="#231F20" width="2.286" height="12.383"/>
	<polygon fill="#231F20" points="51.595,12.756 49.53,12.756 44.249,4.279 44.249,12.756 42.092,12.756 42.092,0.373 44.269,0.373 
		49.419,8.74 49.419,0.373 51.595,0.373 	"/>
	<path fill="#231F20" d="M65.497,12.756h-1.972v-1.059c-0.518,0.445-0.706,0.594-1.058,0.799c-0.708,0.391-1.6,0.633-2.475,0.633
		c-3.326,0-5.745-2.734-5.745-6.49C54.247,2.752,56.72,0,60.217,0c1.562,0,3.011,0.596,4.016,1.619
		c0.538,0.574,0.78,0.947,1.189,1.953l-2.137,0.893c-0.597-1.637-1.6-2.42-3.124-2.42c-2.084,0-3.441,1.748-3.441,4.443
		c0,2.754,1.377,4.484,3.533,4.484c1.805,0,2.938-1.08,3.125-2.957h-3.087v-2.01h5.206V12.756z"/>
	<polygon fill="#231F20" points="76.945,2.42 70.809,2.42 70.809,5.543 76.09,5.543 76.09,7.514 70.809,7.514 70.809,12.756 
		68.521,12.756 68.521,0.373 76.945,0.373 	"/>
	<rect x="79.08" y="0.373" fill="#231F20" width="2.288" height="12.383"/>
	<polygon fill="#231F20" points="93.354,2.42 86.847,2.42 86.847,5.357 92.835,5.357 92.835,7.326 86.847,7.326 86.847,10.713 
		93.875,10.713 93.875,12.756 84.563,12.756 84.563,0.373 93.354,0.373 	"/>
	<polygon fill="#231F20" points="98.485,10.713 103.599,10.713 103.599,12.756 96.197,12.756 96.197,0.375 98.485,0.375 	"/>
	<path fill="#231F20" d="M105.435,0.375h3.794c1.748,0,2.644,0.166,3.589,0.686c0.521,0.279,0.986,0.67,1.377,1.133
		c0.93,1.098,1.394,2.605,1.394,4.445c0,2.584-1.005,4.574-2.771,5.449c-0.93,0.465-2.064,0.668-3.589,0.668h-3.794V0.375z
		 M109.024,10.713c2.082,0,2.994-0.338,3.515-1.303c0.389-0.707,0.558-1.619,0.558-2.865c0-2.975-1.135-4.125-4.073-4.125h-1.302
		v8.293H109.024z"/>
	<path fill="#231F20" d="M29.682,22.404l-0.516,1.006c-0.114,0.236-0.534,0.07-0.419-0.186l1.922-3.787
		c0.037-0.082,0.127-0.119,0.209-0.119c0.083,0,0.159,0.037,0.204,0.119l1.916,3.77c0.165,0.273-0.307,0.434-0.427,0.184
		l-0.497-0.986H29.682z M30.878,20l-1.006,2.004h2.005L30.878,20z"/>
	<path fill="#231F20" d="M35.692,22.469c0.165,0.529,0.872,0.645,1.382,0.645c0.54,0,1.38-0.166,1.38-0.809
		c0-0.555-0.668-0.6-1.368-0.656c-0.878-0.07-1.82-0.152-1.82-1.102c0-0.84,0.968-1.215,1.744-1.215
		c0.668,0,1.501,0.158,1.769,0.885c0.096,0.254-0.337,0.369-0.434,0.152c-0.19-0.484-0.871-0.566-1.329-0.566
		c-0.427,0-1.254,0.172-1.254,0.752c0,0.553,0.637,0.609,1.375,0.668c0.871,0.074,1.807,0.121,1.807,1.074
		c0,0.975-1.088,1.273-1.87,1.273c-0.651,0-1.643-0.223-1.853-0.986C35.145,22.305,35.643,22.207,35.692,22.469"/>
	<path fill="#231F20" d="M46.421,21.84l-1.61-2.133c-0.192-0.254,0.229-0.49,0.401-0.236l1.438,1.967l1.457-1.973
		c0.16-0.242,0.553-0.037,0.382,0.229l-1.598,2.146v1.424c0,0.16-0.127,0.236-0.236,0.236c-0.127,0-0.234-0.076-0.234-0.236V21.84z"
		/>
	<path fill="#231F20" d="M50.827,21.379c0-0.998,0.675-1.85,1.687-2.01c0.235-0.031,0.451-0.025,0.675,0
		c0.98,0.152,1.737,0.967,1.737,2.01c0,1.326-0.955,2.164-2.037,2.164C51.743,23.543,50.827,22.729,50.827,21.379 M51.304,21.4
		c0,1.043,0.688,1.705,1.585,1.705c0.859,0,1.566-0.637,1.566-1.705c0-0.822-0.541-1.479-1.324-1.605
		c-0.191-0.023-0.376-0.023-0.554,0C51.808,19.918,51.304,20.535,51.304,21.4"/>
	<path fill="#231F20" d="M60.993,19.592c0-0.313,0.479-0.313,0.479-0.006v2.094c0,1.221-0.95,1.84-1.878,1.84
		c-0.93,0-1.878-0.619-1.878-1.84v-2.094c0-0.279,0.477-0.279,0.477,0.006v2.088c0,1.84,2.8,1.84,2.8,0V19.592z"/>
	<path fill="#231F20" d="M68.36,23.475c-0.172,0-0.241-0.082-0.241-0.234v-3.654c0-0.299,0.47-0.299,0.47,0v3.469h2.381
		c0.325,0,0.325,0.42,0,0.42H68.36z"/>
	<path fill="#231F20" d="M73.651,19.51c0-0.318,0.478-0.313,0.478,0v3.807c0,0.291-0.478,0.305-0.478,0V19.51z"/>
	<path fill="#231F20" d="M76.574,19.682c-0.121-0.273,0.318-0.453,0.445-0.178l1.637,3.258l1.596-3.246
		c0.102-0.26,0.536-0.121,0.44,0.166l-1.833,3.709c-0.09,0.166-0.318,0.205-0.427-0.02L76.574,19.682z"/>
	<path fill="#231F20" d="M83.73,23.055h2.514c0.266,0,0.305,0.42,0,0.42h-2.679c-0.179,0-0.293-0.127-0.293-0.281v-3.492
		c0-0.146,0.114-0.273,0.293-0.273h2.685c0.274,0,0.26,0.406-0.006,0.406H83.73v1.432h2.393c0.254,0,0.267,0.408,0,0.408H83.73
		V23.055z"/>
</g>
</svg>
