<?xml version="1.0" encoding="utf-8"?>
<!-- Generator: Adobe Illustrator 16.0.0, SVG Export Plug-In . SVG Version: 6.00 Build 0)  -->
<!DOCTYPE svg PUBLIC "-//W3C//DTD SVG 1.1//EN" "http://www.w3.org/Graphics/SVG/1.1/DTD/svg11.dtd">
<svg version="1.1" id="Layer_1" xmlns="http://www.w3.org/2000/svg" xmlns:xlink="http://www.w3.org/1999/xlink" x="0px" y="0px"
	 width="141.202px" height="28.701px" viewBox="0 0 141.202 28.701" enable-background="new 0 0 141.202 28.701"
	 xml:space="preserve">
<g>
	<path fill-rule="evenodd" clip-rule="evenodd" fill="#C3922C" d="M127.728,0.881c7.422,0,13.474,6.051,13.474,13.472
		c0,7.416-6.052,13.467-13.474,13.467c-7.417,0-13.466-6.051-13.466-13.467C114.262,6.932,120.311,0.881,127.728,0.881"/>
	<path fill-rule="evenodd" clip-rule="evenodd" fill="#B12F25" d="M127.728,1.731c6.956,0,12.624,5.668,12.624,12.625
		c0,6.949-5.668,12.617-12.624,12.617c-6.949,0-12.619-5.668-12.619-12.617C115.109,7.399,120.779,1.731,127.728,1.731"/>
	<path fill-rule="evenodd" clip-rule="evenodd" fill="#C43627" d="M138.752,20.494c-0.259,0.461-0.543,0.902-0.854,1.324
		c-0.097-0.479-0.235-1.057-0.331-1.35c-0.317-0.984-0.58-1.514-0.763-1.738c-0.064-0.078-0.129-0.148-0.188-0.215
		c-0.009,0.008-0.019,0.016-0.028,0.025c-0.241,0.27-0.878,0.15-0.806,0.742c0.022,0.414,0.825,1.695,0.3,2.014
		c-0.265,0.16-0.316,0.443-0.387,0.77c0.015,0.078,0.033,0.154,0.047,0.225c0.034,0.131,0.552,0.148,0.812,0.178
		c0.07,0.021,0.439,0.043,0.79,0.049c-0.2,0.23-0.404,0.459-0.624,0.678c-0.273-0.021-0.508-0.049-0.629-0.035
		c-0.054,0.004-0.077,0.014-0.088,0.066c-0.027,0.125,0.078,0.307,0.099,0.432c0.006,0.039,0.019,0.07,0.027,0.102
		c-0.247,0.227-0.502,0.434-0.764,0.633c0-0.035,0-0.074-0.003-0.119c-0.011-0.332-0.046-0.83-0.231-1.125
		c-0.005-0.008-0.008-0.016-0.018-0.023c-0.114,0.064-0.244,0.098-0.354,0.055c-0.133-0.102-0.254-0.205-0.363-0.313
		c-0.139-0.021-0.28-0.043-0.412-0.063c-0.161-0.039-0.648-0.193-0.699,0.027c-0.112,0.117,0.061,1.166,0.161,1.33
		c0.55,0.189,1.122,0.381,1.651,0.43c-0.293,0.209-0.593,0.408-0.905,0.592c-0.25-0.068-0.485-0.133-0.703-0.16
		c-0.175-0.02-0.143,0.229-0.158,0.395c-0.04,0.451-0.463,0.285-0.51-0.07c-0.022-0.164-0.034-0.473-0.134-0.59
		c-0.109-0.117-1.31-0.537-1.44-0.582c-0.248-0.094-0.517-0.447-0.492-0.646c0.016-0.246,0.724,0.084,0.901,0.145
		c0.299,0.096,0.578,0.246,0.889,0.232c0.048-0.002,0.056-0.08,0.052-0.131c-0.009-0.221-0.15-1.26-0.2-1.283
		c-0.108-0.037-0.185-0.043-0.298-0.082c-0.587-0.189-0.895-0.195-1.466-0.43c-0.257-0.111-0.5-0.307-0.473-0.52
		c0.035-0.232,0.312-0.078,0.652,0.063c0.55,0.217,0.937,0.322,1.507,0.352c0.177,0.01,0.099-0.418,0.124-0.559
		c0.007-0.037,0.065-0.189,0.17-0.203c0.106-0.014,0.258,0.059,0.362,0.275c0.08,0.162,0.073,0.289,0.121,0.512
		c0.084,0.023,0.317,0.066,0.592,0.117c-0.215-0.295-0.411-0.586-0.646-0.852c-0.28-0.246-0.53-0.473-0.892-0.584
		c-0.297-0.088-1.158-0.189-0.68-0.682c0.191-0.193,0.533-0.225,0.621-0.209c0.933,0.139,1.312,0.627,2.181,1.75
		c0.522,0.682,0.637,0.391,0.758-0.25c0.296-1.564-0.271-1.902,0.048-2.814c0.232-0.658-0.581-1.254-0.291-1.725
		c0.432-0.715,1.334-0.412,2.015-0.471c1.376-0.121,2.359-0.613,2.204-2.217c-0.065-0.67-0.652-2.732-1.484-2.686
		c-1.01,0.053-2.732,0.647-3.643-0.089c-0.724-0.586-1.829-1.532-0.888-2.45c0.669-0.657,0.894-0.927,1.91-0.935
		c0.57-0.006,1.393,0.359,1.706,0.927c0.329,0.59-0.319,1.231-1.006,1.245c-0.421,0.007-0.649-0.146-1.044-0.293
		c-0.179-0.066-0.452-0.189-0.615-0.026c-0.176,0.174-0.09,0.651,0.067,0.806c0.161,0.16,0.496,0.104,0.719,0.083
		c0.965-0.083,1.724,0.151,2.616-0.473c0.864-0.608,0.099-2.117-0.319-2.487c-0.977-0.869-1.758-1.449-3.083-1.638
		c-0.651-0.089-1.673-0.063-2.329,0.032c-0.612,0.095-1.441,0.479-1.362,0.624c0.441,0.836,0.554,2.145,0.488,3.059
		c-0.228,2.942-3.037,3.428-5.47,3.604c-0.874,0.061-2.18-0.361-2.783-0.678c-0.738-0.387-1.3-1.078-1.091-1.916
		c0.109-0.441,0.393-0.897,0.613-1.23c0.484-0.719,1.135-1.087,1.95-1.273c1.045-0.25,1.878-0.154,2.44,0.19
		c0.202,0.124,0.658,0.411,0.97,0.771c0.462,0.536,0.636,0.961-0.102,1.508c-0.411,0.306-1.199,0.528-1.646,0.17
		c-0.133-0.105-0.815-0.677-0.509-0.859c0.158-0.097,1.219,0.182,1.164-0.245c-0.06-0.482-0.605-0.708-1.008-0.813
		c-1.162-0.306-2.775,1.138-2.74,2.281c0.051,1.75,2.425,1.277,3.583,1.013c0.607-0.145,1.214-0.307,1.794-0.564
		c0.605-0.272,1.066-0.861,1.325-1.52c0.338-0.858,0.356-2.29-0.045-3.125c-0.158-0.33-0.41-0.739-0.812-1.271
		c-0.277-0.369-0.537-0.725-0.922-0.992c-0.208-0.145-0.552-0.498-0.63-0.351c-0.08,0.15-0.193,0.499-0.22,0.729
		c-0.035,0.312-0.072,0.848-0.457,0.623c-0.197-0.108-0.264-0.264-0.264-0.525c0-0.349,0.107-0.629,0.235-0.956
		c0.041-0.103,0.134-0.231,0.101-0.253c-0.637-0.462-2.196-0.369-2.912-0.231c-2.304,0.448-4.051,1.905-4.883,4.126
		c-0.362,0.966-0.561,2.064-0.442,3.099c0.08,0.7,0.304,1.399,0.65,1.989c0.048,0.078,0.043,0.131,0.13,0.109
		c0.178-0.043,0.579-0.162,1.219-0.156c1.13,0.008,1.271,0.729,0.749,0.678c-0.092,0.01-0.934,0.117-1.272,0.236
		c-0.133,0.049-0.165,0.076-0.089,0.186c0.615,0.926,1.58,1.801,2.517,2.373c0.223,0.139,0.999,0.553,0.93,0.426
		c-0.388-0.717-0.249-1.51,0.417-2.004c0.938-0.701,1.576-1.166,2.808-1.068c0.69,0.059,1.248,0.25,1.78,0.758
		c0.441,0.416,0.669,0.863,0.04,1.355c-0.385,0.303-0.851,0.551-1.212,0.613c-0.427,0.074-0.819,0.615-1.208,0.16
		c-1.311-1.531,2.118-0.471,1.751-1.553c-0.098-0.291-0.322-0.408-0.597-0.494c-0.993-0.316-2.811,0.781-3.026,1.773
		c-0.02,0.094-0.099,0.473,0.339,0.789c0.231,0.166,0.773,0.098,0.509,0.521c-0.224,0.361-0.859,0.107-1.165,0.035
		c-1.511-0.35-2.846-1.604-3.859-2.736c-0.207-0.23-0.593-0.646-0.653-0.727c-0.052-0.066-0.493,0.391-0.664,0.59
		c-0.441,0.51-0.406,1.119,0.139,1.535c0.796,0.607,1.837,0.838,2.278,1.838c0.491,1.133-0.53,2.135-1.119,2.984
		c-0.466,0.676-0.666,1.35-0.617,2.021c-0.421-0.424-0.815-0.883-1.173-1.363c0.145-0.791,0.498-1.551,1.03-2.148
		c0.322-0.486,0.737-1.057,0.655-1.631c-0.045-0.283-0.125-0.387-0.361-0.516c-0.879-0.496-1.812-0.992-1.986-2.098
		c-0.066-0.848,0.411-1.502,1.08-1.971c0.175-0.105,0.166-0.119,0.074-0.287c-0.215-0.49-0.372-0.988-0.537-1.5
		c-0.394-1.869-0.13-3.697,0.819-5.368c0.861-1.451,2.299-2.606,3.919-3.171c1.456-0.509,3.144-0.574,4.545,0.149
		c0.314-0.192,0.619-0.378,0.971-0.501c1.098-0.375,2.272-0.297,2.98,0.543c0.268,0.32,0.561,0.838,0.308,1.259
		c-0.385,0.635-1.253,0.674-1.614,0.006c-0.08-0.143-0.13-0.247-0.068-0.407c0.071-0.196,0.295-0.077,0.451-0.162
		c0.049-0.025,0.024-0.182,0.002-0.222c-0.298-0.526-0.919-0.541-1.458-0.461c-0.393,0.058-1.088,0.36-0.896,0.451
		c0.147,0.071,0.383,0.238,0.529,0.364c0.403,0.35,0.768,0.688,1.085,1.115c0.159,0.211,0.314,0.426,0.513,0.607
		c0.072,0.068,0.168,0,0.249-0.049c1.392-0.838,2.684-0.95,4.393-0.633c1.866,0.347,2.836,1.352,3.843,2.546
		c0.564,0.671,1.034,2.154,0.555,2.883c-0.076,0.203-0.057,0.282,0.071,0.462c1.123,1.189,1.872,3.046,1.466,4.689
		c-0.353,0.768-0.93,1.262-1.812,1.252c-0.195,0.004-0.654,0.168-0.923,0.316c0.198,0.25,0.439,0.74,0.774,1.594
		C138.428,19.492,138.599,19.99,138.752,20.494 M132.571,26.004c-0.367,0.154-0.747,0.293-1.131,0.412
		c-0.71-0.57-1.428-1.123-2.172-1.672c-0.032-0.025-0.144-0.105-0.276-0.201c-0.325,0.297-0.655,0.523-0.788,0.574
		c-1.191,0.482-2.554-0.094-3.282-1.098c-0.263-0.365-0.325-0.873,0.256-0.771c0.266,0.051,0.425,0.123,0.648,0.271
		c0.489,0.326,0.947,0.783,1.535,0.486c0.138-0.07,0.3-0.227,0.459-0.416c-0.241-0.16-0.654-0.484-0.669-0.508
		c-0.138-0.18-0.051-0.363,0.151-0.41c0.308-0.068,0.545-0.074,0.795,0.014c0.077,0.023,0.175,0.063,0.265,0.111
		c0.046-0.086,0.085-0.164,0.104-0.223c0.171-0.488,0.293-1.346-0.169-1.754c-0.692-0.607-1.336-0.787-1.685-1.668
		c-0.397-1.01,0.686-0.379,0.785-0.502c0.634-0.785,0.968-0.527,1.817-0.727c0.483,0.033,0.96,0.232,1.223,0.668
		c0.246,0.402,0.981-0.32,0.897-0.705c-0.134-0.611-0.511-1.082-0.762-1.18c-0.142-0.055-0.259-0.096-0.283-0.035
		c-0.051,0.117-0.038,0.094-0.046,0.133c-0.078,0.363-0.58,0.617-0.831,0.342c-0.049-0.055-0.049-0.102-0.017-0.24
		c0.017-0.045,0.106-0.152,0.054-0.182c-0.054-0.027-0.255,0.023-0.341,0.064c-0.199,0.094-0.451,0.059-0.596-0.201
		c-0.121-0.217,0.191-0.486,0.458-0.588c0.165-0.059,0.319-0.111,0.432-0.154c0.208-0.07,0.349-0.338,0.462-0.523
		c0.467-0.777,1.294-1.611,2.1-2.012c1.005-0.506,2.667-1.002,3.555-0.016c0.189,0.213,0.421,0.795,0.411,1.35
		c-0.016,0.84-0.89,1.195-1.263,1.303c-0.742,0.219-1.554,0.012-1.705-0.883c-0.061-0.355,1.23-0.418,1.393-0.283
		c0.043,0.039,0.038,0.125,0.091,0.154c0.595,0.336,0.641-1.48-0.035-1.559c-0.946-0.113-1.775,0.373-2.536,0.91
		c-0.237,0.168-1.062,0.85-1.183,1.334c-0.093,0.387,0.02,0.342,0.248,0.434c0.987,0.389,1.317,1.145,1.349,2.082
		c0.03,0.873-0.476,1.279-1.091,1.445c-0.324,0.5-0.927,0.674-1.162,0.697c-0.271,0.068-0.535,0.076-0.839-0.006
		c-0.05-0.012-0.096-0.031-0.139-0.059c-0.079-0.027-0.149-0.063-0.218-0.104c-0.029-0.008-0.056-0.014-0.088-0.02
		c-0.095-0.01-0.087,0.084-0.041,0.133c0.215,0.221,0.518,0.52,0.675,0.783c0.568,0.934,0.497,1.955,0.368,2.533
		c-0.021,0.064-0.047,0.123-0.079,0.188C130.496,24.338,131.569,25.168,132.571,26.004 M122.245,25.715
		c-0.422-0.205-0.829-0.432-1.22-0.678c0.405-0.152,0.781-0.373,1.03-0.557c1.093-0.803,2.691-3.053,0.98-4.115
		c-0.369-0.23-1.24-0.217-1.482,0.197c-0.07,0.121-0.346,0.891-0.167,1.008c0.376,0.252,1.117-0.072,1.464-0.146
		c0.375-0.08-0.008,0.59,0.006,0.773c0.007,0.119,0.053,0.242-0.01,0.344c-0.298,0.479-1.195,0.607-1.631,0.248
		c-0.831-0.682-1.245-1.889-0.678-2.885c0.218-0.383,0.551-0.34,0.954-0.352c1.154-0.025,2.804,0.266,3.294,1.48
		c0.071,0.18,0.116,0.424,0.131,0.676c0.051,0.832-0.489,1.816-0.905,2.516C123.545,24.836,122.925,25.373,122.245,25.715
		 M115.327,12.016c0.175-0.921,0.448-1.811,0.812-2.654c0.262,0.128,0.494,0.314,0.648,0.546c0.276,0.413,0.354,0.936,0.087,1.381
		c-0.075,0.126-0.216,0.167-0.352,0.192c-0.123,0.021-0.446-0.103-0.53-0.006c-0.029,0.031,0.023,0.086,0.061,0.119
		c0.083,0.078,0.197,0.133,0.295,0.201c0.159,0.105,0.278,0.191,0.345,0.365c0.048,0.121-0.017,0.227-0.114,0.289
		c-0.228,0.152-0.698-0.057-0.896-0.184C115.569,12.195,115.447,12.111,115.327,12.016 M117.794,19.082
		c-0.492,0.209-1.136,0.389-1.561-0.033c-0.18-0.182-0.268-0.496-0.295-0.738c-0.055-0.396,0.092-0.84,0.386-1.109
		c0.087-0.078,0.198-0.145,0.317-0.191c0.253-0.102,0.572-0.092,0.807,0.039c0.46,0.244,0.706,0.533,1.01,0.957
		c0.07,0.096,0.218,0.154,0.24,0.279c0.032,0.174-0.072,0.275-0.215,0.371C118.255,18.803,118.037,18.977,117.794,19.082
		 M117.376,18.467c-0.372,0.186-0.697,0.318-0.876-0.127c-0.058-0.143-0.055-0.377,0.021-0.514c0.02-0.035,0.071-0.076,0.12-0.078
		c0.296-0.027,0.701,0.32,0.775,0.592C117.429,18.383,117.416,18.447,117.376,18.467 M124.548,20.133
		c-0.069-0.408-0.178-0.949,0.136-1.258c0.198-0.191,0.488-0.135,0.681,0.066c0.366,0.4,0.314,1.115-0.022,1.516
		C125.08,20.764,124.603,20.461,124.548,20.133 M137.53,14.299c-0.269-0.031-0.55-0.219-0.543-0.51
		c0.002-0.102,0.022-0.199,0.06-0.287c0.062-0.152,0.185-0.283,0.332-0.354c0.141-0.072,0.288-0.072,0.438-0.01
		c0.133,0.061,0.312,0.186,0.25,0.355c-0.048,0.117-0.156,0.246-0.179,0.35c-0.025,0.121,0.032,0.246-0.049,0.348
		C137.757,14.297,137.653,14.311,137.53,14.299 M122.663,8.105c0.337-0.434,0.811-0.697,0.582-1.291
		c-0.22-0.583-0.955-0.744-1.497-0.75c-0.77-0.01-1.409,0.958-1.062,1.655c0.19,0.375,0.546,0.752,0.993,0.766
		C122.204,8.502,122.372,8.48,122.663,8.105 M130.606,13.643c0.017-0.146-0.117-0.221-0.075-0.303
		c0.059-0.113,0.252-0.127,0.406-0.248c0.24-0.189,0.222-0.525-0.341-0.734c-0.53-0.199-0.915,0.127-1.043,0.564
		c-0.168,0.588,0.285,0.926,0.478,0.953C130.204,13.896,130.562,13.947,130.606,13.643 M135.247,9.225
		c-0.183-0.039-0.378-0.18-0.538-0.248c-0.173-0.069,0.063-0.234,0.127-0.27c0.145-0.091,0.339-0.15,0.49-0.145
		c0.129,0.001,0.537,0.26,0.45,0.468C135.678,9.272,135.468,9.275,135.247,9.225 M135.526,17.826
		c0.115-0.463-0.259-0.906-0.017-1.008c0.349-0.148,0.593,0.105,0.714,0.379c0.071,0.156,0.006,0.551-0.094,0.668
		C135.945,18.078,135.484,17.986,135.526,17.826 M129.687,19.137c-0.155,0.107-0.946,0.213-1.09,0.076
		c-0.296-0.271,0.155-0.553,0.426-0.648C129.206,18.498,130.012,18.902,129.687,19.137"/>
	<path fill-rule="evenodd" clip-rule="evenodd" fill="#FFFFFF" d="M131.291,20.961c0.14,0.203,0.124,0.316,0.025,0.531
		c-0.157,0.186-0.344,0.311-0.603,0.275c-0.175-0.027-0.351-0.092-0.512-0.162c-0.049,0.102-0.099,0.201-0.15,0.303
		c0.134,0.123,0.153,0.283,0.097,0.451c-0.097,0.227-0.291,0.334-0.537,0.293c-0.246,0.414-0.51,0.818-0.778,1.221
		c-0.24,0.363-0.483,0.727-0.743,1.07c-0.142,0.186-0.273,0.371-0.418,0.553c-0.26,0.32-0.562,0.652-0.973,0.766
		c-0.21,0.01-0.296-0.008-0.475-0.111c-0.208-0.207-0.3-0.41-0.2-0.715c0.119-0.307,0.318-0.58,0.499-0.857
		c0.065-0.098,0.141-0.207,0.191-0.314c-0.069-0.354,0.014-0.723-0.053-1.074c-0.229-1.195-0.578-2.201-0.981-3.344
		c-0.231-0.67-0.484-1.338-0.756-1.992c-0.562,0.07-1.036-0.137-1.422-0.543c-0.318-0.354-0.479-0.732-0.552-1.188
		c-0.363,0.191-0.883,0.262-1.287,0.271c-0.48-0.008-0.891-0.094-1.31-0.336c-0.425-0.309-0.776-0.719-0.843-1.264
		c-0.044-0.348-0.057-0.688-0.018-1.033c0.05-0.389,0.143-0.68,0.367-0.998c0.323-0.436,0.742-0.791,1.242-0.994
		c-0.259-0.125-0.565-0.178-0.781-0.37c-0.133-0.121-0.223-0.322-0.204-0.504c0.03-0.305,0.127-0.634,0.342-0.851
		c0.288-0.283,0.573-0.39,0.993-0.258c0.01-0.392,0.173-0.725,0.462-0.984c0.261-0.218,0.565-0.332,0.894-0.378
		c0.018-0.123,0.044-0.25,0.07-0.371c-0.073,0.06-0.184,0.076-0.273,0.087c-0.331-0.018-0.547-0.26-0.697-0.543
		c-0.194-0.404-0.346-0.867-0.236-1.319c0.078-0.264,0.257-0.49,0.475-0.66c0.206-0.144,0.42-0.207,0.67-0.179
		c0.417,0.076,0.754,0.409,0.897,0.804c0.422-0.552,0.981-1.012,1.606-1.317c0.393-0.182,0.807-0.318,1.24-0.384
		c-0.149-0.281-0.296-0.572-0.329-0.895c-0.049-0.546,0.442-0.984,0.917-1.161c0.514-0.174,0.983,0.077,1.26,0.496
		c0.153,0.233,0.245,0.474,0.211,0.76c-0.042,0.296-0.206,0.608-0.404,0.834c0.589,0.113,1.137,0.35,1.623,0.697
		c0.273,0.203,0.533,0.443,0.721,0.729c0.6,0.006,1.186,0.188,1.632,0.607c0.424,0.425,0.73,1.316,0.24,1.801
		c0.658,0.26,1.326,0.788,1.764,1.352c0.004-0.203,0.065-0.375,0.229-0.508c0.592-0.404,1.292,0.133,1.498,0.686
		c0.239,0.624-0.11,1.285-0.838,1.111c-0.122-0.03-0.224-0.085-0.323-0.161c0.095,0.317,0.152,0.639,0.206,0.967
		c0.069,0.5-0.048,1.057-0.308,1.492c-0.1,0.158-0.211,0.289-0.369,0.391c0.066,0.322,0.083,0.65,0.062,0.977
		c-0.072,1.029-0.595,2.375-1.826,2.359c-0.303-0.02-0.474-0.152-0.738-0.23c-0.036,0.441-0.13,0.873-0.226,1.301
		c-0.087,0.383-0.189,0.762-0.314,1.127c0.246,0.088,0.531,0.131,0.704,0.34c0.105,0.188,0.1,0.307-0.001,0.496
		c-0.113,0.16-0.243,0.238-0.438,0.264c-0.215,0.01-0.451-0.059-0.649-0.127c-0.06,0.127-0.117,0.252-0.172,0.379
		C130.9,20.727,131.118,20.801,131.291,20.961"/>
	<path fill-rule="evenodd" clip-rule="evenodd" fill="#FED307" d="M130.3,16.584c0,1.875-0.904,3.629-1.834,5.166
		c-0.231,0.381-0.864,1.311-1.172,1.6c-0.129,0.125-0.286-1.303-0.308-1.555c-0.104-1.18-0.657-2.693-1.123-3.746
		c-0.212-0.486-0.472-0.705-0.386-1.104c0.035-0.156,0.244-0.42,0.354-0.615c0.175-0.318,0.316-0.762,0.279-1.229
		c-0.023-0.338,0.88,0.217,0.962,0.303c0.279,0.273,0.479,0.475,0.961,0.678C128.603,18.385,128.499,18.918,130.3,16.584"/>
	<path fill-rule="evenodd" clip-rule="evenodd" fill="#D3A12A" d="M125.244,16.305c0.078,0.086,0.187,0.268,0.178,0.33
		c-0.015,0.186-0.404,0.158-0.524,0.127c-0.047-0.012-0.239-0.518-0.242-0.541c-0.012-0.131,0.086-0.195,0.195-0.158
		C125.027,16.119,125.146,16.188,125.244,16.305 M128.813,21.445c-0.105-0.098-0.612-0.451-0.682-0.568
		c-0.025-0.039,0.141-0.313,0.171-0.365c0.052-0.074,0.109-0.201,0.157-0.287c0.022-0.045,0.053,0.021,0.113,0.061
		c0.188,0.129,0.473,0.348,0.717,0.5c0.026,0.018,0.103,0.057,0.047,0.145c-0.067,0.119-0.239,0.396-0.323,0.555
		C128.966,21.57,128.879,21.482,128.813,21.445 M128.211,19.369c-0.275-0.182-0.521-0.469-0.757-0.748
		c0-0.113,0.225-0.68,0.316-0.707c0.091-0.094,0.283,0.127,0.352,0.195c0.135,0.111,0.289,0.23,0.408,0.363
		c0.019,0.018,0.057,0.105,0.057,0.146c0.006,0.199-0.126,0.453-0.218,0.625C128.291,19.391,128.26,19.381,128.211,19.369
		 M128.733,19.797c-0.022-0.033-0.037-0.072-0.016-0.113c0.111-0.254,0.126-0.266,0.199-0.523c0.026-0.072,0.027-0.191,0.083-0.246
		c0.019-0.023,0.034-0.018,0.062-0.008c0.084,0.041,0.243,0.172,0.427,0.297c0.145,0.098,0.312,0.191,0.47,0.275
		c0.04,0.021,0.1,0.039,0.046,0.154c-0.099,0.209-0.201,0.424-0.35,0.715c-0.04,0.055-0.067,0.102-0.161,0.045
		C129.268,20.262,128.859,19.988,128.733,19.797 M125.582,16.975c0.366,0.854,0.995,2.465,1.293,3.58
		c0.252,0.777,0.635,2.313,0.497,3.059c-0.003,0.025-0.048,0.201,0.004,0.189c0.093-0.016,0.188-0.146,0.243-0.213
		c0.385-0.527,0.731-1.068,1.089-1.605c0.082-0.125,0.025-0.15-0.096-0.229c-0.156-0.107-0.384-0.303-0.516-0.402
		c-0.096-0.074-0.207-0.225-0.242-0.193c-0.213,0.238-0.286,0.285-0.417,0.275c-0.135-0.006-0.054-0.164-0.001-0.23
		c0.064-0.082,0.094-0.152,0.146-0.234c0.02-0.031-0.01-0.094-0.06-0.139c-0.075-0.102-0.139-0.17-0.299-0.346
		c-0.127-0.141-0.245-0.436,0.006-0.344c0.037,0.023,0.122,0.1,0.172,0.139c0.163,0.137,0.152,0.184,0.324,0.314
		c0.05,0.041,0.179-0.158,0.236-0.316c0.032-0.086,0.129-0.262,0.134-0.326c0-0.039-0.064-0.105-0.088-0.127
		c-0.324-0.254-0.544-0.576-0.789-0.766c-0.079-0.063-0.136,0.066-0.195,0.148c-0.151,0.209-0.315,0.002-0.231-0.186
		c0.04-0.09,0.122-0.244,0.107-0.334c-0.017-0.092-0.488-0.65-0.533-0.717c-0.104-0.119-0.126-0.371-0.055-0.461
		c0.08-0.115,0.333,0.252,0.402,0.338c0.119,0.135,0.212,0.293,0.369,0.377c0.025,0.012,0.049-0.023,0.067-0.049
		c0.061-0.113,0.298-0.67,0.28-0.693c-0.045-0.053-0.078-0.078-0.127-0.129c-0.233-0.268-0.382-0.361-0.594-0.648
		c-0.094-0.131-0.159-0.299-0.08-0.396c0.085-0.104,0.177,0.055,0.306,0.223c0.205,0.271,0.368,0.439,0.636,0.621
		c0.088,0.059,0.176-0.18,0.228-0.24c0.018-0.016,0.091-0.074,0.148-0.047c0.054,0.021,0.107,0.102,0.096,0.246
		c-0.01,0.1-0.049,0.162-0.091,0.283c0.084,0.09,0.57,0.5,0.757,0.691c0.06,0.055,0.103-0.045,0.122-0.105
		c0.081-0.252,0.448-0.205,0.423,0.008c-0.017,0.135-0.069,0.273-0.108,0.383c-0.021,0.078,0.228,0.238,0.345,0.332
		c0.063,0.061,0.698,0.473,0.722,0.42c0.1-0.199,0.315-0.844,0.378-1.109c0.13-0.584,0.162-0.924,0.138-1.088
		c-0.03-0.176-0.07-0.326-0.042-0.426c0.085-0.268,0.391-0.264,0.54-0.289c0.22-0.037,0.335,0.115,0.141,1.25
		c-0.136,0.662-0.257,1.225-0.483,1.861c-0.013,0.029-0.022,0.061-0.031,0.088c-0.012,0.047,0.17,0.115,0.234,0.141
		c0.107,0.041,0.231,0.068,0.351,0.117c0.085,0.023,0.296,0.064,0.261,0.201c-0.053,0.123-0.152,0.162-0.267,0.15
		c-0.206-0.018-0.481-0.107-0.634-0.18c-0.068-0.029-0.081-0.074-0.153,0.08c-0.098,0.211-0.242,0.551-0.315,0.699
		c-0.035,0.066-0.042,0.109-0.018,0.135c0.151,0.148,0.612,0.281,0.739,0.408c0.095,0.104-0.106,0.264-0.243,0.264
		c-0.095,0-0.436-0.109-0.685-0.252c-0.048-0.029-0.053-0.018-0.1,0.066c-0.094,0.168-0.245,0.5-0.306,0.588
		c-0.088,0.123-0.098,0.158-0.027,0.193c0.048,0.025,0.089,0.061,0.157,0.123c0.039,0.035-0.005,0.168-0.101,0.17
		c-0.064,0.004-0.166-0.027-0.224-0.053c-0.042-0.02-0.063,0.014-0.095,0.064c-0.293,0.508-0.614,0.996-0.939,1.492
		c-0.207,0.305-0.418,0.621-0.639,0.916c-0.285,0.371-0.71,1.025-1.146,1.18c-0.213,0.076-0.414-0.127-0.354-0.342
		c0.114-0.375,0.671-1.018,0.731-1.301c-0.044-0.168-0.044-0.289-0.043-0.459c0.038-1.424-0.605-2.859-1.009-4.014
		c-0.251-0.721-0.518-1.422-0.813-2.131c-0.027-0.057-0.197-0.453-0.223-0.51L125.582,16.975z"/>
	<path fill-rule="evenodd" clip-rule="evenodd" fill="#D3A12A" d="M126.874,7.475c0.296-0.113,0.609-0.104,0.673-0.467
		c0.064-0.355-0.258-0.652-0.519-0.816c-0.382-0.229-0.983,0.061-1.016,0.508c-0.018,0.242,0.047,0.533,0.265,0.672
		C126.528,7.536,126.618,7.576,126.874,7.475 M122.577,7.823c-0.157,0.01-0.333-0.234-0.393-0.357
		c-0.162-0.33-0.355-0.871-0.16-1.216c0.201-0.361,0.574-0.631,0.975-0.361c0.247,0.163,0.417,0.453,0.433,0.74
		c0.015,0.288-0.104,0.564-0.368,0.708c-0.072,0.039-0.153,0.021-0.23-0.011c-0.069-0.023-0.189-0.183-0.264-0.158
		c-0.018,0.008-0.009,0.047-0.001,0.078c0.018,0.062,0.056,0.122,0.087,0.187c0.046,0.097,0.08,0.176,0.063,0.284
		C122.708,7.787,122.639,7.82,122.577,7.823 M124.241,13.984c0.088-0.217,0.195-0.516,0.444-0.578
		c0.153-0.035,0.278,0.078,0.313,0.234c0.065,0.307-0.176,0.648-0.457,0.746C124.317,14.459,124.172,14.166,124.241,13.984
		 M129.167,12.568c0.05-0.061,0.006-0.141,0.05-0.17c0.064-0.037,0.166,0.014,0.273-0.002c0.178-0.021,0.269-0.195,0.054-0.463
		c-0.208-0.258-0.493-0.207-0.685-0.031c-0.258,0.24-0.135,0.545-0.049,0.615C128.89,12.578,129.052,12.711,129.167,12.568
		 M121.211,11.465c-0.308-0.04-0.678-0.139-0.763-0.479c-0.037-0.141,0.015-0.322,0.07-0.45c0.095-0.213,0.297-0.391,0.521-0.434
		c0.065-0.016,0.143-0.016,0.214-0.002c0.155,0.024,0.312,0.124,0.39,0.259c0.152,0.254,0.192,0.474,0.215,0.771
		c0.007,0.069,0.058,0.143,0.032,0.211c-0.032,0.096-0.115,0.114-0.212,0.12C121.521,11.465,121.364,11.484,121.211,11.465
		 M121.188,11.038c-0.242-0.017-0.441-0.049-0.395-0.324c0.014-0.084,0.085-0.201,0.161-0.243c0.02-0.013,0.057-0.019,0.082-0.008
		c0.156,0.08,0.254,0.37,0.206,0.526C121.236,11.011,121.211,11.041,121.188,11.038 M127.033,4.608
		c-0.079-0.021-0.141-0.068-0.178-0.141c-0.138-0.265-0.289-0.523-0.327-0.821c-0.009-0.058-0.009-0.116,0.002-0.176
		c0.046-0.234,0.197-0.338,0.368-0.487c0.076-0.067,0.172-0.108,0.261-0.153c0.107-0.053,0.218-0.067,0.335-0.057
		c0.202,0.017,0.383,0.113,0.51,0.271c0.109,0.138,0.214,0.308,0.249,0.485c0.05,0.255-0.118,0.552-0.257,0.752
		c-0.084,0.12-0.221,0.25-0.366,0.301C127.476,4.637,127.201,4.663,127.033,4.608 M127.188,4.282c-0.118,0-0.209-0.224-0.237-0.308
		c-0.069-0.217-0.004-0.465,0.149-0.627c0.129-0.131,0.527-0.339,0.628-0.074c0.031,0.071,0.031,0.162,0.004,0.231
		c-0.068,0.179-0.144,0.352-0.229,0.521C127.441,4.142,127.334,4.286,127.188,4.282 M132.4,14.947
		c-0.127-0.094-0.21-0.27-0.118-0.41c0.028-0.051,0.067-0.094,0.114-0.125c0.078-0.057,0.175-0.086,0.27-0.078
		c0.089,0.01,0.165,0.053,0.215,0.125c0.051,0.07,0.105,0.182,0.02,0.25c-0.057,0.045-0.149,0.076-0.19,0.121
		c-0.045,0.053-0.06,0.129-0.129,0.156C132.512,15.016,132.455,14.992,132.4,14.947 M134.97,10.629
		c-0.22-0.153-0.413-0.456-0.449-0.671c-0.03-0.161-0.047-0.436,0.136-0.488c0.12-0.034,0.251-0.024,0.369,0.003
		c0.187,0.042,0.329,0.174,0.441,0.339c0.085,0.129,0.183,0.308,0.196,0.472c0.009,0.143-0.062,0.352-0.219,0.401
		C135.266,10.748,135.128,10.738,134.97,10.629"/>
	<path fill-rule="evenodd" clip-rule="evenodd" fill="#BF3138" d="M127.74,15.928c0.149-0.041,0.326,0.045,0.366,0.076
		c0.424,0.346,0.466,0.703,0.562,1.516c0.058,0.492,0.202,0.383,0.451,0.102c0.611-0.686,0.429-1.025,0.859-1.381
		c0.304-0.256,0.08-0.791,0.365-0.941c0.428-0.223,0.779,0.193,1.14,0.363c0.716,0.35,1.349,0.4,1.745-0.441
		c0.166-0.35,0.487-1.547,0.064-1.77c-0.519-0.271-1.544-0.492-1.78-1.123c-0.181-0.508-0.451-1.301,0.283-1.474
		c0.53-0.132,0.723-0.196,1.23,0.102c0.283,0.165,0.58,0.589,0.567,0.96c-0.011,0.393-0.522,0.518-0.869,0.322
		c-0.21-0.125-0.277-0.266-0.43-0.455c-0.067-0.086-0.167-0.229-0.297-0.195c-0.133,0.033-0.237,0.295-0.204,0.418
		c0.031,0.129,0.214,0.197,0.332,0.254c0.502,0.248,0.809,0.59,1.434,0.539c0.609-0.045,0.678-1.016,0.58-1.322
		c-0.227-0.72-0.44-1.238-1.041-1.724c-0.296-0.237-0.809-0.53-1.163-0.673c-0.33-0.136-0.854-0.192-0.857-0.097
		c-0.029,0.543-0.364,1.227-0.668,1.655c-0.982,1.393-2.515,0.799-3.773,0.165c-0.452-0.228-0.972-0.823-1.18-1.161
		c-0.25-0.408-0.318-0.918,0.029-1.27c0.185-0.185,0.461-0.331,0.671-0.428c0.447-0.213,0.881-0.202,1.343-0.054
		c0.591,0.188,0.972,0.481,1.147,0.82c0.062,0.119,0.207,0.397,0.253,0.667c0.071,0.402,0.03,0.663-0.495,0.717
		c-0.298,0.028-0.75-0.095-0.866-0.406c-0.036-0.09-0.203-0.573,0.004-0.575c0.106,0,0.548,0.453,0.647,0.227
		c0.114-0.258-0.092-0.533-0.258-0.704c-0.483-0.496-1.712-0.259-2.035,0.319c-0.49,0.883,0.822,1.35,1.476,1.559
		c0.342,0.111,0.69,0.214,1.054,0.254c0.385,0.046,0.785-0.106,1.108-0.356c0.422-0.327,0.858-1.029,0.903-1.561
		c0.02-0.212,0.016-0.49-0.023-0.872c-0.028-0.264-0.052-0.518-0.164-0.764c-0.062-0.134-0.126-0.409-0.208-0.36
		c-0.084,0.051-0.242,0.189-0.323,0.297c-0.115,0.143-0.287,0.396-0.414,0.172c-0.064-0.111-0.051-0.211,0.027-0.34
		c0.104-0.17,0.238-0.278,0.398-0.401c0.055-0.039,0.139-0.073,0.126-0.097c-0.179-0.418-0.977-0.834-1.374-0.976
		c-1.272-0.463-2.57-0.26-3.638,0.595c-0.465,0.37-0.892,0.854-1.137,1.405c-0.169,0.365-0.264,0.781-0.269,1.177
		c0,0.049-0.02,0.075,0.036,0.089c0.097,0.032,0.333,0.093,0.648,0.283c0.556,0.343,0.415,0.737,0.168,0.56
		c-0.048-0.024-0.497-0.222-0.698-0.259c-0.082-0.018-0.108-0.013-0.105,0.062c0.035,0.645,0.253,1.361,0.546,1.922
		c0.068,0.137,0.329,0.573,0.338,0.485c0.017-0.465,0.323-0.818,0.795-0.867c0.674-0.069,1.128-0.107,1.708,0.304
		c0.323,0.233,0.547,0.495,0.657,0.905c0.093,0.334,0.075,0.623-0.379,0.68c-0.279,0.039-0.587,0.021-0.784-0.053
		c-0.232-0.092-0.588,0.059-0.647-0.279c-0.191-1.146,1.189,0.395,1.327-0.248c0.038-0.176-0.036-0.297-0.149-0.424
		c-0.399-0.452-1.622-0.445-2.023-0.02c-0.039,0.043-0.188,0.207-0.064,0.492c0.064,0.15,0.353,0.277,0.097,0.41
		c-0.218,0.109-0.459-0.203-0.591-0.328c-0.639-0.621-0.929-1.636-1.098-2.497c-0.032-0.181-0.099-0.499-0.106-0.557
		c-0.005-0.049-0.362,0.048-0.505,0.098c-0.367,0.122-0.533,0.429-0.386,0.799c0.217,0.535,0.66,0.961,0.584,1.584
		c-0.092,0.707-0.894,0.9-1.438,1.146c-0.763,0.348-1.114,0.939-1.095,1.764c0.011,0.619,0.981,0.705,1.444,0.662
		c0.783-0.07,2.24-0.711,1.707-1.744c-0.115-0.223-0.548-0.477-0.79-0.344c-0.071,0.043-0.438,0.342-0.385,0.451
		c0.113,0.236,0.577,0.293,0.77,0.361c0.209,0.072-0.178,0.287-0.226,0.383c-0.032,0.066-0.042,0.139-0.107,0.17
		c-0.292,0.146-0.771-0.057-0.881-0.361c-0.21-0.588-0.057-1.305,0.52-1.631c0.222-0.125,0.371-0.004,0.577,0.111
		c0.575,0.33,1.31,0.961,1.189,1.705c-0.016,0.115-0.065,0.246-0.134,0.375c-0.219,0.43-0.783,0.756-1.192,0.982
		c-1.103,0.432-2.584,0.283-2.919-1.035c-0.075-0.539-0.084-1.076,0.118-1.594c0.309-0.564,0.848-1.027,1.47-1.219
		c0.302-0.148,0.675-0.305,0.807-0.615c0.065-0.153,0.052-0.228-0.022-0.36c-0.292-0.508-0.607-1.03-0.367-1.627
		c0.22-0.44,0.648-0.623,1.118-0.659c0.118,0.005,0.118-0.007,0.121-0.117c0.042-0.306,0.11-0.599,0.183-0.899
		c0.357-1.045,1.026-1.87,1.995-2.417c0.857-0.462,1.91-0.61,2.879-0.407c0.874,0.179,1.727,0.646,2.207,1.42
		c0.211-0.002,0.419-0.004,0.626,0.043c0.655,0.137,1.217,0.522,1.317,1.147c0.038,0.24,0.026,0.584-0.218,0.716
		c-0.382,0.2-0.826-0.037-0.806-0.476c0.007-0.094,0.012-0.16,0.088-0.222c0.098-0.074,0.171,0.046,0.271,0.052
		c0.034,0.003,0.067-0.08,0.067-0.105c0.01-0.35-0.29-0.541-0.584-0.662c-0.212-0.09-0.646-0.143-0.58-0.043
		c0.053,0.078,0.122,0.233,0.156,0.336c0.097,0.296,0.177,0.568,0.207,0.876c0.018,0.152,0.032,0.306,0.072,0.451
		c0.018,0.058,0.087,0.052,0.139,0.052c0.939-0.004,1.612,0.327,2.363,0.986c0.821,0.729,1.004,1.511,1.148,2.402
		c0.082,0.5-0.126,1.373-0.581,1.59c-0.095,0.078-0.111,0.123-0.1,0.252c0.202,0.922,0.023,2.061-0.665,2.754
		c-0.402,0.273-0.832,0.348-1.27,0.082c-0.125-0.072-0.577-0.146-0.681-0.104c-0.192,0.08-0.27,0.252-0.648,0.313
		c-0.202,0.061-0.482-0.188-0.622,0.129c-0.112,0.215-0.089,1.084-0.451,1.086c-0.336,0.002-0.424,0.457-0.901,0.6
		c-0.097,0.033-0.243,0.021-0.31-0.061c-0.219-0.551-0.161-1.033-0.251-1.504c-0.067-0.207-0.125-0.395-0.267-0.557
		C127.752,16.332,127.354,16.027,127.74,15.928 M127.696,15.691c-0.308,0.146-0.659,0.057-0.781,0
		c-0.152-0.051-0.286-0.125-0.41-0.254c-0.025-0.021-0.04-0.045-0.052-0.068c-0.03-0.039-0.057-0.078-0.079-0.119
		c-0.007-0.014-0.023-0.025-0.042-0.035c-0.041-0.033-0.064,0.016-0.054,0.057c0.037,0.172,0.101,0.406,0.101,0.588
		c0.004,0.629-0.335,1.111-0.569,1.359c-0.288,0.262-1.067,0.348-1.234,0.322c-0.734-0.117-1.238-0.801-1.298-1.518
		c-0.022-0.258,0.096-0.527,0.354-0.305c0.118,0.104,0.175,0.186,0.24,0.326c0.146,0.307,0.236,0.668,0.617,0.695
		c0.243,0.016,0.806-0.242,0.971-0.383c0.228-0.191,0.54-0.576,0.436-0.916c-0.161-0.506-0.43-0.785-0.341-1.326
		c0.105-0.617,0.451,0.018,0.538-0.016c0.547-0.201,0.639,0.025,1.113,0.178c0.23,0.162,0.408,0.404,0.408,0.693
		c0,0.273,0.579,0.133,0.654-0.086c0.118-0.338,0.069-0.684-0.025-0.807c-0.057-0.068-0.104-0.123-0.133-0.102
		c-0.058,0.043-0.048,0.035-0.06,0.055c-0.146,0.154-0.471,0.131-0.512-0.078c-0.008-0.041,0.004-0.066,0.061-0.125
		c0.02-0.016,0.097-0.043,0.08-0.072c-0.02-0.031-0.132-0.064-0.188-0.07c-0.129-0.014-0.241-0.104-0.234-0.277
		c0.002-0.143,0.238-0.182,0.402-0.152c0.095,0.018,0.19,0.035,0.258,0.053c0.125,0.023,0.275-0.066,0.385-0.125
		c0.46-0.246,1.117-0.414,1.634-0.377c0.648,0.049,1.615,0.297,1.763,1.047c0.031,0.162-0.03,0.52-0.196,0.793
		c-0.256,0.412-0.796,0.326-1.007,0.27c-0.435-0.111-0.776-0.453-0.587-0.941c0.077-0.193,0.734,0.158,0.775,0.271
		c0.012,0.031-0.016,0.074,0,0.104c0.195,0.344,0.756-0.543,0.444-0.785c-0.435-0.334-0.99-0.338-1.526-0.297
		c-0.166,0.012-0.773,0.105-0.982,0.311c-0.159,0.162-0.09,0.17-0.001,0.285c0.371,0.486,0.308,0.957,0.049,1.43
		C128.42,15.734,128.052,15.785,127.696,15.691 M132.772,11.76c-0.08-0.072-0.133-0.201-0.196-0.279
		c-0.059-0.089,0.103-0.097,0.146-0.097c0.099-0.003,0.21,0.023,0.287,0.072c0.065,0.039,0.184,0.287,0.087,0.363
		C132.973,11.91,132.868,11.85,132.772,11.76 M130.358,16.102c0.196-0.197,0.143-0.525,0.295-0.504
		c0.216,0.029,0.26,0.229,0.24,0.398c-0.015,0.098-0.164,0.275-0.248,0.301C130.496,16.35,130.292,16.166,130.358,16.102
		 M127.082,15.02c-0.107,0.008-0.533-0.174-0.562-0.285c-0.066-0.221,0.238-0.229,0.405-0.193
		C127.034,14.561,127.313,14.998,127.082,15.02"/>
	<path fill-rule="evenodd" clip-rule="evenodd" fill="#FFFFFF" d="M92.971,28.701l-74.84-0.006l-0.488-0.045
		c-0.904-0.166-1.63-0.492-2.353-1.061l-0.345-0.313c-0.689-0.723-1.099-1.486-1.327-2.457c-0.156-0.873-0.122-1.701,0.163-2.547
		c-0.11,0.18-0.226,0.352-0.351,0.523c-0.678,0.865-1.499,1.4-2.526,1.781c-1.575,0.525-3.295,0.584-4.871,0.029l-0.332-0.133
		c-1.111-0.502-2.017-1.256-2.736-2.242c-0.26-0.262-0.497-0.553-0.714-0.85c-1.407-1.971-1.955-4.357-2.166-6.729
		c-0.155-2.037-0.106-4.095,0.212-6.115c0.449-2.61,1.437-5.342,3.528-7.081c0.767-0.615,1.596-1.033,2.563-1.228
		c1.266-0.233,2.71-0.177,3.848,0.476c0.515-0.692,1.336-0.757,2.13-0.683c0.341,0.053,0.596,0.129,0.912,0.278l0.303,0.224
		l0.306,0.408l0.034,0.162c0.304,0.149,0.464,0.396,0.659,0.662l0.089,0.439c-0.005,0.554-0.011,1.105-0.011,1.66
		c0.406-0.735,0.866-1.372,1.453-1.969l0.428-0.381c0.584-0.446,1.128-0.74,1.829-0.961c0.485-0.115,0.931-0.173,1.433-0.164
		c0.774,0.045,1.435,0.236,2.118,0.598c0.805,0.467,1.463,1.09,2.011,1.841c0.17,0.175,0.33,0.36,0.483,0.551
		c-0.157-0.666-0.146-1.28,0.079-1.928l0.192-0.332l0.423-0.38l0.486-0.111c1.957,0.004,3.913,0.004,5.867,0l0.527,0.167
		c0.226,0.238,0.463,0.446,0.561,0.767l0.092,0.032l0.386,0.375l0.175,0.318l0.135,0.48c0.065,0.509,0.047,0.951-0.074,1.452
		L33.02,4.743l-0.326,0.351l-0.43,0.179L32.059,5.3c-0.01,1.078-0.015,2.154-0.015,3.228c0.673-0.423,1.445-0.506,2.213-0.368
		l0.463,0.143c0.503,0.226,0.832,0.479,1.176,0.908l0.176,0.29c0.093,0.075,0.183,0.149,0.262,0.234c0-1.63-0.002-3.262-0.002-4.894
		c-0.139-0.148-0.234-0.313-0.297-0.509l-0.163-0.06l-0.34-0.368L35.294,3.37c-0.132-0.573-0.134-1.083-0.006-1.654l0.087-0.252
		l0.174-0.311l0.372-0.37l0.499-0.161c1.353,0.004,2.705-0.002,4.058,0.004c1.108,0.001,2.157,0.098,3.206,0.487
		c0.207,0.08,0.405,0.171,0.606,0.27c0.918,0.493,1.686,1.188,2.291,2.03c2.407,2.517,2.835,6.271,2.422,9.587
		c-0.174,1.199-0.483,2.316-1.026,3.4c-0.35,0.658-0.751,1.234-1.261,1.777c-0.295,0.293-0.596,0.557-0.929,0.805h7.093
		c-0.192-0.215-0.349-0.467-0.551-0.668c-0.857-0.904-1.394-1.969-1.524-3.217c-0.054-0.729,0.055-1.373,0.301-2.057
		c0.254-0.637,0.576-1.162,1.042-1.665c0.453-0.452,1.004-0.854,1.626-1.032l-0.022-0.031c-0.768-0.817-1.352-1.7-1.712-2.77
		c-0.432-1.393-0.428-2.894,0.186-4.235c0.404-0.822,0.926-1.488,1.647-2.055c0.586-0.438,1.186-0.724,1.891-0.908
		c0.688-0.153,1.32-0.172,2.013-0.059c0.581,0.117,1.117,0.312,1.663,0.531l0.287-0.164c0.675-0.246,1.391-0.274,2.09-0.101
		l0.279,0.113l0.372,0.268l0.176,0.307l0.064-0.122l0.488-0.388l0.516-0.109h8.937l0.516,0.109l0.484,0.388l0.248,0.465l0.441,0.351
		L74.58,2.37c0.07,0.287,0.112,0.512,0.117,0.809c-0.01,0.221-0.007,0.437-0.007,0.653c0.635-1.146,1.449-2.147,2.59-2.823
		c0.538-0.289,1.045-0.465,1.646-0.57c0.598-0.076,1.132-0.061,1.722,0.054c0.599,0.144,1.1,0.354,1.622,0.681
		c0.643,0.44,1.185,0.982,1.642,1.614l0.057,0.056C83.908,2.321,83.995,1.86,84.2,1.377l0.215-0.31l0.384-0.309l0.46-0.138h3.936
		c0.764,0.027,1.409,0.313,1.816,0.975l0.259-0.495l0.401-0.348l0.482-0.132c1.519,0.004,3.042,0.004,4.566,0l0.543,0.224
		l0.18,0.218l0.217-0.231l0.518-0.21h11.308l0.317,0.045l0.335,0.113l0.328,0.198l0.272,0.28l0.214,0.413l0.204,0.126l0.272,0.277
		l0.179,0.314c0.092,0.275,0.143,0.49,0.161,0.777c0.025,1.612,0.067,3.22,0.09,4.825c-0.006,0.231-0.038,0.418-0.09,0.643
		l-0.158,0.344l-0.317,0.354l-0.452,0.235c-0.515,0.069-1.011,0.064-1.529,0.054v5.323c0.345,0,0.661,0.006,1.007,0.055l0.454,0.234
		c0.181,0.205,0.411,0.432,0.478,0.707l0.211,0.109l0.316,0.354l0.162,0.346c0.049,0.223,0.082,0.41,0.086,0.637
		c-0.025,1.799-0.09,3.594-0.117,5.391c-0.008,0.254-0.03,0.471-0.092,0.715l-0.103,0.26l-0.168,0.266l-0.238,0.232l-0.268,0.166
		c-0.247,0.1-0.448,0.15-0.712,0.189l-0.414,0.02H98.957l-0.479-0.113c-0.281-0.236-0.53-0.418-0.663-0.773
		c0.031,1.193-0.376,2.268-1.111,3.195l-0.315,0.346c-0.722,0.689-1.48,1.1-2.455,1.328C93.612,28.664,93.3,28.693,92.971,28.701"/>
	<path fill-rule="evenodd" clip-rule="evenodd" fill="#BF3138" d="M36.606,18.287c-0.248,0.004-0.285-1.457,0-1.488
		c0.221-0.031,0.64-0.043,0.809-0.211c0.102-0.135,0.103-0.367,0.107-0.527c-0.002-4.039-0.004-8.083-0.004-12.125
		c-0.03-0.376-0.076-0.495-0.461-0.579c-0.15-0.025-0.301-0.048-0.451-0.072c-0.297-0.021-0.322-1.469,0-1.475
		c1.328,0,2.661-0.007,3.99,0.003c1.514,0.007,2.893,0.228,4.068,1.249c2.412,2.096,2.853,5.791,2.495,8.783
		c-0.231,1.959-0.956,3.939-2.544,5.201c-1.113,0.883-2.486,1.242-3.892,1.242H36.606z M41.072,16.252
		c0.019,0.313-0.02,0.455,0.325,0.488c1.63,0.049,1.758-1.82,1.866-3.033c0.135-1.514,0.154-3.033,0.141-4.551
		c-0.006-1.075-0.045-2.151-0.176-3.224C43.125,5.085,42.943,3.768,42,3.413c-0.834-0.236-0.933,0.008-0.933,0.725v11.929
		C41.067,16.119,41.072,16.203,41.072,16.252"/>
	<path fill-rule="evenodd" clip-rule="evenodd" fill="#BF3138" d="M24.804,10.051c-0.001,2.593-0.663,5.55-2.608,7.408
		c-0.588,0.559-1.343,0.967-2.154,1.066c-2.617,0.328-4.338-2.328-5.036-4.496c-0.753-2.338-0.772-5.062-0.163-7.416
		c0.577-2.213,2.153-5.048,4.777-5.048c2.448,0,3.995,2.501,4.635,4.565C24.649,7.396,24.804,8.729,24.804,10.051 M19.621,3.088
		c-0.758,0.006-0.971,1.198-1.063,1.754c-0.174,1.081-0.216,2.184-0.248,3.275c-0.043,1.698-0.043,3.408,0.05,5.109
		c0.043,0.773,0.1,1.553,0.261,2.311c0.111,0.521,0.469,1.729,1.269,1.367c0.528-0.236,0.71-1.197,0.793-1.693
		c0.166-0.988,0.21-1.992,0.245-2.988c0.053-1.717,0.05-3.447-0.035-5.16c-0.04-0.817-0.093-1.642-0.251-2.443
		C20.546,4.119,20.301,3.084,19.621,3.088"/>
	<path fill-rule="evenodd" clip-rule="evenodd" fill="#BF3138" d="M33.868,18.287c0.903,0.027,1.091-0.455,0.852-1.09
		c-0.374-0.977-0.736-2.238-0.798-2.43c-0.149-0.471-0.197-1.211,0.457-1.957c0.58-0.656,0.734-1.156,0.812-1.812
		c0.252-2.19-3.314-2.561-3.579,0.455c-0.102,1.148,0.261,2.762,0.904,3.752c0.31,0.473,1.043,1.396,0.169,1.701
		c-0.688,0.242-2.419,0.43-2.495-0.619c0-4.078-0.048-8.152-0.001-12.23c0.001-0.188,0.06-0.573,0.285-0.618
		c0.284-0.059,0.498-0.09,0.783-0.134c0.31-0.035,0.339-1.498,0.023-1.497h-5.553c-0.34-0.021-0.289,1.497,0,1.478
		c0.151,0.021,0.309,0.027,0.459,0.07c0.362,0.109,0.452,0.183,0.452,0.578c0,4.041,0.002,8.085,0.003,12.126
		c-0.003,0.16-0.003,0.393-0.106,0.527c-0.167,0.168-0.587,0.178-0.808,0.211c-0.264,0.059-0.253,1.471,0,1.488
		C28.433,18.287,31.166,18.199,33.868,18.287"/>
	<path fill-rule="evenodd" clip-rule="evenodd" fill="#BF3138" d="M12.718,15.523c0.298,0.004,0.324,0.305,0.324,0.463
		c-0.011,1.822-0.121,3.775-1.248,5.283c-1.041,1.391-3.063,1.846-4.738,1.699c-1.785-0.156-3.176-1.182-4.112-2.676
		c-1.536-2.453-1.811-5.631-1.752-8.457c0.062-2.938,0.614-6.242,2.524-8.597C4.395,2.403,5.308,1.713,6.363,1.45
		c0.843-0.215,2.089-0.228,2.903,0.097c0.353,0.143,0.659,0.357,0.978,0.56c0.053,0.031,0.124,0.016,0.18,0
		c0.242-0.078,0.58-0.437,0.798-0.742c0.188-0.286,1.585-0.228,1.572,0.132c-0.022,2.365,0.008,4.288,0.03,6.622
		c0.001,0.133,0.089,0.654-0.386,0.658h-1.065c-0.406-0.028-0.441-0.548-0.487-0.741c-0.326-1.346-0.685-2.55-1.358-3.748
		C9.267,3.822,8.814,3.106,8.217,3.053C7.19,2.969,6.824,4.633,6.694,5.327c-0.676,3.633-0.618,7.802-0.242,11.505
		c0.117,1.158,0.352,3.924,2.048,4.082c0.915,0.086,1.609-0.443,2.03-1.213c0.605-1.105,0.679-2.406,0.687-3.648
		c0-0.178,0.006-0.535,0.397-0.529H12.718z"/>
	<path fill-rule="evenodd" clip-rule="evenodd" fill="#D3A12A" d="M42.495,4.176c-0.655-0.138-0.737,0.118-0.737,0.778
		c-0.001,3.832-0.001,7.663,0,11.493c-0.133,0.025-0.277,0.047-0.411,0.02c-0.006-0.021-0.006-0.047-0.006-0.068
		c-0.004-0.111-0.01-0.225-0.011-0.334c0-3.854-0.003-7.704,0-11.553c0-0.203-0.005-0.403,0.003-0.606
		c0.008-0.092,0.011-0.201,0.06-0.286c0.039-0.044,0.137-0.03,0.187-0.03c0.134,0.021,0.269,0.041,0.398,0.094
		c0.089,0.048,0.161,0.094,0.241,0.16C42.334,3.945,42.419,4.053,42.495,4.176 M37.295,19.105c-0.105,0.002-0.172-0.256-0.191-0.557
		h3.622c1.602,0,3.153-0.461,4.352-1.555c1.676-1.527,2.283-3.805,2.421-5.992c0.118-1.901-0.108-3.659-0.773-5.443
		c1.201,2.084,1.399,4.803,1.125,7.101c-0.234,1.959-0.957,3.938-2.545,5.199c-1.113,0.889-2.483,1.246-3.892,1.246H37.295z"/>
	<path fill-rule="evenodd" clip-rule="evenodd" fill="#D3A12A" d="M20.178,3.921c-0.651,0.137-0.845,1.214-0.931,1.736
		c-0.175,1.084-0.218,2.185-0.246,3.274c-0.046,1.701-0.044,3.41,0.049,5.111c0.044,0.771,0.101,1.549,0.262,2.309
		c0.017,0.074,0.037,0.16,0.063,0.256c-0.095-0.084-0.163-0.199-0.218-0.305c-0.239-0.467-0.329-1-0.4-1.518
		c-0.103-0.785-0.143-1.576-0.174-2.367c-0.062-1.634-0.048-3.273,0.006-4.909c0.035-0.955,0.091-1.912,0.264-2.853
		c0.077-0.393,0.215-1.04,0.577-1.256c0.25-0.146,0.469,0.024,0.603,0.231C20.092,3.722,20.137,3.821,20.178,3.921 M17.808,18.336
		c0.625,0.342,1.29,0.514,2.006,0.473c2.251-0.127,3.777-2.262,4.494-4.205c0.533-1.451,0.756-3.01,0.756-4.553
		c0.003-1.667-0.243-3.405-0.908-4.943c0.771,1.366,1.234,3.041,1.297,4.609c0.031,0.746,0.043,1.498,0,2.247
		c-0.127,2.301-0.892,4.715-2.568,6.309c-0.587,0.563-1.344,0.969-2.154,1.072C19.579,19.486,18.601,19.055,17.808,18.336"/>
	<path fill-rule="evenodd" clip-rule="evenodd" fill="#D3A12A" d="M34.559,19.074c0.572,0.023,0.855-0.127,0.927-0.438
		c0.078-0.326-0.157-0.844-0.267-1.15c-0.296-0.852-0.554-1.74-0.607-1.904c-0.146-0.469-0.196-1.209,0.457-1.955
		c0.581-0.658,0.734-1.158,0.812-1.809c0.065-0.561-0.122-1.006-0.438-1.301c0.034,0.449-0.018,0.884-0.161,1.307
		c-0.151,0.441-0.405,0.807-0.705,1.158c-0.198,0.232-0.354,0.486-0.433,0.781c-0.085,0.316-0.062,0.637,0.035,0.947
		c0.24,0.773,0.468,1.545,0.749,2.301c0.158,0.422,0.25,0.824-0.072,1.213c-0.44,0.371-0.977,0.291-1.499,0.279
		c-0.846-0.02-1.691-0.025-2.536-0.018c-1.531,0.016-3.06,0.051-4.59,0.061c0.017,0.291,0.082,0.551,0.186,0.557
		C29.125,19.104,31.855,18.982,34.559,19.074 M30.882,16.746c-0.006-3.955-0.049-7.915-0.003-11.871
		c0.003-0.186,0.063-0.579,0.285-0.623c0.284-0.058,0.498-0.085,0.782-0.131c0.31-0.034,0.344-1.498,0.023-1.496H31.76
		c-0.009,0.168-0.028,0.344-0.077,0.507c-0.03,0.104-0.078,0.223-0.156,0.308c-0.132,0.144-0.295,0.133-0.481,0.161
		c-0.143,0.023-0.288,0.041-0.428,0.069c-0.167,0.038-0.164,0.248-0.167,0.392c-0.045,4.07-0.01,8.139,0.003,12.208
		C30.455,16.531,30.662,16.672,30.882,16.746"/>
	<path fill-rule="evenodd" clip-rule="evenodd" fill="#D3A12A" d="M4.83,22.529c2.106,1.246,5.636,0.922,7.174-1.102
		c0.799-1.057,1.121-2.395,1.233-3.689c0.041-0.469,0.02-0.934,0.062-1.398c0.072-0.008,0.158,0.006,0.187,0.008
		c0.228,0.049,0.247,0.314,0.247,0.453c-0.009,1.824-0.122,3.777-1.249,5.285c-1.041,1.391-3.061,1.848-4.737,1.701
		C6.606,23.686,5.63,23.232,4.83,22.529 M8.958,3.877C7.909,3.722,7.521,5.406,7.383,6.143C6.707,9.777,6.767,13.947,7.142,17.65
		c0.058,0.578,0.148,1.563,0.435,2.42c-0.52-0.787-0.687-1.703-0.798-2.621c-0.375-3.164-0.484-6.472-0.169-9.644
		c0.09-0.884,0.203-1.771,0.383-2.645C7.198,4.173,7.83,2.384,8.958,3.877 M13.05,2.04c0.248,0.048,0.438,0.138,0.433,0.271
		c-0.008,0.784-0.01,1.526-0.008,2.245c0.007,1.366,0.026,2.73,0.01,4.095c-0.002,0.238-0.008,0.467-0.013,0.668
		c-0.005,0.201-0.133,0.276-0.345,0.276h-1.062c-0.308-0.022-0.404-0.326-0.451-0.554c0.279,0,0.557,0.005,0.833,0
		c0.157-0.003,0.307-0.048,0.426-0.153c0.073-0.063,0.133-0.153,0.163-0.247c0.048-0.139,0.059-0.278,0.052-0.426
		c-0.008-0.175-0.005-0.354-0.009-0.535C13.063,5.801,13.042,3.918,13.05,2.04"/>
	<path fill-rule="evenodd" clip-rule="evenodd" fill="#D3A12A" d="M110.155,2.63c0.324,0.042,0.42,0.253,0.426,0.585
		c0.033,2.032,0.06,2.672,0.089,4.703c0.001,0.173,0.022,0.517-0.307,0.517c-0.547,0-0.4-0.015-0.948,0
		c-0.373,0.013-0.437-0.252-0.466-0.379c-0.011-0.059-0.026-0.117-0.042-0.178c0.225,0,0.448,0.002,0.672,0.002
		c0.064-0.002,0.129,0,0.191-0.004c0.117-0.014,0.238-0.079,0.318-0.166c0.117-0.136,0.149-0.319,0.15-0.491
		c0.003-0.103,0-0.203-0.001-0.309L110.155,2.63z M106.553,4.625c-0.051-0.028-0.104-0.051-0.158-0.07
		c-0.467-0.166-1.179-0.25-1.672-0.169c-0.433,0.091-0.34,0.635-0.341,0.991v4.834c-0.136,0.088-0.279,0.164-0.43,0.228V4.559
		c-0.004-0.184-0.017-0.367,0.006-0.554c0.014-0.07,0.023-0.136,0.095-0.17c0.093-0.027,0.193-0.03,0.286-0.037
		c0.403-0.01,0.814,0.041,1.201,0.158c0.176,0.057,0.343,0.154,0.5,0.255l0.207,0.145c0.102,0.085,0.199,0.169,0.296,0.257
		C106.545,4.615,106.55,4.619,106.553,4.625 M107.702,8.651h0.114c0.331,0.02,0.312,0.282,0.312,0.421v3.588v3.537
		c0,0.139,0.019,0.4-0.312,0.42h-0.923c-0.431-0.006-0.461-0.154-0.475-0.234c-0.014-0.105-0.034-0.217-0.051-0.32
		c0.262,0,0.52,0.008,0.776,0c0.355-0.008,0.559-0.27,0.559-0.623V8.651z M104.382,13.643v6.984l-0.043-0.002l-0.149-0.018
		l-0.133-0.029c-0.088-0.039-0.095-0.195-0.099-0.279c-0.005-0.063-0.005-0.127-0.006-0.191v-6.91
		c0.238,0.1,0.456,0.234,0.657,0.404l0.119,0.107c0.027,0.031,0.053,0.063,0.083,0.096
		C104.676,13.744,104.532,13.688,104.382,13.643 M110.404,16.943h0.132c0.327-0.002,0.308,0.346,0.304,0.516
		c-0.031,2.033-0.077,2.84-0.109,4.873c-0.031,0.85,0.108,1.105-0.827,1.105H99.093c-0.16,0.004-0.245-0.246-0.274-0.557h10.056
		c0.313,0,0.633,0.021,0.935-0.066c0.185-0.053,0.345-0.182,0.414-0.363c0.085-0.227,0.069-0.469,0.073-0.709
		c0.002-0.072,0.002-0.146,0.005-0.219C110.325,20,110.38,18.469,110.404,16.943"/>
	<path fill-rule="evenodd" clip-rule="evenodd" fill="#D3A12A" d="M90.173,17.627c0.058,0.008,0.117,0.02,0.177,0.029
		c0.331,0.084,0.347,1.434,0,1.447h-4.175c-0.182-0.008-0.284-0.26-0.309-0.555h3.815c0.125-0.02,0.206-0.057,0.29-0.156
		c0.057-0.068,0.103-0.158,0.132-0.246C90.151,17.98,90.17,17.805,90.173,17.627 M89.126,9.537c0.001,2.225,0.001,4.45,0.001,6.676
		c0,0.084,0.003,0.172,0.01,0.262c-0.091-0.029-0.178-0.066-0.248-0.125c-0.069-0.066-0.092-0.141-0.117-0.227
		c-0.076-0.322-0.074-0.652-0.074-0.979V8.555C88.841,8.88,88.981,9.208,89.126,9.537 M96.959,2.626c0.092,0,0.18-0.004,0.279,0.005
		c0.094,0.011,0.151,0.063,0.151,0.136c0.001,0.3,0.015,0.533-0.011,0.806c-0.023,0.287-0.09,0.508-0.204,0.52
		c-0.312,0.037-0.725,0.081-0.973,0.309c-0.081,0.074-0.111,0.153-0.146,0.254c-0.08,0.279-0.096,0.566-0.104,0.852v12.998
		c0,0.285,0.104,0.869-0.314,0.865c-0.627,0.002-0.601,0.002-1.231,0c-0.371,0.002-0.507-0.338-0.593-0.557
		c0.379,0,0.762,0.004,1.145,0c0.164,0,0.307-0.057,0.417-0.184c0.062-0.074,0.105-0.176,0.126-0.271
		c0.046-0.227,0.024-0.447,0.018-0.674c0-4.197,0.004-8.391,0.004-12.585c0-0.308-0.052-1.087,0.165-1.322
		c0.164-0.133,0.389-0.169,0.591-0.201c0.101-0.018,0.204-0.026,0.303-0.044c0.076-0.016,0.164-0.095,0.207-0.161
		c0.039-0.062,0.065-0.114,0.086-0.184C96.932,3.011,96.956,2.811,96.959,2.626"/>
	<path fill-rule="evenodd" clip-rule="evenodd" fill="#D3A12A" d="M80.198,3.917c-0.65,0.133-0.848,1.233-0.932,1.744
		c-0.165,1.004-0.209,2.03-0.241,3.049c-0.053,1.712-0.053,3.434,0.032,5.143c0.043,0.803,0.097,1.605,0.253,2.395
		c0.02,0.117,0.045,0.236,0.076,0.354c-0.003-0.002-0.005-0.004-0.011-0.008c-0.258-0.273-0.371-0.637-0.454-0.992
		c-0.15-0.678-0.22-1.365-0.264-2.057c-0.101-1.664-0.114-3.333-0.08-5.003c0.026-1.067,0.054-2.132,0.19-3.191
		c0.056-0.435,0.118-0.87,0.254-1.291c0.089-0.242,0.201-0.521,0.429-0.66c0.066-0.034,0.115-0.044,0.189-0.05
		c0.035,0.003,0.065,0.008,0.102,0.016c0.166,0.056,0.264,0.187,0.347,0.331C80.13,3.769,80.167,3.843,80.198,3.917 M85.487,11.73
		c-0.062,1.572-0.423,3.145-1.137,4.547c-0.847,1.656-2.297,3.258-4.314,3.078c-0.703-0.063-1.319-0.326-1.862-0.727
		c-0.079-0.055-0.262-0.205-0.364-0.299c0.274,0.139,0.536,0.262,0.828,0.34c0.479,0.139,0.976,0.176,1.467,0.115
		c0.622-0.076,1.195-0.322,1.709-0.674c0.451-0.311,0.853-0.713,1.193-1.143c0.676-0.854,1.165-1.85,1.496-2.881
		c0.285-0.906,0.456-1.852,0.529-2.796c0.089-1.113,0.064-2.237-0.087-3.345c-0.119-0.829-0.316-1.652-0.609-2.437
		c-0.048-0.131-0.1-0.252-0.149-0.377c0.822,1.442,1.228,3.125,1.3,4.787C85.511,10.523,85.511,11.126,85.487,11.73"/>
	<path fill-rule="evenodd" clip-rule="evenodd" fill="#D3A12A" d="M66.146,6.127c-0.242,0.686-0.38,1.414-0.5,2.143
		c-0.028,0.171-0.042,0.438-0.274,0.438h-0.923c-0.305,0-0.322-0.283-0.31-0.554V8.151h0.284c0.114,0,0.228,0.006,0.342-0.004
		c0.089-0.022,0.142-0.043,0.218-0.097c0.134-0.129,0.182-0.271,0.214-0.452c0.009-0.076,0.025-0.151,0.038-0.229
		c0.169-1.005,0.383-2.033,0.911-2.916V6.127z M68.87,19.104h-2.862c-0.115,0.004-0.184-0.25-0.205-0.555h5.256
		c0.239-0.031,0.32-0.203,0.391-0.42c0.041-0.172,0.063-0.35,0.066-0.529c0.072,0.004,0.143,0.012,0.216,0.021
		c0.292,0.012,0.276,1.498,0,1.482H68.87z M70.646,5.364V16.5c-0.084-0.008-0.168-0.021-0.25-0.041
		c-0.027-0.006-0.08-0.02-0.099-0.039c-0.072-0.176-0.076-0.385-0.079-0.574L70.214,4.454C70.39,4.744,70.529,5.046,70.646,5.364
		 M73.078,2.626h0.141c0.365,0,0.289,0.553,0.284,0.708c-0.004,0.893,0.005,1.74,0.024,2.585c0.019,0.865,0.031,1.624,0.03,2.586
		c0,0.147-0.118,0.202-0.264,0.202h-0.924c-0.234,0-0.243-0.267-0.272-0.438c-0.004-0.038-0.011-0.079-0.019-0.119H72.4
		c0.096,0,0.195,0.006,0.293-0.004c0.083-0.01,0.172-0.043,0.24-0.091c0.062-0.043,0.125-0.111,0.157-0.18
		c0.071-0.146,0.082-0.275,0.087-0.438l-0.005-0.113c-0.065-1.547-0.098-3.098-0.098-4.649L73.078,2.626z"/>
	<path fill-rule="evenodd" clip-rule="evenodd" fill="#D3A12A" d="M58.146,3.856c-1.034-0.359-1.956,0.348-1.681,1.467
		c-0.266-0.364-0.532-0.869-0.47-1.333c0.037-0.278,0.225-0.576,0.48-0.705c0.269-0.135,0.61-0.095,0.885-0.003
		C57.674,3.387,57.936,3.609,58.146,3.856 M61.867,2.454c0.223,0.02,0.4,0.065,0.423,0.16c0.037,0.158-0.044,2.592-0.027,4.611
		c-0.004,0.131-0.009,0.262,0.004,0.394l0.001,0.001c0.005,0.28,0.01,0.551,0.022,0.798c0.004,0.183-0.023,0.287-0.276,0.295h-1.189
		c-0.255-0.008-0.285-0.19-0.308-0.301c-0.012-0.082-0.03-0.162-0.048-0.252h0.805c0.227-0.017,0.329-0.024,0.496-0.187
		c0.079-0.144,0.082-0.21,0.089-0.38c-0.048-1.409-0.024-2.817-0.002-4.228C61.86,3.061,61.865,2.756,61.867,2.454 M56.922,12.785
		c0.287,0.303,0.457,0.693,0.457,1.111c0,0.598-0.33,1.205-1.1,1.646c-0.599,0.34-0.973,0.918-0.886,1.512
		c-0.108-0.111-0.215-0.273-0.283-0.416c-0.222-0.451-0.211-0.813,0.082-1.232c0.149-0.193,0.324-0.334,0.528-0.455
		c0.476-0.283,0.866-0.645,1.087-1.158C56.931,13.475,56.98,13.123,56.922,12.785 M57.505,19.83c-1.317,0-2.884-0.781-3.374-1.271
		c0.46,0.262,0.876,0.412,1.162,0.496c0.599,0.172,1.145,0.225,1.766,0.217c0.877-0.014,1.694-0.191,2.515-0.482
		c0.73-0.32,1.255-0.652,1.833-1.201c0.79-0.863,1.239-1.896,1.322-3.07c0.035-0.51,0.005-1.02-0.087-1.521
		c-0.066-0.371-0.162-0.736-0.299-1.088c0.206,0.354,0.395,0.727,0.53,1.135c0.35,1.063,0.408,2.221,0.111,3.305
		C62.267,18.76,60.054,19.832,57.505,19.83"/>
	<path fill-rule="evenodd" clip-rule="evenodd" fill="#BF3138" d="M24.087,24.402c-0.062,0.453-0.242,0.803-0.532,1.049
		c-0.292,0.25-0.669,0.375-1.128,0.375c-0.551,0-0.996-0.182-1.334-0.539c-0.338-0.361-0.507-0.83-0.507-1.422
		c0-0.609,0.171-1.1,0.516-1.459c0.343-0.367,0.803-0.545,1.38-0.545c0.457,0,0.831,0.117,1.121,0.355
		c0.29,0.244,0.453,0.572,0.495,0.986h-0.907c-0.044-0.178-0.125-0.314-0.252-0.406c-0.123-0.09-0.285-0.137-0.486-0.137
		c-0.269,0-0.486,0.105-0.641,0.32c-0.158,0.213-0.236,0.504-0.236,0.875c0,0.367,0.076,0.652,0.224,0.857
		c0.15,0.205,0.356,0.309,0.627,0.309c0.216,0,0.389-0.057,0.519-0.162c0.131-0.104,0.214-0.258,0.245-0.457H24.087z"/>
	<path fill-rule="evenodd" clip-rule="evenodd" fill="#BF3138" d="M31.275,23.566h0.717c0.196,0,0.338-0.037,0.429-0.105
		c0.092-0.072,0.138-0.188,0.138-0.344c0-0.141-0.044-0.242-0.134-0.311c-0.088-0.066-0.224-0.098-0.406-0.098h-0.744V23.566z
		 M30.314,25.723v-3.771h1.804c0.477,0,0.83,0.084,1.056,0.256c0.225,0.172,0.34,0.436,0.34,0.793c0,0.211-0.047,0.393-0.148,0.541
		c-0.094,0.154-0.244,0.279-0.447,0.387c0.166,0.059,0.282,0.146,0.351,0.25c0.069,0.111,0.107,0.303,0.119,0.576
		c0.004,0.078,0.007,0.18,0.015,0.309c0.01,0.305,0.064,0.484,0.155,0.527v0.133h-1.008c-0.051-0.133-0.081-0.313-0.088-0.547
		c-0.007-0.23-0.012-0.379-0.02-0.439c-0.015-0.148-0.064-0.254-0.148-0.322c-0.083-0.068-0.208-0.105-0.376-0.105h-0.644v1.414
		H30.314z"/>
	<polygon fill-rule="evenodd" clip-rule="evenodd" fill="#BF3138" points="39.837,25.723 39.837,21.951 42.702,21.951 
		42.702,22.723 40.803,22.723 40.803,23.393 42.538,23.393 42.538,24.145 40.803,24.145 40.803,24.951 42.764,24.951 42.764,25.723 
			"/>
	<path fill-rule="evenodd" clip-rule="evenodd" fill="#BF3138" d="M50.085,24.25h0.823l-0.42-1.301L50.085,24.25z M49.994,21.953
		h1.056l1.33,3.768h-1.036l-0.229-0.689h-1.262l-0.213,0.689h-1.004L49.994,21.953z"/>
	<path fill-rule="evenodd" clip-rule="evenodd" fill="#BF3138" d="M58.422,25.723v-3.771h1.329l0.496,1.834
		c0.044,0.164,0.086,0.322,0.119,0.473c0.038,0.152,0.068,0.301,0.099,0.443c0.03-0.148,0.066-0.309,0.108-0.479
		c0.04-0.168,0.089-0.35,0.14-0.541l0.467-1.73h1.328v3.771h-0.882v-1.674c0-0.115,0.004-0.281,0.009-0.494
		c0.008-0.213,0.015-0.459,0.027-0.736l-0.723,2.904H59.98l-0.706-2.904c0.009,0.336,0.019,0.637,0.024,0.904
		c0.009,0.264,0.013,0.473,0.013,0.627v1.373H58.422z"/>
	<polygon fill-rule="evenodd" clip-rule="evenodd" fill="#BF3138" points="68.925,25.723 68.925,21.951 71.792,21.951 
		71.792,22.723 69.892,22.723 69.892,23.393 71.625,23.393 71.625,24.145 69.892,24.145 69.892,24.951 71.852,24.951 71.852,25.723 
			"/>
	<path fill-rule="evenodd" clip-rule="evenodd" fill="#BF3138" d="M79.055,23.566h0.717c0.194,0,0.337-0.037,0.428-0.105
		c0.09-0.072,0.139-0.188,0.139-0.344c0-0.141-0.046-0.242-0.137-0.311c-0.088-0.066-0.222-0.098-0.403-0.098h-0.744V23.566z
		 M78.091,25.723v-3.771h1.805c0.478,0,0.83,0.084,1.055,0.256c0.23,0.172,0.343,0.436,0.343,0.793c0,0.211-0.049,0.393-0.148,0.541
		c-0.097,0.154-0.245,0.279-0.449,0.387c0.166,0.059,0.285,0.146,0.348,0.25c0.068,0.111,0.113,0.303,0.121,0.576
		c0.007,0.078,0.01,0.18,0.015,0.309c0.012,0.305,0.064,0.484,0.155,0.527v0.133h-1.013c-0.046-0.133-0.07-0.313-0.083-0.547
		c-0.005-0.23-0.014-0.379-0.017-0.439c-0.018-0.148-0.066-0.254-0.152-0.322c-0.084-0.068-0.208-0.105-0.375-0.105h-0.641v1.414
		H78.091z"/>
	<polygon fill-rule="evenodd" clip-rule="evenodd" fill="#BF3138" points="88.494,25.723 88.494,24.299 87.194,21.951 
		88.276,21.951 88.97,23.469 89.662,21.951 90.753,21.951 89.435,24.299 89.435,25.723 	"/>
	<path fill-rule="evenodd" clip-rule="evenodd" fill="#D3A12A" d="M92.956,27.1c1.793,0,3.261-1.461,3.261-3.258
		c0-1.795-1.468-3.26-3.261-3.26H18.381c-1.795,0-3.261,1.465-3.261,3.26c0,1.797,1.466,3.258,3.261,3.258H92.956z M92.956,27.52
		c2.025,0,3.675-1.654,3.675-3.678c0-2.021-1.65-3.676-3.675-3.676H18.381c-2.026,0-3.677,1.654-3.677,3.676
		c0,2.023,1.651,3.678,3.677,3.678H92.956z"/>
	<path fill-rule="evenodd" clip-rule="evenodd" fill="#BF3138" d="M103.69,12.824v7.287c0.008,0.266-0.003,0.6,0.282,0.713
		c1.862,0.516,3.808-2.068,4.233-3.504c0.096-0.324,0.156-0.502,0.241-0.826c0.027-0.125,0.073-0.398,0.448-0.369h0.951
		c0.325,0,0.306,0.35,0.304,0.518c-0.025,2.035-0.077,2.842-0.104,4.871c-0.036,0.852,0.1,1.107-0.834,1.107H98.408
		c-0.42,0.008-0.332-1.666,0-1.691c0.297-0.047,0.734-0.061,0.974-0.262c0.184-0.172,0.19-0.539,0.193-0.773
		c0-5.145,0-10.292-0.003-15.439c-0.025-0.686-0.478-1.055-1.164-1.134c-0.279,0.028-0.349-1.47,0-1.513h10.994
		c0.372,0.019,0.484,0.239,0.489,0.589c0.03,2.032,0.06,2.671,0.091,4.708c0,0.167,0.021,0.514-0.305,0.513h-0.95
		c-0.373,0.03-0.436-0.251-0.463-0.381c-0.295-1.318-1.237-2.951-2.556-3.503c-0.465-0.162-1.181-0.247-1.676-0.164
		c-0.432,0.088-0.338,0.632-0.341,0.989v6.251c1.052-0.33,1.719-0.972,1.958-2.23c0.024-0.169,0.055-0.343,0.08-0.512
		c0.014-0.078,0.042-0.227,0.471-0.236h0.93c0.326,0.02,0.311,0.282,0.311,0.423v3.59v3.535c0,0.141,0.015,0.402-0.311,0.42h-0.93
		c-0.429-0.006-0.457-0.156-0.471-0.234c-0.025-0.168-0.056-0.342-0.08-0.512C105.41,13.799,104.743,13.154,103.69,12.824"/>
	<path fill-rule="evenodd" clip-rule="evenodd" fill="#BF3138" d="M88.437,7.312v8.086c0.011,0.318,0.02,0.664,0.146,0.965
		c0.067,0.15,0.169,0.229,0.317,0.301c0.242,0.104,0.501,0.129,0.762,0.178c0.33,0.084,0.345,1.43,0,1.445h-4.178
		c-0.419-0.016-0.419-1.338,0-1.461c0.297-0.049,0.669-0.072,0.921-0.268c0.077-0.07,0.109-0.133,0.146-0.229
		c0.114-0.336,0.122-0.705,0.125-1.053c0-3.797-0.003-7.593-0.003-11.39c-0.008-0.104-0.023-0.305-0.117-0.369
		c-0.063-0.038-0.129-0.061-0.201-0.079c-0.299-0.082-0.617-0.104-0.924-0.139c-0.366-0.03-0.419-1.464,0-1.492h3.743
		c0.571,0,0.795,0.274,0.973,0.681l3.355,7.68c0-1.827-0.003-3.652-0.003-5.479c-0.007-0.309-0.02-0.626-0.117-0.919
		c-0.063-0.153-0.127-0.22-0.275-0.3c-0.252-0.115-0.528-0.146-0.798-0.193c-0.296-0.004-0.363-1.465,0-1.469h4.176
		c0.295,0.021,0.278,1.482,0,1.469c-0.312,0.055-0.724,0.084-0.974,0.308c-0.08,0.077-0.108,0.151-0.148,0.255
		c-0.08,0.276-0.096,0.563-0.101,0.852v12.995c0,0.287,0.101,0.873-0.317,0.867h-1.233c-0.403,0.006-0.526-0.408-0.615-0.615
		C91.542,14.395,89.992,10.854,88.437,7.312"/>
	<path fill-rule="evenodd" clip-rule="evenodd" fill="#BF3138" d="M84.825,10.048c-0.009,1.852-0.316,3.752-1.17,5.411
		c-0.842,1.658-2.292,3.258-4.311,3.08c-2.336-0.207-3.78-2.705-4.388-4.715c-0.583-1.951-0.652-4.125-0.324-6.124
		c0.302-1.859,1.098-3.87,2.521-5.15c1.42-1.278,3.445-1.316,4.888-0.068c0.57,0.489,1.031,1.112,1.414,1.759
		C84.466,5.974,84.828,8.065,84.825,10.048 M79.643,3.088c-0.758-0.004-0.978,1.211-1.07,1.759c-0.161,1.003-0.205,2.03-0.24,3.048
		c-0.049,1.712-0.049,3.433,0.036,5.14c0.041,0.803,0.095,1.611,0.25,2.396c0.091,0.471,0.229,0.996,0.575,1.348
		c0.276,0.281,0.709,0.232,0.952-0.063c0.347-0.42,0.468-0.982,0.557-1.506c0.172-1.059,0.22-2.137,0.249-3.205
		c0.047-1.709,0.04-3.432-0.051-5.139c-0.043-0.787-0.097-1.578-0.262-2.351C80.536,4.023,80.293,3.094,79.643,3.088"/>
	<path fill-rule="evenodd" clip-rule="evenodd" fill="#BF3138" d="M68.181,18.287h-2.859c-0.276,0.01-0.294-1.469,0-1.482
		c0.24-0.027,0.48-0.039,0.713-0.094c0.109-0.033,0.206-0.066,0.262-0.172c0.094-0.223,0.102-0.494,0.11-0.732V3.657
		c-0.946,1.068-1.226,2.429-1.454,3.798c-0.029,0.17-0.037,0.437-0.272,0.437c-0.411,0-0.508,0-0.923-0.001
		c-0.303,0-0.322-0.286-0.307-0.555c0.069-1.642,0.103-3.145,0.096-4.815c0-0.156-0.081-0.712,0.282-0.712h4.352h4.35
		c0.366,0,0.284,0.556,0.284,0.712c-0.007,1.671,0.031,3.174,0.099,4.815c0.01,0.269-0.006,0.555-0.307,0.555
		c-0.42,0.001-0.517,0.001-0.928,0.001c-0.231,0-0.245-0.267-0.271-0.437c-0.229-1.369-0.507-2.729-1.452-3.798v12.15
		c0.007,0.238,0.012,0.51,0.112,0.732c0.052,0.105,0.15,0.139,0.259,0.172c0.233,0.055,0.474,0.066,0.714,0.094
		c0.293,0.014,0.275,1.492,0,1.482H68.181z"/>
	<path fill-rule="evenodd" clip-rule="evenodd" fill="#BF3138" d="M56.813,19.012c-2.692,0-4.842-2.09-4.842-4.324
		c0-1.377,1.052-3.242,2.758-3.32c1.077-0.05,1.96,0.771,1.96,1.714c0,0.596-0.329,1.201-1.099,1.645
		c-0.653,0.375-1.035,1.02-0.854,1.66c0.588,2.094,3.736,1.992,4.844-0.064c0.731-1.357-0.678-2.783-1.621-3.715
		c-0.963-0.951-2.049-1.824-3.014-2.767c-0.652-0.646-1.168-1.268-1.553-2.08c-0.552-1.217-0.644-2.578-0.149-3.826
		c0.564-1.279,1.677-2.306,3.226-2.518c0.925-0.098,1.58,0.119,2.411,0.453c0.176,0.069,0.394,0.166,0.579,0.188
		c0.368-0.011,0.535-0.014,0.691-0.265c0.064-0.181,1.386-0.258,1.449,0c0.048,0.197-0.08,3.718,0,5.807
		c0.006,0.182-0.021,0.286-0.274,0.297h-1.192c-0.253-0.011-0.284-0.189-0.306-0.304c-0.243-1.314-0.86-4.005-2.339-4.544
		c-0.433-0.155-0.947-0.158-1.258,0.082c-0.896,0.699-0.427,1.769,0.102,2.445c0.637,0.799,1.396,1.514,2.177,2.195
		c0.686,0.601,1.368,1.185,1.995,1.843c0.754,0.8,1.327,1.6,1.679,2.614c0.343,1.063,0.406,2.219,0.109,3.301
		C61.578,17.941,59.362,19.016,56.813,19.012"/>
</g>
</svg>
