<?xml version="1.0" encoding="utf-8"?>
<!-- Generator: Adobe Illustrator 16.0.0, SVG Export Plug-In . SVG Version: 6.00 Build 0)  -->
<!DOCTYPE svg PUBLIC "-//W3C//DTD SVG 1.1//EN" "http://www.w3.org/Graphics/SVG/1.1/DTD/svg11.dtd">
<svg version="1.1" id="Layer_1" xmlns="http://www.w3.org/2000/svg" xmlns:xlink="http://www.w3.org/1999/xlink" x="0px" y="0px"
	 width="123.938px" height="24.465px" viewBox="0 0 123.938 24.465" enable-background="new 0 0 123.938 24.465"
	 xml:space="preserve">
<g>
	<path fill="#231F20" d="M10.134,9.951l2.18-7.749h1.782l-3.067,10.313H9.23l-2.183-7.89l-2.203,7.89h-1.76L0,2.202h1.781
		l2.204,7.749l2.182-7.749h1.784L10.134,9.951z M25.169,7.387c0,2.965-2.244,5.367-5.184,5.367c-2.925,0-5.188-2.402-5.188-5.367
		c0-2.997,2.264-5.442,5.188-5.442C22.925,1.944,25.169,4.39,25.169,7.387 M23.467,7.387c0-2.142-1.562-3.883-3.481-3.883
		c-1.904,0-3.467,1.741-3.467,3.883c0,2.107,1.563,3.803,3.467,3.803C21.905,11.189,23.467,9.494,23.467,7.387 M40.927,12.515
		h-1.704v-6.67c0-1.341-0.858-2.341-2.241-2.341c-1.341,0-2.241,1-2.241,2.341v6.67h-1.683v-6.67c0-1.341-0.883-2.341-2.242-2.341
		c-1.362,0-2.242,1-2.242,2.341v6.67h-1.701V5.908c0-2.244,1.619-3.964,3.943-3.964c1.403,0,2.48,0.659,3.084,1.699
		c0.621-1.04,1.68-1.699,3.082-1.699c2.343,0,3.945,1.72,3.945,3.964V12.515z M52.838,9.311c-0.719,2.201-2.481,3.443-4.864,3.443
		c-2.963,0-5.285-2.361-5.285-5.386c0-2.979,2.322-5.424,5.185-5.424c2.664,0,5.227,2.201,5.207,5.862h-8.67
		c0.221,2.145,1.863,3.403,3.563,3.403c1.461,0,2.505-0.698,3.063-1.899H52.838z M51.198,6.288
		c-0.418-1.683-1.822-2.804-3.325-2.804c-1.42,0-2.922,1.039-3.363,2.804H51.198z M56.604,12.515h-1.679V6.247
		c0-2.604,1.838-4.303,4.301-4.303c2.465,0,4.284,1.699,4.284,4.303v6.268h-1.683V6.188c0-1.544-1.021-2.661-2.602-2.661
		c-1.601,0-2.622,1.117-2.622,2.661V12.515z M73.381,12.776c-2.504,0-4.323-1.345-4.604-3.525h1.723
		c0.22,1.199,1.402,1.938,2.882,1.938c1.604,0,2.583-0.779,2.583-1.678c0-0.721-0.28-1.265-2.801-1.601
		c-2.505-0.362-4.025-0.962-4.025-2.903c0-1.481,1.281-3.063,4.044-3.063c2.382,0,3.986,1.201,4.204,3.223h-1.721
		c-0.24-1.103-1.223-1.663-2.483-1.663c-1.361,0-2.341,0.642-2.341,1.441c0,0.742,0.579,1.002,2.602,1.324
		c2.28,0.356,4.164,0.796,4.164,3.144C77.606,11.473,75.845,12.776,73.381,12.776 M89.262,9.311
		c-0.723,2.201-2.485,3.443-4.866,3.443c-2.964,0-5.287-2.361-5.287-5.386c0-2.979,2.323-5.424,5.187-5.424
		c2.664,0,5.227,2.201,5.185,5.862h-8.648c0.22,2.145,1.861,3.403,3.564,3.403c1.459,0,2.503-0.698,3.061-1.899H89.262z
		 M87.617,6.288c-0.418-1.683-1.82-2.804-3.322-2.804c-1.422,0-2.925,1.039-3.365,2.804H87.617z M96.129,12.754
		c-2.845,0-5.165-2.402-5.165-5.386c0-2.979,2.32-5.424,5.165-5.424c2.301,0,4.103,1.36,4.805,3.441H99.11
		c-0.58-1.121-1.641-1.882-2.981-1.882c-1.903,0-3.464,1.741-3.464,3.864c0,2.126,1.561,3.821,3.464,3.821
		c1.362,0,2.422-0.757,2.981-1.879h1.823C100.253,11.395,98.43,12.754,96.129,12.754 M107.238,2.001v1.58
		c-1.981-0.177-3.243,0.783-3.243,2.767v6.167h-1.68V6.388C102.315,3.263,104.535,1.684,107.238,2.001 M117.692,9.311
		c-0.721,2.201-2.481,3.443-4.866,3.443c-2.963,0-5.287-2.361-5.287-5.386c0-2.979,2.324-5.424,5.188-5.424
		c2.661,0,5.224,2.201,5.205,5.862h-8.671c0.22,2.145,1.863,3.403,3.564,3.403c1.462,0,2.502-0.698,3.063-1.899H117.692z
		 M116.048,6.288c-0.42-1.683-1.821-2.804-3.32-2.804c-1.424,0-2.926,1.039-3.365,2.804H116.048z M123.938,12.515
		c-2.402,0.276-4.064-1.145-4.064-3.766V0h1.683v2.202h2.341v1.622h-2.341v4.925c0,1.823,1.101,2.283,2.382,2.202V12.515z M65.396,0
		h1.681v3.825h-1.681V0z"/>
	<path fill="#231F20" d="M22.099,21.151c0,0.328-0.104,0.586-0.311,0.774c-0.207,0.189-0.473,0.284-0.797,0.284h-1.066v1.553h-0.279
		v-3.669h1.346c0.163,0,0.312,0.022,0.444,0.068c0.134,0.047,0.25,0.115,0.349,0.206s0.176,0.203,0.231,0.337
		C22.071,20.84,22.099,20.988,22.099,21.151 M21.819,21.15c0-0.269-0.077-0.471-0.232-0.606s-0.364-0.204-0.627-0.204h-1.035v1.618
		h1.035c0.261,0,0.47-0.067,0.626-0.202C21.741,21.621,21.819,21.419,21.819,21.15"/>
	<path fill="#231F20" d="M25.823,23.763h-0.325l-0.875-1.691h-1.011v1.691h-0.278v-3.669h1.397c0.203,0,0.384,0.038,0.542,0.114
		s0.283,0.188,0.374,0.337c0.09,0.148,0.136,0.326,0.136,0.532c0,0.269-0.075,0.489-0.226,0.662s-0.356,0.282-0.62,0.327
		L25.823,23.763z M25.504,21.082c0-0.243-0.074-0.428-0.221-0.553c-0.146-0.126-0.343-0.189-0.587-0.189h-1.084v1.485h1.084
		c0.119,0,0.228-0.016,0.327-0.047c0.099-0.031,0.184-0.077,0.253-0.138c0.071-0.06,0.127-0.137,0.166-0.231
		C25.482,21.315,25.504,21.207,25.504,21.082"/>
	<polygon fill="#231F20" points="29.387,23.763 27.16,23.763 27.16,20.094 29.387,20.094 29.387,20.34 27.439,20.34 27.439,21.79 
		29.098,21.79 29.098,22.036 27.439,22.036 27.439,23.516 29.387,23.516 	"/>
	<polygon fill="#231F20" points="32.736,20.34 31.64,20.34 31.64,23.763 31.36,23.763 31.36,20.34 30.268,20.34 30.268,20.094 
		32.736,20.094 	"/>
	<polygon fill="#231F20" points="35.953,20.34 34.855,20.34 34.855,23.763 34.576,23.763 34.576,20.34 33.484,20.34 33.484,20.094 
		35.953,20.094 	"/>
	<polygon fill="#231F20" points="39.041,20.094 37.959,22.243 37.959,23.763 37.68,23.763 37.68,22.243 36.597,20.094 
		36.896,20.094 37.829,21.947 38.741,20.094 	"/>
	<polygon fill="#231F20" points="40.372,24.112 40.022,24.465 40.022,23.413 40.372,23.413 	"/>
	<path fill="#231F20" d="M45.977,22.721c-0.04,0.222-0.117,0.412-0.231,0.573c-0.114,0.162-0.259,0.285-0.434,0.37
		c-0.176,0.086-0.369,0.129-0.58,0.129c-0.175,0-0.342-0.033-0.501-0.099s-0.299-0.157-0.418-0.276
		c-0.108-0.109-0.187-0.225-0.233-0.345c-0.048-0.121-0.076-0.259-0.089-0.415c-0.012-0.156-0.018-0.399-0.018-0.73
		c0-0.33,0.006-0.573,0.018-0.729c0.013-0.156,0.041-0.294,0.089-0.414c0.047-0.122,0.125-0.237,0.233-0.346
		c0.119-0.119,0.258-0.212,0.417-0.277c0.158-0.065,0.325-0.098,0.502-0.098c0.215,0,0.409,0.043,0.584,0.128
		c0.174,0.086,0.318,0.209,0.432,0.369c0.112,0.16,0.189,0.352,0.229,0.575h-0.281c-0.054-0.256-0.167-0.457-0.339-0.604
		s-0.38-0.222-0.625-0.222c-0.131,0-0.256,0.023-0.376,0.071c-0.12,0.047-0.228,0.117-0.321,0.211
		c-0.065,0.066-0.116,0.133-0.152,0.204s-0.064,0.159-0.084,0.267c-0.021,0.107-0.033,0.229-0.038,0.367s-0.008,0.304-0.008,0.498
		c0,0.291,0.007,0.512,0.018,0.663c0.012,0.152,0.038,0.28,0.078,0.387c0.041,0.105,0.103,0.2,0.187,0.284
		c0.092,0.093,0.199,0.163,0.319,0.211c0.121,0.049,0.247,0.073,0.378,0.073c0.162,0,0.311-0.033,0.444-0.1
		c0.133-0.065,0.246-0.162,0.34-0.288c0.093-0.128,0.156-0.273,0.189-0.438H45.977z"/>
	<path fill="#231F20" d="M49.744,21.928c0,0.331-0.007,0.574-0.018,0.729c-0.012,0.158-0.041,0.296-0.088,0.417
		s-0.125,0.235-0.235,0.345c-0.118,0.119-0.257,0.211-0.416,0.276c-0.157,0.065-0.324,0.099-0.5,0.099
		c-0.173,0-0.34-0.033-0.5-0.099c-0.159-0.065-0.298-0.157-0.418-0.276c-0.108-0.109-0.187-0.224-0.233-0.345
		s-0.076-0.259-0.088-0.417c-0.013-0.154-0.018-0.397-0.018-0.729c0-0.33,0.005-0.573,0.018-0.729
		c0.012-0.156,0.041-0.295,0.088-0.415c0.047-0.121,0.125-0.235,0.233-0.345c0.12-0.119,0.259-0.212,0.416-0.277
		c0.159-0.065,0.327-0.098,0.502-0.098c0.178,0,0.345,0.032,0.502,0.098c0.158,0.065,0.296,0.158,0.414,0.277
		c0.11,0.109,0.188,0.224,0.235,0.345c0.047,0.12,0.076,0.259,0.088,0.415C49.737,21.354,49.744,21.598,49.744,21.928
		 M49.465,21.928c0-0.29-0.006-0.512-0.018-0.664s-0.038-0.281-0.077-0.387c-0.041-0.104-0.104-0.2-0.188-0.285
		c-0.095-0.094-0.2-0.164-0.319-0.211c-0.117-0.048-0.242-0.071-0.375-0.071c-0.131,0-0.256,0.023-0.377,0.071
		c-0.119,0.047-0.226,0.117-0.319,0.211c-0.065,0.064-0.116,0.133-0.152,0.204c-0.035,0.069-0.063,0.159-0.084,0.267
		c-0.02,0.107-0.032,0.229-0.037,0.367c-0.006,0.138-0.008,0.304-0.008,0.498c0,0.291,0.006,0.512,0.019,0.663
		c0.011,0.152,0.037,0.28,0.077,0.387c0.04,0.105,0.102,0.2,0.186,0.284c0.092,0.093,0.199,0.163,0.319,0.211
		c0.12,0.049,0.246,0.073,0.377,0.073c0.133,0,0.258-0.024,0.377-0.073c0.119-0.048,0.225-0.118,0.317-0.211
		c0.087-0.087,0.149-0.183,0.188-0.287c0.04-0.104,0.065-0.231,0.077-0.384C49.459,22.439,49.465,22.219,49.465,21.928"/>
	<polygon fill="#231F20" points="54.254,23.763 53.975,23.763 53.975,20.737 52.862,23.247 52.583,23.247 51.451,20.737 
		51.451,23.763 51.172,23.763 51.172,20.094 51.451,20.094 52.729,22.922 53.975,20.094 54.254,20.094 	"/>
	<polygon fill="#231F20" points="58.052,20.34 56.104,20.34 56.104,21.85 57.762,21.85 57.762,22.097 56.104,22.097 56.104,23.763 
		55.823,23.763 55.823,20.094 58.052,20.094 	"/>
	<path fill="#231F20" d="M61.603,21.928c0,0.331-0.006,0.574-0.018,0.729c-0.012,0.158-0.041,0.296-0.088,0.417
		s-0.125,0.235-0.234,0.345c-0.119,0.119-0.258,0.211-0.416,0.276s-0.325,0.099-0.5,0.099c-0.174,0-0.341-0.033-0.5-0.099
		c-0.16-0.065-0.299-0.157-0.418-0.276c-0.109-0.109-0.188-0.224-0.234-0.345s-0.076-0.259-0.088-0.417
		c-0.012-0.154-0.018-0.397-0.018-0.729c0-0.33,0.006-0.573,0.018-0.729s0.041-0.295,0.088-0.415
		c0.047-0.121,0.125-0.235,0.234-0.345c0.119-0.119,0.258-0.212,0.416-0.277s0.326-0.098,0.502-0.098
		c0.177,0,0.344,0.032,0.501,0.098c0.158,0.065,0.296,0.158,0.415,0.277c0.109,0.109,0.188,0.224,0.234,0.345
		c0.047,0.12,0.076,0.259,0.088,0.415S61.603,21.598,61.603,21.928 M61.323,21.928c0-0.29-0.006-0.512-0.018-0.664
		s-0.038-0.281-0.077-0.387c-0.041-0.104-0.104-0.2-0.188-0.285c-0.095-0.094-0.2-0.164-0.318-0.211
		c-0.118-0.048-0.243-0.071-0.377-0.071c-0.13,0-0.255,0.023-0.375,0.071c-0.12,0.047-0.227,0.117-0.32,0.211
		c-0.065,0.064-0.116,0.133-0.151,0.204c-0.036,0.069-0.064,0.159-0.085,0.267c-0.02,0.107-0.032,0.229-0.037,0.367
		c-0.006,0.138-0.008,0.304-0.008,0.498c0,0.291,0.006,0.512,0.018,0.663c0.012,0.152,0.038,0.28,0.078,0.387
		c0.04,0.105,0.102,0.2,0.186,0.284c0.093,0.093,0.199,0.163,0.32,0.211c0.119,0.049,0.245,0.073,0.375,0.073
		c0.134,0,0.259-0.024,0.378-0.073c0.119-0.048,0.225-0.118,0.317-0.211c0.087-0.087,0.15-0.183,0.188-0.287
		c0.04-0.104,0.065-0.231,0.077-0.384C61.317,22.439,61.323,22.219,61.323,21.928"/>
	<path fill="#231F20" d="M65.519,23.763h-0.325l-0.875-1.691h-1.01v1.691h-0.279v-3.669h1.397c0.203,0,0.384,0.038,0.543,0.114
		c0.157,0.076,0.282,0.188,0.372,0.337c0.091,0.148,0.137,0.326,0.137,0.532c0,0.269-0.075,0.489-0.226,0.662
		s-0.356,0.282-0.62,0.327L65.519,23.763z M65.199,21.082c0-0.243-0.074-0.428-0.221-0.553c-0.146-0.126-0.343-0.189-0.587-0.189
		h-1.083v1.485h1.083c0.119,0,0.228-0.016,0.326-0.047c0.1-0.031,0.185-0.077,0.255-0.138c0.07-0.06,0.125-0.137,0.166-0.231
		C65.179,21.315,65.199,21.207,65.199,21.082"/>
	<polygon fill="#231F20" points="68.911,20.34 67.813,20.34 67.813,23.763 67.534,23.763 67.534,20.34 66.442,20.34 66.442,20.094 
		68.911,20.094 	"/>
	<path fill="#231F20" d="M72.529,23.763H72.23l-0.319-0.889h-1.712l-0.316,0.889h-0.3l1.348-3.669h0.25L72.529,23.763z
		 M71.825,22.622l-0.771-2.159l-0.766,2.159H71.825z"/>
	<path fill="#231F20" d="M76.081,22.764c0,0.32-0.097,0.567-0.289,0.739c-0.193,0.173-0.456,0.26-0.788,0.26h-1.392v-3.669h1.352
		c0.206,0,0.39,0.038,0.55,0.114s0.285,0.188,0.376,0.334c0.091,0.146,0.136,0.316,0.136,0.511c0,0.193-0.051,0.363-0.153,0.511
		c-0.102,0.148-0.242,0.252-0.42,0.313c0.201,0.069,0.356,0.181,0.466,0.336C76.026,22.367,76.081,22.552,76.081,22.764
		 M75.746,21.052c0-0.16-0.035-0.295-0.106-0.4c-0.071-0.107-0.169-0.186-0.291-0.236c-0.122-0.05-0.261-0.075-0.415-0.075h-1.042
		v1.422h1.042c0.238,0,0.433-0.06,0.585-0.177C75.67,21.466,75.746,21.289,75.746,21.052 M75.802,22.765
		c0-0.156-0.034-0.29-0.102-0.401c-0.068-0.112-0.164-0.199-0.288-0.26c-0.124-0.06-0.271-0.09-0.439-0.09h-1.081v1.502h1.081
		c0.169,0,0.315-0.03,0.439-0.09c0.124-0.061,0.22-0.147,0.288-0.261C75.768,23.053,75.802,22.919,75.802,22.765"/>
	<polygon fill="#231F20" points="79.735,23.763 77.507,23.763 77.507,20.094 77.788,20.094 77.788,23.516 79.735,23.516 	"/>
	<polygon fill="#231F20" points="83.12,23.763 80.892,23.763 80.892,20.094 83.12,20.094 83.12,20.34 81.173,20.34 81.173,21.79 
		82.831,21.79 82.831,22.036 81.173,22.036 81.173,23.516 83.12,23.516 	"/>
	<path fill="#231F20" d="M89.012,23.763h-0.357l-0.355-0.433c-0.32,0.309-0.695,0.463-1.127,0.463c-0.218,0-0.414-0.044-0.589-0.131
		s-0.311-0.211-0.406-0.37c-0.097-0.159-0.145-0.341-0.145-0.544c0-0.181,0.037-0.339,0.112-0.474
		c0.076-0.135,0.168-0.248,0.276-0.338s0.259-0.2,0.451-0.328c-0.078-0.093-0.147-0.18-0.207-0.262
		c-0.058-0.082-0.106-0.171-0.144-0.265c-0.038-0.094-0.057-0.189-0.057-0.289c0-0.204,0.072-0.378,0.218-0.519
		c0.145-0.141,0.321-0.211,0.529-0.211c0.137,0,0.261,0.032,0.375,0.097s0.205,0.153,0.271,0.267
		c0.067,0.113,0.102,0.237,0.102,0.371c0,0.252-0.142,0.473-0.423,0.662c0.008,0-0.083,0.062-0.272,0.184l1.05,1.273
		c0.058-0.091,0.103-0.175,0.132-0.253s0.051-0.166,0.064-0.265c0.013-0.098,0.021-0.229,0.021-0.394h0.274
		c0,0.483-0.107,0.854-0.32,1.117L89.012,23.763z M88.146,23.139l-1.114-1.344c-0.178,0.122-0.31,0.218-0.395,0.285
		c-0.084,0.068-0.16,0.156-0.227,0.267c-0.065,0.11-0.099,0.238-0.099,0.384c0,0.242,0.079,0.438,0.239,0.588
		c0.159,0.152,0.363,0.228,0.616,0.228c0.162,0,0.322-0.029,0.479-0.088C87.803,23.399,87.97,23.293,88.146,23.139 M87.686,20.798
		c0-0.141-0.045-0.258-0.135-0.35s-0.202-0.139-0.339-0.139c-0.131,0-0.241,0.046-0.332,0.135c-0.091,0.092-0.136,0.205-0.136,0.339
		c0,0.09,0.024,0.183,0.074,0.275s0.145,0.227,0.286,0.401c0.017-0.012,0.044-0.03,0.081-0.058c0.038-0.025,0.066-0.045,0.086-0.059
		c0.018-0.013,0.034-0.022,0.044-0.03c0.121-0.081,0.213-0.162,0.275-0.237C87.653,21,87.686,20.907,87.686,20.798"/>
	<path fill="#231F20" d="M94.354,22.778c0,0.151-0.028,0.29-0.084,0.417c-0.057,0.127-0.138,0.233-0.244,0.321
		c-0.107,0.089-0.238,0.156-0.393,0.204c-0.155,0.048-0.327,0.072-0.515,0.072c-0.175,0-0.334-0.017-0.479-0.051
		c-0.145-0.033-0.276-0.086-0.397-0.158s-0.236-0.164-0.348-0.274l0.196-0.196c0.11,0.11,0.218,0.197,0.319,0.261
		c0.103,0.063,0.212,0.106,0.329,0.133s0.248,0.039,0.393,0.039c0.192,0,0.359-0.03,0.5-0.089c0.141-0.06,0.249-0.147,0.325-0.262
		c0.078-0.115,0.117-0.25,0.117-0.407c0-0.224-0.067-0.396-0.201-0.516c-0.062-0.054-0.131-0.094-0.207-0.122
		c-0.074-0.027-0.183-0.052-0.323-0.074l-0.427-0.065c-0.278-0.042-0.496-0.132-0.654-0.27c-0.192-0.16-0.289-0.386-0.289-0.674
		c0-0.154,0.027-0.294,0.082-0.419s0.13-0.231,0.228-0.317s0.218-0.152,0.359-0.199c0.143-0.045,0.3-0.068,0.471-0.068
		c0.222,0,0.415,0.031,0.576,0.094c0.16,0.063,0.32,0.163,0.479,0.301l-0.182,0.182c-0.129-0.116-0.26-0.201-0.391-0.258
		c-0.132-0.055-0.298-0.083-0.499-0.083c-0.265,0-0.472,0.068-0.623,0.204c-0.151,0.137-0.227,0.321-0.227,0.555
		c0,0.213,0.063,0.372,0.188,0.479c0.069,0.056,0.153,0.103,0.253,0.144c0.1,0.042,0.198,0.069,0.295,0.082l0.395,0.063
		c0.17,0.024,0.303,0.055,0.398,0.09c0.096,0.036,0.181,0.086,0.257,0.151c0.104,0.086,0.184,0.189,0.238,0.311
		C94.327,22.499,94.354,22.632,94.354,22.778"/>
	<polygon fill="#231F20" points="97.891,23.763 95.663,23.763 95.663,20.094 97.891,20.094 97.891,20.34 95.942,20.34 95.942,21.79 
		97.601,21.79 97.601,22.036 95.942,22.036 95.942,23.516 97.891,23.516 	"/>
	<polygon fill="#231F20" points="101.268,23.763 100.943,23.763 99.984,22.13 99.025,23.763 98.711,23.763 99.833,21.88 
		98.784,20.094 99.108,20.094 99.984,21.634 100.865,20.094 101.185,20.094 100.133,21.88 	"/>
	<polygon fill="#231F20" points="104.293,20.094 103.211,22.243 103.211,23.763 102.932,23.763 102.932,22.243 101.85,20.094 
		102.147,20.094 103.081,21.947 103.993,20.094 	"/>
</g>
</svg>
