<?xml version="1.0" encoding="utf-8"?>
<!-- Generator: Adobe Illustrator 16.0.0, SVG Export Plug-In . SVG Version: 6.00 Build 0)  -->
<!DOCTYPE svg PUBLIC "-//W3C//DTD SVG 1.1//EN" "http://www.w3.org/Graphics/SVG/1.1/DTD/svg11.dtd">
<svg version="1.1" id="Layer_1" xmlns="http://www.w3.org/2000/svg" xmlns:xlink="http://www.w3.org/1999/xlink" x="0px" y="0px"
	 width="84.44px" height="66.521px" viewBox="0 0 84.44 66.521" enable-background="new 0 0 84.44 66.521" xml:space="preserve">
<g>
	<path fill="#231F20" d="M44.639,65.401c0-0.285,0.149-0.584,0.333-0.751c0.041-0.037,0.043-0.099,0.006-0.139
		c-0.144-0.155-0.256-0.387-0.256-0.636c0-0.631,0.316-1.048,1.025-1.048c0.365,0,0.595,0.029,0.872,0.074
		c0.054,0.009,0.093,0.055,0.093,0.106v0.463c0,0.068-0.062,0.119-0.129,0.107c-0.205-0.037-0.436-0.078-0.735-0.078
		c-0.304,0-0.417,0.186-0.417,0.388c0,0.214,0.107,0.375,0.339,0.375h0.714c0.06,0,0.109,0.049,0.109,0.108v0.456
		c0,0.06-0.049,0.108-0.109,0.108H45.77c-0.256,0-0.417,0.203-0.417,0.453c0,0.262,0.132,0.458,0.495,0.458
		c0.318,0,0.584-0.036,0.794-0.075c0.068-0.014,0.129,0.039,0.129,0.107v0.456c0,0.055-0.04,0.101-0.094,0.108
		c-0.229,0.031-0.518,0.076-0.93,0.076C45.014,66.521,44.639,66.086,44.639,65.401"/>
	<path fill="#231F20" d="M12.678,66.461h-0.42c-0.081,0-0.147-0.065-0.147-0.146v-3.279c0-0.082,0.066-0.147,0.147-0.147h1.498
		c0.081,0,0.147,0.065,0.147,0.147v0.378c0,0.082-0.066,0.147-0.147,0.147h-0.784c-0.081,0-0.147,0.066-0.147,0.147v0.408
		c0,0.081,0.066,0.147,0.147,0.147h0.725c0.081,0,0.147,0.065,0.147,0.147v0.378c0,0.082-0.066,0.147-0.147,0.147h-0.725
		c-0.081,0-0.147,0.066-0.147,0.147v1.23C12.825,66.396,12.76,66.461,12.678,66.461"/>
	<path fill="#231F20" d="M16.638,65.874v0.502c0,0.047-0.039,0.085-0.085,0.085h-1.622c-0.047,0-0.086-0.038-0.086-0.085v-3.402
		c0-0.048,0.039-0.086,0.086-0.086h0.543c0.048,0,0.086,0.038,0.086,0.086v2.729c0,0.047,0.038,0.085,0.085,0.085h0.908
		C16.599,65.788,16.638,65.826,16.638,65.874"/>
	<path fill="#231F20" d="M18.905,65.085l-0.292-1.075c-0.01-0.034-0.057-0.034-0.066,0l-0.292,1.075
		c-0.008,0.027,0.013,0.055,0.041,0.055h0.568C18.891,65.14,18.912,65.112,18.905,65.085 M18.032,65.898L17.9,66.375
		c-0.014,0.051-0.059,0.085-0.113,0.085h-0.448c-0.077,0-0.133-0.072-0.113-0.146l0.898-3.284c0.023-0.084,0.099-0.142,0.186-0.142
		h0.539c0.087,0,0.163,0.058,0.186,0.142l0.898,3.284c0.02,0.074-0.036,0.146-0.113,0.146h-0.448c-0.053,0-0.099-0.034-0.113-0.085
		l-0.132-0.477c-0.013-0.051-0.06-0.086-0.113-0.086h-0.869C18.092,65.813,18.046,65.848,18.032,65.898"/>
	<path fill="#231F20" d="M21.098,66.461h-0.283c-0.1,0-0.179-0.085-0.17-0.187l0.283-3.264c0.005-0.07,0.064-0.123,0.134-0.123
		h0.363c0.055,0,0.105,0.033,0.125,0.085l0.528,1.332c0.036,0.09,0.163,0.09,0.199,0l0.528-1.332
		c0.02-0.052,0.069-0.085,0.125-0.085h0.363c0.07,0,0.128,0.053,0.134,0.123l0.284,3.285c0.008,0.089-0.062,0.165-0.152,0.165H23.24
		c-0.079,0-0.145-0.061-0.152-0.139l-0.167-1.854c-0.003-0.032-0.047-0.039-0.059-0.009l-0.451,1.121
		c-0.026,0.064-0.089,0.106-0.159,0.106h-0.15c-0.07,0-0.132-0.042-0.159-0.106l-0.45-1.121c-0.013-0.03-0.057-0.023-0.06,0.009
		l-0.165,1.838C21.26,66.395,21.186,66.461,21.098,66.461"/>
	<path fill="#231F20" d="M24.577,65.401c0-0.285,0.149-0.584,0.333-0.751c0.041-0.037,0.044-0.099,0.006-0.139
		c-0.143-0.155-0.256-0.387-0.256-0.636c0-0.631,0.316-1.048,1.025-1.048c0.366,0,0.595,0.029,0.873,0.074
		c0.053,0.009,0.092,0.055,0.092,0.106v0.463c0,0.068-0.062,0.119-0.129,0.107c-0.205-0.037-0.436-0.078-0.735-0.078
		c-0.304,0-0.417,0.186-0.417,0.388c0,0.214,0.107,0.375,0.339,0.375h0.714c0.06,0,0.109,0.049,0.109,0.108v0.456
		c0,0.06-0.049,0.108-0.109,0.108h-0.714c-0.256,0-0.416,0.203-0.416,0.453c0,0.262,0.131,0.458,0.494,0.458
		c0.318,0,0.584-0.036,0.795-0.075c0.067-0.014,0.128,0.039,0.128,0.107v0.456c0,0.055-0.039,0.101-0.093,0.108
		c-0.23,0.031-0.519,0.076-0.931,0.076C24.952,66.521,24.577,66.086,24.577,65.401"/>
	<path fill="#231F20" d="M27.764,65.237v-0.356c0-0.088,0.071-0.159,0.158-0.159h1.232c0.088,0,0.159,0.071,0.159,0.159v0.356
		c0,0.087-0.071,0.158-0.159,0.158h-1.232C27.835,65.396,27.764,65.324,27.764,65.237"/>
	<path fill="#231F20" d="M30.444,64.675c0-1.096,0.399-1.847,1.31-1.847c0.392,0,0.652,0.108,0.822,0.183
		c0.036,0.016,0.059,0.052,0.059,0.091v0.466c0,0.073-0.077,0.121-0.143,0.087c-0.156-0.079-0.351-0.153-0.607-0.153
		c-0.589,0-0.727,0.524-0.727,1.174c0,0.661,0.078,1.173,0.668,1.173c0.046,0,0.105-0.013,0.158-0.027
		c0.064-0.018,0.109-0.076,0.109-0.144v-0.448c0-0.03-0.024-0.054-0.053-0.054h-0.268c-0.03,0-0.054-0.023-0.054-0.054v-0.556
		c0-0.036,0.029-0.063,0.064-0.063h0.938c0.036,0,0.064,0.027,0.064,0.063v1.624c0,0.057-0.041,0.104-0.098,0.112
		c-0.282,0.038-0.608,0.219-0.992,0.219C30.777,66.521,30.444,65.776,30.444,64.675"/>
	<path fill="#231F20" d="M34.602,64.333c0,0.054,0.043,0.098,0.097,0.098h0.361c0.292,0,0.387-0.209,0.387-0.435
		c0-0.227-0.095-0.436-0.387-0.436h-0.361c-0.054,0-0.097,0.044-0.097,0.098V64.333z M36.426,66.254
		c-0.019,0.088-0.074,0.17-0.158,0.203c-0.088,0.035-0.198,0.063-0.326,0.063c-0.203,0-0.405-0.12-0.483-0.345
		c-0.184-0.548-0.149-1.12-0.619-1.12c-0.048,0-0.09,0.004-0.125,0.011c-0.066,0.013-0.113,0.07-0.113,0.138v1.047
		c0,0.116-0.094,0.21-0.211,0.21h-0.294c-0.116,0-0.21-0.094-0.21-0.21v-3.259c0-0.058,0.047-0.104,0.104-0.104h1.087
		c0.739,0,1.078,0.506,1.078,1.108c0,0.354-0.139,0.694-0.394,0.879c-0.029,0.021-0.037,0.059-0.015,0.087
		c0.121,0.153,0.216,0.41,0.296,0.672c0.054,0.173,0.095,0.328,0.226,0.333C36.373,65.971,36.456,66.104,36.426,66.254"/>
	<path fill="#231F20" d="M38.092,63.081v3.188c0,0.106-0.086,0.192-0.193,0.192H37.57c-0.106,0-0.193-0.086-0.193-0.192v-3.188
		c0-0.107,0.087-0.193,0.193-0.193h0.329C38.006,62.888,38.092,62.974,38.092,63.081"/>
	<path fill="#231F20" d="M41.165,65.926v0.396c0,0.077-0.062,0.139-0.138,0.139H39.51c-0.076,0-0.137-0.062-0.137-0.139v-3.297
		c0-0.077,0.061-0.138,0.137-0.138h0.439c0.077,0,0.138,0.061,0.138,0.138v2.625c0,0.076,0.062,0.138,0.138,0.138h0.802
		C41.103,65.788,41.165,65.85,41.165,65.926"/>
	<path fill="#231F20" d="M43.87,65.944v0.361c0,0.086-0.07,0.155-0.156,0.155h-1.481c-0.086,0-0.156-0.069-0.156-0.155v-3.262
		c0-0.086,0.07-0.156,0.156-0.156h0.403c0.086,0,0.156,0.07,0.156,0.156v2.588c0,0.086,0.07,0.156,0.156,0.156h0.766
		C43.8,65.788,43.87,65.858,43.87,65.944"/>
	<path fill="#231F20" d="M48.468,65.633c0,0.086,0.069,0.155,0.155,0.155c0.577,0,0.821-0.285,0.821-1.113s-0.244-1.114-0.821-1.114
		c-0.086,0-0.155,0.069-0.155,0.155V65.633z M47.753,63.007c0-0.065,0.054-0.119,0.12-0.119h0.774c1.167,0,1.512,0.798,1.512,1.787
		c0,0.988-0.345,1.787-1.512,1.787h-0.774c-0.066,0-0.12-0.054-0.12-0.12V63.007z"/>
	<path fill="#231F20" d="M54.024,63.501c-0.47,0-0.607,0.523-0.607,1.174c0,0.661,0.137,1.173,0.607,1.173
		c0.214,0,0.407-0.071,0.562-0.171c0.043-0.029,0.099,0.001,0.099,0.052v0.519c0,0.04-0.021,0.078-0.056,0.097
		c-0.199,0.104-0.465,0.177-0.736,0.177c-0.846,0-1.191-0.744-1.191-1.846c0-1.096,0.345-1.847,1.191-1.847
		c0.269,0,0.527,0.056,0.739,0.176c0.034,0.019,0.053,0.057,0.053,0.096v0.521c0,0.051-0.056,0.08-0.099,0.052
		C54.429,63.569,54.234,63.501,54.024,63.501"/>
	<path fill="#231F20" d="M56.31,66.461h-0.544c-0.047,0-0.085-0.038-0.085-0.085v-3.402c0-0.048,0.038-0.086,0.085-0.086h0.544
		c0.047,0,0.085,0.038,0.085,0.086v1.205c0,0.047,0.038,0.085,0.085,0.085h0.682c0.047,0,0.085-0.038,0.085-0.085v-1.205
		c0-0.048,0.039-0.086,0.085-0.086h0.544c0.047,0,0.086,0.038,0.086,0.086v3.402c0,0.047-0.039,0.085-0.086,0.085h-0.544
		c-0.046,0-0.085-0.038-0.085-0.085v-1.354c0-0.047-0.038-0.085-0.085-0.085H56.48c-0.047,0-0.085,0.038-0.085,0.085v1.354
		C56.395,66.423,56.357,66.461,56.31,66.461"/>
	<path fill="#231F20" d="M59.957,62.981v3.387c0,0.051-0.042,0.092-0.093,0.092h-0.528c-0.051,0-0.094-0.041-0.094-0.092v-3.387
		c0-0.052,0.043-0.094,0.094-0.094h0.528C59.915,62.888,59.957,62.93,59.957,62.981"/>
	<path fill="#231F20" d="M62.435,63.501c-0.47,0-0.607,0.523-0.607,1.174c0,0.661,0.137,1.173,0.607,1.173
		c0.202,0,0.385-0.063,0.535-0.155c0.056-0.033,0.126,0.007,0.126,0.072v0.498c0,0.031-0.015,0.06-0.043,0.074
		c-0.2,0.105-0.472,0.184-0.749,0.184c-0.846,0-1.191-0.744-1.191-1.846c0-1.096,0.345-1.847,1.191-1.847
		c0.274,0,0.538,0.058,0.752,0.184c0.025,0.015,0.04,0.043,0.04,0.072v0.5c0,0.063-0.07,0.104-0.126,0.071
		C62.817,63.562,62.633,63.501,62.435,63.501"/>
	<path fill="#231F20" d="M66.56,66.148c0.014,0.158-0.107,0.265-0.169,0.292c-0.093,0.042-0.217,0.08-0.364,0.08
		c-0.202,0-0.405-0.119-0.482-0.345c-0.185-0.555-0.179-1.066-0.59-1.066c-0.018,0-0.036,0.002-0.052,0.004
		c-0.056,0.01-0.097,0.058-0.097,0.115v1.139c0,0.052-0.042,0.094-0.094,0.094h-0.527c-0.051,0-0.094-0.042-0.094-0.094V62.96
		c0-0.041,0.033-0.072,0.073-0.072h0.57c0.04,0,0.072,0.031,0.072,0.072v1.345c0,0.029,0.039,0.04,0.054,0.015l0.806-1.396
		c0.014-0.022,0.038-0.036,0.063-0.036h0.637c0.056,0,0.09,0.061,0.062,0.108l-0.937,1.619c0.369,0.214,0.482,0.518,0.637,1.018
		c0.054,0.173,0.096,0.334,0.226,0.334C66.457,65.967,66.547,66,66.56,66.148"/>
	<path fill="#231F20" d="M67.182,65.401c0-0.294,0.158-0.603,0.349-0.765c0.033-0.029,0.036-0.078,0.005-0.11
		c-0.15-0.154-0.271-0.394-0.271-0.65c0-0.631,0.316-1.048,1.025-1.048c0.373,0,0.605,0.03,0.891,0.077
		c0.042,0.007,0.074,0.044,0.074,0.086v0.507c0,0.054-0.05,0.095-0.103,0.086c-0.212-0.039-0.449-0.083-0.761-0.083
		c-0.304,0-0.417,0.186-0.417,0.388c0,0.214,0.107,0.375,0.34,0.375h0.735c0.048,0,0.087,0.038,0.087,0.087v0.499
		c0,0.048-0.039,0.087-0.087,0.087h-0.735c-0.257,0-0.417,0.203-0.417,0.453c0,0.262,0.131,0.458,0.494,0.458
		c0.332,0,0.606-0.039,0.82-0.08c0.054-0.012,0.103,0.029,0.103,0.085v0.502c0,0.044-0.032,0.081-0.075,0.087
		c-0.232,0.031-0.526,0.079-0.949,0.079C67.557,66.521,67.182,66.086,67.182,65.401"/>
	<path fill="#231F20" d="M70.89,66.461h-0.464c-0.057,0-0.104-0.047-0.104-0.104v-3.403c0-0.036,0.029-0.065,0.065-0.065h0.553
		c0.026,0,0.05,0.014,0.06,0.038l0.856,1.86c0.014,0.029,0.062,0.021,0.062-0.014v-1.819c0-0.036,0.029-0.065,0.065-0.065h0.542
		c0.036,0,0.066,0.029,0.066,0.065v3.403c0,0.058-0.047,0.104-0.105,0.104h-0.49c-0.041,0-0.077-0.023-0.094-0.062l-0.846-1.836
		c-0.015-0.031-0.062-0.021-0.062,0.013v1.78C70.994,66.414,70.948,66.461,70.89,66.461"/>
	<path fill="#231F20" d="M84.342,57.193c0,0.411-0.32,0.748-0.746,0.748c-0.423,0-0.741-0.332-0.741-0.744v-0.004
		c0-0.411,0.321-0.748,0.746-0.748c0.422,0,0.741,0.332,0.741,0.743V57.193z M83.601,56.353c-0.472,0-0.844,0.383-0.844,0.841v0.004
		c0,0.458,0.367,0.837,0.839,0.837s0.844-0.383,0.844-0.841v-0.005C84.44,56.73,84.073,56.353,83.601,56.353"/>
	<path fill="#231F20" d="M83.425,57.169v-0.301h0.23c0.117,0,0.186,0.051,0.186,0.149c0,0.093-0.072,0.151-0.185,0.151H83.425z
		 M84.001,57.009c0-0.176-0.127-0.284-0.333-0.284h-0.4v0.896h0.157v-0.313h0.198l0.22,0.313h0.186l-0.242-0.34
		C83.912,57.247,84.001,57.156,84.001,57.009"/>
	<path fill="#231F20" d="M22.958,56.195c-0.524-0.239-0.774-0.756-0.712-1.298c0.059-0.515,0.415-0.916,0.898-1.059
		c0.393-0.117,1.044-0.181,1.608,0.063c0.075,0.032,0.121,0.105,0.126,0.186c0.04,0.565,0.146,1.161,0.353,1.679
		c0.044,0.11-0.011,0.235-0.12,0.281C24.699,56.222,23.733,56.549,22.958,56.195 M20.187,57.704
		c0.472,0.486,1.348,1.009,2.499,1.009c1.825,0,3.36-1.133,3.36-1.133c0.835,0.892,1.757,1.131,2.396,1.131
		c1.327,0,2.316-0.571,2.316-1.403c0-0.357-0.21-0.516-0.568-0.516c-0.316,0-0.516,0.2-1.011,0.2c-0.737,0-0.874-1.759-0.874-3.127
		c0-1.369,0.161-3.52,0.222-4.939c0.157-3.591-2.09-4.776-4.979-4.776c-2.123,0-3.956,1.607-3.956,3.566
		c0,1.306,0.665,2.365,2.125,2.365c0.899,0,1.418-0.646,1.418-1.418s-0.519-1.108-1.053-1.39c-0.533-0.281-0.533-0.628-0.449-0.848
		c0.229-0.597,0.701-1.108,1.617-1.108c0.856,0,2.128,1.022,1.836,4.179c-0.071,0.77-0.112,1.725-0.143,2.073
		c-0.006,0.069-0.073,0.113-0.14,0.094c0,0-0.71-0.234-1.597-0.234c-1.84,0-3.974,1.278-3.974,3.847
		C19.232,56.553,19.738,57.241,20.187,57.704"/>
	<path fill="#231F20" d="M80.283,46.425c0.056,0.228,0.084,0.566-0.45,0.848c-0.533,0.28-1.052,0.617-1.052,1.39
		s0.519,1.418,1.418,1.418c1.459,0,2.125-1.06,2.125-2.365c0-1.843-1.413-3.443-3.756-3.539c-2.388-0.098-4.834,1.487-4.816,4.775
		c0.012,2.139,1.37,3.716,4,5.099c1.482,0.723,2.198,1.186,2.198,2.037c0,0.527-0.27,1.32-1.364,1.32
		c-1.093,0-1.875-0.639-2.01-1.729c-0.057-0.475-0.417-1.052-1.226-1.052c-0.81,0-1.517,0.836-0.986,2.046
		c0.288,0.654,1.255,2.035,4.243,2.035c2.988,0,3.384-2.24,3.451-2.642c0.335-1.996-0.572-3.121-1.796-4.13
		c-1.795-1.48-3.574-2.04-3.871-3.708c-0.335-1.884,0.878-2.885,2.315-2.885C79.632,45.344,80.189,46.041,80.283,46.425"/>
	<path fill="#231F20" d="M57.115,54.81c1.348,0,0.865,3.852-2.863,3.852c-2.529,0-4.078-1.582-4.078-4.973V47.8
		c0-1.362-0.261-1.439-1.451-1.439c-0.491,0-0.915-0.241-0.915-0.947c0-0.505,0.332-0.864,1.061-0.864
		c1.252,0,1.738-0.399,1.895-1.125c0.554-2.544,0.315-5.659,1.737-5.659c1.294,0,1.034,1.933,1.034,5.471
		c0,1.061,0.267,1.284,1.109,1.284h2.2c0.526,0,0.957,0.299,0.957,0.886c0,0.706-0.437,0.96-0.914,0.96l-1.975,0.003
		c-1.211,0-1.305,0.4-1.305,1.081v7.987c0,0.969,0.517,1.348,1.276,1.348C56.358,56.784,55.83,54.81,57.115,54.81"/>
	<path fill="#231F20" d="M32.908,35.855c-0.729,0-1.061,0.393-1.061,0.896c0,0.707,0.426,0.868,0.903,0.984
		c0.245,0.053,0.768,0.077,0.772,0.755c0,1.394,0,17.176,0,17.176c-0.004,0.679-0.527,0.703-0.773,0.756
		c-0.477,0.116-0.902,0.276-0.902,0.982c0,0.505,0.332,0.898,1.061,0.898l4.735-0.002c0.729,0,1.06-0.394,1.06-0.897
		c0-0.707-0.425-0.867-0.902-0.984c-0.246-0.053-0.769-0.076-0.772-0.754c0-0.786,0.002-14.925,0.002-18.914
		c0-0.504-0.332-0.897-1.061-0.897L32.908,35.855z"/>
	<path fill="#231F20" d="M43.242,42.333c1.175,0,2.131-0.956,2.131-2.131c0-1.176-0.956-2.132-2.131-2.132
		c-1.175,0-2.131,0.956-2.131,2.132C41.111,41.377,42.067,42.333,43.242,42.333"/>
	<path fill="#231F20" d="M44.477,44.549c0.729,0,1.061,0.393,1.061,0.896c0,3.558-0.008,10.179-0.008,10.179
		c0.024,0.623,0.285,0.724,0.973,0.834c0.464,0.092,0.766,0.275,0.761,0.876c0,0.725-0.4,0.97-1.293,0.97h-4.567
		c-0.729,0-1.061-0.394-1.061-0.897c0-0.707,0.426-0.867,0.903-0.983c0.246-0.053,0.769-0.077,0.772-0.755l0.011-8.483
		c0-0.774-0.614-0.701-0.85-0.774s-0.825-0.242-0.825-0.965c0-0.72,0.554-0.896,1.249-0.896H44.477"/>
	<path fill="#231F20" d="M14.938,40.924c0-3.118-3.166-3.966-5.262-3.382c-2.444,0.681-5.295,3.628-5.295,9.986
		c0,3.83,2.119,9.25,6.12,9.25c1.453,0,1.398-0.997,1.398-2.935c0-1.405,0.075-1.819-1.467-1.819c-0.477,0-0.913-0.253-0.913-0.959
		c0-0.505,0.332-0.897,1.061-0.897h6.538c0.728,0,1.06,0.393,1.06,0.897c0,0.167,0.17,0.992-1.42,0.992
		c-1.226,0-0.96,0.607-0.96,3.864c0,2.791,0.276,2.78-5.314,2.78C2.958,58.702,0,52.524,0,46.603c0-3.507,1.48-6.629,3.75-8.688
		c2.749-2.494,7.656-2.986,10.339-1.188c3.827,2.564,2.827,8.268,0.188,8.268c-1.178,0-1.967-0.719-1.967-1.587
		c0-1.35,1.012-1.469,1.686-1.469C14.67,41.938,14.938,41.48,14.938,40.924"/>
	<path fill="#231F20" d="M71.265,38.724c-0.653,0-1.34,0.52-1.411,1.433c0,2.231,1.938,1.544,1.938,3.18
		c0,0.709-0.22,0.976-0.288,1.298c-0.077,0.365,0.14,0.576,0.407,0.576c1.39,0,1.853-2.808,1.376-4.508
		C72.862,39.192,72.023,38.724,71.265,38.724"/>
	<path fill="#231F20" d="M65.134,56.975c-1.309,0-2.491-1.345-2.491-5.666c0-1.287,0.171-5.423,2.491-5.423s2.649,4.117,2.649,5.406
		C67.783,55.612,66.443,56.975,65.134,56.975 M65.141,44.147c-4.345,0-6.24,3.401-6.24,7.603c0,3.295,2.052,6.962,6.286,6.962
		c4.235,0,6.287-3.667,6.287-6.962C71.474,47.549,69.486,44.147,65.141,44.147"/>
	<path fill="#231F20" d="M65.64,32.172c-0.07-0.006-0.139-0.001-0.209,0.01c-0.218,0.031-0.34,0.007-0.219-0.093
		c0.317-0.259,0.709-0.137,1.251-0.104c0.537,0.033,0.826-0.478,1.017-0.468c0.321-0.021,0.676,0.191,0.67,0.014
		c-0.04-0.226-0.326-0.291-0.828-0.702c-0.465-0.38-1.015-0.222-1.828,0.07c-0.814,0.293-1.115,0.263-1.206,0.242
		c-0.09-0.021-0.06-0.131,0.362-0.252c0.653-0.202,0.522-0.757,0.703-0.807c0.181-0.052,0.578-0.242,0.362-0.325
		c-0.468-0.129-0.588,0.002-0.739-0.008c-1.115-0.121-1.742,0.857-1.988,1.18c-0.502,0.659-1.452,0.162-3.466-0.152
		c-0.998-0.153-1.996-0.424-2.682-0.632c-0.093-0.028-0.155-0.115-0.158-0.211c-0.038-1.448-1.019-2.049-1.324-2.201
		c-0.043-0.021-0.051-0.079-0.017-0.111c0.08-0.079,0.207-0.205,0.289-0.292c0.208-0.219-2.198-1.229-6.42-0.586
		c-0.039,0.006-0.076-0.018-0.086-0.055l-0.078-0.284c-0.012-0.045,0.019-0.09,0.066-0.096c0.231-0.025,0.828-0.159,0.888-0.841
		c0.042-0.468-0.092-0.761-0.071-1.072c0.003-0.046,0.045-0.078,0.089-0.064c0.167,0.051,0.576,0.128,0.971-0.155
		c0.027-0.021,0.067-0.019,0.089,0.007c0.135,0.151,0.609,0.6,1.221,0.188c0.028-0.019,0.066-0.014,0.084,0.015
		c0.165,0.248,0.938,1.285,1.935,0.602c0.035-0.023,0.084-0.017,0.108,0.02c0.164,0.247,0.822,1.071,2.068,0.564
		c0.018-0.007,0.038-0.004,0.052,0.009c0.137,0.124,0.902,0.767,1.53,0.328c0.693-0.484-0.045-2.148-1.612-3.707
		c-0.951-0.983-1.441-0.948-1.861-1.046c-0.084-0.019-0.166-0.052-0.234-0.105c-0.12-0.093-0.239-0.265-0.125-0.558
		c0.111-0.282,0.729-0.708,1-0.869c0.271-0.162,0.437-0.109,0.738-0.068c0.792,0.105,1.213-0.129,1.384-0.266
		c0.05-0.04,0.124-0.025,0.156,0.03c0.205,0.368,0.894,1.468,1.845,1.557c0.805,0.075,1.209-0.481,1.211-1.146
		c0-0.078-0.061-0.143-0.139-0.143c-0.37,0-1.427-0.069-2.009-0.795c-0.013-0.017-0.008-0.043,0.011-0.053
		c0.086-0.046,0.295-0.178,0.41-0.47c0.009-0.022,0.028-0.039,0.053-0.041c0.066-0.004,0.215-0.005,0.423,0.039
		c0.309,0.074,0.335-0.569-0.212-1.262c-0.023-0.029-0.027-0.067-0.009-0.099c0.112-0.189,0.472-0.9,0.216-1.816
		c-0.068-0.484,0.462-0.388,0.336-1.261c-0.052-0.361,0.142-1.115,0.301-1.575c0.102-0.294,0.934-2.307-0.015-4.273
		c-0.949-1.967-2.666-2.012-3.405-1.498c-0.738,0.515-1.101,1.455-0.045,3.056c0.799,1.21,0.422,1.725,0.076,1.755
		c-0.871,0.076-0.443-1.894-1.763-2.617c-0.544-0.298-1.869,0.06-1.808,1.181c0.06,1.119,0.941,1.361,0.949,2.238
		c0.005,0.58-0.919,0.62-1.07-0.378c-0.151-0.998-1.502-0.121-1.285,1.2c0.17,0.807,0.693,1.159,1.24,1.387
		c0.316,0.105-0.357,0.979-1.07,1.406c-1.516,0.908-5.553,1.703-9.371,1.24c-0.915-0.11-1.47,1.076-1,1.867
		c0.034,0.058,0.02,0.128-0.037,0.161c-0.316,0.181-1.319,0.683-2.398,0.483c-1.306-0.242-2.49-1.01-2.853-1.313
		c-0.334-0.276-0.1-0.906,0.201-1.471c0.302-0.564,1.856-4.502,0.784-8.008c-0.914-2.986-3.54-4.312-5.93-4.045
		c-0.148,0.016-0.294-0.029-0.399-0.135C29.805,3.535,24.771-1.152,20.139,1.4c-0.138,0.077-0.304,0.081-0.441,0.001
		c-0.905-0.524-4.504-2.38-7.62-0.736c-2.772,1.553-2.611,4.86-2.109,6.333c0.503,1.473,1.553,0.962,1.828,0.727
		c1.105-0.949,1.02-1.354,1.969-1.482c1.434-0.195,4.098,2.288,6.107,4.971c1.994,2.663,4.186,5.764,7.264,7.564
		c0.035,0.021,0.044,0.067,0.017,0.098c-0.233,0.256-1.202,1.314-1.922,1.949c-0.824,0.726-0.226,1.319,0.18,1.482
		c0.502,0.201,1.235,0.298,2.293-0.143c0.027-0.012,0.059-0.01,0.082,0.01c0.069,0.054,0.254,0.171,0.637,0.25
		c0.347,0.072,0.814,0.088,1.399-0.063c0.03-0.007,0.063,0.002,0.082,0.028c0.112,0.155,0.587,0.683,1.798,0.569
		c0.035-0.003,0.068,0.017,0.081,0.049c0.073,0.189,0.397,0.812,1.468,0.812c0.236,0.021-0.127,0.836,0.372,1.744
		c0.016,0.03,0.008,0.067-0.021,0.086c-0.274,0.176-1.63,0.917-3.546-0.216c-0.421-0.262-0.12,0.827-0.401,0.867
		c-0.281,0.041-0.571-0.576-0.683-0.826c-0.156-0.349-1.024-0.063-1.024,1.956c0,0.081,0.003,0.169,0.011,0.263
		c0.007,0.082-0.052,0.156-0.134,0.169c-3.131,0.528-5.655-0.573-5.822-0.768c-0.153-0.177,0.007-0.404,0.414-0.508
		c0.792-0.201,0.687-1.102,0.867-1.184c0.18-0.082,0.45-0.221,0.082-0.262c-1.816-0.115-1.825,1.602-2.234,1.371
		c-0.409-0.229-0.18-0.821-0.033-0.961c1.146-0.706,0.655-1.643,0.778-1.807c0.122-0.165,0.221-0.402-0.164-0.361
		c-1.489,0.229-1.701,1.298-1.718,1.807c-0.01,0.32-0.024,0.657-0.171,0.443c-0.54-0.838-0.107-1.076-0.049-2.077
		c0.056-1.003-0.475-1.143-0.402-1.512c0.074-0.37-0.052-0.616-0.261-0.337c0,0-1.882,2.382,0.638,5.273
		c1.98,2.272,6.578,2.19,8.455,2.05c0.075-0.005,0.142,0.035,0.177,0.102c0.488,0.929,1.473,1.862,3.362,2.211
		c3.133,0.577,7.212-1.288,8.403-1.727c0.028-0.01,0.057-0.001,0.076,0.021c0.229,0.268,1.899,1.756,5.749,0.361
		c0.045-0.017,0.097-0.009,0.134,0.021c0.457,0.373,3.49,2.733,7.153,2.733c1.192,0,1.808-0.344,2.022-0.495
		c0.043-0.03,0.103-0.006,0.114,0.046c0.021,0.096,0.051,0.239,0.074,0.388c0.031,0.204,0.647-0.074,0.993-1.208
		c0.03-0.1,0.134-0.158,0.235-0.135c1.588,0.366,4.533,0.982,4.899,1.092c0.472,0.142,0.602,0.615,0.18,1.342
		c-0.421,0.726,0.261,1.553,0.442,1.855s0.422,0.453,0.412-0.112c-0.02-0.513,0.412-0.503,0.543-0.765
		c0.382-0.768-0.171-1.019,0.09-1.493c0.38-0.69,1.908-0.364,2.169,0.101c0.262,0.465,0.804,0.736,1.306,0.717
		c0.503-0.021,0.834-0.03,1.025,0.131c0.158,0.134,0.462,0.242,0.361-0.121C67.716,32.644,66.186,32.217,65.64,32.172"/>
	<path fill="#81C341" d="M49.187,23.472c0.116-0.453,0.462-0.87,0.903-1.27c0.576-0.518,1.242-0.929,1.961-1.214
		c0.292-0.116,0.501-0.229,0.365-0.335c-0.512-0.263-0.864-0.676-0.999-1.069c-0.196-0.569-0.174-1.351,0.896-1.43
		c0.466-0.035,1.365-0.056,2.109-0.185c0.174-0.03,0.372-0.095,0.492-0.172c0.294-0.19,0.225-0.303-0.047-0.876
		c-0.175-0.371-0.208-0.905-0.126-1.381c0.03-0.175,0.096-0.455-0.105-0.637c-0.852-0.77-1.014,0.655-2.104,1.474
		c-2.679,2.01-7.86,1.864-8.653,1.742c-0.808-0.123-1.332-0.028-1.291,0.571c0.036,0.531,0.512,0.605,0.271,1.286
		c-0.241,0.681-0.052,1.329,0.678,1.709c0.814,0.423,0.031,1.338,1.115,1.755c0.708,0.271,0.678,0.347,0.828,0.726
		c0.151,0.378,0.224,1.014,1.251,0.619c1.145-0.438,1.026,0.632,1.824,0.576C49.314,25.31,48.917,24.526,49.187,23.472"/>
	<path fill="#E72F2C" d="M53.27,21.664c0,0-0.482,0.037-0.625,0.241c-0.066,0.095-0.03,0.349,0.376,0.303
		c1.598-0.166,2.095,0.515,2.743,1.468s1.333,1.671,1.702,1.648c0.25-0.016,0.181-0.499-0.151-1.028
		c-0.665-1.063-1.566-1.951-2.335-2.36C54.211,21.527,53.27,21.664,53.27,21.664"/>
	<path fill="#E72F2C" d="M54.39,23.239c-0.388-0.059-0.045,0.529,0.166,0.832c0.21,0.303,0.617,1.074,1.024,1.074
		C55.987,25.146,55.188,23.36,54.39,23.239"/>
	<path fill="#E72F2C" d="M53.006,23.364c-0.289,0.116-0.106,0.645,0.18,1.067c0.293,0.433,0.618,0.28,0.618-0.037
		C53.804,23.868,53.374,23.217,53.006,23.364"/>
	<path fill="#FFFFFF" d="M58.086,15.812c0.013-0.268-0.032-0.521,0.287-0.654c0.345-0.147,0.476-0.167,0.526,0.08
		c0,0,0.146,0.857-0.226,1.346C58.297,17.078,58.061,16.342,58.086,15.812"/>
	<path fill="#E72F2C" d="M54.769,18.525c-0.072,0.036-0.146,0.064-0.223,0.088c-0.211,0.064-0.72,0.211-1.089,0.242
		c-0.405,0.034-0.916-0.011-0.993,0.355c-0.086,0.412,0.32,0.66,0.784,0.519c0.386-0.117,1.793-1.044,1.671-1.214
		C54.886,18.471,54.84,18.49,54.769,18.525"/>
	<path fill="#FFFFFF" d="M56.95,15.228c-0.272-0.125-0.443-0.195-0.634-0.25c-0.463-0.166-0.616-0.023-0.706,0.059
		c-0.171,0.156-0.216,0.66-0.151,1.199c0.073,0.593,0.307,0.983,0.864,0.923c0.558-0.061,0.733-0.971,0.799-1.422
		C57.154,15.517,57.14,15.314,56.95,15.228"/>
	<path fill="#FED600" d="M58.248,18.225c-0.173-0.064-0.823-0.075-0.95-0.041c-0.126,0.035-0.087,0.106-0.046,0.159
		c0.062,0.079,0.185,0.158,0.414,0.164C58.11,18.519,58.398,18.279,58.248,18.225"/>
	<path fill="#FED600" d="M58.79,17.344c-0.218-0.17-0.389-0.266-0.613-0.354c-0.489-0.189-0.271-0.581-0.532-0.606
		c-0.274-0.028-0.386,0.592-0.383,0.953c0.003,0.309,0.292,0.4,0.691,0.4c0.471,0,0.72,0.006,0.846,0.02
		C58.958,17.774,59.113,17.596,58.79,17.344"/>
	<path fill="#E72F2C" d="M46.121,26.092c0.609-0.146,1.114-0.088,1.17,0.397c0.069,0.6-0.993,1.792-2.078,2.299
		c-0.93,0.435-2.627,1.049-3.867,0.188c-0.483-0.336,0.616-0.991,0.594-1.449c-0.011-0.229-0.308-0.36-0.74-0.065
		c-0.232,0.159-1.022,0.67-2.414,1.26c-1.392,0.589-3.647,1.069-4.797,1.272c-2.115,0.374-4.004-0.688-4.002-1.989
		c0-0.735,0.519-1.078,2.05-1.018c0.653,0.025,1.418-0.195,1.857-0.333c0.636-0.199,1.497-0.006,2.036,0.297
		c0.813,0.458,1.095-0.17,1.095-0.17c0.268-0.754-0.948-0.926-1.456-1.115c-1.178-0.439-1.302-1.474-0.594-2.019
		c0.29-0.224,0.947-0.67,0.599-1.02c-0.506-0.509-1.78,0.626-2.361,0.382c-0.456-0.191,0.04-0.747,0.897-1.124
		c0.67-0.296,1.319-0.408,2.03-0.088c0.71,0.32,1.856,0.933,2.141,0.588c0.411-0.496-0.743-1.219-1.246-1.432
		c-0.503-0.215-1.744-0.929-3.549-1.908c-1.742-0.943-3.033,0.084-4.643,1.205c-0.857,0.597-1.722,1.287-2.146,1.07
		c-0.449-0.229,0.141-0.832,1.443-1.847c1.302-1.016,2.746-2.068,4.292-1.768c1.393,0.271,3.564,1.726,4.728,2.252
		c0.879,0.397,1.855,1.116,2.16,1.815c0.184,0.422,0.73,0.426,0.759,0.038c0.019-0.243,0.006-0.731,0.638-0.699
		c0.243,0.014,0.638,0.205,0.744,0.807c0.107,0.602,0.687,0.563,0.929,0.854c0.241,0.291,0.079,1.188,0.85,1.699
		c0.822,0.543,0.832,0.019,1.528,1.174C44.99,26.015,45.512,26.237,46.121,26.092"/>
	<path fill="#E72F2C" d="M31.694,19.705c-0.312-0.202-0.889,0.061-1.265,0.302c-0.671,0.43-1.491,1.047-1.12,1.384
		c0.455,0.414,1.606-0.439,2.233-0.957C31.767,20.25,31.992,19.896,31.694,19.705"/>
	<path fill="#E72F2C" d="M33.713,20.446c0,0-0.399-0.288-0.926-0.016c-0.528,0.272-1.138,0.711-1.304,0.931
		c-0.166,0.219-0.264,0.598,0.257,0.756c0.519,0.159,1.25-0.439,1.551-0.635C33.593,21.285,34.135,20.794,33.713,20.446"/>
	<path fill="#E72F2C" d="M51.773,22.882c-0.366,0.021-0.518,1.114,0.025,1.114C52.235,23.996,52.12,22.86,51.773,22.882"/>
	<path fill="#E72F2C" d="M27.497,11.026c-0.841-1.4-3.593-6.103-7.932-8.539c-4.339-2.438-6.005-1.495-6.507-1.286
		c-0.393,0.163-1.893,0.96-2.093,3.109c-0.217,2.317,0.477,2.071,0.803,1.669c0.324-0.402,1.127-1.555,2.732-1.036
		c1.606,0.519,3.364,1.708,5.371,4.146c2.007,2.437,4.626,6.563,7.358,7.119C29.962,16.765,28.337,12.427,27.497,11.026"/>
	<path fill="#81C341" d="M21.684,2.75c1.36,1.017,4.788,3.853,6.964,8.082c0.917,1.783,1.397,4.287,2.959,4.624
		c1.759,0.378,2.111-1.886,1.194-4.706c-0.917-2.821-2.169-5.569-5.823-7.893c-2.501-1.591-4.313-1.236-5.208-0.854
		C21.464,2.134,21.416,2.55,21.684,2.75"/>
	<path fill="#E72F2C" d="M34.321,15.03c-0.065,0.908,0.904,1.392,1.346,0.464s1.51-2.882,0.542-6.454
		c-0.785-2.896-3.202-3.481-4.281-3.443c-0.195,0.008-0.305,0.229-0.192,0.388C32.457,7.001,34.554,10.385,34.321,15.03"/>
	<path fill="#E72F2C" d="M58.912,14.456c-0.481-0.084-0.715,0.223-0.891,0.048c-0.18-0.179,0.01-0.411,0.274-0.411
		c0.258,0,0.557-0.477,0.805-0.303C59.349,13.964,59.26,14.516,58.912,14.456"/>
	<path fill="#E72F2C" d="M57.197,14.134c0.353,0.015,0.428,0.154,0.405,0.281c-0.015,0.083-0.079,0.147-0.156,0.181
		c-0.195,0.085-0.542,0.062-1.178-0.268c-0.753-0.389-0.91-0.128-1.323-0.075c-0.427,0.054-0.457-0.709,0.335-0.887
		C56.072,13.189,56.458,14.103,57.197,14.134"/>
	<path fill="#E72F2C" d="M55.117,30.374c-0.343,1.866-2.354,1.62-3.036,1.518c-0.681-0.103-0.561-0.576-0.319-0.643
		c0.444-0.122,0.513-0.348,0.472-0.46c-0.063-0.174-0.235-0.201-0.472-0.128c-1.172,0.359-3.763-1.058-2.917-2.44
		c0.363-0.596,1.911-0.883,4.123-0.617C53.875,27.714,55.46,28.507,55.117,30.374"/>
	<path fill="#231F20" d="M58.72,15.854c-0.007,0.18-0.107,0.321-0.224,0.317c-0.116-0.006-0.205-0.154-0.197-0.334
		c0.007-0.18,0.107-0.321,0.223-0.316C58.638,15.524,58.727,15.674,58.72,15.854"/>
	<path fill="#231F20" d="M56.584,16.038c-0.03,0.229-0.174,0.397-0.323,0.379s-0.245-0.22-0.216-0.449
		c0.03-0.229,0.175-0.398,0.324-0.38C56.519,15.607,56.615,15.809,56.584,16.038"/>
	<path fill="#E72F2C" d="M52.306,12.202c-0.198,0.07-0.027,0.438,0.11,0.62c0.156,0.206,0.318,0.342,0.437,0.272
		c0.134-0.079,0.054-0.361-0.072-0.542C52.654,12.372,52.45,12.151,52.306,12.202"/>
	<path fill="#E72F2C" d="M55.242,10.3c0.038,0.201,0.101,0.62-0.059,0.651c-0.161,0.032-0.242-0.246-0.392-0.571
		c-0.151-0.324-0.401-0.482-0.578-0.643c-0.178-0.16-0.268-0.406-0.054-0.521c0.142-0.074,0.501-0.046,0.773,0.294
		C55.157,9.792,55.242,10.3,55.242,10.3"/>
	<path fill="#E72F2C" d="M57.418,6.871c-0.378,0.184-0.053,0.774,0.147,1.036c0.201,0.261,0.595,0.722,0.838,1.057
		c1.078,1.466,0.734,2.169,1.075,2.149c0.264-0.015,0.405-1.417-0.104-2.501S58.034,6.574,57.418,6.871"/>
</g>
</svg>
