<?xml version="1.0" encoding="utf-8"?>
<!-- Generator: Adobe Illustrator 16.0.0, SVG Export Plug-In . SVG Version: 6.00 Build 0)  -->
<!DOCTYPE svg PUBLIC "-//W3C//DTD SVG 1.1//EN" "http://www.w3.org/Graphics/SVG/1.1/DTD/svg11.dtd">
<svg version="1.1" id="Layer_1" xmlns="http://www.w3.org/2000/svg" xmlns:xlink="http://www.w3.org/1999/xlink" x="0px" y="0px"
	 width="174px" height="122px" viewBox="0 0 174 122" enable-background="new 0 0 174 122" xml:space="preserve">
<g>
	<g>
		<path fill="#F2F2F2" d="M157.487,121.526c-2.238-36.494-32.529-65.403-69.585-65.403c-37.058,0-67.348,28.909-69.585,65.403
			H157.487z"/>
	</g>
	<g>
		<path fill="#80C0E9" d="M83.517,24.588c0-2.192-1.777-3.969-3.969-3.969H45.493c-2.191,0-3.968,1.777-3.968,3.969v35.59
			c0,0.048,0.005,0.095,0.007,0.142h-0.4l4.052,40.867c0.255,2.577,2.422,4.54,5.012,4.54h23.921c2.608,0,4.793-1.974,5.057-4.569
			l3.983-39.335c0.229-0.502,0.36-1.057,0.36-1.645V24.588z"/>
	</g>
	<g>
		<path fill="#575757" d="M74.116,106.124H50.195c-2.806,0-5.13-2.105-5.407-4.898l-4.095-41.302h0.435V24.589
			c0-2.407,1.959-4.366,4.365-4.366h34.055c2.407,0,4.365,1.959,4.365,4.366v35.59c0,0.603-0.124,1.191-0.368,1.748l-3.978,39.271
			C79.282,104.006,76.939,106.124,74.116,106.124 M41.569,60.718l4.009,40.431c0.236,2.385,2.221,4.183,4.617,4.183h23.921
			c2.414,0,4.418-1.812,4.661-4.214l3.991-39.399l0.026-0.06c0.215-0.47,0.324-0.968,0.324-1.479v-35.59
			c0-1.97-1.602-3.572-3.571-3.572H45.493c-1.969,0-3.571,1.602-3.571,3.572v35.59c0,0.019,0.001,0.038,0.002,0.057l0.02,0.482
			H41.569z"/>
	</g>
	<g>
		<path fill="#80C0E9" d="M78.26,60.321c0.002-0.048,0.008-0.094,0.008-0.142v-35.59c0-2.192-1.777-3.969-3.969-3.969H40.245
			c-2.192,0-3.969,1.777-3.969,3.969l-0.085,35.783l4.001,40.815c0.255,2.576,2.423,4.541,5.012,4.541h23.922
			c2.608,0,4.792-1.976,5.055-4.57l4.138-40.837H78.26z"/>
	</g>
	<g>
		<path fill="#575757" d="M69.126,106.124H45.204c-2.806,0-5.13-2.105-5.407-4.898l-4.002-40.854l0.084-35.783
			c0-2.406,1.959-4.365,4.366-4.365h34.053c2.408,0,4.366,1.959,4.366,4.366v35.335h0.092l-4.18,41.273
			C74.292,104.006,71.948,106.124,69.126,106.124 M36.588,60.353l3.999,40.796c0.236,2.385,2.222,4.183,4.617,4.183h23.922
			c2.413,0,4.417-1.812,4.66-4.214l4.093-40.399H77.85l0.018-0.483c0.002-0.019,0.004-0.037,0.004-0.056v-35.59
			c0-1.97-1.603-3.572-3.573-3.572H40.245c-1.97,0-3.573,1.603-3.573,3.572L36.588,60.353z"/>
	</g>
	<g>
		<path fill="#BFE6F3" d="M71.434,2.287L71.434,2.287c3.688,0,6.283-0.373,6.283,3.316l0.396,6.05h-6.68V2.287z"/>
	</g>
	<g>
		<path fill="#575757" d="M78.51,12.051h-7.473V1.891h3.76c2.048,0,3.713,1.666,3.713,3.713V12.051z M71.83,11.257h5.886V5.604
			c0-1.61-1.309-2.92-2.919-2.92H71.83V11.257z"/>
	</g>
	<g>
		<path fill="#FFFFFF" d="M66.995,58.957H43.692c-3.84,0-3.113-3.112-3.113-6.951V27.884c0-3.84,3.113-3.113,6.952-3.113h19.464
			c3.84,0,6.951-0.727,6.951,3.113l0.2,27.18C74.146,58.902,70.835,58.957,66.995,58.957"/>
	</g>
	<g>
		<path fill="#575757" d="M70.928,59.334H43.6c-1.873,0-3.397-1.524-3.397-3.397V27.791c0-1.873,1.524-3.397,3.397-3.397h27.328
			c1.873,0,3.396,1.524,3.396,3.397v28.147C74.324,57.811,72.801,59.334,70.928,59.334 M43.6,25.148
			c-1.457,0-2.643,1.185-2.643,2.642v28.147c0,1.457,1.186,2.642,2.643,2.642h27.328c1.457,0,2.642-1.185,2.642-2.642V27.791
			c0-1.457-1.185-2.642-2.642-2.642H43.6z"/>
	</g>
	<g>
		<path fill="#FFFFFF" d="M73.75,2.464V2.298H46.271c-1.842,0-3.334,1.492-3.334,3.333v15.001h28.517V5.631
			C71.453,4.152,72.417,2.899,73.75,2.464"/>
	</g>
	<g>
		<path fill="#575757" d="M71.85,21.028H42.54V5.631c0-2.058,1.674-3.731,3.73-3.731h27.876v0.851L73.873,2.84
			c-1.21,0.396-2.023,1.518-2.023,2.791V21.028z M43.333,20.235h27.724V5.631c0-1.174,0.543-2.245,1.429-2.937H46.271
			c-1.62,0-2.938,1.317-2.938,2.937V20.235z"/>
	</g>
	<g>
		<path fill="#575757" d="M67.121,7.138H47.898c-0.22,0-0.397-0.178-0.397-0.397c0-0.219,0.178-0.396,0.397-0.396h19.223
			c0.219,0,0.396,0.178,0.396,0.396C67.518,6.959,67.34,7.138,67.121,7.138"/>
	</g>
	<g>
		<path fill="#575757" d="M67.121,10.054H47.898c-0.22,0-0.397-0.177-0.397-0.397c0-0.219,0.178-0.397,0.397-0.397h19.223
			c0.219,0,0.396,0.178,0.396,0.397C67.518,9.877,67.34,10.054,67.121,10.054"/>
	</g>
	<g>
		<path fill="#575757" d="M67.121,12.97H47.898c-0.22,0-0.397-0.177-0.397-0.396c0-0.219,0.178-0.396,0.397-0.396h19.223
			c0.219,0,0.396,0.177,0.396,0.396C67.518,12.793,67.34,12.97,67.121,12.97"/>
	</g>
	<g>
		<path fill="#575757" d="M57.099,15.887h-9.201c-0.219,0-0.396-0.178-0.396-0.397c0-0.219,0.178-0.396,0.396-0.396h9.201
			c0.219,0,0.396,0.178,0.396,0.396C57.495,15.708,57.317,15.887,57.099,15.887"/>
	</g>
	<g>
		<path fill="#FFFFFF" d="M48.232,69.374h-3.039c-1.224,0-2.217-0.993-2.217-2.217c0-1.225,0.993-2.218,2.217-2.218h3.039
			c1.226,0,2.218,0.993,2.218,2.218C50.45,68.381,49.458,69.374,48.232,69.374"/>
	</g>
	<g>
		<path fill="#FFFFFF" d="M58.867,69.374h-3.039c-1.224,0-2.217-0.993-2.217-2.217c0-1.225,0.993-2.218,2.217-2.218h3.039
			c1.226,0,2.218,0.993,2.218,2.218C61.085,68.381,60.093,69.374,58.867,69.374"/>
	</g>
	<g>
		<path fill="#FFFFFF" d="M69.502,69.374h-3.039c-1.224,0-2.217-0.993-2.217-2.217c0-1.225,0.993-2.218,2.217-2.218h3.039
			c1.226,0,2.218,0.993,2.218,2.218C71.72,68.381,70.728,69.374,69.502,69.374"/>
	</g>
	<g>
		<path fill="#FFFFFF" d="M48.232,76.19h-3.039c-1.224,0-2.217-0.993-2.217-2.217c0-1.226,0.993-2.218,2.217-2.218h3.039
			c1.226,0,2.218,0.992,2.218,2.218C50.45,75.197,49.458,76.19,48.232,76.19"/>
	</g>
	<g>
		<path fill="#FFFFFF" d="M58.867,76.19h-3.039c-1.224,0-2.217-0.993-2.217-2.217c0-1.226,0.993-2.218,2.217-2.218h3.039
			c1.226,0,2.218,0.992,2.218,2.218C61.085,75.197,60.093,76.19,58.867,76.19"/>
	</g>
	<g>
		<path fill="#FFFFFF" d="M69.502,76.19h-3.039c-1.224,0-2.217-0.993-2.217-2.217c0-1.226,0.993-2.218,2.217-2.218h3.039
			c1.226,0,2.218,0.992,2.218,2.218C71.72,75.197,70.728,76.19,69.502,76.19"/>
	</g>
	<g>
		<path fill="#FFFFFF" d="M48.232,83.006h-3.039c-1.224,0-2.217-0.992-2.217-2.217s0.993-2.218,2.217-2.218h3.039
			c1.226,0,2.218,0.993,2.218,2.218S49.458,83.006,48.232,83.006"/>
	</g>
	<g>
		<path fill="#FFFFFF" d="M58.867,83.006h-3.039c-1.224,0-2.217-0.992-2.217-2.217s0.993-2.218,2.217-2.218h3.039
			c1.226,0,2.218,0.993,2.218,2.218S60.093,83.006,58.867,83.006"/>
	</g>
	<g>
		<path fill="#FFFFFF" d="M69.502,83.006h-3.039c-1.224,0-2.217-0.992-2.217-2.217s0.993-2.218,2.217-2.218h3.039
			c1.226,0,2.218,0.993,2.218,2.218S70.728,83.006,69.502,83.006"/>
	</g>
	<g>
		<path fill="#FFFFFF" d="M48.232,89.822h-3.039c-1.224,0-2.217-0.992-2.217-2.217s0.993-2.218,2.217-2.218h3.039
			c1.226,0,2.218,0.993,2.218,2.218S49.458,89.822,48.232,89.822"/>
	</g>
	<g>
		<path fill="#FFFFFF" d="M58.867,89.822h-3.039c-1.224,0-2.217-0.992-2.217-2.217s0.993-2.218,2.217-2.218h3.039
			c1.226,0,2.218,0.993,2.218,2.218S60.093,89.822,58.867,89.822"/>
	</g>
	<g>
		<path fill="#4FAED8" d="M57.596,99.185h-0.741c-1.541,0-2.791-1.25-2.791-2.791v-0.618c0-1.542,1.25-2.791,2.791-2.791h0.741
			c1.541,0,2.791,1.249,2.791,2.791v0.618C60.387,97.935,59.137,99.185,57.596,99.185"/>
	</g>
	<g>
		<path fill="#575757" d="M59.315,99.581h-4.181c-0.81,0-1.469-0.659-1.469-1.47v-4.056c0-0.81,0.659-1.468,1.469-1.468h4.181
			c0.81,0,1.468,0.658,1.468,1.468v4.056C60.783,98.922,60.125,99.581,59.315,99.581 M55.135,93.381
			c-0.372,0-0.675,0.303-0.675,0.675v4.056c0,0.373,0.303,0.677,0.675,0.677h4.181c0.372,0,0.674-0.304,0.674-0.677v-4.056
			c0-0.372-0.302-0.675-0.674-0.675H55.135z"/>
	</g>
	<g>
		<path fill="#575757" d="M50.323,99.498h-4.181c-0.764,0-1.385-0.621-1.385-1.386v-4.056c0-0.764,0.621-1.385,1.385-1.385h4.181
			c0.763,0,1.385,0.621,1.385,1.385v4.056C51.708,98.877,51.086,99.498,50.323,99.498 M46.143,93.297
			c-0.418,0-0.759,0.342-0.759,0.76v4.056c0,0.418,0.341,0.759,0.759,0.759h4.181c0.418,0,0.758-0.341,0.758-0.759v-4.056
			c0-0.418-0.34-0.76-0.758-0.76H46.143z"/>
	</g>
	<g>
		<path fill="#FFFFFF" d="M66.588,99.185h-0.741c-1.541,0-2.791-1.25-2.791-2.791v-0.618c0-1.542,1.25-2.791,2.791-2.791h0.741
			c1.541,0,2.791,1.249,2.791,2.791v0.618C69.379,97.935,68.129,99.185,66.588,99.185"/>
	</g>
	<g>
		<path fill="#575757" d="M68.308,99.581h-4.181c-0.81,0-1.468-0.659-1.468-1.47v-4.056c0-0.81,0.658-1.468,1.468-1.468h4.181
			c0.81,0,1.468,0.658,1.468,1.468v4.056C69.775,98.922,69.117,99.581,68.308,99.581 M64.127,93.381
			c-0.372,0-0.675,0.303-0.675,0.675v4.056c0,0.373,0.303,0.677,0.675,0.677h4.181c0.372,0,0.675-0.304,0.675-0.677v-4.056
			c0-0.372-0.303-0.675-0.675-0.675H64.127z"/>
	</g>
	<g>
		<path fill="#FFFFFF" d="M69.502,89.822h-3.039c-1.224,0-2.217-0.992-2.217-2.217s0.993-2.218,2.217-2.218h3.039
			c1.226,0,2.218,0.993,2.218,2.218S70.728,89.822,69.502,89.822"/>
	</g>
	<g>
		<path fill="#575757" d="M49.464,69.662h-5.502c-0.701,0-1.272-0.571-1.272-1.273v-2.464c0-0.702,0.571-1.272,1.272-1.272h5.502
			c0.703,0,1.274,0.57,1.274,1.272v2.464C50.738,69.091,50.167,69.662,49.464,69.662 M43.962,65.228
			c-0.385,0-0.696,0.313-0.696,0.697v2.464c0,0.385,0.312,0.697,0.696,0.697h5.502c0.386,0,0.698-0.313,0.698-0.697v-2.464
			c0-0.384-0.313-0.697-0.698-0.697H43.962z"/>
	</g>
	<g>
		<path fill="#575757" d="M60.099,69.662h-5.502c-0.702,0-1.272-0.571-1.272-1.273v-2.464c0-0.702,0.57-1.272,1.272-1.272h5.502
			c0.703,0,1.274,0.57,1.274,1.272v2.464C61.373,69.091,60.802,69.662,60.099,69.662 M54.597,65.228
			c-0.384,0-0.696,0.313-0.696,0.697v2.464c0,0.385,0.313,0.697,0.696,0.697h5.502c0.386,0,0.698-0.313,0.698-0.697v-2.464
			c0-0.384-0.313-0.697-0.698-0.697H54.597z"/>
	</g>
	<g>
		<path fill="#575757" d="M70.733,69.662h-5.502c-0.701,0-1.272-0.571-1.272-1.273v-2.464c0-0.702,0.571-1.272,1.272-1.272h5.502
			c0.703,0,1.274,0.57,1.274,1.272v2.464C72.008,69.091,71.437,69.662,70.733,69.662 M65.231,65.228
			c-0.385,0-0.696,0.313-0.696,0.697v2.464c0,0.385,0.312,0.697,0.696,0.697h5.502c0.386,0,0.698-0.313,0.698-0.697v-2.464
			c0-0.384-0.313-0.697-0.698-0.697H65.231z"/>
	</g>
	<g>
		<path fill="#575757" d="M49.464,76.479h-5.502c-0.701,0-1.272-0.571-1.272-1.273v-2.464c0-0.702,0.571-1.273,1.272-1.273h5.502
			c0.703,0,1.274,0.571,1.274,1.273v2.464C50.738,75.907,50.167,76.479,49.464,76.479 M43.962,72.044
			c-0.385,0-0.696,0.313-0.696,0.697v2.464c0,0.384,0.312,0.697,0.696,0.697h5.502c0.386,0,0.698-0.313,0.698-0.697v-2.464
			c0-0.384-0.313-0.697-0.698-0.697H43.962z"/>
	</g>
	<g>
		<path fill="#575757" d="M60.099,76.479h-5.502c-0.702,0-1.272-0.571-1.272-1.273v-2.464c0-0.702,0.57-1.273,1.272-1.273h5.502
			c0.703,0,1.274,0.571,1.274,1.273v2.464C61.373,75.907,60.802,76.479,60.099,76.479 M54.597,72.044
			c-0.384,0-0.696,0.313-0.696,0.697v2.464c0,0.384,0.313,0.697,0.696,0.697h5.502c0.386,0,0.698-0.313,0.698-0.697v-2.464
			c0-0.384-0.313-0.697-0.698-0.697H54.597z"/>
	</g>
	<g>
		<path fill="#575757" d="M70.733,76.479h-5.502c-0.701,0-1.272-0.571-1.272-1.273v-2.464c0-0.702,0.571-1.273,1.272-1.273h5.502
			c0.703,0,1.274,0.571,1.274,1.273v2.464C72.008,75.907,71.437,76.479,70.733,76.479 M65.231,72.044
			c-0.385,0-0.696,0.313-0.696,0.697v2.464c0,0.384,0.312,0.697,0.696,0.697h5.502c0.386,0,0.698-0.313,0.698-0.697v-2.464
			c0-0.384-0.313-0.697-0.698-0.697H65.231z"/>
	</g>
	<g>
		<path fill="#575757" d="M49.464,83.294h-5.502c-0.701,0-1.272-0.571-1.272-1.272v-2.465c0-0.701,0.571-1.272,1.272-1.272h5.502
			c0.703,0,1.274,0.571,1.274,1.272v2.465C50.738,82.723,50.167,83.294,49.464,83.294 M43.962,78.859
			c-0.385,0-0.696,0.313-0.696,0.697v2.465c0,0.383,0.312,0.696,0.696,0.696h5.502c0.386,0,0.698-0.313,0.698-0.696v-2.465
			c0-0.384-0.313-0.697-0.698-0.697H43.962z"/>
	</g>
	<g>
		<path fill="#575757" d="M60.099,83.294h-5.502c-0.702,0-1.272-0.571-1.272-1.272v-2.465c0-0.701,0.57-1.272,1.272-1.272h5.502
			c0.703,0,1.274,0.571,1.274,1.272v2.465C61.373,82.723,60.802,83.294,60.099,83.294 M54.597,78.859
			c-0.384,0-0.696,0.313-0.696,0.697v2.465c0,0.383,0.313,0.696,0.696,0.696h5.502c0.386,0,0.698-0.313,0.698-0.696v-2.465
			c0-0.384-0.313-0.697-0.698-0.697H54.597z"/>
	</g>
	<g>
		<path fill="#575757" d="M70.733,83.294h-5.502c-0.701,0-1.272-0.571-1.272-1.272v-2.465c0-0.701,0.571-1.272,1.272-1.272h5.502
			c0.703,0,1.274,0.571,1.274,1.272v2.465C72.008,82.723,71.437,83.294,70.733,83.294 M65.231,78.859
			c-0.385,0-0.696,0.313-0.696,0.697v2.465c0,0.383,0.312,0.696,0.696,0.696h5.502c0.386,0,0.698-0.313,0.698-0.696v-2.465
			c0-0.384-0.313-0.697-0.698-0.697H65.231z"/>
	</g>
	<g>
		<path fill="#575757" d="M49.464,90.111h-5.502c-0.701,0-1.272-0.571-1.272-1.274v-2.463c0-0.703,0.571-1.274,1.272-1.274h5.502
			c0.703,0,1.274,0.571,1.274,1.274v2.463C50.738,89.54,50.167,90.111,49.464,90.111 M43.962,85.676
			c-0.385,0-0.696,0.313-0.696,0.698v2.463c0,0.386,0.312,0.698,0.696,0.698h5.502c0.386,0,0.698-0.313,0.698-0.698v-2.463
			c0-0.385-0.313-0.698-0.698-0.698H43.962z"/>
	</g>
	<g>
		<path fill="#575757" d="M60.099,90.111h-5.502c-0.702,0-1.272-0.571-1.272-1.274v-2.463c0-0.703,0.57-1.274,1.272-1.274h5.502
			c0.703,0,1.274,0.571,1.274,1.274v2.463C61.373,89.54,60.802,90.111,60.099,90.111 M54.597,85.676
			c-0.384,0-0.696,0.313-0.696,0.698v2.463c0,0.386,0.313,0.698,0.696,0.698h5.502c0.386,0,0.698-0.313,0.698-0.698v-2.463
			c0-0.385-0.313-0.698-0.698-0.698H54.597z"/>
	</g>
	<g>
		<path fill="#575757" d="M70.733,90.111h-5.502c-0.701,0-1.272-0.571-1.272-1.274v-2.463c0-0.703,0.571-1.274,1.272-1.274h5.502
			c0.703,0,1.274,0.571,1.274,1.274v2.463C72.008,89.54,71.437,90.111,70.733,90.111 M65.231,85.676
			c-0.385,0-0.696,0.313-0.696,0.698v2.463c0,0.386,0.312,0.698,0.696,0.698h5.502c0.386,0,0.698-0.313,0.698-0.698v-2.463
			c0-0.385-0.313-0.698-0.698-0.698H65.231z"/>
	</g>
	<g>
		<polygon fill="#F68D52" points="57.911,32.756 57.906,32.766 57.902,32.756 50.953,47.692 53.877,47.692 54.305,47.692 
			56.185,43.544 54.439,42.235 56.778,42.235 57.874,39.818 57.906,39.718 57.938,39.818 59.034,42.235 61.374,42.235 
			59.629,43.544 61.509,47.692 61.937,47.692 64.86,47.692 		"/>
	</g>
	<g>
		<path fill="#523D66" d="M158.647,122H16.812c-0.226,0-0.41-0.184-0.41-0.409s0.185-0.409,0.41-0.409h141.836
			c0.225,0,0.41,0.184,0.41,0.409S158.872,122,158.647,122"/>
	</g>
	<g>
		<path fill="#523D66" d="M11.237,122H0.426c-0.225,0-0.409-0.184-0.409-0.409s0.185-0.409,0.409-0.409h10.812
			c0.226,0,0.41,0.184,0.41,0.409S11.463,122,11.237,122"/>
	</g>
	<g>
		<path fill="#523D66" d="M173.573,122h-10.813c-0.225,0-0.408-0.184-0.408-0.409s0.184-0.409,0.408-0.409h10.813
			c0.225,0,0.41,0.184,0.41,0.409S173.798,122,173.573,122"/>
	</g>
	<g>
		<path fill="#F2EBE3" d="M166.097,111.363c0,1.42-1.15,2.57-2.57,2.57s-2.57-1.15-2.57-2.57s1.15-2.571,2.57-2.571
			S166.097,109.943,166.097,111.363"/>
	</g>
	<g>
		<path fill="#F2EBE3" d="M19.746,93.246c0,1.039-0.842,1.881-1.881,1.881s-1.881-0.842-1.881-1.881s0.842-1.881,1.881-1.881
			S19.746,92.207,19.746,93.246"/>
	</g>
	<g>
		<path fill="#F2EBE3" d="M15.984,105.305c0,2.494-2.021,4.515-4.515,4.515c-2.492,0-4.514-2.021-4.514-4.515
			c0-2.492,2.021-4.514,4.514-4.514C13.963,100.791,15.984,102.813,15.984,105.305"/>
	</g>
	<g>
		<rect x="15.763" y="69.162" fill="#F68D52" width="4.204" height="1"/>
	</g>
	<g>
		<rect x="17.365" y="67.561" fill="#F68D52" width="1" height="4.203"/>
	</g>
	<g>
		<path fill="#FFFFFF" d="M99.839,69.524c0,0-4.286,0.707-4.076,4.69c0.211,3.985,1.26,24.617,1.26,24.617
			s-0.197,7.129,6.623,10.643l6.819,3.514l8.547-11.537l-2.591-2.335c0,0,2.591-18.257,2.591-18.61c0-0.354,0.907-1.155-2.103-6.291
			c-3.01-5.135-5.137-9.275-5.137-9.275l-7.478-8.325l0.076,2.815l2.571,18.854c0,0,1.683,5.523-0.774,6.816l-1.39,0.602
			c0,0,0.357-11.947-0.647-13.656C103.125,70.334,100.714,69.431,99.839,69.524"/>
	</g>
	<g>
		<path fill="#FFD15F" d="M107.722,121.582c0,0-1.807-3.67,1.582-7.85c3.389-4.179,10.447-13.214,10.447-13.214
			s2.014-2.979,4.574-1.017c2.823,2.166,28.113,21.629,28.113,21.629L107.722,121.582z"/>
	</g>
	<g>
		<path fill="#FFFFFF" d="M100.765,85.83l-16.548,2.1c-3.872,0.49-7.409,1.176-7.899-2.695l-4.696-37.456
			c-0.491-3.872,3.127-3.491,6.999-3.982l16.548-2.099c3.872-0.491,7.409-0.936,7.899,2.936l4.174,36.8
			C107.731,85.306,104.637,85.34,100.765,85.83"/>
	</g>
	<g>
		<path fill="#575757" d="M79.857,88.835c-0.759,0-1.492-0.25-2.104-0.724c-0.729-0.563-1.192-1.378-1.309-2.291l-4.823-38.042
			c-0.117-0.913,0.13-1.817,0.693-2.545c0.564-0.727,1.378-1.192,2.291-1.308l24.479-3.105c1.889-0.237,3.615,1.101,3.854,2.987
			l4.825,38.042c0.238,1.886-1.102,3.614-2.987,3.853v0.002l-24.479,3.104C80.151,88.824,80.004,88.835,79.857,88.835
			 M99.521,41.548c-0.112,0-0.226,0.007-0.34,0.021l-24.479,3.105c-0.713,0.09-1.349,0.453-1.789,1.022
			c-0.44,0.568-0.633,1.274-0.543,1.987l4.824,38.042c0.091,0.714,0.453,1.35,1.022,1.79c0.568,0.44,1.273,0.63,1.988,0.543
			l24.478-3.104c1.473-0.187,2.52-1.537,2.332-3.01l-4.824-38.042C102.019,42.543,100.855,41.548,99.521,41.548"/>
	</g>
	<g opacity="0.8">
		<g>
			<defs>
				<rect id="SVGID_1_" x="78.658" y="50.459" width="1.355" height="5.56"/>
			</defs>
			<clipPath id="SVGID_2_">
				<use xlink:href="#SVGID_1_"  overflow="visible"/>
			</clipPath>
			<g clip-path="url(#SVGID_2_)">
				<path fill="#575757" d="M79.636,56.018c-0.188,0-0.351-0.14-0.374-0.331L78.66,50.88c-0.024-0.207,0.121-0.395,0.328-0.421
					c0.204-0.029,0.396,0.12,0.421,0.327l0.602,4.808c0.025,0.207-0.121,0.395-0.328,0.421
					C79.668,56.017,79.651,56.018,79.636,56.018"/>
			</g>
		</g>
	</g>
	<g opacity="0.8">
		<g>
			<defs>
				<rect id="SVGID_3_" x="79.977" y="59.679" width="1.354" height="5.56"/>
			</defs>
			<clipPath id="SVGID_4_">
				<use xlink:href="#SVGID_3_"  overflow="visible"/>
			</clipPath>
			<g clip-path="url(#SVGID_4_)">
				<path fill="#575757" d="M80.953,65.242c-0.187,0-0.35-0.14-0.374-0.33l-0.601-4.808c-0.025-0.207,0.121-0.396,0.328-0.422
					c0.205-0.027,0.396,0.121,0.421,0.328l0.601,4.807c0.026,0.207-0.121,0.396-0.327,0.422
					C80.984,65.241,80.97,65.242,80.953,65.242"/>
			</g>
		</g>
	</g>
	<g opacity="0.8">
		<g>
			<defs>
				<rect id="SVGID_5_" x="81.294" y="68.909" width="1.355" height="5.56"/>
			</defs>
			<clipPath id="SVGID_6_">
				<use xlink:href="#SVGID_5_"  overflow="visible"/>
			</clipPath>
			<g clip-path="url(#SVGID_6_)">
				<path fill="#575757" d="M82.271,74.467c-0.187,0-0.35-0.14-0.374-0.331l-0.6-4.807c-0.026-0.207,0.12-0.396,0.328-0.423
					c0.204-0.023,0.395,0.121,0.421,0.328l0.6,4.808c0.026,0.207-0.121,0.396-0.327,0.422
					C82.303,74.466,82.287,74.467,82.271,74.467"/>
			</g>
		</g>
	</g>
	<g opacity="0.8">
		<g>
			<defs>
				<rect id="SVGID_7_" x="82.611" y="78.129" width="1.355" height="5.561"/>
			</defs>
			<clipPath id="SVGID_8_">
				<use xlink:href="#SVGID_7_"  overflow="visible"/>
			</clipPath>
			<g clip-path="url(#SVGID_8_)">
				<path fill="#575757" d="M83.589,83.691c-0.188,0-0.351-0.141-0.374-0.331l-0.601-4.808c-0.025-0.207,0.12-0.396,0.328-0.422
					c0.202-0.024,0.396,0.121,0.421,0.328l0.601,4.807c0.025,0.207-0.121,0.396-0.328,0.423
					C83.621,83.69,83.604,83.691,83.589,83.691"/>
			</g>
		</g>
	</g>
	<g opacity="0.7">
		<g>
			<defs>
				<rect id="SVGID_9_" x="86.249" y="66.67" width="15.105" height="15.1"/>
			</defs>
			<clipPath id="SVGID_10_">
				<use xlink:href="#SVGID_9_"  overflow="visible"/>
			</clipPath>
			<g clip-path="url(#SVGID_10_)">
				<path fill="#575757" d="M93.802,81.773c-4.165,0-7.553-3.388-7.553-7.553c0-4.164,3.388-7.553,7.553-7.553
					s7.553,3.389,7.553,7.553C101.354,78.386,97.967,81.773,93.802,81.773 M93.802,67.409c-3.755,0-6.811,3.056-6.811,6.812
					s3.056,6.812,6.811,6.812c3.756,0,6.813-3.056,6.813-6.812S97.558,67.409,93.802,67.409"/>
			</g>
		</g>
	</g>
	<g opacity="0.7">
		<g>
			<defs>
				<rect id="SVGID_11_" x="86.673" y="70.239" width="7.969" height="6.4"/>
			</defs>
			<clipPath id="SVGID_12_">
				<use xlink:href="#SVGID_11_"  overflow="visible"/>
			</clipPath>
			<g clip-path="url(#SVGID_12_)">
				<path fill="#575757" d="M86.962,76.638c-0.095,0-0.188-0.046-0.242-0.132c-0.087-0.133-0.048-0.313,0.086-0.398
					c0.101-0.064,0.996-0.618,1.586-0.203c0.145,0.102,0.184,0.08,0.199,0.07c0.084-0.05,0.199-0.212,0.32-0.384l0.026-0.039
					c0.315-0.446,0.684-0.858,1.235-0.858c0.213,0,0.383,0.091,0.514,0.191c0.021-0.479,0.066-1.166,0.619-1.166
					c0.1,0,0.234-0.037,0.378-0.078c0.384-0.107,0.91-0.255,1.373,0.185c0.282,0.266,0.827,0.395,1.003,0.351
					c-0.006-0.02-0.016-0.051-0.037-0.093c-0.254-0.507-0.721-0.573-1.172-0.637c-0.115-0.017-0.223-0.032-0.318-0.054
					c-0.193-0.043-0.313-0.138-0.355-0.28c-0.066-0.224,0.092-0.384,0.23-0.526c0.086-0.086,0.227-0.23,0.219-0.309
					c-0.021-0.17-0.115-0.226-0.545-0.41c-0.121-0.053-0.254-0.11-0.4-0.18c-0.176-0.084-0.305-0.041-0.563,0.056
					c-0.338,0.127-0.802,0.301-1.469-0.032c-0.976-0.488-2.093-0.904-2.104-0.909c-0.149-0.055-0.226-0.221-0.17-0.37
					c0.056-0.148,0.222-0.226,0.371-0.17c0.047,0.019,1.158,0.432,2.16,0.935c0.442,0.221,0.704,0.122,1.008,0.008
					c0.272-0.103,0.61-0.231,1.015-0.036c0.139,0.066,0.265,0.12,0.379,0.17c0.444,0.191,0.828,0.355,0.89,0.872
					c0.032,0.28-0.121,0.501-0.271,0.665c0.001,0,0.002,0,0.004,0.001c0.485,0.067,1.217,0.172,1.606,0.95
					c0.237,0.477,0.006,0.719-0.104,0.801c-0.438,0.325-1.378-0.01-1.773-0.384c-0.216-0.205-0.453-0.151-0.822-0.047
					c-0.161,0.045-0.327,0.091-0.493,0.098c-0.062,0.12-0.078,0.491-0.085,0.656c-0.014,0.315-0.021,0.505-0.146,0.63
					c-0.262,0.262-0.549-0.021-0.642-0.113c-0.095-0.093-0.2-0.197-0.3-0.197c-0.237,0-0.452,0.172-0.764,0.615l-0.028,0.038
					c-0.165,0.234-0.307,0.437-0.499,0.548c-0.249,0.146-0.526,0.113-0.822-0.096c-0.217-0.152-0.737,0.085-0.941,0.217
					C87.068,76.623,87.015,76.638,86.962,76.638"/>
			</g>
		</g>
	</g>
	<g opacity="0.7">
		<g>
			<defs>
				<rect id="SVGID_13_" x="90.375" y="75.09" width="5.388" height="5.42"/>
			</defs>
			<clipPath id="SVGID_14_">
				<use xlink:href="#SVGID_13_"  overflow="visible"/>
			</clipPath>
			<g clip-path="url(#SVGID_14_)">
				<path fill="#575757" d="M92.025,80.506c-0.18,0-0.36-0.041-0.517-0.141c-0.197-0.125-0.43-0.392-0.412-0.943
					c0-0.021,0.004-0.044,0.009-0.064c0.06-0.226,0.153-0.91-0.179-1.098c-0.35-0.197-0.536-0.441-0.551-0.725
					c-0.016-0.275,0.144-0.545,0.445-0.762c0.169-0.119,0.32-0.388,0.454-0.623c0.11-0.195,0.216-0.381,0.343-0.521
					c0.248-0.272,0.635-0.253,0.916-0.24c0.081,0.003,0.202,0.009,0.239-0.001c0.197-0.146,0.683-0.497,1.397-0.139
					c0.131,0.064,0.279,0.128,0.431,0.193c0.601,0.256,1.282,0.547,1.144,1.107c-0.02,0.076-0.029,0.15-0.039,0.225
					c-0.047,0.347-0.11,0.819-0.901,1.037c-0.708,0.196-1.332,0.028-1.667-0.063c-0.002,0-0.002,0-0.004-0.001
					c-0.022,0.18-0.019,0.511-0.016,0.788l0.002,0.367c0,0.877,0,1.205-0.527,1.469C92.433,80.451,92.23,80.506,92.025,80.506
					 M91.671,79.468c0,0.151,0.026,0.334,0.147,0.412c0.136,0.086,0.367,0.052,0.517-0.022c0.193-0.097,0.209-0.104,0.209-0.953
					l-0.002-0.361c-0.008-0.723-0.012-1.121,0.222-1.314c0.094-0.076,0.213-0.104,0.336-0.082c0.05,0.01,0.112,0.027,0.187,0.047
					c0.303,0.082,0.809,0.218,1.364,0.064c0.425-0.118,0.442-0.256,0.483-0.559c0.014-0.094,0.027-0.19,0.052-0.287
					c-0.046-0.114-0.543-0.326-0.81-0.44c-0.162-0.067-0.322-0.137-0.461-0.207c-0.404-0.202-0.643-0.03-0.816,0.095
					c-0.176,0.125-0.378,0.116-0.592,0.105c-0.158-0.008-0.396-0.02-0.461,0.053c-0.086,0.094-0.174,0.25-0.27,0.417
					c-0.163,0.288-0.348,0.614-0.62,0.808c-0.155,0.111-0.208,0.211-0.204,0.262c0.002,0.054,0.071,0.148,0.258,0.254
					C91.935,78.168,91.723,79.25,91.671,79.468"/>
			</g>
		</g>
	</g>
	<g opacity="0.7">
		<g>
			<defs>
				<rect id="SVGID_15_" x="83.258" y="49.25" width="7.896" height="9.97"/>
			</defs>
			<clipPath id="SVGID_16_">
				<use xlink:href="#SVGID_15_"  overflow="visible"/>
			</clipPath>
			<g clip-path="url(#SVGID_16_)">
				<path fill="#575757" d="M85.93,59.225c-1.005,0-1.874-0.752-1.995-1.773l-0.662-5.572c-0.131-1.1,0.658-2.102,1.758-2.233
					l3.213-0.382c0.532-0.063,1.059,0.085,1.481,0.417c0.421,0.332,0.688,0.809,0.751,1.342l0.662,5.572
					c0.063,0.533-0.084,1.059-0.416,1.48c-0.332,0.421-0.809,0.688-1.343,0.752l-3.212,0.382
					C86.087,59.22,86.007,59.225,85.93,59.225 M88.483,49.826c-0.057,0-0.115,0.003-0.172,0.01l-3.213,0.382
					c-0.785,0.093-1.349,0.808-1.255,1.593l0.662,5.572c0.094,0.785,0.807,1.349,1.594,1.255l3.213-0.382
					c0.38-0.045,0.72-0.236,0.956-0.537c0.236-0.301,0.342-0.676,0.297-1.056l-0.661-5.572c-0.046-0.38-0.236-0.721-0.537-0.957
					C89.112,49.933,88.804,49.826,88.483,49.826"/>
			</g>
		</g>
	</g>
	<g>
		<path fill="#575757" d="M119.421,82.395c0.693-3.842-0.813-6.133-1.012-6.416l-5.449-10.323l-9.154-10.296
			c0.083,0.451,0.146,0.907,0.191,1.369l8.326,9.368l5.42,10.266l0.03,0.049c0.017,0.021,1.554,2.172,0.892,5.849
			c-0.698,3.871-2.229,16.729-2.244,16.857l-0.024,0.21l2.615,2.126l0.485-0.597l-2.289-1.858
			C117.411,97.311,118.775,85.973,119.421,82.395"/>
	</g>
	<g>
		<path fill="#575757" d="M108.022,70.098l-2.5-3.749c0.047,0.356,0.083,0.714,0.094,1.074c0.004,0.135-0.013,0.265-0.039,0.393
			l1.696,2.544l0.761,8.928l0.764-0.065L108.022,70.098z"/>
	</g>
	<g>
		<path fill="#FFFFFF" d="M106.167,95.629c-1.599-3.02-0.98,0.138-1.008,0.456c0.045,0.81-8.002-3.235-7.752,2.731
			c0.266,6.404,4.854,9.825,7.241,10.74c3.013,1.154,5.905,3.03,6.026,3.109l-0.42,0.644c-0.028-0.019-2.946-1.912-5.881-3.036
			c-3.553-1.359-7.488-5.516-7.735-11.425c-0.253-6.063-1.333-25.206-1.345-25.397v-0.024v-0.024
			c0.004-0.039,0.33-4.055,4.527-4.262c4.184-0.206,4.934,3.477,4.939,3.514l0.007,0.045l0.832,12.033l0.306,3.836l-0.945-2.179
			l-0.127-1.601"/>
	</g>
	<g>
		<path fill="#575757" d="M110.255,113.31c-0.028-0.019-2.946-1.912-5.881-3.036c-3.553-1.359-7.488-5.516-7.735-11.425
			c-0.253-6.063-1.333-25.206-1.343-25.397l-0.002-0.024l0.002-0.024c0.002-0.039,0.328-4.055,4.524-4.262
			c4.185-0.206,4.935,3.477,4.94,3.514l0.007,0.045l0.832,12.033l0.127,1.596l-0.765,0.063l-0.129-1.602l-0.83-12.013
			c-0.062-0.282-0.736-3.032-4.145-2.868c-3.412,0.168-3.768,3.207-3.795,3.525c0.046,0.811,1.094,19.417,1.343,25.383
			c0.267,6.404,4.854,9.826,7.243,10.74c3.012,1.154,5.904,3.03,6.025,3.109L110.255,113.31z"/>
	</g>
	<g>
		<path fill="#1167B1" d="M105.446,59.533c-0.305,0-0.662-0.034-1.074-0.103c-0.158-0.026-0.264-0.175-0.237-0.332
			c0.026-0.157,0.177-0.263,0.331-0.237c1.393,0.232,1.673-0.033,1.703-0.069c0.017-0.14,0.134-0.25,0.277-0.255
			c0.176-0.01,0.293,0.121,0.297,0.28c0.004,0.114-0.051,0.286-0.213,0.428C106.311,59.437,105.952,59.533,105.446,59.533
			 M106.167,58.833L106.167,58.833L106.167,58.833z M106.167,58.832L106.167,58.832L106.167,58.832z"/>
	</g>
	<g>
		<path fill="#575757" d="M99.155,83.216c-0.152,0-0.279-0.12-0.287-0.275c-0.008-0.157,0.115-0.293,0.275-0.301l2.918-0.14
			c0.145-0.008,0.293,0.115,0.301,0.275c0.008,0.158-0.115,0.293-0.274,0.301l-2.918,0.14
			C99.165,83.216,99.161,83.216,99.155,83.216"/>
	</g>
	<g>
		<path fill="#523D66" d="M143.832,66.947h14.863c0.198,0,0.362-0.162,0.362-0.361s-0.164-0.362-0.362-0.362h-14.863
			c-0.198,0-0.362,0.163-0.362,0.362S143.634,66.947,143.832,66.947"/>
	</g>
	<g>
		<path fill="#523D66" d="M137.365,62.84h8.673c0.199,0,0.362-0.163,0.362-0.361c0-0.199-0.163-0.363-0.362-0.363h-8.673
			c-0.198,0-0.362,0.164-0.362,0.363C137.003,62.677,137.167,62.84,137.365,62.84"/>
	</g>
	<g>
		<path fill="#523D66" d="M147.654,62.84h2.484c0.198,0,0.362-0.163,0.362-0.361c0-0.199-0.164-0.363-0.362-0.363h-2.484
			c-0.198,0-0.362,0.164-0.362,0.363C147.292,62.677,147.456,62.84,147.654,62.84"/>
	</g>
	<g>
		<path fill="#523D66" d="M14.119,58.268h14.862c0.199,0,0.362-0.163,0.362-0.362c0-0.2-0.163-0.362-0.362-0.362H14.119
			c-0.199,0-0.362,0.162-0.362,0.362C13.757,58.104,13.92,58.268,14.119,58.268"/>
	</g>
	<g>
		<path fill="#523D66" d="M7.651,54.16h8.673c0.2,0,0.362-0.163,0.362-0.362c0-0.199-0.162-0.362-0.362-0.362H7.651
			c-0.198,0-0.361,0.163-0.361,0.362C7.29,53.997,7.453,54.16,7.651,54.16"/>
	</g>
	<g>
		<path fill="#523D66" d="M17.94,54.16h2.484c0.199,0,0.362-0.163,0.362-0.362c0-0.199-0.163-0.362-0.362-0.362H17.94
			c-0.198,0-0.361,0.163-0.361,0.362C17.579,53.997,17.742,54.16,17.94,54.16"/>
	</g>
	<g>
		<path fill="#F68D52" d="M113.511,48.935c-1.271,0-2.307-1.035-2.307-2.307s1.035-2.307,2.307-2.307s2.307,1.035,2.307,2.307
			S114.782,48.935,113.511,48.935z M113.511,45.32c-0.721,0-1.307,0.586-1.307,1.307s0.586,1.307,1.307,1.307
			s1.307-0.586,1.307-1.307S114.231,45.32,113.511,45.32z"/>
	</g>
	<g>
		<rect x="127.368" y="58.334" fill="#F68D52" width="4.203" height="1"/>
	</g>
	<g>
		<rect x="128.97" y="56.732" fill="#F68D52" width="1" height="4.204"/>
	</g>
	<g>
		<path fill="#575757" d="M100.3,77.244c-2.348,0-3.08-2.362-3.086-2.387c-0.008-0.023-0.012-0.048-0.014-0.072l-0.092-2.641
			c-0.004-0.107,0.055-0.21,0.148-0.263c0.106-0.058,2.608-1.394,5.574-0.199c0.101,0.041,0.17,0.135,0.178,0.244l0.186,2.271
			c0.003,0.023,0.002,0.049-0.003,0.072c-0.021,0.117-0.528,2.868-2.726,2.971C100.409,77.242,100.354,77.244,100.3,77.244
			 M97.775,74.726c0.093,0.274,0.753,2.024,2.664,1.938c1.623-0.074,2.117-2.168,2.179-2.461l-0.168-2.051
			c-2.236-0.826-4.203-0.089-4.76,0.16L97.775,74.726z"/>
	</g>
	<g>
		<path fill="#575757" d="M107.485,121.969l-0.107-0.217c-0.078-0.158-1.877-3.941,1.628-8.261
			c3.347-4.128,10.372-13.119,10.442-13.209c0.027-0.042,1.056-1.539,2.637-1.796c0.849-0.139,1.68,0.102,2.474,0.711
			c2.792,2.141,27.86,21.435,28.114,21.63l0.88,0.677L107.485,121.969z M122.54,99.217c-0.11,0-0.221,0.01-0.332,0.027
			c-1.258,0.204-2.131,1.477-2.139,1.489c-0.087,0.112-7.115,9.107-10.468,13.241c-2.762,3.407-1.937,6.399-1.626,7.222l43.35-0.438
			c-4.496-3.46-24.742-19.041-27.233-20.951C123.581,99.415,123.06,99.217,122.54,99.217"/>
	</g>
</g>
</svg>
