<?xml version="1.0" encoding="utf-8"?>
<!-- Generator: Adobe Illustrator 16.0.0, SVG Export Plug-In . SVG Version: 6.00 Build 0)  -->
<!DOCTYPE svg PUBLIC "-//W3C//DTD SVG 1.1//EN" "http://www.w3.org/Graphics/SVG/1.1/DTD/svg11.dtd">
<svg version="1.1" id="Layer_1" xmlns="http://www.w3.org/2000/svg" xmlns:xlink="http://www.w3.org/1999/xlink" x="0px" y="0px"
	 width="50.506px" height="10.793px" viewBox="0 0 50.506 10.793" enable-background="new 0 0 50.506 10.793" xml:space="preserve">
<g>
	<g>
		<path fill="#FFFFFF" d="M5.548,7.267l0.011,0.03c0.013,0.734-0.226,1.328-0.717,1.78C4.352,9.53,3.688,9.756,2.854,9.756
			c-0.849,0-1.536-0.286-2.063-0.858C0.264,8.325,0,7.593,0,6.702V5.314c0-0.888,0.261-1.62,0.781-2.196s1.2-0.864,2.038-0.864
			c0.857,0,1.533,0.219,2.025,0.656c0.492,0.438,0.731,1.037,0.719,1.798l-0.011,0.03H4.376c0-0.488-0.132-0.861-0.396-1.12
			C3.717,3.361,3.33,3.231,2.819,3.231c-0.494,0-0.886,0.196-1.175,0.588C1.356,4.212,1.212,4.707,1.212,5.304v1.397
			c0,0.604,0.146,1.103,0.44,1.495s0.694,0.588,1.202,0.588c0.497,0,0.875-0.13,1.134-0.391s0.388-0.636,0.388-1.127H5.548z"/>
		<path fill="#FFFFFF" d="M7.947,8.679h3.415v0.972H6.73V2.36h1.217V8.679z"/>
		<path fill="#FFFFFF" d="M17.805,6.662c0,0.891-0.28,1.63-0.839,2.216c-0.56,0.585-1.286,0.878-2.181,0.878
			c-0.872,0-1.581-0.293-2.129-0.878c-0.547-0.586-0.821-1.325-0.821-2.216V5.35c0-0.888,0.273-1.626,0.819-2.213
			s1.256-0.881,2.131-0.881c0.891,0,1.617,0.294,2.178,0.881s0.842,1.325,0.842,2.213V6.662z M16.588,5.339
			c0-0.607-0.162-1.106-0.486-1.497c-0.323-0.391-0.763-0.586-1.316-0.586c-0.538,0-0.961,0.195-1.27,0.586
			c-0.31,0.391-0.464,0.89-0.464,1.497v1.322c0,0.614,0.155,1.117,0.466,1.51c0.311,0.392,0.733,0.588,1.268,0.588
			c0.557,0,0.997-0.195,1.319-0.586s0.483-0.895,0.483-1.512V5.339z"/>
		<path fill="#FFFFFF" d="M22.937,7.778c0-0.304-0.107-0.553-0.322-0.747c-0.216-0.193-0.597-0.367-1.145-0.521
			c-0.784-0.217-1.39-0.501-1.815-0.854c-0.426-0.352-0.639-0.812-0.639-1.379c0-0.587,0.234-1.072,0.701-1.452
			c0.468-0.38,1.068-0.571,1.803-0.571c0.788,0,1.418,0.211,1.891,0.633s0.7,0.944,0.684,1.565l-0.01,0.03h-1.172
			c0-0.384-0.128-0.689-0.383-0.917c-0.256-0.227-0.596-0.341-1.02-0.341c-0.41,0-0.727,0.097-0.949,0.291
			c-0.222,0.194-0.333,0.444-0.333,0.751c0,0.28,0.122,0.511,0.366,0.693c0.243,0.182,0.647,0.354,1.212,0.518
			c0.764,0.214,1.347,0.505,1.747,0.874s0.601,0.84,0.601,1.415c0,0.604-0.236,1.086-0.711,1.447
			c-0.474,0.36-1.097,0.541-1.867,0.541c-0.741,0-1.388-0.197-1.938-0.591c-0.551-0.394-0.817-0.95-0.801-1.667l0.01-0.03h1.172
			c0,0.437,0.151,0.767,0.453,0.989c0.302,0.222,0.67,0.333,1.104,0.333c0.431,0,0.765-0.091,1.004-0.273
			C22.817,8.335,22.937,8.088,22.937,7.778z"/>
		<path fill="#FFFFFF" d="M29.471,6.371h-2.854v2.308h3.364v0.972H25.4V2.36h4.546v0.977h-3.329v2.058h2.854V6.371z"/>
	</g>
	<g>
		<path fill="#FFFFFF" d="M40.906,10.213l-0.58,0.58l-0.559-0.559l0.58-0.58L40.906,10.213z"/>
		<path fill="#FFFFFF" d="M42.277,8.842l-0.58,0.58l-0.559-0.559l0.58-0.58L42.277,8.842z"/>
		<path fill="#FFFFFF" d="M43.648,7.471l-0.58,0.58L42.51,7.493l0.58-0.58L43.648,7.471z"/>
		<path fill="#FFFFFF" d="M45.02,6.1l-0.58,0.58l-0.559-0.559l0.58-0.58L45.02,6.1z"/>
		<path fill="#FFFFFF" d="M46.391,4.729l-0.58,0.58L45.252,4.75l0.58-0.58L46.391,4.729z"/>
		<path fill="#FFFFFF" d="M47.762,3.358l-0.58,0.58l-0.559-0.559l0.58-0.58L47.762,3.358z"/>
		<path fill="#FFFFFF" d="M49.133,1.986l-0.58,0.58l-0.559-0.559l0.58-0.58L49.133,1.986z"/>
		<path fill="#FFFFFF" d="M50.504,0.616l-0.58,0.58l-0.559-0.559l0.58-0.58L50.504,0.616z"/>
	</g>
	<g>
		<path fill="#FFFFFF" d="M40.35,1.139l-0.58-0.58L40.328,0l0.58,0.58L40.35,1.139z"/>
		<path fill="#FFFFFF" d="M41.722,2.511l-0.58-0.58L41.7,1.372l0.58,0.58L41.722,2.511z"/>
		<path fill="#FFFFFF" d="M43.092,3.881l-0.58-0.58l0.559-0.559l0.58,0.58L43.092,3.881z"/>
		<path fill="#FFFFFF" d="M44.464,5.253l-0.58-0.58l0.559-0.559l0.58,0.58L44.464,5.253z"/>
		<path fill="#FFFFFF" d="M45.834,6.623l-0.58-0.58l0.559-0.559l0.58,0.58L45.834,6.623z"/>
		<path fill="#FFFFFF" d="M47.206,7.995l-0.58-0.58l0.559-0.559l0.58,0.58L47.206,7.995z"/>
		<path fill="#FFFFFF" d="M48.577,9.366l-0.58-0.58l0.559-0.559l0.58,0.58L48.577,9.366z"/>
		<path fill="#FFFFFF" d="M49.947,10.736l-0.58-0.58l0.559-0.559l0.58,0.58L49.947,10.736z"/>
	</g>
</g>
</svg>
