<?xml version="1.0" encoding="utf-8"?>
<!-- Generator: Adobe Illustrator 16.0.0, SVG Export Plug-In . SVG Version: 6.00 Build 0)  -->
<!DOCTYPE svg PUBLIC "-//W3C//DTD SVG 1.1//EN" "http://www.w3.org/Graphics/SVG/1.1/DTD/svg11.dtd">
<svg version="1.1" id="Layer_1" xmlns="http://www.w3.org/2000/svg" xmlns:xlink="http://www.w3.org/1999/xlink" x="0px" y="0px"
	 width="377.783px" height="140.524px" viewBox="0 0 377.783 140.524" enable-background="new 0 0 377.783 140.524"
	 xml:space="preserve">
<g>
	<path fill="#F27024" d="M111.35,115.505c0,0-6.51-1.428-6.665-1.478c-0.578-0.146-1.337-0.313-2.075-1.896
		c-0.299-0.658-2.428-5.336-2.695-5.933c-0.271-0.65-1.289-2.339-2.615,0.323c0,0-2.236,4.452-2.579,5.118
		c-0.075,0.147-0.709,1.985-2.892,1.931L85.5,113.62c0,0-3.808-0.019-1.396,2.421c2.337,2.377,4.095,4.439,4.671,5.092
		c0.596,0.699,0.95,1.866,0.615,2.899c-0.164,0.494-1.372,5.004-1.624,6.094c0,0-1.112,3.429,2.391,1.797
		c0,0,6.044-2.605,6.147-2.663c0.086-0.047,1.202-0.589,2.542,0.36c1.653,1.178,6.097,3.677,5.156,3.14
		c0.78,0.437,2.635,1.575,2.337-1.428c0,0-0.303-3.976-0.368-5.658c-0.052-1.171-0.1-1.927,1.484-3.251l4.792-4.307
		C112.247,118.116,114.537,116.242,111.35,115.505"/>
	<path fill="#F27024" d="M136.813,68.009c0,0-10.14-2.313-10.38-2.389c-0.905-0.245-2.083-0.505-3.203-2.989
		c-0.465-1.038-3.718-8.377-4.125-9.293c-0.412-1.03-1.977-3.66-4.091,0.478c0,0-3.555,6.898-4.092,7.935
		c-0.114,0.239-1.131,3.099-4.54,2.992l-9.863-0.033c0,0-5.941-0.076-2.221,3.783c3.622,3.731,6.344,6.952,7.218,7.998
		c0.923,1.089,1.46,2.905,0.907,4.533c-0.24,0.76-2.198,7.776-2.593,9.467c0,0-1.787,5.343,3.707,2.848c0,0,9.446-3.993,9.608-4.079
		c0.149-0.065,1.892-0.891,3.969,0.603c2.548,1.85,9.449,5.813,8.012,4.96c1.196,0.702,4.089,2.491,3.666-2.195
		c0,0-0.429-6.199-0.491-8.848c-0.076-1.812-0.14-2.992,2.342-5.025l7.528-6.661C138.171,72.092,141.767,69.205,136.813,68.009"/>
	<path fill="#FAAE1B" d="M370.775,78.185c0,0-0.965,0.421-0.593-0.646c0,0,0.59-1.841,0.603-1.878
		c0.013-0.028,0.136-0.369-0.176-0.729c-0.141-0.155-0.921-1.214-1.069-1.416c-0.153-0.217-0.537-0.727,0.347-0.727
		c0,0,1.168-0.022,1.667-0.053c0.34-0.018,0.568-0.029,0.907-0.527l1.117-1.524c0,0,0.478-0.727,0.789,0.184
		c0,0,0.605,1.861,0.624,1.912c0.059,0.159,0.131,0.377,0.609,0.543c0.209,0.071,1.635,0.558,1.821,0.616
		c0.195,0.063,0.719,0.31-0.022,0.776c0,0-1.239,0.787-1.423,0.902c-0.042,0.021-0.557,0.265-0.479,0.899l0.173,1.849
		c0,0,0.116,1.108-0.67,0.479c-0.766-0.614-1.417-1.07-1.624-1.216c-0.217-0.151-0.571-0.224-0.868-0.096
		C372.375,77.593,371.087,78.078,370.775,78.185"/>
	<path fill="#F27024" d="M319.805,111.959c0.278-0.564,0-0.963-0.023-1c-0.028-0.033-1.415-2.177-1.415-2.177
		c-0.836-1.242,0.542-1.033,0.542-1.033c0.438,0.026,2.237,0.207,2.433,0.233c0.423,0.063,0.846-0.146,1.073-0.419
		c0.221-0.259,0.895-1.061,1.651-2.112c0.786-1.074,1.027,0.388,1.027,0.388l0.41,2.416c0.122,0.841,0.863,0.97,0.926,0.989
		c0.275,0.084,2.124,0.657,2.124,0.657c1.104,0.343,0.522,0.839,0.294,0.986c-0.217,0.134-1.872,1.249-2.105,1.405
		c-0.559,0.389-0.57,0.681-0.596,0.91c-0.008,0.068-0.141,2.652-0.141,2.652c-0.084,1.265-0.944,0.507-0.944,0.507l-1.947-1.563
		c-0.608-0.517-0.902-0.452-1.337-0.36c-0.643,0.131-2.15,0.502-2.15,0.502c-1.131,0.301-0.818-0.478-0.696-0.805
		C318.787,114.527,319.464,112.665,319.805,111.959"/>
	<path fill="#F27024" d="M78.546,6.995c-0.339,1.229,0.353,1.899,0.412,1.953c0.064,0.061,3.579,3.773,3.579,3.773
		c2.106,2.126-0.681,2.224-0.681,2.224c-0.865,0.104-4.477,0.415-4.874,0.434c-0.855,0.027-1.61,0.596-1.957,1.216
		c-0.326,0.589-1.354,2.419-2.465,4.761c-1.153,2.403-2.161-0.378-2.161-0.378l-1.695-4.6c-0.546-1.609-2.054-1.592-2.187-1.605
		c-0.571-0.062-4.407-0.521-4.407-0.521c-2.299-0.261-1.346-1.453-0.942-1.824c0.371-0.347,3.213-3.143,3.617-3.54
		c0.964-0.958,0.875-1.545,0.836-2.013c-0.006-0.128-0.697-5.261-0.697-5.261c-0.299-2.516,1.673-1.339,1.673-1.339l4.408,2.352
		c1.377,0.799,1.927,0.566,2.76,0.223c1.214-0.5,4.04-1.775,4.04-1.775c2.112-1.012,1.773,0.634,1.663,1.322
		C79.606,1.578,78.966,5.483,78.546,6.995"/>
	<path fill="#FAAE1B" d="M193.511,76.184c0.982-2.006,0.007-3.382-0.078-3.501c-0.095-0.122-4.953-7.652-4.953-7.652
		c-2.946-4.351,1.89-3.613,1.89-3.613c1.526,0.097,7.846,0.719,8.538,0.821c1.483,0.224,2.968-0.521,3.772-1.469
		c0.756-0.916,3.114-3.729,5.784-7.41c2.755-3.777,3.598,1.346,3.598,1.346l1.441,8.477c0.422,2.948,3.029,3.408,3.255,3.475
		c0.96,0.292,7.429,2.304,7.429,2.304c3.883,1.202,1.852,2.949,1.033,3.453c-0.745,0.477-6.549,4.383-7.372,4.938
		c-1.97,1.348-2.011,2.391-2.088,3.199c-0.033,0.229-0.498,9.297-0.498,9.297c-0.294,4.434-3.311,1.772-3.311,1.772l-6.84-5.47
		c-2.128-1.829-3.142-1.605-4.693-1.276c-2.255,0.466-7.535,1.759-7.535,1.759c-3.96,1.059-2.854-1.665-2.44-2.818
		C189.944,85.184,192.298,78.654,193.511,76.184"/>
	<path fill="#FAAE1B" d="M175.091,135.702c-0.082-1.013-0.786-1.324-0.849-1.353c-0.063-0.024-3.729-1.84-3.729-1.84
		c-2.168-1.016-0.103-1.858-0.103-1.858c0.622-0.317,3.243-1.55,3.537-1.673c0.633-0.259,1.042-0.897,1.135-1.456
		c0.083-0.534,0.35-2.189,0.535-4.256c0.198-2.122,1.725-0.314,1.725-0.314l2.543,2.985c0.853,1.058,1.985,0.628,2.089,0.602
		c0.444-0.108,3.448-0.834,3.448-0.834c1.803-0.436,1.414,0.723,1.213,1.112c-0.183,0.359-1.544,3.248-1.734,3.656
		c-0.458,0.989-0.228,1.407-0.073,1.742c0.041,0.096,1.979,3.758,1.979,3.758c0.92,1.805-0.886,1.467-0.886,1.467l-3.955-0.543
		c-1.262-0.219-1.605,0.105-2.138,0.597c-0.773,0.709-2.54,2.45-2.54,2.45c-1.306,1.34-1.509,0.014-1.615-0.534
		C175.798,140.064,175.195,136.954,175.091,135.702"/>
	<path fill="#F27024" d="M250.566,75.985c-0.278,0.57,0,0.968,0.023,1c0.028,0.037,1.415,2.185,1.415,2.185
		c0.839,1.242-0.542,1.03-0.542,1.03c-0.438-0.026-2.24-0.204-2.433-0.234c-0.426-0.063-0.85,0.147-1.078,0.42
		c-0.212,0.263-0.884,1.065-1.65,2.111c-0.784,1.075-1.023-0.384-1.023-0.384l-0.41-2.418c-0.122-0.835-0.867-0.972-0.926-0.989
		c-0.275-0.084-2.119-0.661-2.119-0.661c-1.108-0.334-0.528-0.836-0.294-0.978c0.213-0.14,1.865-1.25,2.104-1.411
		c0.557-0.382,0.567-0.68,0.589-0.907c0.013-0.067,0.144-2.654,0.144-2.654c0.084-1.265,0.948-0.506,0.948-0.506l1.949,1.563
		c0.607,0.518,0.894,0.454,1.336,0.359c0.641-0.131,2.144-0.504,2.144-0.504c1.133-0.298,0.818,0.479,0.696,0.811
		C251.584,73.421,250.911,75.287,250.566,75.985"/>
	<path fill="#FAAE1B" d="M265.065,111.654c-0.278,0.569,0,0.966,0.023,1c0.028,0.037,1.415,2.185,1.415,2.185
		c0.839,1.239-0.542,1.027-0.542,1.027c-0.439-0.023-2.24-0.201-2.433-0.231c-0.426-0.063-0.85,0.147-1.078,0.417
		c-0.212,0.266-0.884,1.068-1.65,2.114c-0.784,1.075-1.023-0.384-1.023-0.384l-0.41-2.418c-0.122-0.837-0.867-0.973-0.926-0.989
		c-0.275-0.084-2.119-0.661-2.119-0.661c-1.108-0.334-0.528-0.836-0.294-0.979c0.213-0.141,1.865-1.249,2.104-1.41
		c0.557-0.382,0.567-0.68,0.589-0.907c0.013-0.068,0.143-2.654,0.143-2.654c0.085-1.264,0.949-0.506,0.949-0.506l1.949,1.563
		c0.607,0.518,0.894,0.454,1.336,0.359c0.641-0.131,2.144-0.504,2.144-0.504c1.132-0.298,0.817,0.479,0.695,0.811
		C266.083,109.09,265.41,110.954,265.065,111.654"/>
	<path fill="#F27024" d="M207.977,101.555c-0.633-0.007-0.856-0.434-0.875-0.474c-0.02-0.041-1.303-2.248-1.303-2.248
		c-0.729-1.316-1.162,0.013-1.162,0.013c-0.174,0.403-0.835,2.082-0.9,2.272c-0.134,0.406-0.517,0.688-0.863,0.764
		c-0.329,0.078-1.351,0.312-2.633,0.512c-1.311,0.215-0.126,1.087-0.126,1.087l1.972,1.469c0.694,0.492,0.471,1.21,0.458,1.273
		c-0.047,0.285-0.373,2.189-0.373,2.189c-0.205,1.139,0.504,0.848,0.741,0.708c0.217-0.128,1.957-1.097,2.209-1.236
		c0.598-0.319,0.868-0.197,1.08-0.115c0.061,0.022,2.425,1.078,2.425,1.078c1.164,0.502,0.881-0.608,0.881-0.608l-0.504-2.446
		c-0.186-0.775,0-1.004,0.283-1.353c0.416-0.515,1.427-1.688,1.427-1.688c0.784-0.869-0.053-0.943-0.404-0.982
		C210.725,101.816,208.762,101.571,207.977,101.555"/>
	<path fill="#FAAE1B" d="M286.235,49.417c-0.637-0.007-0.86-0.432-0.88-0.471c-0.017-0.04-1.302-2.252-1.302-2.252
		c-0.719-1.312-1.161,0.01-1.161,0.01c-0.173,0.4-0.831,2.091-0.897,2.276c-0.137,0.408-0.517,0.688-0.863,0.768
		c-0.33,0.071-1.35,0.311-2.633,0.51c-1.315,0.21-0.12,1.086-0.12,1.086l1.963,1.469c0.692,0.485,0.474,1.209,0.46,1.276
		c-0.049,0.282-0.377,2.185-0.377,2.185c-0.202,1.14,0.501,0.846,0.741,0.705c0.221-0.125,1.961-1.091,2.214-1.232
		c0.593-0.323,0.863-0.2,1.082-0.111c0.059,0.021,2.423,1.078,2.423,1.078c1.164,0.498,0.883-0.613,0.883-0.613l-0.506-2.448
		c-0.188-0.772,0-1.002,0.282-1.351c0.417-0.509,1.424-1.686,1.424-1.686c0.787-0.867-0.051-0.941-0.4-0.986
		C288.985,49.677,287.021,49.431,286.235,49.417"/>
	<path fill="#FAAE1B" d="M146.738,121.858c-0.556,1.144-0.002,1.929,0.05,1.996c0.053,0.069,2.821,4.37,2.821,4.37
		c1.686,2.479-1.075,2.061-1.075,2.061c-0.869-0.057-4.478-0.415-4.87-0.47c-0.846-0.131-1.692,0.291-2.149,0.835
		c-0.434,0.52-1.776,2.127-3.295,4.228c-1.575,2.15-2.058-0.769-2.058-0.769l-0.819-4.836c-0.244-1.679-1.728-1.94-1.856-1.979
		c-0.55-0.167-4.235-1.318-4.235-1.318c-2.215-0.677-1.056-1.675-0.592-1.963c0.427-0.277,3.736-2.5,4.207-2.813
		c1.123-0.772,1.144-1.37,1.189-1.828c0.019-0.127,0.283-5.303,0.283-5.303c0.168-2.526,1.887-1.012,1.887-1.012l3.903,3.121
		c1.205,1.039,1.789,0.909,2.672,0.729c1.285-0.272,4.297-1.005,4.297-1.005c2.257-0.608,1.631,0.95,1.391,1.605
		C148.777,116.729,147.43,120.452,146.738,121.858"/>
	<path fill="#F27024" d="M22.227,104.236c0.167-0.613-0.178-0.952-0.209-0.981c-0.031-0.022-1.79-1.886-1.79-1.886
		c-1.056-1.063,0.342-1.111,0.342-1.111c0.433-0.051,2.238-0.209,2.435-0.216c0.431-0.014,0.806-0.299,0.982-0.61
		c0.162-0.296,0.677-1.206,1.234-2.379c0.57-1.202,1.078,0.189,1.078,0.189l0.846,2.303c0.275,0.803,1.029,0.795,1.098,0.803
		c0.282,0.03,2.201,0.255,2.201,0.255c1.15,0.134,0.67,0.73,0.469,0.915c-0.187,0.173-1.605,1.569-1.809,1.769
		c-0.481,0.483-0.436,0.773-0.414,1.006c0,0.064,0.345,2.634,0.345,2.634c0.153,1.259-0.833,0.67-0.833,0.67l-2.206-1.178
		c-0.692-0.399-0.962-0.28-1.38-0.11c-0.607,0.252-2.02,0.887-2.02,0.887c-1.054,0.504-0.885-0.313-0.831-0.665
		C21.696,106.942,22.014,104.991,22.227,104.236"/>
	<path fill="#FAAE1B" d="M31.956,72.484c-0.625,0.104-0.923-0.273-0.95-0.306c-0.023-0.037-1.692-1.971-1.692-1.971
		c-0.952-1.162-1.141,0.221-1.141,0.221c-0.094,0.43-0.438,2.211-0.466,2.403c-0.058,0.422-0.38,0.771-0.706,0.912
		c-0.312,0.132-1.273,0.552-2.492,0.986c-1.253,0.445,0.076,1.09,0.076,1.09l2.207,1.079c0.766,0.354,0.68,1.1,0.684,1.169
		c0.001,0.286,0.029,2.219,0.029,2.219c0.014,1.159,0.656,0.737,0.863,0.561c0.189-0.17,1.726-1.436,1.944-1.617
		c0.529-0.43,0.816-0.354,1.041-0.314c0.064,0.01,2.583,0.614,2.583,0.614c1.237,0.282,0.752-0.763,0.752-0.763l-0.946-2.311
		c-0.324-0.725-0.177-0.982,0.033-1.386c0.313-0.574,1.091-1.918,1.091-1.918c0.611-0.992-0.229-0.912-0.575-0.893
		C34.709,72.235,32.732,72.353,31.956,72.484"/>
	<path fill="#FAAE1B" d="M58.064,56.713c-0.334,1.229,0.356,1.898,0.414,1.956c0.065,0.058,3.576,3.772,3.576,3.772
		c2.111,2.128-0.675,2.229-0.675,2.229c-0.872,0.1-4.475,0.413-4.877,0.432c-0.852,0.026-1.611,0.595-1.958,1.218
		c-0.327,0.589-1.354,2.411-2.467,4.756c-1.15,2.403-2.155-0.375-2.155-0.375l-1.696-4.602c-0.548-1.604-2.058-1.591-2.19-1.604
		c-0.572-0.063-4.404-0.519-4.404-0.519c-2.304-0.262-1.347-1.457-0.941-1.825c0.368-0.351,3.21-3.144,3.614-3.54
		c0.963-0.965,0.875-1.549,0.833-2.012c-0.003-0.129-0.696-5.263-0.696-5.263c-0.295-2.515,1.675-1.34,1.675-1.34l4.407,2.349
		c1.375,0.801,1.927,0.568,2.763,0.229c1.213-0.504,4.038-1.782,4.038-1.782c2.106-1.012,1.776,0.635,1.661,1.327
		C59.124,51.294,58.485,55.201,58.064,56.713"/>
	<path fill="#F27024" d="M2.388,41.307c0.168-0.604-0.177-0.944-0.207-0.973c-0.032-0.031-1.787-1.886-1.787-1.886
		c-1.056-1.063,0.343-1.11,0.343-1.11c0.432-0.058,2.233-0.211,2.431-0.222c0.428-0.013,0.808-0.295,0.982-0.607
		c0.163-0.295,0.676-1.206,1.233-2.375c0.572-1.206,1.077,0.187,1.077,0.187l0.846,2.299c0.275,0.805,1.029,0.793,1.097,0.805
		c0.282,0.029,2.204,0.254,2.204,0.254c1.151,0.133,0.668,0.729,0.47,0.916c-0.186,0.172-1.605,1.567-1.81,1.767
		c-0.478,0.486-0.435,0.778-0.418,1.008c0.006,0.064,0.35,2.63,0.35,2.63c0.152,1.262-0.836,0.672-0.836,0.672L6.16,43.496
		c-0.691-0.401-0.964-0.284-1.379-0.112c-0.608,0.25-2.02,0.891-2.02,0.891c-1.057,0.501-0.892-0.316-0.831-0.667
		C1.858,44.02,2.18,42.066,2.388,41.307"/>
	<path fill="#FAAE1B" d="M36.862,24.309c0.172-0.612-0.177-0.946-0.208-0.977c-0.03-0.035-1.786-1.883-1.786-1.883
		c-1.053-1.065,0.339-1.112,0.339-1.112c0.435-0.057,2.239-0.212,2.438-0.222c0.427-0.015,0.803-0.301,0.978-0.609
		c0.164-0.296,0.678-1.209,1.234-2.377c0.578-1.203,1.078,0.184,1.078,0.184l0.848,2.309c0.273,0.798,1.029,0.791,1.096,0.798
		c0.285,0.031,2.205,0.26,2.205,0.26c1.149,0.134,0.668,0.729,0.471,0.909c-0.191,0.182-1.61,1.575-1.815,1.771
		c-0.476,0.484-0.434,0.777-0.416,1.009C43.33,24.432,43.673,27,43.673,27c0.152,1.258-0.839,0.666-0.839,0.666l-2.2-1.175
		c-0.689-0.396-0.965-0.279-1.378-0.106c-0.608,0.245-2.023,0.883-2.023,0.883c-1.053,0.506-0.89-0.315-0.829-0.661
		C36.335,27.021,36.655,25.066,36.862,24.309"/>
</g>
</svg>
