<?xml version="1.0" encoding="utf-8"?>
<!-- Generator: Adobe Illustrator 16.0.0, SVG Export Plug-In . SVG Version: 6.00 Build 0)  -->
<!DOCTYPE svg PUBLIC "-//W3C//DTD SVG 1.1//EN" "http://www.w3.org/Graphics/SVG/1.1/DTD/svg11.dtd">
<svg version="1.1" id="Layer_1" xmlns="http://www.w3.org/2000/svg" xmlns:xlink="http://www.w3.org/1999/xlink" x="0px" y="0px"
	 width="1023.95px" height="176.267px" viewBox="0 0 1023.95 176.267" enable-background="new 0 0 1023.95 176.267"
	 xml:space="preserve">
<path fill="#F16A9A" d="M108.657,144.872l34.213-21.5c-0.774-0.843-1.594-1.631-2.453-2.379l-31.693,19.918l-3.351,2.223
	c0.272,1.058,0.586,2.107,0.99,3.139l1.894-1.148L108.657,144.872z"/>
<path fill="#F16A9A" d="M167.005,132.007c-1.173-5.688-3.997-9.826-10.001-11.499c-0.03-0.009-5.565-1.547-11.236,6.777
	c-0.303-0.53-0.632-1.03-0.97-1.519l-36.838,23.643c0.085,0.134,0.159,0.271,0.25,0.402c-1.773,0.444-3.401,0.853-5.159,1.293
	c1.445-3.656,1.135-7.438,1.601-11.14c0.077,0.372,0.156,0.743,0.236,1.114l-0.142-1.4l33.239-20.837l-1.987-2.143l-32.126,19.686
	l-0.301-3.04l29.731-18.621l1.699,0.899l-0.485-0.521c1.306-1.701,2.358-3.58,3.318-5.518c1.559-3.15,2.76-6.436,3.608-9.848
	c0.871-3.51,1.363-7.055,0.95-10.672c-0.318-2.789-1.293-5.316-3.285-7.36c-1.841-1.89-4.103-2.633-6.717-2.333
	c-0.165,0.02-0.33,0.031-0.49,0.047c-4.785,1.866-6.567,4.809-6.567,4.809c-1.762,3.616-2.685,13.529-3.462,17.238l-0.498-0.535
	c0.863-3.078,0.804-6.273,0.254-9.478c-0.559-3.244-1.661-6.306-3.157-9.282c2.477-2.013,4.823-4.047,6.304-6.857
	c0.176-0.404,0.176-0.404,0.241-0.639c0.742-2.665,0.133-5.006-1.685-7.025c-2.498-2.776-5.723-4.385-9.259-5.311
	c-5.252-1.377-8.333,1.893-9.577,5.924c-0.598,1.938-0.828,3.938-0.781,5.969c0.002,0.076-0.042,0.152-0.063,0.224
	c-4.643,0.127-8.934,1.399-12.883,3.769c-3.962,2.375-7.11,5.58-9.409,9.621c-0.27-0.137-0.496-0.25-0.721-0.367
	c-2.366-1.233-4.827-2.08-7.546-2.052c-3.416,0.037-5.966,1.695-7.001,4.942c-1.185,3.714-1.288,7.52-0.093,11.258
	c1.099,3.443,4.552,5.553,8.137,5.104c0.664-0.082,1.335-0.185,1.97-0.385c1.714-0.539,3.409-1.14,5.17-1.734
	c3.858,5.313,8.6,9.606,15.306,11.391c-2.148,1.115-3.615,2.794-4.859,4.688c-2.463,3.752-4.01,7.896-5.126,12.213
	c-1.017,3.939-1.6,7.936-1.334,12.019c0.208,3.175,0.992,6.159,3.083,8.659c2.068,2.472,4.672,3.568,7.905,2.97
	c0.204-0.036,0.41-0.065,0.631-0.102c-0.003,0.1,0.004,0.161-0.007,0.221c-1.072,5.147,0.57,9.489,4.197,13.065
	c2.884,2.843,6.47,4.636,10.305,5.881c4.046,1.313,7.781,0.662,11.031-2.113c2.896-2.473,4.154-5.719,4.053-9.497
	c-0.103-3.83-0.243-7.657-0.368-11.504c1.335-0.665,2.774-1.36,4.191-2.097c1.147-0.598,2.311-1.178,3.391-1.883
	c1.72-1.125,3.384-2.338,5.06-3.529c1.032-0.735,0.979-0.674,2.067-0.037c3.333,1.947,6.603,4.036,10.077,5.693
	c5.752,2.742,12.235,0.332,14.949-4.926c0.449-0.871,0.796-1.82,1.017-2.839C167.629,139.287,167.751,135.632,167.005,132.007
	 M96.495,98.917c-1.351,0.771-3.177,0.277-3.949-1.068c-0.795-1.386-0.337-3.168,1.018-3.957c1.391-0.81,3.2-0.324,4.041,1.084
	C98.396,96.3,97.883,98.124,96.495,98.917 M105.04,87.231c1.391-0.81,3.201-0.324,4.042,1.084c0.791,1.324,0.277,3.148-1.112,3.941
	c-1.35,0.771-3.175,0.277-3.948-1.068C103.227,89.804,103.685,88.021,105.04,87.231 M103.923,119.104l16.139-9.65l4.306,0.1
	l-21.809,13.039L103.923,119.104z M103.32,126.576l24.041-14.816l3.054,1.224l-27.505,16.951L103.32,126.576z"/>
<path fill="#7A62AA" d="M129.92,73.417c-0.054,0.094-0.092,0.201-0.108,0.315c-0.084,0.589-0.165,1.181-0.239,1.772
	c-0.061,0.484,0.282,0.926,0.767,0.987c0.484,0.06,0.926-0.282,0.987-0.767c0.073-0.582,0.152-1.163,0.235-1.742
	c0.069-0.482-0.266-0.932-0.75-1C130.443,72.931,130.096,73.112,129.92,73.417"/>
<path fill="#7A62AA" d="M129.702,73.292c0.234-0.404,0.683-0.623,1.145-0.558c0.3,0.043,0.566,0.2,0.748,0.444
	c0.182,0.242,0.258,0.541,0.215,0.841c-0.083,0.577-0.161,1.157-0.234,1.737c-0.077,0.621-0.647,1.062-1.267,0.984
	c-0.622-0.078-1.064-0.646-0.985-1.268c0.073-0.594,0.154-1.186,0.239-1.776C129.583,73.554,129.63,73.417,129.702,73.292
	 M130.998,75.93c0.041-0.07,0.068-0.15,0.08-0.236c0.073-0.583,0.151-1.165,0.235-1.746c0.025-0.167-0.018-0.333-0.12-0.469
	c-0.101-0.135-0.25-0.224-0.417-0.247c-0.337-0.048-0.668,0.196-0.715,0.536c-0.085,0.588-0.166,1.178-0.24,1.769
	c-0.043,0.346,0.203,0.664,0.55,0.707C130.631,76.275,130.875,76.144,130.998,75.93"/>
<path fill="#7A62AA" d="M132.021,71.097c0.1-0.578,0.204-1.154,0.312-1.727c0.09-0.479-0.225-0.942-0.704-1.035
	c-0.379-0.07-0.748,0.111-0.931,0.43c-0.047,0.082-0.083,0.177-0.102,0.277c-0.11,0.58-0.217,1.166-0.318,1.754
	c-0.083,0.481,0.24,0.938,0.722,1.021C131.48,71.9,131.937,71.579,132.021,71.097"/>
<path fill="#7A62AA" d="M130.481,68.64c0.24-0.419,0.721-0.639,1.194-0.551c0.616,0.117,1.021,0.714,0.905,1.328
	c-0.108,0.57-0.212,1.145-0.312,1.722v0.001c-0.107,0.617-0.696,1.031-1.311,0.925c-0.299-0.052-0.56-0.216-0.735-0.464
	s-0.243-0.548-0.191-0.848c0.101-0.59,0.208-1.176,0.318-1.758C130.373,68.87,130.417,68.751,130.481,68.64 M131.774,71.054
	c0.1-0.58,0.204-1.157,0.312-1.73c0.065-0.344-0.162-0.676-0.504-0.74c-0.333-0.063-0.679,0.17-0.739,0.504
	c-0.11,0.582-0.216,1.164-0.318,1.752c-0.028,0.166,0.01,0.334,0.107,0.473c0.097,0.139,0.243,0.229,0.41,0.258
	C131.384,71.63,131.714,71.397,131.774,71.054"/>
<path fill="#7A62AA" d="M131.755,64.171c-0.033,0.058-0.062,0.122-0.081,0.188c-0.174,0.584-0.334,1.174-0.474,1.752
	c-0.115,0.477,0.177,0.953,0.652,1.067c0.474,0.116,0.951-0.175,1.066-0.649c0.134-0.551,0.284-1.108,0.45-1.662
	c0.14-0.467-0.127-0.961-0.594-1.102C132.374,63.646,131.955,63.823,131.755,64.171"/>
<path fill="#7A62AA" d="M131.538,64.046c0.263-0.457,0.8-0.672,1.307-0.521c0.601,0.18,0.943,0.815,0.764,1.414
	c-0.161,0.536-0.312,1.092-0.446,1.648c-0.149,0.609-0.764,0.982-1.369,0.836c-0.609-0.147-0.984-0.764-0.836-1.371
	c0.137-0.572,0.297-1.166,0.476-1.764C131.459,64.204,131.494,64.122,131.538,64.046 M132.609,66.635
	c0.029-0.052,0.052-0.107,0.066-0.167c0.137-0.564,0.289-1.128,0.453-1.674c0.1-0.334-0.091-0.688-0.426-0.788
	c-0.329-0.099-0.695,0.104-0.786,0.424c-0.177,0.591-0.334,1.176-0.471,1.739c-0.082,0.341,0.127,0.684,0.467,0.766
	C132.19,67.003,132.472,66.872,132.609,66.635"/>
<path fill="#7A62AA" d="M132.827,98.638c-0.187-0.532-0.361-1.082-0.523-1.635c-0.136-0.469-0.626-0.738-1.096-0.603
	c-0.228,0.066-0.408,0.216-0.52,0.409c-0.115,0.201-0.152,0.447-0.082,0.686c0.17,0.584,0.356,1.164,0.552,1.728
	c0.161,0.46,0.665,0.703,1.126,0.542C132.745,99.603,132.988,99.098,132.827,98.638"/>
<path fill="#7A62AA" d="M130.472,96.685c0.146-0.257,0.383-0.442,0.666-0.524c0.601-0.175,1.232,0.172,1.407,0.772
	c0.163,0.56,0.338,1.105,0.518,1.622c0.101,0.285,0.083,0.593-0.047,0.866c-0.134,0.277-0.363,0.48-0.649,0.58
	c-0.591,0.207-1.239-0.105-1.445-0.696c-0.203-0.579-0.39-1.165-0.557-1.739C130.278,97.269,130.315,96.954,130.472,96.685
	 M132.541,99.246c0.008-0.015,0.016-0.028,0.022-0.042c0.073-0.153,0.082-0.324,0.027-0.483c-0.185-0.526-0.361-1.079-0.527-1.647
	c-0.097-0.334-0.45-0.528-0.786-0.432c-0.322,0.094-0.524,0.461-0.429,0.783c0.164,0.566,0.348,1.143,0.547,1.715
	c0.115,0.328,0.477,0.502,0.806,0.387C132.346,99.476,132.465,99.378,132.541,99.246"/>
<path fill="#7A62AA" d="M144.226,113.859c0.261-0.423,0.132-0.96-0.282-1.218c-0.488-0.305-0.967-0.625-1.425-0.95
	c-0.398-0.282-0.95-0.19-1.232,0.208c-0.018,0.023-0.034,0.047-0.048,0.072c-0.224,0.39-0.119,0.895,0.255,1.16
	c0.487,0.346,0.996,0.686,1.513,1.01C143.421,114.4,143.967,114.274,144.226,113.859"/>
<path fill="#7A62AA" d="M141.022,111.847c0.02-0.034,0.04-0.066,0.063-0.098c0.358-0.505,1.068-0.625,1.579-0.263
	c0.451,0.322,0.926,0.638,1.413,0.94c0.537,0.336,0.682,1.013,0.363,1.564l-0.001,0.001c-0.161,0.257-0.412,0.437-0.708,0.505
	c-0.295,0.068-0.6,0.018-0.857-0.143c-0.525-0.329-1.038-0.671-1.525-1.018C140.87,112.996,140.728,112.355,141.022,111.847
	 M144.023,113.71c0.173-0.3,0.082-0.673-0.212-0.856c-0.495-0.308-0.978-0.63-1.437-0.958c-0.286-0.201-0.681-0.135-0.882,0.148
	l-0.035,0.053c-0.161,0.279-0.08,0.644,0.182,0.83c0.48,0.342,0.985,0.679,1.501,1.002c0.144,0.09,0.314,0.117,0.479,0.08
	c0.164-0.039,0.303-0.139,0.393-0.281C144.016,113.722,144.019,113.716,144.023,113.71"/>
<path fill="#7A62AA" d="M152.907,117.481c0.144-0.467-0.119-0.961-0.585-1.105c-0.562-0.172-1.11-0.352-1.644-0.541
	c-0.41-0.144-0.852,0.03-1.06,0.393c-0.027,0.047-0.051,0.096-0.068,0.148c-0.163,0.461,0.079,0.965,0.54,1.127
	c0.557,0.197,1.129,0.385,1.713,0.564C152.269,118.21,152.767,117.949,152.907,117.481"/>
<path fill="#7A62AA" d="M149.4,116.103c0.272-0.474,0.844-0.685,1.36-0.505c0.533,0.188,1.078,0.367,1.635,0.539
	c0.29,0.089,0.528,0.285,0.67,0.554c0.142,0.268,0.171,0.574,0.082,0.863c-0.086,0.289-0.28,0.527-0.548,0.67
	c-0.269,0.145-0.578,0.174-0.869,0.084c-0.589-0.181-1.163-0.369-1.724-0.568c-0.286-0.1-0.515-0.306-0.646-0.58
	c-0.132-0.272-0.148-0.58-0.047-0.867C149.336,116.226,149.365,116.163,149.4,116.103 M152.609,117.543
	c0.024-0.042,0.043-0.086,0.058-0.134v-0.002c0.05-0.162,0.034-0.332-0.045-0.482c-0.079-0.148-0.212-0.258-0.374-0.309
	c-0.565-0.172-1.117-0.354-1.655-0.545c-0.324-0.112-0.694,0.055-0.806,0.386c-0.057,0.161-0.048,0.334,0.025,0.485
	c0.073,0.153,0.201,0.268,0.36,0.324c0.556,0.195,1.124,0.383,1.705,0.561c0.163,0.051,0.336,0.033,0.486-0.047
	C152.467,117.725,152.551,117.643,152.609,117.543"/>
<path fill="#7A62AA" d="M130.292,91.778c-0.274,0.043-0.498,0.208-0.627,0.432c-0.098,0.17-0.14,0.373-0.106,0.58
	c0.095,0.597,0.204,1.196,0.324,1.777c0.097,0.479,0.566,0.786,1.044,0.689c0.478-0.1,0.787-0.567,0.688-1.045
	c-0.116-0.563-0.219-1.129-0.31-1.702C131.228,92.028,130.774,91.7,130.292,91.778"/>
<path fill="#7A62AA" d="M129.447,92.085c0.173-0.299,0.466-0.5,0.806-0.555c0.617-0.098,1.2,0.323,1.3,0.939
	c0.091,0.568,0.192,1.133,0.308,1.691c0.127,0.613-0.269,1.215-0.883,1.342c-0.614,0.125-1.215-0.271-1.341-0.885
	c-0.119-0.58-0.229-1.182-0.326-1.787C129.27,92.575,129.318,92.311,129.447,92.085 M131.297,94.706
	c0.074-0.13,0.104-0.287,0.072-0.442c-0.117-0.567-0.221-1.138-0.313-1.714c-0.056-0.344-0.381-0.578-0.726-0.523h-0.001
	c-0.332,0.053-0.577,0.391-0.523,0.725c0.095,0.6,0.204,1.193,0.322,1.767c0.069,0.342,0.405,0.563,0.748,0.493
	C131.061,94.973,131.21,94.856,131.297,94.706"/>
<path fill="#7A62AA" d="M148.452,115.944c0.197-0.447-0.005-0.969-0.451-1.167c-0.529-0.233-1.054-0.479-1.56-0.735
	c-0.421-0.211-0.93-0.055-1.163,0.348c-0.008,0.016-0.016,0.031-0.024,0.045c-0.219,0.438-0.044,0.969,0.392,1.188
	c0.533,0.267,1.084,0.527,1.64,0.773C147.733,116.593,148.261,116.388,148.452,115.944"/>
<path fill="#7A62AA" d="M145.061,114.265c0.299-0.52,0.955-0.717,1.492-0.446c0.5,0.251,1.021,0.496,1.548,0.729
	c0.572,0.254,0.832,0.924,0.581,1.496c-0.117,0.275-0.339,0.488-0.622,0.599c-0.285,0.112-0.596,0.106-0.875-0.017
	c-0.542-0.239-1.097-0.502-1.651-0.779c-0.559-0.28-0.784-0.964-0.505-1.524L145.061,114.265z M148.189,115.909
	c0.012-0.021,0.022-0.043,0.032-0.063l0.001-0.002c0.141-0.321-0.005-0.696-0.324-0.837c-0.535-0.236-1.063-0.484-1.569-0.74
	c-0.3-0.15-0.666-0.041-0.833,0.249c-0.174,0.344-0.048,0.726,0.263,0.883c0.546,0.274,1.094,0.532,1.628,0.769
	c0.156,0.068,0.33,0.071,0.49,0.009C148.011,116.122,148.12,116.028,148.189,115.909"/>
<path fill="#7A62AA" d="M145.674,39.633c-0.305,0.497-0.615,0.991-0.931,1.485c-0.006,0.012-0.013,0.022-0.02,0.035
	c-0.235,0.407-0.11,0.932,0.291,1.186c0.413,0.263,0.958,0.141,1.221-0.271c0.32-0.502,0.636-1.007,0.947-1.513
	c0.278-0.407,0.125-0.96-0.291-1.216C146.474,39.085,145.93,39.216,145.674,39.633"/>
<path fill="#7A62AA" d="M144.506,41.028l0.033-0.055c0.309-0.483,0.618-0.977,0.922-1.473c0.326-0.533,1.026-0.701,1.561-0.376
	c0.271,0.167,0.463,0.438,0.528,0.745c0.062,0.292,0.006,0.589-0.16,0.827c-0.304,0.497-0.623,1.002-0.944,1.507
	c-0.336,0.527-1.038,0.682-1.566,0.346C144.366,42.224,144.202,41.556,144.506,41.028 M146.995,40.384
	c0.073-0.127,0.094-0.269,0.064-0.408c-0.037-0.174-0.146-0.328-0.299-0.422c-0.298-0.182-0.69-0.088-0.87,0.211
	c-0.307,0.496-0.619,0.994-0.934,1.489l-0.001,0.001c-0.184,0.318-0.091,0.69,0.194,0.871c0.295,0.188,0.687,0.102,0.874-0.191
	c0.321-0.502,0.636-1.006,0.945-1.51C146.977,40.411,146.986,40.397,146.995,40.384"/>
<path fill="#7A62AA" d="M151.433,26.803c-0.04,0.07-0.072,0.147-0.093,0.231c-0.133,0.545-0.287,1.102-0.456,1.656
	c-0.142,0.466,0.121,0.961,0.588,1.103c0.467,0.144,0.962-0.118,1.104-0.588c0.178-0.584,0.34-1.172,0.482-1.75
	c0.116-0.475-0.174-0.953-0.649-1.068C152.018,26.289,151.625,26.47,151.433,26.803"/>
<path fill="#7A62AA" d="M151.216,26.678c0.251-0.436,0.766-0.657,1.252-0.537c0.295,0.072,0.544,0.254,0.703,0.514
	c0.157,0.259,0.204,0.564,0.131,0.859c-0.14,0.573-0.304,1.167-0.485,1.764c-0.09,0.291-0.285,0.529-0.553,0.672
	c-0.268,0.142-0.576,0.171-0.865,0.082c-0.289-0.087-0.527-0.283-0.67-0.551s-0.173-0.574-0.085-0.865
	c0.169-0.549,0.321-1.101,0.452-1.642C151.123,26.869,151.163,26.769,151.216,26.678 M152.279,29.265
	c0.023-0.041,0.043-0.086,0.058-0.133c0.178-0.588,0.338-1.173,0.477-1.738c0.041-0.165,0.015-0.334-0.072-0.479
	c-0.089-0.144-0.228-0.246-0.393-0.286c-0.329-0.081-0.683,0.129-0.764,0.465c-0.134,0.547-0.289,1.11-0.46,1.668
	c-0.049,0.162-0.033,0.334,0.047,0.482s0.212,0.258,0.373,0.307c0.163,0.049,0.335,0.033,0.483-0.046
	C152.134,29.45,152.22,29.367,152.279,29.265"/>
<path fill="#7A62AA" d="M148.004,35.56c-0.006,0.011-0.012,0.021-0.017,0.031c-0.268,0.514-0.546,1.022-0.833,1.531
	c-0.239,0.424-0.087,0.965,0.338,1.202c0.425,0.24,0.977,0.105,1.204-0.337c0.293-0.521,0.58-1.048,0.858-1.576
	c0.225-0.432,0.059-0.967-0.374-1.193C148.759,34.997,148.24,35.149,148.004,35.56"/>
<path fill="#7A62AA" d="M147.786,35.435c0.306-0.529,0.969-0.723,1.511-0.439c0.268,0.141,0.467,0.378,0.557,0.668
	c0.09,0.289,0.062,0.596-0.078,0.863c-0.279,0.532-0.566,1.062-0.861,1.584c-0.137,0.254-0.363,0.448-0.649,0.534
	c-0.297,0.089-0.624,0.052-0.897-0.101c-0.264-0.148-0.455-0.391-0.536-0.682c-0.083-0.293-0.046-0.6,0.103-0.864
	c0.284-0.505,0.561-1.013,0.829-1.523L147.786,35.435z M148.458,37.897c0.005-0.008,0.01-0.016,0.014-0.024
	c0.297-0.527,0.582-1.052,0.858-1.578c0.078-0.15,0.094-0.321,0.044-0.481c-0.051-0.162-0.161-0.295-0.312-0.373
	c-0.301-0.158-0.671-0.051-0.841,0.244l-0.218-0.125l0.206,0.145c-0.27,0.52-0.549,1.029-0.836,1.541
	c-0.084,0.146-0.104,0.318-0.059,0.48c0.046,0.163,0.153,0.299,0.299,0.381c0.156,0.086,0.34,0.107,0.507,0.059
	C148.266,38.12,148.386,38.026,148.458,37.897"/>
<path fill="#7A62AA" d="M149.985,31.284c-0.021,0.035-0.039,0.073-0.055,0.113c-0.214,0.536-0.439,1.066-0.675,1.594
	c-0.201,0.444-0.001,0.969,0.444,1.168c0.445,0.201,0.974,0.006,1.169-0.445c0.247-0.549,0.481-1.104,0.705-1.661
	c0.18-0.454-0.041-0.968-0.494-1.148C150.665,30.739,150.202,30.909,149.985,31.284"/>
<path fill="#7A62AA" d="M149.767,31.159c0.28-0.486,0.884-0.695,1.404-0.488c0.282,0.113,0.502,0.326,0.622,0.605
	c0.121,0.278,0.124,0.587,0.012,0.868c-0.224,0.563-0.46,1.12-0.709,1.673c-0.119,0.271-0.338,0.485-0.619,0.594
	c-0.287,0.112-0.601,0.104-0.882-0.023c-0.275-0.123-0.487-0.348-0.595-0.631c-0.108-0.283-0.099-0.592,0.025-0.869
	c0.235-0.523,0.46-1.051,0.672-1.583C149.717,31.255,149.741,31.204,149.767,31.159 M150.604,33.68
	c0.012-0.021,0.023-0.042,0.032-0.063c0.248-0.552,0.482-1.102,0.703-1.656c0.063-0.157,0.06-0.33-0.006-0.485
	c-0.067-0.155-0.191-0.274-0.347-0.337c-0.318-0.127-0.69,0.017-0.822,0.352c-0.215,0.54-0.443,1.075-0.681,1.605
	c-0.069,0.154-0.074,0.326-0.014,0.482c0.061,0.159,0.178,0.283,0.332,0.353c0.158,0.071,0.333,0.075,0.493,0.014
	C150.427,33.893,150.535,33.8,150.604,33.68"/>
<path fill="#7A62AA" d="M152.183,22.156c-0.062,0.11-0.104,0.236-0.114,0.372c-0.044,0.566-0.106,1.137-0.186,1.701
	c-0.068,0.484,0.269,0.931,0.752,1c0.484,0.067,0.93-0.267,0.999-0.753c0.085-0.601,0.152-1.21,0.197-1.812
	c0.038-0.487-0.327-0.913-0.813-0.949C152.666,21.687,152.347,21.87,152.183,22.156"/>
<path fill="#7A62AA" d="M151.964,22.03c0.218-0.377,0.638-0.599,1.071-0.566c0.303,0.023,0.579,0.162,0.776,0.393
	c0.197,0.23,0.293,0.523,0.269,0.825c-0.045,0.611-0.113,1.227-0.199,1.83c-0.089,0.619-0.663,1.051-1.282,0.965
	c-0.301-0.042-0.566-0.2-0.748-0.441c-0.184-0.244-0.26-0.542-0.217-0.843c0.078-0.55,0.14-1.117,0.183-1.685
	C151.832,22.336,151.88,22.176,151.964,22.03 M153.307,24.667c0.039-0.068,0.066-0.144,0.078-0.226
	c0.085-0.592,0.151-1.197,0.196-1.796c0.013-0.169-0.041-0.333-0.15-0.461c-0.11-0.129-0.264-0.206-0.433-0.22
	c-0.335-0.026-0.651,0.236-0.679,0.584c-0.045,0.577-0.108,1.154-0.187,1.716c-0.024,0.167,0.019,0.334,0.121,0.469
	c0.102,0.136,0.249,0.223,0.417,0.247C152.933,25.017,153.182,24.885,153.307,24.667"/>
<path fill="#7A62AA" d="M137.932,51.456c-0.317,0.504-0.632,1.01-0.939,1.518l-0.01,0.017c-0.239,0.415-0.105,0.948,0.307,1.197
	c0.417,0.254,0.961,0.121,1.214-0.297c0.302-0.499,0.611-0.995,0.923-1.488c0.265-0.422,0.137-0.961-0.275-1.221
	C138.738,50.921,138.193,51.044,137.932,51.456"/>
<path fill="#7A62AA" d="M136.764,52.864c0.321-0.53,0.636-1.037,0.955-1.542c0.334-0.529,1.037-0.687,1.566-0.353
	c0.537,0.338,0.683,1.035,0.353,1.565c-0.311,0.493-0.618,0.988-0.92,1.485c-0.157,0.259-0.406,0.441-0.701,0.514
	c-0.294,0.073-0.6,0.025-0.858-0.132C136.636,54.085,136.458,53.396,136.764,52.864 M138.143,51.591
	c-0.317,0.502-0.63,1.006-0.937,1.512c-0.177,0.309-0.079,0.693,0.213,0.869c0.146,0.09,0.315,0.115,0.479,0.076
	c0.164-0.041,0.303-0.143,0.391-0.287c0.302-0.5,0.612-0.998,0.924-1.492c0.173-0.301,0.103-0.686-0.196-0.875
	C138.721,51.207,138.33,51.296,138.143,51.591"/>
<path fill="#7A62AA" d="M135.501,55.538l-0.008,0.012c-0.29,0.524-0.572,1.052-0.846,1.584c-0.223,0.434-0.052,0.967,0.381,1.19
	s0.956,0.054,1.191-0.381c0.265-0.517,0.54-1.028,0.822-1.536c0.235-0.427,0.082-0.965-0.345-1.201
	C136.273,54.972,135.741,55.12,135.501,55.538"/>
<path fill="#7A62AA" d="M135.275,55.427l0.009-0.014c0.307-0.535,0.995-0.727,1.534-0.428c0.548,0.305,0.746,0.996,0.443,1.543
	c-0.281,0.508-0.554,1.016-0.818,1.529c-0.295,0.563-0.974,0.775-1.529,0.49c-0.556-0.288-0.776-0.973-0.488-1.529
	c0.273-0.533,0.557-1.063,0.848-1.59L135.275,55.427z M135.99,57.841c0.003-0.006,0.006-0.012,0.009-0.018
	c0.264-0.513,0.539-1.026,0.823-1.537c0.169-0.306,0.059-0.692-0.247-0.861c-0.301-0.167-0.685-0.061-0.856,0.238l-0.007,0.012
	c-0.286,0.519-0.569,1.044-0.84,1.574c-0.16,0.31-0.038,0.692,0.272,0.852C135.448,58.258,135.815,58.143,135.99,57.841"/>
<path fill="#7A62AA" d="M137.789,109.997c0.426,0.428,0.872,0.849,1.327,1.25c0.365,0.323,0.925,0.289,1.248-0.076
	c0.325-0.367,0.288-0.926-0.077-1.248c-0.426-0.377-0.844-0.771-1.242-1.172c-0.345-0.348-0.904-0.349-1.25-0.006
	c-0.058,0.059-0.106,0.121-0.144,0.188C137.457,109.27,137.503,109.708,137.789,109.997"/>
<path fill="#7A62AA" d="M137.434,108.807c0.049-0.088,0.112-0.168,0.184-0.239c0.445-0.44,1.164-0.438,1.606,0.006
	c0.396,0.4,0.809,0.791,1.229,1.162c0.228,0.201,0.363,0.478,0.383,0.781c0.019,0.301-0.082,0.594-0.284,0.82
	c-0.413,0.469-1.133,0.514-1.602,0.1c-0.467-0.412-0.917-0.838-1.339-1.264C137.251,109.812,137.179,109.249,137.434,108.807
	 M140.251,110.899c0.062-0.106,0.09-0.228,0.082-0.353c-0.01-0.169-0.086-0.323-0.213-0.437c-0.428-0.377-0.849-0.775-1.254-1.183
	c-0.246-0.248-0.648-0.25-0.895-0.004c-0.243,0.244-0.244,0.655-0.004,0.896c0.414,0.418,0.856,0.836,1.314,1.24
	c0.262,0.231,0.663,0.206,0.894-0.056C140.205,110.972,140.23,110.937,140.251,110.899"/>
<path fill="#7A62AA" d="M143.145,43.575c-0.324,0.489-0.651,0.979-0.979,1.467c-0.011,0.017-0.022,0.035-0.032,0.052
	c-0.23,0.399-0.114,0.913,0.275,1.174c0.404,0.272,0.954,0.164,1.226-0.242c0.329-0.489,0.657-0.981,0.984-1.474
	c0.273-0.399,0.159-0.956-0.248-1.227C143.961,43.058,143.414,43.169,143.145,43.575"/>
<path fill="#7A62AA" d="M141.916,44.968c0.014-0.022,0.029-0.047,0.044-0.069c0.325-0.485,0.651-0.974,0.976-1.462
	c0.345-0.521,1.05-0.664,1.572-0.32c0.257,0.17,0.43,0.43,0.49,0.733c0.057,0.297-0.003,0.597-0.171,0.843
	c-0.326,0.491-0.654,0.982-0.984,1.473c-0.169,0.252-0.427,0.424-0.724,0.482c-0.297,0.059-0.599-0.002-0.851-0.171
	C141.774,46.146,141.62,45.482,141.916,44.968 M144.436,44.372c0.073-0.129,0.098-0.277,0.069-0.427
	c-0.034-0.17-0.131-0.315-0.273-0.409c-0.292-0.193-0.686-0.113-0.878,0.178c-0.325,0.49-0.651,0.979-0.979,1.468
	c-0.001,0.001-0.002,0.002-0.002,0.003c-0.186,0.324-0.099,0.691,0.175,0.875c0.14,0.095,0.309,0.128,0.474,0.096
	c0.167-0.033,0.31-0.129,0.404-0.27c0.329-0.49,0.657-0.981,0.984-1.473C144.418,44.398,144.426,44.386,144.436,44.372"/>
<path fill="#7A62AA" d="M140.524,47.49c-0.33,0.491-0.657,0.983-0.982,1.478c-0.01,0.016-0.02,0.03-0.029,0.047
	c-0.231,0.401-0.113,0.92,0.28,1.179c0.407,0.268,0.956,0.155,1.225-0.252c0.323-0.491,0.648-0.979,0.976-1.468
	c0.265-0.418,0.163-0.955-0.244-1.227C141.344,46.976,140.795,47.084,140.524,47.49"/>
<path fill="#7A62AA" d="M139.295,48.89l0.037-0.061c0.325-0.494,0.654-0.987,0.983-1.479c0.169-0.252,0.425-0.424,0.722-0.482
	c0.298-0.059,0.601,0.002,0.853,0.171c0.517,0.345,0.677,1.03,0.315,1.569c-0.33,0.492-0.655,0.98-0.978,1.471
	c-0.345,0.523-1.05,0.667-1.573,0.322C139.154,50.073,138.997,49.408,139.295,48.89 M141.8,48.308
	c0.17-0.293,0.091-0.664-0.189-0.852c-0.141-0.094-0.31-0.128-0.476-0.096c-0.165,0.033-0.309,0.129-0.403,0.27
	c-0.328,0.491-0.656,0.982-0.981,1.477c-0.001,0-0.001,0.002-0.002,0.002c-0.185,0.322-0.096,0.691,0.182,0.875
	c0.291,0.191,0.684,0.11,0.877-0.181c0.323-0.491,0.649-0.979,0.976-1.469C141.791,48.326,141.795,48.315,141.8,48.308"/>
<path fill="#7A62AA" d="M134.662,102.819c-0.269-0.498-0.526-1.013-0.766-1.531c-0.203-0.444-0.729-0.636-1.172-0.432
	c-0.173,0.08-0.307,0.208-0.396,0.361c-0.138,0.238-0.162,0.541-0.036,0.811c0.254,0.551,0.527,1.1,0.813,1.631
	c0.232,0.431,0.768,0.59,1.199,0.358C134.733,103.786,134.892,103.251,134.662,102.819"/>
<path fill="#7A62AA" d="M132.11,101.093c0.118-0.205,0.294-0.364,0.508-0.465c0.276-0.127,0.586-0.139,0.871-0.033
	c0.283,0.104,0.51,0.314,0.636,0.589c0.228,0.495,0.483,1.007,0.757,1.517l0.001,0.001c0.295,0.552,0.089,1.242-0.461,1.537
	c-0.267,0.144-0.575,0.176-0.867,0.088c-0.29-0.087-0.528-0.282-0.671-0.548c-0.288-0.534-0.564-1.088-0.82-1.645
	C131.909,101.802,131.926,101.412,132.11,101.093 M134.44,102.938c-0.279-0.52-0.538-1.039-0.771-1.545
	c-0.071-0.153-0.197-0.27-0.355-0.328c-0.159-0.059-0.331-0.053-0.486,0.02c-0.305,0.143-0.45,0.535-0.309,0.838
	c0.253,0.549,0.524,1.092,0.807,1.617c0.08,0.148,0.213,0.258,0.374,0.305c0.163,0.051,0.335,0.033,0.484-0.049
	C134.49,103.632,134.606,103.247,134.44,102.938"/>
<path fill="#7A62AA" d="M134.915,105.024c-0.111,0.076-0.2,0.176-0.265,0.287c-0.164,0.285-0.162,0.652,0.038,0.941
	c0.345,0.5,0.71,0.994,1.084,1.469c0.303,0.383,0.86,0.447,1.242,0.145c0.383-0.303,0.448-0.859,0.145-1.242
	c-0.35-0.443-0.691-0.906-1.014-1.373C135.869,104.849,135.318,104.747,134.915,105.024"/>
<path fill="#7A62AA" d="M134.433,105.186c0.083-0.145,0.2-0.271,0.339-0.368h0.001c0.25-0.172,0.552-0.236,0.849-0.182
	c0.298,0.055,0.558,0.223,0.73,0.473c0.319,0.465,0.657,0.922,1.003,1.359c0.39,0.492,0.307,1.206-0.186,1.596
	c-0.238,0.188-0.535,0.271-0.836,0.236c-0.301-0.035-0.57-0.186-0.757-0.423c-0.38-0.479-0.748-0.978-1.094-1.481
	C134.235,106.039,134.215,105.563,134.433,105.186 M135.058,105.231c-0.282,0.192-0.354,0.604-0.163,0.879
	c0.34,0.494,0.702,0.983,1.074,1.455c0.105,0.133,0.255,0.217,0.423,0.236s0.333-0.027,0.466-0.133
	c0.273-0.217,0.32-0.616,0.104-0.889c-0.353-0.447-0.698-0.914-1.024-1.387c-0.096-0.14-0.24-0.232-0.406-0.264
	C135.366,105.1,135.197,105.135,135.058,105.231"/>
<path fill="#7A62AA" d="M152.143,17.447c-0.088,0.153-0.131,0.333-0.114,0.522c0.052,0.566,0.088,1.142,0.104,1.709
	c0.016,0.488,0.424,0.871,0.911,0.858c0.488-0.015,0.871-0.423,0.858-0.911c-0.019-0.604-0.057-1.216-0.113-1.819
	c-0.044-0.485-0.474-0.844-0.961-0.798C152.531,17.034,152.282,17.207,152.143,17.447"/>
<path fill="#7A62AA" d="M151.925,17.322c0.186-0.321,0.515-0.532,0.88-0.564c0.622-0.058,1.177,0.401,1.236,1.025
	c0.054,0.606,0.092,1.223,0.112,1.834c0.017,0.627-0.478,1.151-1.101,1.169c-0.626,0.018-1.15-0.476-1.17-1.1
	c-0.016-0.56-0.05-1.13-0.103-1.693C151.757,17.758,151.808,17.526,151.925,17.322 M153.567,19.966
	c0.057-0.098,0.088-0.213,0.084-0.334c-0.019-0.6-0.057-1.207-0.11-1.803c-0.034-0.347-0.343-0.604-0.69-0.571
	c-0.334,0.029-0.602,0.352-0.572,0.688c0.054,0.575,0.089,1.155,0.105,1.725c0.011,0.348,0.304,0.624,0.654,0.614
	C153.264,20.278,153.461,20.151,153.567,19.966"/>
<path fill="#7A62AA" d="M151.316,12.813c-0.115,0.201-0.152,0.447-0.083,0.686c0.127,0.439,0.236,0.885,0.327,1.325l0.064,0.317
	c0.09,0.48,0.553,0.793,1.034,0.702c0.479-0.092,0.793-0.557,0.701-1.035l-0.067-0.339c-0.1-0.485-0.221-0.976-0.36-1.459
	c-0.135-0.469-0.625-0.74-1.095-0.605C151.608,12.47,151.426,12.621,151.316,12.813"/>
<path fill="#7A62AA" d="M151.099,12.687c0.147-0.255,0.384-0.44,0.67-0.523c0.291-0.084,0.597-0.05,0.863,0.097
	c0.265,0.147,0.458,0.388,0.541,0.68c0.138,0.478,0.262,0.975,0.364,1.477l0.068,0.341c0.058,0.3-0.01,0.599-0.174,0.852
	c-0.17,0.251-0.428,0.421-0.726,0.478c-0.299,0.057-0.601-0.006-0.851-0.175c-0.251-0.171-0.42-0.429-0.477-0.727l-0.063-0.313
	c-0.089-0.435-0.198-0.874-0.322-1.306C150.907,13.275,150.945,12.953,151.099,12.687 M153.04,15.29
	c0.076-0.132,0.103-0.285,0.073-0.435l-0.067-0.337c-0.101-0.487-0.22-0.972-0.355-1.438c-0.047-0.163-0.154-0.298-0.302-0.38
	c-0.148-0.081-0.32-0.1-0.482-0.054c-0.327,0.095-0.526,0.461-0.432,0.783c0.128,0.444,0.239,0.897,0.331,1.344l0.064,0.318
	c0.032,0.169,0.126,0.312,0.266,0.407c0.14,0.095,0.308,0.13,0.475,0.098c0.165-0.032,0.31-0.126,0.405-0.266
	C153.024,15.315,153.032,15.302,153.04,15.29"/>
<path fill="#7A62AA" d="M149.796,8.162c-0.141,0.082-0.25,0.195-0.325,0.326c-0.153,0.263-0.164,0.598-0.002,0.882
	c0.282,0.492,0.544,0.998,0.778,1.5c0.205,0.444,0.731,0.636,1.174,0.431c0.443-0.206,0.635-0.733,0.429-1.175
	c-0.255-0.548-0.54-1.099-0.848-1.636C150.761,8.066,150.221,7.92,149.796,8.162"/>
<path fill="#7A62AA" d="M149.253,8.362c0.1-0.172,0.244-0.317,0.418-0.417h0.001c0.542-0.311,1.237-0.123,1.549,0.42
	c0.312,0.546,0.6,1.103,0.857,1.656c0.128,0.275,0.141,0.583,0.036,0.867c-0.102,0.286-0.312,0.513-0.588,0.641
	c-0.276,0.128-0.584,0.14-0.869,0.036c-0.284-0.105-0.51-0.314-0.637-0.589c-0.237-0.505-0.495-1.004-0.769-1.481
	C149.052,9.146,149.053,8.712,149.253,8.362 M149.921,8.38c-0.293,0.169-0.401,0.574-0.234,0.865c0.28,0.489,0.546,1,0.788,1.519
	c0.071,0.155,0.197,0.271,0.355,0.329c0.159,0.058,0.331,0.052,0.486-0.02c0.153-0.07,0.269-0.199,0.328-0.357
	c0.057-0.159,0.049-0.33-0.022-0.483c-0.25-0.541-0.532-1.085-0.837-1.619C150.612,8.312,150.225,8.207,149.921,8.38"/>
<path fill="#7A62AA" d="M146.897,4.453c-0.073,0.066-0.133,0.141-0.18,0.222c-0.184,0.32-0.154,0.734,0.103,1.026
	c0.38,0.43,0.744,0.872,1.082,1.315c0.296,0.388,0.85,0.464,1.239,0.168c0.389-0.297,0.463-0.851,0.167-1.239
	c-0.364-0.477-0.755-0.953-1.162-1.414C147.823,4.164,147.264,4.128,146.897,4.453"/>
<path fill="#7A62AA" d="M146.5,4.549c0.06-0.106,0.138-0.201,0.23-0.284l0.001-0.001c0.228-0.201,0.52-0.301,0.822-0.283
	c0.303,0.019,0.58,0.155,0.782,0.383c0.411,0.466,0.806,0.946,1.172,1.427c0.184,0.242,0.263,0.539,0.223,0.84
	c-0.041,0.3-0.195,0.567-0.437,0.751c-0.242,0.184-0.54,0.263-0.84,0.222c-0.3-0.041-0.567-0.195-0.75-0.437
	c-0.332-0.435-0.693-0.872-1.071-1.3C146.31,5.5,146.256,4.972,146.5,4.549 M147.064,4.641c-0.256,0.231-0.28,0.639-0.056,0.895
	c0.386,0.437,0.754,0.883,1.094,1.328c0.103,0.134,0.251,0.221,0.419,0.244c0.167,0.023,0.333-0.022,0.468-0.124
	c0.133-0.103,0.221-0.251,0.243-0.419c0.023-0.167-0.022-0.334-0.123-0.467c-0.36-0.473-0.747-0.944-1.151-1.401
	c-0.112-0.127-0.267-0.203-0.435-0.213C147.354,4.473,147.191,4.528,147.064,4.641"/>
<path fill="#7A62AA" d="M143.388,1.312c-0.03,0.037-0.057,0.076-0.08,0.116c-0.213,0.37-0.131,0.85,0.212,1.128
	c0.446,0.36,0.883,0.736,1.301,1.116c0.36,0.329,0.919,0.304,1.248-0.057c0.331-0.361,0.303-0.921-0.058-1.249
	c-0.442-0.405-0.907-0.803-1.381-1.185C144.251,0.874,143.695,0.933,143.388,1.312"/>
<path fill="#7A62AA" d="M143.09,1.302c0.029-0.051,0.064-0.101,0.103-0.148c0.19-0.236,0.461-0.383,0.762-0.415
	c0.302-0.032,0.598,0.055,0.833,0.246c0.479,0.387,0.948,0.788,1.392,1.195c0.225,0.205,0.356,0.485,0.371,0.789
	c0.013,0.302-0.093,0.592-0.298,0.815c-0.203,0.224-0.482,0.355-0.785,0.368c-0.304,0.014-0.593-0.091-0.816-0.296
	c-0.435-0.394-0.869-0.766-1.29-1.105C142.925,2.397,142.812,1.788,143.09,1.302 M145.966,3.332c0.06-0.103,0.089-0.22,0.083-0.34
	c-0.008-0.17-0.081-0.327-0.207-0.441c-0.438-0.4-0.898-0.795-1.369-1.175c-0.132-0.107-0.296-0.155-0.465-0.137
	c-0.168,0.017-0.318,0.099-0.425,0.231h-0.001c-0.223,0.28-0.174,0.673,0.095,0.89c0.429,0.345,0.871,0.724,1.312,1.125
	c0.125,0.115,0.287,0.174,0.456,0.166c0.168-0.008,0.325-0.081,0.438-0.206C145.916,3.41,145.944,3.372,145.966,3.332"/>
<path fill="#7A62AA" d="M129.934,81.192c0.488,0.031,0.91-0.337,0.942-0.824c0.037-0.581,0.084-1.162,0.137-1.743
	c0.044-0.485-0.315-0.915-0.801-0.96c-0.355-0.031-0.679,0.151-0.846,0.441c-0.063,0.107-0.103,0.229-0.115,0.359
	c-0.053,0.594-0.1,1.189-0.14,1.785C129.079,80.738,129.448,81.159,129.934,81.192"/>
<path fill="#7A62AA" d="M129.147,77.98c0.22-0.382,0.647-0.604,1.086-0.565c0.624,0.057,1.085,0.61,1.03,1.232
	c-0.053,0.58-0.1,1.158-0.137,1.736c-0.039,0.625-0.582,1.099-1.208,1.06l-0.002-0.001c-0.623-0.042-1.097-0.584-1.056-1.207
	c0.04-0.6,0.086-1.196,0.142-1.793C129.018,78.278,129.066,78.123,129.147,77.98 M130.544,80.624
	c0.047-0.08,0.076-0.174,0.082-0.272c0.038-0.582,0.084-1.166,0.138-1.749c0.031-0.348-0.227-0.655-0.574-0.688
	c-0.336-0.029-0.657,0.235-0.688,0.573c-0.054,0.593-0.1,1.187-0.141,1.78c-0.022,0.347,0.243,0.648,0.589,0.673
	C130.2,80.957,130.427,80.827,130.544,80.624"/>
<path fill="#7A62AA" d="M129.845,85.903c0.488-0.001,0.882-0.399,0.881-0.889c-0.003-0.578,0.004-1.158,0.016-1.74
	c0.012-0.488-0.375-0.894-0.863-0.904c-0.335-0.008-0.63,0.172-0.786,0.443c-0.071,0.123-0.114,0.267-0.118,0.42
	c-0.014,0.598-0.021,1.195-0.018,1.789C128.959,85.513,129.357,85.905,129.845,85.903"/>
<path fill="#7A62AA" d="M128.875,82.688c0.207-0.361,0.595-0.578,1.011-0.568c0.303,0.006,0.585,0.131,0.794,0.35
	s0.32,0.508,0.314,0.811c-0.013,0.58-0.02,1.158-0.017,1.734c0.001,0.627-0.507,1.137-1.131,1.139
	c-0.625,0.004-1.137-0.504-1.14-1.129c-0.002-0.598,0.004-1.197,0.018-1.798C128.729,83.038,128.781,82.852,128.875,82.688
	 M130.391,85.334c0.054-0.093,0.084-0.202,0.084-0.317c-0.003-0.58,0.004-1.164,0.017-1.748c0.003-0.169-0.058-0.33-0.175-0.451
	c-0.116-0.123-0.274-0.191-0.443-0.195c-0.337-0.008-0.64,0.277-0.648,0.617c-0.014,0.596-0.021,1.189-0.018,1.783
	c0.002,0.349,0.287,0.631,0.636,0.629C130.077,85.651,130.281,85.522,130.391,85.334"/>
<path fill="#7A62AA" d="M129.072,88.409c-0.011,0.006-0.021,0.012-0.033,0.017c-0.049,0.024-0.093,0.052-0.135,0.083
	c0.109,0.523,0.22,1.048,0.325,1.574c0.01,0.002,0.019,0.006,0.028,0.008c0.151,0.336,0.502,0.553,0.888,0.517
	c0.487-0.045,0.845-0.474,0.798-0.962c-0.005-0.051-0.009-0.104-0.014-0.156c0,0,0.002,0,0.003-0.001
	c-0.01-0.022-0.024-0.04-0.031-0.067c-0.088-0.362-0.124-0.721-0.121-1.08c-0.071-0.271-0.1-0.565-0.103-0.83
	c-0.165-0.27-0.46-0.449-0.798-0.43c-0.31,0.019-0.572,0.192-0.715,0.442c-0.083,0.144-0.127,0.313-0.116,0.491
	C129.055,88.146,129.064,88.278,129.072,88.409"/>
<path fill="#7A62AA" d="M128.946,87.399c0.191-0.334,0.534-0.546,0.918-0.568c0.412-0.024,0.805,0.186,1.027,0.549l0.035,0.058
	l0.002,0.069c0.003,0.283,0.036,0.549,0.094,0.77l0.009,0.065c-0.002,0.36,0.035,0.694,0.114,1.021l0.112,0.223l-0.064,0.039
	c0.029,0.299-0.062,0.591-0.254,0.826c-0.194,0.234-0.468,0.379-0.772,0.408c-0.438,0.041-0.857-0.176-1.079-0.548l-0.073-0.015
	l-0.032-0.164c-0.077-0.389-0.159-0.776-0.24-1.163l-0.119-0.569l0.134-0.097c0.018-0.013,0.035-0.024,0.054-0.036l-0.015-0.236
	C128.784,87.81,128.834,87.591,128.946,87.399 M130.428,87.589c-0.129-0.174-0.324-0.27-0.534-0.258
	c-0.337,0.021-0.615,0.334-0.595,0.668l0.033,0.55l-0.144,0.084l0.048,0.233c0.073,0.352,0.146,0.703,0.217,1.055l0.034,0.068
	c0.11,0.246,0.366,0.394,0.635,0.369c0.17-0.017,0.323-0.098,0.431-0.228c0.105-0.13,0.156-0.293,0.141-0.461l-0.01-0.115
	c-0.01-0.021-0.019-0.044-0.026-0.071c-0.086-0.359-0.129-0.723-0.128-1.111C130.47,88.137,130.437,87.874,130.428,87.589"/>
<path fill="#7A62AA" d="M133.396,59.753c-0.016,0.027-0.03,0.057-0.043,0.086c-0.242,0.551-0.474,1.107-0.692,1.666
	c-0.178,0.456,0.046,0.969,0.502,1.146c0.454,0.179,0.971-0.047,1.144-0.502c0.209-0.537,0.432-1.069,0.665-1.599
	c0.195-0.446-0.008-0.968-0.454-1.165C134.1,59.202,133.618,59.366,133.396,59.753"/>
<path fill="#7A62AA" d="M133.177,59.627c0.29-0.503,0.911-0.706,1.442-0.471c0.572,0.252,0.834,0.923,0.582,1.495
	c-0.232,0.525-0.453,1.056-0.661,1.59c-0.107,0.279-0.318,0.502-0.595,0.624c-0.279,0.124-0.591,0.131-0.875,0.021
	c-0.583-0.229-0.872-0.888-0.645-1.472c0.22-0.563,0.454-1.122,0.697-1.676C133.139,59.699,133.157,59.663,133.177,59.627
	 M134.029,62.149c0.017-0.028,0.031-0.059,0.043-0.088c0.211-0.543,0.435-1.079,0.669-1.612c0.141-0.319-0.005-0.692-0.325-0.834
	c-0.318-0.14-0.686,0.003-0.835,0.325c-0.239,0.548-0.47,1.101-0.688,1.656c-0.127,0.326,0.034,0.693,0.36,0.821
	c0.159,0.063,0.333,0.058,0.489-0.012C133.865,62.353,133.965,62.263,134.029,62.149"/>
<path fill="#7A62AA" d="M898.374,107.628c-0.265,0-0.51-0.154-0.602-0.402L877.12,51.108c-0.115-0.313,0.061-0.654,0.393-0.764
	c0.331-0.108,0.693,0.058,0.809,0.371l20.653,56.115c0.115,0.313-0.06,0.655-0.392,0.764
	C898.514,107.617,898.442,107.628,898.374,107.628"/>
<path fill="#7A62AA" d="M942.825,107.628c-0.068,0-0.14-0.011-0.208-0.033c-0.332-0.108-0.508-0.451-0.394-0.764l20.654-56.115
	c0.115-0.313,0.477-0.479,0.809-0.371c0.332,0.109,0.508,0.451,0.394,0.764l-20.653,56.117
	C943.335,107.474,943.089,107.628,942.825,107.628"/>
<path fill="#7A62AA" d="M920.6,107.628c-0.353,0-0.637-0.269-0.637-0.6V73.954c0-0.331,0.284-0.6,0.637-0.6
	c0.352,0,0.637,0.269,0.637,0.6v33.074C921.236,107.359,920.951,107.628,920.6,107.628"/>
<path fill="#7A62AA" d="M958.337-4.994c-8.253-8.67-19.518-14.189-31.73-15.553c-0.254-0.095-0.542-0.071-0.772,0.071
	c-0.238,0.147-0.384,0.397-0.384,0.666v0.025c0,0.374,0.278,0.69,0.656,0.771C936.466-14.643,944-7.432,948.5,2.42
	c2.978,6.521,4.608,14.07,4.986,23.078c0.331,7.903-0.729,15.235-3.153,21.792c-1.962,5.307-4.823,10.137-8.504,14.358
	c-6.225,7.138-12.825,10.331-14.342,11.002l-0.067,0.01c-0.416,0.054-0.726,0.39-0.726,0.786v0.057c0,0.268,0.144,0.518,0.38,0.664
	c0.141,0.086,0.302,0.131,0.462,0.131c0.114,0,0.229-0.021,0.337-0.066c0,0,0.042-0.018,0.105-0.045
	c11.906-1.644,22.839-7.264,30.796-15.84c8.069-8.694,12.512-19.855,12.512-31.427C971.286,15.115,966.688,3.781,958.337-4.994"/>
<path fill="#7A62AA" d="M921.287,74.413c0.142-0.189,3.501-4.719,6.871-12.785v-0.001c3.81-9.115,6-18.806,6.513-28.801
	c0.699-13.644-1.802-27.469-7.436-41.089v-0.001c-1.775-4.293-3.702-8.29-5.891-12.219c-0.001-0.002-0.003-0.004-0.004-0.006
	c-0.013-0.023-0.03-0.045-0.045-0.067c-0.011-0.015-0.021-0.031-0.031-0.045c-0.016-0.019-0.035-0.036-0.052-0.053
	c-0.015-0.015-0.027-0.03-0.042-0.043c-0.021-0.017-0.042-0.032-0.064-0.047c-0.014-0.011-0.027-0.023-0.044-0.033
	c-0.021-0.014-0.046-0.024-0.068-0.036c-0.019-0.008-0.034-0.019-0.054-0.026c-0.019-0.009-0.041-0.014-0.062-0.021
	c-0.024-0.008-0.046-0.017-0.071-0.023c-0.002,0-0.004-0.002-0.007-0.002c-0.018-0.004-0.036-0.005-0.055-0.009
	c-0.025-0.004-0.052-0.009-0.077-0.011c-0.023-0.002-0.044,0-0.067-0.001c-0.023,0-0.048-0.001-0.073,0.001
	c-0.022,0.002-0.047,0.007-0.068,0.01c-0.021,0.004-0.042,0.005-0.063,0.01c-0.003,0.001-0.005,0.002-0.007,0.003
	c-0.021,0.004-0.04,0.012-0.061,0.019c-0.024,0.007-0.051,0.014-0.073,0.024c-0.013,0.005-0.025,0.013-0.037,0.019
	c-0.029,0.014-0.058,0.027-0.084,0.044c-0.01,0.006-0.02,0.015-0.03,0.022c-0.026,0.018-0.053,0.037-0.078,0.058
	c-0.012,0.011-0.022,0.024-0.035,0.036c-0.02,0.019-0.04,0.038-0.059,0.06c-0.01,0.014-0.02,0.03-0.031,0.045
	c-0.015,0.022-0.03,0.043-0.044,0.066c-0.002,0.002-0.003,0.004-0.005,0.006c-2.192,3.942-4.12,7.939-5.889,12.22
	c-5.633,13.62-8.135,27.445-7.436,41.089c0.513,9.995,2.703,19.686,6.514,28.801v0.001c3.37,8.066,6.728,12.596,6.869,12.785
	c0.002,0.002,0.004,0.004,0.006,0.007c0.005,0.006,0.011,0.013,0.016,0.019c0.02,0.023,0.04,0.047,0.062,0.067
	c0.009,0.009,0.019,0.017,0.026,0.024c0.022,0.02,0.043,0.037,0.067,0.054c0.009,0.007,0.017,0.015,0.027,0.021
	c0.032,0.021,0.066,0.041,0.102,0.059c0.004,0.001,0.008,0.002,0.011,0.004c0.034,0.016,0.068,0.029,0.103,0.039
	c0.005,0.002,0.01,0.005,0.015,0.006c0.006,0.002,0.013,0.003,0.021,0.005c0.026,0.007,0.056,0.013,0.083,0.019
	c0.012,0.002,0.023,0.004,0.034,0.006c0.038,0.005,0.076,0.008,0.116,0.008h0.001c0.04,0,0.078-0.003,0.116-0.008
	c0.01-0.002,0.022-0.004,0.034-0.006c0.028-0.006,0.057-0.012,0.084-0.019c0.007-0.002,0.014-0.003,0.02-0.005
	c0.005-0.001,0.01-0.004,0.015-0.006c0.035-0.012,0.069-0.023,0.104-0.04c0.002-0.001,0.005-0.002,0.008-0.003
	c0.035-0.018,0.07-0.037,0.104-0.059l0.026-0.02c0.023-0.018,0.046-0.035,0.067-0.055c0.008-0.008,0.017-0.016,0.026-0.024
	c0.021-0.021,0.042-0.043,0.061-0.067c0.005-0.006,0.011-0.013,0.018-0.02C921.284,74.417,921.286,74.415,921.287,74.413"/>
<path fill="#7A62AA" d="M913.78,72.66l-0.069-0.011c-1.518-0.672-8.119-3.865-14.34-11.002c-3.681-4.221-6.542-9.051-8.504-14.357
	c-2.425-6.557-3.486-13.889-3.155-21.791c0.379-9.009,2.01-16.558,4.988-23.079c4.5-9.852,12.034-17.063,22.392-21.433
	c0.378-0.082,0.655-0.398,0.655-0.772v-0.025c0-0.269-0.145-0.519-0.382-0.666c-0.231-0.141-0.52-0.166-0.773-0.071
	c-12.213,1.364-23.477,6.883-31.729,15.553c-8.353,8.775-12.95,20.109-12.95,31.914c0,11.572,4.443,22.731,12.511,31.427
	c7.958,8.575,18.89,14.196,30.796,15.84c0.063,0.026,0.102,0.043,0.102,0.043c0.108,0.045,0.225,0.067,0.341,0.067
	c0.158,0,0.314-0.042,0.453-0.124c0.236-0.143,0.384-0.389,0.389-0.654l0.001-0.057C914.513,73.06,914.202,72.716,913.78,72.66"/>
<path fill="#F16A9A" d="M927.873,88.458l-0.15,37.148c0,1.187-4.564,1.187-4.564-0.091c0-0.528-0.817-8.405-1.989-9.231v-0.031
	c-0.881-0.622-3.805-0.686-4.705,0.031c-1.171,0.826-1.988,8.703-1.988,9.231c0,1.277-4.564,1.277-4.564,0.091l0.342-12.914
	c-1.697-1.008-3.319-2.291-4.838-3.783l1.577-1.607l3.152-3.215c0.106,0.096,0.22,0.191,0.33,0.287l0.421-15.916
	c-0.01-5.499,1.716-7.61,2.264-7.624c0.499-0.04,1.476,1.8,1.831,2.819c1.946-1.203,6.751-1.149,8.789,0
	c0.355-1.02,1.331-2.859,1.83-2.819C926.158,80.848,927.884,82.959,927.873,88.458 M916.864,89.294c0-0.521-0.447-0.942-0.998-0.942
	s-0.999,0.421-0.999,0.942c0,0.52,0.448,0.941,0.999,0.941S916.864,89.813,916.864,89.294 M924.055,89.294
	c0-0.521-0.447-0.942-0.998-0.942c-0.553,0-0.998,0.421-0.998,0.942c0,0.52,0.445,0.941,0.998,0.941
	C923.607,90.235,924.055,89.813,924.055,89.294"/>
<path fill="#F16A9A" d="M902.557,91.831l-6.339,2.271c0.469,1.329,1.012,2.648,1.623,3.94l5.845-2.967
	C903.231,93.989,902.862,92.905,902.557,91.831"/>
<path fill="#F16A9A" d="M905.871,99.176c-0.628-0.948-1.167-1.905-1.631-2.865l-5.8,2.945c0.641,1.245,1.341,2.459,2.097,3.624
	L905.871,99.176z"/>
<path fill="#F16A9A" d="M909.144,103.142L909.144,103.142c-0.942-0.933-1.77-1.885-2.49-2.852l-5.354,3.718
	c0.978,1.397,2.032,2.714,3.155,3.917L909.144,103.142z"/>
<path fill="#F16A9A" d="M901.591,87.457l-3.868,0.911l-2.903,0.684c0.25,1.252,0.576,2.516,0.973,3.775l3.211-1.15l3.211-1.151
	C901.962,89.486,901.761,88.46,901.591,87.457"/>
<path fill="#F16A9A" d="M901.067,83.937c-0.055-0.391-0.107-0.764-0.162-1.126l-6.673,1.124c0.006,0.295,0.018,0.601,0.034,0.922
	c0.056,0.943,0.161,1.904,0.315,2.876l6.797-1.601C901.266,85.382,901.165,84.648,901.067,83.937"/>
<path fill="#F16A9A" d="M897.534,77.774c-1.74,0-3.082,1.186-3.277,4.799l6.423-1.08C900.225,79.208,899.501,77.774,897.534,77.774"
	/>
<path fill="#2BACE2" d="M925.855,93c0.35-0.027,1.035,1.265,1.284,1.981c1.433-0.808,4.808-0.846,6.175,0
	c0.249-0.717,0.935-2.009,1.285-1.981c0.386,0.01,1.598,1.493,1.591,5.354l0.296,11.182c0.077-0.067,0.156-0.135,0.23-0.202
	l2.216,2.259l1.107,1.13c-1.065,1.048-2.206,1.949-3.398,2.657l0.238,9.072c0,0.832-3.205,0.832-3.205-0.064
	c0-0.37-0.573-5.904-1.396-6.486c-0.631-0.502-2.687-0.457-3.305-0.021v0.021c-0.823,0.582-1.397,6.116-1.397,6.486
	c0,0.896-3.206,0.896-3.206,0.064l-0.107-26.098C924.256,94.493,925.468,93.01,925.855,93 M932.698,99.604
	c0.387,0,0.701-0.297,0.701-0.662c0-0.364-0.314-0.662-0.701-0.662s-0.7,0.298-0.7,0.662
	C931.998,99.308,932.312,99.604,932.698,99.604 M927.647,99.604c0.388,0,0.702-0.297,0.702-0.662c0-0.364-0.314-0.662-0.702-0.662
	s-0.7,0.298-0.7,0.662C926.947,99.308,927.26,99.604,927.647,99.604"/>
<path fill="#2BACE2" d="M942.049,100.726l4.453,1.596c-0.329,0.934-0.712,1.861-1.141,2.768l-4.105-2.085
	C941.574,102.242,941.834,101.479,942.049,100.726"/>
<path fill="#2BACE2" d="M939.721,105.885c0.439-0.666,0.818-1.338,1.146-2.013l4.073,2.068c-0.449,0.875-0.942,1.727-1.473,2.547
	L939.721,105.885z"/>
<path fill="#2BACE2" d="M937.422,108.671L937.422,108.671c0.662-0.655,1.241-1.324,1.749-2.003l3.761,2.61
	c-0.688,0.981-1.428,1.907-2.216,2.752L937.422,108.671z"/>
<path fill="#2BACE2" d="M942.728,97.653l2.717,0.64l2.04,0.481c-0.177,0.879-0.405,1.766-0.685,2.65l-2.256-0.809l-2.255-0.808
	C942.465,99.077,942.607,98.358,942.728,97.653"/>
<path fill="#2BACE2" d="M943.095,95.18c0.038-0.274,0.074-0.537,0.112-0.791l4.688,0.789c-0.004,0.208-0.012,0.422-0.025,0.647
	c-0.038,0.664-0.112,1.34-0.22,2.021l-4.775-1.125C942.954,96.195,943.026,95.68,943.095,95.18"/>
<path fill="#2BACE2" d="M945.577,90.851c1.223,0,2.165,0.833,2.302,3.372l-4.512-0.761
	C943.686,91.857,944.195,90.851,945.577,90.851"/>
<path fill="#7A62AA" d="M946.725,109.913c0,0.07-0.01,0.14-0.031,0.207l-6.468,22.545c-0.063,1.976-1.787,3.565-3.896,3.565H904.87
	c-2.11,0-3.834-1.59-3.896-3.565l-6.469-22.545c-0.021-0.067-0.03-0.137-0.03-0.207c0-2.029,1.749-3.68,3.898-3.68h44.453
	C944.976,106.233,946.725,107.884,946.725,109.913 M908.912,125.424c0.045-0.115,0.03-0.245-0.009-0.362
	c-0.129-0.389-0.511-0.646-0.885-0.852c-0.931-0.514-1.784-0.834-2.822-0.432c-0.342,0.135-0.648,0.397-0.724,0.74
	c-0.034,0.154-0.02,0.314,0.015,0.467c0.074,0.338,0.259,0.67,0.567,0.856c0.357,0.216,0.812,0.205,1.235,0.185
	c0.671-0.029,1.348-0.06,2-0.211C908.543,125.757,908.821,125.653,908.912,125.424 M913.282,116.261
	c0.961,0.086,1.944-0.063,2.83-0.425c0.73-0.3,1.474-0.899,1.387-1.646c-0.053-0.445-0.392-0.81-0.743-1.109
	c-0.821-0.701-1.937-1.25-3.009-0.994c-0.627,0.148-1.147,0.55-1.624,0.961c-0.381,0.329-0.777,0.732-0.931,1.21
	c-0.092,0.288-0.08,0.546,0.004,0.776C911.467,115.761,912.475,116.189,913.282,116.261 M917.252,129.651
	c-0.174-0.293-0.503-0.474-0.839-0.582c-0.672-0.218-1.441-0.189-2.064,0.129c-0.624,0.32-1.081,0.941-1.115,1.61
	c-0.049,0.892,0.765,1.836,1.777,1.69c0.348-0.049,0.637-0.28,0.974-0.369c0.577-0.154,1.055-0.126,1.352-0.707
	C917.597,130.913,917.549,130.151,917.252,129.651 M924.664,129.298c-0.115-0.135-0.292-0.215-0.473-0.242
	c-0.475-0.07-0.979,0.26-1.073,0.705c-0.025,0.121-0.021,0.254,0.047,0.359c0.065,0.101,0.183,0.162,0.299,0.207
	c0.228,0.092,0.473,0.142,0.72,0.148c0.121,0.004,0.249-0.006,0.347-0.07c0.079-0.053,0.131-0.135,0.17-0.218
	C924.839,129.903,924.871,129.542,924.664,129.298"/>
<rect x="862.935" y="1.358" fill="none" width="114.863" height="137.485"/>
<path fill="#2BACE2" d="M761.245,103.865c6.049,0,12.161-1.731,18.169-5.147c1.459-0.828,3.87-2.574,3.994-5.092
	c3.552,3.622,14.531,8.571,28.508,8.571c3.501,0,6.961-0.325,10.285-0.968c9.987-1.926,16.949-8.576,20.134-14.158
	c2.386-4.184,3.042-8.254,1.801-11.172l-0.085-0.198c-0.305-0.706-0.619-1.437-0.486-2.163c0.107-0.579,0.411-1.176,0.882-1.729
	c6.578-7.733,1.525-13.709-0.181-15.355c-2.382-2.299-5.915-3.619-9.69-3.619c-2.177,0-4.195,0.46-5.703,1.297
	c-1.267-4.238-5.399-8.938-11.09-12.598c-6.654-4.28-14.741-6.657-22.771-6.691l-0.241-0.002c-17.781,0-27.713,8.521-31.157,12.184
	c-3.385,3.598-5.302,7.477-5.036,10.17c-0.627-0.112-1.685-0.178-2.877-0.178c-2.592,0-9.27,0.318-15.327,3.268
	c-6.548,3.188-10.105,8.325-10.571,15.27c-0.39,5.801,2.825,12.881,8.39,18.478c6.308,6.341,14.492,9.833,23.051,9.834H761.245z"/>
<path fill="#F37024" d="M874.697,122.696c0,0-3.268-3.131-3.347-3.212c-0.275-0.292-0.657-0.65-0.486-1.792
	c0.063-0.477,0.605-3.826,0.687-4.242c0.087-0.46,0.126-1.756-1.668-0.762c0,0-3.003,1.656-3.448,1.902
	c-0.105,0.055-1.17,0.842-2.433,0.033l-3.716-2.251c0,0-2.23-1.366-1.747,0.843c0.463,2.158,0.715,3.918,0.794,4.48
	c0.085,0.596-0.145,1.375-0.745,1.834c-0.276,0.209-2.697,2.267-3.265,2.786c0,0-1.951,1.489,0.721,1.845
	c0,0,4.535,0.729,4.611,0.736c0.07,0.007,0.927,0.105,1.35,1.109c0.516,1.239,2.172,4.219,1.832,3.59
	c0.287,0.521,0.943,1.813,1.91,0.047c0,0,1.335-2.308,1.945-3.269c0.403-0.653,0.678-1.098,2.103-1.257l4.437-0.663
	C874.231,124.455,876.284,124.241,874.697,122.696"/>
<path fill="#75C044" d="M981.137,127.207c0,0,0.29-3.815,0.301-3.912c0.043-0.338,0.071-0.778,0.961-1.33
	c0.366-0.235,3-1.826,3.334-2.017c0.369-0.209,1.29-0.932-0.432-1.467c0,0-2.875-0.899-3.301-1.033
	c-0.099-0.033-1.256-0.236-1.423-1.481L980,112.381c0,0-0.336-2.162-1.589-0.593c-1.229,1.525-2.302,2.693-2.646,3.064
	c-0.364,0.396-1.036,0.703-1.699,0.596c-0.304-0.049-3.12-0.359-3.808-0.411c0,0-2.153-0.349-0.864,1.505
	c0,0,2.103,3.217,2.142,3.27c0.036,0.047,0.459,0.631,0.009,1.469c-0.563,1.031-1.674,3.767-1.434,3.195
	c-0.196,0.477-0.714,1.625,1.064,1.205c0,0,2.366-0.503,3.385-0.679c0.684-0.128,1.148-0.214,2.079,0.573l3.011,2.355
	C979.649,127.931,980.979,129.075,981.137,127.207"/>
<path fill="#F16A9A" d="M837.323,115.219c0,0-2.37,0.958-2.432,0.979c-0.215,0.076-0.486,0.19-1.076-0.123
	c-0.248-0.127-1.97-1.067-2.181-1.189c-0.233-0.137-0.935-0.417-0.753,0.658c0,0,0.3,1.795,0.344,2.061
	c0.01,0.063,0.225,0.739-0.472,1.191l-1.981,1.354c0,0-1.195,0.811,0.109,1.021c1.273,0.21,2.285,0.441,2.609,0.517
	c0.343,0.079,0.723,0.349,0.853,0.733c0.059,0.176,0.694,1.769,0.864,2.15c0,0,0.42,1.25,1.153,0.022c0,0,1.313-2.062,1.333-2.097
	c0.019-0.033,0.244-0.43,0.878-0.434c0.781-0.001,2.744-0.206,2.332-0.167c0.343-0.035,1.182-0.094,0.411-0.92
	c0,0-0.991-1.116-1.394-1.606c-0.277-0.328-0.464-0.552-0.264-1.276l0.533-2.293C838.191,115.801,838.488,114.759,837.323,115.219"
	/>
<path fill="#75C044" d="M860.733,91.381c0,0-1.491-2.867-1.526-2.94c-0.12-0.261-0.296-0.591,0.1-1.341
	c0.159-0.315,1.35-2.508,1.506-2.776c0.172-0.299,0.515-1.185-0.966-0.888c0,0-2.474,0.493-2.841,0.565
	c-0.086,0.015-1.01,0.328-1.686-0.504l-2.015-2.357c0,0-1.205-1.426-1.41,0.203c-0.206,1.589-0.46,2.855-0.542,3.262
	c-0.086,0.43-0.435,0.917-0.96,1.104c-0.241,0.085-2.411,0.979-2.931,1.215c0,0-1.708,0.604,0.048,1.428
	c0,0,2.951,1.485,3.002,1.508c0.048,0.02,0.614,0.272,0.661,1.057c0.055,0.966,0.474,3.38,0.392,2.871
	c0.07,0.422,0.209,1.455,1.305,0.447c0,0,1.482-1.302,2.137-1.832c0.438-0.365,0.734-0.611,1.756-0.412l3.222,0.504
	C859.984,92.493,861.452,92.79,860.733,91.381"/>
<path fill="#F16A9A" d="M988.457,99.23c0,0,2.186-0.699,2.239-0.718c0.192-0.071,0.446-0.149,0.641-0.691
	c0.084-0.225,0.635-1.82,0.698-2.021c0.068-0.223,0.359-0.805,0.919,0.014c0,0,0.937,1.365,1.076,1.566
	c0.033,0.047,0.318,0.619,1.069,0.527l2.176-0.215c0,0,1.312-0.135,0.575,0.74c-0.715,0.859-1.243,1.585-1.411,1.816
	c-0.178,0.246-0.26,0.641-0.103,0.969c0.072,0.151,0.658,1.571,0.787,1.922c0,0,0.512,1.068-0.755,0.664
	c0,0-2.182-0.631-2.217-0.645c-0.032-0.012-0.435-0.148-0.858,0.207c-0.522,0.441-1.959,1.41-1.66,1.204
	c-0.25,0.17-0.846,0.604-0.857-0.381c0,0-0.046-1.302-0.089-1.856c-0.023-0.375-0.04-0.629-0.632-0.998l-1.808-1.229
	C988.248,100.106,987.39,99.58,988.457,99.23"/>
<path fill="#2BACE2" d="M737.231,18.535c0,0,3.072-2.19,3.147-2.248c0.265-0.207,0.623-0.456,0.628-1.41
	c0.01-0.397-0.006-3.199-0.019-3.549c-0.013-0.386,0.122-1.452,1.463-0.434c0,0,2.245,1.699,2.577,1.949
	c0.08,0.058,0.849,0.822,1.987,0.305l3.327-1.419c0,0,2-0.864,1.322,0.889c-0.655,1.713-1.086,3.124-1.223,3.575
	c-0.146,0.479-0.058,1.143,0.375,1.586c0.199,0.203,1.917,2.162,2.314,2.652c0,0,1.407,1.44-0.824,1.428
	c0,0-3.806,0.079-3.868,0.077c-0.06-0.003-0.771-0.019-1.246,0.753c-0.58,0.956-2.317,3.204-1.958,2.729
	c-0.302,0.393-1.004,1.376-1.569-0.178c0,0-0.797-2.041-1.174-2.897c-0.247-0.581-0.413-0.975-1.559-1.268l-3.547-1.048
	C737.387,20.027,735.735,19.618,737.231,18.535"/>
<path fill="#FFFFFF" d="M926.947,98.942c0-0.365,0.313-0.662,0.7-0.662s0.701,0.297,0.701,0.662s-0.313,0.661-0.701,0.661
	S926.947,99.308,926.947,98.942"/>
<path fill="#FFFFFF" d="M911.197,115.034c-0.085-0.229-0.097-0.488-0.004-0.776c0.151-0.476,0.549-0.882,0.93-1.21
	c0.476-0.411,0.997-0.813,1.624-0.961c1.073-0.256,2.187,0.293,3.009,0.994c0.353,0.299,0.69,0.664,0.743,1.109
	c0.087,0.746-0.656,1.346-1.387,1.645c-0.886,0.365-1.869,0.512-2.83,0.427C912.474,116.189,911.467,115.761,911.197,115.034"/>
</svg>
