<?xml version="1.0" encoding="utf-8"?>
<!-- Generator: Adobe Illustrator 16.0.0, SVG Export Plug-In . SVG Version: 6.00 Build 0)  -->
<!DOCTYPE svg PUBLIC "-//W3C//DTD SVG 1.1//EN" "http://www.w3.org/Graphics/SVG/1.1/DTD/svg11.dtd">
<svg version="1.1" id="Layer_1" xmlns="http://www.w3.org/2000/svg" xmlns:xlink="http://www.w3.org/1999/xlink" x="0px" y="0px"
	 width="1024px" height="270.423px" viewBox="0 0 1024 270.423" enable-background="new 0 0 1024 270.423" xml:space="preserve">
<path fill="#75C044" d="M181.367,215.594c3.169,1.989,4.584,6.391,2.22,10.157c-2.364,3.767-8.646,5.867-11.903,2.84
	c-3.341-3.108-4.3-7.295-1.936-11.063C172.111,213.762,177.601,213.229,181.367,215.594"/>
<path fill="#7A62AA" d="M214.28,225.39c4.312,2.707,6.237,8.694,3.021,13.819c-3.217,5.125-11.765,7.984-16.195,3.863
	c-4.547-4.228-5.853-9.926-2.637-15.051C201.687,222.897,209.156,222.173,214.28,225.39"/>
<path fill="#F37024" d="M183.078,180.443c-1.952-2.505-6.057-2.188-8.563-0.237c-2.504,1.951-2.459,4.799-0.509,7.303
	c1.952,2.507,5.189,3.431,7.873,1.733C186.685,186.202,185.028,182.949,183.078,180.443"/>
<g>
	<defs>
		<rect id="SVGID_1_" x="602.294" y="144.362" width="280.938" height="126.061"/>
	</defs>
	<clipPath id="SVGID_2_">
		<use xlink:href="#SVGID_1_"  overflow="visible"/>
	</clipPath>
	<path clip-path="url(#SVGID_2_)" fill="#2BACE2" d="M611.356,200.458c0.001,0.04,0.004,0.079,0.005,0.119
		c-0.978,0.438-1.948,0.918-2.933,1.327c-0.107,0.044-0.204,0.187-0.121,0.267c0.019,0.018,0.044,0.028,0.068,0.039
		c1.084,0.457,2.222,0.737,3.357,1.054c1.872,7.923,10.317,15.366,19.097,18.524c4.112,1.479,8.578,2.285,12.93,1.549
		c3.295-0.558,6.359-2.02,8.917-4.161c2.239-1.877,4.07-4.209,5.544-6.728c1.139-1.946,2.077-4.015,2.813-6.146
		c0.165-0.479,0.351-0.96,0.493-1.442c0.03-0.105,0.063-0.215,0.053-0.326c-0.007-0.109-0.061-0.224-0.161-0.271
		c-0.259-0.121-1.641,0.667-2.023,0.76c-0.672,0.163-1.365,0.22-2.056,0.207c-1.616-0.03-3.214-0.432-4.738-0.944
		c-3.874-1.3-7.488-3.343-11.026-5.355c-3.728-2.12-7.4-4.359-11.258-6.238c-1.031-0.501-2.076-0.975-3.145-1.391
		c-0.95-0.37-1.943-0.585-2.897-0.928c-5.032-1.811-10.578,0.801-12.388,5.833c-0.219,0.605-0.37,1.22-0.464,1.834
		c-0.022,0.143-2.829,0.007-3.097,0.018c-0.121,0.005-0.26,0.078-0.257,0.199c0.001,0.049,0.018,0.103,0.056,0.134
		C608.849,199.003,610.921,200.195,611.356,200.458 M617.138,197.281c0.292-0.307,0.778-0.322,1.091-0.033
		c0.573,0.538,1.352,0.784,2.121,0.685c0.797-0.106,1.491-0.565,1.896-1.258c0.218-0.368,0.692-0.489,1.06-0.275
		c0.367,0.216,0.49,0.69,0.272,1.057c-0.649,1.108-1.755,1.84-3.027,2.007c-0.182,0.023-0.364,0.037-0.548,0.037
		c-1.046,0-2.054-0.397-2.829-1.126C616.862,198.081,616.847,197.592,617.138,197.281"/>
	<path clip-path="url(#SVGID_2_)" fill="#2BACE2" d="M646.216,197.49c-1.397-0.682-2.619-1.358-3.859-2.047
		c-0.981-0.545-1.977-1.099-3.085-1.665c-0.277-0.142-0.463-0.41-0.497-0.717c-0.037-0.308,0.086-0.612,0.321-0.812
		c4.391-3.706,8.469-6.836,13.636-10.464c0.207-0.146,0.554-0.388,1.124-0.423c0.388,0,0.706,0.149,0.896,0.24
		c0.993,0.471,1.981,1.001,2.93,1.574c2.772,1.682,3.773,3.82,2.676,5.725c-0.474,0.819-1.476,1.798-3.565,1.798
		c-0.185,0-0.372-0.008-0.567-0.022c0.318,0.572,0.558,1.208,0.614,1.871c0.071,0.84-0.227,1.677-0.837,2.358
		c-0.75,0.834-1.919,1.368-3.166,1.393c-0.69,0-1.346-0.136-1.953-0.34c-0.178,0.867-0.806,1.623-1.658,1.922
		c-0.301,0.104-0.622,0.157-0.956,0.157C647.646,198.039,646.975,197.86,646.216,197.49"/>
	<path clip-path="url(#SVGID_2_)" fill="#7A62AA" d="M813.863,251.219c-0.852,0.67-1.752,1.286-2.675,1.832
		c-0.471,0.274-0.764,0.742-0.838,1.242c-0.055,0.379,0.014,0.779,0.224,1.135c0.488,0.83,1.554,1.102,2.381,0.615
		c1.054-0.621,2.083-1.326,3.056-2.091c0.754-0.594,0.885-1.685,0.293-2.438C815.709,250.758,814.618,250.626,813.863,251.219"/>
	<path clip-path="url(#SVGID_2_)" fill="#7A62AA" d="M809.862,254.221c0.101-0.672,0.492-1.253,1.076-1.596
		c0.905-0.535,1.787-1.139,2.62-1.794v-0.001c0.967-0.76,2.373-0.589,3.132,0.379c0.76,0.968,0.59,2.373-0.375,3.132
		c-0.996,0.783-2.043,1.498-3.108,2.127c-1.064,0.624-2.436,0.27-3.059-0.79C809.89,255.24,809.789,254.723,809.862,254.221
		 M814.167,251.605c-0.866,0.684-1.785,1.313-2.729,1.87c-0.57,0.333-0.777,1.13-0.439,1.701c0.349,0.592,1.112,0.789,1.707,0.44
		c1.028-0.606,2.037-1.298,3-2.053c0.536-0.424,0.633-1.207,0.21-1.747C815.491,251.278,814.708,251.184,814.167,251.605"/>
	<path clip-path="url(#SVGID_2_)" fill="#7A62AA" d="M765.88,235.008c0.481,1.104,1.001,2.195,1.539,3.239
		c0.439,0.853,1.487,1.188,2.342,0.748c0.851-0.44,1.185-1.487,0.747-2.342c-0.505-0.977-0.99-1.999-1.441-3.036
		c-0.385-0.879-1.409-1.28-2.29-0.899c-0.569,0.248-0.938,0.768-1.023,1.342C765.708,234.369,765.744,234.697,765.88,235.008"/>
	<path clip-path="url(#SVGID_2_)" fill="#7A62AA" d="M765.264,233.988c0.115-0.771,0.606-1.414,1.316-1.723
		c1.128-0.488,2.446,0.029,2.938,1.154c0.447,1.029,0.928,2.04,1.429,3.007c0.56,1.095,0.134,2.443-0.961,3.007
		c-0.528,0.272-1.133,0.323-1.701,0.143c-0.568-0.182-1.03-0.574-1.304-1.104c-0.547-1.059-1.068-2.157-1.554-3.269
		C765.259,234.821,765.205,234.401,765.264,233.988 M770.194,237.631c0.037-0.249-0.001-0.511-0.125-0.751
		c-0.51-0.986-0.998-2.018-1.455-3.065c-0.274-0.626-1.011-0.916-1.642-0.644c-0.604,0.264-0.907,1.026-0.64,1.64
		c0.477,1.091,0.989,2.17,1.525,3.21c0.151,0.296,0.41,0.514,0.727,0.614c0.317,0.102,0.654,0.073,0.95-0.078
		C769.904,238.365,770.136,238.015,770.194,237.631"/>
	<path clip-path="url(#SVGID_2_)" fill="#7A62AA" d="M867.09,244.309c-0.199,1.128-0.41,2.257-0.63,3.391
		c-0.007,0.023-0.011,0.049-0.015,0.076c-0.134,0.914,0.472,1.782,1.389,1.957c0.942,0.185,1.854-0.432,2.035-1.371
		c0.226-1.151,0.44-2.303,0.644-3.45c0.216-0.947-0.464-1.847-1.41-2.016C868.156,242.732,867.256,243.363,867.09,244.309"/>
	<path clip-path="url(#SVGID_2_)" fill="#7A62AA" d="M865.958,247.703l0.023-0.122c0.214-1.106,0.424-2.232,0.623-3.357
		c0.212-1.209,1.372-2.023,2.584-1.813c0.615,0.11,1.164,0.467,1.503,0.982c0.324,0.487,0.435,1.072,0.302,1.629
		c-0.197,1.126-0.413,2.279-0.638,3.434c-0.235,1.207-1.408,1.998-2.616,1.764C866.566,249.992,865.782,248.889,865.958,247.703
		 M870.045,244.73c0.042-0.286-0.021-0.559-0.176-0.793c-0.192-0.29-0.504-0.493-0.853-0.556c-0.676-0.116-1.324,0.338-1.441,1.013
		v0.001c-0.2,1.13-0.411,2.262-0.633,3.396v0.004c-0.104,0.715,0.331,1.327,0.984,1.452c0.675,0.132,1.329-0.309,1.46-0.981
		c0.222-1.147,0.438-2.296,0.638-3.441C870.034,244.793,870.041,244.763,870.045,244.73"/>
	<path clip-path="url(#SVGID_2_)" fill="#7A62AA" d="M823.232,236.825c-0.317,1.069-0.683,2.12-1.087,3.118
		c-0.053,0.131-0.088,0.263-0.108,0.397c-0.115,0.776,0.308,1.559,1.067,1.865c0.89,0.36,1.901-0.069,2.263-0.956
		c0.447-1.105,0.849-2.262,1.199-3.443c0.266-0.921-0.257-1.885-1.177-2.156C824.468,235.376,823.502,235.903,823.232,236.825"/>
	<path clip-path="url(#SVGID_2_)" fill="#7A62AA" d="M821.548,240.27c0.024-0.171,0.071-0.342,0.138-0.508
		c0.394-0.968,0.753-2.001,1.073-3.076c0.168-0.574,0.551-1.046,1.074-1.331c0.523-0.284,1.126-0.348,1.695-0.177
		c1.173,0.347,1.851,1.595,1.511,2.766c-0.354,1.2-0.764,2.373-1.216,3.492c-0.464,1.139-1.766,1.689-2.905,1.228
		C821.961,242.275,821.397,241.291,821.548,240.27 M826.127,237.503c0.089-0.604-0.277-1.202-0.878-1.38
		c-0.318-0.094-0.653-0.06-0.944,0.099c-0.293,0.157-0.506,0.423-0.6,0.742h-0.001c-0.327,1.107-0.699,2.173-1.104,3.164
		c-0.245,0.631,0.062,1.367,0.688,1.62c0.636,0.257,1.361-0.049,1.619-0.684c0.441-1.088,0.839-2.232,1.184-3.396
		C826.107,237.613,826.118,237.559,826.127,237.503"/>
	<path clip-path="url(#SVGID_2_)" fill="#7A62AA" d="M762.724,225.311c-0.033,0.229-0.022,0.467,0.04,0.703
		c0.31,1.152,0.646,2.301,1.009,3.417c0.296,0.914,1.277,1.414,2.188,1.12c0.913-0.295,1.416-1.276,1.118-2.188
		c-0.342-1.062-0.664-2.155-0.957-3.247c-0.247-0.93-1.201-1.478-2.127-1.23C763.303,224.069,762.823,224.646,762.724,225.311"/>
	<path clip-path="url(#SVGID_2_)" fill="#7A62AA" d="M762.236,225.238c0.131-0.883,0.771-1.601,1.632-1.829
		c0.575-0.153,1.176-0.075,1.691,0.224c0.518,0.298,0.887,0.779,1.039,1.355c0.295,1.096,0.615,2.181,0.95,3.223
		c0.186,0.564,0.136,1.168-0.133,1.698c-0.272,0.533-0.734,0.927-1.302,1.111c-1.171,0.378-2.433-0.269-2.811-1.438
		c-0.358-1.105-0.7-2.264-1.016-3.44C762.208,225.847,762.19,225.542,762.236,225.238 M766.658,229.079
		c0.027-0.187,0.013-0.379-0.047-0.563c-0.343-1.061-0.666-2.16-0.966-3.273c-0.085-0.322-0.291-0.59-0.578-0.756
		c-0.288-0.166-0.625-0.21-0.945-0.125c-0.646,0.171-1.046,0.883-0.881,1.524c0.312,1.159,0.647,2.301,1.002,3.393
		c0.212,0.653,0.914,1.013,1.566,0.802c0.317-0.102,0.576-0.321,0.728-0.619C766.598,229.34,766.637,229.21,766.658,229.079"/>
	<path clip-path="url(#SVGID_2_)" fill="#7A62AA" d="M868.373,216.693c-0.023,0.158-0.026,0.321-0.004,0.489
		c0.149,1.093,0.271,2.223,0.359,3.357c0.077,0.956,0.914,1.671,1.87,1.592c0.958-0.073,1.673-0.909,1.595-1.869
		c-0.095-1.196-0.222-2.392-0.381-3.55c-0.128-0.952-1.005-1.617-1.958-1.485C869.071,215.333,868.482,215.947,868.373,216.693"/>
	<path clip-path="url(#SVGID_2_)" fill="#7A62AA" d="M867.882,216.622c0.146-0.979,0.93-1.753,1.907-1.884
		c0.59-0.082,1.176,0.072,1.653,0.433c0.474,0.36,0.778,0.885,0.858,1.476c0.157,1.15,0.286,2.354,0.386,3.577
		c0.047,0.597-0.141,1.174-0.527,1.627c-0.388,0.453-0.929,0.728-1.523,0.773c-0.59,0.048-1.168-0.138-1.622-0.522
		c-0.453-0.388-0.73-0.928-0.777-1.522c-0.088-1.127-0.208-2.246-0.357-3.329C867.852,217.039,867.853,216.828,867.882,216.622
		 M871.694,220.587c0.014-0.093,0.017-0.188,0.009-0.284c-0.097-1.204-0.225-2.391-0.379-3.524
		c-0.044-0.329-0.214-0.621-0.479-0.821c-0.264-0.201-0.592-0.287-0.922-0.241c-0.662,0.089-1.159,0.728-1.064,1.401
		c0.15,1.1,0.272,2.24,0.362,3.384c0.027,0.331,0.182,0.632,0.435,0.849c0.253,0.215,0.574,0.317,0.902,0.291
		c0.334-0.026,0.637-0.179,0.853-0.432C871.562,221.029,871.66,220.815,871.694,220.587"/>
	<path clip-path="url(#SVGID_2_)" fill="#7A62AA" d="M766.818,196.896c-0.861-0.424-1.902-0.069-2.326,0.792
		c-0.539,1.097-1.021,2.228-1.436,3.36c-0.042,0.114-0.069,0.229-0.088,0.346c-0.118,0.798,0.334,1.596,1.124,1.883
		c0.901,0.331,1.899-0.133,2.229-1.035c0.373-1.017,0.807-2.033,1.291-3.021C768.033,198.363,767.677,197.318,766.818,196.896"/>
	<path clip-path="url(#SVGID_2_)" fill="#7A62AA" d="M762.481,201.322c0.022-0.149,0.06-0.295,0.112-0.44
		c0.421-1.156,0.911-2.303,1.456-3.41c0.262-0.536,0.717-0.936,1.282-1.128c0.563-0.191,1.17-0.153,1.704,0.109
		c1.103,0.542,1.561,1.88,1.019,2.984c-0.472,0.962-0.898,1.963-1.27,2.975c-0.204,0.56-0.616,1.007-1.157,1.258
		c-0.54,0.251-1.146,0.276-1.705,0.071C762.933,203.381,762.328,202.364,762.481,201.322 M767.283,198.639
		c0.077-0.521-0.185-1.056-0.683-1.3c-0.298-0.146-0.636-0.169-0.951-0.061c-0.313,0.106-0.566,0.33-0.715,0.628
		c-0.528,1.078-1.006,2.191-1.415,3.313c-0.227,0.635,0.111,1.365,0.741,1.596c0.313,0.114,0.651,0.101,0.952-0.039
		c0.302-0.141,0.531-0.391,0.646-0.702c0.382-1.045,0.823-2.078,1.313-3.07C767.227,198.885,767.263,198.763,767.283,198.639"/>
	<path clip-path="url(#SVGID_2_)" fill="#7A62AA" d="M824.492,218.691c-0.021,0.14-0.025,0.285-0.011,0.432
		c0.047,0.46,0.09,0.921,0.131,1.382c0.058,0.672,0.103,1.337,0.137,1.993c0.047,0.958,0.862,1.695,1.821,1.649
		c0.958-0.047,1.697-0.864,1.648-1.822c-0.034-0.695-0.082-1.404-0.145-2.121c-0.042-0.479-0.086-0.956-0.134-1.434
		c-0.098-0.953-0.949-1.649-1.905-1.554C825.226,217.299,824.604,217.924,824.492,218.691"/>
	<path clip-path="url(#SVGID_2_)" fill="#7A62AA" d="M824.002,218.619c0.149-1.012,0.965-1.79,1.981-1.894
		c1.224-0.123,2.321,0.771,2.446,1.995c0.048,0.479,0.092,0.959,0.136,1.439c0.062,0.726,0.111,1.439,0.146,2.143
		c0.024,0.591-0.175,1.164-0.574,1.606c-0.401,0.442-0.949,0.702-1.544,0.731c-1.23,0.06-2.278-0.892-2.338-2.118
		c-0.035-0.649-0.079-1.309-0.137-1.977c-0.04-0.456-0.085-0.915-0.132-1.374C823.971,218.986,823.976,218.802,824.002,218.619
		 M827.713,222.599c0.013-0.081,0.017-0.164,0.013-0.248c-0.034-0.69-0.082-1.394-0.144-2.104c-0.043-0.477-0.087-0.951-0.135-1.427
		c-0.068-0.681-0.682-1.18-1.364-1.112c-0.669,0.069-1.181,0.691-1.111,1.367c0.046,0.461,0.09,0.924,0.132,1.387
		c0.056,0.68,0.101,1.35,0.137,2.012c0.034,0.686,0.619,1.215,1.305,1.182c0.332-0.016,0.638-0.161,0.859-0.408
		C827.572,223.063,827.678,222.838,827.713,222.599"/>
	<path clip-path="url(#SVGID_2_)" fill="#7A62AA" d="M824.739,227.946c-0.008,0.048-0.013,0.097-0.017,0.146
		c-0.068,1.126-0.182,2.244-0.335,3.324c-0.132,0.949,0.529,1.829,1.48,1.962c0.944,0.135,1.82-0.521,1.961-1.465l0.002-0.014
		c0.165-1.168,0.287-2.376,0.361-3.59c0.061-0.96-0.668-1.783-1.627-1.844C825.659,226.41,824.87,227.062,824.739,227.946"/>
	<path clip-path="url(#SVGID_2_)" fill="#7A62AA" d="M824.25,227.873c0.169-1.136,1.198-1.97,2.347-1.899
		c0.595,0.037,1.141,0.306,1.535,0.754c0.394,0.446,0.589,1.02,0.551,1.614c-0.073,1.219-0.196,2.439-0.365,3.627
		c-0.181,1.228-1.311,2.071-2.52,1.898c-0.589-0.082-1.112-0.39-1.473-0.866c-0.356-0.476-0.509-1.063-0.426-1.653
		c0.151-1.076,0.263-2.183,0.331-3.285C824.236,227.993,824.241,227.933,824.25,227.873 M827.339,231.842
		c0.167-1.173,0.287-2.368,0.358-3.562c0.022-0.333-0.088-0.652-0.306-0.901c-0.221-0.25-0.525-0.398-0.858-0.42
		c-0.639-0.04-1.213,0.425-1.306,1.06l-0.013,0.113c-0.069,1.119-0.184,2.251-0.338,3.354c-0.047,0.329,0.038,0.655,0.237,0.921
		c0.201,0.266,0.492,0.437,0.822,0.483C826.61,232.987,827.239,232.516,827.339,231.842"/>
	<path clip-path="url(#SVGID_2_)" fill="#7A62AA" d="M868.414,235.181c-0.004,0.023-0.009,0.047-0.01,0.069
		c-0.119,1.135-0.262,2.266-0.419,3.399c-0.131,0.949,0.533,1.829,1.486,1.958c0.949,0.131,1.861-0.513,1.959-1.485
		c0.16-1.165,0.304-2.334,0.43-3.502c0.104-0.951-0.588-1.81-1.543-1.912C869.387,233.609,868.549,234.262,868.414,235.181"/>
	<path clip-path="url(#SVGID_2_)" fill="#7A62AA" d="M867.925,235.108c0.176-1.188,1.251-2.02,2.444-1.891
		c0.592,0.063,1.126,0.354,1.499,0.818c0.375,0.463,0.545,1.045,0.482,1.637c-0.126,1.173-0.271,2.349-0.434,3.518
		c-0.065,0.563-0.341,1.082-0.802,1.444c-0.479,0.378-1.103,0.545-1.713,0.461c-0.59-0.079-1.113-0.385-1.473-0.859
		c-0.361-0.477-0.516-1.064-0.435-1.654c0.157-1.129,0.297-2.255,0.418-3.383L867.925,235.108z M870.932,239.129
		c0.003-0.019,0.005-0.037,0.007-0.056c0.162-1.178,0.305-2.343,0.431-3.505c0.036-0.33-0.06-0.654-0.268-0.913
		c-0.209-0.259-0.506-0.421-0.836-0.456c-0.667-0.071-1.267,0.391-1.364,1.054l-0.489-0.071l0.482,0.116
		c-0.12,1.144-0.264,2.279-0.42,3.418c-0.046,0.33,0.039,0.658,0.241,0.924c0.199,0.264,0.491,0.435,0.819,0.479
		c0.348,0.047,0.701-0.047,0.969-0.259C870.739,239.675,870.889,239.418,870.932,239.129"/>
	<path clip-path="url(#SVGID_2_)" fill="#7A62AA" d="M868.955,225.933c-0.013,0.08-0.02,0.164-0.02,0.248
		c-0.003,1.134-0.034,2.269-0.086,3.402c-0.045,0.957,0.695,1.771,1.655,1.813c0.958,0.048,1.786-0.691,1.815-1.654
		c0.057-1.185,0.086-2.366,0.092-3.548c0.003-0.96-0.772-1.741-1.731-1.744C869.804,224.447,869.08,225.09,868.955,225.933"/>
	<path clip-path="url(#SVGID_2_)" fill="#7A62AA" d="M868.465,225.861c0.161-1.091,1.114-1.909,2.217-1.905
		c0.596,0.002,1.153,0.237,1.573,0.66c0.42,0.422,0.651,0.982,0.648,1.58c-0.004,1.189-0.034,2.379-0.09,3.568
		c-0.022,0.584-0.271,1.131-0.706,1.534c-0.443,0.41-1.023,0.621-1.629,0.59c-0.593-0.025-1.143-0.281-1.543-0.722
		c-0.401-0.441-0.607-1.011-0.581-1.608c0.054-1.127,0.084-2.254,0.088-3.38C868.443,226.073,868.451,225.964,868.465,225.861
		 M871.814,229.868c0.007-0.046,0.012-0.093,0.013-0.142c0.056-1.185,0.087-2.359,0.091-3.534c0-0.332-0.128-0.646-0.362-0.883
		c-0.232-0.234-0.546-0.365-0.877-0.365c-0.672-0.003-1.249,0.528-1.249,1.235c-0.005,1.144-0.034,2.285-0.088,3.427
		c-0.015,0.331,0.099,0.649,0.323,0.895c0.224,0.245,0.53,0.388,0.861,0.403c0.341,0.017,0.664-0.102,0.913-0.33
		C871.644,230.385,871.774,230.138,871.814,229.868"/>
	<path clip-path="url(#SVGID_2_)" fill="#7A62AA" d="M762.645,214.729c-0.822,0.064-1.465,0.691-1.581,1.477
		c-0.02,0.126-0.026,0.257-0.016,0.393c0.094,1.182,0.24,2.389,0.437,3.591c0.153,0.948,1.048,1.592,1.994,1.435
		c0.947-0.152,1.592-1.048,1.437-1.991c-0.181-1.109-0.314-2.222-0.402-3.308C764.439,215.367,763.603,214.651,762.645,214.729"/>
	<path clip-path="url(#SVGID_2_)" fill="#7A62AA" d="M760.576,216.133c0.152-1.034,0.987-1.814,2.029-1.896
		c0.594-0.048,1.171,0.14,1.624,0.525c0.454,0.388,0.729,0.93,0.775,1.524c0.088,1.085,0.222,2.185,0.397,3.266
		c0.096,0.588-0.043,1.176-0.39,1.661c-0.351,0.483-0.866,0.803-1.455,0.897c-0.584,0.098-1.174-0.04-1.658-0.388
		c-0.486-0.349-0.805-0.865-0.901-1.455c-0.197-1.213-0.347-2.434-0.441-3.631C760.542,216.471,760.55,216.302,760.576,216.133
		 M764.432,220.093c0.019-0.125,0.018-0.253-0.003-0.381c-0.183-1.108-0.318-2.234-0.408-3.349
		c-0.026-0.333-0.179-0.634-0.433-0.851c-0.254-0.215-0.574-0.319-0.904-0.293c-0.68,0.054-1.187,0.706-1.145,1.341
		c0.092,1.167,0.239,2.362,0.433,3.549c0.054,0.329,0.23,0.617,0.503,0.812c0.269,0.192,0.597,0.27,0.923,0.216
		c0.33-0.053,0.618-0.231,0.812-0.502C764.328,220.471,764.403,220.285,764.432,220.093"/>
	<path clip-path="url(#SVGID_2_)" fill="#7A62AA" d="M866.392,207.654c-0.036,0.247-0.021,0.506,0.058,0.764
		c0.328,1.066,0.627,2.155,0.889,3.243c0.223,0.935,1.161,1.511,2.095,1.287c0.934-0.226,1.508-1.158,1.284-2.096
		c-0.276-1.161-0.596-2.323-0.944-3.457c-0.284-0.918-1.256-1.433-2.174-1.15C866.938,206.449,866.487,207.013,866.392,207.654"/>
	<path clip-path="url(#SVGID_2_)" fill="#7A62AA" d="M865.903,207.582c0.126-0.847,0.734-1.557,1.55-1.808
		c0.57-0.176,1.175-0.119,1.701,0.16c0.527,0.277,0.914,0.745,1.089,1.314c0.356,1.15,0.678,2.324,0.954,3.489
		c0.285,1.196-0.455,2.402-1.648,2.69c-0.579,0.139-1.18,0.043-1.687-0.269c-0.51-0.312-0.865-0.804-1.004-1.385
		c-0.254-1.063-0.551-2.145-0.88-3.213C865.88,208.238,865.855,207.909,865.903,207.582 M870.258,211.438
		c0.021-0.152,0.017-0.313-0.021-0.471c-0.271-1.144-0.587-2.297-0.936-3.427c-0.1-0.317-0.314-0.579-0.607-0.733
		c-0.295-0.156-0.631-0.188-0.949-0.09c-0.631,0.194-1.022,0.9-0.821,1.558c0.333,1.087,0.635,2.188,0.895,3.271
		c0.077,0.324,0.275,0.6,0.56,0.772c0.283,0.175,0.616,0.228,0.941,0.151C869.825,212.347,870.186,211.925,870.258,211.438"/>
	<path clip-path="url(#SVGID_2_)" fill="#7A62AA" d="M861.455,271.515c-0.22,1.15-0.429,2.303-0.626,3.451l-0.006,0.04
		c-0.139,0.93,0.492,1.809,1.426,1.967c0.947,0.164,1.846-0.473,2.007-1.419c0.192-1.13,0.398-2.26,0.613-3.387
		c0.181-0.962-0.44-1.855-1.384-2.033C862.543,269.954,861.634,270.572,861.455,271.515"/>
	<path clip-path="url(#SVGID_2_)" fill="#7A62AA" d="M860.333,274.933c0.206-1.202,0.416-2.356,0.636-3.51v-0.001
		c0.229-1.208,1.4-2.003,2.609-1.773c1.227,0.232,1.996,1.4,1.774,2.609c-0.214,1.126-0.419,2.252-0.611,3.379
		c-0.101,0.588-0.424,1.101-0.911,1.446c-0.486,0.344-1.079,0.478-1.667,0.376C860.98,277.257,860.158,276.124,860.333,274.933
		 M861.938,271.606c-0.219,1.147-0.426,2.297-0.623,3.443c-0.104,0.692,0.354,1.324,1.017,1.436c0.329,0.059,0.659-0.017,0.93-0.209
		c0.271-0.191,0.45-0.478,0.507-0.805c0.192-1.134,0.4-2.266,0.615-3.396c0.1-0.675-0.306-1.328-0.989-1.457
		C862.719,270.49,862.068,270.934,861.938,271.606"/>
	<path clip-path="url(#SVGID_2_)" fill="#7A62AA" d="M776.734,250.738c0.893,0.83,1.829,1.618,2.784,2.345
		c0.763,0.582,1.854,0.436,2.436-0.328c0.581-0.762,0.434-1.854-0.329-2.434c-0.865-0.663-1.716-1.377-2.528-2.133
		c-0.704-0.651-1.804-0.61-2.455,0.094c-0.247,0.266-0.395,0.591-0.444,0.927C776.116,249.757,776.295,250.334,776.734,250.738"/>
	<path clip-path="url(#SVGID_2_)" fill="#7A62AA" d="M775.708,249.137c0.067-0.447,0.265-0.858,0.572-1.19
		c0.403-0.436,0.954-0.689,1.55-0.712s1.163,0.188,1.602,0.592c0.781,0.727,1.62,1.435,2.493,2.104
		c0.474,0.358,0.777,0.882,0.857,1.473c0.081,0.591-0.075,1.177-0.436,1.652c-0.746,0.978-2.148,1.167-3.127,0.421
		c-0.974-0.74-1.921-1.54-2.82-2.375C775.859,250.603,775.6,249.867,775.708,249.137 M781.803,251.887
		c0.017-0.115,0.017-0.233,0.001-0.353c-0.044-0.328-0.214-0.619-0.479-0.819c-0.899-0.69-1.763-1.418-2.565-2.164
		c-0.244-0.227-0.562-0.343-0.894-0.33c-0.332,0.012-0.639,0.153-0.864,0.396c-0.453,0.488-0.42,1.313,0.066,1.76l0.001,0.001
		c0.875,0.813,1.799,1.593,2.747,2.314c0.547,0.416,1.329,0.311,1.744-0.234C781.691,252.286,781.773,252.092,781.803,251.887"/>
	<path clip-path="url(#SVGID_2_)" fill="#7A62AA" d="M770.478,243.405c0.679,1,1.4,1.978,2.145,2.908
		c0.602,0.746,1.695,0.866,2.444,0.265c0.748-0.597,0.868-1.692,0.268-2.44c-0.688-0.856-1.354-1.761-1.982-2.685
		c-0.539-0.794-1.62-1-2.413-0.461c-0.419,0.284-0.676,0.722-0.744,1.184C770.132,242.593,770.222,243.03,770.478,243.405"/>
	<path clip-path="url(#SVGID_2_)" fill="#7A62AA" d="M769.707,242.103c0.092-0.616,0.44-1.17,0.956-1.52
		c0.491-0.334,1.086-0.456,1.671-0.344c0.586,0.111,1.093,0.444,1.428,0.938c0.63,0.925,1.289,1.817,1.959,2.65
		c0.372,0.467,0.541,1.047,0.476,1.641c-0.064,0.597-0.356,1.125-0.821,1.496c-0.958,0.768-2.366,0.614-3.137-0.343
		c-0.769-0.964-1.5-1.952-2.169-2.939C769.753,243.22,769.625,242.658,769.707,242.103 M775.209,245.408
		c0.003-0.016,0.004-0.031,0.006-0.047c0.036-0.331-0.059-0.657-0.266-0.916c-0.685-0.852-1.36-1.766-2.006-2.714
		c-0.186-0.275-0.469-0.461-0.796-0.523s-0.658,0.007-0.932,0.192c-0.548,0.37-0.7,1.182-0.33,1.728v0.001
		c0.655,0.966,1.369,1.934,2.123,2.877c0.428,0.531,1.214,0.616,1.748,0.188C775.004,245.996,775.164,245.72,775.209,245.408"/>
	<path clip-path="url(#SVGID_2_)" fill="#7A62AA" d="M865.304,253.345c-0.24,1.128-0.485,2.258-0.731,3.387
		c-0.009,0.039-0.017,0.079-0.022,0.118c-0.134,0.896,0.45,1.754,1.349,1.951c0.938,0.206,1.863-0.391,2.069-1.329
		c0.249-1.133,0.493-2.27,0.735-3.406c0.211-0.925-0.398-1.862-1.338-2.06C866.426,251.808,865.504,252.405,865.304,253.345"/>
	<path clip-path="url(#SVGID_2_)" fill="#7A62AA" d="M864.061,256.777c0.009-0.052,0.02-0.106,0.032-0.16
		c0.243-1.119,0.487-2.248,0.729-3.376c0.256-1.201,1.441-1.972,2.646-1.719c0.59,0.125,1.095,0.475,1.421,0.986
		c0.321,0.503,0.428,1.095,0.295,1.667c-0.239,1.131-0.485,2.268-0.734,3.401c-0.128,0.584-0.476,1.082-0.979,1.404
		c-0.502,0.322-1.097,0.428-1.678,0.3C864.653,259.032,863.89,257.932,864.061,256.777 M868.24,253.869
		c0.042-0.289-0.021-0.578-0.182-0.83c-0.183-0.285-0.466-0.481-0.794-0.551c-0.672-0.141-1.336,0.289-1.477,0.958v0.002
		c-0.241,1.129-0.486,2.259-0.733,3.389c0,0.002-0.001,0.005-0.001,0.008c-0.106,0.725,0.316,1.335,0.952,1.474
		c0.323,0.071,0.655,0.011,0.935-0.168c0.28-0.179,0.475-0.458,0.546-0.784c0.248-1.133,0.493-2.268,0.735-3.403
		C868.228,253.932,868.235,253.9,868.24,253.869"/>
	<path clip-path="url(#SVGID_2_)" fill="#7A62AA" d="M819.647,244.799c-0.59,0.921-1.234,1.811-1.92,2.638
		c-0.209,0.255-0.335,0.548-0.381,0.852c-0.086,0.582,0.127,1.193,0.614,1.595c0.74,0.612,1.834,0.509,2.447-0.233
		c0.774-0.938,1.503-1.941,2.167-2.978c0.519-0.811,0.281-1.884-0.528-2.402C821.238,243.756,820.163,243.99,819.647,244.799"/>
	<path clip-path="url(#SVGID_2_)" fill="#7A62AA" d="M816.859,248.216c0.059-0.4,0.228-0.777,0.487-1.092
		c0.673-0.814,1.306-1.685,1.885-2.59c0.66-1.034,2.042-1.341,3.081-0.682c1.038,0.667,1.34,2.048,0.677,3.085
		c-0.681,1.066-1.423,2.084-2.201,3.026c-0.381,0.46-0.916,0.745-1.51,0.802c-0.593,0.055-1.172-0.122-1.632-0.502
		C817.046,249.769,816.744,248.983,816.859,248.216 M822.342,245.919c0.068-0.47-0.135-0.961-0.563-1.234
		c-0.578-0.367-1.349-0.197-1.717,0.38c-0.601,0.94-1.259,1.845-1.957,2.687c-0.427,0.523-0.349,1.326,0.17,1.752
		c0.255,0.212,0.579,0.311,0.909,0.28c0.331-0.031,0.63-0.19,0.842-0.448c0.753-0.911,1.47-1.897,2.131-2.931
		C822.256,246.253,822.317,246.087,822.342,245.919"/>
	<path clip-path="url(#SVGID_2_)" fill="#7A62AA" d="M863.335,262.393c-0.248,1.137-0.492,2.273-0.731,3.411
		c-0.007,0.034-0.014,0.069-0.019,0.105c-0.134,0.901,0.457,1.764,1.361,1.953c0.939,0.197,1.86-0.404,2.059-1.344
		c0.237-1.13,0.479-2.258,0.727-3.387c0.187-0.956-0.391-1.865-1.33-2.067C864.465,260.86,863.541,261.454,863.335,262.393"/>
	<path clip-path="url(#SVGID_2_)" fill="#7A62AA" d="M862.097,265.837l0.024-0.139c0.239-1.135,0.483-2.272,0.731-3.411
		c0.128-0.581,0.473-1.08,0.974-1.402s1.1-0.431,1.682-0.302c1.194,0.257,1.98,1.396,1.709,2.644
		c-0.249,1.138-0.491,2.265-0.729,3.393c-0.254,1.205-1.439,1.979-2.644,1.726C862.693,268.104,861.924,267.002,862.097,265.837
		 M866.26,262.968c0.098-0.66-0.314-1.281-0.962-1.42c-0.325-0.072-0.658-0.013-0.938,0.167s-0.473,0.458-0.543,0.784
		c-0.248,1.134-0.492,2.27-0.73,3.406v0.005c-0.107,0.724,0.318,1.334,0.961,1.47c0.672,0.141,1.333-0.291,1.475-0.963
		c0.238-1.132,0.48-2.262,0.728-3.391C866.254,263.007,866.257,262.987,866.26,262.968"/>
	<path clip-path="url(#SVGID_2_)" fill="#7A62AA" d="M783.912,254.002c-0.091,0.179-0.148,0.36-0.177,0.544
		c-0.104,0.716,0.243,1.448,0.921,1.8c1.089,0.563,2.215,1.069,3.347,1.501c0.896,0.344,1.9-0.106,2.245-1.002
		c0.332-0.896-0.106-1.902-1.003-2.243c-1.012-0.389-2.018-0.837-2.99-1.343C785.4,252.816,784.353,253.15,783.912,254.002"/>
	<path clip-path="url(#SVGID_2_)" fill="#7A62AA" d="M783.247,254.475c0.036-0.238,0.111-0.473,0.225-0.695l0.003-0.005
		c0.272-0.529,0.737-0.919,1.306-1.099c0.568-0.182,1.173-0.13,1.703,0.146c0.94,0.489,1.93,0.933,2.937,1.318
		c1.139,0.433,1.726,1.721,1.289,2.877c-0.214,0.563-0.632,1.003-1.177,1.246c-0.545,0.241-1.151,0.258-1.706,0.045
		c-1.144-0.437-2.288-0.949-3.397-1.524C783.583,256.345,783.108,255.416,783.247,254.475 M784.351,254.228
		c-0.321,0.636-0.06,1.374,0.53,1.68c1.077,0.558,2.187,1.054,3.297,1.479c0.311,0.118,0.649,0.109,0.95-0.025
		c0.306-0.135,0.537-0.381,0.658-0.692c0.236-0.64-0.084-1.364-0.719-1.606c-1.042-0.399-2.064-0.858-3.04-1.364
		c-0.296-0.154-0.633-0.182-0.949-0.082C784.762,253.716,784.503,253.934,784.351,254.228"/>
	<path clip-path="url(#SVGID_2_)" fill="#7A62AA" d="M808.453,256.377c-0.293-0.912-1.271-1.418-2.185-1.128
		c-1.026,0.327-2.087,0.588-3.146,0.774c-0.755,0.133-1.312,0.735-1.418,1.458c-0.026,0.178-0.025,0.367,0.009,0.557
		c0.166,0.943,1.067,1.574,2.012,1.408c1.212-0.213,2.422-0.512,3.597-0.883C808.237,258.273,808.742,257.294,808.453,256.377"/>
	<path clip-path="url(#SVGID_2_)" fill="#7A62AA" d="M801.216,257.409c0.142-0.954,0.873-1.706,1.821-1.872
		c1.031-0.181,2.068-0.435,3.082-0.759c1.171-0.371,2.427,0.279,2.802,1.448l0.002,0.003c0.368,1.179-0.282,2.435-1.454,2.804
		c-1.21,0.383-2.439,0.685-3.657,0.899c-0.587,0.103-1.18-0.028-1.668-0.369c-0.487-0.343-0.813-0.854-0.917-1.44
		C801.185,257.892,801.18,257.65,801.216,257.409 M807.983,256.526c-0.211-0.652-0.912-1.015-1.564-0.808
		c-1.056,0.336-2.136,0.603-3.21,0.79c-0.663,0.116-1.131,0.803-1.01,1.44c0.057,0.33,0.239,0.614,0.513,0.805
		c0.271,0.19,0.603,0.265,0.928,0.206c1.176-0.206,2.364-0.498,3.532-0.868C807.827,257.886,808.187,257.185,807.983,256.526"/>
	<path clip-path="url(#SVGID_2_)" fill="#7A62AA" d="M797.729,256.378c-0.9-0.036-1.813-0.125-2.715-0.258l-0.521-0.082
		c-0.947-0.159-1.844,0.476-2.004,1.423l-0.006,0.037c-0.139,0.932,0.495,1.809,1.43,1.966c0.197,0.035,0.395,0.064,0.592,0.095
		c1.023,0.151,2.059,0.248,3.079,0.29c0.957,0.042,1.744-0.703,1.81-1.661C799.433,257.226,798.688,256.417,797.729,256.378"/>
	<path clip-path="url(#SVGID_2_)" fill="#7A62AA" d="M791.995,257.425c0.212-1.257,1.364-2.077,2.578-1.874l0.518,0.082
		c0.894,0.132,1.79,0.217,2.659,0.252c1.229,0.05,2.187,1.092,2.137,2.323c-0.072,1.249-1.106,2.187-2.323,2.134
		c-1.044-0.043-2.097-0.143-3.131-0.296c-0.202-0.029-0.403-0.061-0.605-0.096C792.642,259.75,791.817,258.617,791.995,257.425
		 M797.709,256.871c-0.904-0.037-1.835-0.125-2.769-0.264l-0.525-0.083c-0.684-0.113-1.326,0.344-1.439,1.019
		c-0.103,0.69,0.356,1.323,1.019,1.435c0.194,0.034,0.39,0.064,0.581,0.094c1,0.147,2.019,0.242,3.029,0.284
		c0.677,0.03,1.232-0.503,1.296-1.2C798.928,257.479,798.394,256.898,797.709,256.871"/>
	<path clip-path="url(#SVGID_2_)" fill="#7A62AA" d="M820.766,200.57c-0.038,0.254-0.021,0.521,0.063,0.781
		c0.344,1.074,0.666,2.164,0.968,3.263c0.255,0.928,1.212,1.471,2.138,1.215c0.925-0.253,1.467-1.209,1.215-2.134
		c-0.315-1.146-0.652-2.28-1.008-3.4c-0.291-0.916-1.271-1.42-2.185-1.127C821.304,199.377,820.86,199.935,820.766,200.57"/>
	<path clip-path="url(#SVGID_2_)" fill="#7A62AA" d="M820.276,200.498c0.127-0.85,0.713-1.539,1.53-1.8
		c0.568-0.182,1.173-0.132,1.703,0.142s0.922,0.737,1.101,1.307c0.36,1.124,0.698,2.266,1.015,3.417
		c0.326,1.188-0.377,2.418-1.562,2.742c-0.574,0.157-1.176,0.083-1.693-0.212c-0.52-0.295-0.892-0.774-1.048-1.35
		c-0.301-1.092-0.62-2.174-0.962-3.243C820.256,201.183,820.226,200.834,820.276,200.498 M824.703,204.334
		c0.023-0.166,0.017-0.339-0.03-0.511c-0.313-1.137-0.646-2.265-1.003-3.378c-0.101-0.318-0.319-0.576-0.613-0.729
		c-0.295-0.151-0.631-0.18-0.949-0.077c-0.636,0.202-1.014,0.933-0.807,1.56c0.345,1.085,0.67,2.179,0.972,3.285
		c0.088,0.321,0.295,0.589,0.585,0.753c0.288,0.164,0.624,0.206,0.945,0.118C824.292,205.221,824.632,204.809,824.703,204.334"/>
	<path clip-path="url(#SVGID_2_)" fill="#7A62AA" d="M862.926,199.072c-0.052,0.343-0.001,0.704,0.167,1.038
		c0.504,0.996,0.983,2.023,1.423,3.049c0.379,0.881,1.401,1.288,2.284,0.912c0.882-0.378,1.286-1.402,0.911-2.284
		c-0.47-1.09-0.979-2.183-1.516-3.245c-0.434-0.855-1.478-1.201-2.335-0.767C863.336,198.038,863.006,198.533,862.926,199.072"/>
	<path clip-path="url(#SVGID_2_)" fill="#7A62AA" d="M862.438,199c0.105-0.72,0.556-1.343,1.202-1.666
		c1.096-0.555,2.439-0.113,2.997,0.985c0.538,1.067,1.053,2.169,1.527,3.271c0.484,1.137-0.044,2.45-1.171,2.934
		c-1.131,0.482-2.445-0.042-2.931-1.17c-0.434-1.013-0.907-2.028-1.41-3.021C862.445,199.918,862.37,199.458,862.438,199
		 M867.345,202.653c0.032-0.221,0.007-0.453-0.087-0.673c-0.469-1.083-0.974-2.166-1.502-3.216
		c-0.311-0.611-1.062-0.859-1.674-0.549c-0.59,0.295-0.848,1.078-0.55,1.672c0.513,1.012,0.995,2.047,1.438,3.077
		c0.271,0.628,1.005,0.921,1.637,0.652C867.016,203.441,867.283,203.067,867.345,202.653"/>
	<path clip-path="url(#SVGID_2_)" fill="#7A62AA" d="M726.143,167.806c1.035-0.52,2.065-1.024,3.093-1.518
		c0.866-0.413,1.233-1.452,0.817-2.318c-0.414-0.864-1.452-1.23-2.318-0.816c-1.046,0.501-2.097,1.018-3.152,1.547
		c-0.525,0.265-0.858,0.759-0.938,1.299c-0.052,0.344,0,0.702,0.166,1.033C724.242,167.891,725.286,168.237,726.143,167.806"/>
	<path clip-path="url(#SVGID_2_)" fill="#7A62AA" d="M723.156,165.928c0.106-0.719,0.558-1.343,1.206-1.669
		c1.057-0.531,2.111-1.048,3.16-1.551c1.109-0.529,2.443-0.06,2.976,1.047c0.259,0.538,0.291,1.141,0.094,1.707
		c-0.198,0.563-0.604,1.015-1.144,1.271c-1.022,0.491-2.05,0.996-3.083,1.514c-1.098,0.551-2.441,0.106-2.996-0.993
		C723.161,166.84,723.088,166.382,723.156,165.928 M729.719,164.899c0.036-0.242-0.002-0.49-0.11-0.717
		c-0.297-0.617-1.042-0.88-1.661-0.584c-1.043,0.499-2.091,1.014-3.143,1.542c-0.591,0.296-0.854,1.074-0.555,1.671
		c0.309,0.612,1.06,0.861,1.671,0.554l0.001-0.002c1.039-0.519,2.07-1.026,3.1-1.52c0.301-0.144,0.528-0.396,0.638-0.711
		C729.688,165.057,729.707,164.979,729.719,164.899"/>
	<path clip-path="url(#SVGID_2_)" fill="#7A62AA" d="M734.454,163.896c1.062-0.468,2.118-0.917,3.165-1.348
		c0.886-0.366,1.309-1.381,0.942-2.271c-0.365-0.886-1.38-1.31-2.268-0.943c-1.07,0.441-2.15,0.9-3.236,1.378
		c-0.567,0.248-0.937,0.767-1.021,1.34c-0.046,0.309-0.009,0.639,0.128,0.948C732.548,163.881,733.574,164.279,734.454,163.896"/>
	<path clip-path="url(#SVGID_2_)" fill="#7A62AA" d="M731.547,161.98c0.114-0.767,0.604-1.409,1.312-1.721
		c1.091-0.477,2.174-0.938,3.247-1.381c0.551-0.227,1.156-0.226,1.708,0.003c0.549,0.229,0.976,0.658,1.204,1.21
		c0.468,1.139-0.078,2.444-1.212,2.913c-1.042,0.43-2.096,0.877-3.154,1.343l-0.001,0.001c-1.129,0.491-2.447-0.024-2.94-1.15
		C731.542,162.816,731.487,162.396,731.547,161.98 M738.186,161.122c0.031-0.215,0.009-0.44-0.08-0.655
		c-0.126-0.307-0.365-0.546-0.672-0.674c-0.308-0.127-0.645-0.128-0.952-0.001c-1.067,0.439-2.144,0.896-3.228,1.372
		c-0.604,0.266-0.903,1.032-0.64,1.638c0.275,0.629,1.01,0.916,1.641,0.644c1.066-0.47,2.125-0.921,3.175-1.353
		C737.849,161.92,738.124,161.542,738.186,161.122"/>
	<path clip-path="url(#SVGID_2_)" fill="#7A62AA" d="M721.05,170.463c0.846-0.457,1.155-1.51,0.701-2.356
		c-0.456-0.844-1.513-1.157-2.356-0.699c-1.021,0.552-2.045,1.116-3.071,1.695c-0.484,0.273-0.79,0.749-0.864,1.26
		c-0.056,0.367,0.009,0.757,0.206,1.106c0.471,0.837,1.53,1.131,2.366,0.661C719.038,171.563,720.045,171.006,721.05,170.463"/>
	<path clip-path="url(#SVGID_2_)" fill="#7A62AA" d="M714.97,170.291c0.103-0.689,0.507-1.278,1.113-1.618
		c1.026-0.579,2.054-1.147,3.077-1.699c0.522-0.284,1.127-0.347,1.697-0.178c0.572,0.17,1.043,0.552,1.327,1.075
		c0.584,1.085,0.181,2.441-0.899,3.025c-1.003,0.543-2.007,1.098-3.012,1.663c-0.52,0.292-1.121,0.365-1.694,0.205
		c-0.574-0.16-1.052-0.535-1.345-1.054C714.99,171.273,714.897,170.782,714.97,170.291 M721.453,169.115
		c0.038-0.257-0.003-0.527-0.137-0.774c-0.156-0.291-0.42-0.504-0.737-0.599c-0.319-0.095-0.655-0.06-0.948,0.1
		c-1.021,0.55-2.041,1.112-3.063,1.69c-0.577,0.325-0.804,1.106-0.472,1.694c0.163,0.29,0.428,0.498,0.749,0.587
		c0.319,0.09,0.657,0.049,0.946-0.115c1.01-0.566,2.018-1.125,3.024-1.67C721.173,169.836,721.396,169.49,721.453,169.115"/>
	<path clip-path="url(#SVGID_2_)" fill="#7A62AA" d="M713.067,175.023c0.819-0.492,1.086-1.563,0.592-2.385
		c-0.495-0.824-1.564-1.088-2.387-0.593c-0.997,0.601-1.994,1.212-2.987,1.832c-0.449,0.282-0.727,0.734-0.799,1.222
		c-0.06,0.395,0.019,0.809,0.246,1.174c0.51,0.816,1.582,1.063,2.395,0.554C711.105,176.214,712.084,175.615,713.067,175.023"/>
	<path clip-path="url(#SVGID_2_)" fill="#7A62AA" d="M706.998,175.027c0.095-0.648,0.469-1.22,1.026-1.567
		c0.992-0.622,1.993-1.234,2.992-1.836c0.513-0.309,1.112-0.399,1.69-0.256c0.579,0.144,1.067,0.505,1.375,1.016
		c0.635,1.056,0.294,2.43-0.761,3.063c-0.979,0.59-1.956,1.188-2.933,1.798c-0.506,0.317-1.102,0.418-1.684,0.284
		c-0.581-0.134-1.075-0.486-1.391-0.994C707.033,176.083,706.92,175.548,706.998,175.027 M713.401,173.717
		c0.041-0.276-0.011-0.566-0.165-0.824c-0.171-0.285-0.443-0.487-0.767-0.566c-0.322-0.081-0.658-0.029-0.942,0.143
		c-0.994,0.6-1.99,1.209-2.98,1.828c-0.563,0.352-0.753,1.143-0.395,1.717c0.176,0.282,0.452,0.478,0.774,0.553
		c0.323,0.075,0.657,0.02,0.938-0.158c0.979-0.613,1.963-1.215,2.946-1.808C713.143,174.401,713.348,174.071,713.401,173.717"/>
	<path clip-path="url(#SVGID_2_)" fill="#7A62AA" d="M758.747,155.29c0.068,0.957,0.898,1.68,1.855,1.61
		c1.128-0.077,2.266-0.128,3.378-0.145c0.959-0.014,1.725-0.804,1.711-1.765c-0.016-0.961-0.805-1.725-1.766-1.712
		c-1.175,0.02-2.376,0.071-3.566,0.153c-0.829,0.06-1.479,0.689-1.597,1.48C758.745,155.032,758.741,155.159,758.747,155.29"/>
	<path clip-path="url(#SVGID_2_)" fill="#7A62AA" d="M758.274,154.841c0.154-1.044,0.998-1.825,2.052-1.9
		c1.206-0.083,2.414-0.135,3.591-0.155c1.232-0.016,2.247,0.971,2.268,2.197c0.012,1.233-0.969,2.249-2.196,2.267
		c-1.084,0.017-2.211,0.064-3.35,0.145c-1.226,0.088-2.296-0.84-2.384-2.069l-0.002-0.012
		C758.247,155.148,758.25,154.99,758.274,154.841 M765.184,155.198c0.01-0.064,0.014-0.133,0.014-0.2
		c-0.011-0.685-0.578-1.234-1.265-1.226c-1.16,0.02-2.352,0.071-3.539,0.153c-0.677,0.048-1.188,0.598-1.154,1.335
		c0.051,0.683,0.647,1.197,1.327,1.147c1.159-0.08,2.304-0.13,3.406-0.146C764.589,156.254,765.096,155.793,765.184,155.198"/>
	<path clip-path="url(#SVGID_2_)" fill="#7A62AA" d="M705.296,179.942c0.8-0.531,1.017-1.61,0.481-2.41
		c-0.529-0.8-1.608-1.015-2.407-0.484c-0.97,0.646-1.937,1.3-2.898,1.965c-0.412,0.284-0.664,0.717-0.733,1.178
		c-0.062,0.418,0.029,0.863,0.289,1.239c0.545,0.789,1.628,0.989,2.417,0.444C703.392,181.221,704.342,180.575,705.296,179.942"/>
	<path clip-path="url(#SVGID_2_)" fill="#7A62AA" d="M699.251,180.118c0.089-0.611,0.434-1.164,0.941-1.512
		c0.964-0.666,1.933-1.321,2.903-1.969c0.499-0.331,1.097-0.447,1.682-0.329c0.583,0.118,1.085,0.456,1.413,0.952
		c0.33,0.495,0.456,1.084,0.33,1.674c-0.116,0.584-0.455,1.088-0.952,1.419c-0.952,0.632-1.9,1.275-2.843,1.926
		c-1.012,0.699-2.403,0.443-3.104-0.568C699.3,181.244,699.168,180.68,699.251,180.118 M705.565,178.678
		c0.046-0.305-0.023-0.611-0.196-0.871c-0.184-0.277-0.463-0.465-0.787-0.531c-0.327-0.065-0.66-0.001-0.938,0.185
		c-0.967,0.644-1.933,1.295-2.892,1.959c-0.542,0.373-0.694,1.188-0.318,1.729c0.391,0.565,1.168,0.708,1.731,0.319
		c0.948-0.654,1.901-1.301,2.857-1.937c0.276-0.185,0.465-0.465,0.53-0.791C705.558,178.72,705.562,178.698,705.565,178.678"/>
	<path clip-path="url(#SVGID_2_)" fill="#7A62AA" d="M768.009,155.063c-0.078,0.959,0.635,1.794,1.592,1.873
		c1.121,0.091,2.248,0.217,3.351,0.372c0.947,0.133,1.823-0.521,1.963-1.467l0.001-0.011c0.135-0.948-0.527-1.829-1.477-1.962
		c-1.17-0.167-2.367-0.301-3.557-0.396c-0.918-0.073-1.728,0.577-1.859,1.475C768.018,154.984,768.012,155.023,768.009,155.063"/>
	<path clip-path="url(#SVGID_2_)" fill="#7A62AA" d="M767.534,154.874c0.171-1.155,1.221-1.987,2.388-1.894
		c1.196,0.097,2.403,0.229,3.586,0.397c0.59,0.084,1.111,0.392,1.471,0.868c0.358,0.477,0.51,1.064,0.427,1.652
		c-0.181,1.224-1.311,2.069-2.521,1.897c-1.102-0.154-2.219-0.278-3.322-0.368c-0.594-0.05-1.133-0.325-1.52-0.778
		c-0.387-0.454-0.573-1.032-0.524-1.627L767.534,154.874z M774.426,155.769c0.049-0.336-0.036-0.663-0.236-0.928
		c-0.201-0.267-0.492-0.438-0.821-0.485c-1.164-0.165-2.349-0.296-3.525-0.391c-0.651-0.054-1.236,0.409-1.332,1.055l-0.502,0.044
		l0.491,0.04c-0.026,0.332,0.076,0.653,0.292,0.906s0.518,0.406,0.85,0.434c1.122,0.092,2.26,0.219,3.379,0.376
		C773.696,156.914,774.326,156.443,774.426,155.769"/>
	<path clip-path="url(#SVGID_2_)" fill="#7A62AA" d="M742.934,160.552c1.088-0.364,2.171-0.708,3.245-1.02
		c0.92-0.269,1.448-1.231,1.184-2.152c-0.269-0.924-1.233-1.452-2.155-1.183c-1.122,0.325-2.25,0.677-3.386,1.06
		c-0.639,0.218-1.072,0.771-1.164,1.396c-0.038,0.263-0.017,0.537,0.073,0.808C741.038,160.37,742.024,160.859,742.934,160.552"/>
	<path clip-path="url(#SVGID_2_)" fill="#7A62AA" d="M740.169,158.58c0.123-0.831,0.695-1.517,1.492-1.79
		c1.146-0.386,2.279-0.741,3.408-1.067c0.572-0.166,1.175-0.101,1.698,0.187c0.521,0.286,0.901,0.759,1.067,1.332
		c0.347,1.181-0.341,2.422-1.518,2.765c-1.068,0.311-2.146,0.65-3.226,1.015c-1.166,0.392-2.436-0.236-2.828-1.401
		C740.15,159.276,740.118,158.928,740.169,158.58 M746.923,158.043c0.024-0.171,0.017-0.351-0.035-0.526
		c-0.093-0.319-0.304-0.583-0.596-0.743c-0.29-0.159-0.626-0.196-0.946-0.104c-1.116,0.323-2.237,0.675-3.366,1.055
		c-0.63,0.216-0.998,0.927-0.781,1.581c0.22,0.647,0.928,0.999,1.577,0.779l0.001-0.001c1.093-0.367,2.184-0.711,3.266-1.025
		C746.522,158.918,746.854,158.511,746.923,158.043"/>
	<path clip-path="url(#SVGID_2_)" fill="#7A62AA" d="M751.668,158.158c1.106-0.231,2.229-0.438,3.332-0.613
		c0.947-0.15,1.597-1.04,1.443-1.989c-0.149-0.946-1.04-1.593-1.987-1.442c-1.159,0.182-2.339,0.399-3.503,0.643
		c-0.731,0.153-1.26,0.749-1.362,1.447c-0.029,0.199-0.026,0.404,0.018,0.61C749.806,157.753,750.728,158.354,751.668,158.158"/>
	<path clip-path="url(#SVGID_2_)" fill="#7A62AA" d="M749.103,156.132c0.136-0.921,0.839-1.668,1.75-1.858
		c1.192-0.25,2.379-0.468,3.527-0.648c0.587-0.093,1.177,0.048,1.659,0.399c0.481,0.35,0.8,0.866,0.893,1.453
		c0.094,0.589-0.046,1.179-0.396,1.66c-0.35,0.483-0.868,0.8-1.457,0.896c-1.128,0.179-2.24,0.384-3.309,0.607
		c-1.207,0.252-2.392-0.522-2.644-1.727C749.072,156.66,749.063,156.396,749.103,156.132 M755.959,156.014
		c0.019-0.125,0.018-0.252-0.003-0.38c-0.053-0.329-0.229-0.617-0.497-0.812c-0.27-0.195-0.599-0.274-0.927-0.223
		c-1.131,0.179-2.302,0.394-3.478,0.64c-0.653,0.137-1.098,0.845-0.963,1.471c0.14,0.673,0.803,1.106,1.475,0.966
		c1.084-0.228,2.213-0.436,3.356-0.619c0.329-0.052,0.618-0.229,0.813-0.499C755.855,156.394,755.931,156.208,755.959,156.014"/>
	<path clip-path="url(#SVGID_2_)" fill="#7A62AA" d="M764.492,210.806c0.084-1.115,0.222-2.213,0.409-3.276
		c0.186-0.929-0.461-1.846-1.407-2.014c-0.944-0.168-1.847,0.463-2.015,1.407c-0.059,0.327-0.112,0.658-0.162,0.99
		c-0.127,0.858-0.224,1.745-0.291,2.629c-0.072,0.958,0.645,1.794,1.603,1.863C763.584,212.479,764.429,211.765,764.492,210.806"/>
	<path clip-path="url(#SVGID_2_)" fill="#7A62AA" d="M760.828,207.842c0.05-0.338,0.106-0.673,0.166-1.006
		c0.104-0.585,0.43-1.098,0.917-1.438c0.49-0.342,1.082-0.472,1.669-0.368c0.589,0.105,1.122,0.451,1.462,0.948
		c0.336,0.491,0.473,1.068,0.344,1.648c-0.186,1.043-0.318,2.128-0.401,3.215c-0.031,0.587-0.306,1.126-0.754,1.515
		c-0.456,0.396-1.038,0.589-1.641,0.542c-0.593-0.044-1.135-0.315-1.522-0.768c-0.39-0.453-0.579-1.03-0.534-1.625
		C760.601,209.604,760.7,208.707,760.828,207.842 M764.426,207.385c0.044-0.3-0.026-0.598-0.199-0.852
		c-0.191-0.278-0.489-0.474-0.821-0.532c-0.326-0.059-0.656,0.015-0.928,0.205c-0.273,0.19-0.454,0.476-0.512,0.803
		c-0.209,1.16-0.357,2.351-0.447,3.569c-0.027,0.334,0.079,0.655,0.297,0.907c0.215,0.252,0.516,0.403,0.847,0.428
		c0.34,0.026,0.665-0.081,0.919-0.303c0.249-0.214,0.391-0.518,0.417-0.836v-0.006c0.085-1.121,0.226-2.241,0.416-3.325
		C764.418,207.425,764.423,207.404,764.426,207.385"/>
	<path clip-path="url(#SVGID_2_)" fill="#7A62AA" d="M681.014,199.151c0.827-0.787,1.668-1.566,2.52-2.339
		c0.709-0.647,0.761-1.748,0.116-2.456c-0.647-0.712-1.744-0.764-2.456-0.119c-0.87,0.792-1.729,1.591-2.576,2.395
		c-0.292,0.278-0.466,0.635-0.521,1.004c-0.075,0.512,0.075,1.053,0.46,1.454C679.218,199.787,680.318,199.815,681.014,199.151"/>
	<path clip-path="url(#SVGID_2_)" fill="#7A62AA" d="M677.609,197.563c0.072-0.49,0.31-0.947,0.67-1.289
		c0.851-0.808,1.711-1.608,2.584-2.401c0.912-0.828,2.326-0.759,3.153,0.151c0.826,0.908,0.76,2.322-0.15,3.151
		c-0.849,0.771-1.688,1.549-2.512,2.332c-0.433,0.412-0.999,0.632-1.595,0.615c-0.597-0.015-1.15-0.261-1.561-0.692
		C677.722,198.932,677.507,198.25,677.609,197.563 M683.595,195.708c0.053-0.356-0.049-0.733-0.312-1.021
		c-0.46-0.508-1.25-0.545-1.758-0.083c-0.868,0.788-1.723,1.584-2.569,2.386c-0.483,0.46-0.5,1.279-0.043,1.76
		c0.229,0.242,0.537,0.379,0.87,0.388c0.332,0.009,0.648-0.114,0.889-0.345h0.002c0.83-0.789,1.674-1.57,2.526-2.347
		C683.421,196.245,683.554,195.982,683.595,195.708"/>
	<path clip-path="url(#SVGID_2_)" fill="#7A62AA" d="M697.768,185.205c0.775-0.567,0.94-1.654,0.374-2.431
		c-0.569-0.77-1.658-0.938-2.431-0.368c-0.944,0.692-1.882,1.393-2.813,2.104c-0.374,0.285-0.602,0.691-0.665,1.126
		c-0.067,0.447,0.041,0.918,0.339,1.309c0.582,0.764,1.673,0.907,2.435,0.326C695.92,186.575,696.84,185.888,697.768,185.205"/>
	<path clip-path="url(#SVGID_2_)" fill="#7A62AA" d="M691.745,185.564c0.085-0.578,0.39-1.092,0.855-1.445
		c0.933-0.715,1.872-1.417,2.819-2.111c0.988-0.729,2.387-0.517,3.118,0.474c0.353,0.48,0.496,1.065,0.41,1.649
		c0,0.004-0.001,0.008-0.002,0.013c-0.091,0.589-0.405,1.108-0.887,1.46c-0.924,0.68-1.841,1.365-2.751,2.062
		c-0.982,0.745-2.384,0.556-3.128-0.421C691.811,186.762,691.657,186.165,691.745,185.564 M697.972,183.986
		c0.048-0.326-0.033-0.652-0.229-0.92c-0.407-0.551-1.187-0.67-1.736-0.264c-0.944,0.692-1.881,1.391-2.808,2.1
		c-0.53,0.403-0.639,1.213-0.235,1.742c0.416,0.546,1.199,0.651,1.745,0.235c0.915-0.699,1.837-1.389,2.767-2.071l0.002-0.002
		c0.268-0.196,0.442-0.485,0.494-0.813C697.971,183.99,697.972,183.988,697.972,183.986"/>
	<path clip-path="url(#SVGID_2_)" fill="#7A62AA" d="M768.021,194.915c0.776,0.56,1.864,0.389,2.426-0.389
		c0.635-0.879,1.331-1.748,2.067-2.583c0.632-0.721,0.563-1.82-0.156-2.455c-0.719-0.635-1.818-0.563-2.452,0.155
		c-0.81,0.921-1.576,1.878-2.276,2.845c-0.169,0.232-0.27,0.493-0.309,0.762C767.229,193.87,767.476,194.521,768.021,194.915"/>
	<path clip-path="url(#SVGID_2_)" fill="#7A62AA" d="M766.833,193.178c0.053-0.362,0.188-0.692,0.399-0.981
		c0.698-0.967,1.476-1.936,2.303-2.879c0.395-0.447,0.938-0.713,1.535-0.752c0.595-0.038,1.169,0.159,1.615,0.553
		c0.919,0.814,1.009,2.227,0.199,3.151c-0.73,0.829-1.417,1.685-2.038,2.545c-0.721,0.995-2.117,1.219-3.114,0.501
		C767.053,194.825,766.709,194.006,766.833,193.178 M772.439,190.979c0.06-0.405-0.078-0.831-0.407-1.122
		c-0.248-0.218-0.568-0.328-0.9-0.308c-0.332,0.021-0.636,0.171-0.855,0.42c-0.808,0.919-1.563,1.863-2.246,2.808
		c-0.387,0.53-0.262,1.346,0.279,1.738c0.557,0.399,1.337,0.275,1.738-0.279c0.639-0.885,1.344-1.767,2.097-2.619
		C772.307,191.431,772.405,191.208,772.439,190.979"/>
	<path clip-path="url(#SVGID_2_)" fill="#7A62AA" d="M690.493,190.828c0.745-0.604,0.855-1.699,0.251-2.443
		c-0.605-0.745-1.7-0.855-2.443-0.252c-0.911,0.741-1.812,1.487-2.704,2.244c-0.335,0.284-0.537,0.668-0.596,1.07
		c-0.07,0.477,0.057,0.981,0.394,1.378c0.62,0.733,1.718,0.822,2.45,0.203C688.717,192.288,689.599,191.556,690.493,190.828"/>
	<path clip-path="url(#SVGID_2_)" fill="#7A62AA" d="M684.512,191.375c0.079-0.535,0.352-1.023,0.764-1.375
		c0.896-0.758,1.799-1.505,2.711-2.251c0.957-0.775,2.365-0.629,3.141,0.325c0.774,0.954,0.63,2.361-0.323,3.138
		c-0.891,0.723-1.77,1.455-2.64,2.193c-0.941,0.795-2.353,0.678-3.146-0.262C684.603,192.655,684.418,192.01,684.512,191.375
		 M690.625,189.664c0.05-0.334-0.035-0.688-0.266-0.968c-0.431-0.532-1.216-0.614-1.751-0.181c-0.905,0.738-1.804,1.482-2.692,2.237
		c-0.508,0.43-0.573,1.249-0.146,1.753c0.443,0.524,1.231,0.589,1.756,0.146c0.874-0.742,1.76-1.479,2.655-2.206
		C690.431,190.243,690.582,189.961,690.625,189.664"/>
	<path clip-path="url(#SVGID_2_)" fill="#7A62AA" d="M825.73,214.922c0.945-0.156,1.588-1.052,1.434-1.999
		c-0.193-1.17-0.408-2.332-0.643-3.482c-0.193-0.94-1.11-1.548-2.052-1.354c-0.735,0.15-1.267,0.745-1.371,1.448
		c-0.028,0.196-0.023,0.399,0.018,0.602c0.226,1.106,0.432,2.225,0.618,3.352C823.889,214.436,824.783,215.078,825.73,214.922"/>
	<path clip-path="url(#SVGID_2_)" fill="#7A62AA" d="M822.61,209.462c0.136-0.926,0.844-1.672,1.761-1.859
		c0.583-0.12,1.18-0.005,1.676,0.324c0.497,0.328,0.837,0.83,0.957,1.415c0.238,1.157,0.452,2.325,0.647,3.501
		c0.199,1.216-0.629,2.365-1.84,2.565h-0.001c-1.214,0.2-2.363-0.627-2.564-1.841c-0.183-1.12-0.389-2.232-0.614-3.332
		C822.58,209.974,822.573,209.715,822.61,209.462 M826.68,213.385c0.019-0.124,0.018-0.252-0.003-0.382
		c-0.191-1.162-0.405-2.319-0.642-3.463c-0.065-0.326-0.255-0.607-0.532-0.79c-0.277-0.184-0.607-0.247-0.933-0.181
		c-0.653,0.133-1.114,0.778-0.971,1.472c0.227,1.108,0.434,2.233,0.62,3.366c0.111,0.679,0.752,1.14,1.429,1.028
		C826.197,214.345,826.603,213.906,826.68,213.385"/>
	<path clip-path="url(#SVGID_2_)" fill="#7A62AA" d="M809.29,171.918c-0.816,0.071-1.449,0.699-1.564,1.475
		c-0.02,0.132-0.023,0.271-0.011,0.413c0.046,0.518,0.319,0.964,0.71,1.249l-0.042,0.035c-0.744,0.609-0.853,1.704-0.243,2.446
		c0.703,0.858,1.4,1.756,2.075,2.673c0.567,0.772,1.655,0.94,2.429,0.37c0.773-0.568,0.938-1.656,0.371-2.429
		c-0.711-0.965-1.447-1.916-2.187-2.818c-0.016-0.018-0.028-0.033-0.043-0.049c0.734-0.056,1.475-0.099,2.206-0.131
		c0.959-0.041,1.708-0.853,1.659-1.814c-0.042-0.958-0.852-1.7-1.811-1.659C811.66,171.731,810.464,171.813,809.29,171.918"/>
	<path clip-path="url(#SVGID_2_)" fill="#7A62AA" d="M807.237,173.319c0.151-1.024,0.978-1.802,2.01-1.893
		c1.172-0.106,2.374-0.188,3.571-0.24c1.228-0.054,2.271,0.901,2.326,2.129c0.028,0.594-0.178,1.163-0.577,1.603
		c-0.404,0.443-0.957,0.702-1.557,0.728c-0.412,0.018-0.828,0.04-1.244,0.064c0.562,0.704,1.105,1.414,1.646,2.147
		c0.726,0.994,0.511,2.391-0.478,3.119c-0.479,0.353-1.067,0.499-1.656,0.409c-0.59-0.091-1.11-0.404-1.462-0.885
		c-0.66-0.896-1.354-1.79-2.061-2.651c-0.378-0.461-0.553-1.041-0.495-1.635c0.035-0.426,0.202-0.821,0.459-1.15
		c-0.281-0.344-0.459-0.767-0.499-1.215C807.208,173.665,807.211,173.487,807.237,173.319 M814.147,173.606
		c0.012-0.08,0.016-0.162,0.012-0.244c-0.032-0.688-0.613-1.22-1.298-1.191c-1.184,0.054-2.368,0.134-3.527,0.238l-0.001,0.001
		c-0.668,0.059-1.187,0.605-1.127,1.354c0.031,0.353,0.216,0.678,0.509,0.891l0.511,0.372l-0.483,0.405
		c-0.305,0.251-0.468,0.543-0.498,0.88c-0.033,0.33,0.065,0.653,0.276,0.911c0.72,0.877,1.423,1.782,2.092,2.693
		c0.195,0.268,0.486,0.442,0.814,0.493c0.328,0.05,0.657-0.032,0.924-0.228c0.554-0.407,0.673-1.187,0.267-1.741
		c-0.726-0.984-1.456-1.926-2.171-2.796l-0.604-0.733l0.905-0.121c0.74-0.057,1.485-0.1,2.22-0.132
		c0.336-0.014,0.645-0.158,0.868-0.406C814.004,174.07,814.112,173.847,814.147,173.606"/>
	<path clip-path="url(#SVGID_2_)" fill="#7A62AA" d="M782.108,179.968c-0.487,0.272-0.793,0.745-0.869,1.262
		c-0.055,0.366,0.009,0.755,0.204,1.103c0.47,0.839,1.528,1.135,2.364,0.667c0.959-0.538,1.964-1.06,2.987-1.552
		c0.865-0.415,1.231-1.453,0.814-2.321c-0.415-0.863-1.453-1.228-2.319-0.812C784.2,178.84,783.128,179.396,782.108,179.968"/>
	<path clip-path="url(#SVGID_2_)" fill="#7A62AA" d="M780.75,181.157c0.102-0.691,0.509-1.282,1.118-1.62
		c1.021-0.574,2.1-1.135,3.206-1.668c1.109-0.533,2.446-0.064,2.979,1.044c0.533,1.107,0.064,2.447-1.046,2.979
		c-1.022,0.492-2.019,1.009-2.959,1.538c-0.52,0.291-1.122,0.362-1.694,0.2c-0.574-0.161-1.051-0.536-1.342-1.057
		C780.768,182.137,780.676,181.646,780.75,181.157 M787.274,180.061c0.035-0.237,0.002-0.487-0.11-0.721
		c-0.296-0.618-1.042-0.879-1.661-0.581c-1.086,0.524-2.146,1.076-3.154,1.64l0,0c-0.577,0.321-0.804,1.103-0.475,1.693
		c0.162,0.289,0.427,0.498,0.748,0.589c0.319,0.089,0.655,0.049,0.944-0.111c0.958-0.538,1.973-1.065,3.016-1.567
		C786.967,180.816,787.214,180.457,787.274,180.061"/>
	<path clip-path="url(#SVGID_2_)" fill="#7A62AA" d="M816.972,173.326c-0.032,0.96,0.72,1.763,1.679,1.795
		c1.126,0.037,2.266,0.102,3.387,0.191c0.956,0.075,1.797-0.64,1.872-1.593c0.077-0.959-0.638-1.796-1.594-1.873
		c-1.177-0.092-2.37-0.161-3.549-0.198c-0.894-0.03-1.649,0.617-1.777,1.479C816.98,173.193,816.974,173.26,816.972,173.326"/>
	<path clip-path="url(#SVGID_2_)" fill="#7A62AA" d="M816.501,173.057c0.166-1.123,1.146-1.94,2.283-1.901
		c1.145,0.036,2.346,0.104,3.569,0.2c1.228,0.098,2.146,1.176,2.049,2.404c-0.088,1.212-1.174,2.141-2.402,2.046
		c-1.124-0.09-2.256-0.155-3.366-0.191c-1.229-0.042-2.195-1.074-2.156-2.303C816.48,173.226,816.49,173.141,816.501,173.057
		 M823.41,173.766c0.004-0.027,0.007-0.057,0.009-0.084c0.054-0.687-0.458-1.288-1.143-1.342c-1.209-0.096-2.395-0.162-3.525-0.198
		c-0.679-0.023-1.273,0.515-1.284,1.197l-0.001,0.004c-0.023,0.686,0.516,1.262,1.201,1.285c1.126,0.036,2.272,0.102,3.411,0.193
		C822.734,174.872,823.314,174.404,823.41,173.766"/>
	<path clip-path="url(#SVGID_2_)" fill="#7A62AA" d="M794.162,174.858c-1.139,0.353-2.276,0.734-3.381,1.14
		c-0.62,0.229-1.031,0.77-1.121,1.379c-0.041,0.278-0.018,0.57,0.087,0.853c0.33,0.9,1.329,1.362,2.229,1.032
		c1.049-0.385,2.128-0.749,3.208-1.082c0.918-0.281,1.435-1.255,1.15-2.172C796.051,175.09,795.08,174.576,794.162,174.858"/>
	<path clip-path="url(#SVGID_2_)" fill="#7A62AA" d="M789.17,177.305c0.119-0.809,0.673-1.486,1.44-1.769
		c1.095-0.402,2.242-0.789,3.406-1.149c1.175-0.362,2.427,0.3,2.79,1.477c0.175,0.567,0.119,1.17-0.16,1.697
		c-0.278,0.528-0.747,0.915-1.318,1.092c-1.078,0.333-2.149,0.693-3.182,1.072c-0.561,0.206-1.166,0.182-1.707-0.069
		c-0.541-0.25-0.952-0.697-1.156-1.257C789.156,178.051,789.117,177.672,789.17,177.305 M794.308,175.33
		c-1.148,0.354-2.278,0.735-3.357,1.132c-0.627,0.229-0.969,0.975-0.742,1.598c0.116,0.312,0.344,0.561,0.646,0.7
		c0.302,0.139,0.64,0.153,0.952,0.038c1.05-0.385,2.137-0.751,3.23-1.089c0.32-0.098,0.581-0.315,0.737-0.609
		c0.156-0.293,0.187-0.63,0.089-0.945C795.662,175.498,794.962,175.128,794.308,175.33"/>
	<path clip-path="url(#SVGID_2_)" fill="#7A62AA" d="M813.935,182.503c-0.457,0.28-0.738,0.737-0.813,1.229
		c-0.057,0.391,0.016,0.801,0.238,1.162c0.585,0.957,1.157,1.942,1.701,2.934c0.461,0.841,1.519,1.147,2.359,0.688
		c0.842-0.461,1.147-1.518,0.688-2.36c-0.571-1.036-1.17-2.071-1.784-3.078C815.823,182.259,814.753,182.003,813.935,182.503"/>
	<path clip-path="url(#SVGID_2_)" fill="#7A62AA" d="M812.634,183.66c0.099-0.656,0.478-1.231,1.042-1.577v-0.001
		c1.052-0.641,2.427-0.31,3.069,0.737c0.625,1.025,1.229,2.067,1.797,3.099c0.588,1.082,0.191,2.44-0.884,3.029
		c-1.08,0.592-2.44,0.195-3.03-0.882c-0.539-0.983-1.107-1.965-1.688-2.914C812.667,184.709,812.559,184.179,812.634,183.66
		 M814.192,182.925c-0.563,0.345-0.754,1.152-0.411,1.71c0.59,0.964,1.167,1.958,1.714,2.957c0.329,0.6,1.088,0.821,1.689,0.491
		c0.602-0.329,0.822-1.088,0.492-1.691c-0.559-1.016-1.156-2.046-1.772-3.057C815.545,182.752,814.778,182.567,814.192,182.925"/>
	<path clip-path="url(#SVGID_2_)" fill="#7A62AA" d="M817.452,191.922c-0.047,0.315-0.006,0.65,0.136,0.968
		c0.462,1.025,0.907,2.069,1.329,3.126c0.355,0.893,1.368,1.326,2.261,0.969c0.89-0.354,1.324-1.363,0.968-2.259
		c-0.436-1.088-0.902-2.188-1.39-3.267c-0.396-0.874-1.424-1.266-2.3-0.872C817.895,190.842,817.535,191.357,817.452,191.922"/>
	<path clip-path="url(#SVGID_2_)" fill="#7A62AA" d="M816.961,191.849c0.113-0.756,0.595-1.396,1.289-1.711
		c1.124-0.504,2.448-0.002,2.953,1.117c0.491,1.086,0.961,2.193,1.4,3.287c0.456,1.146-0.104,2.447-1.245,2.901
		c-0.553,0.221-1.159,0.214-1.707-0.021s-0.973-0.67-1.195-1.224c-0.418-1.051-0.86-2.088-1.318-3.106
		C816.961,192.7,816.901,192.271,816.961,191.849 M821.762,195.551c0.03-0.21,0.009-0.431-0.075-0.643
		c-0.432-1.081-0.898-2.174-1.381-3.247c-0.282-0.625-1.022-0.905-1.648-0.624c-0.6,0.273-0.897,1.033-0.621,1.65
		c0.466,1.031,0.912,2.082,1.336,3.146c0.125,0.309,0.362,0.552,0.667,0.683c0.306,0.132,0.645,0.136,0.953,0.012
		C821.418,196.357,821.699,195.977,821.762,195.551"/>
	<path clip-path="url(#SVGID_2_)" fill="#7A62AA" d="M779.484,183.575c-0.563-0.775-1.65-0.949-2.429-0.384
		c-0.983,0.713-1.938,1.462-2.838,2.228c-0.334,0.282-0.533,0.666-0.593,1.067c-0.071,0.478,0.058,0.983,0.395,1.383
		c0.622,0.729,1.72,0.818,2.448,0.195c0.832-0.705,1.719-1.398,2.629-2.062C779.875,185.44,780.045,184.351,779.484,183.575"/>
	<path clip-path="url(#SVGID_2_)" fill="#7A62AA" d="M773.136,186.413c0.08-0.535,0.35-1.023,0.763-1.371
		c0.89-0.759,1.855-1.516,2.868-2.25c0.48-0.35,1.069-0.492,1.657-0.4c0.59,0.094,1.107,0.41,1.459,0.894
		c0.348,0.483,0.464,1.103,0.396,1.661c-0.094,0.59-0.412,1.106-0.894,1.457c-0.908,0.66-1.783,1.346-2.598,2.037
		c-0.451,0.386-1.026,0.572-1.621,0.526c-0.596-0.047-1.138-0.322-1.523-0.777C773.227,187.695,773.042,187.049,773.136,186.413
		 M779.084,183.865c-0.195-0.27-0.484-0.446-0.813-0.498c-0.329-0.051-0.657,0.027-0.924,0.223
		c-0.993,0.721-1.939,1.461-2.808,2.203c-0.508,0.429-0.571,1.251-0.144,1.758c0.214,0.252,0.517,0.405,0.849,0.433
		c0.33,0.025,0.651-0.078,0.902-0.294c0.836-0.709,1.731-1.409,2.659-2.085c0.269-0.195,0.447-0.484,0.499-0.813
		C779.336,184.479,779.279,184.134,779.084,183.865"/>
	<path clip-path="url(#SVGID_2_)" fill="#7A62AA" d="M777.188,156.272c-0.016,0.055-0.024,0.109-0.033,0.167
		c-0.129,0.873,0.425,1.721,1.301,1.937c1.086,0.271,2.175,0.577,3.239,0.913c0.914,0.292,1.891-0.218,2.18-1.134
		c0.284-0.916-0.217-1.892-1.134-2.181c-1.132-0.356-2.291-0.684-3.449-0.973C778.361,154.771,777.418,155.34,777.188,156.272"/>
	<path clip-path="url(#SVGID_2_)" fill="#7A62AA" d="M776.667,156.366c0.01-0.071,0.025-0.144,0.042-0.214
		c0.145-0.578,0.505-1.065,1.014-1.374c0.511-0.308,1.111-0.397,1.69-0.254c1.145,0.285,2.314,0.614,3.476,0.979
		c1.167,0.368,1.823,1.616,1.458,2.798c-0.181,0.573-0.572,1.039-1.104,1.313c-0.528,0.274-1.131,0.325-1.698,0.144
		c-1.044-0.329-2.123-0.633-3.208-0.904C777.216,158.579,776.498,157.509,776.667,156.366 M783.448,157.819
		c0.089-0.596-0.268-1.188-0.855-1.375c-1.142-0.357-2.292-0.683-3.419-0.963c-0.323-0.08-0.657-0.028-0.94,0.143
		c-0.284,0.172-0.485,0.443-0.565,0.768l-0.002,0.002c-0.152,0.659,0.244,1.34,0.909,1.503c1.104,0.276,2.204,0.586,3.269,0.922
		c0.316,0.102,0.651,0.072,0.946-0.08c0.296-0.152,0.513-0.413,0.616-0.731C783.423,157.944,783.438,157.882,783.448,157.819"/>
	<path clip-path="url(#SVGID_2_)" fill="#7A62AA" d="M858.072,191.192c-0.066,0.45,0.043,0.927,0.343,1.314
		c0.547,0.711,1.07,1.448,1.553,2.188l0.343,0.533c0.514,0.813,1.586,1.052,2.399,0.539c0.811-0.515,1.049-1.591,0.536-2.399
		l-0.368-0.571c-0.532-0.813-1.107-1.626-1.709-2.408c-0.585-0.761-1.676-0.903-2.438-0.317
		C858.36,190.357,858.134,190.765,858.072,191.192"/>
	<path clip-path="url(#SVGID_2_)" fill="#7A62AA" d="M857.583,191.12c0.086-0.573,0.386-1.084,0.848-1.44
		c0.472-0.365,1.057-0.521,1.647-0.444c0.592,0.076,1.118,0.38,1.481,0.853c0.598,0.774,1.181,1.596,1.73,2.439l0.37,0.572
		c0.322,0.507,0.413,1.104,0.295,1.686c-0.13,0.582-0.478,1.079-0.981,1.397c-0.505,0.319-1.104,0.422-1.685,0.293
		c-0.581-0.131-1.076-0.48-1.395-0.984l-0.341-0.528c-0.479-0.73-0.991-1.456-1.529-2.155
		C857.656,192.334,857.494,191.718,857.583,191.12 M863.01,194.479c0.043-0.295-0.021-0.593-0.182-0.847l-0.365-0.568
		c-0.534-0.818-1.103-1.618-1.686-2.375c-0.204-0.264-0.497-0.433-0.827-0.476s-0.655,0.046-0.919,0.248
		c-0.531,0.41-0.631,1.224-0.228,1.744c0.555,0.721,1.085,1.468,1.575,2.22l0.346,0.534c0.181,0.287,0.457,0.48,0.78,0.554
		c0.324,0.072,0.658,0.015,0.94-0.163c0.279-0.178,0.475-0.455,0.546-0.779C862.999,194.54,863.005,194.509,863.01,194.479"/>
	<path clip-path="url(#SVGID_2_)" fill="#7A62AA" d="M794.321,163.107c-0.142,0.216-0.229,0.452-0.264,0.694
		c-0.096,0.649,0.184,1.328,0.771,1.711c0.934,0.609,1.866,1.254,2.767,1.925c0.772,0.571,1.859,0.409,2.431-0.361
		c0.572-0.771,0.411-1.86-0.36-2.432c-0.958-0.712-1.948-1.398-2.939-2.045C795.922,162.076,794.843,162.303,794.321,163.107"/>
	<path clip-path="url(#SVGID_2_)" fill="#7A62AA" d="M793.57,163.729c0.048-0.321,0.161-0.622,0.338-0.891
		c0.325-0.499,0.825-0.843,1.409-0.967c0.583-0.123,1.179-0.011,1.679,0.314c1.011,0.658,2.009,1.351,2.964,2.062
		c0.479,0.354,0.79,0.875,0.878,1.466c0.085,0.59-0.06,1.178-0.418,1.656c-0.354,0.479-0.873,0.789-1.462,0.877
		c-0.588,0.09-1.177-0.059-1.657-0.414c-0.858-0.64-1.78-1.28-2.743-1.906C793.831,165.451,793.443,164.589,793.57,163.729
		 M799.861,166.223c0.018-0.12,0.019-0.242,0-0.365c-0.049-0.328-0.224-0.618-0.489-0.816c-0.941-0.698-1.92-1.381-2.915-2.027
		c-0.279-0.183-0.611-0.244-0.936-0.175c-0.326,0.068-0.604,0.26-0.787,0.539c-0.357,0.55-0.194,1.358,0.362,1.722
		c0.979,0.637,1.918,1.291,2.793,1.941c0.268,0.198,0.595,0.28,0.924,0.23c0.327-0.049,0.617-0.222,0.814-0.489
		C799.752,166.614,799.832,166.424,799.861,166.223"/>
	<path clip-path="url(#SVGID_2_)" fill="#7A62AA" d="M801.817,168.547c-0.645,0.713-0.59,1.811,0.12,2.456
		c0.592,0.536,1.177,1.087,1.747,1.647c-0.092,0.003-0.184,0.011-0.277,0.027c-1.171,0.196-2.35,0.425-3.501,0.674
		c-0.726,0.159-1.246,0.751-1.349,1.445c-0.03,0.202-0.023,0.415,0.022,0.626c0.204,0.938,1.131,1.533,2.067,1.328
		c1.099-0.24,2.222-0.461,3.339-0.646c0.946-0.162,1.582-1.058,1.424-2.003c-0.016-0.089-0.036-0.177-0.066-0.26
		c0.527,0.084,1.083-0.076,1.491-0.48c0.685-0.67,0.692-1.771,0.02-2.455c-0.833-0.846-1.701-1.682-2.582-2.479
		C803.561,167.782,802.462,167.835,801.817,168.547"/>
	<path clip-path="url(#SVGID_2_)" fill="#7A62AA" d="M798.069,174.725c0.135-0.913,0.83-1.657,1.731-1.854
		c0.96-0.208,1.906-0.396,2.822-0.559c-0.335-0.318-0.675-0.634-1.017-0.942c-0.91-0.828-0.979-2.24-0.154-3.153
		c0.4-0.442,0.949-0.702,1.545-0.73c0.595-0.028,1.166,0.177,1.607,0.577c0.874,0.791,1.749,1.633,2.603,2.498
		c0.418,0.426,0.644,0.987,0.639,1.584c0,0.6-0.242,1.154-0.666,1.57c-0.342,0.339-0.785,0.554-1.254,0.62
		c0.02,1.087-0.752,2.068-1.855,2.256c-1.056,0.175-2.169,0.392-3.317,0.643c-1.201,0.262-2.393-0.504-2.656-1.705
		C798.039,175.263,798.029,174.993,798.069,174.725 M804.864,173.119l-1.168,0.025c-0.066,0.001-0.133,0.006-0.197,0.018
		c-1.126,0.188-2.296,0.414-3.489,0.673c-0.646,0.142-1.094,0.826-0.948,1.482c0.146,0.671,0.811,1.097,1.481,0.951
		c1.163-0.254,2.294-0.473,3.363-0.65c0.674-0.115,1.134-0.762,1.017-1.436c-0.011-0.06-0.025-0.124-0.045-0.184l-0.261-0.775
		l0.808,0.13c0.385,0.063,0.783-0.065,1.063-0.342c0.237-0.232,0.367-0.544,0.373-0.875c0.003-0.333-0.124-0.646-0.356-0.884
		c-0.839-0.852-1.702-1.68-2.562-2.459c-0.247-0.224-0.566-0.339-0.897-0.323c-0.333,0.017-0.638,0.161-0.863,0.407
		c-0.461,0.51-0.42,1.299,0.088,1.759c0.596,0.54,1.186,1.097,1.762,1.663L804.864,173.119z"/>
	<path clip-path="url(#SVGID_2_)" fill="#7A62AA" d="M786.045,158.969c-0.063,0.144-0.104,0.292-0.126,0.44
		c-0.112,0.759,0.289,1.526,1.021,1.849c1.026,0.447,2.047,0.93,3.04,1.439c0.854,0.437,1.9,0.102,2.337-0.753
		c0.436-0.856,0.102-1.903-0.753-2.34c-1.053-0.543-2.14-1.056-3.231-1.533C787.454,157.688,786.43,158.088,786.045,158.969"/>
	<path clip-path="url(#SVGID_2_)" fill="#7A62AA" d="M785.431,159.336c0.028-0.194,0.083-0.386,0.163-0.564
		c0.238-0.546,0.675-0.967,1.229-1.186c0.556-0.217,1.161-0.205,1.708,0.033c1.13,0.493,2.228,1.014,3.261,1.547
		c1.09,0.559,1.523,1.904,0.967,3.001c-0.562,1.096-1.907,1.529-3.003,0.969c-0.966-0.496-1.98-0.976-3.01-1.425
		C785.823,161.307,785.283,160.329,785.431,159.336 M792.002,161.336c0.076-0.515-0.178-1.044-0.662-1.293
		c-1.017-0.522-2.094-1.035-3.204-1.52c-0.305-0.132-0.644-0.14-0.953-0.019c-0.309,0.122-0.552,0.356-0.685,0.661l-0.001,0.001
		c-0.265,0.606,0.027,1.369,0.644,1.64c1.048,0.457,2.081,0.945,3.065,1.45c0.609,0.313,1.36,0.071,1.674-0.538
		C791.941,161.596,791.983,161.465,792.002,161.336"/>
	<path clip-path="url(#SVGID_2_)" fill="#7A62AA" d="M851.94,183.783c-0.198,0.25-0.317,0.537-0.361,0.83
		c-0.088,0.592,0.132,1.213,0.633,1.615c0.872,0.696,1.713,1.433,2.505,2.183c0.695,0.664,1.794,0.636,2.457-0.059
		c0.662-0.696,0.634-1.799-0.061-2.457c-0.862-0.82-1.78-1.621-2.731-2.384C853.631,182.913,852.54,183.034,851.94,183.783"/>
	<path clip-path="url(#SVGID_2_)" fill="#7A62AA" d="M851.09,184.541c0.057-0.388,0.218-0.757,0.464-1.064v-0.001
		c0.77-0.96,2.175-1.116,3.137-0.349c0.965,0.773,1.895,1.584,2.762,2.41c0.432,0.41,0.678,0.964,0.691,1.561
		c0.02,0.597-0.201,1.162-0.612,1.595c-0.413,0.433-0.969,0.678-1.564,0.691c-0.595,0.015-1.161-0.205-1.591-0.616
		c-0.796-0.755-1.629-1.479-2.473-2.154C851.287,186.119,850.973,185.324,851.09,184.541 M852.326,184.091
		c-0.414,0.521-0.321,1.339,0.193,1.751c0.867,0.693,1.72,1.437,2.536,2.21c0.242,0.231,0.558,0.354,0.89,0.347
		c0.332-0.008,0.642-0.146,0.872-0.388c0.229-0.239,0.349-0.558,0.343-0.889c-0.009-0.332-0.147-0.641-0.388-0.869
		c-0.847-0.808-1.757-1.6-2.698-2.355C853.539,183.469,852.754,183.557,852.326,184.091"/>
	<path clip-path="url(#SVGID_2_)" fill="#7A62AA" d="M826.21,173.995l-0.004,0.025c-0.14,0.936,0.501,1.818,1.44,1.97
		c1.121,0.182,2.241,0.395,3.327,0.63c0.938,0.201,1.862-0.395,2.066-1.333c0.186-0.938-0.395-1.859-1.333-2.066
		c-1.144-0.246-2.322-0.468-3.502-0.661C827.257,172.406,826.365,173.05,826.21,173.995"/>
	<path clip-path="url(#SVGID_2_)" fill="#7A62AA" d="M825.718,173.948l0.004-0.032c0.2-1.214,1.349-2.04,2.563-1.844
		c1.185,0.193,2.373,0.417,3.526,0.665c1.202,0.267,1.968,1.42,1.714,2.646c-0.264,1.211-1.452,1.978-2.654,1.72
		c-1.082-0.235-2.192-0.445-3.302-0.625C826.371,176.283,825.541,175.148,825.718,173.948 M826.698,174.071l-0.003,0.021
		c-0.1,0.67,0.362,1.302,1.03,1.411c1.128,0.183,2.257,0.396,3.354,0.635c0.669,0.143,1.333-0.285,1.478-0.956
		c0.126-0.648-0.283-1.333-0.956-1.481c-1.135-0.243-2.306-0.464-3.475-0.654C827.45,172.937,826.81,173.397,826.698,174.071"/>
	<path clip-path="url(#SVGID_2_)" fill="#7A62AA" d="M843.963,179.089c-0.088,0.174-0.144,0.354-0.17,0.536
		c-0.105,0.717,0.246,1.454,0.928,1.803c1.006,0.512,1.99,1.058,2.928,1.624c0.821,0.497,1.889,0.236,2.385-0.586
		c0.497-0.823,0.234-1.891-0.588-2.386c-1.008-0.611-2.065-1.199-3.143-1.749C845.447,177.894,844.4,178.232,843.963,179.089"/>
	<path clip-path="url(#SVGID_2_)" fill="#7A62AA" d="M843.304,179.553c0.036-0.237,0.109-0.468,0.218-0.685l0.002-0.004
		c0.271-0.531,0.733-0.926,1.3-1.109s1.173-0.135,1.705,0.138c1.087,0.555,2.155,1.148,3.174,1.765
		c0.51,0.308,0.869,0.796,1.012,1.375c0.142,0.578,0.051,1.177-0.258,1.689c-0.309,0.51-0.797,0.868-1.376,1.011
		c-0.578,0.142-1.178,0.051-1.688-0.258c-0.921-0.558-1.894-1.098-2.894-1.607C843.645,181.431,843.165,180.499,843.304,179.553
		 M844.404,179.313c-0.302,0.607-0.054,1.37,0.543,1.676c1.02,0.521,2.017,1.073,2.957,1.641c0.285,0.174,0.619,0.225,0.941,0.146
		c0.323-0.079,0.596-0.28,0.768-0.564c0.169-0.283,0.223-0.619,0.143-0.941c-0.079-0.323-0.28-0.596-0.563-0.767
		c-1-0.604-2.046-1.187-3.114-1.731c-0.296-0.151-0.634-0.179-0.95-0.076C844.813,178.796,844.554,179.017,844.404,179.313"/>
	<path clip-path="url(#SVGID_2_)" fill="#7A62AA" d="M835.281,175.876c-0.028,0.089-0.049,0.18-0.063,0.269
		c-0.123,0.83,0.374,1.65,1.201,1.911c1.075,0.335,2.146,0.709,3.183,1.103c0.896,0.343,1.9-0.107,2.241-1.005
		c0.347-0.897-0.107-1.901-1.005-2.241c-1.101-0.421-2.239-0.815-3.379-1.172C836.544,174.452,835.569,174.961,835.281,175.876"/>
	<path clip-path="url(#SVGID_2_)" fill="#7A62AA" d="M834.729,176.072c0.018-0.114,0.045-0.23,0.081-0.344
		c0.179-0.569,0.568-1.034,1.097-1.31c0.527-0.275,1.132-0.329,1.7-0.149c1.153,0.36,2.301,0.758,3.406,1.181
		c0.56,0.212,1.002,0.63,1.247,1.177c0.241,0.543,0.257,1.148,0.044,1.704c-0.21,0.557-0.628,0.997-1.171,1.24
		c-0.545,0.244-1.151,0.26-1.706,0.048c-1.078-0.408-2.141-0.775-3.156-1.093C835.217,178.195,834.569,177.163,834.729,176.072
		 M841.454,177.711c0.034-0.229,0.003-0.465-0.096-0.682c-0.135-0.305-0.384-0.538-0.695-0.657
		c-1.088-0.415-2.215-0.807-3.352-1.161c-0.317-0.1-0.652-0.069-0.947,0.083c-0.295,0.154-0.513,0.413-0.612,0.73v0.001
		c-0.207,0.674,0.167,1.354,0.814,1.559c1.033,0.322,2.114,0.697,3.212,1.112c0.312,0.12,0.648,0.11,0.95-0.026
		c0.305-0.135,0.537-0.381,0.654-0.691C841.417,177.892,841.439,177.801,841.454,177.711"/>
</g>
<path fill="#F37024" d="M955.646,197.597c0,0,2.434-8.541,2.501-8.754c0.253-0.748,0.522-1.739,2.691-2.594
	c0.897-0.368,7.299-2.805,8.105-3.088c0.89-0.313,3.207-1.541-0.229-3.527c0,0-5.737-3.329-6.586-3.824
	c-0.197-0.12-2.581-1.101-2.348-4.005l0.464-8.406c0,0,0.305-5.063-3.125-2.059c-3.361,2.918-6.216,5.09-7.131,5.781
	c-0.969,0.736-2.555,1.131-3.926,0.592c-0.627-0.248-6.521-2.214-7.971-2.64c0,0-4.451-1.753-2.565,3.035
	c0,0,2.984,8.251,3.042,8.386c0.055,0.124,0.685,1.641-0.679,3.343c-1.696,2.091-5.375,7.81-4.591,6.618
	c-0.645,0.995-2.3,3.372,1.712,3.216c0,0,5.314-0.084,7.577-0.029c1.531,0.019,2.569,0.028,4.188,2.234l5.338,6.7
	C952.115,198.576,954.419,201.77,955.646,197.597"/>
<path fill="#F16A9A" d="M911.497,173.02c0,0-2.07-4.461-2.119-4.574c-0.165-0.405-0.41-0.92,0.188-2.063
	c0.243-0.479,2.044-3.817,2.281-4.227c0.26-0.453,0.787-1.808-1.372-1.396c0,0-3.611,0.68-4.145,0.78
	c-0.127,0.021-1.481,0.473-2.435-0.829l-2.848-3.692c0,0-1.703-2.232-2.055,0.269c-0.353,2.438-0.765,4.382-0.897,5.004
	c-0.14,0.659-0.663,1.397-1.432,1.668c-0.354,0.123-3.535,1.432-4.297,1.778c0,0-2.501,0.876,0.022,2.2c0,0,4.237,2.379,4.311,2.415
	c0.066,0.032,0.881,0.439,0.925,1.647c0.046,1.49,0.572,5.219,0.471,4.436c0.089,0.65,0.255,2.246,1.88,0.729
	c0,0,2.199-1.959,3.167-2.755c0.648-0.547,1.087-0.917,2.564-0.579l4.663,0.877C910.371,174.708,912.493,175.213,911.497,173.02"/>
<path fill="#75C044" d="M995.332,144.49c0,0,3.638-5.332,3.732-5.463c0.348-0.458,0.762-1.079,2.453-1.171
	c0.704-0.049,5.677-0.26,6.298-0.269c0.687-0.013,2.566-0.327,0.652-2.486c0,0-3.194-3.613-3.664-4.149
	c-0.109-0.129-1.528-1.352-0.701-3.3l2.25-5.691c0,0,1.373-3.421-1.683-2.138c-2.987,1.242-5.454,2.084-6.244,2.352
	c-0.837,0.285-2.023,0.192-2.844-0.493c-0.376-0.316-3.988-3.024-4.892-3.65c0,0-2.668-2.231-2.466,1.503
	c0,0,0.165,6.375,0.173,6.482c0.011,0.099,0.097,1.289-1.234,2.15c-1.649,1.053-5.5,4.152-4.686,3.511
	c-0.673,0.538-2.36,1.797,0.442,2.609c0,0,3.684,1.162,5.232,1.721c1.053,0.362,1.766,0.608,2.375,2.502l2.145,5.846
	C992.671,144.355,993.528,147.087,995.332,144.49"/>
<path fill="#75C044" d="M943.578,250.252c0,0,3.601-1.219,3.688-1.252c0.316-0.124,0.734-0.262,1.053-1.206
	c0.14-0.392,1.048-3.179,1.151-3.53c0.115-0.387,0.591-1.403,1.512,0.024c0,0,1.544,2.383,1.774,2.734
	c0.055,0.083,0.524,1.081,1.76,0.92l3.585-0.374c0,0,2.158-0.236,0.946,1.292c-1.177,1.498-2.046,2.766-2.323,3.171
	c-0.293,0.43-0.429,1.116-0.17,1.69c0.119,0.263,1.084,2.741,1.295,3.353c0,0,0.845,1.865-1.243,1.16c0,0-3.59-1.103-3.648-1.125
	c-0.054-0.021-0.716-0.258-1.415,0.36c-0.859,0.769-3.227,2.462-2.733,2.102c-0.412,0.297-1.393,1.055-1.411-0.664
	c0,0-0.074-2.273-0.146-3.24c-0.039-0.654-0.066-1.098-1.043-1.743l-2.978-2.142C943.232,251.782,941.819,250.863,943.578,250.252"
	/>
<path fill="#2BACE2" d="M986.003,214.817c0,0,6.495-1.254,6.657-1.291c0.571-0.14,1.324-0.275,2.1-1.831
	c0.332-0.641,2.554-5.233,2.814-5.814c0.289-0.642,1.352-2.281,2.604,0.397c0,0,2.1,4.475,2.413,5.135
	c0.077,0.154,0.649,1.986,2.819,2.002l6.271,0.198c0,0,3.776,0.101,1.326,2.452c-2.384,2.306-4.181,4.284-4.752,4.918
	c-0.608,0.672-1.004,1.824-0.693,2.876c0.145,0.481,1.222,4.982,1.445,6.085c0,0,1.014,3.418-2.418,1.709c0,0-5.932-2.748-6.027-2.8
	c-0.089-0.048-1.174-0.614-2.526,0.288c-1.66,1.124-6.142,3.485-5.207,2.98c-0.779,0.414-2.65,1.488-2.275-1.479
	c0,0,0.405-3.938,0.511-5.622c0.085-1.137,0.145-1.908-1.388-3.253l-4.628-4.394C985.048,217.375,982.827,215.458,986.003,214.817"
	/>
<path fill="#2BACE2" d="M66.908,18.724c7.258-7.621,15.213-6.79,20.829,1.964c2.246-3.811,5.213-6.536,9.709-7.1
	c4.553-0.571,7.879,1.596,11.108,5.104c0-4.453,0.083-8.521-0.042-12.581c-0.045-1.525-1.334-1.878-2.811-0.87
	c-1.853,1.264-3.67,2.58-5.477,3.908c-1.188,0.872-2.248,0.962-3.696,0.312C90.699,6.846,84.77,6.79,78.944,9.506
	c-1.35,0.63-2.374,0.519-3.501-0.297c-1.818-1.315-3.627-2.649-5.523-3.841c-0.614-0.386-1.594-0.642-2.21-0.416
	c-0.438,0.16-0.755,1.219-0.767,1.883C66.873,10.633,66.908,14.432,66.908,18.724"/>
<path fill="#2BACE2" d="M64.458,73.435c0.389-0.025,6.278-4.568,7.198-11.306c0.742,1.114,1.251,1.928,1.81,2.706
	c3.596,5.017,8.42,8.694,13.427,12.145c0.446,0.308,1.603,0.136,2.081-0.249c3.063-2.453,6.121-4.928,8.994-7.596
	c2.144-1.991,3.693-5.271,5.47-7.2c1.6,6.398,7.05,11.466,7.433,11.533c1.129-1.513,9.811-19.39,3.852-28.862
	c-2.219-3.528-4.187-6.279-4.184-9.963c0.003-3.122-0.12-6.316-0.78-9.35c-1.087-5.001-4.923-8.174-9.695-8.665
	c-4.288-0.44-8.373,2.015-10.695,6.436c-0.443,0.84-0.864,1.691-1.537,3.013c-0.616-1.037-1.049-1.667-1.384-2.346
	c-2.522-5.115-6.708-7.707-11.39-7.023c-5.259,0.767-8.943,4.574-9.761,10.256c-0.276,1.918-0.256,4.29-0.554,9.169
	c-0.317,5.186-0.876,3.639-4.167,10.133C55.413,56.457,63.725,71.957,64.458,73.435 M85.78,35.355
	c1.22-0.327,2.644-0.303,3.889-0.03c1.864,0.406,2.329,1.782,1.382,3.401c-0.853,1.46-1.915,2.799-3.282,4.764
	c-1.353-1.926-2.461-3.303-3.343-4.811C83.509,37.116,84.152,35.792,85.78,35.355"/>
<path fill="#FFFFFF" d="M99.058,25.941c-1.353-0.035-2.545,1.118-2.568,2.483c-0.024,1.374,1.117,2.527,2.504,2.53
	c1.377,0.004,2.405-1.003,2.45-2.402C101.492,27.1,100.467,25.979,99.058,25.941"/>
<path fill="#FFFFFF" d="M73.33,28.589c0,1.393,1.104,2.474,2.512,2.46c1.402-0.012,2.491-1.113,2.476-2.505
	c-0.015-1.37-1.174-2.518-2.52-2.494C74.413,26.073,73.329,27.189,73.33,28.589"/>
<polygon fill="#F37024" points="0.001,59.459 0.155,59.464 50.651,61.025 82.247,63.439 121.959,74.409 127.883,69.582 
	131.174,70.46 127.665,74.409 150.282,74.409 152.558,77.801 119.106,77.801 119.765,83.624 128.542,89.548 126.348,91.915 
	118.288,86.478 112.745,77.7 79.811,69.363 60.388,68.704 61.842,75.922 68.392,80.552 68.392,82.309 58.77,77.042 49.555,67.827 
	0,69.254 0,69.254 0,69.254 0,69.254 0,69.254 0,69.254 "/>
<path fill="#2BACE2" d="M66.908,18.724c7.258-7.621,15.213-6.79,20.829,1.964c2.246-3.811,5.213-6.536,9.709-7.1
	c4.553-0.571,7.879,1.596,11.108,5.104c0-4.453,0.083-8.521-0.042-12.581c-0.045-1.525-1.334-1.878-2.811-0.87
	c-1.853,1.264-3.67,2.58-5.477,3.908c-1.188,0.872-2.248,0.962-3.696,0.312C90.699,6.846,84.77,6.79,78.944,9.506
	c-1.35,0.63-2.374,0.519-3.501-0.297c-1.818-1.315-3.627-2.649-5.523-3.841c-0.614-0.386-1.594-0.642-2.21-0.416
	c-0.438,0.16-0.755,1.219-0.767,1.883C66.873,10.633,66.908,14.432,66.908,18.724"/>
<path fill="#2BACE2" d="M73.466,64.835c3.596,5.017,8.42,8.694,13.427,12.145c0.446,0.308,1.603,0.136,2.081-0.249
	c3.063-2.453,6.121-4.928,8.994-7.596c2.144-1.991,3.693-5.271,5.47-7.2c1.6,6.398,7.05,11.466,7.433,11.533
	c1.129-1.513,9.811-19.39,3.852-28.862c-2.219-3.528-4.187-6.279-4.184-9.963c0.003-3.122-0.12-6.316-0.78-9.35
	c-1.087-5.001-4.923-8.174-9.695-8.665c-4.288-0.44-8.373,2.015-10.695,6.436c-0.443,0.84-0.864,1.691-1.537,3.013
	c-0.616-1.037-1.049-1.667-1.384-2.346c-2.522-5.115-6.708-7.707-11.39-7.023c-5.259,0.767-8.943,4.574-9.761,10.256
	c-0.276,1.918-0.256,4.29-0.554,9.169C64.426,41.317,72.908,64.057,73.466,64.835 M85.78,35.355c1.22-0.327,2.644-0.303,3.889-0.03
	c1.864,0.406,2.329,1.782,1.382,3.401c-0.853,1.46-1.915,2.799-3.282,4.764c-1.353-1.926-2.461-3.303-3.343-4.811
	C83.509,37.116,84.152,35.792,85.78,35.355"/>
<path fill="#FFFFFF" d="M99.058,25.941c-1.353-0.035-2.545,1.118-2.568,2.483c-0.024,1.374,1.117,2.527,2.504,2.53
	c1.377,0.004,2.405-1.003,2.45-2.402C101.492,27.1,100.467,25.979,99.058,25.941"/>
<path fill="#FFFFFF" d="M73.33,28.589c0,1.393,1.104,2.474,2.512,2.46c1.402-0.012,2.491-1.113,2.476-2.505
	c-0.015-1.37-1.174-2.518-2.52-2.494C74.413,26.073,73.329,27.189,73.33,28.589"/>
<rect x="0" fill="none" width="155.237" height="94.632"/>
</svg>
