<?xml version="1.0" encoding="utf-8"?>
<!-- Generator: Adobe Illustrator 16.0.0, SVG Export Plug-In . SVG Version: 6.00 Build 0)  -->
<!DOCTYPE svg PUBLIC "-//W3C//DTD SVG 1.1//EN" "http://www.w3.org/Graphics/SVG/1.1/DTD/svg11.dtd">
<svg version="1.1" id="Layer_1" xmlns="http://www.w3.org/2000/svg" xmlns:xlink="http://www.w3.org/1999/xlink" x="0px" y="0px"
	 width="1009.902px" height="329.885px" viewBox="0 0 1009.902 329.885" enable-background="new 0 0 1009.902 329.885"
	 xml:space="preserve">
<g>
	<path fill="#F27024" d="M919.522,304.276c0,0,5.285-1.158,5.41-1.197c0.471-0.119,1.086-0.256,1.686-1.539
		c0.242-0.534,1.97-4.332,2.187-4.815c0.222-0.528,1.048-1.899,2.124,0.263c0,0,1.814,3.612,2.094,4.153
		c0.061,0.12,0.574,1.61,2.347,1.567l5.138,0.039c0,0,3.092-0.016,1.133,1.965c-1.896,1.93-3.322,3.604-3.791,4.133
		c-0.482,0.568-0.771,1.516-0.498,2.354c0.133,0.402,1.111,4.063,1.317,4.947c0,0,0.901,2.781-1.94,1.459
		c0,0-4.906-2.117-4.99-2.162c-0.068-0.039-0.976-0.479-2.063,0.293c-1.341,0.955-4.947,2.982-4.186,2.547
		c-0.633,0.355-2.139,1.279-1.896-1.158c0,0,0.244-3.227,0.298-4.592c0.043-0.951,0.081-1.564-1.203-2.639l-3.892-3.496
		C918.794,306.397,916.937,304.875,919.522,304.276"/>
	<path fill="#F27024" d="M898.856,265.725c0,0,8.229-1.878,8.424-1.939c0.734-0.196,1.69-0.41,2.601-2.426
		c0.378-0.843,3.019-6.8,3.349-7.543c0.334-0.836,1.604-2.97,3.32,0.387c0,0,2.885,5.603,3.321,6.441
		c0.093,0.194,0.918,2.516,3.685,2.43l8.006-0.026c0,0,4.822-0.063,1.803,3.069c-2.938,3.029-5.148,5.644-5.857,6.492
		c-0.749,0.883-1.186,2.357-0.736,3.678c0.195,0.617,1.784,6.313,2.105,7.687c0,0,1.449,4.337-3.01,2.312
		c0,0-7.668-3.242-7.799-3.311c-0.121-0.055-1.535-0.725-3.223,0.487c-2.066,1.502-7.669,4.719-6.503,4.026
		c-0.971,0.569-3.319,2.021-2.976-1.783c0,0,0.349-5.029,0.398-7.18c0.063-1.471,0.113-2.43-1.9-4.08l-6.11-5.406
		C897.753,269.04,894.834,266.696,898.856,265.725"/>
	<path fill="#FAAE1B" d="M708.955,273.985c0,0,0.782,0.342,0.479-0.525c0,0-0.479-1.493-0.488-1.523
		c-0.012-0.021-0.109-0.3,0.144-0.591c0.114-0.127,0.747-0.985,0.867-1.149c0.124-0.176,0.437-0.59-0.282-0.59
		c0,0-0.947-0.018-1.354-0.043c-0.274-0.015-0.461-0.023-0.735-0.429l-0.906-1.235c0,0-0.388-0.591-0.64,0.147
		c0,0-0.492,1.511-0.508,1.552c-0.049,0.131-0.105,0.307-0.494,0.441c-0.17,0.059-1.327,0.451-1.479,0.5
		c-0.158,0.052-0.584,0.252,0.019,0.631c0,0,1.006,0.639,1.153,0.73c0.035,0.02,0.453,0.215,0.391,0.729l-0.143,1.501
		c0,0-0.093,0.898,0.545,0.389c0.621-0.498,1.15-0.869,1.318-0.986c0.175-0.121,0.464-0.182,0.704-0.078
		C707.656,273.505,708.701,273.897,708.955,273.985"/>
	<path fill="#F27024" d="M750.325,301.399c-0.227-0.459,0-0.781,0.021-0.813c0.021-0.027,1.147-1.768,1.147-1.768
		c0.679-1.008-0.44-0.838-0.44-0.838c-0.354,0.021-1.815,0.168-1.975,0.188c-0.345,0.053-0.687-0.118-0.871-0.34
		c-0.179-0.209-0.726-0.86-1.34-1.715c-0.64-0.871-0.834,0.315-0.834,0.315l-0.333,1.962c-0.1,0.682-0.699,0.784-0.751,0.801
		c-0.224,0.069-1.724,0.535-1.724,0.535c-0.896,0.277-0.424,0.682-0.24,0.801c0.177,0.106,1.521,1.014,1.709,1.141
		c0.453,0.314,0.463,0.551,0.484,0.738c0.006,0.055,0.113,2.152,0.113,2.152c0.068,1.025,0.768,0.412,0.768,0.412l1.58-1.27
		c0.493-0.42,0.731-0.369,1.086-0.293c0.521,0.105,1.744,0.406,1.744,0.406c0.916,0.244,0.663-0.387,0.563-0.652
		C751.151,303.483,750.603,301.97,750.325,301.399"/>
	<path fill="#F27024" d="M946.149,216.202c0.274,0.996-0.287,1.543-0.334,1.586c-0.053,0.049-2.904,3.062-2.904,3.062
		c-1.71,1.728,0.552,1.808,0.552,1.808c0.702,0.084,3.636,0.336,3.957,0.351c0.692,0.022,1.308,0.483,1.588,0.987
		c0.265,0.479,1.101,1.963,2.001,3.863c0.936,1.949,1.754-0.307,1.754-0.307l1.376-3.732c0.442-1.308,1.667-1.293,1.775-1.305
		c0.463-0.05,3.575-0.423,3.575-0.423c1.867-0.211,1.094-1.179,0.767-1.479c-0.302-0.281-2.608-2.552-2.937-2.873
		c-0.782-0.779-0.711-1.254-0.68-1.633c0.006-0.105,0.565-4.271,0.565-4.271c0.243-2.043-1.356-1.086-1.356-1.086l-3.578,1.908
		c-1.117,0.647-1.563,0.461-2.24,0.181c-0.985-0.405-3.278-1.44-3.278-1.44c-1.715-0.82-1.438,0.516-1.351,1.073
		C945.29,211.804,945.808,214.974,946.149,216.202"/>
	<path fill="#FAAE1B" d="M852.835,272.362c-0.797-1.629-0.006-2.746,0.063-2.843c0.078-0.101,4.021-6.212,4.021-6.212
		c2.391-3.529-1.535-2.934-1.535-2.934c-1.238,0.078-6.367,0.584-6.93,0.666c-1.204,0.184-2.409-0.422-3.063-1.189
		c-0.613-0.744-2.526-3.027-4.693-6.016c-2.236-3.065-2.922,1.091-2.922,1.091l-1.168,6.882c-0.344,2.393-2.459,2.768-2.644,2.818
		c-0.778,0.238-6.03,1.871-6.03,1.871c-3.15,0.977-1.502,2.395-0.838,2.803c0.604,0.388,5.315,3.559,5.983,4.009
		c1.599,1.093,1.633,1.938,1.694,2.597c0.026,0.186,0.403,7.547,0.403,7.547c0.239,3.598,2.688,1.438,2.688,1.438l5.552-4.439
		c1.729-1.484,2.551-1.303,3.81-1.035c1.83,0.377,6.116,1.427,6.116,1.427c3.214,0.86,2.316-1.353,1.979-2.287
		C855.731,279.667,853.819,274.366,852.835,272.362"/>
	<path fill="#FAAE1B" d="M867.786,320.67c0.066-0.822,0.639-1.074,0.688-1.098c0.053-0.021,3.027-1.494,3.027-1.494
		c1.76-0.824,0.084-1.51,0.084-1.51c-0.505-0.256-2.632-1.256-2.871-1.357c-0.514-0.209-0.846-0.729-0.921-1.18
		c-0.067-0.436-0.285-1.777-0.435-3.455c-0.162-1.723-1.4-0.254-1.4-0.254l-2.064,2.422c-0.69,0.857-1.609,0.51-1.695,0.488
		c-0.359-0.09-2.797-0.678-2.797-0.678c-1.465-0.354-1.148,0.586-0.985,0.902c0.147,0.291,1.254,2.637,1.407,2.967
		c0.371,0.805,0.187,1.143,0.06,1.414c-0.032,0.078-1.606,3.053-1.606,3.053c-0.746,1.465,0.721,1.189,0.721,1.189l3.21-0.441
		c1.024-0.178,1.304,0.086,1.735,0.484c0.627,0.576,2.062,1.988,2.062,1.988c1.062,1.088,1.226,0.012,1.312-0.434
		C867.212,324.211,867.701,321.686,867.786,320.67"/>
	<path fill="#F27024" d="M806.524,272.2c0.227,0.461,0,0.785-0.02,0.811c-0.021,0.029-1.148,1.773-1.148,1.773
		c-0.681,1.008,0.44,0.836,0.44,0.836c0.356-0.021,1.817-0.166,1.976-0.189c0.346-0.052,0.689,0.119,0.875,0.342
		c0.172,0.213,0.717,0.864,1.338,1.713c0.638,0.873,0.832-0.312,0.832-0.312l0.332-1.964c0.1-0.678,0.705-0.788,0.752-0.803
		c0.224-0.067,1.72-0.535,1.72-0.535c0.899-0.271,0.429-0.68,0.239-0.795c-0.174-0.111-1.515-1.015-1.709-1.146
		c-0.451-0.312-0.459-0.552-0.479-0.735c-0.01-0.056-0.116-2.154-0.116-2.154c-0.067-1.026-0.771-0.41-0.771-0.41l-1.581,1.27
		c-0.492,0.42-0.726,0.368-1.085,0.293c-0.521-0.107-1.739-0.41-1.739-0.41c-0.919-0.242-0.664,0.389-0.563,0.658
		C805.698,270.12,806.246,271.633,806.524,272.2"/>
	<path fill="#FAAE1B" d="M794.756,301.151c0.226,0.461,0,0.783-0.021,0.812c-0.021,0.028-1.147,1.772-1.147,1.772
		c-0.681,1.006,0.44,0.834,0.44,0.834c0.355-0.02,1.816-0.164,1.975-0.188c0.346-0.053,0.689,0.119,0.875,0.34
		c0.172,0.213,0.717,0.865,1.34,1.715c0.637,0.873,0.83-0.313,0.83-0.313l0.333-1.963c0.099-0.68,0.704-0.789,0.751-0.803
		c0.225-0.068,1.721-0.537,1.721-0.537c0.898-0.271,0.43-0.679,0.238-0.795c-0.173-0.111-1.514-1.014-1.708-1.144
		c-0.452-0.312-0.46-0.552-0.479-0.736c-0.008-0.055-0.114-2.153-0.114-2.153c-0.067-1.026-0.771-0.41-0.771-0.41l-1.582,1.269
		c-0.492,0.419-0.726,0.368-1.084,0.292c-0.521-0.105-1.74-0.41-1.74-0.41c-0.918-0.242-0.663,0.391-0.563,0.658
		C793.931,299.071,794.478,300.583,794.756,301.151"/>
	<path fill="#F27024" d="M841.093,292.954c0.516-0.006,0.695-0.353,0.71-0.383c0.017-0.033,1.058-1.826,1.058-1.826
		c0.593-1.067,0.943,0.011,0.943,0.011c0.141,0.327,0.678,1.69,0.73,1.845c0.107,0.329,0.42,0.561,0.699,0.619
		c0.269,0.064,1.098,0.253,2.139,0.416c1.064,0.174,0.102,0.882,0.102,0.882l-1.6,1.19c-0.563,0.4-0.383,0.982-0.372,1.037
		c0.038,0.229,0.303,1.774,0.303,1.774c0.166,0.925-0.409,0.688-0.602,0.574c-0.177-0.104-1.589-0.89-1.793-1.003
		c-0.485-0.26-0.705-0.16-0.878-0.094c-0.049,0.019-1.967,0.875-1.967,0.875c-0.945,0.408-0.717-0.494-0.717-0.494l0.41-1.985
		c0.15-0.629,0-0.813-0.229-1.098c-0.338-0.417-1.158-1.37-1.158-1.37c-0.637-0.706,0.042-0.766,0.326-0.797
		C838.862,293.165,840.457,292.966,841.093,292.954"/>
	<path fill="#FAAE1B" d="M777.573,250.634c0.518-0.006,0.697-0.351,0.715-0.381c0.014-0.034,1.057-1.828,1.057-1.828
		c0.584-1.063,0.941,0.007,0.941,0.007c0.141,0.326,0.675,1.697,0.729,1.85c0.111,0.33,0.42,0.558,0.7,0.621
		c0.269,0.06,1.097,0.254,2.138,0.416c1.067,0.17,0.099,0.881,0.099,0.881l-1.595,1.19c-0.562,0.396-0.385,0.981-0.372,1.036
		c0.04,0.229,0.306,1.773,0.306,1.773c0.164,0.924-0.406,0.686-0.602,0.572c-0.18-0.104-1.592-0.887-1.797-1.001
		c-0.481-0.263-0.7-0.161-0.879-0.091c-0.047,0.018-1.967,0.875-1.967,0.875c-0.945,0.404-0.717-0.498-0.717-0.498l0.411-1.984
		c0.151-0.629,0-0.814-0.229-1.099c-0.338-0.412-1.156-1.368-1.156-1.368c-0.639-0.703,0.041-0.765,0.324-0.801
		C775.341,250.845,776.937,250.647,777.573,250.634"/>
	<path fill="#FAAE1B" d="M890.799,309.434c0.451,0.928,0.002,1.563-0.04,1.619c-0.043,0.057-2.289,3.547-2.289,3.547
		c-1.369,2.012,0.872,1.672,0.872,1.672c0.705-0.045,3.634-0.336,3.953-0.381c0.687-0.105,1.372,0.236,1.744,0.678
		c0.353,0.422,1.44,1.727,2.674,3.432c1.279,1.746,1.671-0.623,1.671-0.623l0.664-3.926c0.198-1.363,1.403-1.576,1.508-1.605
		c0.445-0.137,3.438-1.07,3.438-1.07c1.798-0.549,0.857-1.359,0.48-1.594c-0.348-0.227-3.033-2.029-3.416-2.281
		c-0.91-0.627-0.929-1.113-0.965-1.486c-0.015-0.102-0.229-4.303-0.229-4.303c-0.136-2.052-1.53-0.822-1.53-0.822l-3.169,2.533
		c-0.978,0.844-1.451,0.74-2.168,0.592c-1.043-0.221-3.488-0.813-3.488-0.813c-1.832-0.496-1.323,0.77-1.129,1.303
		C889.146,305.27,890.237,308.292,890.799,309.434"/>
	<path fill="#F27024" d="M868.626,240.39c-0.227-0.465,0-0.782,0.018-0.81c0.022-0.029,1.147-1.771,1.147-1.771
		c0.683-1.005-0.437-0.837-0.437-0.837c-0.357,0.022-1.817,0.167-1.976,0.19c-0.347,0.053-0.688-0.119-0.874-0.342
		c-0.176-0.209-0.725-0.865-1.343-1.711c-0.634-0.875-0.831,0.307-0.831,0.307l-0.332,1.967c-0.102,0.68-0.701,0.781-0.753,0.803
		c-0.224,0.067-1.722,0.532-1.722,0.532c-0.896,0.274-0.426,0.681-0.235,0.799c0.174,0.11,1.513,1.013,1.705,1.146
		c0.454,0.311,0.463,0.551,0.481,0.736c0.008,0.053,0.118,2.152,0.118,2.152c0.064,1.025,0.761,0.413,0.761,0.413l1.588-1.271
		c0.49-0.42,0.727-0.365,1.084-0.297c0.52,0.112,1.742,0.408,1.742,0.408c0.916,0.247,0.664-0.382,0.564-0.652
		C869.453,242.472,868.901,240.963,868.626,240.39"/>
	<path fill="#F27024" d="M815.872,326.86c0.357,0.313,0.988,0.342,1.872,0.094c2.056-0.609,5.973-1.771,6.11-1.805
		c0.582-0.143,1.229-0.297,2.459,0.604c0.599,0.441,4.394,3.262,4.873,3.629c0.151,0.125,0.948,0.723,1.551,0.418
		c0.443-0.229,0.647-0.885,0.604-1.953c0,0-0.172-4.637-0.203-5.326c-0.121-1.271,0.394-2.246,1.444-2.799l5.147-2.865
		c0.059-0.029,1.364-0.756,1.447-1.559c0.029-0.273-0.083-0.52-0.331-0.734c-0.235-0.203-0.602-0.379-1.088-0.525
		c-2.854-0.848-5.134-1.686-5.991-2.006l-0.108-0.041c-0.286-0.104-0.573-0.277-0.828-0.498c-0.481-0.414-0.808-0.955-0.913-1.521
		c-0.092-0.463-1.134-4.693-1.424-5.707c-0.006-0.031-0.192-0.982-0.713-1.43c-0.207-0.182-0.439-0.254-0.689-0.229
		c-0.462,0.055-0.98,0.467-1.544,1.229c-0.383,0.498-3.76,4.859-3.821,4.951c-0.021,0.039-0.666,0.975-2.139,0.805
		c-0.301-0.033-4.584-0.291-5.637-0.227v-0.014c-0.639-0.008-1.575-0.018-1.872,0.543c-0.216,0.406-0.048,1.008,0.521,1.834
		c0.021,0.031,2.047,3.127,2.855,4.463c0.551,0.908,0.908,1.498,0.238,3.227l-1.976,5.67
		C815.7,325.131,815.233,326.313,815.872,326.86"/>
	<path fill="#F27024" d="M991.862,295.13c-0.135-0.498,0.146-0.772,0.171-0.796c0.024-0.02,1.452-1.531,1.452-1.531
		c0.855-0.861-0.277-0.902-0.277-0.902c-0.352-0.041-1.816-0.17-1.977-0.175c-0.351-0.011-0.654-0.243-0.797-0.495
		c-0.134-0.24-0.551-0.98-1.002-1.931c-0.465-0.978-0.875,0.153-0.875,0.153l-0.688,1.867c-0.225,0.652-0.835,0.646-0.891,0.652
		c-0.229,0.023-1.787,0.206-1.787,0.206c-0.936,0.108-0.545,0.595-0.381,0.742c0.151,0.142,1.304,1.274,1.469,1.437
		c0.391,0.394,0.353,0.627,0.336,0.816c0,0.053-0.279,2.139-0.279,2.139c-0.125,1.021,0.676,0.543,0.676,0.543l1.789-0.955
		c0.563-0.324,0.782-0.229,1.121-0.09c0.492,0.203,1.641,0.719,1.641,0.719c0.854,0.41,0.719-0.254,0.675-0.539
		C992.293,297.327,992.036,295.743,991.862,295.13"/>
	<path fill="#FAAE1B" d="M983.965,269.358c0.507,0.084,0.75-0.222,0.771-0.248c0.021-0.031,1.375-1.6,1.375-1.6
		c0.772-0.943,0.926,0.18,0.926,0.18c0.077,0.348,0.355,1.793,0.378,1.949c0.048,0.344,0.31,0.626,0.573,0.74
		c0.254,0.107,1.033,0.447,2.021,0.801c1.018,0.361-0.063,0.885-0.063,0.885l-1.791,0.875c-0.62,0.288-0.551,0.895-0.555,0.95
		c0,0.231-0.023,1.8-0.023,1.8c-0.012,0.94-0.532,0.6-0.7,0.455c-0.153-0.138-1.399-1.164-1.578-1.313
		c-0.429-0.348-0.662-0.289-0.845-0.256c-0.053,0.008-2.098,0.5-2.098,0.5c-1.002,0.229-0.608-0.621-0.608-0.621l0.769-1.875
		c0.262-0.588,0.144-0.797-0.029-1.125c-0.252-0.465-0.885-1.557-0.885-1.557c-0.494-0.805,0.188-0.74,0.467-0.724
		C981.731,269.155,983.335,269.25,983.965,269.358"/>
	<path fill="#FAAE1B" d="M962.774,256.557c0.271,0.996-0.289,1.541-0.336,1.587c-0.054,0.046-2.902,3.062-2.902,3.062
		c-1.713,1.729,0.548,1.811,0.548,1.811c0.708,0.081,3.633,0.335,3.959,0.35c0.69,0.022,1.308,0.484,1.588,0.99
		c0.267,0.477,1.101,1.955,2.003,3.859c0.936,1.949,1.749-0.305,1.749-0.305l1.377-3.735c0.445-1.304,1.671-1.29,1.777-1.304
		c0.465-0.051,3.575-0.42,3.575-0.42c1.869-0.211,1.094-1.183,0.764-1.479c-0.299-0.284-2.605-2.554-2.934-2.874
		c-0.781-0.783-0.711-1.258-0.676-1.633c0.002-0.104,0.563-4.271,0.563-4.271c0.239-2.041-1.359-1.088-1.359-1.088l-3.577,1.906
		c-1.115,0.648-1.563,0.462-2.242,0.186c-0.983-0.408-3.277-1.445-3.277-1.445c-1.709-0.82-1.441,0.517-1.348,1.076
		C961.915,252.159,962.433,255.329,962.774,256.557"/>
	<path fill="#F27024" d="M1007.965,244.053c-0.137-0.492,0.144-0.768,0.168-0.79c0.025-0.024,1.45-1.53,1.45-1.53
		c0.855-0.863-0.277-0.9-0.277-0.9c-0.352-0.049-1.813-0.172-1.975-0.182c-0.348-0.009-0.655-0.24-0.797-0.492
		c-0.133-0.238-0.549-0.979-1.001-1.928c-0.466-0.979-0.874,0.151-0.874,0.151l-0.688,1.864c-0.224,0.654-0.835,0.646-0.89,0.654
		c-0.229,0.023-1.79,0.205-1.79,0.205c-0.934,0.109-0.542,0.592-0.381,0.744c0.15,0.139,1.303,1.271,1.469,1.434
		c0.389,0.396,0.354,0.633,0.34,0.817c-0.005,0.054-0.283,2.136-0.283,2.136c-0.125,1.023,0.679,0.545,0.679,0.545l1.786-0.953
		c0.563-0.324,0.783-0.23,1.121-0.092c0.492,0.203,1.64,0.723,1.64,0.723c0.856,0.406,0.724-0.258,0.675-0.541
		C1008.396,246.255,1008.134,244.668,1007.965,244.053"/>
	<path fill="#FAAE1B" d="M979.983,230.255c-0.141-0.498,0.144-0.769,0.168-0.793c0.024-0.027,1.451-1.527,1.451-1.527
		c0.854-0.864-0.275-0.903-0.275-0.903c-0.354-0.047-1.817-0.172-1.979-0.18c-0.348-0.012-0.652-0.242-0.795-0.494
		c-0.133-0.24-0.55-0.982-1.002-1.931c-0.469-0.976-0.875,0.149-0.875,0.149l-0.688,1.873c-0.223,0.648-0.836,0.643-0.891,0.648
		c-0.23,0.023-1.789,0.21-1.789,0.21c-0.932,0.108-0.541,0.593-0.383,0.738c0.155,0.147,1.309,1.278,1.473,1.438
		c0.388,0.394,0.354,0.631,0.338,0.817c-0.004,0.054-0.282,2.138-0.282,2.138c-0.123,1.02,0.682,0.539,0.682,0.539l1.785-0.953
		c0.56-0.32,0.784-0.228,1.119-0.086c0.493,0.199,1.642,0.717,1.642,0.717c0.854,0.412,0.723-0.256,0.674-0.537
		C980.412,232.456,980.151,230.87,979.983,230.255"/>
	<path fill="#F27024" d="M870.394,290.606c0.431,0,0.896-0.41,0.916-0.43c0.504-0.375,2.5-1.982,2.697-2.158
		c0.27-0.238,0.649-0.377,1.047-0.377c0.155,0,0.313,0.021,0.45,0.063c0.58,0.181,1.946,0.599,3.577,1.221
		c0.261,0.098,0.482,0.146,0.661,0.146c0.229,0,0.396-0.078,0.496-0.233c0.271-0.411-0.068-1.21-0.109-1.298l-1.383-3.176
		c-0.287-0.619-0.183-1.24,0.294-1.756c0.284-0.336,2.021-2.445,2.021-2.445c0.41-0.494,0.553-0.887,0.42-1.17
		c-0.168-0.358-0.719-0.387-0.881-0.387h-0.011c-0.586,0-3.209-0.035-3.595-0.041c-0.879-0.021-1.117-0.314-1.309-0.553
		c-0.09-0.105-1.645-2.236-2.234-3.051c-0.322-0.43-0.629-0.646-0.913-0.646c-0.548,0-0.771,0.78-0.778,0.811l-1.099,3.35
		c-0.3,1.033-0.65,1.17-1.231,1.396c-0.873,0.342-2.937,1.068-2.937,1.068c-0.576,0.188-0.88,0.422-0.925,0.705
		c-0.065,0.395,0.39,0.733,0.66,0.938l0.024-0.014c0.478,0.451,2.711,1.928,2.736,1.941c0.731,0.438,0.694,1.076,0.692,1.102
		c-0.006,0.064,0.014,3.08,0.02,3.685c-0.01,0.563,0.082,0.938,0.283,1.142C870.095,290.55,870.233,290.606,870.394,290.606"/>
	<path fill="#FAAE1B" d="M934.067,315.643c1.763,3.621,3.32,7.393,4.744,11.313c0,0.002,0,0.002,0,0.004c2.479,0,29.771,0,59.775,0
		l0,0l0,0l0,0c-7.051-7.891-12.555-14.316-15.132-18.379c-31.617-49.817-64.875-113.637-85.619-160.537
		c-4.651-10.507-12.749-30.649-17.37-45.335c-0.389-1.357-0.822-2.781-1.292-4.258c-0.002-0.014-0.009-0.029-0.011-0.041
		c-0.002-0.007-0.008-0.017-0.008-0.02c-5.678-17.839-16.692-43.008-19.129-45.03l4.008-38.567c-1.619,0.769-3.454,1.221-5.42,1.155
		c-1.533-0.048-2.979-0.391-4.266-0.956l1.877,36.711c-0.021-0.011-0.037-0.005-0.058-0.012c-0.031,0.292-0.104,0.583-0.226,0.857
		c-3.436-0.529-28.57,6.534-27.887,16.46c-1.402-0.779-2.381-1.658-3.002-2.592c-2.668,3.532-5.771,7.676-9.197,12.243
		c-1.066,0.067-21.265,3.095-22.177,5.278c1.253,4.328,2.981,10.348,5.253,16.198c-0.715,3.443-21.541,30.044-30.533,42.13
		c-3.349,0.127-8.481,0.501-9.551,1.578c-2.049,2.062-1.251,9.06-0.812,11.984c-11.356,17.557-7.443,33.486,4.485,37.467
		c0.763,0.267,2.416,0.919,3.207,1.011c5.469,2.192,35.536-11.104,24.823-37.494c13.146,14.395,11.619,31.826-9.385,41.897
		c-0.104,3.072,14.427-1.598,19.325-11.133c4.623-8.533,5.289-16.709,2.871-23.862c9.08-5.647,29.244-15.041,47.888-24.114
		C879.547,203.942,921.466,289.778,934.067,315.643z"/>
	<g>
		<g>
			<defs>
				<path id="SVGID_1_" d="M858.616,15.948c-1.534-0.047-2.98-0.391-4.268-0.957l1.877,36.712c-0.02-0.012-0.037-0.005-0.057-0.013
					c-0.031,0.293-0.104,0.582-0.227,0.858c-3.435-0.53-28.569,6.534-27.885,16.46c-1.404-0.777-2.382-1.658-3.005-2.592
					c-2.666,3.533-5.771,7.676-9.194,12.243c-1.068,0.068-21.265,3.094-22.181,5.277c1.259,4.33,2.984,10.349,5.257,16.198
					c-0.715,3.445-21.539,30.045-30.533,42.131c-3.35,0.128-8.483,0.502-9.552,1.577c-2.049,2.063-1.252,9.059-0.811,11.985
					c-11.357,17.557-7.445,33.488,4.485,37.467c0.76,0.267,2.414,0.919,3.207,1.011c5.467,2.192,35.535-11.106,24.821-37.494
					c13.147,14.395,11.62,31.824-9.386,41.897c-0.104,3.072,14.428-1.598,19.327-11.133c4.622-8.533,5.288-16.707,2.87-23.861
					c9.08-5.648,29.246-15.042,47.889-24.115c28.292,64.341,70.211,150.177,82.813,176.044c1.558,3.197,2.957,6.514,4.25,9.945
					h59.051c-6.459-7.26-11.484-13.186-13.911-17.01c-31.62-49.818-64.875-113.637-85.62-160.537
					c-4.65-10.508-12.749-30.649-17.37-45.335c-0.389-1.356-0.819-2.781-1.292-4.257c-0.002-0.014-0.009-0.029-0.011-0.042
					c-0.001-0.008-0.009-0.017-0.009-0.02c-5.68-17.84-16.691-43.007-19.127-45.03l4.007-38.568
					C862.415,15.562,860.581,16.013,858.616,15.948"/>
			</defs>
			<clipPath id="SVGID_2_">
				<use xlink:href="#SVGID_1_"  overflow="visible"/>
			</clipPath>
			<path clip-path="url(#SVGID_2_)" fill="#F27024" d="M892.46,179.36c0,0,8.188-2.063,8.386-2.133
				c0.72-0.214,1.677-0.451,2.535-2.492c0.36-0.848,2.874-6.854,3.179-7.623c0.317-0.832,1.535-3.001,3.328,0.33
				c0,0,3.01,5.529,3.469,6.36c0.097,0.185,0.977,2.489,3.731,2.334l8.013-0.206c0,0,4.827-0.168,1.863,3.027
				c-2.865,3.105-5.006,5.765-5.704,6.629c-0.729,0.896-1.134,2.381-0.659,3.693c0.228,0.611,1.93,6.269,2.284,7.645
				c0,0,1.552,4.293-2.946,2.367c0,0-7.754-3.061-7.887-3.137c-0.109-0.047-1.55-0.69-3.201,0.563
				c-2.037,1.558-7.565,4.903-6.398,4.17c-0.965,0.599-3.282,2.108-3.023-1.707c0,0,0.229-5.043,0.238-7.187
				c0.029-1.479,0.052-2.432-2-4.041l-6.232-5.27C891.435,182.686,888.47,180.422,892.46,179.36"/>
		</g>
		<g>
			<defs>
				<path id="SVGID_3_" d="M858.616,15.948c-1.534-0.047-2.98-0.391-4.268-0.957l1.877,36.712c-0.02-0.012-0.037-0.005-0.057-0.013
					c-0.031,0.293-0.104,0.582-0.227,0.858c-3.435-0.53-28.569,6.534-27.885,16.46c-1.404-0.777-2.382-1.658-3.005-2.592
					c-2.666,3.533-5.771,7.676-9.194,12.243c-1.068,0.068-21.265,3.094-22.181,5.277c1.259,4.33,2.984,10.349,5.257,16.198
					c-0.715,3.445-21.539,30.045-30.533,42.131c-3.35,0.128-8.483,0.502-9.552,1.577c-2.049,2.063-1.252,9.059-0.811,11.985
					c-11.357,17.557-7.445,33.488,4.485,37.467c0.76,0.267,2.414,0.919,3.207,1.011c5.467,2.192,35.535-11.106,24.821-37.494
					c13.147,14.395,11.62,31.824-9.386,41.897c-0.104,3.072,14.428-1.598,19.327-11.133c4.622-8.533,5.288-16.707,2.87-23.861
					c9.08-5.648,29.246-15.042,47.889-24.115c28.292,64.341,70.211,150.177,82.813,176.044c1.558,3.197,2.957,6.514,4.25,9.945
					h59.051c-6.459-7.26-11.484-13.186-13.911-17.01c-31.62-49.818-64.875-113.637-85.62-160.537
					c-4.65-10.508-12.749-30.649-17.37-45.335c-0.389-1.356-0.819-2.781-1.292-4.257c-0.002-0.014-0.009-0.029-0.011-0.042
					c-0.001-0.008-0.009-0.017-0.009-0.02c-5.68-17.84-16.691-43.007-19.127-45.03l4.007-38.568
					C862.415,15.562,860.581,16.013,858.616,15.948"/>
			</defs>
			<clipPath id="SVGID_4_">
				<use xlink:href="#SVGID_3_"  overflow="visible"/>
			</clipPath>
			<path clip-path="url(#SVGID_4_)" fill="#F27024" d="M859.198,173.944c0,0,3.435-4.998,3.501-5.129
				c0.291-0.465,0.682-1.039,0.188-2.548c-0.211-0.625-1.715-5.047-1.913-5.604c-0.224-0.601-0.604-2.354,1.942-1.415
				c0,0,4.246,1.56,4.892,1.783c0.135,0.061,1.704,0.871,3.125-0.513l4.205-3.919c0,0,2.519-2.382,2.44,0.743
				c-0.07,3.028,0.042,5.475,0.073,6.28c0.039,0.823,0.523,1.816,1.4,2.3c0.412,0.223,4.016,2.456,4.863,3.024
				c0,0,2.867,1.572-0.469,2.674c0,0-5.623,2.031-5.723,2.059c-0.096,0.025-1.166,0.361-1.459,1.824
				c-0.354,1.802-1.748,6.223-1.468,5.283c-0.235,0.775-0.76,2.688-2.432,0.518c0,0-2.276-2.822-3.289-3.992
				c-0.687-0.797-1.13-1.324-2.996-1.216l-5.849,0.128C860.233,176.223,857.556,176.407,859.198,173.944"/>
		</g>
		<g>
			<defs>
				<path id="SVGID_5_" d="M858.616,15.948c-1.534-0.047-2.98-0.391-4.268-0.957l1.877,36.712c-0.02-0.012-0.037-0.005-0.057-0.013
					c-0.031,0.293-0.104,0.582-0.227,0.858c-3.435-0.53-28.569,6.534-27.885,16.46c-1.404-0.777-2.382-1.658-3.005-2.592
					c-2.666,3.533-5.771,7.676-9.194,12.243c-1.068,0.068-21.265,3.094-22.181,5.277c1.259,4.33,2.984,10.349,5.257,16.198
					c-0.715,3.445-21.539,30.045-30.533,42.131c-3.35,0.128-8.483,0.502-9.552,1.577c-2.049,2.063-1.252,9.059-0.811,11.985
					c-11.357,17.557-7.445,33.488,4.485,37.467c0.76,0.267,2.414,0.919,3.207,1.011c5.467,2.192,35.535-11.106,24.821-37.494
					c13.147,14.395,11.62,31.824-9.386,41.897c-0.104,3.072,14.428-1.598,19.327-11.133c4.622-8.533,5.288-16.707,2.87-23.861
					c9.08-5.648,29.246-15.042,47.889-24.115c28.292,64.341,70.211,150.177,82.813,176.044c1.558,3.197,2.957,6.514,4.25,9.945
					h59.051c-6.459-7.26-11.484-13.186-13.911-17.01c-31.62-49.818-64.875-113.637-85.62-160.537
					c-4.65-10.508-12.749-30.649-17.37-45.335c-0.389-1.356-0.819-2.781-1.292-4.257c-0.002-0.014-0.009-0.029-0.011-0.042
					c-0.001-0.008-0.009-0.017-0.009-0.02c-5.68-17.84-16.691-43.007-19.127-45.03l4.007-38.568
					C862.415,15.562,860.581,16.013,858.616,15.948"/>
			</defs>
			<clipPath id="SVGID_6_">
				<use xlink:href="#SVGID_5_"  overflow="visible"/>
			</clipPath>
			<path clip-path="url(#SVGID_6_)" fill="#F27024" d="M877.592,128.011c0,0,5.04-1.279,5.161-1.321
				c0.441-0.132,1.023-0.276,1.563-1.533c0.217-0.527,1.754-4.228,1.946-4.694c0.19-0.517,0.938-1.857,2.05,0.188
				c0,0,1.855,3.408,2.141,3.921c0.057,0.111,0.599,1.527,2.306,1.429l4.923-0.133c0,0,2.967-0.108,1.154,1.86
				c-1.768,1.911-3.075,3.553-3.508,4.081c-0.445,0.559-0.693,1.473-0.396,2.279c0.135,0.378,1.193,3.854,1.411,4.7
				c0,0,0.959,2.647-1.812,1.466c0,0-4.773-1.877-4.856-1.92c-0.069-0.038-0.957-0.427-1.974,0.347
				c-1.25,0.958-4.643,3.02-3.938,2.577c-0.592,0.369-2.016,1.294-1.858-1.049c0,0,0.138-3.108,0.143-4.422
				c0.008-0.91,0.023-1.503-1.238-2.492l-3.845-3.233C876.963,130.061,875.133,128.665,877.592,128.011"/>
		</g>
		<g>
			<defs>
				<path id="SVGID_7_" d="M858.616,15.948c-1.534-0.047-2.98-0.391-4.268-0.957l1.877,36.712c-0.02-0.012-0.037-0.005-0.057-0.013
					c-0.031,0.293-0.104,0.582-0.227,0.858c-3.435-0.53-28.569,6.534-27.885,16.46c-1.404-0.777-2.382-1.658-3.005-2.592
					c-2.666,3.533-5.771,7.676-9.194,12.243c-1.068,0.068-21.265,3.094-22.181,5.277c1.259,4.33,2.984,10.349,5.257,16.198
					c-0.715,3.445-21.539,30.045-30.533,42.131c-3.35,0.128-8.483,0.502-9.552,1.577c-2.049,2.063-1.252,9.059-0.811,11.985
					c-11.357,17.557-7.445,33.488,4.485,37.467c0.76,0.267,2.414,0.919,3.207,1.011c5.467,2.192,35.535-11.106,24.821-37.494
					c13.147,14.395,11.62,31.824-9.386,41.897c-0.104,3.072,14.428-1.598,19.327-11.133c4.622-8.533,5.288-16.707,2.87-23.861
					c9.08-5.648,29.246-15.042,47.889-24.115c28.292,64.341,70.211,150.177,82.813,176.044c1.558,3.197,2.957,6.514,4.25,9.945
					h59.051c-6.459-7.26-11.484-13.186-13.911-17.01c-31.62-49.818-64.875-113.637-85.62-160.537
					c-4.65-10.508-12.749-30.649-17.37-45.335c-0.389-1.356-0.819-2.781-1.292-4.257c-0.002-0.014-0.009-0.029-0.011-0.042
					c-0.001-0.008-0.009-0.017-0.009-0.02c-5.68-17.84-16.691-43.007-19.127-45.03l4.007-38.568
					C862.415,15.562,860.581,16.013,858.616,15.948"/>
			</defs>
			<clipPath id="SVGID_8_">
				<use xlink:href="#SVGID_7_"  overflow="visible"/>
			</clipPath>
			<path clip-path="url(#SVGID_8_)" fill="#F27024" d="M898.853,265.731c0,0,8.23-1.879,8.426-1.939
				c0.734-0.197,1.69-0.41,2.602-2.426c0.377-0.844,3.018-6.801,3.348-7.543c0.334-0.836,1.604-2.971,3.319,0.387
				c0,0,2.886,5.602,3.321,6.441c0.094,0.193,0.919,2.516,3.685,2.428l8.007-0.026c0,0,4.821-0.062,1.803,3.071
				c-2.938,3.027-5.147,5.643-5.858,6.49c-0.749,0.885-1.187,2.358-0.735,3.68c0.194,0.617,1.784,6.313,2.104,7.686
				c0,0,1.448,4.336-3.011,2.313c0,0-7.666-3.242-7.797-3.311c-0.121-0.056-1.535-0.726-3.223,0.486
				c-2.068,1.502-7.669,4.719-6.504,4.025c-0.97,0.57-3.318,2.022-2.974-1.781c0,0,0.347-5.03,0.396-7.182
				c0.063-1.47,0.114-2.429-1.901-4.078l-6.11-5.408C897.75,269.043,894.832,266.7,898.853,265.731"/>
		</g>
		<g>
			<defs>
				<path id="SVGID_9_" d="M858.616,15.948c-1.534-0.047-2.98-0.391-4.268-0.957l1.877,36.712c-0.02-0.012-0.037-0.005-0.057-0.013
					c-0.031,0.293-0.104,0.582-0.227,0.858c-3.435-0.53-28.569,6.534-27.885,16.46c-1.404-0.777-2.382-1.658-3.005-2.592
					c-2.666,3.533-5.771,7.676-9.194,12.243c-1.068,0.068-21.265,3.094-22.181,5.277c1.259,4.33,2.984,10.349,5.257,16.198
					c-0.715,3.445-21.539,30.045-30.533,42.131c-3.35,0.128-8.483,0.502-9.552,1.577c-2.049,2.063-1.252,9.059-0.811,11.985
					c-11.357,17.557-7.445,33.488,4.485,37.467c0.76,0.267,2.414,0.919,3.207,1.011c5.467,2.192,35.535-11.106,24.821-37.494
					c13.147,14.395,11.62,31.824-9.386,41.897c-0.104,3.072,14.428-1.598,19.327-11.133c4.622-8.533,5.288-16.707,2.87-23.861
					c9.08-5.648,29.246-15.042,47.889-24.115c28.292,64.341,70.211,150.177,82.813,176.044c1.558,3.197,2.957,6.514,4.25,9.945
					h59.051c-6.459-7.26-11.484-13.186-13.911-17.01c-31.62-49.818-64.875-113.637-85.62-160.537
					c-4.65-10.508-12.749-30.649-17.37-45.335c-0.389-1.356-0.819-2.781-1.292-4.257c-0.002-0.014-0.009-0.029-0.011-0.042
					c-0.001-0.008-0.009-0.017-0.009-0.02c-5.68-17.84-16.691-43.007-19.127-45.03l4.007-38.568
					C862.415,15.562,860.581,16.013,858.616,15.948"/>
			</defs>
			<clipPath id="SVGID_10_">
				<use xlink:href="#SVGID_9_"  overflow="visible"/>
			</clipPath>
			<path clip-path="url(#SVGID_10_)" fill="#F27024" d="M947.158,283.845c0,0,8.249-1.8,8.446-1.866
				c0.729-0.189,1.688-0.398,2.627-2.412c0.383-0.838,3.07-6.762,3.404-7.517c0.342-0.813,1.627-2.958,3.314,0.424
				c0,0,2.828,5.626,3.259,6.466c0.093,0.192,0.905,2.524,3.671,2.463l8.006,0.045c0,0,4.831-0.019,1.777,3.08
				c-2.969,3.006-5.191,5.603-5.918,6.436c-0.754,0.885-1.205,2.352-0.77,3.682c0.198,0.619,1.732,6.32,2.043,7.717
				c0,0,2.315,6.703-1.582,3.746c0,0-9.086-4.785-9.22-4.848c-0.118-0.063-1.528-0.744-3.226,0.447
				c-2.069,1.502-7.702,4.666-6.526,3.982c-0.981,0.553-3.344,1.99-2.964-1.813c0,0,0.386-5.031,0.465-7.166
				c0.07-1.487,0.133-2.444-1.875-4.115l-6.07-5.451C946.022,287.143,943.126,284.78,947.158,283.845"/>
		</g>
		<g>
			<defs>
				<path id="SVGID_11_" d="M858.616,15.948c-1.534-0.047-2.98-0.391-4.268-0.957l1.877,36.712c-0.02-0.012-0.037-0.005-0.057-0.013
					c-0.031,0.293-0.104,0.582-0.227,0.858c-3.435-0.53-28.569,6.534-27.885,16.46c-1.404-0.777-2.382-1.658-3.005-2.592
					c-2.666,3.533-5.771,7.676-9.194,12.243c-1.068,0.068-21.265,3.094-22.181,5.277c1.259,4.33,2.984,10.349,5.257,16.198
					c-0.715,3.445-21.539,30.045-30.533,42.131c-3.35,0.128-8.483,0.502-9.552,1.577c-2.049,2.063-1.252,9.059-0.811,11.985
					c-11.357,17.557-7.445,33.488,4.485,37.467c0.76,0.267,2.414,0.919,3.207,1.011c5.467,2.192,35.535-11.106,24.821-37.494
					c13.147,14.395,11.62,31.824-9.386,41.897c-0.104,3.072,14.428-1.598,19.327-11.133c4.622-8.533,5.288-16.707,2.87-23.861
					c9.08-5.648,29.246-15.042,47.889-24.115c28.292,64.341,70.211,150.177,82.813,176.044c1.558,3.197,2.957,6.514,4.25,9.945
					h59.051c-6.459-7.26-11.484-13.186-13.911-17.01c-31.62-49.818-64.875-113.637-85.62-160.537
					c-4.65-10.508-12.749-30.649-17.37-45.335c-0.389-1.356-0.819-2.781-1.292-4.257c-0.002-0.014-0.009-0.029-0.011-0.042
					c-0.001-0.008-0.009-0.017-0.009-0.02c-5.68-17.84-16.691-43.007-19.127-45.03l4.007-38.568
					C862.415,15.562,860.581,16.013,858.616,15.948"/>
			</defs>
			<clipPath id="SVGID_12_">
				<use xlink:href="#SVGID_11_"  overflow="visible"/>
			</clipPath>
			<path clip-path="url(#SVGID_12_)" fill="#F27024" d="M892.466,221.03c0,0,3.623,0.168,3.711,0.172
				c0.326,0.002,0.743,0.016,1.361-0.715c0.247-0.3,2.018-2.457,2.245-2.736c0.235-0.301,1.004-1.049,1.33,0.551
				c0,0,0.55,2.648,0.632,3.043c0.018,0.09,0.095,1.145,1.246,1.425l3.318,0.907c0,0,2,0.533,0.394,1.48
				c-1.565,0.92-2.777,1.74-3.17,2.008c-0.408,0.285-0.763,0.845-0.729,1.439c0.01,0.278,0.021,2.821-0.008,3.432
				c0,0,0.107,1.957-1.505,0.604c0,0-2.812-2.217-2.854-2.261c-0.045-0.041-0.553-0.488-1.39-0.174
				c-1.024,0.387-3.714,1.072-3.151,0.918c-0.468,0.134-1.601,0.461-1.028-1.074c0,0,0.721-2.039,0.991-2.926
				c0.189-0.604,0.324-0.992-0.317-1.906l-1.913-2.938C891.628,222.28,890.69,220.972,892.466,221.03"/>
		</g>
		<g>
			<defs>
				<path id="SVGID_13_" d="M858.616,15.948c-1.534-0.047-2.98-0.391-4.268-0.957l1.877,36.712c-0.02-0.012-0.037-0.005-0.057-0.013
					c-0.031,0.293-0.104,0.582-0.227,0.858c-3.435-0.53-28.569,6.534-27.885,16.46c-1.404-0.777-2.382-1.658-3.005-2.592
					c-2.666,3.533-5.771,7.676-9.194,12.243c-1.068,0.068-21.265,3.094-22.181,5.277c1.259,4.33,2.984,10.349,5.257,16.198
					c-0.715,3.445-21.539,30.045-30.533,42.131c-3.35,0.128-8.483,0.502-9.552,1.577c-2.049,2.063-1.252,9.059-0.811,11.985
					c-11.357,17.557-7.445,33.488,4.485,37.467c0.76,0.267,2.414,0.919,3.207,1.011c5.467,2.192,35.535-11.106,24.821-37.494
					c13.147,14.395,11.62,31.824-9.386,41.897c-0.104,3.072,14.428-1.598,19.327-11.133c4.622-8.533,5.288-16.707,2.87-23.861
					c9.08-5.648,29.246-15.042,47.889-24.115c28.292,64.341,70.211,150.177,82.813,176.044c1.558,3.197,2.957,6.514,4.25,9.945
					h59.051c-6.459-7.26-11.484-13.186-13.911-17.01c-31.62-49.818-64.875-113.637-85.62-160.537
					c-4.65-10.508-12.749-30.649-17.37-45.335c-0.389-1.356-0.819-2.781-1.292-4.257c-0.002-0.014-0.009-0.029-0.011-0.042
					c-0.001-0.008-0.009-0.017-0.009-0.02c-5.68-17.84-16.691-43.007-19.127-45.03l4.007-38.568
					C862.415,15.562,860.581,16.013,858.616,15.948"/>
			</defs>
			<clipPath id="SVGID_14_">
				<use xlink:href="#SVGID_13_"  overflow="visible"/>
			</clipPath>
			<path clip-path="url(#SVGID_14_)" fill="#F27024" d="M919.522,304.276c0,0,5.285-1.158,5.41-1.197
				c0.471-0.119,1.086-0.256,1.686-1.539c0.242-0.534,1.97-4.332,2.187-4.815c0.222-0.528,1.048-1.899,2.124,0.263
				c0,0,1.814,3.612,2.094,4.153c0.061,0.12,0.574,1.61,2.347,1.567l5.138,0.039c0,0,3.092-0.016,1.133,1.965
				c-1.896,1.93-3.322,3.604-3.791,4.133c-0.482,0.568-0.771,1.516-0.498,2.354c0.133,0.402,1.111,4.063,1.317,4.947
				c0,0,0.901,2.781-1.94,1.459c0,0-4.906-2.117-4.99-2.162c-0.068-0.039-0.976-0.479-2.063,0.293
				c-1.341,0.955-4.947,2.982-4.186,2.547c-0.633,0.355-2.139,1.279-1.896-1.158c0,0,0.244-3.227,0.298-4.592
				c0.043-0.951,0.081-1.564-1.203-2.639l-3.892-3.496C918.794,306.397,916.937,304.875,919.522,304.276"/>
		</g>
		<g>
			<defs>
				<path id="SVGID_15_" d="M858.616,15.948c-1.534-0.047-2.98-0.391-4.268-0.957l1.877,36.712c-0.02-0.012-0.037-0.005-0.057-0.013
					c-0.031,0.293-0.104,0.582-0.227,0.858c-3.435-0.53-28.569,6.534-27.885,16.46c-1.404-0.777-2.382-1.658-3.005-2.592
					c-2.666,3.533-5.771,7.676-9.194,12.243c-1.068,0.068-21.265,3.094-22.181,5.277c1.259,4.33,2.984,10.349,5.257,16.198
					c-0.715,3.445-21.539,30.045-30.533,42.131c-3.35,0.128-8.483,0.502-9.552,1.577c-2.049,2.063-1.252,9.059-0.811,11.985
					c-11.357,17.557-7.445,33.488,4.485,37.467c0.76,0.267,2.414,0.919,3.207,1.011c5.467,2.192,35.535-11.106,24.821-37.494
					c13.147,14.395,11.62,31.824-9.386,41.897c-0.104,3.072,14.428-1.598,19.327-11.133c4.622-8.533,5.288-16.707,2.87-23.861
					c9.08-5.648,29.246-15.042,47.889-24.115c28.292,64.341,70.211,150.177,82.813,176.044c1.558,3.197,2.957,6.514,4.25,9.945
					h59.051c-6.459-7.26-11.484-13.186-13.911-17.01c-31.62-49.818-64.875-113.637-85.62-160.537
					c-4.65-10.508-12.749-30.649-17.37-45.335c-0.389-1.356-0.819-2.781-1.292-4.257c-0.002-0.014-0.009-0.029-0.011-0.042
					c-0.001-0.008-0.009-0.017-0.009-0.02c-5.68-17.84-16.691-43.007-19.127-45.03l4.007-38.568
					C862.415,15.562,860.581,16.013,858.616,15.948"/>
			</defs>
			<clipPath id="SVGID_16_">
				<use xlink:href="#SVGID_15_"  overflow="visible"/>
			</clipPath>
			<path clip-path="url(#SVGID_16_)" fill="#F27024" d="M977.603,315.864c0,0,4.543-0.01,4.649-0.02
				c0.408-0.016,0.933-0.008,1.656-0.961c0.292-0.4,2.393-3.209,2.653-3.564c0.268-0.398,1.194-1.369,1.695,0.604
				c0,0,0.846,3.283,0.981,3.771c0.022,0.113,0.174,1.43,1.637,1.711l4.207,0.939c0,0,2.541,0.543,0.58,1.82
				c-1.908,1.238-3.366,2.352-3.837,2.711c-0.512,0.377-0.914,1.102-0.838,1.844c0.035,0.348,0.191,3.523,0.197,4.291
				c0,0,0.248,2.443-1.851,0.846c0,0-3.646-2.609-3.71-2.658c-0.052-0.055-0.713-0.563-1.742-0.127
				c-1.262,0.551-4.589,1.57-3.887,1.338c-0.58,0.188-1.986,0.674-1.354-1.287c0,0,0.775-2.598,1.064-3.715
				c0.207-0.773,0.35-1.266-0.518-2.375l-2.561-3.566C976.631,317.465,975.377,315.897,977.603,315.864"/>
		</g>
		<g>
			<defs>
				<path id="SVGID_17_" d="M858.616,15.948c-1.534-0.047-2.98-0.391-4.268-0.957l1.877,36.712c-0.02-0.012-0.037-0.005-0.057-0.013
					c-0.031,0.293-0.104,0.582-0.227,0.858c-3.435-0.53-28.569,6.534-27.885,16.46c-1.404-0.777-2.382-1.658-3.005-2.592
					c-2.666,3.533-5.771,7.676-9.194,12.243c-1.068,0.068-21.265,3.094-22.181,5.277c1.259,4.33,2.984,10.349,5.257,16.198
					c-0.715,3.445-21.539,30.045-30.533,42.131c-3.35,0.128-8.483,0.502-9.552,1.577c-2.049,2.063-1.252,9.059-0.811,11.985
					c-11.357,17.557-7.445,33.488,4.485,37.467c0.76,0.267,2.414,0.919,3.207,1.011c5.467,2.192,35.535-11.106,24.821-37.494
					c13.147,14.395,11.62,31.824-9.386,41.897c-0.104,3.072,14.428-1.598,19.327-11.133c4.622-8.533,5.288-16.707,2.87-23.861
					c9.08-5.648,29.246-15.042,47.889-24.115c28.292,64.341,70.211,150.177,82.813,176.044c1.558,3.197,2.957,6.514,4.25,9.945
					h59.051c-6.459-7.26-11.484-13.186-13.911-17.01c-31.62-49.818-64.875-113.637-85.62-160.537
					c-4.65-10.508-12.749-30.649-17.37-45.335c-0.389-1.356-0.819-2.781-1.292-4.257c-0.002-0.014-0.009-0.029-0.011-0.042
					c-0.001-0.008-0.009-0.017-0.009-0.02c-5.68-17.84-16.691-43.007-19.127-45.03l4.007-38.568
					C862.415,15.562,860.581,16.013,858.616,15.948"/>
			</defs>
			<clipPath id="SVGID_18_">
				<use xlink:href="#SVGID_17_"  overflow="visible"/>
			</clipPath>
			<path clip-path="url(#SVGID_18_)" fill="#F27024" d="M917.151,223.116c0,0,5.296-1.158,5.421-1.197
				c0.467-0.125,1.084-0.26,1.679-1.538c0.25-0.54,1.975-4.339,2.184-4.825c0.224-0.527,1.043-1.898,2.131,0.27
				c0,0,1.813,3.607,2.097,4.154c0.054,0.119,0.565,1.607,2.344,1.571l5.138,0.03c0,0,3.09-0.018,1.129,1.968
				c-1.897,1.933-3.317,3.597-3.789,4.132c-0.481,0.564-0.774,1.51-0.488,2.361c0.128,0.389,1.109,4.052,1.311,4.941
				c0,0,0.903,2.781-1.945,1.453c0,0-4.896-2.117-4.987-2.158c-0.063-0.045-0.97-0.477-2.062,0.289
				c-1.338,0.957-4.942,2.987-4.181,2.555c-0.633,0.355-2.146,1.275-1.901-1.159c0,0,0.244-3.231,0.293-4.603
				c0.043-0.949,0.082-1.563-1.194-2.632l-3.89-3.495C916.437,225.233,914.574,223.717,917.151,223.116"/>
		</g>
		<g>
			<defs>
				<path id="SVGID_19_" d="M858.616,15.948c-1.534-0.047-2.98-0.391-4.268-0.957l1.877,36.712c-0.02-0.012-0.037-0.005-0.057-0.013
					c-0.031,0.293-0.104,0.582-0.227,0.858c-3.435-0.53-28.569,6.534-27.885,16.46c-1.404-0.777-2.382-1.658-3.005-2.592
					c-2.666,3.533-5.771,7.676-9.194,12.243c-1.068,0.068-21.265,3.094-22.181,5.277c1.259,4.33,2.984,10.349,5.257,16.198
					c-0.715,3.445-21.539,30.045-30.533,42.131c-3.35,0.128-8.483,0.502-9.552,1.577c-2.049,2.063-1.252,9.059-0.811,11.985
					c-11.357,17.557-7.445,33.488,4.485,37.467c0.76,0.267,2.414,0.919,3.207,1.011c5.467,2.192,35.535-11.106,24.821-37.494
					c13.147,14.395,11.62,31.824-9.386,41.897c-0.104,3.072,14.428-1.598,19.327-11.133c4.622-8.533,5.288-16.707,2.87-23.861
					c9.08-5.648,29.246-15.042,47.889-24.115c28.292,64.341,70.211,150.177,82.813,176.044c1.558,3.197,2.957,6.514,4.25,9.945
					h59.051c-6.459-7.26-11.484-13.186-13.911-17.01c-31.62-49.818-64.875-113.637-85.62-160.537
					c-4.65-10.508-12.749-30.649-17.37-45.335c-0.389-1.356-0.819-2.781-1.292-4.257c-0.002-0.014-0.009-0.029-0.011-0.042
					c-0.001-0.008-0.009-0.017-0.009-0.02c-5.68-17.84-16.691-43.007-19.127-45.03l4.007-38.568
					C862.415,15.562,860.581,16.013,858.616,15.948"/>
			</defs>
			<clipPath id="SVGID_20_">
				<use xlink:href="#SVGID_19_"  overflow="visible"/>
			</clipPath>
			<path clip-path="url(#SVGID_20_)" fill="#F27024" d="M938.821,248.911c0,0,5.103-1.81,5.22-1.864
				c0.451-0.185,1.046-0.388,1.471-1.745c0.183-0.557,1.412-4.555,1.566-5.059c0.149-0.549,0.803-2.01,2.147,0
				c0,0,2.25,3.353,2.592,3.863c0.076,0.1,0.779,1.518,2.533,1.258l5.09-0.619c0,0,3.07-0.397,1.377,1.813
				c-1.64,2.156-2.851,3.987-3.235,4.567c-0.411,0.631-0.582,1.599-0.194,2.408c0.174,0.377,1.615,3.881,1.926,4.746
				c0,0,1.246,2.643-1.738,1.688c0,0-5.133-1.486-5.229-1.527c-0.075-0.021-1.03-0.343-2.009,0.553
				c-1.207,1.117-4.525,3.584-3.831,3.061c-0.577,0.43-1.97,1.535-2.028-0.902c0,0-0.166-3.242-0.287-4.613
				c-0.072-0.938-0.115-1.551-1.521-2.455l-4.295-2.981C938.374,251.099,936.336,249.829,938.821,248.911"/>
		</g>
	</g>
	<path fill="#FFFFFF" d="M842.11,114.759c-7.758,0.292-14.295-5.746-14.592-13.491c-0.295-7.765,5.74-14.294,13.49-14.593
		c7.756-0.301,14.287,5.749,14.587,13.503C855.896,107.923,849.858,114.451,842.11,114.759"/>
	<path fill="#FFFFFF" d="M790.547,156.818c17.276,19.267,4.953,34.699-7.383,40.938l-11.703-3.979
		C781.625,190.634,799.103,177.907,790.547,156.818"/>
	<path fill="#FFFFFF" d="M812.563,86.68c7.762-0.298,14.285,5.743,14.59,13.491c0.303,7.753-5.756,14.279-13.491,14.585
		c-7.757,0.298-14.286-5.737-14.586-13.494C798.767,93.512,804.81,86.978,812.563,86.68"/>
	<path fill="#7B3218" d="M855.933,52.513c-3.438-0.532-28.563,6.533-27.879,16.456c-1.414-0.775-2.344-1.669-2.964-2.603
		c-0.013,0.022-0.024,0.033-0.034,0.05c-3.462-5.17,3.877-12.047,8.053-13.935c-9.777-5.034-12.967,6.961-12.967,6.961
		c-4.811-9.358-5.19-24.993,2.488-25.742c7.38-0.715,34.34,10.68,33.539,17.99c-0.008,0.004-0.016,0.004-0.016,0
		C856.116,51.973,856.051,52.246,855.933,52.513"/>
	<path fill="#FAAE1B" d="M771.36,156.519c1.15,0.054,2.194-2.25,2.348-5.167c0.15-2.911-0.659-5.319-1.801-5.377
		c-1.151-0.051-2.188,2.246-2.346,5.163C769.414,154.05,770.218,156.457,771.36,156.519"/>
	<path fill="#FAAE1B" d="M760.985,157.527c1.146,0.062,2.191-2.25,2.348-5.162c0.146-2.905-0.66-5.319-1.805-5.384
		c-1.145-0.053-2.188,2.263-2.338,5.171C759.033,155.063,759.841,157.469,760.985,157.527"/>
	<path fill="#FAAE1B" d="M855.944,52.55c-3.438-0.529-28.571,6.533-27.885,16.459c-1.404-0.778-2.385-1.659-3.005-2.591
		c0.011-0.016,0.021-0.029,0.036-0.05c0.619,0.932,1.547,1.82,2.964,2.601c-0.688-9.923,24.438-16.986,27.878-16.456
		c0.119-0.268,0.188-0.542,0.221-0.822c0.002,0.004,0.008,0.005,0.018,0C856.14,51.984,856.065,52.273,855.944,52.55"/>
	<path fill="#7B3218" d="M828.226,18.88c-1.494,1.512-3.464,2.676-5.773,3.182c-0.775,0.174-1.539,0.247-2.286,0.264
		c-4.867,0.124-9.146-2.782-10.06-7.198c-1.066-5.099,2.733-10.264,8.48-11.537c5.756-1.271,11.27,1.836,12.337,6.949
		C831.567,13.577,830.44,16.637,828.226,18.88"/>
	<path fill="#7B3218" d="M854.351,14.991c-3.674-1.588-6.149-4.965-5.979-8.819c0.223-5.2,5.181-9.271,11.062-9.091
		c5.891,0.19,10.482,4.563,10.258,9.779c-0.15,3.463-2.424,6.396-5.654,7.932c-1.619,0.771-3.455,1.218-5.419,1.155
		C857.082,15.899,855.636,15.557,854.351,14.991"/>
	<path fill="#F27024" d="M765.586,58.371c1.904-3.569,48.492-7.76,55.749,3.332C815.129,72.409,794.472,75.163,765.586,58.371"/>
	<path fill="#FAAE1B" d="M828.226,18.88l6.332,17.422c-2.791-1.008-5.43-1.782-7.65-2.236l-6.741-11.74
		c0.747-0.017,1.511-0.09,2.286-0.264C824.762,21.555,826.731,20.391,828.226,18.88"/>
	<path fill="#F27024" d="M866.321,59.448c7.894-11.579,59.226-7.628,61.363-3.945C896.007,73.183,873.246,70.502,866.321,59.448"/>
	<path fill="#7B3218" d="M771.36,156.519c-1.143-0.063-1.946-2.47-1.799-5.381c0.158-2.918,1.193-5.214,2.346-5.163
		c1.142,0.058,1.951,2.466,1.801,5.377C773.556,154.269,772.511,156.573,771.36,156.519"/>
	<path fill="#7B3218" d="M760.985,157.527c-1.146-0.061-1.952-2.464-1.795-5.375c0.15-2.908,1.193-5.224,2.338-5.171
		c1.145,0.063,1.951,2.479,1.805,5.384C763.183,155.277,762.13,157.589,760.985,157.527"/>
	<path fill="#7B3218" d="M848.961,82.348c-2.317-0.313-9.308-0.017-11.291,0.511c-1.524,0.401-2.429-3.922-1.587-4.074
		C836.922,78.641,846.625,80.41,848.961,82.348"/>
	<path fill="#7B3218" d="M799.271,84.477c3.547-0.182,9.813-1.032,11.024-2.055c1.207-1.021,0.498-3.736,0.498-3.736
		C809.205,79.894,798.762,83.72,799.271,84.477"/>
	<path fill="#FFFFFF" d="M800.753,107.392c3.688,6.828,12.21,9.373,19.036,5.684c6.827-3.69,9.367-12.212,5.681-19.04
		c-3.688-6.824-12.21-9.369-19.037-5.677C799.606,92.046,797.063,100.568,800.753,107.392"/>
	<path fill="#7B3218" d="M808.276,103.329c1.442,2.668,4.773,3.664,7.445,2.221c2.67-1.443,3.663-4.776,2.223-7.446
		c-1.442-2.668-4.773-3.661-7.445-2.217C807.829,97.329,806.834,100.66,808.276,103.329"/>
	<path fill="#FFFFFF" d="M829.199,107.392c3.688,6.828,12.21,9.373,19.034,5.683c6.828-3.691,9.369-12.211,5.681-19.037
		c-3.687-6.824-12.21-9.371-19.035-5.678C828.052,92.047,825.51,100.569,829.199,107.392"/>
	<path fill="#7B3218" d="M836.721,103.329c1.443,2.669,4.774,3.662,7.445,2.221c2.669-1.442,3.663-4.774,2.222-7.446
		c-1.443-2.669-4.773-3.663-7.445-2.219C836.272,97.324,835.278,100.662,836.721,103.329"/>
	<path fill="#FAAE1C" d="M783.949,197.784l-13.187-4.424l-0.668,0.313c13.941,4.647,14.018,4.592,13.209,4.592
		C783.144,198.264,783.949,197.784,783.949,197.784"/>
	<path fill="#F27024" d="M111.351,289.218c0,0-6.51-1.429-6.665-1.478c-0.578-0.146-1.337-0.313-2.075-1.896
		c-0.299-0.658-2.429-5.336-2.695-5.934c-0.271-0.649-1.289-2.338-2.615,0.324c0,0-2.236,4.451-2.579,5.117
		c-0.075,0.146-0.709,1.985-2.892,1.932l-6.329,0.049c0,0-3.808-0.02-1.396,2.421c2.337,2.377,4.095,4.438,4.671,5.092
		c0.596,0.699,0.95,1.866,0.615,2.899c-0.164,0.494-1.372,5.004-1.624,6.094c0,0-1.112,3.43,2.391,1.797
		c0,0,6.044-2.605,6.146-2.663c0.086-0.047,1.202-0.589,2.542,0.36c1.653,1.178,6.097,3.676,5.156,3.141
		c0.78,0.436,2.635,1.574,2.337-1.43c0,0-0.303-3.975-0.368-5.657c-0.052-1.171-0.1-1.927,1.484-3.251l4.792-4.307
		C112.248,291.829,114.538,289.954,111.351,289.218"/>
	<path fill="#F27024" d="M136.814,241.721c0,0-10.14-2.313-10.38-2.389c-0.905-0.245-2.083-0.506-3.203-2.989
		c-0.465-1.038-3.718-8.377-4.125-9.293c-0.412-1.03-1.977-3.66-4.091,0.478c0,0-3.555,6.898-4.092,7.936
		c-0.114,0.238-1.131,3.099-4.54,2.992l-9.863-0.033c0,0-5.941-0.076-2.221,3.783c3.622,3.73,6.344,6.951,7.218,7.998
		c0.923,1.088,1.46,2.904,0.907,4.533c-0.24,0.76-2.198,7.775-2.593,9.467c0,0-1.787,5.343,3.707,2.848c0,0,9.446-3.993,9.608-4.079
		c0.149-0.065,1.892-0.892,3.969,0.603c2.548,1.851,9.449,5.813,8.012,4.961c1.196,0.701,4.089,2.49,3.666-2.195
		c0,0-0.429-6.199-0.491-8.848c-0.076-1.813-0.14-2.992,2.342-5.025l7.528-6.661C138.172,245.804,141.768,242.917,136.814,241.721"
		/>
	<path fill="#FAAE1B" d="M370.776,251.897c0,0-0.965,0.422-0.593-0.646c0,0,0.59-1.84,0.603-1.877
		c0.013-0.028,0.136-0.369-0.176-0.729c-0.141-0.155-0.921-1.214-1.069-1.416c-0.153-0.217-0.537-0.728,0.347-0.728
		c0,0,1.168-0.021,1.667-0.053c0.34-0.018,0.568-0.029,0.907-0.526l1.117-1.524c0,0,0.478-0.727,0.789,0.184
		c0,0,0.605,1.861,0.624,1.912c0.059,0.16,0.131,0.377,0.609,0.543c0.209,0.072,1.635,0.559,1.821,0.617
		c0.195,0.063,0.719,0.31-0.022,0.775c0,0-1.239,0.787-1.423,0.902c-0.042,0.021-0.557,0.265-0.479,0.898l0.173,1.85
		c0,0,0.116,1.107-0.67,0.479c-0.766-0.613-1.417-1.07-1.624-1.216c-0.217-0.151-0.571-0.224-0.868-0.097
		C372.376,251.305,371.088,251.79,370.776,251.897"/>
	<path fill="#F27024" d="M319.806,285.672c0.278-0.564,0-0.963-0.023-1c-0.028-0.033-1.415-2.178-1.415-2.178
		c-0.836-1.242,0.542-1.032,0.542-1.032c0.438,0.026,2.237,0.206,2.433,0.233c0.423,0.063,0.846-0.146,1.073-0.42
		c0.221-0.259,0.895-1.061,1.651-2.111c0.786-1.074,1.027,0.388,1.027,0.388l0.41,2.416c0.122,0.841,0.863,0.97,0.926,0.989
		c0.275,0.084,2.124,0.656,2.124,0.656c1.104,0.344,0.522,0.84,0.294,0.986c-0.217,0.135-1.872,1.249-2.105,1.405
		c-0.559,0.389-0.57,0.681-0.596,0.909c-0.008,0.068-0.141,2.652-0.141,2.652c-0.084,1.266-0.944,0.508-0.944,0.508l-1.947-1.563
		c-0.608-0.517-0.902-0.452-1.337-0.36c-0.643,0.131-2.15,0.502-2.15,0.502c-1.131,0.301-0.818-0.478-0.696-0.805
		C318.788,288.239,319.465,286.377,319.806,285.672"/>
	<path fill="#F27024" d="M78.547,180.708c-0.339,1.229,0.353,1.898,0.412,1.953c0.064,0.061,3.579,3.772,3.579,3.772
		c2.106,2.126-0.681,2.224-0.681,2.224c-0.865,0.104-4.477,0.416-4.874,0.435c-0.855,0.026-1.61,0.596-1.957,1.216
		c-0.326,0.59-1.354,2.419-2.465,4.762c-1.153,2.402-2.161-0.379-2.161-0.379l-1.695-4.6c-0.546-1.609-2.054-1.592-2.187-1.605
		c-0.571-0.062-4.407-0.521-4.407-0.521c-2.299-0.261-1.347-1.453-0.942-1.824c0.371-0.347,3.213-3.144,3.617-3.54
		c0.964-0.958,0.875-1.545,0.836-2.013c-0.006-0.128-0.697-5.261-0.697-5.261c-0.299-2.517,1.673-1.34,1.673-1.34l4.408,2.353
		c1.377,0.799,1.927,0.565,2.76,0.224c1.214-0.5,4.04-1.775,4.04-1.775c2.112-1.012,1.773,0.634,1.663,1.322
		C79.607,175.29,78.967,179.196,78.547,180.708"/>
	<path fill="#FAAE1B" d="M193.512,249.897c0.982-2.007,0.007-3.383-0.078-3.502c-0.095-0.121-4.953-7.652-4.953-7.652
		c-2.946-4.351,1.89-3.612,1.89-3.612c1.526,0.097,7.846,0.719,8.538,0.821c1.483,0.224,2.968-0.521,3.771-1.469
		c0.756-0.916,3.114-3.729,5.784-7.41c2.755-3.777,3.598,1.346,3.598,1.346l1.441,8.477c0.422,2.948,3.029,3.408,3.255,3.475
		c0.96,0.293,7.429,2.305,7.429,2.305c3.883,1.201,1.852,2.949,1.033,3.453c-0.745,0.477-6.549,4.383-7.372,4.938
		c-1.97,1.348-2.011,2.391-2.088,3.199c-0.033,0.229-0.498,9.297-0.498,9.297c-0.294,4.434-3.311,1.771-3.311,1.771l-6.84-5.469
		c-2.128-1.83-3.143-1.605-4.693-1.276c-2.255,0.466-7.535,1.759-7.535,1.759c-3.96,1.059-2.854-1.665-2.439-2.818
		C189.945,258.897,192.299,252.366,193.512,249.897"/>
	<path fill="#FAAE1B" d="M175.092,309.415c-0.082-1.014-0.786-1.324-0.849-1.354c-0.063-0.023-3.729-1.84-3.729-1.84
		c-2.168-1.016-0.103-1.857-0.103-1.857c0.622-0.318,3.243-1.551,3.537-1.674c0.633-0.259,1.042-0.896,1.135-1.455
		c0.083-0.535,0.35-2.189,0.535-4.257c0.198-2.122,1.725-0.313,1.725-0.313l2.543,2.984c0.854,1.059,1.985,0.629,2.089,0.602
		c0.444-0.107,3.448-0.834,3.448-0.834c1.803-0.436,1.414,0.724,1.213,1.113c-0.183,0.358-1.544,3.248-1.733,3.656
		c-0.458,0.988-0.229,1.406-0.073,1.74c0.041,0.098,1.979,3.76,1.979,3.76c0.92,1.805-0.886,1.467-0.886,1.467l-3.955-0.543
		c-1.262-0.219-1.604,0.104-2.138,0.596c-0.773,0.709-2.54,2.451-2.54,2.451c-1.306,1.34-1.509,0.014-1.615-0.535
		C175.799,313.776,175.196,310.667,175.092,309.415"/>
	<path fill="#F27024" d="M250.567,249.698c-0.278,0.569,0,0.967,0.023,1c0.028,0.037,1.415,2.185,1.415,2.185
		c0.839,1.241-0.542,1.03-0.542,1.03c-0.438-0.026-2.24-0.205-2.433-0.234c-0.426-0.063-0.851,0.146-1.078,0.42
		c-0.212,0.264-0.884,1.064-1.65,2.111c-0.784,1.074-1.022-0.385-1.022-0.385l-0.41-2.418c-0.122-0.834-0.867-0.972-0.926-0.988
		c-0.275-0.084-2.119-0.661-2.119-0.661c-1.108-0.334-0.528-0.836-0.294-0.978c0.213-0.141,1.865-1.25,2.104-1.412
		c0.557-0.381,0.567-0.68,0.589-0.906c0.013-0.067,0.145-2.654,0.145-2.654c0.084-1.266,0.948-0.506,0.948-0.506l1.949,1.563
		c0.607,0.519,0.895,0.455,1.336,0.359c0.642-0.131,2.145-0.504,2.145-0.504c1.133-0.298,0.818,0.479,0.696,0.811
		C251.585,247.134,250.912,248.999,250.567,249.698"/>
	<path fill="#FAAE1B" d="M265.066,285.366c-0.278,0.569,0,0.967,0.023,1c0.028,0.037,1.415,2.186,1.415,2.186
		c0.839,1.238-0.542,1.027-0.542,1.027c-0.439-0.023-2.24-0.201-2.433-0.231c-0.426-0.063-0.851,0.147-1.078,0.417
		c-0.212,0.266-0.884,1.068-1.65,2.114c-0.784,1.075-1.022-0.384-1.022-0.384l-0.41-2.418c-0.122-0.838-0.867-0.973-0.926-0.989
		c-0.275-0.085-2.119-0.661-2.119-0.661c-1.108-0.334-0.528-0.836-0.294-0.979c0.213-0.142,1.865-1.25,2.104-1.41
		c0.557-0.383,0.567-0.68,0.589-0.907c0.013-0.068,0.144-2.654,0.144-2.654c0.085-1.265,0.949-0.506,0.949-0.506l1.949,1.563
		c0.607,0.518,0.895,0.453,1.336,0.358c0.641-0.131,2.144-0.504,2.144-0.504c1.132-0.298,0.817,0.479,0.695,0.812
		C266.084,282.803,265.411,284.667,265.066,285.366"/>
	<path fill="#F27024" d="M207.978,275.267c-0.633-0.007-0.856-0.435-0.875-0.474c-0.02-0.041-1.303-2.248-1.303-2.248
		c-0.729-1.316-1.162,0.013-1.162,0.013c-0.174,0.403-0.835,2.082-0.899,2.272c-0.134,0.406-0.518,0.688-0.863,0.764
		c-0.329,0.078-1.351,0.313-2.633,0.512c-1.312,0.215-0.126,1.088-0.126,1.088l1.972,1.469c0.694,0.492,0.471,1.209,0.458,1.272
		c-0.047,0.285-0.373,2.188-0.373,2.188c-0.205,1.14,0.504,0.849,0.741,0.709c0.217-0.129,1.957-1.098,2.209-1.236
		c0.598-0.318,0.868-0.197,1.08-0.115c0.061,0.022,2.425,1.078,2.425,1.078c1.164,0.502,0.881-0.607,0.881-0.607l-0.504-2.446
		c-0.186-0.774,0-1.005,0.283-1.353c0.416-0.516,1.427-1.688,1.427-1.688c0.784-0.869-0.053-0.942-0.404-0.981
		C210.726,275.528,208.763,275.284,207.978,275.267"/>
	<path fill="#FAAE1B" d="M286.236,223.129c-0.637-0.008-0.86-0.432-0.88-0.471c-0.017-0.041-1.302-2.252-1.302-2.252
		c-0.719-1.313-1.161,0.01-1.161,0.01c-0.173,0.4-0.831,2.091-0.897,2.275c-0.137,0.408-0.517,0.688-0.863,0.768
		c-0.33,0.072-1.35,0.313-2.633,0.511c-1.315,0.21-0.12,1.086-0.12,1.086l1.963,1.47c0.692,0.484,0.474,1.209,0.46,1.275
		c-0.049,0.281-0.377,2.186-0.377,2.186c-0.202,1.139,0.501,0.846,0.741,0.705c0.221-0.125,1.961-1.092,2.214-1.232
		c0.593-0.323,0.863-0.2,1.082-0.111c0.059,0.021,2.423,1.078,2.423,1.078c1.164,0.498,0.883-0.613,0.883-0.613l-0.506-2.447
		c-0.188-0.772,0-1.002,0.282-1.352c0.417-0.509,1.424-1.686,1.424-1.686c0.787-0.867-0.051-0.941-0.4-0.986
		C288.986,223.389,287.022,223.143,286.236,223.129"/>
	<path fill="#FAAE1B" d="M146.739,295.571c-0.556,1.144-0.002,1.928,0.05,1.996c0.053,0.068,2.821,4.369,2.821,4.369
		c1.686,2.479-1.075,2.061-1.075,2.061c-0.869-0.057-4.479-0.414-4.87-0.469c-0.846-0.131-1.692,0.291-2.149,0.834
		c-0.434,0.52-1.776,2.127-3.295,4.229c-1.575,2.15-2.058-0.77-2.058-0.77l-0.819-4.836c-0.244-1.679-1.728-1.939-1.855-1.979
		c-0.55-0.167-4.235-1.318-4.235-1.318c-2.215-0.677-1.056-1.675-0.592-1.963c0.427-0.277,3.736-2.5,4.207-2.813
		c1.123-0.772,1.144-1.371,1.188-1.828c0.02-0.127,0.283-5.303,0.283-5.303c0.168-2.526,1.887-1.013,1.887-1.013l3.903,3.121
		c1.205,1.039,1.789,0.909,2.672,0.729c1.285-0.272,4.297-1.006,4.297-1.006c2.257-0.607,1.631,0.951,1.392,1.605
		C148.778,290.442,147.431,294.165,146.739,295.571"/>
	<path fill="#F27024" d="M22.228,277.948c0.167-0.613-0.178-0.951-0.209-0.98c-0.031-0.021-1.79-1.887-1.79-1.887
		c-1.056-1.063,0.342-1.11,0.342-1.11c0.433-0.051,2.238-0.209,2.435-0.216c0.431-0.014,0.806-0.299,0.982-0.609
		c0.162-0.297,0.677-1.207,1.233-2.38c0.57-1.202,1.078,0.188,1.078,0.188l0.846,2.304c0.275,0.804,1.029,0.795,1.098,0.804
		c0.282,0.029,2.201,0.254,2.201,0.254c1.149,0.135,0.67,0.73,0.469,0.916c-0.187,0.172-1.605,1.568-1.809,1.768
		c-0.481,0.484-0.436,0.773-0.414,1.007c0,0.063,0.345,2.634,0.345,2.634c0.153,1.26-0.833,0.67-0.833,0.67l-2.206-1.178
		c-0.692-0.398-0.962-0.279-1.38-0.109c-0.607,0.252-2.021,0.887-2.021,0.887c-1.054,0.504-0.885-0.313-0.831-0.666
		C21.697,280.655,22.015,278.704,22.228,277.948"/>
	<path fill="#FAAE1B" d="M31.957,246.196c-0.625,0.104-0.923-0.272-0.95-0.306c-0.023-0.037-1.692-1.972-1.692-1.972
		c-0.952-1.161-1.141,0.222-1.141,0.222c-0.094,0.431-0.438,2.211-0.466,2.403c-0.058,0.422-0.38,0.771-0.706,0.912
		c-0.312,0.132-1.273,0.552-2.492,0.986c-1.253,0.444,0.076,1.09,0.076,1.09l2.207,1.078c0.766,0.354,0.68,1.1,0.684,1.17
		c0.001,0.285,0.029,2.219,0.029,2.219c0.014,1.158,0.656,0.736,0.863,0.561c0.188-0.17,1.726-1.436,1.944-1.617
		c0.529-0.43,0.816-0.354,1.041-0.314c0.064,0.011,2.583,0.615,2.583,0.615c1.237,0.281,0.752-0.764,0.752-0.764l-0.946-2.311
		c-0.324-0.725-0.177-0.982,0.033-1.387c0.313-0.574,1.091-1.918,1.091-1.918c0.611-0.992-0.229-0.912-0.575-0.893
		C34.71,245.948,32.733,246.065,31.957,246.196"/>
	<path fill="#FAAE1B" d="M58.065,230.426c-0.334,1.229,0.356,1.898,0.414,1.956c0.065,0.058,3.576,3.772,3.576,3.772
		c2.111,2.127-0.675,2.229-0.675,2.229c-0.872,0.1-4.475,0.413-4.877,0.432c-0.852,0.026-1.611,0.596-1.958,1.219
		c-0.327,0.588-1.354,2.41-2.467,4.756c-1.15,2.402-2.155-0.375-2.155-0.375l-1.696-4.602c-0.548-1.605-2.058-1.592-2.19-1.605
		c-0.572-0.063-4.404-0.518-4.404-0.518c-2.304-0.263-1.347-1.457-0.941-1.826c0.368-0.351,3.21-3.144,3.614-3.539
		c0.963-0.965,0.875-1.549,0.833-2.012c-0.003-0.13-0.696-5.264-0.696-5.264c-0.295-2.516,1.675-1.34,1.675-1.34l4.407,2.349
		c1.375,0.802,1.927,0.567,2.763,0.229c1.213-0.504,4.038-1.782,4.038-1.782c2.105-1.013,1.776,0.635,1.661,1.327
		C59.125,225.007,58.486,228.913,58.065,230.426"/>
	<path fill="#F27024" d="M2.389,215.019c0.168-0.604-0.177-0.944-0.207-0.973c-0.032-0.031-1.787-1.886-1.787-1.886
		c-1.056-1.063,0.343-1.11,0.343-1.11c0.432-0.058,2.232-0.211,2.431-0.222c0.428-0.014,0.808-0.295,0.982-0.607
		c0.163-0.295,0.676-1.206,1.233-2.375c0.572-1.206,1.077,0.188,1.077,0.188l0.846,2.299c0.275,0.805,1.029,0.793,1.098,0.805
		c0.282,0.029,2.204,0.254,2.204,0.254c1.151,0.133,0.668,0.729,0.47,0.916c-0.186,0.172-1.605,1.566-1.81,1.768
		c-0.478,0.485-0.435,0.777-0.418,1.008c0.006,0.063,0.35,2.63,0.35,2.63c0.152,1.262-0.836,0.672-0.836,0.672l-2.203-1.175
		c-0.691-0.401-0.964-0.284-1.379-0.112c-0.608,0.25-2.021,0.892-2.021,0.892c-1.057,0.5-0.892-0.316-0.831-0.668
		C1.859,217.733,2.181,215.778,2.389,215.019"/>
	<path fill="#FAAE1B" d="M36.863,198.022c0.172-0.613-0.177-0.947-0.208-0.979c-0.03-0.034-1.786-1.883-1.786-1.883
		c-1.053-1.064,0.339-1.111,0.339-1.111c0.435-0.057,2.239-0.212,2.438-0.223c0.427-0.014,0.803-0.301,0.978-0.608
		c0.164-0.296,0.678-1.209,1.234-2.377c0.578-1.203,1.078,0.185,1.078,0.185l0.848,2.309c0.272,0.798,1.029,0.791,1.096,0.798
		c0.285,0.03,2.205,0.26,2.205,0.26c1.149,0.134,0.668,0.729,0.471,0.909c-0.19,0.182-1.609,1.574-1.814,1.771
		c-0.477,0.483-0.435,0.776-0.416,1.008c0.005,0.063,0.349,2.632,0.349,2.632c0.152,1.258-0.839,0.666-0.839,0.666l-2.2-1.175
		c-0.688-0.396-0.965-0.279-1.378-0.106c-0.608,0.245-2.023,0.884-2.023,0.884c-1.053,0.506-0.89-0.316-0.829-0.662
		C36.336,200.733,36.656,198.778,36.863,198.022"/>
</g>
</svg>
