<?xml version="1.0" encoding="utf-8"?>
<!-- Generator: Adobe Illustrator 16.0.0, SVG Export Plug-In . SVG Version: 6.00 Build 0)  -->
<!DOCTYPE svg PUBLIC "-//W3C//DTD SVG 1.1//EN" "http://www.w3.org/Graphics/SVG/1.1/DTD/svg11.dtd">
<svg version="1.1" id="Layer_1" xmlns="http://www.w3.org/2000/svg" xmlns:xlink="http://www.w3.org/1999/xlink" x="0px" y="0px"
	 width="306.639px" height="332.81px" viewBox="0 0 306.639 332.81" enable-background="new 0 0 306.639 332.81"
	 xml:space="preserve">
<g>
	<path fill="#F27024" d="M216.258,307.202c0,0,5.285-1.158,5.41-1.197c0.47-0.119,1.086-0.257,1.685-1.54
		c0.243-0.534,1.97-4.332,2.187-4.815c0.221-0.528,1.048-1.899,2.124,0.262c0,0,1.814,3.613,2.093,4.154
		c0.061,0.12,0.575,1.611,2.347,1.567l5.138,0.04c0,0,3.091-0.016,1.133,1.964c-1.896,1.929-3.323,3.604-3.791,4.133
		c-0.483,0.568-0.771,1.515-0.499,2.354c0.133,0.401,1.112,4.062,1.318,4.946c0,0,0.902,2.783-1.941,1.459
		c0,0-4.905-2.116-4.989-2.162c-0.069-0.039-0.976-0.478-2.063,0.293c-1.341,0.955-4.948,2.983-4.185,2.547
		c-0.634,0.355-2.139,1.279-1.896-1.158c0,0,0.244-3.227,0.298-4.592c0.043-0.95,0.081-1.564-1.204-2.639l-3.891-3.495
		C215.529,309.322,213.672,307.801,216.258,307.202"/>
	<path fill="#F27024" d="M195.591,268.651c0,0,8.229-1.878,8.425-1.939c0.734-0.197,1.69-0.41,2.6-2.426
		c0.378-0.843,3.018-6.8,3.349-7.543c0.334-0.836,1.604-2.97,3.32,0.387c0,0,2.885,5.602,3.321,6.441
		c0.093,0.194,0.918,2.516,3.685,2.429l8.006-0.026c0,0,4.822-0.063,1.803,3.07c-2.939,3.028-5.149,5.643-5.858,6.491
		c-0.749,0.884-1.186,2.358-0.736,3.679c0.195,0.617,1.784,6.313,2.105,7.686c0,0,1.449,4.337-3.01,2.312
		c0,0-7.667-3.242-7.798-3.311c-0.122-0.055-1.536-0.725-3.223,0.487c-2.067,1.502-7.669,4.719-6.503,4.026
		c-0.971,0.57-3.319,2.022-2.976-1.782c0,0,0.349-5.03,0.399-7.181c0.062-1.47,0.113-2.429-1.901-4.079l-6.11-5.407
		C194.488,271.965,191.569,269.621,195.591,268.651"/>
	<path fill="#FAAE1B" d="M5.689,276.91c0,0,0.783,0.343,0.479-0.524c0,0-0.478-1.494-0.487-1.524c-0.013-0.022-0.11-0.3,0.143-0.591
		c0.114-0.127,0.747-0.985,0.867-1.149c0.124-0.176,0.436-0.59-0.282-0.591c0,0-0.948-0.017-1.353-0.042
		c-0.275-0.015-0.461-0.023-0.736-0.429l-0.906-1.236c0,0-0.388-0.59-0.64,0.148c0,0-0.492,1.511-0.507,1.552
		c-0.049,0.131-0.106,0.306-0.495,0.441c-0.17,0.059-1.327,0.452-1.479,0.501c-0.157,0.051-0.584,0.251,0.019,0.63
		c0,0,1.006,0.638,1.154,0.731c0.035,0.019,0.452,0.215,0.39,0.729l-0.142,1.501c0,0-0.093,0.899,0.545,0.389
		c0.621-0.498,1.15-0.869,1.318-0.987c0.175-0.121,0.464-0.182,0.704-0.077C4.391,276.431,5.436,276.822,5.689,276.91"/>
	<path fill="#F27024" d="M47.06,304.325c-0.226-0.459,0-0.782,0.021-0.813c0.021-0.027,1.147-1.767,1.147-1.767
		c0.679-1.008-0.44-0.838-0.44-0.838c-0.354,0.021-1.815,0.167-1.975,0.188c-0.344,0.052-0.687-0.119-0.871-0.34
		c-0.179-0.21-0.726-0.861-1.34-1.715c-0.639-0.872-0.834,0.315-0.834,0.315l-0.333,1.962c-0.099,0.681-0.699,0.784-0.751,0.801
		c-0.224,0.069-1.724,0.535-1.724,0.535c-0.896,0.277-0.423,0.681-0.239,0.8c0.176,0.107,1.52,1.014,1.709,1.141
		c0.453,0.314,0.462,0.551,0.484,0.738c0.006,0.055,0.113,2.153,0.113,2.153c0.068,1.026,0.767,0.412,0.767,0.412l1.58-1.27
		c0.494-0.42,0.732-0.368,1.086-0.293c0.521,0.106,1.745,0.407,1.745,0.407c0.916,0.244,0.663-0.387,0.563-0.653
		C47.887,306.408,47.337,304.896,47.06,304.325"/>
	<path fill="#F27024" d="M242.885,219.128c0.274,0.996-0.287,1.542-0.334,1.585c-0.053,0.049-2.905,3.062-2.905,3.062
		c-1.71,1.727,0.552,1.807,0.552,1.807c0.702,0.084,3.635,0.337,3.957,0.351c0.693,0.023,1.307,0.484,1.588,0.987
		c0.265,0.479,1.1,1.963,2.001,3.864c0.936,1.949,1.754-0.307,1.754-0.307l1.376-3.733c0.442-1.307,1.667-1.292,1.775-1.304
		c0.463-0.05,3.576-0.423,3.576-0.423c1.867-0.211,1.093-1.179,0.766-1.48c-0.302-0.28-2.608-2.551-2.936-2.872
		c-0.783-0.779-0.711-1.255-0.68-1.633c0.006-0.105,0.565-4.271,0.565-4.271c0.243-2.043-1.357-1.087-1.357-1.087l-3.577,1.908
		c-1.118,0.648-1.564,0.461-2.241,0.181c-0.985-0.405-3.278-1.44-3.278-1.44c-1.715-0.82-1.439,0.515-1.351,1.073
		C242.024,214.73,242.543,217.9,242.885,219.128"/>
	<path fill="#FAAE1B" d="M149.57,275.287c-0.797-1.629-0.006-2.746,0.062-2.842c0.079-0.1,4.022-6.212,4.022-6.212
		c2.391-3.53-1.535-2.933-1.535-2.933c-1.238,0.078-6.367,0.583-6.93,0.666c-1.204,0.183-2.409-0.422-3.062-1.19
		c-0.614-0.744-2.527-3.028-4.694-6.016c-2.236-3.065-2.921,1.091-2.921,1.091l-1.169,6.882c-0.343,2.393-2.459,2.767-2.643,2.819
		c-0.778,0.237-6.03,1.871-6.03,1.871c-3.151,0.976-1.503,2.394-0.838,2.802c0.604,0.388,5.315,3.559,5.983,4.009
		c1.599,1.093,1.633,1.939,1.695,2.596c0.026,0.186,0.403,7.547,0.403,7.547c0.239,3.598,2.688,1.438,2.688,1.438l5.552-4.439
		c1.729-1.485,2.551-1.303,3.81-1.036c1.83,0.378,6.116,1.427,6.116,1.427c3.214,0.86,2.316-1.352,1.98-2.287
		C152.467,282.593,150.555,277.291,149.57,275.287"/>
	<path fill="#FAAE1B" d="M164.521,323.596c0.067-0.822,0.639-1.075,0.688-1.098c0.052-0.021,3.027-1.493,3.027-1.493
		c1.76-0.824,0.084-1.51,0.084-1.51c-0.505-0.257-2.632-1.257-2.871-1.357c-0.514-0.21-0.846-0.729-0.921-1.181
		c-0.067-0.435-0.285-1.777-0.435-3.454c-0.161-1.724-1.4-0.255-1.4-0.255l-2.064,2.422c-0.691,0.858-1.61,0.51-1.695,0.488
		c-0.36-0.089-2.798-0.677-2.798-0.677c-1.464-0.354-1.148,0.586-0.985,0.903c0.148,0.291,1.254,2.636,1.408,2.966
		c0.371,0.804,0.186,1.142,0.059,1.415c-0.033,0.078-1.606,3.051-1.606,3.051c-0.746,1.465,0.72,1.19,0.72,1.19l3.21-0.441
		c1.024-0.178,1.304,0.085,1.735,0.485c0.627,0.575,2.062,1.987,2.062,1.987c1.061,1.089,1.225,0.013,1.312-0.433
		C163.947,327.137,164.436,324.612,164.521,323.596"/>
	<path fill="#F27024" d="M103.26,275.125c0.226,0.462,0,0.786-0.02,0.811c-0.022,0.03-1.148,1.773-1.148,1.773
		c-0.681,1.009,0.44,0.837,0.44,0.837c0.356-0.021,1.817-0.166,1.975-0.19c0.346-0.052,0.69,0.119,0.875,0.342
		c0.172,0.212,0.717,0.864,1.339,1.713c0.637,0.873,0.831-0.312,0.831-0.312l0.333-1.963c0.099-0.678,0.704-0.789,0.751-0.803
		c0.224-0.068,1.72-0.536,1.72-0.536c0.899-0.271,0.429-0.679,0.239-0.794c-0.173-0.112-1.514-1.015-1.708-1.146
		c-0.452-0.311-0.46-0.552-0.479-0.735c-0.01-0.056-0.116-2.154-0.116-2.154c-0.068-1.027-0.77-0.411-0.77-0.411l-1.582,1.27
		c-0.492,0.42-0.726,0.368-1.085,0.292c-0.52-0.107-1.739-0.41-1.739-0.41c-0.919-0.242-0.664,0.389-0.564,0.658
		C102.433,273.045,102.98,274.559,103.26,275.125"/>
	<path fill="#FAAE1B" d="M91.491,304.076c0.226,0.462,0,0.784-0.021,0.812c-0.021,0.029-1.147,1.772-1.147,1.772
		c-0.681,1.007,0.44,0.835,0.44,0.835c0.356-0.019,1.817-0.164,1.975-0.188c0.346-0.052,0.689,0.119,0.875,0.339
		c0.172,0.214,0.717,0.867,1.34,1.715c0.636,0.873,0.83-0.311,0.83-0.311l0.333-1.963c0.099-0.68,0.704-0.789,0.751-0.804
		c0.224-0.067,1.72-0.536,1.72-0.536c0.899-0.271,0.43-0.679,0.239-0.795c-0.173-0.112-1.514-1.014-1.708-1.144
		c-0.452-0.312-0.46-0.552-0.479-0.736c-0.009-0.055-0.115-2.153-0.115-2.153c-0.068-1.027-0.77-0.411-0.77-0.411l-1.582,1.269
		c-0.492,0.419-0.726,0.368-1.085,0.292c-0.52-0.106-1.739-0.41-1.739-0.41c-0.918-0.242-0.664,0.39-0.564,0.658
		C90.665,301.996,91.212,303.508,91.491,304.076"/>
	<path fill="#F27024" d="M137.828,295.88c0.515-0.006,0.695-0.353,0.71-0.384c0.017-0.033,1.058-1.825,1.058-1.825
		c0.592-1.068,0.943,0.01,0.943,0.01c0.141,0.327,0.678,1.69,0.73,1.845c0.108,0.329,0.42,0.56,0.7,0.619
		c0.268,0.064,1.097,0.253,2.138,0.416c1.064,0.174,0.102,0.882,0.102,0.882l-1.6,1.191c-0.563,0.399-0.383,0.982-0.372,1.036
		c0.038,0.229,0.303,1.775,0.303,1.775c0.166,0.925-0.409,0.688-0.602,0.574c-0.176-0.104-1.589-0.89-1.793-1.003
		c-0.485-0.259-0.705-0.16-0.878-0.093c-0.048,0.018-1.967,0.875-1.967,0.875c-0.945,0.408-0.716-0.495-0.716-0.495l0.41-1.985
		c0.15-0.629,0-0.814-0.229-1.098c-0.338-0.417-1.158-1.37-1.158-1.37c-0.637-0.706,0.042-0.765,0.326-0.797
		C135.598,296.091,137.191,295.892,137.828,295.88"/>
	<path fill="#FAAE1B" d="M74.308,253.56c0.518-0.006,0.698-0.35,0.715-0.381c0.014-0.034,1.056-1.828,1.056-1.828
		c0.584-1.064,0.942,0.007,0.942,0.007c0.141,0.326,0.675,1.697,0.729,1.849c0.111,0.331,0.42,0.558,0.7,0.622
		c0.269,0.059,1.097,0.253,2.138,0.415c1.067,0.17,0.098,0.881,0.098,0.881l-1.594,1.191c-0.562,0.395-0.386,0.982-0.373,1.036
		c0.04,0.229,0.306,1.774,0.306,1.774c0.164,0.924-0.406,0.685-0.602,0.572c-0.179-0.103-1.592-0.887-1.797-1.001
		c-0.481-0.263-0.7-0.162-0.879-0.091c-0.047,0.018-1.966,0.875-1.966,0.875c-0.945,0.404-0.717-0.498-0.717-0.498l0.411-1.985
		c0.152-0.628,0-0.814-0.229-1.098c-0.339-0.412-1.156-1.368-1.156-1.368c-0.639-0.704,0.041-0.765,0.324-0.801
		C72.076,253.771,73.671,253.572,74.308,253.56"/>
	<path fill="#FAAE1B" d="M187.534,312.359c0.451,0.928,0.002,1.564-0.04,1.62c-0.043,0.056-2.289,3.547-2.289,3.547
		c-1.369,2.012,0.872,1.672,0.872,1.672c0.705-0.045,3.634-0.337,3.953-0.381c0.687-0.106,1.372,0.236,1.744,0.678
		c0.352,0.422,1.441,1.727,2.674,3.431c1.279,1.746,1.671-0.623,1.671-0.623l0.664-3.926c0.198-1.362,1.403-1.575,1.508-1.605
		c0.445-0.137,3.437-1.071,3.437-1.071c1.798-0.549,0.857-1.359,0.48-1.593c-0.347-0.226-3.032-2.029-3.415-2.282
		c-0.911-0.627-0.929-1.112-0.965-1.485c-0.015-0.103-0.23-4.303-0.23-4.303c-0.136-2.052-1.53-0.822-1.53-0.822l-3.169,2.533
		c-0.978,0.844-1.451,0.739-2.168,0.592c-1.043-0.221-3.488-0.814-3.488-0.814c-1.832-0.495-1.323,0.771-1.129,1.303
		C185.88,308.195,186.973,311.217,187.534,312.359"/>
	<path fill="#F27024" d="M165.36,243.316c-0.226-0.465,0-0.782,0.018-0.81c0.022-0.029,1.147-1.771,1.147-1.771
		c0.683-1.005-0.437-0.837-0.437-0.837c-0.357,0.023-1.817,0.167-1.975,0.19c-0.347,0.053-0.689-0.118-0.874-0.341
		c-0.176-0.21-0.724-0.865-1.343-1.711c-0.633-0.875-0.831,0.307-0.831,0.307l-0.332,1.966c-0.102,0.679-0.701,0.781-0.753,0.803
		c-0.224,0.067-1.722,0.532-1.722,0.532c-0.896,0.274-0.425,0.681-0.235,0.799c0.174,0.111,1.513,1.013,1.705,1.146
		c0.454,0.31,0.463,0.55,0.482,0.736c0.007,0.053,0.118,2.152,0.118,2.152c0.064,1.026,0.761,0.413,0.761,0.413l1.588-1.271
		c0.489-0.419,0.726-0.365,1.084-0.296c0.519,0.112,1.742,0.408,1.742,0.408c0.916,0.247,0.664-0.382,0.564-0.652
		C166.188,245.398,165.637,243.889,165.36,243.316"/>
	<path fill="#F27024" d="M112.606,329.786c0.358,0.312,0.989,0.342,1.872,0.093c2.056-0.61,5.973-1.772,6.111-1.804
		c0.581-0.142,1.228-0.298,2.459,0.603c0.598,0.442,4.393,3.261,4.872,3.63c0.152,0.124,0.949,0.721,1.551,0.417
		c0.444-0.228,0.648-0.885,0.604-1.954c0,0-0.172-4.636-0.203-5.326c-0.121-1.27,0.393-2.245,1.444-2.799l5.147-2.864
		c0.059-0.029,1.365-0.757,1.448-1.559c0.029-0.274-0.083-0.52-0.331-0.734c-0.235-0.204-0.602-0.379-1.088-0.525
		c-2.854-0.848-5.134-1.687-5.992-2.006l-0.108-0.041c-0.286-0.105-0.573-0.277-0.828-0.499c-0.482-0.414-0.807-0.954-0.913-1.521
		c-0.092-0.463-1.134-4.693-1.424-5.708c-0.006-0.03-0.192-0.982-0.712-1.429c-0.208-0.181-0.44-0.254-0.69-0.228
		c-0.462,0.054-0.98,0.466-1.544,1.229c-0.383,0.497-3.76,4.859-3.821,4.951c-0.021,0.038-0.666,0.974-2.139,0.804
		c-0.301-0.033-4.584-0.29-5.637-0.226v-0.015c-0.639-0.007-1.575-0.016-1.872,0.543c-0.216,0.407-0.047,1.008,0.521,1.835
		c0.021,0.031,2.047,3.127,2.855,4.462c0.551,0.908,0.909,1.498,0.238,3.227l-1.975,5.67
		C112.435,328.057,111.969,329.239,112.606,329.786"/>
	<path fill="#F27024" d="M288.598,298.056c-0.136-0.498,0.145-0.773,0.17-0.796c0.025-0.02,1.452-1.531,1.452-1.531
		c0.856-0.862-0.277-0.902-0.277-0.902c-0.352-0.042-1.816-0.17-1.977-0.175c-0.35-0.011-0.654-0.243-0.797-0.496
		c-0.133-0.24-0.55-0.979-1.002-1.93c-0.464-0.978-0.875,0.153-0.875,0.153l-0.687,1.868c-0.224,0.652-0.835,0.646-0.891,0.652
		c-0.229,0.024-1.787,0.206-1.787,0.206c-0.935,0.109-0.544,0.594-0.38,0.742c0.151,0.141,1.303,1.274,1.468,1.437
		c0.391,0.393,0.353,0.627,0.336,0.816c0,0.052-0.279,2.139-0.279,2.139c-0.125,1.021,0.676,0.543,0.676,0.543l1.789-0.956
		c0.563-0.324,0.782-0.228,1.121-0.09c0.492,0.204,1.64,0.72,1.64,0.72c0.855,0.409,0.719-0.255,0.675-0.54
		C289.028,300.252,288.771,298.669,288.598,298.056"/>
	<path fill="#FAAE1B" d="M280.7,272.283c0.507,0.084,0.75-0.221,0.771-0.248c0.02-0.03,1.374-1.599,1.374-1.599
		c0.773-0.944,0.926,0.179,0.926,0.179c0.077,0.348,0.356,1.793,0.378,1.95c0.048,0.343,0.309,0.626,0.574,0.74
		c0.253,0.107,1.032,0.448,2.021,0.801c1.018,0.361-0.062,0.885-0.062,0.885l-1.791,0.875c-0.621,0.288-0.552,0.894-0.555,0.95
		c-0.001,0.231-0.024,1.8-0.024,1.8c-0.011,0.94-0.532,0.599-0.7,0.455c-0.153-0.138-1.4-1.164-1.578-1.313
		c-0.429-0.348-0.662-0.288-0.845-0.255c-0.053,0.008-2.097,0.499-2.097,0.499c-1.003,0.229-0.609-0.62-0.609-0.62l0.768-1.875
		c0.263-0.589,0.144-0.798-0.028-1.125c-0.253-0.466-0.885-1.557-0.885-1.557c-0.495-0.805,0.187-0.74,0.466-0.724
		C278.466,272.081,280.07,272.177,280.7,272.283"/>
	<path fill="#FAAE1B" d="M259.509,259.483c0.271,0.996-0.289,1.541-0.336,1.587c-0.053,0.046-2.902,3.062-2.902,3.062
		c-1.713,1.729,0.548,1.81,0.548,1.81c0.708,0.081,3.633,0.335,3.959,0.35c0.691,0.022,1.307,0.484,1.588,0.989
		c0.267,0.477,1.1,1.956,2.003,3.86c0.935,1.949,1.749-0.305,1.749-0.305l1.377-3.735c0.445-1.303,1.67-1.29,1.777-1.303
		c0.465-0.051,3.575-0.42,3.575-0.42c1.87-0.212,1.094-1.183,0.764-1.48c-0.299-0.285-2.605-2.553-2.934-2.874
		c-0.781-0.784-0.71-1.258-0.676-1.633c0.002-0.104,0.564-4.272,0.564-4.272c0.24-2.04-1.359-1.088-1.359-1.088l-3.577,1.907
		c-1.115,0.649-1.563,0.462-2.242,0.186c-0.984-0.408-3.278-1.446-3.278-1.446c-1.709-0.82-1.441,0.517-1.348,1.077
		C258.649,255.085,259.167,258.255,259.509,259.483"/>
	<path fill="#F27024" d="M304.7,246.979c-0.137-0.492,0.144-0.768,0.168-0.79c0.025-0.025,1.45-1.531,1.45-1.531
		c0.856-0.863-0.278-0.9-0.278-0.9c-0.351-0.048-1.813-0.172-1.974-0.181c-0.347-0.009-0.655-0.24-0.797-0.493
		c-0.133-0.238-0.549-0.979-1.001-1.928c-0.465-0.978-0.874,0.152-0.874,0.152l-0.687,1.864c-0.224,0.654-0.835,0.646-0.89,0.654
		c-0.23,0.024-1.79,0.206-1.79,0.206c-0.934,0.109-0.542,0.591-0.381,0.744c0.15,0.139,1.303,1.272,1.469,1.433
		c0.388,0.396,0.353,0.633,0.34,0.818c-0.005,0.053-0.284,2.135-0.284,2.135c-0.124,1.024,0.679,0.545,0.679,0.545l1.786-0.953
		c0.563-0.324,0.784-0.23,1.121-0.091c0.493,0.203,1.64,0.723,1.64,0.723c0.857,0.406,0.724-0.258,0.675-0.541
		C305.13,249.181,304.869,247.594,304.7,246.979"/>
	<path fill="#FAAE1B" d="M276.718,233.181c-0.14-0.498,0.144-0.769,0.169-0.793c0.024-0.027,1.45-1.527,1.45-1.527
		c0.854-0.865-0.275-0.903-0.275-0.903c-0.354-0.047-1.817-0.172-1.979-0.18c-0.347-0.012-0.652-0.243-0.794-0.494
		c-0.133-0.24-0.55-0.982-1.002-1.931c-0.469-0.976-0.875,0.15-0.875,0.15l-0.688,1.872c-0.222,0.649-0.835,0.643-0.89,0.649
		c-0.231,0.024-1.789,0.21-1.789,0.21c-0.932,0.109-0.542,0.592-0.383,0.738c0.155,0.147,1.308,1.278,1.473,1.438
		c0.387,0.394,0.354,0.631,0.338,0.818c-0.004,0.053-0.283,2.137-0.283,2.137c-0.123,1.021,0.682,0.54,0.682,0.54l1.785-0.953
		c0.56-0.321,0.784-0.228,1.119-0.086c0.493,0.199,1.642,0.716,1.642,0.716c0.854,0.412,0.722-0.256,0.673-0.537
		C277.146,235.382,276.886,233.796,276.718,233.181"/>
	<path fill="#F27024" d="M167.128,293.531c0.431,0,0.896-0.41,0.916-0.429c0.505-0.375,2.5-1.982,2.698-2.158
		c0.269-0.239,0.649-0.377,1.047-0.377c0.155,0,0.313,0.021,0.45,0.063c0.58,0.18,1.946,0.598,3.577,1.22
		c0.261,0.098,0.483,0.147,0.661,0.147c0.229,0,0.396-0.079,0.496-0.234c0.271-0.411-0.068-1.209-0.109-1.298l-1.383-3.175
		c-0.287-0.62-0.182-1.241,0.294-1.757c0.284-0.336,2.021-2.445,2.021-2.445c0.41-0.494,0.553-0.887,0.421-1.169
		c-0.168-0.359-0.719-0.387-0.882-0.387h-0.01c-0.586,0-3.209-0.036-3.595-0.042c-0.879-0.02-1.117-0.314-1.309-0.552
		c-0.089-0.106-1.644-2.236-2.234-3.051c-0.322-0.429-0.629-0.646-0.913-0.646c-0.548,0-0.77,0.78-0.778,0.811l-1.099,3.349
		c-0.3,1.033-0.65,1.17-1.231,1.396c-0.873,0.342-2.937,1.069-2.937,1.069c-0.576,0.188-0.879,0.421-0.925,0.705
		c-0.065,0.395,0.39,0.733,0.661,0.937l0.024-0.013c0.478,0.451,2.711,1.927,2.736,1.941c0.731,0.437,0.695,1.076,0.693,1.102
		c-0.006,0.064,0.014,3.079,0.019,3.684c-0.01,0.563,0.082,0.939,0.283,1.142C166.83,293.476,166.968,293.531,167.128,293.531"/>
	<path fill="#FAAE1B" d="M230.802,318.569c1.763,3.62,3.321,7.392,4.745,11.313c0,0.001,0,0.002,0,0.003c2.478,0,29.771,0,59.775,0
		l0,0l0,0l0,0c-7.051-7.89-12.555-14.316-15.132-18.378c-31.617-49.818-64.875-113.638-85.619-160.538
		c-4.651-10.507-12.749-30.649-17.37-45.335c-0.389-1.357-0.822-2.781-1.292-4.258c-0.002-0.014-0.009-0.029-0.011-0.041
		c-0.002-0.007-0.008-0.017-0.008-0.02c-5.678-17.839-16.692-43.008-19.129-45.03l4.008-38.567
		c-1.619,0.769-3.454,1.221-5.419,1.155c-1.534-0.048-2.979-0.391-4.266-0.956l1.876,36.711c-0.02-0.011-0.037-0.005-0.057-0.012
		c-0.031,0.292-0.104,0.583-0.226,0.857c-3.435-0.529-28.57,6.534-27.886,16.46c-1.403-0.779-2.381-1.658-3.002-2.592
		c-2.668,3.532-5.772,7.676-9.198,12.243c-1.066,0.067-21.264,3.095-22.176,5.278c1.253,4.328,2.981,10.348,5.253,16.198
		c-0.715,3.443-21.541,30.044-30.534,42.13c-3.348,0.127-8.481,0.501-9.55,1.578c-2.049,2.062-1.251,9.06-0.812,11.984
		c-11.356,17.557-7.443,33.487,4.486,37.468c0.762,0.266,2.415,0.918,3.206,1.01c5.469,2.192,35.537-11.105,24.824-37.494
		c13.146,14.396,11.619,31.826-9.385,41.897c-0.105,3.073,14.427-1.597,19.325-11.133c4.623-8.533,5.289-16.708,2.871-23.862
		c9.08-5.647,29.245-15.041,47.888-24.114C176.282,206.867,218.201,292.703,230.802,318.569z"/>
	<g>
		<defs>
			<path id="SVGID_1_" d="M155.351,18.873c-1.534-0.047-2.98-0.391-4.268-0.957l1.877,36.712c-0.019-0.012-0.036-0.005-0.056-0.013
				c-0.031,0.293-0.103,0.582-0.227,0.858c-3.434-0.53-28.569,6.534-27.885,16.46c-1.403-0.777-2.381-1.658-3.004-2.592
				c-2.666,3.533-5.77,7.676-9.195,12.243c-1.068,0.068-21.264,3.094-22.18,5.277c1.258,4.33,2.984,10.349,5.256,16.198
				c-0.714,3.445-21.538,30.045-30.533,42.131c-3.349,0.128-8.483,0.502-9.551,1.577c-2.049,2.063-1.252,9.059-0.811,11.985
				c-11.357,17.557-7.445,33.488,4.485,37.468c0.761,0.266,2.415,0.918,3.208,1.01c5.467,2.193,35.535-11.106,24.821-37.494
				c13.147,14.396,11.62,31.824-9.386,41.897c-0.103,3.072,14.428-1.598,19.327-11.133c4.623-8.533,5.289-16.707,2.871-23.861
				c9.08-5.648,29.245-15.042,47.888-24.115c28.292,64.342,70.211,150.178,82.812,176.044c1.558,3.199,2.958,6.515,4.25,9.947
				h59.051c-6.459-7.26-11.484-13.186-13.911-17.01c-31.62-49.819-64.875-113.638-85.62-160.538
				c-4.651-10.508-12.749-30.649-17.37-45.335c-0.389-1.356-0.82-2.781-1.292-4.257c-0.002-0.014-0.009-0.029-0.011-0.042
				c-0.001-0.008-0.008-0.017-0.008-0.02c-5.68-17.84-16.692-43.007-19.128-45.03l4.007-38.568
				C159.149,18.487,157.315,18.938,155.351,18.873"/>
		</defs>
		<clipPath id="SVGID_2_">
			<use xlink:href="#SVGID_1_"  overflow="visible"/>
		</clipPath>
		<path clip-path="url(#SVGID_2_)" fill="#F27024" d="M189.195,182.285c0,0,8.188-2.063,8.386-2.132
			c0.72-0.214,1.677-0.451,2.535-2.492c0.36-0.848,2.874-6.855,3.178-7.623c0.318-0.833,1.536-3.003,3.329,0.329
			c0,0,3.009,5.53,3.469,6.361c0.096,0.185,0.976,2.49,3.731,2.334l8.012-0.206c0,0,4.828-0.168,1.864,3.028
			c-2.865,3.104-5.006,5.764-5.704,6.628c-0.729,0.897-1.134,2.381-0.659,3.694c0.227,0.611,1.93,6.268,2.284,7.644
			c0,0,1.551,4.293-2.947,2.368c0,0-7.753-3.061-7.886-3.137c-0.109-0.048-1.55-0.691-3.201,0.563
			c-2.037,1.558-7.566,4.903-6.399,4.17c-0.965,0.598-3.282,2.109-3.023-1.707c0,0,0.229-5.043,0.238-7.186
			c0.029-1.479,0.052-2.433-2-4.041l-6.232-5.27C188.169,185.612,185.205,183.348,189.195,182.285"/>
		<path clip-path="url(#SVGID_2_)" fill="#F27024" d="M155.933,176.87c0,0,3.435-4.999,3.501-5.13
			c0.291-0.464,0.682-1.038,0.188-2.548c-0.211-0.625-1.715-5.047-1.913-5.604c-0.224-0.601-0.604-2.354,1.942-1.415
			c0,0,4.246,1.56,4.892,1.783c0.135,0.061,1.704,0.871,3.124-0.513l4.205-3.919c0,0,2.519-2.382,2.441,0.743
			c-0.07,3.028,0.042,5.475,0.073,6.28c0.039,0.823,0.524,1.816,1.401,2.3c0.412,0.223,4.015,2.456,4.863,3.024
			c0,0,2.867,1.573-0.469,2.674c0,0-5.623,2.032-5.723,2.059c-0.095,0.025-1.165,0.362-1.459,1.824
			c-0.353,1.802-1.748,6.223-1.467,5.283c-0.235,0.776-0.76,2.688-2.432,0.518c0,0-2.276-2.822-3.289-3.992
			c-0.686-0.797-1.129-1.325-2.996-1.216l-5.849,0.128C156.968,179.149,154.291,179.333,155.933,176.87"/>
		<path clip-path="url(#SVGID_2_)" fill="#F27024" d="M174.327,130.936c0,0,5.04-1.279,5.161-1.321
			c0.442-0.132,1.023-0.276,1.563-1.533c0.216-0.527,1.754-4.228,1.946-4.694c0.19-0.517,0.938-1.857,2.049,0.188
			c0,0,1.856,3.408,2.141,3.921c0.057,0.111,0.599,1.527,2.306,1.429l4.923-0.133c0,0,2.967-0.108,1.154,1.86
			c-1.767,1.911-3.075,3.553-3.508,4.081c-0.445,0.559-0.693,1.473-0.397,2.279c0.135,0.378,1.194,3.854,1.412,4.7
			c0,0,0.959,2.647-1.812,1.466c0,0-4.773-1.877-4.856-1.92c-0.07-0.038-0.957-0.427-1.974,0.347
			c-1.25,0.958-4.643,3.02-3.938,2.577c-0.592,0.369-2.016,1.294-1.859-1.049c0,0,0.138-3.108,0.143-4.422
			c0.008-0.91,0.024-1.503-1.238-2.492l-3.845-3.233C173.698,132.986,171.868,131.59,174.327,130.936"/>
		<path clip-path="url(#SVGID_2_)" fill="#F27024" d="M195.588,268.656c0,0,8.23-1.878,8.426-1.939
			c0.734-0.197,1.69-0.41,2.601-2.426c0.377-0.843,3.017-6.8,3.348-7.543c0.333-0.836,1.604-2.97,3.319,0.388
			c0,0,2.885,5.601,3.321,6.44c0.094,0.194,0.919,2.516,3.685,2.429l8.006-0.027c0,0,4.822-0.062,1.803,3.071
			c-2.938,3.028-5.147,5.643-5.858,6.491c-0.749,0.884-1.186,2.358-0.735,3.679c0.194,0.617,1.784,6.313,2.104,7.686
			c0,0,1.449,4.336-3.01,2.312c0,0-7.667-3.242-7.798-3.311c-0.12-0.055-1.535-0.725-3.222,0.487
			c-2.068,1.502-7.669,4.719-6.504,4.026c-0.97,0.57-3.319,2.022-2.974-1.782c0,0,0.347-5.03,0.397-7.181
			c0.063-1.47,0.114-2.429-1.901-4.079l-6.111-5.407C194.484,271.97,191.566,269.626,195.588,268.656"/>
		<path clip-path="url(#SVGID_2_)" fill="#F27024" d="M243.893,286.771c0,0,8.249-1.8,8.446-1.866
			c0.73-0.189,1.688-0.399,2.627-2.412c0.384-0.838,3.071-6.762,3.405-7.517c0.341-0.814,1.627-2.958,3.314,0.424
			c0,0,2.829,5.626,3.259,6.466c0.093,0.192,0.905,2.524,3.671,2.462l8.006,0.046c0,0,4.831-0.019,1.777,3.08
			c-2.968,3.006-5.191,5.602-5.918,6.435c-0.754,0.885-1.205,2.351-0.769,3.682c0.198,0.619,1.732,6.32,2.042,7.716
			c0,0,2.316,6.704-1.581,3.747c0,0-9.087-4.786-9.22-4.848c-0.118-0.062-1.528-0.744-3.226,0.447
			c-2.069,1.502-7.702,4.667-6.526,3.983c-0.982,0.552-3.344,1.99-2.964-1.813c0,0,0.386-5.031,0.465-7.166
			c0.07-1.487,0.132-2.444-1.875-4.115l-6.07-5.452C242.757,290.069,239.86,287.705,243.893,286.771"/>
		<path clip-path="url(#SVGID_2_)" fill="#F27024" d="M189.201,223.955c0,0,3.623,0.169,3.711,0.172
			c0.326,0.002,0.743,0.016,1.361-0.714c0.247-0.3,2.017-2.457,2.245-2.736c0.235-0.301,1.004-1.05,1.33,0.55
			c0,0,0.55,2.648,0.632,3.043c0.017,0.09,0.095,1.144,1.246,1.425l3.318,0.907c0,0,2.001,0.534,0.394,1.481
			c-1.565,0.919-2.777,1.74-3.17,2.008c-0.408,0.284-0.762,0.844-0.73,1.439c0.011,0.278,0.021,2.821-0.007,3.431
			c0,0,0.107,1.957-1.505,0.605c0,0-2.812-2.217-2.854-2.261c-0.046-0.041-0.553-0.488-1.39-0.173
			c-1.025,0.386-3.714,1.072-3.151,0.918c-0.468,0.133-1.601,0.461-1.029-1.075c0,0,0.721-2.039,0.991-2.925
			c0.19-0.605,0.325-0.993-0.317-1.907l-1.913-2.938C188.363,225.205,187.426,223.898,189.201,223.955"/>
		<path clip-path="url(#SVGID_2_)" fill="#F27024" d="M216.258,307.202c0,0,5.285-1.158,5.41-1.197
			c0.47-0.119,1.086-0.257,1.685-1.54c0.243-0.534,1.97-4.332,2.187-4.815c0.221-0.528,1.048-1.899,2.124,0.262
			c0,0,1.814,3.613,2.093,4.154c0.061,0.12,0.575,1.611,2.347,1.567l5.138,0.04c0,0,3.091-0.016,1.133,1.964
			c-1.896,1.929-3.323,3.604-3.791,4.133c-0.483,0.568-0.771,1.515-0.499,2.354c0.133,0.401,1.112,4.062,1.318,4.946
			c0,0,0.902,2.783-1.941,1.459c0,0-4.905-2.116-4.989-2.162c-0.069-0.039-0.976-0.478-2.063,0.293
			c-1.341,0.955-4.948,2.983-4.185,2.547c-0.634,0.355-2.139,1.279-1.896-1.158c0,0,0.244-3.227,0.298-4.592
			c0.043-0.95,0.081-1.564-1.204-2.639l-3.891-3.495C215.529,309.322,213.672,307.801,216.258,307.202"/>
		<path clip-path="url(#SVGID_2_)" fill="#F27024" d="M274.337,318.789c0,0,4.544-0.009,4.65-0.019
			c0.408-0.015,0.933-0.008,1.656-0.961c0.292-0.4,2.393-3.209,2.654-3.565c0.267-0.397,1.194-1.369,1.695,0.605
			c0,0,0.846,3.282,0.981,3.77c0.023,0.113,0.174,1.43,1.637,1.712l4.207,0.939c0,0,2.541,0.542,0.58,1.82
			c-1.908,1.238-3.366,2.351-3.837,2.711c-0.511,0.378-0.914,1.101-0.838,1.844c0.035,0.347,0.192,3.523,0.198,4.291
			c0,0,0.248,2.444-1.851,0.846c0,0-3.646-2.609-3.71-2.658c-0.052-0.055-0.713-0.563-1.742-0.127
			c-1.262,0.55-4.589,1.569-3.887,1.337c-0.58,0.187-1.986,0.674-1.354-1.286c0,0,0.776-2.598,1.065-3.716
			c0.207-0.772,0.35-1.266-0.518-2.375l-2.56-3.565C273.366,320.392,272.112,318.823,274.337,318.789"/>
		<path clip-path="url(#SVGID_2_)" fill="#F27024" d="M213.886,226.041c0,0,5.296-1.157,5.421-1.197
			c0.467-0.125,1.084-0.259,1.679-1.538c0.25-0.54,1.974-4.339,2.183-4.825c0.224-0.527,1.044-1.898,2.131,0.27
			c0,0,1.813,3.607,2.097,4.154c0.054,0.119,0.565,1.607,2.344,1.571l5.137,0.03c0,0,3.091-0.017,1.13,1.968
			c-1.898,1.932-3.318,3.597-3.789,4.132c-0.482,0.565-0.775,1.51-0.489,2.362c0.128,0.388,1.11,4.051,1.31,4.94
			c0,0,0.904,2.782-1.945,1.454c0,0-4.896-2.118-4.987-2.158c-0.064-0.046-0.969-0.477-2.062,0.288
			c-1.337,0.958-4.942,2.988-4.18,2.555c-0.633,0.356-2.146,1.275-1.901-1.159c0,0,0.243-3.231,0.292-4.603
			c0.043-0.948,0.083-1.563-1.194-2.631l-3.889-3.495C213.171,228.159,211.309,226.643,213.886,226.041"/>
		<path clip-path="url(#SVGID_2_)" fill="#F27024" d="M235.556,251.837c0,0,5.103-1.81,5.22-1.865
			c0.451-0.184,1.046-0.387,1.471-1.745c0.182-0.557,1.412-4.554,1.566-5.058c0.15-0.549,0.803-2.011,2.147,0
			c0,0,2.25,3.352,2.593,3.862c0.076,0.101,0.779,1.519,2.532,1.258l5.091-0.619c0,0,3.07-0.397,1.376,1.814
			c-1.639,2.156-2.85,3.987-3.235,4.568c-0.411,0.63-0.582,1.598-0.194,2.407c0.174,0.377,1.615,3.882,1.926,4.746
			c0,0,1.246,2.643-1.739,1.688c0,0-5.133-1.486-5.229-1.528c-0.075-0.021-1.03-0.342-2.009,0.554
			c-1.207,1.116-4.526,3.583-3.831,3.06c-0.577,0.429-1.97,1.535-2.028-0.902c0,0-0.167-3.243-0.287-4.614
			c-0.073-0.938-0.116-1.551-1.521-2.455l-4.295-2.981C235.108,254.025,233.071,252.754,235.556,251.837"/>
	</g>
	<path fill="#FFFFFF" d="M138.845,117.684c-7.757,0.292-14.294-5.746-14.591-13.491c-0.296-7.765,5.74-14.294,13.49-14.593
		c7.756-0.301,14.287,5.749,14.587,13.503C152.631,110.848,146.593,117.376,138.845,117.684"/>
	<path fill="#FFFFFF" d="M87.282,159.743c17.276,19.268,4.953,34.7-7.383,40.938l-11.703-3.979
		C78.359,193.56,95.837,180.832,87.282,159.743"/>
	<path fill="#FFFFFF" d="M109.299,89.605c7.761-0.298,14.284,5.743,14.589,13.491c0.303,7.753-5.755,14.279-13.491,14.585
		c-7.757,0.298-14.286-5.737-14.586-13.494C95.502,96.437,101.545,89.903,109.299,89.605"/>
	<path fill="#7B3218" d="M152.668,55.438c-3.439-0.532-28.564,6.533-27.879,16.456c-1.414-0.775-2.344-1.669-2.964-2.603
		c-0.013,0.022-0.025,0.033-0.034,0.05c-3.462-5.17,3.876-12.047,8.052-13.935c-9.777-5.034-12.967,6.961-12.967,6.961
		c-4.81-9.358-5.19-24.993,2.489-25.742c7.38-0.715,34.34,10.68,33.539,17.99c-0.008,0.004-0.015,0.004-0.016,0
		C152.851,54.898,152.786,55.171,152.668,55.438"/>
	<path fill="#FAAE1B" d="M68.096,159.444c1.15,0.054,2.194-2.25,2.347-5.167c0.15-2.911-0.659-5.319-1.801-5.377
		c-1.151-0.051-2.188,2.246-2.345,5.163C66.148,156.975,66.953,159.382,68.096,159.444"/>
	<path fill="#FAAE1B" d="M57.721,160.452c1.145,0.062,2.191-2.25,2.347-5.162c0.147-2.905-0.66-5.319-1.805-5.384
		c-1.144-0.053-2.187,2.263-2.338,5.171C55.768,157.988,56.576,160.394,57.721,160.452"/>
	<path fill="#FAAE1B" d="M152.68,55.475c-3.438-0.529-28.572,6.533-27.886,16.459c-1.403-0.778-2.384-1.659-3.004-2.591
		c0.01-0.016,0.021-0.029,0.036-0.05c0.619,0.932,1.547,1.82,2.964,2.601c-0.688-9.923,24.438-16.986,27.878-16.456
		c0.119-0.268,0.188-0.542,0.221-0.822c0.002,0.004,0.007,0.005,0.017,0C152.874,54.909,152.801,55.198,152.68,55.475"/>
	<path fill="#7B3218" d="M124.961,21.805c-1.494,1.512-3.464,2.676-5.774,3.182c-0.775,0.174-1.539,0.247-2.286,0.264
		c-4.867,0.124-9.145-2.782-10.06-7.198c-1.066-5.099,2.734-10.264,8.481-11.537c5.756-1.271,11.27,1.836,12.337,6.949
		C128.303,16.502,127.176,19.562,124.961,21.805"/>
	<path fill="#7B3218" d="M151.085,17.916c-3.673-1.588-6.149-4.965-5.979-8.819c0.223-5.2,5.181-9.271,11.062-9.091
		c5.89,0.19,10.482,4.563,10.257,9.779c-0.15,3.463-2.423,6.396-5.654,7.932c-1.619,0.771-3.455,1.218-5.419,1.155
		C153.816,18.824,152.371,18.482,151.085,17.916"/>
	<path fill="#F27024" d="M62.321,61.296c1.904-3.569,48.492-7.76,55.749,3.332C111.864,75.334,91.207,78.088,62.321,61.296"/>
	<path fill="#FAAE1B" d="M124.961,21.805l6.331,17.422c-2.791-1.008-5.429-1.782-7.65-2.236L116.9,25.25
		c0.747-0.017,1.511-0.09,2.286-0.264C121.497,24.48,123.467,23.316,124.961,21.805"/>
	<path fill="#F27024" d="M163.056,62.373c7.894-11.579,59.226-7.628,61.364-3.945C192.742,76.108,169.98,73.428,163.056,62.373"/>
	<path fill="#7B3218" d="M68.096,159.444c-1.143-0.063-1.947-2.47-1.799-5.381c0.158-2.918,1.193-5.214,2.345-5.163
		c1.142,0.058,1.951,2.466,1.801,5.377C70.29,157.194,69.246,159.498,68.096,159.444"/>
	<path fill="#7B3218" d="M57.721,160.452c-1.147-0.061-1.953-2.464-1.796-5.375c0.151-2.908,1.194-5.224,2.338-5.171
		c1.145,0.064,1.952,2.479,1.805,5.384C59.917,158.202,58.865,160.514,57.721,160.452"/>
	<path fill="#7B3218" d="M145.696,85.273c-2.317-0.313-9.308-0.017-11.291,0.511c-1.524,0.401-2.429-3.922-1.587-4.074
		C133.657,81.566,143.359,83.335,145.696,85.273"/>
	<path fill="#7B3218" d="M96.006,87.402c3.546-0.182,9.813-1.032,11.024-2.055c1.207-1.021,0.498-3.736,0.498-3.736
		C105.939,82.819,95.497,86.645,96.006,87.402"/>
	<path fill="#FFFFFF" d="M97.488,110.317c3.688,6.828,12.21,9.373,19.036,5.684c6.827-3.69,9.367-12.212,5.681-19.04
		c-3.689-6.824-12.21-9.369-19.038-5.677C96.342,94.971,93.799,103.493,97.488,110.317"/>
	<path fill="#7B3218" d="M105.012,106.254c1.442,2.668,4.773,3.664,7.445,2.221c2.669-1.443,3.663-4.776,2.222-7.446
		c-1.442-2.668-4.773-3.661-7.445-2.217C104.563,100.254,103.569,103.585,105.012,106.254"/>
	<path fill="#FFFFFF" d="M125.934,110.317c3.688,6.828,12.21,9.373,19.035,5.683c6.828-3.691,9.368-12.211,5.68-19.037
		c-3.687-6.824-12.21-9.371-19.035-5.678C124.787,94.972,122.245,103.494,125.934,110.317"/>
	<path fill="#7B3218" d="M133.456,106.254c1.443,2.669,4.774,3.662,7.445,2.221c2.669-1.442,3.663-4.774,2.222-7.446
		c-1.443-2.669-4.774-3.663-7.445-2.219C133.008,100.249,132.014,103.587,133.456,106.254"/>
	<path fill="#FAAE1C" d="M80.684,200.709l-13.186-4.423l-0.668,0.313c13.941,4.648,14.018,4.592,13.209,4.592
		C79.879,201.19,80.684,200.709,80.684,200.709"/>
</g>
</svg>
