<?xml version="1.0" encoding="utf-8"?>
<!-- Generator: Adobe Illustrator 16.0.0, SVG Export Plug-In . SVG Version: 6.00 Build 0)  -->
<!DOCTYPE svg PUBLIC "-//W3C//DTD SVG 1.1//EN" "http://www.w3.org/Graphics/SVG/1.1/DTD/svg11.dtd">
<svg version="1.1" id="Layer_1" xmlns="http://www.w3.org/2000/svg" xmlns:xlink="http://www.w3.org/1999/xlink" x="0px" y="0px"
	 width="234px" height="270.423px" viewBox="0 0 234 270.423" enable-background="new 0 0 234 270.423" xml:space="preserve">
<path fill="#75C044" d="M181.367,215.594c3.169,1.989,4.584,6.391,2.22,10.157c-2.364,3.767-8.646,5.867-11.903,2.84
	c-3.341-3.108-4.3-7.295-1.936-11.063C172.111,213.762,177.601,213.229,181.367,215.594"/>
<path fill="#7A62AA" d="M214.28,225.39c4.312,2.707,6.237,8.694,3.021,13.819c-3.217,5.125-11.765,7.984-16.195,3.863
	c-4.547-4.228-5.853-9.926-2.637-15.051C201.687,222.897,209.156,222.173,214.28,225.39"/>
<path fill="#F37024" d="M183.078,180.443c-1.952-2.505-6.057-2.188-8.563-0.237c-2.504,1.951-2.459,4.799-0.509,7.303
	c1.952,2.507,5.189,3.431,7.873,1.733C186.685,186.202,185.028,182.949,183.078,180.443"/>
<path fill="#2BACE2" d="M66.908,18.724c7.258-7.621,15.213-6.79,20.829,1.964c2.246-3.811,5.213-6.536,9.709-7.1
	c4.553-0.571,7.879,1.596,11.108,5.104c0-4.453,0.083-8.521-0.042-12.581c-0.045-1.525-1.334-1.878-2.811-0.87
	c-1.853,1.264-3.67,2.58-5.477,3.908c-1.188,0.872-2.248,0.962-3.696,0.312C90.699,6.846,84.77,6.79,78.944,9.506
	c-1.35,0.63-2.374,0.519-3.501-0.297c-1.818-1.315-3.627-2.649-5.523-3.841c-0.614-0.386-1.594-0.642-2.21-0.416
	c-0.438,0.16-0.755,1.219-0.767,1.883C66.873,10.633,66.908,14.432,66.908,18.724"/>
<path fill="#2BACE2" d="M64.458,73.435c0.389-0.025,6.278-4.568,7.198-11.306c0.742,1.114,1.251,1.928,1.81,2.706
	c3.596,5.017,8.42,8.694,13.427,12.145c0.446,0.308,1.603,0.136,2.081-0.249c3.063-2.453,6.121-4.928,8.994-7.596
	c2.144-1.991,3.693-5.271,5.47-7.2c1.6,6.398,7.05,11.466,7.433,11.533c1.129-1.513,9.811-19.39,3.852-28.862
	c-2.219-3.528-4.187-6.279-4.184-9.963c0.003-3.122-0.12-6.316-0.78-9.35c-1.087-5.001-4.923-8.174-9.695-8.665
	c-4.288-0.44-8.373,2.015-10.695,6.436c-0.443,0.84-0.864,1.691-1.537,3.013c-0.616-1.037-1.049-1.667-1.384-2.346
	c-2.522-5.115-6.708-7.707-11.39-7.023c-5.259,0.767-8.943,4.574-9.761,10.256c-0.276,1.918-0.256,4.29-0.554,9.169
	c-0.317,5.186-0.876,3.639-4.167,10.133C55.413,56.457,63.725,71.957,64.458,73.435 M85.78,35.355
	c1.22-0.327,2.644-0.303,3.889-0.03c1.864,0.406,2.329,1.782,1.382,3.401c-0.853,1.46-1.915,2.799-3.282,4.764
	c-1.353-1.926-2.461-3.303-3.343-4.811C83.509,37.116,84.152,35.792,85.78,35.355"/>
<path fill="#FFFFFF" d="M99.058,25.941c-1.353-0.035-2.545,1.118-2.568,2.483c-0.024,1.374,1.117,2.527,2.504,2.53
	c1.377,0.004,2.405-1.003,2.45-2.402C101.492,27.1,100.467,25.979,99.058,25.941"/>
<path fill="#FFFFFF" d="M73.33,28.589c0,1.393,1.104,2.474,2.512,2.46c1.402-0.012,2.491-1.113,2.476-2.505
	c-0.015-1.37-1.174-2.518-2.52-2.494C74.413,26.073,73.329,27.189,73.33,28.589"/>
<polygon fill="#F37024" points="0.001,59.459 0.155,59.464 50.651,61.025 82.247,63.439 121.959,74.409 127.883,69.582 
	131.174,70.46 127.665,74.409 150.282,74.409 152.558,77.801 119.106,77.801 119.765,83.624 128.542,89.548 126.348,91.915 
	118.288,86.478 112.745,77.7 79.811,69.363 60.388,68.704 61.842,75.922 68.392,80.552 68.392,82.309 58.77,77.042 49.555,67.827 
	0,69.254 0,69.254 0,69.254 0,69.254 0,69.254 0,69.254 "/>
<path fill="#2BACE2" d="M66.908,18.724c7.258-7.621,15.213-6.79,20.829,1.964c2.246-3.811,5.213-6.536,9.709-7.1
	c4.553-0.571,7.879,1.596,11.108,5.104c0-4.453,0.083-8.521-0.042-12.581c-0.045-1.525-1.334-1.878-2.811-0.87
	c-1.853,1.264-3.67,2.58-5.477,3.908c-1.188,0.872-2.248,0.962-3.696,0.312C90.699,6.846,84.77,6.79,78.944,9.506
	c-1.35,0.63-2.374,0.519-3.501-0.297c-1.818-1.315-3.627-2.649-5.523-3.841c-0.614-0.386-1.594-0.642-2.21-0.416
	c-0.438,0.16-0.755,1.219-0.767,1.883C66.873,10.633,66.908,14.432,66.908,18.724"/>
<path fill="#2BACE2" d="M73.466,64.835c3.596,5.017,8.42,8.694,13.427,12.145c0.446,0.308,1.603,0.136,2.081-0.249
	c3.063-2.453,6.121-4.928,8.994-7.596c2.144-1.991,3.693-5.271,5.47-7.2c1.6,6.398,7.05,11.466,7.433,11.533
	c1.129-1.513,9.811-19.39,3.852-28.862c-2.219-3.528-4.187-6.279-4.184-9.963c0.003-3.122-0.12-6.316-0.78-9.35
	c-1.087-5.001-4.923-8.174-9.695-8.665c-4.288-0.44-8.373,2.015-10.695,6.436c-0.443,0.84-0.864,1.691-1.537,3.013
	c-0.616-1.037-1.049-1.667-1.384-2.346c-2.522-5.115-6.708-7.707-11.39-7.023c-5.259,0.767-8.943,4.574-9.761,10.256
	c-0.276,1.918-0.256,4.29-0.554,9.169C64.426,41.317,72.908,64.057,73.466,64.835 M85.78,35.355c1.22-0.327,2.644-0.303,3.889-0.03
	c1.864,0.406,2.329,1.782,1.382,3.401c-0.853,1.46-1.915,2.799-3.282,4.764c-1.353-1.926-2.461-3.303-3.343-4.811
	C83.509,37.116,84.152,35.792,85.78,35.355"/>
<path fill="#FFFFFF" d="M99.058,25.941c-1.353-0.035-2.545,1.118-2.568,2.483c-0.024,1.374,1.117,2.527,2.504,2.53
	c1.377,0.004,2.405-1.003,2.45-2.402C101.492,27.1,100.467,25.979,99.058,25.941"/>
<path fill="#FFFFFF" d="M73.33,28.589c0,1.393,1.104,2.474,2.512,2.46c1.402-0.012,2.491-1.113,2.476-2.505
	c-0.015-1.37-1.174-2.518-2.52-2.494C74.413,26.073,73.329,27.189,73.33,28.589"/>
<rect x="0" fill="none" width="155.237" height="94.632"/>
</svg>
