<?xml version="1.0" encoding="utf-8"?>
<!-- Generator: Adobe Illustrator 16.0.0, SVG Export Plug-In . SVG Version: 6.00 Build 0)  -->
<!DOCTYPE svg PUBLIC "-//W3C//DTD SVG 1.1//EN" "http://www.w3.org/Graphics/SVG/1.1/DTD/svg11.dtd">
<svg version="1.1" id="Layer_1" xmlns="http://www.w3.org/2000/svg" xmlns:xlink="http://www.w3.org/1999/xlink" x="0px" y="0px"
	 width="381.31px" height="449.253px" viewBox="0 0 381.31 449.253" enable-background="new 0 0 381.31 449.253"
	 xml:space="preserve">
<g>
	<polygon fill="none" stroke="#575757" stroke-miterlimit="10" points="116.142,338.278 137.183,172.926 220.876,172.926 
		240.876,338.278 	"/>
	<polygon fill="#575757" points="179.766,338.616 181.559,338.616 181.708,308.092 185.375,308.092 186.947,338.616 
		203.876,338.616 203.876,295.592 160.542,294.592 158.71,342.079 179.766,341.938 	"/>
	<path fill="#FFFFFF" d="M177.051,214.944v4.684c0,0,0.487,3.53-3.365,4.838l2.367,1.841h12.593l2.302-1.759
		c0,0-2.764-1.543-2.84-3.922c-0.077-2.381,0.154-5.682,0.154-5.682l-4.877,1.075L177.051,214.944z"/>
	<path fill="#FFFFFF" d="M177.051,214.944v4.684c0,0,0.487,3.53-3.365,4.838l2.367,1.841h12.593l2.302-1.759
		c0,0-2.764-1.543-2.84-3.922c-0.077-2.381,0.154-5.682,0.154-5.682l-4.877,1.075L177.051,214.944z"/>
	<path fill="none" stroke="#575757" stroke-miterlimit="10" d="M177.051,214.944v4.684c0,0,0.487,3.53-3.365,4.838l2.367,1.841
		h12.593l2.302-1.759c0,0-2.764-1.543-2.84-3.922c-0.077-2.381,0.154-5.682,0.154-5.682l-4.877,1.075L177.051,214.944z"/>
	<path fill="#FFFFFF" d="M194.609,184.724c0,0,4.688,5.216,2.658,11.924h-5.197l-3.354-7.918L194.609,184.724z"/>
	<path fill="#575757" d="M194.609,184.724c0,0,4.688,5.216,2.658,11.924h-5.197l-3.354-7.918L194.609,184.724z"/>
	<path fill="#FFFFFF" d="M183.898,218.309c0,0-10.22-0.746-11.299-10.873c-1.079-10.125-0.548-14.44,5.909-15.022
		c0,0,11.713,0.592,13.67-1.917c0,0,2.663,2.581,2.414,8.64C194.344,205.197,195.612,217.065,183.898,218.309"/>
	<path fill="none" stroke="#575757" stroke-miterlimit="10" d="M183.898,218.309c0,0-10.22-0.746-11.299-10.873
		c-1.079-10.125-0.548-14.44,5.909-15.022c0,0,11.713,0.592,13.67-1.917c0,0,2.663,2.581,2.414,8.64
		C194.344,205.197,195.612,217.065,183.898,218.309z"/>
	<ellipse fill="none" stroke="#575757" stroke-miterlimit="10" cx="180.319" cy="201.231" rx="2.739" ry="3.172"/>
	<path fill="#FFFFFF" d="M208.984,201.227c0,2.503-2.583,4.551-5.739,4.551h-16.437c-3.157,0-5.739-2.048-5.739-4.551
		s2.582-4.551,5.739-4.551h16.437C206.401,196.676,208.984,198.724,208.984,201.227"/>
	<path fill="none" stroke="#575757" stroke-miterlimit="10" d="M208.984,201.227c0,2.503-2.583,4.551-5.739,4.551h-16.437
		c-3.157,0-5.739-2.048-5.739-4.551s2.582-4.551,5.739-4.551h16.437C206.401,196.676,208.984,198.724,208.984,201.227z"/>
	<path fill="none" stroke="#575757" stroke-miterlimit="10" d="M253.3,345.14c0,2.2-1.8,4-4,4H110.425c-2.2,0-4-1.8-4-4v-2.862
		c0-2.199,1.8-4,4-4H249.3c2.2,0,4,1.801,4,4V345.14z"/>
	<path fill="#E0E0DE" d="M115.477,349.14l7.921,65.219c0,8.193,6.703,14.896,14.895,14.896h82.913
		c8.192,0,14.895-6.703,14.895-14.896l7.468-65.219H115.477z"/>
	<path fill="none" stroke="#575757" stroke-miterlimit="10" d="M115.477,349.14l7.921,65.219c0,8.193,6.703,14.896,14.895,14.896
		h82.913c8.192,0,14.895-6.703,14.895-14.896l7.468-65.219H115.477z"/>
	<path fill="#FFFFFF" d="M140.562,365.895h-6.753c-3.673,1.371-6.295,4.896-6.295,9.046c0,5.34,4.329,9.668,9.669,9.668
		c5.34,0,9.668-4.328,9.668-9.668C146.851,370.792,144.232,367.266,140.562,365.895"/>
	<path fill="#FFFFFF" d="M182.953,365.788h-6.32l0.01,0.045c-3.754,1.328-6.45,4.899-6.45,9.108c0,5.341,4.329,9.668,9.669,9.668
		s9.668-4.327,9.668-9.668C189.53,370.684,186.775,367.078,182.953,365.788"/>
	<path fill="#FFFFFF" d="M226.5,365.895h-6.754c-3.672,1.371-6.294,4.896-6.294,9.046c0,5.34,4.329,9.668,9.669,9.668
		c5.34,0,9.668-4.328,9.668-9.668C232.789,370.792,230.169,367.266,226.5,365.895"/>
	<path fill="#80C0E9" d="M141.134,365.965h-5.794c-3.151,1.359-5.4,4.858-5.4,8.979c0,5.3,3.714,9.595,8.295,9.595
		s8.295-4.295,8.295-9.595C146.53,370.826,144.283,367.326,141.134,365.965"/>
	<path fill="#F89842" d="M183.692,366.015h-5.61l0.009,0.04c-3.332,1.178-5.725,4.348-5.725,8.085c0,4.74,3.842,8.581,8.583,8.581
		c4.739,0,8.581-3.841,8.581-8.581C189.53,370.361,187.084,367.161,183.692,366.015"/>
	<path fill="#AED252" d="M227.245,366.066h-5.954c-3.236,1.208-5.547,4.314-5.547,7.974c0,4.707,3.815,8.521,8.522,8.521
		s8.522-3.814,8.522-8.521C232.788,370.381,230.479,367.274,227.245,366.066"/>
	<path fill="none" stroke="#575757" stroke-miterlimit="10" d="M115.805,351.845c0,0,4.424,13.139,20.492,14.044
		s21.726-11.77,22.178-15.616c0,0,4.99,14.545,20.142,15.662c14.711,1.085,21.501-9.101,22.632-16.795
		c0,0,3.865,17.107,20.612,16.795c16.747-0.312,19.474-9.146,21.27-12.97"/>
	<polygon fill="#FFFFFF" points="133.719,359.207 133.719,364.755 133.898,365.544 140.236,365.544 141.502,359.207 	"/>
	<path fill="#FFFFFF" d="M183.713,365.091c-0.275-0.102-0.554-0.197-0.841-0.278l1.309-5.606h-7.378v5.885H183.713z"/>
	<path fill="#FFFFFF" d="M226.276,364.653c-0.05-0.015-0.095-0.037-0.146-0.051l1.31-5.396h-7.282v5.885h6.118V364.653z"/>
	<path fill="none" stroke="#575757" stroke-miterlimit="10" d="M140.192,365.757l1.31-6.551h-9.052l1.514,6.626
		c-3.755,1.328-6.45,4.898-6.45,9.109c0,5.34,4.328,9.668,9.668,9.668s9.668-4.328,9.668-9.668
		C146.851,370.654,144.058,367.024,140.192,365.757z"/>
	<path fill="none" stroke="#575757" stroke-miterlimit="10" d="M182.872,365.757l1.31-6.551h-9.052l1.513,6.626
		c-3.754,1.328-6.45,4.898-6.45,9.109c0,5.34,4.329,9.668,9.669,9.668s9.668-4.328,9.668-9.668
		C189.53,370.654,186.736,367.024,182.872,365.757z"/>
	<path fill="#F89D70" d="M155.375,308.092h13.667l0.666-11h35.334l-2.5-52.332h27.022c0,0,12.644-3,2.978-17
		c-9.667-14-17.5-24.334-17.5-24.334l-8.667,7l10.333,17.334l-16.666-3.168l-34.334-0.166c0,0-6.5,0.5-6.833,7.334
		C158.542,238.592,155.375,308.092,155.375,308.092"/>
	<path fill="none" stroke="#575757" stroke-miterlimit="10" d="M226.13,365.757l1.31-6.551h-9.052l1.513,6.626
		c-3.754,1.328-6.45,4.898-6.45,9.109c0,5.34,4.329,9.668,9.669,9.668s9.668-4.328,9.668-9.668
		C232.788,370.654,229.994,367.024,226.13,365.757z"/>
	<path fill="#FFFFFF" d="M184.618,233.199l0.354-2.073l1.343-1.344c0.389-0.389,0.389-1.025,0-1.414l-1.77-1.771
		c-0.389-0.387-1.026-0.387-1.414,0l-1.771,1.771c-0.388,0.389-0.388,1.025,0,1.414l0.662,0.662c0.266,0.266,0.611,0.609,0.903,0.9
		l0.42,1.854l-2.19,2.03l1.791,25.994h2.109l1.673-26.272L184.618,233.199z"/>
	<path fill="none" stroke="#575757" stroke-miterlimit="10" d="M184.618,233.199l0.354-2.073l1.343-1.344
		c0.389-0.389,0.389-1.025,0-1.414l-1.77-1.771c-0.389-0.387-1.026-0.387-1.414,0l-1.771,1.771c-0.388,0.389-0.388,1.025,0,1.414
		l0.662,0.662c0.266,0.266,0.611,0.609,0.903,0.9l0.42,1.854l-2.19,2.03l1.791,25.994h2.109l1.673-26.272L184.618,233.199z"/>
	<line fill="none" stroke="#575757" stroke-miterlimit="10" x1="173.182" y1="232.259" x2="169.709" y2="297.092"/>
	<line fill="none" stroke="#575757" stroke-miterlimit="10" x1="221.542" y1="235.592" x2="216.709" y2="227.759"/>
	<ellipse fill="none" stroke="#575757" stroke-miterlimit="10" cx="205.621" cy="201.161" rx="3.364" ry="3.811"/>
	<path fill="#FFFFFF" d="M182.008,346.273c0,1.65-1.35,3-3,3h-35.612c-1.65,0-3-1.35-3-3V323.78c0-1.649,1.35-3,3-3h35.612
		c1.65,0,3,1.351,3,3V346.273z"/>
	<path fill="#FFFFFF" d="M171.445,323.589c0,0.55-0.45,1-1,1h-18.091c-0.55,0-1-0.45-1-1v-7.226c0-0.55,0.45-1,1-1h18.091
		c0.55,0,1,0.45,1,1V323.589z"/>
	<path fill="none" stroke="#575757" stroke-miterlimit="10" d="M182.008,346.273c0,1.65-1.35,3-3,3h-35.612c-1.65,0-3-1.35-3-3
		V323.78c0-1.649,1.35-3,3-3h35.612c1.65,0,3,1.351,3,3V346.273z"/>
	<path fill="none" stroke="#575757" stroke-miterlimit="10" d="M171.445,323.589c0,0.55-0.45,1-1,1h-18.091c-0.55,0-1-0.45-1-1
		v-7.226c0-0.55,0.45-1,1-1h18.091c0.55,0,1,0.45,1,1V323.589z"/>
	<path fill="#FFFFFF" d="M195.779,181.389c0,0-0.019,10.422-8.239,10.937l-7.554,2.331c0,0-4.329-0.406-3.154,8.769
		c1.175,9.174-2.283,9.817-2.283,9.817s-4.185,0.809-5.212-1.102c-1.027-1.907-4.477-11.155-4.037-15.707
		c0.441-4.55,4.478-14.826,14.167-15.046C189.155,181.169,195.779,181.389,195.779,181.389"/>
	<path fill="#575757" d="M195.779,181.389c0,0-0.019,10.422-8.239,10.937l-7.554,2.331c0,0-4.329-0.406-3.154,8.769
		c1.175,9.174-2.283,9.817-2.283,9.817s-4.185,0.809-5.212-1.102c-1.027-1.907-4.477-11.155-4.037-15.707
		c0.441-4.55,4.478-14.826,14.167-15.046C189.155,181.169,195.779,181.389,195.779,181.389"/>
	<path fill="none" stroke="#575757" stroke-miterlimit="10" d="M182.394,212.915c0,0,2.362,1.328,4.335,0"/>
	<path fill="none" stroke="#575757" stroke-miterlimit="10" d="M183.898,207.271c0,0,0.403,1.328,1.731,1.577
		c1.329,0.249,1.744-1.411,1.827-3.071"/>
	<path fill="none" stroke="#575757" stroke-miterlimit="10" d="M206.717,210.149c0,0-1.66-0.012-2.642-0.667
		c-0.981-0.655-6.807-4.517-6.807-4.517s1.701-0.994,2.618-0.563c0.917,0.433,3.928,1.375,3.928,1.375s3.142-0.484,3.927-0.746
		c0.786-0.262,1.898-4.124,1.244-5.825c-0.655-1.703-3.731-3.077-3.731-3.077h-5.433c0,0-0.983-2.422,0.327-3.011
		c1.309-0.589,2.509,0.583,3.164,1.434c0,0-0.035-0.736,0.974-1.512c0.468-0.359,1.244-0.365,1.879,0.152
		c1.665,1.355,6.42,6.472,7.271,7.257c0.85,0.786,1.772,1.894,1.606,2.976S206.717,210.149,206.717,210.149z"/>
	<line fill="none" stroke="#575757" stroke-miterlimit="10" x1="204.354" y1="196.129" x2="203.134" y2="194.332"/>
	<path fill="none" stroke="#9C9C9D" stroke-miterlimit="10" d="M6.458,0.61c0,0,14.068,57.247,58.979,89.171
		c44.912,31.925,67.637,72.139,67.096,83.145h88.342c0,0,16.089-36.069,45.309-62.042c29.22-25.973,67.636-51.727,81.164-110.274
		H6.458z"/>
	<path fill="none" stroke="#9C9C9D" stroke-miterlimit="10" d="M68.144,0.61c0,0,3.247,34.521,18.938,58.329
		c15.692,23.808,60.603,84.584,60.062,113.987h18.119c0,0-0.263-26.329-15.413-80.44c-15.151-54.109-15.692-91.985-15.692-91.985
		L68.144,0.61z"/>
	<path fill="none" stroke="#9C9C9D" stroke-miterlimit="10" d="M286.095,0.61c0,0-3.246,34.521-18.937,58.329
		c-15.692,23.808-60.604,84.584-60.063,113.987h-18.117c0,0,0.262-26.329,15.412-80.44c15.15-54.109,15.691-91.985,15.691-91.985
		L286.095,0.61z"/>
	<path fill="#FFFFFF" d="M155.966,308.092l-0.591,6.769c0,0,0.088,2.18,1.513,2.348c1.426,0.168,1.821-1.51,1.821-1.51
		s-0.381,2.499,0.915,2.669c1.297,0.17,1.71-1.243,1.71-1.243s-0.167,2.026,1.132,2.132c0.905,0.074,1.096-0.139,1.978-1.17
		c0,0,0.633,1.196,1.848,1.184c0.497-0.005,0.997-0.294,1.331-1.475c0.666-2.352,1.419-9.703,1.419-9.703H155.966z"/>
	<path fill="none" stroke="#575757" stroke-miterlimit="10" d="M155.375,308.092h13.667l0.666-11h35.334l-2.5-52.332h27.022
		c0,0,12.644-3,2.978-17c-9.667-14-17.5-24.334-17.5-24.334l-8.667,7l10.333,17.334l-16.666-3.168l-34.334-0.166
		c0,0-6.5,0.5-6.833,7.334C158.542,238.592,155.375,308.092,155.375,308.092z"/>
	<path fill="none" stroke="#575757" stroke-miterlimit="10" d="M155.966,308.092l-0.591,6.769c0,0,0.088,2.18,1.513,2.348
		c1.426,0.168,1.821-1.51,1.821-1.51s-0.381,2.499,0.915,2.669c1.297,0.17,1.71-1.243,1.71-1.243s-0.167,2.026,1.132,2.132
		c0.905,0.074,1.096-0.139,1.978-1.17c0,0,0.633,1.196,1.848,1.184c0.497-0.005,0.997-0.294,1.331-1.475
		c0.666-2.352,1.419-9.703,1.419-9.703H155.966z"/>
	<line fill="none" stroke="#575757" stroke-miterlimit="10" x1="158.709" y1="310.76" x2="158.594" y2="316.037"/>
	<line fill="none" stroke="#575757" stroke-miterlimit="10" x1="165.077" y1="311.887" x2="164.444" y2="317.911"/>
	<line fill="none" stroke="#575757" stroke-miterlimit="10" x1="161.872" y1="311.465" x2="161.333" y2="317.125"/>
	<path fill="#FFFFFF" d="M199.337,201.161c0,2.104-1.506,3.811-3.363,3.811c-1.858,0-3.364-1.707-3.364-3.811s1.506-3.81,3.364-3.81
		C197.831,197.351,199.337,199.057,199.337,201.161"/>
	<ellipse fill="none" stroke="#575757" stroke-miterlimit="10" cx="195.973" cy="201.161" rx="3.364" ry="3.811"/>
	<path fill="#9C9C9D" d="M275.61,230.052h28.072c0.199,0,0.362-0.163,0.362-0.362v-0.613c0-0.199-0.163-0.362-0.362-0.362H275.61
		c-0.199,0-0.362,0.163-0.362,0.362v0.613C275.248,229.889,275.411,230.052,275.61,230.052"/>
	<path fill="#9C9C9D" d="M263.662,222.463h16.637c0.199,0,0.362-0.163,0.362-0.361v-0.615c0-0.198-0.163-0.361-0.362-0.361h-16.637
		c-0.199,0-0.362,0.163-0.362,0.361v0.615C263.3,222.3,263.463,222.463,263.662,222.463"/>
	<path fill="#9C9C9D" d="M282.671,222.463h5.202c0.2,0,0.363-0.163,0.363-0.361v-0.615c0-0.198-0.163-0.361-0.363-0.361h-5.202
		c-0.199,0-0.362,0.163-0.362,0.361v0.615C282.309,222.3,282.472,222.463,282.671,222.463"/>
	<path fill="#9C9C9D" d="M51.817,359.614h28.072c0.199,0,0.362-0.163,0.362-0.362v-0.613c0-0.199-0.163-0.362-0.362-0.362H51.817
		c-0.199,0-0.362,0.163-0.362,0.362v0.613C51.455,359.451,51.618,359.614,51.817,359.614"/>
	<path fill="#9C9C9D" d="M39.869,352.025h16.637c0.199,0,0.362-0.163,0.362-0.362v-0.613c0-0.199-0.163-0.362-0.362-0.362H39.869
		c-0.199,0-0.362,0.163-0.362,0.362v0.613C39.507,351.862,39.67,352.025,39.869,352.025"/>
	<path fill="#9C9C9D" d="M58.878,352.025h5.202c0.2,0,0.362-0.163,0.362-0.362v-0.613c0-0.199-0.162-0.362-0.362-0.362h-5.202
		c-0.199,0-0.362,0.163-0.362,0.362v0.613C58.516,351.862,58.679,352.025,58.878,352.025"/>
	<circle fill="none" stroke="#9C9C9D" stroke-miterlimit="10" cx="55.765" cy="319.664" r="4.114"/>
	<circle fill="none" stroke="#9C9C9D" stroke-miterlimit="10" cx="103.725" cy="264.952" r="5.334"/>
	<circle fill="none" stroke="#9C9C9D" stroke-miterlimit="10" cx="269.015" cy="317.912" r="2.559"/>
	<line fill="none" stroke="#F68D52" stroke-miterlimit="10" x1="249.417" y1="271.922" x2="257.184" y2="271.922"/>
	<line fill="none" stroke="#F68D52" stroke-miterlimit="10" x1="253.3" y1="275.805" x2="253.3" y2="268.039"/>
	<line fill="none" stroke="#F68D52" stroke-miterlimit="10" x1="90.624" y1="323.777" x2="98.391" y2="323.777"/>
	<line fill="none" stroke="#F68D52" stroke-miterlimit="10" x1="94.507" y1="327.661" x2="94.507" y2="319.893"/>
	<path fill="#9C9C9D" d="M364.157,286.244v-0.022h-0.116h-0.74h-24.68c-0.251-5.555-4.834-9.998-10.447-9.998
		c-0.863,0-1.707,0.117-2.529,0.32c-0.147-1.279-0.528-2.488-1.096-3.586c-0.012-0.023-0.021-0.046-0.033-0.068
		c-0.117-0.222-0.246-0.435-0.377-0.646c-0.041-0.064-0.078-0.131-0.119-0.195c-0.123-0.188-0.254-0.367-0.387-0.545
		c-0.062-0.082-0.121-0.166-0.185-0.246c-0.128-0.162-0.263-0.316-0.399-0.471c-0.08-0.089-0.16-0.179-0.242-0.266
		c-0.133-0.139-0.272-0.273-0.414-0.404c-0.055-0.052-0.105-0.109-0.162-0.16v0.012c-1.854-1.666-4.299-2.689-6.982-2.689
		c-5.365,0-9.796,4.059-10.396,9.266c-0.822-0.203-1.666-0.32-2.529-0.32c-5.613,0-10.196,4.443-10.447,9.998h-1.957h-7.579h-0.061
		c-0.549,0-1,0.449-1,1c0,0.549,0.451,1,1,1h0.061h7.579h3.88v-1.526h0.053c0-4.671,3.8-8.472,8.471-8.472
		c0.927,0,1.824,0.158,2.668,0.438c0-0.001,0.001-0.009,0.001-0.009s0.735,0.265,1.228,0.106c0.08-0.041,0.332-0.19,0.446-0.488
		c0.104-0.279,0.146-0.596,0.153-0.838c0-0.002,0.003-0.004,0.003-0.008c0.004-0.078,0.019-0.384,0.026-0.552
		c0.442-4.258,4.028-7.595,8.4-7.595c2.896,0,5.454,1.462,6.982,3.686v0.041c0.764,1.127,1.27,2.443,1.418,3.868
		c0.008,0.168,0.022,0.474,0.027,0.552c0,0.004,0.002,0.006,0.002,0.008c0.008,0.242,0.049,0.559,0.153,0.838
		c0.115,0.298,0.366,0.447,0.446,0.488c0.492,0.158,1.228-0.106,1.228-0.106s0.001,0.008,0.001,0.009
		c0.842-0.279,1.741-0.438,2.668-0.438c4.672,0,8.471,3.801,8.471,8.472h0.054v1.526h26.603h0.74h0.116v-0.024
		c0.493-0.06,0.884-0.468,0.884-0.976C365.041,286.711,364.65,286.303,364.157,286.244"/>
	<path fill="#9C9C9D" d="M380.31,286.22h-0.741c-0.027,0-0.049,0.013-0.076,0.015v-0.015h-11.273h-0.029h-0.711c-0.551,0-1,0.45-1,1
		s0.449,1,1,1h0.711h0.029h11.273v-0.017c0.027,0.003,0.049,0.017,0.076,0.017h0.741c0.55,0,1-0.45,1-1
		S380.859,286.22,380.31,286.22"/>
	<path fill="#9C9C9D" d="M13.691,287.061v-0.019h0.093h0.591h19.7c0.2-4.432,3.858-7.979,8.339-7.979
		c0.688,0,1.362,0.093,2.019,0.257c0.117-1.022,0.421-1.987,0.875-2.863c0.009-0.019,0.017-0.037,0.026-0.055
		c0.093-0.177,0.196-0.347,0.301-0.517c0.032-0.052,0.062-0.104,0.095-0.156c0.097-0.148,0.203-0.293,0.31-0.436
		c0.048-0.064,0.095-0.131,0.146-0.195c0.102-0.129,0.21-0.252,0.32-0.375c0.064-0.071,0.127-0.143,0.193-0.213
		c0.106-0.111,0.217-0.218,0.329-0.322c0.044-0.041,0.085-0.086,0.13-0.127v0.009c1.481-1.33,3.431-2.147,5.573-2.147
		c4.284,0,7.82,3.24,8.299,7.397c0.657-0.164,1.331-0.257,2.019-0.257c4.481,0,8.139,3.548,8.339,7.979h1.563H79h0.049
		c0.439,0,0.798,0.359,0.798,0.798c0,0.44-0.359,0.799-0.798,0.799H79h-6.049h-3.097v-1.218h-0.043c0-3.728-3.033-6.762-6.762-6.762
		c-0.74,0-1.457,0.126-2.129,0.349l-0.001-0.007c0,0-0.587,0.212-0.981,0.084c-0.064-0.032-0.264-0.151-0.355-0.388
		c-0.084-0.223-0.116-0.477-0.122-0.67c0-0.002-0.003-0.004-0.003-0.006c-0.003-0.063-0.015-0.307-0.022-0.44
		c-0.352-3.399-3.214-6.062-6.705-6.062c-2.311,0-4.353,1.166-5.573,2.939v0.034c-0.609,0.899-1.013,1.951-1.131,3.088
		c-0.007,0.134-0.019,0.378-0.022,0.44c0,0.002-0.002,0.004-0.003,0.006c-0.006,0.193-0.038,0.447-0.122,0.67
		c-0.091,0.236-0.291,0.355-0.355,0.388c-0.394,0.128-0.98-0.084-0.98-0.084l-0.001,0.007c-0.673-0.223-1.39-0.349-2.13-0.349
		c-3.729,0-6.762,3.034-6.762,6.762H35.61v1.218H14.375h-0.591h-0.093v-0.019c-0.394-0.048-0.706-0.373-0.706-0.78
		C12.985,287.434,13.297,287.11,13.691,287.061"/>
	<path fill="#9C9C9D" d="M0.798,287.043h0.591c0.022,0,0.04,0.01,0.061,0.012v-0.012h8.999h0.024h0.567
		c0.439,0,0.799,0.358,0.799,0.797c0,0.439-0.36,0.799-0.799,0.799h-0.567h-0.024H1.45v-0.012c-0.021,0-0.039,0.012-0.061,0.012
		H0.798C0.359,288.639,0,288.28,0,287.84C0,287.402,0.359,287.043,0.798,287.043"/>
	<line fill="none" stroke="#9C9C9D" stroke-miterlimit="10" x1="109.588" y1="440.772" x2="160.567" y2="440.772"/>
	<line fill="none" stroke="#9C9C9D" stroke-miterlimit="10" x1="141.041" y1="449.253" x2="194.492" y2="449.253"/>
	<line fill="none" stroke="#9C9C9D" stroke-miterlimit="10" x1="167.169" y1="440.772" x2="213.406" y2="440.772"/>
	<line fill="none" stroke="#9C9C9D" stroke-miterlimit="10" x1="220.165" y1="440.772" x2="229.334" y2="440.772"/>
	<line fill="none" stroke="#9C9C9D" stroke-miterlimit="10" x1="125.359" y1="449.253" x2="134.528" y2="449.253"/>
	<line fill="none" stroke="#9C9C9D" stroke-miterlimit="10" x1="201.604" y1="449.253" x2="224.75" y2="449.253"/>
	<line fill="none" stroke="#9C9C9D" stroke-miterlimit="10" x1="233.918" y1="440.772" x2="252.806" y2="440.772"/>
</g>
</svg>
