<?xml version="1.0" encoding="utf-8"?>
<!-- Generator: Adobe Illustrator 16.0.0, SVG Export Plug-In . SVG Version: 6.00 Build 0)  -->
<!DOCTYPE svg PUBLIC "-//W3C//DTD SVG 1.1//EN" "http://www.w3.org/Graphics/SVG/1.1/DTD/svg11.dtd">
<svg version="1.1" id="Layer_1" xmlns="http://www.w3.org/2000/svg" xmlns:xlink="http://www.w3.org/1999/xlink" x="0px" y="0px"
	 width="24.645px" height="29.207px" viewBox="0 0 24.645 29.207" enable-background="new 0 0 24.645 29.207" xml:space="preserve">
<g opacity="0.7">
	<g>
		<defs>
			<rect id="SVGID_1_" width="24.645" height="29.207"/>
		</defs>
		<clipPath id="SVGID_2_">
			<use xlink:href="#SVGID_1_"  overflow="visible"/>
		</clipPath>
		<path clip-path="url(#SVGID_2_)" fill-rule="evenodd" clip-rule="evenodd" fill="#616161" d="M6.393,15.057
			c0,0.379,0.15,0.723,0.4,0.968l4.563,4.563c0.246,0.249,0.588,0.4,0.968,0.4c0.379,0,0.718-0.151,0.967-0.4l4.562-4.563
			c0.25-0.245,0.403-0.589,0.403-0.968c0-0.753-0.61-1.368-1.369-1.368c-0.378,0-0.722,0.152-0.967,0.401l-2.228,2.229V1.367
			c0-0.753-0.61-1.368-1.368-1.368c-0.759,0-1.368,0.615-1.368,1.368v14.951L8.727,14.09c-0.25-0.249-0.589-0.401-0.967-0.401
			C7.003,13.688,6.393,14.304,6.393,15.057 M22.816,6.39H17.8c-0.757,0-1.374,0.61-1.374,1.368c0,0.753,0.617,1.368,1.374,1.368
			h4.104v17.339H2.737V9.126h4.108c0.758,0,1.367-0.615,1.367-1.368C8.213,7,7.604,6.39,6.846,6.39H1.829
			c-1.008,0-1.828,0.819-1.828,1.822v19.167c0,1.007,0.82,1.827,1.828,1.827h20.987c1.009,0,1.828-0.82,1.828-1.827V8.212
			C24.645,7.209,23.825,6.39,22.816,6.39"/>
	</g>
</g>
</svg>
