<?xml version="1.0" encoding="utf-8"?>
<!-- Generator: Adobe Illustrator 16.0.0, SVG Export Plug-In . SVG Version: 6.00 Build 0)  -->
<!DOCTYPE svg PUBLIC "-//W3C//DTD SVG 1.1//EN" "http://www.w3.org/Graphics/SVG/1.1/DTD/svg11.dtd">
<svg version="1.1" id="Layer_1" xmlns="http://www.w3.org/2000/svg" xmlns:xlink="http://www.w3.org/1999/xlink" x="0px" y="0px"
	 width="174px" height="122px" viewBox="0 0 174 122" enable-background="new 0 0 174 122" xml:space="preserve">
<g>
	<g>
		<path fill="#F2F2F2" d="M156.933,121.525c-2.238-36.494-32.529-65.402-69.585-65.402c-37.059,0-67.349,28.908-69.586,65.402
			H156.933z"/>
	</g>
	<g>
		<path fill="#575757" d="M158.648,122H16.813c-0.227,0-0.41-0.184-0.41-0.41c0-0.225,0.184-0.408,0.41-0.408h141.836
			c0.225,0,0.409,0.184,0.409,0.408C159.058,121.816,158.873,122,158.648,122"/>
	</g>
	<g>
		<path fill="#575757" d="M11.238,122H0.426c-0.225,0-0.409-0.184-0.409-0.41c0-0.225,0.185-0.408,0.409-0.408h10.813
			c0.225,0,0.409,0.184,0.409,0.408C11.647,121.816,11.463,122,11.238,122"/>
	</g>
	<g>
		<path fill="#575757" d="M173.573,122h-10.812c-0.226,0-0.409-0.184-0.409-0.41c0-0.225,0.184-0.408,0.409-0.408h10.812
			c0.225,0,0.41,0.184,0.41,0.408C173.983,121.816,173.798,122,173.573,122"/>
	</g>
	<g>
		<polygon fill="#E0E0DE" points="103.858,106.196 77.532,106.196 72.488,116.604 108.896,116.604 		"/>
	</g>
	<g>
		<path fill="#575757" d="M109.275,116.842H72.109l5.273-10.883h26.625L109.275,116.842z M72.869,116.366h35.646l-4.807-9.931
			H77.682L72.869,116.366z"/>
	</g>
	<g>
		<path fill="#FFFFFF" d="M127.252,108.719H54.051c-5.035,0-9.117-4.082-9.117-9.116v-40.4c0-5.035,4.082-9.117,9.117-9.117h73.201
			c5.035,0,9.117,4.082,9.117,9.117v40.4C136.369,104.637,132.287,108.719,127.252,108.719"/>
	</g>
	<g>
		<path fill="#575757" d="M133.475,108.957H47.828c-1.727,0-3.132-1.404-3.132-3.133V52.979c0-1.727,1.405-3.132,3.132-3.132h85.646
			c1.728,0,3.132,1.405,3.132,3.132v52.845C136.606,107.553,135.202,108.957,133.475,108.957 M47.828,50.323
			c-1.465,0-2.656,1.191-2.656,2.656v52.845c0,1.465,1.191,2.656,2.656,2.656h85.646c1.465,0,2.655-1.191,2.655-2.656V52.979
			c0-1.465-1.19-2.656-2.655-2.656H47.828z"/>
	</g>
	<g>
		<path fill="#575757" d="M133.083,107.838H48.22c-1.268,0-2.298-1.031-2.298-2.298V53.264c0-1.267,1.03-2.297,2.298-2.297h84.863
			c1.268,0,2.297,1.03,2.297,2.297v52.276C135.38,106.807,134.351,107.838,133.083,107.838 M48.22,51.443
			c-1.005,0-1.82,0.817-1.82,1.821v52.276c0,1.004,0.815,1.821,1.82,1.821h84.863c1.004,0,1.821-0.817,1.821-1.821V53.264
			c0-1.004-0.817-1.821-1.821-1.821H48.22z"/>
	</g>
	<g>
		<rect x="50.454" y="55.085" fill="#93D1E5" width="80.394" height="46.093"/>
	</g>
	<g>
		<path fill="#FFFFFF" d="M93.332,105.178h-5.309c-0.65,0-1.178-0.527-1.178-1.178s0.527-1.178,1.178-1.178h5.309
			c0.651,0,1.178,0.527,1.178,1.178S93.983,105.178,93.332,105.178"/>
	</g>
	<g>
		<path fill="#575757" d="M93.332,105.332h-5.309c-0.735,0-1.333-0.598-1.333-1.332s0.598-1.332,1.333-1.332h5.309
			c0.734,0,1.332,0.598,1.332,1.332S94.066,105.332,93.332,105.332 M88.023,102.977c-0.563,0-1.022,0.459-1.022,1.023
			s0.459,1.023,1.022,1.023h5.309c0.564,0,1.023-0.459,1.023-1.023s-0.459-1.023-1.023-1.023H88.023z"/>
	</g>
	<g>
		<path fill="#575757" d="M53.254,121.916c-0.175,0-0.316-0.143-0.316-0.318c0-0.175,0.142-0.316,0.316-0.316l74.817-0.035
			c0.175,0,0.316,0.143,0.316,0.316c0,0.177-0.142,0.318-0.316,0.318L53.254,121.916z"/>
	</g>
	<g>
		<path fill="#575757" d="M95.187,89.941c-0.12,0-0.234-0.069-0.288-0.185l-1.005-2.169c-0.036-0.078-0.04-0.167-0.01-0.247
			c0.031-0.079,0.093-0.144,0.17-0.178l16.402-7.144c0.155-0.067,0.335,0,0.411,0.15l1.217,2.434
			c0.039,0.078,0.044,0.17,0.013,0.252c-0.03,0.084-0.095,0.148-0.176,0.183l-16.612,6.879
			C95.269,89.934,95.228,89.941,95.187,89.941"/>
	</g>
	<g>
		<polygon fill="#FFFFFF" points="94.605,87.615 95.347,89.213 111.363,82.582 110.434,80.723 		"/>
	</g>
	<g>
		<path fill="#FFD15F" d="M96.779,101.174l-3.754-8.293c-0.59-1.302-0.003-2.832,1.305-3.405l17.838-7.825
			c1.173-0.516,2.542-0.002,3.089,1.156l8.666,18.367H96.779z"/>
	</g>
	<g>
		<path fill="#FFFFFF" d="M112.858,121.581H68.467c-1.307-6.685,2.535-5.661,5.661-5.661h33.281c3.01,0,5.687-0.179,5.687,2.83
			L112.858,121.581z"/>
	</g>
	<g opacity="0.8">
		<g>
			<defs>
				<rect id="SVGID_1_" x="12.416" y="68.824" width="15.587" height="0.721"/>
			</defs>
			<clipPath id="SVGID_2_">
				<use xlink:href="#SVGID_1_"  overflow="visible"/>
			</clipPath>
			<g clip-path="url(#SVGID_2_)">
				<path fill="#575757" d="M27.641,69.548H12.777c-0.198,0-0.361-0.163-0.361-0.362c0-0.198,0.163-0.361,0.361-0.361h14.863
					c0.199,0,0.362,0.163,0.362,0.361C28.003,69.385,27.84,69.548,27.641,69.548"/>
			</g>
		</g>
	</g>
	<g opacity="0.8">
		<g>
			<defs>
				<rect id="SVGID_3_" x="25.072" y="64.715" width="9.397" height="0.729"/>
			</defs>
			<clipPath id="SVGID_4_">
				<use xlink:href="#SVGID_3_"  overflow="visible"/>
			</clipPath>
			<g clip-path="url(#SVGID_4_)">
				<path fill="#575757" d="M34.107,65.44h-8.673c-0.199,0-0.362-0.163-0.362-0.362s0.163-0.361,0.362-0.361h8.673
					c0.199,0,0.362,0.162,0.362,0.361S34.307,65.44,34.107,65.44"/>
			</g>
		</g>
	</g>
	<g opacity="0.8">
		<g>
			<defs>
				<rect id="SVGID_5_" x="20.973" y="64.715" width="3.208" height="0.729"/>
			</defs>
			<clipPath id="SVGID_6_">
				<use xlink:href="#SVGID_5_"  overflow="visible"/>
			</clipPath>
			<g clip-path="url(#SVGID_6_)">
				<path fill="#575757" d="M23.818,65.44h-2.483c-0.199,0-0.362-0.163-0.362-0.362s0.163-0.361,0.362-0.361h2.483
					c0.199,0,0.362,0.162,0.362,0.361S24.018,65.44,23.818,65.44"/>
			</g>
		</g>
	</g>
	<g opacity="0.8">
		<g>
			<defs>
				<rect id="SVGID_7_" x="145.905" y="76.475" width="15.587" height="0.73"/>
			</defs>
			<clipPath id="SVGID_8_">
				<use xlink:href="#SVGID_7_"  overflow="visible"/>
			</clipPath>
			<g clip-path="url(#SVGID_8_)">
				<path fill="#575757" d="M161.13,77.203h-14.863c-0.198,0-0.361-0.162-0.361-0.361c0-0.2,0.163-0.362,0.361-0.362h14.863
					c0.199,0,0.362,0.162,0.362,0.362C161.492,77.041,161.329,77.203,161.13,77.203"/>
			</g>
		</g>
	</g>
	<g opacity="0.8">
		<g>
			<defs>
				<rect id="SVGID_9_" x="158.563" y="72.375" width="9.396" height="0.72"/>
			</defs>
			<clipPath id="SVGID_10_">
				<use xlink:href="#SVGID_9_"  overflow="visible"/>
			</clipPath>
			<g clip-path="url(#SVGID_10_)">
				<path fill="#575757" d="M167.597,73.096h-8.673c-0.199,0-0.362-0.163-0.362-0.362c0-0.198,0.163-0.362,0.362-0.362h8.673
					c0.199,0,0.362,0.164,0.362,0.362C167.959,72.933,167.796,73.096,167.597,73.096"/>
			</g>
		</g>
	</g>
	<g opacity="0.8">
		<g>
			<defs>
				<rect id="SVGID_11_" x="154.462" y="72.375" width="3.208" height="0.72"/>
			</defs>
			<clipPath id="SVGID_12_">
				<use xlink:href="#SVGID_11_"  overflow="visible"/>
			</clipPath>
			<g clip-path="url(#SVGID_12_)">
				<path fill="#575757" d="M157.308,73.096h-2.483c-0.199,0-0.362-0.163-0.362-0.362c0-0.198,0.163-0.362,0.362-0.362h2.483
					c0.199,0,0.362,0.164,0.362,0.362C157.67,72.933,157.507,73.096,157.308,73.096"/>
			</g>
		</g>
	</g>
	<g>
		<path fill="#F2F2F2" d="M169.784,108.48c0,2.494-2.021,4.515-4.515,4.515s-4.514-2.021-4.514-4.515
			c0-2.492,2.021-4.514,4.514-4.514S169.784,105.988,169.784,108.48"/>
	</g>
	<g>
		<path fill="#F68D52" d="M122.354,43.623c-1.271,0-2.307-1.035-2.307-2.307s1.035-2.307,2.307-2.307
			c1.272,0,2.308,1.035,2.308,2.307S123.626,43.623,122.354,43.623z M122.354,40.009c-0.721,0-1.307,0.586-1.307,1.307
			s0.586,1.307,1.307,1.307s1.308-0.586,1.308-1.307S123.074,40.009,122.354,40.009z"/>
	</g>
	<g>
		<path fill="#575757" d="M10.667,110.208c-1.272,0-2.307-1.035-2.307-2.307c0-1.272,1.035-2.308,2.307-2.308
			c1.272,0,2.308,1.035,2.308,2.308C12.975,109.173,11.939,110.208,10.667,110.208z M10.667,106.594
			c-0.721,0-1.307,0.587-1.307,1.308s0.586,1.307,1.307,1.307c0.721,0,1.308-0.586,1.308-1.307S11.388,106.594,10.667,106.594z"/>
	</g>
	<g>
		<rect x="18.107" y="84.453" fill="#F68D52" width="4.204" height="1"/>
	</g>
	<g>
		<rect x="19.71" y="82.852" fill="#F68D52" width="1" height="4.204"/>
	</g>
	<g>
		<path fill="#575757" d="M113.097,121.819H68.229v-3.783c0-1.298,1.057-2.354,2.354-2.354h40.238c1.255,0,2.275,1.021,2.275,2.275
			V121.819z M68.705,121.343h43.915v-3.386c0-0.992-0.808-1.799-1.799-1.799H70.583c-1.035,0-1.878,0.842-1.878,1.878V121.343z"/>
	</g>
	<g>
		<path fill="#575757" d="M131.087,101.416h-80.87V54.848h80.87V101.416z M50.692,100.94h79.918V55.325H50.692V100.94z"/>
	</g>
	<g>
		<path fill="#DBF1F9" d="M82.87,57.874l1.315,2.59c0,0,1.772,1.634,2.829,2.509c1.055,0.877,5.298,4.164,6.872,4.522
			c1.572,0.358,3.343,0.017,3.343,0.017c-1.035-1.761-3.934-7.606-3.934-7.606s-0.931-5.692-1.552-8.642
			c-0.621-2.949-3.312-2.121-3.312-2.121c-0.725-3.001-1.396-3.881-3.053-4.191c-1.655-0.311-3.467,0.983-3.467,0.983
			c-2.009-2.009-4.992,0.125-5.166,0.252c0.252,0.332,0.869,1.172,1.104,1.768C78.149,48.711,82.87,57.874,82.87,57.874"/>
	</g>
	<g>
		<path fill="#FFFFFF" d="M97.755,85.927L82.336,69.473c0,0-1.761-1.967-2.95-4.656c-1.19-2.691-8.021-17.49-8.021-17.49
			s-0.259-0.88,0.569-1.294s2.949-2.018,4.812,0.207c0,0,3.105-2.328,5.176-0.259c0,0,1.811-1.293,3.466-0.983
			c1.655,0.311,2.328,1.19,3.053,4.191c0,0,2.69-0.827,3.313,2.122c0.62,2.949,1.552,8.641,1.552,8.641s2.896,5.847,3.932,7.606
			c0,0,2.536-0.414,2.846-0.827c0.312-0.414,2.329-18.887,2.329-18.887s0.143-2.881,3.089-2.716c2.625,0.146,2.654,2.457,2.654,3.13
			s-0.361,9.935-0.361,9.935l0.879,3.363c0,0,2.121,5.485,2.588,6.675c0.465,1.19,0.724,4.191,0.052,6.935
			c-0.673,2.741-1.604,5.483-1.604,5.483L97.755,85.927z"/>
	</g>
	<g>
		<path fill="#575757" d="M105.367,50.543c-0.009,0-0.016,0-0.022,0c-1.293-0.012-1.898-0.975-2.037-1.483
			c-0.007-0.029-0.011-0.058-0.011-0.088l0.025-1.912c0.002-0.122,0.073-0.233,0.186-0.284c0.083-0.038,2.064-0.927,3.734,0.163
			c0.094,0.061,0.148,0.167,0.144,0.278l-0.064,1.581c0,0.013-0.002,0.026-0.004,0.039C107.22,49.43,106.685,50.543,105.367,50.543
			 M103.933,48.93c0.064,0.183,0.4,0.969,1.418,0.979h0.015c1.047,0,1.293-1.008,1.323-1.159l0.056-1.37
			c-1.084-0.605-2.33-0.261-2.789-0.097L103.933,48.93z"/>
	</g>
	<g>
		<path fill="#575757" d="M105.97,54.563c-0.002,0-0.005,0-0.009,0l-1.874-0.046c-0.175-0.004-0.313-0.15-0.31-0.325
			c0.004-0.173,0.146-0.31,0.317-0.31h0.008l1.875,0.046c0.175,0.004,0.313,0.15,0.309,0.325
			C106.282,54.426,106.142,54.563,105.97,54.563"/>
	</g>
	<g>
		<path fill="#575757" d="M105.97,55.665c-0.002,0-0.005,0-0.009,0l-1.874-0.046c-0.175-0.004-0.313-0.15-0.31-0.325
			c0.004-0.175,0.134-0.313,0.325-0.31l1.875,0.046c0.175,0.004,0.313,0.15,0.309,0.325
			C106.282,55.527,106.142,55.665,105.97,55.665"/>
	</g>
	<g>
		<path fill="#575757" d="M73.795,52.722c-0.008,0-0.017-0.001-0.025-0.002c-0.083-0.008-0.154-0.06-0.189-0.135l-2.37-5.019
			c-0.047-0.099-0.021-0.216,0.063-0.286c0.741-0.611,1.502-0.379,1.802-0.171c0.015,0.01,0.027,0.021,0.039,0.034
			c0.041,0.044,1.01,1.099,1.576,2.375c0.608,1.369-0.651,3.04-0.706,3.11C73.938,52.687,73.869,52.722,73.795,52.722 M71.724,47.54
			l2.106,4.459c0.305-0.51,0.775-1.498,0.425-2.287c-0.492-1.108-1.331-2.067-1.471-2.224C72.687,47.432,72.245,47.21,71.724,47.54"
			/>
	</g>
	<g>
		<path fill="#575757" d="M79.432,51.527c-0.012,0-0.025-0.001-0.039-0.004c-0.073-0.012-0.139-0.059-0.173-0.127l-2.211-4.362
			c-0.031-0.061-0.034-0.132-0.009-0.196c0.025-0.063,0.077-0.113,0.141-0.136c0.433-0.155,1.366-0.231,1.805,0.59
			c0.459,0.856,0.926,1.965,0.945,2.012c0.005,0.012,0.01,0.025,0.014,0.038c0.034,0.152,0.33,1.504-0.307,2.118
			C79.553,51.503,79.493,51.527,79.432,51.527 M77.571,47.089l1.878,3.707c0.136-0.438,0.053-1.067-0.005-1.326
			c-0.064-0.151-0.503-1.176-0.919-1.954C78.291,47.079,77.854,47.052,77.571,47.089"/>
	</g>
	<g>
		<path fill="#575757" d="M84.193,51.407c-0.021,0-0.041-0.003-0.062-0.008c-0.073-0.02-0.132-0.072-0.16-0.142
			c-0.645-1.624-1.717-4.268-1.887-4.549c-0.047-0.051-0.07-0.122-0.06-0.193c0.014-0.101,0.091-0.182,0.19-0.202
			c0.063-0.011,1.522-0.283,1.954,0.652c0.348,0.754,0.633,2.017,0.67,2.184c0.063,0.176,0.47,1.431-0.498,2.205
			C84.299,51.389,84.246,51.407,84.193,51.407 M82.629,46.748c0.229,0.482,0.679,1.554,1.648,3.988
			c0.422-0.599,0.126-1.396,0.111-1.434c-0.005-0.011-0.008-0.023-0.01-0.035c-0.003-0.014-0.297-1.358-0.641-2.102
			C83.557,46.774,82.993,46.731,82.629,46.748"/>
	</g>
	<g>
		<path fill="#575757" d="M95.509,67.945c-0.521,0-1.104-0.042-1.668-0.17c-1.661-0.379-5.989-3.756-6.972-4.571
			c-1.048-0.871-2.819-2.502-2.837-2.518c-0.021-0.019-0.038-0.042-0.052-0.067l-1.314-2.59c-0.192-0.373-4.729-9.181-5.029-9.94
			c-0.282-0.715-1.171-1.841-1.18-1.852c-0.082-0.103-0.065-0.253,0.039-0.334c0.102-0.082,0.252-0.065,0.334,0.038
			c0.038,0.048,0.941,1.192,1.25,1.973c0.291,0.737,4.963,9.807,5.01,9.898l1.296,2.553c0.243,0.223,1.826,1.674,2.788,2.472
			c1.298,1.078,5.315,4.142,6.773,4.474c1.503,0.343,3.227,0.017,3.244,0.014c0.125-0.025,0.255,0.059,0.278,0.189
			c0.025,0.129-0.059,0.254-0.188,0.278C97.234,67.801,96.474,67.945,95.509,67.945"/>
	</g>
	<g>
		<path fill="#575757" d="M94.472,67.86c-0.055,0-0.109-0.019-0.153-0.056c-0.012-0.01-1.153-0.973-2.28-2.021
			c-1.129-1.049-3.86-4.011-3.977-4.136c-0.021-0.022-0.035-0.047-0.047-0.074l-2.391-6.076c-0.025-0.07-2.53-6.715-2.92-7.512
			c-0.391-0.802-0.985-1.879-0.992-1.89c-0.063-0.115-0.021-0.26,0.094-0.324c0.114-0.064,0.26-0.022,0.323,0.094
			c0.006,0.01,0.606,1.098,1.003,1.911c0.399,0.818,2.835,7.276,2.938,7.55l2.373,6.031c0.307,0.333,2.867,3.099,3.921,4.077
			c1.118,1.04,2.25,1.995,2.261,2.005c0.102,0.085,0.114,0.235,0.029,0.335C94.606,67.832,94.539,67.86,94.472,67.86"/>
	</g>
	<g>
		<path fill="#575757" d="M94.87,67.82c-0.063,0-0.126-0.025-0.174-0.074c-1.376-1.455-3.43-4.837-3.516-4.98
			c-0.014-0.022-0.022-0.047-0.029-0.071l-1.833-8.167l-1.215-5.619c-0.027-0.129,0.055-0.255,0.184-0.283
			c0.126-0.028,0.254,0.054,0.282,0.182l1.216,5.617l1.822,8.128c0.22,0.357,2.164,3.521,3.436,4.865
			c0.091,0.097,0.086,0.248-0.01,0.338C94.987,67.799,94.929,67.82,94.87,67.82"/>
	</g>
	<g>
		<path fill="#EE6B7A" d="M108.385,25.093H69.249c-2.527,0-2.326-2.05-2.326-4.577c0-2.528-0.201-4.622,2.326-4.622h39.053
			c2.527,0,2.297,2.094,2.297,4.622C110.599,23.043,110.912,25.093,108.385,25.093"/>
	</g>
	<g>
		<path fill="#EE6B7A" d="M105.501,45.127l-33.47-0.199c-3.432,0-2.781-2.782-2.781-6.215v-13.62h38.679v14.576
			C107.929,42.574,108.405,45.127,105.501,45.127"/>
	</g>
	<g>
		<path fill="#FFFFFF" d="M84.333,15.93c0,0-2.908-0.263-5.103-2.74c-0.304-0.342-2.478-3.059-0.09-5.014
			c3.268-2.677,8.06,3.452,9.398,6.002l0.082,0.291l0.568,1.456L84.333,15.93"/>
	</g>
	<g>
		<path fill="#FFFFFF" d="M93.166,15.969c2.583-0.35,6.802-3.66,6.102-6.23c-0.701-2.571-4.245-2.902-7.029-0.585
			c-2.784,2.317-4.322,6.99-4.322,6.99L93.166,15.969"/>
	</g>
	<g>
		<path fill="#575757" d="M87.916,16.382c-0.075,0-0.146-0.036-0.191-0.096c-0.046-0.062-0.059-0.143-0.035-0.217
			c0.063-0.193,1.592-4.764,4.396-7.098c1.67-1.39,3.713-1.936,5.331-1.427c1.058,0.333,1.795,1.09,2.08,2.131
			c0.224,0.824,0.001,1.776-0.645,2.752c-1.207,1.824-3.744,3.518-5.654,3.777c-0.008,0.001-0.017,0.002-0.024,0.002l-5.25,0.175
			C87.921,16.382,87.918,16.382,87.916,16.382 M93.166,15.968h0.003H93.166z M96.146,7.831c-1.228,0-2.583,0.531-3.755,1.506
			c-2.282,1.898-3.73,5.468-4.134,6.557l4.89-0.163c1.761-0.244,4.188-1.875,5.31-3.566c0.396-0.599,0.819-1.495,0.582-2.365
			c-0.24-0.879-0.867-1.519-1.764-1.802C96.918,7.886,96.538,7.831,96.146,7.831"/>
	</g>
	<g>
		<path fill="#575757" d="M92.265,13.896c-0.226,0-0.453-0.015-0.684-0.048c-0.082-0.012-0.153-0.066-0.185-0.143
			c-0.033-0.077-0.022-0.165,0.026-0.233c0.294-0.402,2.924-3.926,4.645-3.934h0.006c0.369,0,0.684,0.161,0.912,0.467
			c0.284,0.381,0.255,0.904-0.083,1.471C96.252,12.57,94.356,13.896,92.265,13.896 M92.063,13.416
			c1.97,0.084,3.837-1.183,4.432-2.183c0.134-0.227,0.328-0.651,0.11-0.944c-0.142-0.189-0.305-0.275-0.535-0.275
			C94.934,10.019,92.985,12.227,92.063,13.416"/>
	</g>
	<g>
		<path fill="#575757" d="M85.154,13.896c-2.093,0-3.988-1.327-4.639-2.421c-0.337-0.567-0.366-1.09-0.082-1.471
			c0.229-0.305,0.543-0.467,0.912-0.467h0.006c1.721,0.008,4.35,3.533,4.645,3.935c0.049,0.067,0.059,0.155,0.026,0.232
			c-0.031,0.077-0.103,0.132-0.185,0.143C85.608,13.88,85.38,13.896,85.154,13.896 M81.346,10.014c-0.222,0-0.391,0.088-0.531,0.276
			c-0.219,0.293-0.024,0.717,0.11,0.943c0.595,1,2.459,2.268,4.432,2.183c-0.924-1.189-2.872-3.397-4.007-3.402H81.346z"/>
	</g>
	<g>
		<polygon fill="#FFFFFF" points="84.164,15.969 84.164,27.958 84.164,29.021 84.164,44.853 93.166,44.853 93.166,29.021 
			93.166,27.958 93.166,15.969 		"/>
	</g>
	<g>
		<path fill="#575757" d="M93.325,45.011h-9.32V15.81h9.32V45.011z M84.323,44.693h8.685V16.127h-8.685V44.693z"/>
	</g>
	<g>
		<line fill="#63B8E7" x1="83.839" y1="25.051" x2="93.949" y2="25.051"/>
	</g>
	<g>
		<path fill="#1167B1" d="M93.95,25.257H83.839c-0.114,0-0.206-0.092-0.206-0.206c0-0.114,0.092-0.207,0.206-0.207H93.95
			c0.113,0,0.207,0.093,0.207,0.207C94.157,25.165,94.063,25.257,93.95,25.257"/>
	</g>
	<g>
		<path fill="#575757" d="M106.04,45.087H71.48c-1.317,0-2.39-1.072-2.39-2.39V24.934h38.996v18.107
			C108.087,44.169,107.169,45.087,106.04,45.087 M69.408,25.252v17.445c0,1.143,0.93,2.073,2.072,2.073h34.56
			c0.954,0,1.729-0.776,1.729-1.729V25.252"/>
	</g>
	<g>
		<path fill="#575757" d="M108.596,25.331H68.925c-1.236,0-2.241-1.005-2.241-2.241v-5.149c0-1.236,1.005-2.241,2.241-2.241h39.671
			c1.236,0,2.241,1.005,2.241,2.241v5.149C110.837,24.326,109.832,25.331,108.596,25.331 M68.925,16.176
			c-0.973,0-1.765,0.792-1.765,1.765v5.149c0,0.973,0.792,1.765,1.765,1.765h39.671c0.974,0,1.766-0.792,1.766-1.765v-5.149
			c0-0.973-0.792-1.765-1.766-1.765H68.925z"/>
	</g>
	<g>
		<path fill="#575757" d="M84.333,16.167c-0.007,0-0.014,0-0.021-0.001c-0.122-0.011-3.027-0.3-5.259-2.819
			c-0.057-0.063-1.38-1.576-1.246-3.236c0.064-0.817,0.463-1.529,1.184-2.12c0.769-0.629,1.666-0.845,2.666-0.643
			c2.987,0.607,6.122,4.868,7.093,6.718c0.008,0.015,0.015,0.031,0.019,0.047l0.083,0.291l0.561,1.434
			c0.028,0.073,0.019,0.155-0.026,0.22c-0.044,0.065-0.117,0.104-0.195,0.104L84.333,16.167z M80.954,7.751
			c-0.612,0-1.169,0.203-1.663,0.608c-0.616,0.505-0.957,1.107-1.011,1.789c-0.117,1.461,1.077,2.827,1.128,2.884
			c2.041,2.303,4.754,2.639,4.938,2.66l4.495-0.005l-0.441-1.132l-0.082-0.289c-0.952-1.799-3.946-5.881-6.755-6.452
			C81.354,7.772,81.151,7.751,80.954,7.751"/>
	</g>
	<g>
		<path fill="#575757" d="M97.696,86.213L97.58,86.09L82.161,69.635c-0.077-0.084-1.802-2.028-2.993-4.723
			c-1.176-2.658-7.951-17.338-8.019-17.486l-0.013-0.032c-0.108-0.371-0.104-1.176,0.691-1.574c0.089-0.045,0.194-0.104,0.313-0.171
			c0.95-0.534,2.899-1.63,4.646,0.275c0.703-0.458,3.278-1.928,5.16-0.247c0.497-0.317,2.027-1.188,3.485-0.913
			c1.73,0.324,2.465,1.263,3.185,4.14c0.413-0.079,1.276-0.159,2.054,0.299c0.668,0.393,1.11,1.086,1.315,2.058
			c0.589,2.8,1.468,8.13,1.549,8.617c0.226,0.456,2.786,5.608,3.826,7.418c1.107-0.191,2.326-0.502,2.521-0.696
			c0.259-0.745,1.51-11.605,2.294-18.782c0.001-0.042,0.076-1.356,1.034-2.218c0.583-0.524,1.356-0.761,2.306-0.711
			c1.313,0.074,2.878,0.717,2.878,3.369c0,0.655-0.333,9.192-0.36,9.908l0.87,3.329c0.002,0,2.114,5.462,2.579,6.649
			c0.444,1.138,0.772,4.175,0.061,7.076c-0.668,2.722-1.601,5.478-1.609,5.505l-0.033,0.099l-0.097,0.043L97.696,86.213z
			 M90.433,49.615c-0.862-0.51-1.911-0.202-1.923-0.198l-0.241,0.073l-0.06-0.245c-0.689-2.858-1.306-3.721-2.866-4.013
			c-1.535-0.29-3.266,0.93-3.283,0.943l-0.164,0.117l-0.144-0.143c-1.901-1.901-4.833,0.259-4.861,0.281l-0.182,0.135l-0.145-0.173
			c-1.528-1.825-3.194-0.888-4.19-0.328c-0.126,0.071-0.237,0.134-0.333,0.182c-0.592,0.296-0.48,0.879-0.451,0.999
			c0.278,0.601,6.855,14.856,8.014,17.474c1.162,2.627,2.892,4.576,2.908,4.595l15.301,16.327l11.703-5.168
			c0.171-0.514,0.973-2.954,1.563-5.365c0.688-2.803,0.381-5.708-0.042-6.79c-0.465-1.19-2.587-6.676-2.587-6.676l-0.897-3.423
			l0.002-0.035c0.003-0.093,0.361-9.265,0.361-9.925c0-1.83-0.816-2.803-2.429-2.893c-0.813-0.046-1.474,0.153-1.959,0.589
			c-0.813,0.731-0.879,1.89-0.879,1.901c-0.61,5.588-2.062,18.597-2.376,19.018c-0.341,0.455-2.381,0.819-2.998,0.92l-0.161,0.026
			l-0.083-0.142c-1.027-1.746-3.911-7.562-3.94-7.621l-0.021-0.067c-0.009-0.057-0.938-5.72-1.55-8.631"/>
	</g>
	<g>
		<path fill="#575757" d="M123.923,101.491H96.778c-0.124,0-0.237-0.073-0.289-0.187l-3.754-8.294
			c-0.32-0.706-0.343-1.495-0.064-2.219c0.276-0.726,0.821-1.295,1.531-1.606l17.838-7.826c1.34-0.588,2.88-0.012,3.504,1.312
			l8.665,18.367c0.047,0.098,0.041,0.214-0.019,0.305C124.133,101.436,124.031,101.491,123.923,101.491 M96.983,100.855h26.438
			l-8.452-17.914c-0.478-1.01-1.651-1.45-2.674-1.002l-17.839,7.826c-0.554,0.243-0.978,0.688-1.194,1.254
			c-0.217,0.564-0.198,1.179,0.051,1.729L96.983,100.855z"/>
	</g>
</g>
</svg>
