<?xml version="1.0" encoding="utf-8"?>
<!-- Generator: Adobe Illustrator 16.0.0, SVG Export Plug-In . SVG Version: 6.00 Build 0)  -->
<!DOCTYPE svg PUBLIC "-//W3C//DTD SVG 1.1//EN" "http://www.w3.org/Graphics/SVG/1.1/DTD/svg11.dtd">
<svg version="1.1" id="Layer_1" xmlns="http://www.w3.org/2000/svg" xmlns:xlink="http://www.w3.org/1999/xlink" x="0px" y="0px"
	 width="128.285px" height="128.286px" viewBox="0 0 128.285 128.286" enable-background="new 0 0 128.285 128.286"
	 xml:space="preserve">
<g>
	<path fill="#67CFE3" d="M128.285,64.144c0,35.425-28.718,64.143-64.143,64.143C28.718,128.286,0,99.568,0,64.144S28.718,0,64.142,0
		C99.567,0,128.285,28.719,128.285,64.144"/>
	<path fill="#523D66" d="M28,70.25H16.738c-0.102,0-0.185-0.083-0.185-0.185v-0.17c0-0.103,0.083-0.187,0.185-0.187H28
		c0.102,0,0.185,0.084,0.185,0.187v0.17C28.185,70.167,28.102,70.25,28,70.25"/>
	<path fill="none" stroke="#565656" stroke-width="0" stroke-miterlimit="10" d="M28,70.25H16.738c-0.102,0-0.185-0.083-0.185-0.185
		v-0.17c0-0.103,0.083-0.187,0.185-0.187H28c0.102,0,0.185,0.084,0.185,0.187v0.17C28.185,70.167,28.102,70.25,28,70.25z"/>
	<path fill="#523D66" d="M30.726,67.533h-6.643c-0.101,0-0.184-0.083-0.184-0.186v-0.17c0-0.103,0.083-0.186,0.184-0.186h6.643
		c0.102,0,0.185,0.083,0.185,0.186v0.17C30.911,67.45,30.828,67.533,30.726,67.533"/>
	<path fill="none" stroke="#565656" stroke-width="0" stroke-miterlimit="10" d="M30.726,67.533h-6.643
		c-0.101,0-0.184-0.083-0.184-0.186v-0.17c0-0.103,0.083-0.186,0.184-0.186h6.643c0.102,0,0.185,0.083,0.185,0.186v0.17
		C30.911,67.45,30.828,67.533,30.726,67.533z"/>
	<path fill="#523D66" d="M23.048,67.533h-2.024c-0.101,0-0.185-0.083-0.185-0.186v-0.17c0-0.103,0.084-0.186,0.185-0.186h2.024
		c0.102,0,0.185,0.083,0.185,0.186v0.17C23.233,67.45,23.15,67.533,23.048,67.533"/>
	<path fill="none" stroke="#565656" stroke-width="0" stroke-miterlimit="10" d="M23.048,67.533h-2.024
		c-0.101,0-0.185-0.083-0.185-0.186v-0.17c0-0.103,0.084-0.186,0.185-0.186h2.024c0.102,0,0.185,0.083,0.185,0.186v0.17
		C23.233,67.45,23.15,67.533,23.048,67.533z"/>
	<path fill="#523D66" d="M46.673,101.947h11.261c0.102,0,0.185-0.083,0.185-0.185v-0.17c0-0.104-0.083-0.187-0.185-0.187H46.673
		c-0.102,0-0.185,0.083-0.185,0.187v0.17C46.488,101.864,46.571,101.947,46.673,101.947"/>
	<path fill="none" stroke="#565656" stroke-width="0" stroke-miterlimit="10" d="M46.673,101.947h11.261
		c0.102,0,0.185-0.083,0.185-0.185v-0.17c0-0.104-0.083-0.187-0.185-0.187H46.673c-0.102,0-0.185,0.083-0.185,0.187v0.17
		C46.488,101.864,46.571,101.947,46.673,101.947z"/>
	<path fill="#523D66" d="M41.847,98.882h6.643c0.101,0,0.185-0.083,0.185-0.185v-0.17c0-0.103-0.084-0.187-0.185-0.187h-6.643
		c-0.102,0-0.185,0.084-0.185,0.187v0.17C41.662,98.799,41.745,98.882,41.847,98.882"/>
	<path fill="none" stroke="#565656" stroke-width="0" stroke-miterlimit="10" d="M41.847,98.882h6.643
		c0.101,0,0.185-0.083,0.185-0.185v-0.17c0-0.103-0.084-0.187-0.185-0.187h-6.643c-0.102,0-0.185,0.084-0.185,0.187v0.17
		C41.662,98.799,41.745,98.882,41.847,98.882z"/>
	<path fill="#523D66" d="M49.525,98.882h2.024c0.102,0,0.185-0.083,0.185-0.185v-0.17c0-0.103-0.083-0.187-0.185-0.187h-2.024
		c-0.102,0-0.185,0.084-0.185,0.187v0.17C49.34,98.799,49.423,98.882,49.525,98.882"/>
	<circle fill="none" stroke="#565656" stroke-width="0.75" stroke-miterlimit="10" cx="27.405" cy="58.545" r="1.349"/>
	<circle fill="none" stroke="#565656" stroke-width="0.75" stroke-miterlimit="10" cx="100.377" cy="91.199" r="1.349"/>
	<line fill="none" stroke="#565656" stroke-miterlimit="10" x1="100.377" y1="83.111" x2="103.514" y2="83.111"/>
	<line fill="none" stroke="#565656" stroke-miterlimit="10" x1="101.946" y1="84.68" x2="101.946" y2="81.543"/>
	<line fill="none" stroke="#575858" stroke-miterlimit="10" x1="39.229" y1="84.856" x2="42.366" y2="84.856"/>
	<line fill="none" stroke="#575858" stroke-miterlimit="10" x1="40.798" y1="86.425" x2="40.798" y2="83.288"/>
	<path fill="#575858" d="M101.929,66.293c-0.005-0.565,0.039-1.132-0.118-1.693c-0.759-2.71-2.79-4.259-5.643-4.261
		c-9.275-0.005-18.55-0.01-27.825,0.014c-0.713,0.001-0.913-0.189-0.904-0.902c0.041-3.178,0.042-6.355,0.009-9.533
		c-0.007-0.646,0.208-0.766,0.795-0.76c2.635,0.025,5.27-0.004,7.905,0.014c0.701,0.005,0.993-0.275,0.96-0.969
		c-0.029-0.593-0.002-1.189-0.007-1.783c-0.011-1.317,0.094-2.649-0.067-3.947c-0.266-2.133-2.023-4.58-5.524-4.666
		c-0.258,0.004-0.516,0.013-0.774,0.013c-10.073,0-20.145,0-30.218-0.004c-3.549-0.001-6.056,2.435-6.06,5.929
		c-0.01,8.6-0.01,17.2-0.003,25.801c0.003,3.278,2.216,5.486,5.492,5.512c1.085,0.008,2.169,0.015,3.254,0.008
		c1.968-0.012,3.477,0.801,4.526,2.472c0.823,1.311,1.651,2.619,2.491,3.919c0.476,0.737,0.923,0.738,1.402,0.004
		c0.703-1.082,1.436-2.148,2.063-3.273c0.562-1.006,1.311-1.811,2.199-2.513c0.032-0.077,0.071-0.087,0.118-0.011l0.292,0.025
		c0.531-0.644,1.304-0.55,2.001-0.605c0.99-0.08,0.996-0.04,0.992,0.96c-0.002,0.459-0.022,0.918-0.033,1.376
		c0.151,4.054,0.002,8.108,0.062,12.161c0.002,0.12-0.023,0.189-0.06,0.242v1.006c0.26,0.324,0.028,1.01,0.058,1.514
		c0.195,3.189,2.207,5.166,5.422,5.275c1.109,0.037,2.221,0.018,3.332,0.007c2.041-0.021,3.551,0.869,4.61,2.602
		c0.767,1.254,1.573,2.484,2.37,3.722c0.537,0.833,0.936,0.827,1.48-0.017c0.81-1.259,1.62-2.517,2.414-3.786
		c1.043-1.665,2.522-2.53,4.5-2.52c1.085,0.007,2.17,0.005,3.255-0.001c2.25-0.011,3.984-0.899,5.046-2.953
		c0.289-0.56,0.337-1.185,0.553-1.761c-0.002-6.848,0.002-13.693-0.017-20.539c-0.002-0.545,0.162-0.707,0.703-0.702
		c2.687,0.024,5.374-0.003,8.061,0.021c0.669,0.007,0.92-0.223,0.904-0.9C101.91,69.29,101.941,67.791,101.929,66.293 M59.307,66.61
		c-0.006,2.17-0.025,4.34-0.001,6.51c0.005,0.532-0.132,0.71-0.686,0.698c-2.454-0.056-4.31,1.004-5.596,3.091
		c-0.569,0.922-1.18,1.818-1.743,2.746c-0.265,0.435-0.43,0.497-0.721,0.014c-0.572-0.95-1.197-1.869-1.788-2.809
		c-1.304-2.075-3.161-3.111-5.627-3.052c-1.085,0.026-2.17,0.018-3.255,0.003c-2.528-0.03-4.147-1.659-4.177-4.196
		c-0.007-0.568,0.012-1.137,0.019-1.704c-0.01-5.013-0.022-10.025-0.029-15.038c-0.005-2.972-0.006-5.944,0-8.916
		c0.006-3.016,1.869-4.891,4.877-4.894c7.702-0.007,15.402-0.002,23.103,0c0.284,0,0.568,0.022,0.852,0.034h3.527
		c-0.605,0.699-1.182,1.337-1.496,2.153c-0.349,0.911-0.421,1.859-0.422,2.813c-0.008,5.115-0.018,10.23,0.012,15.346
		c0.005,0.715-0.132,0.958-0.913,0.961c-2.848,0.013-4.966,1.654-5.711,4.325C59.358,65.319,59.31,65.964,59.307,66.61
		 M92.12,62.599c-0.815,1.104-1.09,2.359-1.088,3.718c0.013,8.577,0.009,17.155,0.005,25.732c-0.001,2.15-1.122,3.698-2.994,4.18
		c-0.483,0.124-0.973,0.104-1.463,0.117c-1.393,0.041-2.789-0.089-4.179,0.091c-1.737,0.227-3.126,1.044-4.118,2.477
		c-0.85,1.227-1.636,2.499-2.507,3.839c-0.67-1.05-1.327-2.003-1.906-3.001c-1.413-2.438-3.533-3.509-6.312-3.411
		c-0.928,0.032-1.859,0.003-2.79-0.008c-2.692-0.032-4.319-1.795-4.188-4.533c-0.011-2.557-0.031-5.113-0.034-7.67
		c-0.005-5.838-0.008-11.676,0-17.514c0.005-3.138,1.893-5.028,5.011-5.029c8.163-0.004,16.326-0.002,24.489-0.001
		c0.232,0.001,0.464,0.016,0.696,0.025h2.229C92.631,62.001,92.353,62.283,92.12,62.599"/>
	<path fill="#749DD2" d="M55.881,75.672c0.033-0.077,0.072-0.087,0.119-0.011l-0.057,0.029L55.881,75.672z"/>
	<path fill="#575858" d="M86.402,48.38c0,0.618,0.002,1.235,0,1.854c-0.002,0.441-0.172,0.787-0.661,0.765
		c-0.439-0.021-0.584-0.351-0.583-0.762c0.002-1.236,0.001-2.471-0.007-3.707c-0.003-0.438,0.212-0.717,0.627-0.718
		c0.416-0.002,0.636,0.28,0.632,0.716c-0.005,0.618-0.001,1.234-0.001,1.853H86.402z"/>
	<path fill="none" stroke="#565656" stroke-miterlimit="10" d="M86.402,48.38c0,0.618,0.002,1.235,0,1.854
		c-0.002,0.441-0.172,0.787-0.661,0.765c-0.439-0.021-0.584-0.351-0.583-0.762c0.002-1.236,0.001-2.471-0.007-3.707
		c-0.003-0.438,0.212-0.717,0.627-0.718c0.416-0.002,0.636,0.28,0.632,0.716c-0.005,0.618-0.001,1.234-0.001,1.853H86.402z"/>
	<path fill="#575858" d="M91.484,52.579c-0.479,0.008-0.781-0.403-0.515-0.855c0.655-1.109,1.38-2.179,2.099-3.249
		c0.174-0.259,0.471-0.328,0.756-0.146c0.299,0.188,0.441,0.485,0.246,0.797c-0.686,1.092-1.398,2.167-2.109,3.243
		C91.858,52.522,91.68,52.593,91.484,52.579"/>
	<path fill="none" stroke="#565656" stroke-miterlimit="10" d="M91.484,52.579c-0.479,0.008-0.781-0.403-0.515-0.855
		c0.655-1.109,1.38-2.179,2.099-3.249c0.174-0.259,0.471-0.328,0.756-0.146c0.299,0.188,0.441,0.485,0.246,0.797
		c-0.686,1.092-1.398,2.167-2.109,3.243C91.858,52.522,91.68,52.593,91.484,52.579z"/>
	<path fill="#575858" d="M98.793,55.23c-0.02,0.307-0.159,0.513-0.406,0.638c-0.827,0.417-1.657,0.828-2.485,1.243
		c-0.39,0.196-0.721,0.115-0.911-0.27c-0.185-0.373,0.018-0.657,0.346-0.826c0.846-0.437,1.696-0.866,2.556-1.273
		C98.407,54.498,98.651,54.802,98.793,55.23"/>
	<path fill="none" stroke="#565656" stroke-miterlimit="10" d="M98.793,55.23c-0.02,0.307-0.159,0.513-0.406,0.638
		c-0.827,0.417-1.657,0.828-2.485,1.243c-0.39,0.196-0.721,0.115-0.911-0.27c-0.185-0.373,0.018-0.657,0.346-0.826
		c0.846-0.437,1.696-0.866,2.556-1.273C98.407,54.498,98.651,54.802,98.793,55.23z"/>
	<path fill="#DFDFDD" d="M90.741,61.609h2.23c-0.339,0.392-0.618,0.674-0.851,0.989c-0.816,1.104-1.09,2.358-1.088,3.717
		c0.013,8.578,0.009,17.156,0.005,25.734c-0.001,2.148-1.122,3.696-2.995,4.179c-0.482,0.124-0.973,0.103-1.462,0.117
		c-1.393,0.041-2.789-0.088-4.18,0.092c-1.736,0.225-3.126,1.043-4.118,2.475c-0.849,1.228-1.635,2.499-2.506,3.84
		c-0.671-1.051-1.327-2.004-1.906-3.001c-1.413-2.438-3.533-3.51-6.312-3.411c-0.929,0.032-1.86,0.003-2.79-0.009
		c-2.693-0.03-4.32-1.795-4.188-4.532c1.784-1.441,3.312-3.145,4.888-4.798c6.634,0.002,13.268,0.004,19.903,0.006
		c0.103,0,0.207-0.002,0.31-0.003c0.287-0.002,0.511-0.097,0.557-0.414c0.046-0.31-0.04-0.548-0.346-0.701
		c-0.321-0.161-0.656-0.12-0.988-0.12c-5.963-0.007-11.926-0.01-17.889-0.014c0.011-0.322,0.273-0.476,0.46-0.678
		c0.414-0.447,0.834-0.891,1.251-1.336c5.426-0.001,10.853,0,16.279-0.007c0.491-0.001,1.188,0.165,1.209-0.586
		c0.023-0.829-0.713-0.644-1.222-0.645c-4.909-0.018-9.819-0.022-14.728-0.031c0.082-0.418,0.472-0.593,0.704-0.893
		c0.324-0.418,0.878-0.646,1.005-1.226c2.97-0.004,5.94-0.008,8.909-0.011c1.576-0.003,3.151-0.006,4.726-0.007
		c0.349-0.001,0.617-0.096,0.637-0.506c0.019-0.396-0.176-0.646-0.556-0.715c-0.226-0.041-0.463-0.019-0.695-0.019
		c-3.771-0.005-7.541-0.01-11.312-0.014c0.013-0.321,0.271-0.477,0.461-0.675c0.775-0.806,1.556-1.606,2.335-2.409
		c2.934-0.004,5.869-0.019,8.804,0c0.727,0.004,1.022-0.275,1.008-1.007c-0.032-1.518-0.023-3.038-0.016-4.557
		c0.011-2.339,0.07-1.962-1.893-2.062c0.029-0.351,0.318-0.519,0.531-0.731c1.781-1.79,3.57-3.572,5.351-5.361
		C90.457,62.088,90.726,61.936,90.741,61.609 M75.625,90.408v0.005c3.126,0,6.251,0.001,9.377-0.001c0.232,0,0.47,0.019,0.696-0.022
		c0.341-0.063,0.56-0.276,0.541-0.644c-0.017-0.325-0.229-0.516-0.538-0.566c-0.202-0.032-0.412-0.018-0.619-0.018
		c-6.251,0.002-12.502,0.003-18.754,0.008c-0.231,0-0.471-0.02-0.693,0.03c-0.268,0.063-0.452,0.254-0.47,0.547
		c-0.021,0.334,0.171,0.549,0.468,0.625c0.22,0.058,0.461,0.035,0.693,0.035C69.425,90.408,72.525,90.408,75.625,90.408"/>
	<path fill="#DFDFDD" d="M64.534,39.098h3.528c-0.605,0.699-1.182,1.337-1.496,2.153c-0.349,0.911-0.421,1.859-0.422,2.813
		c-0.008,5.115-0.018,10.23,0.012,15.346c0.004,0.715-0.132,0.958-0.913,0.961c-2.849,0.013-4.966,1.654-5.711,4.325
		c-0.173,0.623-0.222,1.268-0.224,1.914c-0.007,2.17-0.027,4.34-0.003,6.509c0.006,0.533-0.131,0.711-0.685,0.699
		c-2.454-0.056-4.31,1.004-5.596,3.091c-0.569,0.922-1.18,1.818-1.743,2.746c-0.264,0.435-0.43,0.497-0.721,0.014
		c-0.572-0.95-1.197-1.869-1.788-2.809c-1.304-2.075-3.162-3.111-5.627-3.052c-1.085,0.026-2.17,0.018-3.255,0.003
		c-2.528-0.03-4.147-1.659-4.177-4.196c-0.007-0.568,0.012-1.137,0.019-1.704c3.065-3.054,6.131-6.106,9.194-9.161
		c0.053-0.053,0.081-0.131,0.121-0.196c1.346,1.308,2.915,2.19,4.78,2.508c0.04,0.458,0.045,0.924,0.128,1.373
		c0.141,0.761,0.807,1.281,1.524,1.248c0.767-0.034,1.37-0.622,1.449-1.428c0.041-0.407,0.058-0.815,0.085-1.223
		c0.687-0.121,1.348-0.329,1.978-0.623c5.557-2.59,6.949-9.84,2.487-14.29C59.916,43.866,62.229,41.486,64.534,39.098
		 M51.469,65.265c-0.888-0.015-1.58,0.657-1.578,1.531c0.002,0.815,0.723,1.538,1.525,1.529c0.815-0.009,1.513-0.707,1.529-1.528
		C52.96,65.929,52.334,65.279,51.469,65.265"/>
	<path fill="#FFFFFF" d="M65.468,87c-1.576,1.654-3.104,3.357-4.888,4.798c-0.011-2.556-0.031-5.111-0.034-7.669
		c-0.005-5.838-0.008-11.676,0-17.514c0.005-3.137,1.893-5.028,5.011-5.03c8.163-0.003,16.326-0.001,24.488,0
		c0.233,0,0.465,0.017,0.696,0.024c-0.015,0.327-0.284,0.478-0.478,0.673c-1.781,1.789-3.57,3.572-5.351,5.361
		c-0.213,0.213-0.502,0.381-0.531,0.73c-0.334,0.014-0.669,0.037-1.003,0.037c-5.726,0.003-11.453,0.001-17.179,0.003
		c-0.957,0-1.071,0.113-1.073,1.065c-0.004,1.78-0.003,3.56,0,5.34c0.001,1.075,0.081,1.154,1.139,1.157
		c3.404,0.008,6.808,0.016,10.213,0.023c-0.779,0.803-1.559,1.604-2.335,2.409c-0.19,0.198-0.447,0.354-0.461,0.674l-7.655,0.021
		c-0.452,0-0.845,0.104-0.867,0.65c-0.025,0.622,0.436,0.593,0.859,0.594c1.985,0.002,3.97,0.004,5.954,0.006
		c-0.127,0.579-0.68,0.809-1.005,1.227c-0.232,0.298-0.622,0.474-0.704,0.893c-1.436,0.009-2.873,0.017-4.31,0.027
		c-0.409,0.003-0.81,0.053-0.792,0.598c0.016,0.495,0.357,0.632,0.792,0.633c0.924,0.001,1.848,0.006,2.772,0.01
		c-0.417,0.445-0.837,0.888-1.251,1.336c-0.187,0.202-0.449,0.355-0.46,0.677c-0.381,0.013-0.765,0.007-1.145,0.04
		c-0.282,0.026-0.574,0.113-0.676,0.416C65.089,86.523,65.142,86.818,65.468,87"/>
	<path fill="#FFFFFF" d="M45.046,58.554c-0.04,0.065-0.067,0.144-0.121,0.197c-3.063,3.054-6.129,6.107-9.194,9.16
		c-0.01-5.013-0.022-10.025-0.029-15.039c-0.005-2.972-0.006-5.943,0-8.916c0.007-3.016,1.869-4.89,4.878-4.893
		c7.7-0.006,15.402-0.002,23.103,0c0.283,0,0.567,0.022,0.851,0.034c-2.305,2.389-4.618,4.768-7.057,7.021
		c-1.652-1.464-3.531-2.351-5.781-2.436c-5.269-0.2-9.448,4.136-9.066,9.394C42.785,55.211,43.68,56.976,45.046,58.554"/>
	<path fill="#575858" d="M76.477,76c-3.404-0.008-6.808-0.015-10.213-0.024c-1.058-0.003-1.137-0.082-1.139-1.156
		c-0.002-1.78-0.003-3.56,0-5.339c0.002-0.952,0.116-1.066,1.073-1.066c5.727-0.002,11.453,0,17.179-0.003
		c0.335,0,0.669-0.024,1.004-0.037c1.963,0.101,1.903-0.277,1.893,2.063c-0.007,1.519-0.016,3.037,0.015,4.556
		c0.015,0.731-0.281,1.011-1.008,1.006C82.347,75.981,79.412,75.997,76.477,76 M75.633,74.741v-0.009
		c2.891,0,5.782-0.018,8.673,0.014c0.586,0.007,0.746-0.157,0.726-0.733c-0.044-1.236-0.027-2.478-0.005-3.716
		c0.008-0.433-0.058-0.644-0.578-0.643c-5.834,0.014-11.668,0.009-17.502-0.011c-0.496-0.002-0.606,0.178-0.597,0.63
		c0.024,1.264,0.035,2.529-0.004,3.794c-0.017,0.546,0.151,0.69,0.691,0.686C69.902,74.727,72.767,74.741,75.633,74.741"/>
	<path fill="#575858" d="M71.973,80.354c-1.985-0.002-3.97-0.004-5.954-0.006c-0.423-0.001-0.884,0.028-0.859-0.594
		c0.021-0.547,0.415-0.65,0.867-0.65l7.655-0.021c3.77,0.004,7.541,0.01,11.312,0.015c0.231,0.001,0.469-0.022,0.695,0.019
		c0.38,0.07,0.575,0.318,0.555,0.715c-0.02,0.41-0.288,0.504-0.636,0.505c-1.575,0.001-3.151,0.004-4.726,0.008
		C77.912,80.348,74.943,80.351,71.973,80.354"/>
	<path fill="#575858" d="M65.468,87c-0.326-0.182-0.379-0.477-0.274-0.79c0.102-0.303,0.394-0.39,0.676-0.416
		c0.38-0.033,0.764-0.027,1.145-0.04c5.963,0.005,11.926,0.008,17.89,0.015c0.332,0.001,0.666-0.041,0.987,0.12
		c0.306,0.152,0.392,0.392,0.347,0.7c-0.047,0.318-0.271,0.412-0.558,0.414c-0.103,0.001-0.207,0.003-0.31,0.003
		C78.737,87.004,72.102,87.002,65.468,87"/>
	<path fill="#575858" d="M68.726,83.741c-0.924-0.003-1.848-0.008-2.771-0.01c-0.436-0.001-0.777-0.139-0.793-0.634
		c-0.018-0.545,0.383-0.594,0.792-0.597c1.437-0.011,2.874-0.019,4.311-0.028c4.909,0.009,9.818,0.015,14.728,0.03
		c0.509,0.002,1.245-0.184,1.221,0.646c-0.021,0.751-0.717,0.586-1.209,0.587C79.579,83.741,74.152,83.74,68.726,83.741"/>
	<path fill="#575858" d="M75.625,90.408c-3.1,0-6.2,0-9.299-0.001c-0.232,0-0.473,0.022-0.693-0.035
		c-0.297-0.076-0.489-0.291-0.468-0.625c0.018-0.293,0.202-0.484,0.47-0.547c0.222-0.05,0.462-0.03,0.693-0.03
		c6.252-0.005,12.503-0.006,18.754-0.008c0.207,0,0.417-0.015,0.619,0.018c0.309,0.051,0.521,0.241,0.538,0.566
		c0.019,0.367-0.2,0.581-0.541,0.644c-0.226,0.041-0.464,0.022-0.696,0.022c-3.126,0.002-6.251,0.001-9.377,0.001V90.408z"/>
	<path fill="#F9A160" d="M45.046,58.554c-1.366-1.578-2.261-3.343-2.416-5.477c-0.382-5.258,3.797-9.594,9.066-9.394
		c2.25,0.085,4.129,0.972,5.781,2.436c4.463,4.449,3.07,11.7-2.486,14.289c-0.631,0.294-1.292,0.502-1.978,0.624
		c-0.026-1.749,0.901-2.926,2.238-3.921c3.427-2.552,3.384-7.192-0.103-9.638c-1.968-1.38-4.144-1.54-6.327-0.604
		c-2.171,0.932-3.487,2.581-3.691,5.011c-0.088,1.059,0.371,1.798,1.209,1.926c0.971,0.147,1.702-0.379,1.799-1.529
		c0.16-1.89,1.911-3.133,3.889-2.817c1.259,0.2,2.162,0.905,2.516,2.12c0.341,1.173-0.061,2.184-1.033,2.946
		c-0.386,0.302-0.789,0.585-1.155,0.909c-1.688,1.493-2.415,3.423-2.528,5.626C47.962,60.743,46.392,59.861,45.046,58.554"/>
	<path fill="#575858" d="M49.827,61.062c0.113-2.204,0.841-4.133,2.528-5.626c0.366-0.325,0.769-0.606,1.155-0.91
		c0.972-0.762,1.374-1.772,1.033-2.944c-0.354-1.215-1.257-1.92-2.515-2.121c-1.979-0.315-3.729,0.928-3.889,2.817
		c-0.098,1.15-0.829,1.678-1.799,1.529c-0.839-0.128-1.298-0.867-1.209-1.927c0.203-2.428,1.52-4.078,3.691-5.009
		c2.183-0.938,4.359-0.777,6.326,0.603c3.487,2.445,3.531,7.086,0.103,9.638c-1.337,0.995-2.264,2.173-2.238,3.921
		c-0.028,0.407-0.045,0.816-0.085,1.223c-0.08,0.807-0.682,1.394-1.45,1.429c-0.716,0.032-1.382-0.488-1.523-1.248
		C49.871,61.984,49.867,61.52,49.827,61.062"/>
	<path fill="#575858" d="M51.469,65.265c0.866,0.015,1.492,0.664,1.476,1.532c-0.016,0.821-0.714,1.52-1.529,1.528
		c-0.802,0.009-1.523-0.714-1.525-1.529C49.889,65.922,50.581,65.25,51.469,65.265"/>
	<path fill="#EC6C79" d="M75.633,74.741c-2.866,0-5.731-0.015-8.596,0.012c-0.54,0.005-0.708-0.14-0.691-0.686
		c0.039-1.265,0.028-2.53,0.004-3.794c-0.009-0.452,0.101-0.632,0.597-0.63c5.834,0.02,11.668,0.024,17.502,0.011
		c0.52-0.001,0.586,0.21,0.578,0.643c-0.022,1.238-0.039,2.479,0.005,3.716c0.02,0.576-0.14,0.74-0.726,0.733
		c-2.891-0.031-5.782-0.014-8.673-0.014V74.741z"/>
</g>
</svg>
