<?xml version="1.0" encoding="utf-8"?>
<!-- Generator: Adobe Illustrator 16.0.0, SVG Export Plug-In . SVG Version: 6.00 Build 0)  -->
<!DOCTYPE svg PUBLIC "-//W3C//DTD SVG 1.1//EN" "http://www.w3.org/Graphics/SVG/1.1/DTD/svg11.dtd">
<svg version="1.1" id="Layer_1" xmlns="http://www.w3.org/2000/svg" xmlns:xlink="http://www.w3.org/1999/xlink" x="0px" y="0px"
	 width="128.285px" height="128.286px" viewBox="0 0 128.285 128.286" enable-background="new 0 0 128.285 128.286"
	 xml:space="preserve">
<path fill="#8FE2B2" d="M128.285,64.144c0,35.425-28.718,64.143-64.143,64.143C28.718,128.286,0,99.568,0,64.144S28.718,0,64.142,0
	C99.567,0,128.285,28.719,128.285,64.144"/>
<path fill="#523D66" d="M94.389,46.332h10.667c0.121,0,0.22-0.1,0.22-0.22v-0.076c0-0.121-0.099-0.221-0.22-0.221H94.389
	c-0.121,0-0.22,0.1-0.22,0.221v0.076C94.169,46.232,94.268,46.332,94.389,46.332"/>
<path fill="#523D66" d="M82.996,35.658h6.257c0.12,0,0.221-0.1,0.221-0.22v-0.076c0-0.121-0.101-0.221-0.221-0.221h-6.257
	c-0.121,0-0.22,0.1-0.22,0.221v0.076C82.776,35.559,82.875,35.658,82.996,35.658"/>
<path fill="#523D66" d="M100.21,44.824h1.846c0.121,0,0.22-0.1,0.22-0.22v-0.076c0-0.121-0.099-0.221-0.22-0.221h-1.846
	c-0.121,0-0.22,0.1-0.22,0.221v0.076C99.991,44.725,100.089,44.824,100.21,44.824"/>
<path fill="#523D66" d="M33.471,43.374h10.667c0.121,0,0.22-0.099,0.22-0.22v-0.076c0-0.121-0.099-0.22-0.22-0.22H33.471
	c-0.121,0-0.22,0.099-0.22,0.22v0.076C33.25,43.275,33.35,43.374,33.471,43.374"/>
<path fill="#523D66" d="M37.034,41.82h6.256c0.121,0,0.221-0.1,0.221-0.22v-0.076c0-0.121-0.1-0.221-0.221-0.221h-6.256
	c-0.121,0-0.22,0.1-0.22,0.221v0.076C36.814,41.721,36.913,41.82,37.034,41.82"/>
<path fill="#523D66" d="M29.853,43.374h1.846c0.121,0,0.22-0.099,0.22-0.22v-0.076c0-0.121-0.099-0.22-0.22-0.22h-1.846
	c-0.121,0-0.22,0.099-0.22,0.22v0.076C29.633,43.275,29.732,43.374,29.853,43.374"/>
<circle fill="none" stroke="#523D66" stroke-width="0.75" stroke-miterlimit="10" cx="116.17" cy="70.869" r="1.287"/>
<circle fill="none" stroke="#575858" stroke-miterlimit="10" cx="21.239" cy="59.301" r="1.288"/>
<circle fill="none" stroke="#575858" stroke-miterlimit="10" cx="42.146" cy="36.362" r="1.288"/>
<line fill="none" stroke="#575858" stroke-miterlimit="10" x1="107.196" y1="61.391" x2="110.192" y2="61.391"/>
<line fill="none" stroke="#575858" stroke-miterlimit="10" x1="108.694" y1="62.889" x2="108.694" y2="59.893"/>
<path fill="#575858" d="M26.002,72.537c-0.003-1.123-0.005-2.246-0.008-3.369c0.003-1.352,0.007-2.704,0.01-4.057
	c0.008-5.93,0.017-11.86,0.024-17.79c0.002-1.407,0.099-1.507,1.507-1.507c5.959-0.001,11.919,0,17.879-0.001
	c1.124,0,1.124,0,1.125-1.161c0-1.239-0.002-2.478,0.001-3.718c0.002-1.195,0.118-1.313,1.32-1.313
	c12.421-0.001,24.843-0.001,37.264,0c1.271,0,1.452,0.189,1.451,1.507c-0.002,3.836,0.016,7.672-0.027,11.507
	c-0.008,0.774,0.187,0.995,0.978,0.986c4.16-0.041,8.32-0.009,12.479-0.026c0.775-0.003,1.131,0.266,1.127,1.082
	c-0.019,4.484-0.02,8.969,0.002,13.454c0.004,0.766-0.29,1.067-1.044,1.049c-1.119-0.028-2.243,0.027-3.361-0.021
	c-0.645-0.027-0.81,0.211-0.781,0.813c0.044,0.912,0.014,1.828,0.011,2.743c-0.004,1.098-0.138,1.238-1.212,1.24
	c-1.948,0.004-3.895,0-5.842,0.001c-2.369,0.002-2.343,0.003-2.354,2.348c-0.003,0.668,0.192,0.849,0.851,0.842
	c2.921-0.034,5.842-0.005,8.763-0.018c2.506-0.011,2.223-0.111,2.288,2.141c-0.017,2.914-0.053,5.827-0.044,8.74
	c0.005,1.475-0.04,2.935-0.492,4.354c-0.813,1.65-2.031,2.888-3.717,3.649c-1.307,0.431-2.657,0.438-4.014,0.436
	c-2.973-0.008-5.944,0.019-8.915,0.029c-1.16-0.002-2.319-0.004-3.479-0.007c-4.151,0.003-8.305,0.005-12.456,0.007
	c-1.183-0.003-2.365-0.005-3.547-0.008c-2.463-0.01-4.927-0.046-7.389-0.017c-1.428,0.018-2.799-0.174-4.114-0.734l-1.933-1.445
	c-0.892-1.154-1.632-2.381-1.772-3.873c-0.038-0.401-0.283-0.381-0.552-0.379c-2.063,0.015-4.126,0.031-6.19,0.047
	c-1.121-0.003-2.242-0.007-3.364-0.01c-1.413-0.013-2.827-0.063-4.239-0.025c-0.912,0.025-1.727-0.162-2.535-0.585
	c-1.064-0.559-2.175-1.03-3.266-1.538c-0.328-0.175-0.646-0.369-0.984-0.519c-0.467-0.206-0.779-0.488-0.679-1.049
	c0.194-0.147,0.389-0.294,0.583-0.441c0.452-0.206,0.904-0.414,1.358-0.617c1.491-0.665,2.897-1.517,4.455-2.036
	c4.184,0.069,8.369,0.072,12.553-0.002c3.409,0.07,2.78,0.604,2.76-2.677c0-0.028-0.019-0.055-0.028-0.083
	c0.018-0.999,0.021-2,0.063-2.998c0.018-0.455-0.194-0.533-0.585-0.53c-2.974,0.022-5.948,0.029-8.922,0.041
	c-1.123-0.003-2.247-0.004-3.37-0.006c-2.142-0.01-4.283-0.018-6.426-0.029c-1.026-0.007-1.173-0.155-1.184-1.171
	C26.018,74.708,26.011,73.622,26.002,72.537"/>
<path fill="#FFFFFF" d="M53.464,41.087c-1.648-0.012-3.296-0.011-4.944-0.044c-0.471-0.009-0.61,0.167-0.602,0.616
	c0.03,1.677,0.034,3.354,0.047,5.032l0.012,3.36c-0.095,4.191-0.072,8.382-0.012,12.572l0.012,3.361
	c-0.095,4.19-0.072,8.382-0.012,12.572l0.012,3.361c-0.126,1.374-0.126,1.38,1.246,1.369c0.405-0.004,0.809-0.055,1.213-0.085
	c0.26,0.031,0.52,0.089,0.78,0.089c2.772,0.004,5.544-0.004,8.316-0.003c4.955,0,9.909,0.013,14.864,0.002
	c1.243-0.002,2.287,0.422,2.671,1.623c0.748,2.339,0.361,5.186-3.308,5.142c-8.285-0.1-16.573-0.031-24.859-0.03
	c-1.055,0-1.038,0.001-0.744,1.042c0.586,2.067,2.696,3.976,5.542,3.968c11.088-0.027,22.177-0.01,33.265-0.014
	c0.163,0,0.349,0.072,0.538-0.122c-0.067-0.08-0.128-0.169-0.205-0.242c-1.583-1.487-2.195-3.32-2.171-5.479
	c0.052-4.776-0.011-9.555,0.027-14.332c0.008-0.788-0.271-0.904-0.96-0.898c-3.566,0.03-7.136,0.014-10.705,0.014
	c-1.502-0.001-1.565-0.069-1.568-1.615c-0.011-3.596-0.021-7.191-0.033-10.787c0.02-0.411,0.054-0.822,0.056-1.233
	c0.006-1.928,0.003-1.926,1.888-1.93c0.411-0.001,0.822-0.026,1.234-0.04c2.622,0.03,2.071,0.459,2.099-2.024
	c0.001-0.029-0.01-0.057-0.015-0.087c0.011-0.521,0.055-1.044,0.028-1.563c-0.041-0.803,0.346-1.098,1.104-1.073
	c0.521,0.016,1.042-0.021,1.564-0.035c1.587,0.013,3.175,0.015,4.762,0.044c0.437,0.008,0.55-0.174,0.543-0.576
	c-0.026-1.587-0.031-3.175-0.044-4.763c0.002-1.001,0.004-2.001,0.006-3.002c-0.003-1.065-0.006-2.13-0.01-3.196
	c-0.083-0.376,0.412-1.029-0.472-1.026c-3.952,0.014-7.904,0.031-11.855,0.047c-1.126-0.004-2.251-0.009-3.377-0.013
	c-4.185,0.004-8.371,0.009-12.557,0.013C55.714,41.096,54.589,41.091,53.464,41.087"/>
<path fill="#FFFFFF" d="M46.445,68.097c0.117-1.239,0.114-2.479-0.001-3.721c-0.02-0.695,0.402-1.486-0.315-2.04
	c-1.894-1.463-3.813-2.895-5.722-4.34c-0.569-0.551-1.203-1.017-1.871-1.438c-2.337-1.883-4.715-3.711-7.14-5.478
	c-1.269-1.006-2.538-2.012-3.916-3.104v6.686c-0.002,4.186-0.005,8.371-0.007,12.556c0.002,1.126,0.005,2.252,0.007,3.378
	c-0.01,1.47-0.008,2.939-0.038,4.408c-0.01,0.429,0.141,0.55,0.556,0.546c2.528-0.025,5.056-0.029,7.584-0.04l3.378,0.009
	c2.299,0.009,4.599,0.004,6.899,0.034c0.497,0.006,0.665-0.139,0.655-0.646C46.473,72.637,46.465,70.367,46.445,68.097"/>
<path fill="#575858" d="M84.001,72.55v-0.016c3.215,0,6.431-0.016,9.646,0.014c0.648,0.005,0.914-0.103,0.905-0.849
	c-0.043-3.686-0.037-7.374-0.004-11.061c0.006-0.665-0.173-0.836-0.835-0.834c-6.489,0.02-12.979,0.018-19.468-0.018
	c-0.77-0.004-0.922,0.258-0.916,0.962c0.035,3.656,0.04,7.314,0.013,10.973c-0.005,0.658,0.167,0.851,0.837,0.844
	C77.454,72.53,80.727,72.55,84.001,72.55"/>
<path fill="#575858" d="M50.975,84.531h-4.249c-4.75,0-9.501,0.015-14.251-0.016c-0.664-0.004-0.875,0.169-0.828,0.834
	c0.059,0.822,0.07,1.656-0.002,2.476c-0.068,0.782,0.183,0.979,0.968,0.977c8.438-0.031,16.877-0.02,25.315-0.02
	c3.836,0,7.672-0.016,11.507,0.016c0.665,0.005,0.883-0.178,0.838-0.845c-0.056-0.852-0.063-1.714,0.002-2.564
	c0.055-0.719-0.209-0.874-0.889-0.872C63.249,84.542,57.112,84.531,50.975,84.531"/>
<path fill="#575858" d="M28.794,47.231c5.997,4.603,11.789,9.05,17.647,13.547c0.039-0.216,0.066-0.296,0.066-0.376
	c0.002-4.157-0.016-8.315,0.018-12.472c0.007-0.734-0.359-0.706-0.871-0.705c-5.101,0.009-10.202,0.006-15.303,0.006H28.794z"/>
<path fill="#575858" d="M89.13,55.055c0-0.005,0-0.01,0-0.016c-3.273,0-6.546,0.012-9.819-0.01
	c-0.518-0.004-0.759,0.097-0.709,0.673c0.05,0.585,0.062,1.185-0.002,1.768c-0.077,0.725,0.147,0.936,0.901,0.93
	c5.012-0.04,10.024-0.027,15.038-0.029c1.319-0.001,1.438,0.115,1.438,1.388c0.002,2.446,0.013,4.895-0.01,7.342
	c-0.005,0.495,0.123,0.674,0.636,0.646c0.794-0.041,1.594-0.049,2.387,0.002c0.604,0.04,0.729-0.19,0.727-0.751
	c-0.023-3.715-0.031-7.43,0.005-11.145c0.007-0.7-0.234-0.817-0.862-0.811C95.618,55.07,92.375,55.055,89.13,55.055"/>
<path fill="#575858" d="M30.433,84.856c-0.875,0.426-1.647,0.762-2.378,1.171c-0.484,0.271-0.431,0.997,0.072,1.269
	c0.595,0.32,1.215,0.591,1.818,0.894c0.328,0.165,0.492,0.104,0.49-0.289C30.429,86.938,30.433,85.977,30.433,84.856"/>
<path fill="#E1E1E1" d="M71.886,61.558c0.012,3.597,0.023,7.192,0.032,10.789c0.004,1.544,0.068,1.613,1.57,1.614
	c3.568,0,7.137,0.016,10.705-0.014c0.688-0.006,0.966,0.11,0.96,0.898c-0.038,4.777,0.023,9.556-0.029,14.332
	c-0.022,2.159,0.588,3.993,2.171,5.48c0.077,0.071,0.139,0.162,0.205,0.24c-0.188,0.196-0.374,0.122-0.537,0.122
	c-11.089,0.005-22.177-0.013-33.265,0.016c-2.847,0.007-4.956-1.9-5.542-3.97c-0.294-1.04-0.312-1.041,0.743-1.041
	c8.287-0.002,16.573-0.069,24.859,0.03c3.669,0.043,4.056-2.803,3.309-5.142c-0.384-1.2-1.429-1.625-2.672-1.623
	c-4.954,0.012-9.908-0.002-14.863-0.002c-2.772-0.001-5.544,0.007-8.316,0.003c-0.261,0-0.52-0.057-0.781-0.088
	c-0.009-0.415,0.323-0.61,0.565-0.854c6.759-6.764,13.521-13.524,20.285-20.284C71.47,61.881,71.686,61.726,71.886,61.558"/>
<path fill="#FFFFFF" d="M84.001,72.549c-3.274,0-6.548-0.019-9.822,0.017c-0.67,0.007-0.842-0.187-0.837-0.844
	c0.027-3.658,0.021-7.315-0.013-10.973c-0.007-0.705,0.146-0.966,0.916-0.962c6.488,0.036,12.979,0.038,19.468,0.019
	c0.662-0.002,0.841,0.168,0.835,0.834c-0.033,3.687-0.039,7.374,0.004,11.061c0.009,0.745-0.257,0.854-0.905,0.847
	c-3.215-0.028-6.431-0.013-9.646-0.013V72.549z M74.207,63.667c-0.015,1.944,2.178,3.263,3.835,2.25
	c0.567-0.347,1.106-0.448,1.732-0.447c1.298,0.004,2.179-0.758,2.16-1.817c-0.019-1.048-0.847-1.752-2.121-1.746
	c-0.658,0.003-1.219-0.119-1.814-0.471C76.365,60.469,74.22,61.77,74.207,63.667 M84.889,63.49c0.53,0,1.061,0.015,1.591-0.005
	c0.363-0.014,0.626-0.2,0.629-0.597c0.004-0.392-0.234-0.604-0.609-0.609c-1.091-0.017-2.182-0.019-3.271-0.013
	c-0.411,0.003-0.696,0.226-0.682,0.644c0.013,0.372,0.299,0.567,0.663,0.577C83.769,63.503,84.33,63.491,84.889,63.49
	 M84.837,63.688c-0.501,0-1.002,0.003-1.503-0.001c-0.443-0.003-0.788,0.172-0.775,0.642c0.011,0.415,0.343,0.583,0.746,0.585
	c1.002,0.005,2.004,0.014,3.006,0.015c0.419,0,0.796-0.111,0.807-0.61c0.012-0.499-0.348-0.629-0.777-0.63
	C85.839,63.688,85.338,63.688,84.837,63.688"/>
<path fill="#FFFFFF" d="M50.975,84.532c6.137,0,12.275,0.01,18.412-0.016c0.68-0.002,0.944,0.152,0.889,0.872
	c-0.064,0.852-0.058,1.713-0.001,2.565c0.044,0.667-0.174,0.849-0.839,0.843c-3.835-0.03-7.671-0.014-11.507-0.014
	c-8.438,0-16.877-0.013-25.315,0.019c-0.785,0.003-1.036-0.194-0.968-0.976c0.072-0.82,0.061-1.655,0.002-2.477
	c-0.047-0.665,0.164-0.838,0.829-0.834c4.75,0.03,9.5,0.017,14.251,0.017H50.975z M50.628,87.229c5.335,0,10.67,0,16.003-0.001
	c0.267,0,0.537,0.023,0.795-0.025c0.312-0.061,0.542-0.276,0.531-0.611c-0.011-0.328-0.232-0.536-0.559-0.586
	c-0.202-0.031-0.411-0.014-0.617-0.014c-10.729-0.001-21.457-0.001-32.186,0c-0.176,0-0.354-0.001-0.53,0.004
	c-0.378,0.011-0.63,0.191-0.643,0.581c-0.013,0.435,0.257,0.632,0.67,0.647c0.236,0.008,0.472,0.005,0.708,0.005
	C40.077,87.229,45.352,87.229,50.628,87.229"/>
<path fill="#FFFFFF" d="M28.794,47.231h1.557c5.101,0,10.202,0.003,15.303-0.006c0.512-0.001,0.878-0.029,0.871,0.705
	c-0.034,4.156-0.016,8.314-0.018,12.472c0,0.08-0.027,0.16-0.066,0.376C40.583,56.281,34.791,51.834,28.794,47.231"/>
<path fill="#F0EEEE" d="M89.13,55.055c3.244,0,6.487,0.016,9.729-0.013c0.628-0.007,0.869,0.11,0.862,0.811
	c-0.036,3.715-0.028,7.43-0.005,11.145c0.003,0.561-0.122,0.791-0.727,0.751c-0.793-0.051-1.593-0.043-2.387-0.002
	c-0.513,0.027-0.641-0.151-0.636-0.646c0.022-2.447,0.012-4.896,0.01-7.342c0-1.272-0.119-1.389-1.438-1.388
	c-5.014,0.002-10.026-0.011-15.038,0.029c-0.754,0.006-0.979-0.205-0.901-0.93c0.063-0.583,0.052-1.183,0.002-1.768
	c-0.05-0.576,0.191-0.677,0.709-0.673c3.273,0.021,6.546,0.01,9.819,0.01C89.13,55.045,89.13,55.05,89.13,55.055"/>
<path fill="#FFFFFF" d="M47.966,46.69c-0.014-1.677-0.017-3.354-0.047-5.031c-0.009-0.449,0.131-0.625,0.602-0.615
	c1.647,0.033,3.296,0.03,4.944,0.043c0.081,0.724-0.849,0.862-0.883,1.519c-1.486,0.404-2.425,1.346-2.793,2.848
	c-0.415-0.022-0.592,0.326-0.854,0.545C48.628,46.251,48.44,46.672,47.966,46.69"/>
<path fill="#F0EEEE" d="M79.844,53.572c1.753-1.765,3.507-3.529,5.261-5.295c0.012,1.587,0.017,3.175,0.044,4.762
	c0.007,0.403-0.106,0.586-0.543,0.577C83.019,53.588,81.431,53.585,79.844,53.572"/>
<path fill="#FFFFFF" d="M30.433,84.856c0,1.12-0.004,2.082,0.002,3.044c0.002,0.394-0.162,0.454-0.49,0.289
	c-0.603-0.303-1.223-0.573-1.818-0.894c-0.503-0.271-0.556-0.998-0.072-1.269C28.786,85.618,29.558,85.282,30.433,84.856"/>
<path fill="#F0EEEE" d="M75.064,58.355c0.694-0.704,1.39-1.407,2.083-2.111c0.006,0.029,0.017,0.059,0.016,0.087
	C77.135,58.814,77.686,58.387,75.064,58.355"/>
<path fill="#575858" d="M74.207,63.668c0.015-1.898,2.158-3.199,3.792-2.233c0.596,0.354,1.157,0.475,1.814,0.472
	c1.275-0.006,2.102,0.697,2.121,1.745c0.019,1.061-0.862,1.821-2.16,1.818c-0.626-0.002-1.165,0.102-1.733,0.447
	C76.384,66.93,74.192,65.61,74.207,63.668 M76.832,65.02c0.173-0.043,0.441-0.025,0.556-0.15c0.685-0.76,1.576-0.651,2.447-0.638
	c0.416,0.009,0.826-0.053,0.826-0.552c0.001-0.503-0.416-0.556-0.829-0.548c-0.873,0.017-1.715,0.055-2.463-0.623
	c-0.395-0.359-1.021-0.235-1.449,0.17c-0.436,0.412-0.619,0.92-0.355,1.512C75.803,64.727,76.235,64.98,76.832,65.02"/>
<path fill="#575858" d="M84.889,63.491c-0.561,0-1.12,0.012-1.68-0.004c-0.364-0.011-0.65-0.204-0.663-0.577
	c-0.015-0.418,0.271-0.642,0.682-0.645c1.091-0.006,2.181-0.004,3.271,0.014c0.375,0.006,0.615,0.218,0.611,0.608
	c-0.004,0.397-0.266,0.583-0.63,0.598C85.95,63.505,85.419,63.491,84.889,63.491"/>
<path fill="#575858" d="M84.837,63.688c0.501,0,1.002,0,1.503,0c0.43,0.001,0.789,0.133,0.777,0.631
	c-0.011,0.498-0.388,0.61-0.807,0.61c-1.002-0.001-2.004-0.01-3.006-0.014c-0.403-0.002-0.735-0.17-0.746-0.586
	c-0.013-0.471,0.332-0.646,0.775-0.642C83.835,63.69,84.336,63.688,84.837,63.688"/>
<path fill="#575858" d="M52.582,42.605c0.865-0.057,1.661,0.179,2.422,0.565c0.246,0.382,0.591,0.521,1.047,0.495
	c0.528-0.029,1.061-0.027,1.588,0.011c1.14,0.083,2.056,1.111,2.043,2.256c-0.012,1.115-0.901,2.088-2.015,2.188
	c-0.322,0.029-0.648,0.035-0.97,0.018c-0.686-0.037-1.271,0.083-1.878,0.51c-1.374,0.967-2.871,0.664-4.353-0.724
	c-0.489-0.752-0.702-1.579-0.677-2.472C50.157,43.951,51.096,43.01,52.582,42.605 M53.287,47.765
	c0.216,0.021,0.578-0.06,0.774-0.295c0.734-0.88,1.713-0.752,2.674-0.745c0.206,0.002,0.412,0.001,0.617-0.003
	c0.553-0.011,0.917-0.256,0.9-0.842s-0.402-0.805-0.947-0.803c-0.235,0.001-0.471-0.001-0.705-0.001
	c-0.901-0.001-1.764,0.071-2.521-0.696c-0.585-0.593-1.52-0.445-2.175,0.119c-0.65,0.56-0.814,1.292-0.525,2.07
	C51.675,47.362,52.316,47.74,53.287,47.765"/>
<path fill="#575858" d="M66.384,44.39c0.229,0.96,0.065,1.123-1.23,1.235c-1.12-0.014-2.24-0.028-3.36-0.043
	c-0.524-0.007-1.076-0.037-1.072-0.741c0.004-0.658,0.532-0.684,1.023-0.685c1.239-0.004,2.478,0.001,3.717-0.004
	C65.792,44.151,66.108,44.193,66.384,44.39"/>
<path fill="#575858" d="M64.974,45.959c0.233,0.013,0.468,0.027,0.701,0.035c0.478,0.017,0.823,0.236,0.822,0.726
	c-0.001,0.495-0.353,0.694-0.832,0.695c-0.82,0.002-1.641,0.02-2.462,0.029c-0.556-0.012-1.113-0.025-1.669-0.034
	c-0.47-0.008-0.819-0.179-0.815-0.703c0.004-0.523,0.369-0.696,0.827-0.706C62.688,45.98,63.832,45.973,64.974,45.959"/>
<path fill="#575858" d="M29.27,68.854c-0.348-0.874-0.427-1.77-0.229-2.689c0.447-0.969,1.151-1.676,2.131-2.103
	c0.977-0.189,1.916-0.089,2.809,0.367c0.336,0.439,0.781,0.566,1.321,0.534c0.498-0.03,1.007-0.036,1.5,0.033
	c1.192,0.165,2.02,1.155,1.993,2.318c-0.026,1.127-0.957,2.084-2.143,2.187c-0.293,0.024-0.591,0.029-0.884,0.008
	c-0.693-0.054-1.272,0.112-1.882,0.515C32.361,71.031,30.747,70.578,29.27,68.854 M32.345,65.398
	c-0.949,0.007-1.575,0.403-1.86,1.198c-0.282,0.781-0.113,1.511,0.554,2.055c0.658,0.536,1.508,0.722,2.094,0.146
	c0.794-0.777,1.676-0.685,2.599-0.703c0.68-0.013,1.599,0.185,1.602-0.854c0.003-1.033-0.912-0.851-1.595-0.863
	c-0.922-0.02-1.874,0.149-2.589-0.707C32.962,65.445,32.586,65.378,32.345,65.398"/>
<path fill="#575858" d="M43.728,67.311c0.145,0.021,0.289,0.044,0.433,0.061c0.407,0.048,0.649,0.26,0.645,0.686
	c-0.003,0.482-0.337,0.678-0.744,0.703c-0.758,0.047-1.52,0.039-2.279,0.055c-0.498-0.012-0.997-0.011-1.494-0.04
	c-0.452-0.027-0.817-0.199-0.817-0.727c0.001-0.536,0.364-0.685,0.826-0.69C41.441,67.342,42.585,67.326,43.728,67.311"/>
<path fill="#575858" d="M44.786,65.832c0.161,0.865-0.354,1.07-1.062,1.089c-1.117-0.01-2.232-0.024-3.349-0.029
	c-0.496-0.002-0.9-0.135-0.898-0.716c0.002-0.523,0.373-0.701,0.832-0.705c1.234-0.01,2.468,0.001,3.703-0.006
	C44.336,65.463,44.557,65.648,44.786,65.832"/>
<path fill="#575858" d="M50.628,87.229c-5.276,0-10.551,0-15.827,0c-0.236,0-0.472,0.003-0.708-0.005
	c-0.413-0.016-0.683-0.213-0.67-0.647c0.013-0.39,0.265-0.57,0.643-0.581c0.176-0.005,0.354-0.004,0.53-0.004
	c10.729-0.001,21.457-0.001,32.186,0c0.206,0,0.415-0.018,0.617,0.014c0.326,0.05,0.548,0.258,0.559,0.586
	c0.011,0.335-0.22,0.551-0.531,0.611c-0.258,0.049-0.528,0.025-0.795,0.025C61.298,87.229,55.963,87.229,50.628,87.229"/>
<path fill="#F9A160" d="M76.832,65.02c-0.597-0.039-1.028-0.293-1.268-0.829c-0.264-0.592-0.08-1.1,0.355-1.512
	c0.429-0.405,1.055-0.529,1.449-0.17c0.748,0.678,1.59,0.64,2.463,0.623c0.413-0.008,0.83,0.045,0.829,0.548
	c0,0.499-0.41,0.561-0.826,0.552c-0.871-0.014-1.763-0.122-2.447,0.638C77.273,64.994,77.004,64.977,76.832,65.02"/>
<path fill="#6FBCE9" d="M53.287,47.765c-0.971-0.024-1.612-0.402-1.908-1.195c-0.289-0.778-0.125-1.511,0.525-2.07
	c0.655-0.564,1.59-0.712,2.175-0.119c0.757,0.768,1.62,0.695,2.521,0.696c0.234,0,0.47,0.002,0.705,0.001
	c0.545-0.002,0.93,0.217,0.947,0.803s-0.347,0.831-0.9,0.842c-0.205,0.004-0.411,0.005-0.617,0.003
	c-0.961-0.007-1.94-0.135-2.674,0.745C53.865,47.705,53.503,47.785,53.287,47.765"/>
<path fill="#EC6C79" d="M32.345,65.398c0.242-0.021,0.618,0.047,0.805,0.271c0.715,0.856,1.667,0.688,2.589,0.707
	c0.683,0.013,1.598-0.17,1.595,0.863c-0.003,1.039-0.922,0.842-1.602,0.854c-0.923,0.019-1.805-0.074-2.599,0.703
	c-0.586,0.575-1.436,0.39-2.094-0.146c-0.667-0.544-0.836-1.273-0.554-2.055C30.77,65.802,31.396,65.405,32.345,65.398"/>
<line fill="none" stroke="#575858" stroke-miterlimit="10" x1="18.193" y1="75.174" x2="21.189" y2="75.174"/>
<line fill="none" stroke="#575858" stroke-miterlimit="10" x1="19.691" y1="76.672" x2="19.691" y2="73.676"/>
</svg>
