<?xml version="1.0" encoding="utf-8"?>
<!-- Generator: Adobe Illustrator 16.0.0, SVG Export Plug-In . SVG Version: 6.00 Build 0)  -->
<!DOCTYPE svg PUBLIC "-//W3C//DTD SVG 1.1//EN" "http://www.w3.org/Graphics/SVG/1.1/DTD/svg11.dtd">
<svg version="1.1" id="Layer_1" xmlns="http://www.w3.org/2000/svg" xmlns:xlink="http://www.w3.org/1999/xlink" x="0px" y="0px"
	 width="156.479px" height="26.937px" viewBox="0 0 156.479 26.937" enable-background="new 0 0 156.479 26.937"
	 xml:space="preserve">
<g>
	<g>
		<path fill="#6753A1" d="M89.264,0.03h2.651v18.313h8.776v2.225H89.264V0.03z"/>
		<path fill="#6753A1" d="M116.383,13.072c0,5.455-3.778,7.831-7.344,7.831c-3.992,0-7.069-2.925-7.069-7.587
			c0-4.936,3.229-7.831,7.313-7.831C113.519,5.485,116.383,8.563,116.383,13.072z M104.682,13.225c0,3.23,1.858,5.668,4.479,5.668
			c2.56,0,4.479-2.407,4.479-5.729c0-2.499-1.25-5.667-4.419-5.667S104.682,10.421,104.682,13.225z"/>
		<path fill="#6753A1" d="M132.47,5.82c-0.062,1.067-0.122,2.255-0.122,4.053v8.563c0,3.382-0.671,5.454-2.103,6.734
			c-1.433,1.341-3.505,1.768-5.363,1.768c-1.768,0-3.718-0.427-4.906-1.219l0.671-2.042c0.975,0.61,2.498,1.158,4.327,1.158
			c2.742,0,4.753-1.432,4.753-5.15v-1.646h-0.061c-0.823,1.372-2.407,2.468-4.692,2.468c-3.657,0-6.277-3.108-6.277-7.191
			c0-4.997,3.26-7.831,6.643-7.831c2.56,0,3.961,1.341,4.602,2.56h0.061l0.122-2.225H132.47z M129.696,11.64
			c0-0.457-0.03-0.853-0.152-1.219c-0.487-1.554-1.798-2.834-3.748-2.834c-2.56,0-4.388,2.164-4.388,5.576
			c0,2.895,1.463,5.302,4.357,5.302c1.646,0,3.139-1.036,3.718-2.743c0.152-0.457,0.213-0.975,0.213-1.432V11.64z"/>
		<path fill="#6753A1" d="M139.781,1.676c0.03,0.914-0.641,1.646-1.707,1.646c-0.944,0-1.614-0.731-1.614-1.646
			c0-0.944,0.7-1.676,1.676-1.676C139.141,0,139.781,0.731,139.781,1.676z M136.795,20.568V5.82h2.682v14.749H136.795z"/>
		<path fill="#6753A1" d="M143.924,9.812c0-1.524-0.03-2.773-0.122-3.992h2.377l0.152,2.438h0.061
			c0.731-1.402,2.438-2.773,4.876-2.773c2.041,0,5.211,1.219,5.211,6.277v8.806h-2.682v-8.501c0-2.377-0.884-4.357-3.413-4.357
			c-1.768,0-3.139,1.249-3.596,2.742c-0.122,0.335-0.183,0.792-0.183,1.25v8.867h-2.682V9.812z"/>
	</g>
	<path fill="#616161" d="M25.164,6.918c0.835,0,1.643,0.147,2.398,0.437c0.761,0.29,1.492,0.733,2.178,1.315l0.525,0.448
		l0.188-3.439L30.295,5.57c-0.806-0.556-1.651-0.979-2.512-1.254C26.923,4.039,26.006,3.9,25.058,3.9
		c-1.204,0-2.34,0.207-3.379,0.615c-1.041,0.411-1.976,1.022-2.78,1.818c-0.804,0.79-1.429,1.72-1.853,2.765
		c-0.424,1.042-0.638,2.171-0.638,3.354c0,1.184,0.214,2.316,0.638,3.364c0.424,1.053,1.041,1.979,1.831,2.753
		c0.797,0.791,1.737,1.398,2.79,1.805c1.046,0.405,2.201,0.609,3.433,0.609c0.967,0,1.878-0.127,2.711-0.377
		c0.836-0.251,1.619-0.637,2.33-1.147l0.143-0.103v-3.79l-0.565,0.486c-0.735,0.633-1.512,1.112-2.307,1.423
		c-0.792,0.311-1.638,0.467-2.514,0.467c-1.503,0-2.709-0.501-3.693-1.536c-0.974-1.023-1.468-2.348-1.468-3.933
		c0-1.642,0.508-2.992,1.509-4.016C22.243,7.436,23.563,6.918,25.164,6.918"/>
	<path fill="#616161" d="M41.635,6.918c0.835,0,1.643,0.147,2.398,0.437c0.76,0.29,1.491,0.733,2.177,1.315l0.526,0.448l0.187-3.439
		L46.766,5.57c-0.806-0.556-1.651-0.979-2.512-1.254C43.393,4.039,42.477,3.9,41.527,3.9c-1.203,0-2.339,0.207-3.378,0.615
		c-1.041,0.411-1.977,1.022-2.781,1.818c-0.805,0.79-1.428,1.72-1.852,2.765c-0.424,1.042-0.639,2.171-0.639,3.354
		c0,1.184,0.215,2.316,0.639,3.364c0.424,1.053,1.041,1.979,1.831,2.753c0.797,0.791,1.736,1.398,2.789,1.805
		c1.048,0.405,2.202,0.609,3.433,0.609c0.968,0,1.879-0.127,2.711-0.377c0.837-0.251,1.619-0.637,2.33-1.147l0.143-0.103v-3.79
		l-0.564,0.486c-0.735,0.633-1.512,1.112-2.307,1.423c-0.792,0.311-1.638,0.467-2.514,0.467c-1.503,0-2.709-0.501-3.693-1.536
		c-0.974-1.023-1.468-2.348-1.468-3.933c0-1.642,0.508-2.992,1.509-4.016C38.714,7.436,40.032,6.918,41.635,6.918"/>
	<polygon fill="#616161" points="49.236,20.568 58.632,20.568 58.632,17.612 52.459,17.612 52.459,13.252 58.632,13.252 
		58.632,10.34 52.459,10.34 52.459,7.111 58.632,7.111 58.632,4.273 49.236,4.273 	"/>
	<path fill="#616161" d="M67.786,10.872c-0.077-0.035-0.181-0.083-0.317-0.148c-1.623-0.747-2.446-1.523-2.446-2.313
		c0-0.499,0.16-0.882,0.487-1.171c0.341-0.303,0.798-0.448,1.401-0.448c0.423,0,0.784,0.095,1.105,0.291
		c0.326,0.199,0.636,0.526,0.919,0.97l0.167,0.263l2.528-1.304l-0.102-0.283c-0.325-0.906-0.918-1.611-1.762-2.095
		c-0.825-0.472-1.854-0.712-3.06-0.712c-1.483,0-2.703,0.429-3.628,1.273c-0.933,0.853-1.406,1.979-1.406,3.346
		c0,1.06,0.316,1.971,0.938,2.71c0.61,0.724,1.771,1.496,3.563,2.371c0.11,0.048,0.269,0.124,0.482,0.23
		c1.385,0.653,2.085,1.375,2.085,2.143c0,0.612-0.183,1.081-0.558,1.437c-0.382,0.36-0.893,0.535-1.563,0.535
		c-0.719,0-1.313-0.164-1.763-0.484c-0.45-0.323-0.753-0.784-0.927-1.408l-0.106-0.389l-2.644,1.224l0.063,0.272
		c0.28,1.215,0.887,2.165,1.803,2.823c0.903,0.652,2.071,0.981,3.468,0.981c1.667,0,3.017-0.471,4.008-1.399
		c0.999-0.933,1.507-2.204,1.507-3.773c0-1.096-0.319-2.026-0.946-2.765C70.471,12.323,69.393,11.612,67.786,10.872"/>
	<path fill="#616161" d="M84.342,13.047c-0.612-0.724-1.692-1.435-3.296-2.175c-0.078-0.036-0.183-0.083-0.319-0.148
		c-1.622-0.745-2.444-1.523-2.444-2.312c0-0.5,0.16-0.884,0.487-1.175c0.338-0.299,0.797-0.447,1.398-0.447
		c0.423,0,0.786,0.096,1.107,0.292c0.325,0.199,0.635,0.524,0.919,0.969l0.168,0.263l2.526-1.304l-0.101-0.283
		c-0.326-0.905-0.92-1.611-1.764-2.093c-0.823-0.474-1.853-0.712-3.059-0.712c-1.482,0-2.703,0.428-3.628,1.272
		c-0.934,0.853-1.407,1.979-1.407,3.345c0,1.061,0.316,1.972,0.94,2.71c0.609,0.722,1.771,1.497,3.562,2.369
		c0.111,0.048,0.271,0.124,0.483,0.231c1.385,0.654,2.085,1.375,2.085,2.144c0,0.61-0.182,1.081-0.56,1.437
		c-0.381,0.36-0.891,0.535-1.562,0.535c-0.72,0-1.313-0.164-1.763-0.486c-0.45-0.322-0.754-0.782-0.925-1.407l-0.107-0.388
		l-2.645,1.225l0.063,0.271c0.282,1.215,0.888,2.165,1.802,2.823c0.905,0.652,2.071,0.981,3.469,0.981
		c1.668,0,3.017-0.471,4.01-1.399c0.998-0.933,1.504-2.203,1.504-3.773C85.287,14.716,84.97,13.787,84.342,13.047"/>
	<polygon fill="#F68D52" points="8.441,2.801 8.437,2.813 8.431,2.801 0,20.925 3.547,20.925 4.065,20.925 6.348,15.893 
		4.229,14.303 7.067,14.303 8.396,11.371 8.437,11.249 8.476,11.371 9.806,14.303 12.645,14.303 10.526,15.893 12.807,20.925 
		13.326,20.925 16.875,20.925 	"/>
</g>
</svg>
