<?xml version="1.0" encoding="utf-8"?>
<!-- Generator: Adobe Illustrator 16.0.0, SVG Export Plug-In . SVG Version: 6.00 Build 0)  -->
<!DOCTYPE svg PUBLIC "-//W3C//DTD SVG 1.1//EN" "http://www.w3.org/Graphics/SVG/1.1/DTD/svg11.dtd">
<svg version="1.1" id="Layer_1" xmlns="http://www.w3.org/2000/svg" xmlns:xlink="http://www.w3.org/1999/xlink" x="0px" y="0px"
	 width="283.557px" height="263.263px" viewBox="0 0 283.557 263.263" enable-background="new 0 0 283.557 263.263"
	 xml:space="preserve">
<g>
	<g opacity="0.3">
		<g>
			<defs>
				<rect id="SVGID_1_" x="5.593" width="277.964" height="249.013"/>
			</defs>
			<clipPath id="SVGID_2_">
				<use xlink:href="#SVGID_1_"  overflow="visible"/>
			</clipPath>
			<path clip-path="url(#SVGID_2_)" fill="#D9D9D8" d="M283.045,150.7c0.325-3.863,0.512-7.769,0.512-11.718
				C283.557,62.225,221.333,0,144.575,0C67.818,0,5.593,62.225,5.593,138.982c0,44.784,21.188,84.614,54.08,110.031h67.566v-24.175
				h43.516v-24.981h44.321v-23.37h42.71V150.7H283.045z"/>
		</g>
	</g>
	<g opacity="0.6">
		<g>
			<defs>
				<rect id="SVGID_3_" x="179.088" y="135.939" width="31.762" height="63.686"/>
			</defs>
			<clipPath id="SVGID_4_">
				<use xlink:href="#SVGID_3_"  overflow="visible"/>
			</clipPath>
			
				<rect x="179.438" y="136.29" clip-path="url(#SVGID_4_)" fill="none" stroke="#575757" stroke-width="0.7" stroke-miterlimit="10" width="31.062" height="62.985"/>
		</g>
	</g>
	<g opacity="0.6">
		<g>
			<defs>
				<rect id="SVGID_5_" x="181.911" y="129.651" width="23.034" height="6.638"/>
			</defs>
			<clipPath id="SVGID_6_">
				<use xlink:href="#SVGID_5_"  overflow="visible"/>
			</clipPath>
			<polyline clip-path="url(#SVGID_6_)" fill="none" stroke="#575757" stroke-width="0.7" stroke-miterlimit="10" points="
				204.595,136.29 204.595,130.001 182.261,130.001 182.261,136.29 			"/>
		</g>
	</g>
	<g opacity="0.6">
		<g>
			<defs>
				<rect id="SVGID_7_" x="185.12" y="123.363" width="16.617" height="6.638"/>
			</defs>
			<clipPath id="SVGID_8_">
				<use xlink:href="#SVGID_7_"  overflow="visible"/>
			</clipPath>
			<polyline clip-path="url(#SVGID_8_)" fill="none" stroke="#575757" stroke-width="0.7" stroke-miterlimit="10" points="
				201.386,130.001 201.386,123.713 185.47,123.713 185.47,130.001 			"/>
		</g>
	</g>
	<g opacity="0.6">
		<g>
			<defs>
				<rect id="SVGID_9_" x="204.245" y="136.289" width="0.7" height="63.257"/>
			</defs>
			<clipPath id="SVGID_10_">
				<use xlink:href="#SVGID_9_"  overflow="visible"/>
			</clipPath>
			
				<line clip-path="url(#SVGID_10_)" fill="none" stroke="#575757" stroke-width="0.7" stroke-miterlimit="10" x1="204.595" y1="136.29" x2="204.595" y2="199.547"/>
		</g>
	</g>
	<g opacity="0.6">
		<g>
			<defs>
				<rect id="SVGID_11_" x="196.672" y="136.289" width="0.7" height="63.257"/>
			</defs>
			<clipPath id="SVGID_12_">
				<use xlink:href="#SVGID_11_"  overflow="visible"/>
			</clipPath>
			
				<line clip-path="url(#SVGID_12_)" fill="none" stroke="#575757" stroke-width="0.7" stroke-miterlimit="10" x1="197.022" y1="136.29" x2="197.022" y2="199.547"/>
		</g>
	</g>
	<g opacity="0.6">
		<g>
			<defs>
				<rect id="SVGID_13_" x="187.559" y="136.289" width="0.7" height="63.257"/>
			</defs>
			<clipPath id="SVGID_14_">
				<use xlink:href="#SVGID_13_"  overflow="visible"/>
			</clipPath>
			
				<line clip-path="url(#SVGID_14_)" fill="none" stroke="#575757" stroke-width="0.7" stroke-miterlimit="10" x1="187.909" y1="136.29" x2="187.909" y2="199.547"/>
		</g>
	</g>
	<g opacity="0.6">
		<g>
			<defs>
				<rect id="SVGID_15_" x="179.438" y="143.269" width="31.062" height="0.7"/>
			</defs>
			<clipPath id="SVGID_16_">
				<use xlink:href="#SVGID_15_"  overflow="visible"/>
			</clipPath>
			
				<line clip-path="url(#SVGID_16_)" fill="none" stroke="#575757" stroke-width="0.7" stroke-miterlimit="10" x1="210.5" y1="143.619" x2="179.438" y2="143.619"/>
		</g>
	</g>
	<g opacity="0.6">
		<g>
			<defs>
				<rect id="SVGID_17_" x="179.438" y="146.98" width="31.062" height="0.699"/>
			</defs>
			<clipPath id="SVGID_18_">
				<use xlink:href="#SVGID_17_"  overflow="visible"/>
			</clipPath>
			
				<line clip-path="url(#SVGID_18_)" fill="none" stroke="#575757" stroke-width="0.7" stroke-miterlimit="10" x1="210.5" y1="147.329" x2="179.438" y2="147.329"/>
		</g>
	</g>
	<g opacity="0.6">
		<g>
			<defs>
				<rect id="SVGID_19_" x="179.438" y="156.612" width="31.062" height="0.7"/>
			</defs>
			<clipPath id="SVGID_20_">
				<use xlink:href="#SVGID_19_"  overflow="visible"/>
			</clipPath>
			
				<line clip-path="url(#SVGID_20_)" fill="none" stroke="#575757" stroke-width="0.7" stroke-miterlimit="10" x1="210.5" y1="156.962" x2="179.438" y2="156.962"/>
		</g>
	</g>
	<g opacity="0.6">
		<g>
			<defs>
				<rect id="SVGID_21_" x="179.438" y="160.323" width="31.062" height="0.7"/>
			</defs>
			<clipPath id="SVGID_22_">
				<use xlink:href="#SVGID_21_"  overflow="visible"/>
			</clipPath>
			
				<line clip-path="url(#SVGID_22_)" fill="none" stroke="#575757" stroke-width="0.7" stroke-miterlimit="10" x1="210.5" y1="160.673" x2="179.438" y2="160.673"/>
		</g>
	</g>
	<g opacity="0.6">
		<g>
			<defs>
				<rect id="SVGID_23_" x="179.438" y="169.955" width="31.062" height="0.7"/>
			</defs>
			<clipPath id="SVGID_24_">
				<use xlink:href="#SVGID_23_"  overflow="visible"/>
			</clipPath>
			
				<line clip-path="url(#SVGID_24_)" fill="none" stroke="#575757" stroke-width="0.7" stroke-miterlimit="10" x1="210.5" y1="170.305" x2="179.438" y2="170.305"/>
		</g>
	</g>
	<g opacity="0.6">
		<g>
			<defs>
				<rect id="SVGID_25_" x="179.438" y="173.666" width="31.062" height="0.7"/>
			</defs>
			<clipPath id="SVGID_26_">
				<use xlink:href="#SVGID_25_"  overflow="visible"/>
			</clipPath>
			
				<line clip-path="url(#SVGID_26_)" fill="none" stroke="#575757" stroke-width="0.7" stroke-miterlimit="10" x1="210.5" y1="174.016" x2="179.438" y2="174.016"/>
		</g>
	</g>
	<g opacity="0.6">
		<g>
			<defs>
				<rect id="SVGID_27_" x="179.438" y="183.298" width="31.062" height="0.7"/>
			</defs>
			<clipPath id="SVGID_28_">
				<use xlink:href="#SVGID_27_"  overflow="visible"/>
			</clipPath>
			
				<line clip-path="url(#SVGID_28_)" fill="none" stroke="#575757" stroke-width="0.7" stroke-miterlimit="10" x1="210.5" y1="183.648" x2="179.438" y2="183.648"/>
		</g>
	</g>
	<g opacity="0.6">
		<g>
			<defs>
				<rect id="SVGID_29_" x="179.438" y="187.009" width="31.062" height="0.7"/>
			</defs>
			<clipPath id="SVGID_30_">
				<use xlink:href="#SVGID_29_"  overflow="visible"/>
			</clipPath>
			
				<line clip-path="url(#SVGID_30_)" fill="none" stroke="#575757" stroke-width="0.7" stroke-miterlimit="10" x1="210.5" y1="187.358" x2="179.438" y2="187.358"/>
		</g>
	</g>
	<g opacity="0.6">
		<g>
			<defs>
				<rect id="SVGID_31_" x="222.087" y="133.946" width="28.425" height="26.313"/>
			</defs>
			<clipPath id="SVGID_32_">
				<use xlink:href="#SVGID_31_"  overflow="visible"/>
			</clipPath>
			<polyline clip-path="url(#SVGID_32_)" fill="none" stroke="#575757" stroke-width="0.7" stroke-miterlimit="10" points="
				222.437,160.26 222.437,134.296 250.162,134.296 250.162,160.26 			"/>
		</g>
	</g>
	<g opacity="0.6">
		<g>
			<defs>
				<rect id="SVGID_33_" x="214.282" y="159.91" width="43.842" height="15.089"/>
			</defs>
			<clipPath id="SVGID_34_">
				<use xlink:href="#SVGID_33_"  overflow="visible"/>
			</clipPath>
			
				<rect x="214.631" y="160.26" clip-path="url(#SVGID_34_)" fill="none" stroke="#575757" stroke-width="0.7" stroke-miterlimit="10" width="43.143" height="14.39"/>
		</g>
	</g>
	<g opacity="0.6">
		<g>
			<defs>
				<rect id="SVGID_35_" x="214.282" y="165.028" width="19.543" height="9.971"/>
			</defs>
			<clipPath id="SVGID_36_">
				<use xlink:href="#SVGID_35_"  overflow="visible"/>
			</clipPath>
			
				<rect x="214.631" y="165.378" clip-path="url(#SVGID_36_)" fill="none" stroke="#575757" stroke-width="0.7" stroke-miterlimit="10" width="18.844" height="9.271"/>
		</g>
	</g>
	<g opacity="0.6">
		<g>
			<defs>
				<rect id="SVGID_37_" x="238.581" y="165.028" width="19.543" height="9.971"/>
			</defs>
			<clipPath id="SVGID_38_">
				<use xlink:href="#SVGID_37_"  overflow="visible"/>
			</clipPath>
			
				<rect x="238.93" y="165.378" clip-path="url(#SVGID_38_)" fill="none" stroke="#575757" stroke-width="0.7" stroke-miterlimit="10" width="18.844" height="9.271"/>
		</g>
	</g>
	<g opacity="0.6">
		<g>
			<defs>
				<rect id="SVGID_39_" x="222.437" y="138.127" width="11.388" height="22.133"/>
			</defs>
			<clipPath id="SVGID_40_">
				<use xlink:href="#SVGID_39_"  overflow="visible"/>
			</clipPath>
			<polyline clip-path="url(#SVGID_40_)" fill="none" stroke="#575757" stroke-width="0.7" stroke-miterlimit="10" points="
				222.437,138.477 233.475,138.477 233.475,160.26 			"/>
		</g>
	</g>
	<g opacity="0.6">
		<g>
			<defs>
				<path id="SVGID_41_" d="M222.437,160.26L222.437,160.26z"/>
			</defs>
			<clipPath id="SVGID_42_">
				<use xlink:href="#SVGID_41_"  overflow="visible"/>
			</clipPath>
		</g>
	</g>
	<g opacity="0.6">
		<g>
			<defs>
				<path id="SVGID_43_" d="M249.969,160.26L249.969,160.26z"/>
			</defs>
			<clipPath id="SVGID_44_">
				<use xlink:href="#SVGID_43_"  overflow="visible"/>
			</clipPath>
		</g>
	</g>
	<g opacity="0.6">
		<g>
			<defs>
				<rect id="SVGID_45_" x="238.581" y="138.127" width="11.389" height="22.133"/>
			</defs>
			<clipPath id="SVGID_46_">
				<use xlink:href="#SVGID_45_"  overflow="visible"/>
			</clipPath>
			<polyline clip-path="url(#SVGID_46_)" fill="none" stroke="#575757" stroke-width="0.7" stroke-miterlimit="10" points="
				238.93,160.26 238.93,138.477 249.969,138.477 			"/>
		</g>
	</g>
	<g opacity="0.6">
		<g>
			<defs>
				<rect id="SVGID_47_" x="222.437" y="142.55" width="7.23" height="0.7"/>
			</defs>
			<clipPath id="SVGID_48_">
				<use xlink:href="#SVGID_47_"  overflow="visible"/>
			</clipPath>
			
				<line clip-path="url(#SVGID_48_)" fill="none" stroke="#575757" stroke-width="0.7" stroke-miterlimit="10" x1="222.437" y1="142.9" x2="229.667" y2="142.9"/>
		</g>
	</g>
	<g opacity="0.6">
		<g>
			<defs>
				<rect id="SVGID_49_" x="222.437" y="147.912" width="7.23" height="0.7"/>
			</defs>
			<clipPath id="SVGID_50_">
				<use xlink:href="#SVGID_49_"  overflow="visible"/>
			</clipPath>
			
				<line clip-path="url(#SVGID_50_)" fill="none" stroke="#575757" stroke-width="0.7" stroke-miterlimit="10" x1="222.437" y1="148.262" x2="229.667" y2="148.262"/>
		</g>
	</g>
	<g opacity="0.6">
		<g>
			<defs>
				<rect id="SVGID_51_" x="222.437" y="153.274" width="7.23" height="0.699"/>
			</defs>
			<clipPath id="SVGID_52_">
				<use xlink:href="#SVGID_51_"  overflow="visible"/>
			</clipPath>
			
				<line clip-path="url(#SVGID_52_)" fill="none" stroke="#575757" stroke-width="0.7" stroke-miterlimit="10" x1="222.437" y1="153.624" x2="229.667" y2="153.624"/>
		</g>
	</g>
	<g opacity="0.6">
		<g>
			<defs>
				<rect id="SVGID_53_" x="242.739" y="142.55" width="7.23" height="0.7"/>
			</defs>
			<clipPath id="SVGID_54_">
				<use xlink:href="#SVGID_53_"  overflow="visible"/>
			</clipPath>
			
				<line clip-path="url(#SVGID_54_)" fill="none" stroke="#575757" stroke-width="0.7" stroke-miterlimit="10" x1="242.739" y1="142.9" x2="249.968" y2="142.9"/>
		</g>
	</g>
	<g opacity="0.6">
		<g>
			<defs>
				<rect id="SVGID_55_" x="242.739" y="147.912" width="7.23" height="0.7"/>
			</defs>
			<clipPath id="SVGID_56_">
				<use xlink:href="#SVGID_55_"  overflow="visible"/>
			</clipPath>
			
				<line clip-path="url(#SVGID_56_)" fill="none" stroke="#575757" stroke-width="0.7" stroke-miterlimit="10" x1="242.739" y1="148.262" x2="249.968" y2="148.262"/>
		</g>
	</g>
	<g opacity="0.6">
		<g>
			<defs>
				<rect id="SVGID_57_" x="242.739" y="153.274" width="7.23" height="0.699"/>
			</defs>
			<clipPath id="SVGID_58_">
				<use xlink:href="#SVGID_57_"  overflow="visible"/>
			</clipPath>
			
				<line clip-path="url(#SVGID_58_)" fill="none" stroke="#575757" stroke-width="0.7" stroke-miterlimit="10" x1="242.739" y1="153.624" x2="249.968" y2="153.624"/>
		</g>
	</g>
	<g opacity="0.6">
		<g>
			<defs>
				<rect id="SVGID_59_" x="226.694" y="129.021" width="19.354" height="5.625"/>
			</defs>
			<clipPath id="SVGID_60_">
				<use xlink:href="#SVGID_59_"  overflow="visible"/>
			</clipPath>
			<polygon clip-path="url(#SVGID_60_)" fill="none" stroke="#575757" stroke-width="0.7" stroke-miterlimit="10" points="
				227.694,134.296 233.866,129.371 238.93,129.371 245.053,134.296 			"/>
		</g>
	</g>
	<g opacity="0.6">
		<g>
			<defs>
				<rect id="SVGID_61_" x="49.049" y="161.068" width="43.605" height="3.079"/>
			</defs>
			<clipPath id="SVGID_62_">
				<use xlink:href="#SVGID_61_"  overflow="visible"/>
			</clipPath>
			
				<line clip-path="url(#SVGID_62_)" fill="none" stroke="#575757" stroke-width="0.7" stroke-miterlimit="10" x1="92.634" y1="161.418" x2="49.068" y2="163.798"/>
		</g>
	</g>
	<g opacity="0.6">
		<g>
			<defs>
				<rect id="SVGID_63_" x="133.486" y="72.908" width="87.247" height="78.251"/>
			</defs>
			<clipPath id="SVGID_64_">
				<use xlink:href="#SVGID_63_"  overflow="visible"/>
			</clipPath>
			<polyline clip-path="url(#SVGID_64_)" fill="none" stroke="#575757" stroke-width="0.7" stroke-miterlimit="10" points="
				220.422,73.069 210.5,92.317 195.858,94.727 163.588,134.709 133.652,150.851 			"/>
		</g>
	</g>
	<polyline fill="none" stroke="#575757" stroke-miterlimit="10" points="211.296,75.291 220.979,72.272 222.402,81.613 	"/>
	<g opacity="0.6">
		<g>
			<defs>
				<rect id="SVGID_65_" x="86.658" y="161.149" width="81.149" height="87.129"/>
			</defs>
			<clipPath id="SVGID_66_">
				<use xlink:href="#SVGID_65_"  overflow="visible"/>
			</clipPath>
			
				<line clip-path="url(#SVGID_66_)" fill="none" stroke="#575757" stroke-width="0.7" stroke-miterlimit="10" x1="88.145" y1="247.702" x2="88.145" y2="187.296"/>
			
				<line clip-path="url(#SVGID_66_)" fill="none" stroke="#575757" stroke-width="0.7" stroke-miterlimit="10" x1="94.034" y1="247.702" x2="94.034" y2="187.296"/>
			
				<line clip-path="url(#SVGID_66_)" fill="none" stroke="#575757" stroke-width="0.7" stroke-miterlimit="10" x1="101.496" y1="247.702" x2="101.496" y2="179.046"/>
			
				<line clip-path="url(#SVGID_66_)" fill="none" stroke="#575757" stroke-width="0.7" stroke-miterlimit="10" x1="114.914" y1="247.702" x2="114.914" y2="179.046"/>
			
				<line clip-path="url(#SVGID_66_)" fill="none" stroke="#575757" stroke-width="0.7" stroke-miterlimit="10" x1="105.672" y1="247.702" x2="105.672" y2="202.804"/>
			
				<rect x="132.491" y="167.63" clip-path="url(#SVGID_66_)" fill="none" stroke="#575757" stroke-width="0.7" stroke-miterlimit="10" width="34.966" height="46.199"/>
			
				<rect x="153.598" y="161.499" clip-path="url(#SVGID_66_)" fill="none" stroke="#575757" stroke-width="0.7" stroke-miterlimit="10" width="7.612" height="52.33"/>
			
				<rect x="138.887" y="161.499" clip-path="url(#SVGID_66_)" fill="none" stroke="#575757" stroke-width="0.7" stroke-miterlimit="10" width="7.612" height="52.33"/>
			
				<line clip-path="url(#SVGID_66_)" fill="none" stroke="#575757" stroke-width="0.7" stroke-miterlimit="10" x1="121.995" y1="248.278" x2="121.995" y2="187.358"/>
			
				<line clip-path="url(#SVGID_66_)" fill="none" stroke="#575757" stroke-width="0.7" stroke-miterlimit="10" x1="127.6" y1="248.278" x2="127.6" y2="186.787"/>
			
				<line clip-path="url(#SVGID_66_)" fill="none" stroke="#575757" stroke-width="0.7" stroke-miterlimit="10" x1="110.239" y1="247.702" x2="110.239" y2="202.804"/>
			<path clip-path="url(#SVGID_66_)" fill="none" stroke="#575757" stroke-width="0.7" stroke-miterlimit="10" d="M101.592,179.755
				c0,0-1.05-2.893-0.326-3.672c0.723-0.778,3.254-2.113,6.926-2.169s6.947,1.826,7.141,3.338c0.085,0.658-0.52,2.503-0.52,2.503
				H101.592z"/>
			<path clip-path="url(#SVGID_66_)" fill="none" stroke="#575757" stroke-width="0.7" stroke-miterlimit="10" d="M101.496,190.437
				c0,0-4.069-4.506-14.805-3.505"/>
			<path clip-path="url(#SVGID_66_)" fill="none" stroke="#575757" stroke-width="0.7" stroke-miterlimit="10" d="M114.914,190.437
				c0,0,3.748-4.506,14.485-3.505"/>
		</g>
	</g>
	<path fill="none" stroke="#575757" stroke-miterlimit="10" d="M123.6,173.665l-29.017-9.037c-1.484-0.462-2.313-2.039-1.851-3.523
		l6.431-20.65c0.462-1.484,2.04-2.312,3.524-1.85l29.017,9.036c1.484,0.462,2.313,2.04,1.851,3.524l-6.431,20.65
		C126.662,173.298,125.083,174.127,123.6,173.665z"/>
	<path fill="none" stroke="#575757" stroke-miterlimit="10" d="M98.177,143.619l0.566,5.46c0,0,0,3.358,0.93,3.823
		c0.93,0.466,26.634,8.551,26.634,8.551s0.801-0.594,2.661-2.661c1.86-2.065,3.523-4.214,3.523-4.214"/>
	<path fill="none" stroke="#575757" stroke-miterlimit="10" d="M108.523,140.421l0.723-2.163c0,0,0.535-2.576,3.13-1.835
		c2.595,0.742,12.331,3.751,12.331,3.751s2.743,0.674,2.023,3.184c-0.719,2.509-0.811,2.479-0.811,2.479"/>
	<circle fill="none" stroke="#575757" stroke-miterlimit="10" cx="191.603" cy="87.265" r="4.255"/>
	<path fill="#F79752" d="M161.209,94.727l4.477,6.426c0,0,4.189,8.434,12.852,2.352c8.664-6.082,14.918-10.557,14.918-10.557
		l-6.599-9.524l-13.138,8.893l-10.902-15.95c0,0-3.504-5.762-4.638-7.052"/>
	<path fill="none" stroke="#575757" stroke-miterlimit="10" d="M161.209,94.727l4.477,6.426c0,0,4.189,8.434,12.852,2.352
		c8.664-6.082,14.918-10.557,14.918-10.557l-6.599-9.524l-13.138,8.893l-10.902-15.95c0,0-3.504-5.762-4.638-7.052"/>
	<line fill="none" stroke="#575757" stroke-miterlimit="10" x1="173.719" y1="92.317" x2="175.039" y2="94.727"/>
	<path fill="none" stroke="#575757" stroke-miterlimit="10" d="M154.596,38.801c0,0,3.634,2.595,3.583,7.012
		c-0.049,4.417,0,10.877,0,10.877s0.211,8.023-9.719,6.993l-7.667-0.449V40.015c0,0,0.552-7.122,6.791-7.398
		c6.239-0.276,12.036,0,12.036,0L154.596,38.801z"/>
	<path fill="#575757" d="M140.792,54.978h5.245c0,0-2.631-0.548-2.304-2.472c0.199-1.175,1.863-1.268,1.863-1.268l1.104-10.615
		c0,0,13.527,2.098,12.92-8.006h-13.196c0,0-5.632-0.276-5.632,6.625V54.978z"/>
	<path fill="none" stroke="#575757" stroke-miterlimit="10" d="M149.294,58.141c0,0,1.941,1.633,4.961,0.37"/>
	<path fill="none" stroke="#575757" stroke-miterlimit="10" d="M153.054,46.647l1.911,5.947c0,0,0.677,1.818-0.956,1.726
		l-1.417,0.003"/>
	<path fill="#575757" d="M156.683,46.574c0,0.436-0.354,0.789-0.79,0.789c-0.435,0-0.789-0.353-0.789-0.789s0.354-0.79,0.789-0.79
		C156.329,45.784,156.683,46.138,156.683,46.574"/>
	<path fill="#575757" d="M150.216,46.574c0,0.436-0.354,0.789-0.79,0.789c-0.435,0-0.789-0.353-0.789-0.789s0.354-0.79,0.789-0.79
		C149.862,45.784,150.216,46.138,150.216,46.574"/>
	<path fill="#575757" d="M183.648,186.579c0,0,2.688,4.339,5.941,5.941c3.254,1.604,9.903,2.924,10.468,3.678
		c0.566,0.755,0.707,2.358-0.99,2.923c-1.697,0.566-13.91,0-13.91,0s-11.411-4.337-11.647-4.62c-0.236-0.282,0.286-7.41,0.286-7.41
		L183.648,186.579z"/>
	<path fill="#575757" d="M138.004,210.58c0,0,1.556,3.584,4.102,4.999c2.547,1.414,7.498,3.395,9.384,4.148
		c1.886,0.755,3.253,0.566,3.253,2.075s-2.027,2.027-3.819,2.074s-11.034-0.188-11.034-0.188s-12.071-4.291-12.26-4.527
		c-0.188-0.236,0.558-7.687,0.558-7.687L138.004,210.58z"/>
	<g opacity="0.8">
		<g>
			<defs>
				<rect id="SVGID_67_" x="127.1" y="150.314" width="156.45" height="97.964"/>
			</defs>
			<clipPath id="SVGID_68_">
				<use xlink:href="#SVGID_67_"  overflow="visible"/>
			</clipPath>
			<polyline clip-path="url(#SVGID_68_)" fill="none" stroke="#575757" stroke-miterlimit="10" points="283.549,150.814 
				257.774,150.814 257.774,174.649 214.632,174.649 214.632,198.854 171.212,199.373 171.212,223.884 127.6,223.884 127.6,248.277 
							"/>
		</g>
	</g>
	<line fill="none" stroke="#9C9C9D" stroke-miterlimit="10" x1="51.102" y1="248.278" x2="266.051" y2="248.278"/>
	<line fill="none" stroke="#9C9C9D" stroke-miterlimit="10" x1="81.719" y1="255.771" x2="140.018" y2="255.771"/>
	<line fill="none" stroke="#9C9C9D" stroke-miterlimit="10" x1="117.687" y1="263.263" x2="178.813" y2="263.263"/>
	<line fill="none" stroke="#9C9C9D" stroke-miterlimit="10" x1="147.567" y1="255.771" x2="200.442" y2="255.771"/>
	<line fill="none" stroke="#9C9C9D" stroke-miterlimit="10" x1="208.172" y1="255.771" x2="218.658" y2="255.771"/>
	<path fill="#FFFFFF" d="M123.689,137.6l1.998-4.879l-7.533-4.221c0,0-2.892,6.213-2.975,6.445l-0.008,0.015l0.002,0.001
		c-0.187,0.524-0.28,1.091-0.256,1.681c0.103,2.462,2.182,4.375,4.644,4.272c1.595-0.066,2.955-0.964,3.691-2.255l0.003,0.001
		l0.007-0.017c0.112-0.199,0.212-0.406,0.293-0.623C123.606,137.882,123.651,137.743,123.689,137.6"/>
	<path fill="none" stroke="#575757" stroke-miterlimit="10" d="M123.689,137.6l1.998-4.879l-7.533-4.221
		c0,0-2.892,6.213-2.975,6.445l-0.008,0.015l0.002,0.001c-0.187,0.524-0.28,1.091-0.256,1.681c0.103,2.462,2.182,4.375,4.644,4.272
		c1.595-0.066,2.955-0.964,3.691-2.255l0.003,0.001l0.007-0.017c0.112-0.199,0.212-0.406,0.293-0.623
		C123.606,137.882,123.651,137.743,123.689,137.6z"/>
	<line fill="none" stroke="#9C9C9D" stroke-miterlimit="10" x1="99.754" y1="263.263" x2="110.239" y2="263.263"/>
	<line fill="none" stroke="#9C9C9D" stroke-miterlimit="10" x1="186.945" y1="263.263" x2="213.415" y2="263.263"/>
	<line fill="none" stroke="#9C9C9D" stroke-miterlimit="10" x1="223.9" y1="255.771" x2="245.5" y2="255.771"/>
	<polygon fill="#575757" points="143.13,134.708 139.26,172.29 128.188,211.742 138.4,211.742 153.342,174.979 161.209,140.917 	"/>
	<g>
		<defs>
			<polygon id="SVGID_69_" points="139.26,172.29 128.187,211.743 138.4,211.743 153.342,174.979 161.208,140.917 143.13,134.708 
							"/>
		</defs>
		<clipPath id="SVGID_70_">
			<use xlink:href="#SVGID_69_"  overflow="visible"/>
		</clipPath>
		<polygon clip-path="url(#SVGID_70_)" fill="#575757" points="135.995,144.938 163.276,153.764 167.555,136.111 144.821,128.071 
			139.204,129.793 		"/>
	</g>
	<path fill="#F79752" d="M136.739,68.007l-22.511,64.38l11.854,3.915l10.657-29.798v17.074l24.469-0.109V78.121
		c0,0,0.326-10.875-11.201-14.029C150.007,64.092,139.363,60.503,136.739,68.007"/>
	<line fill="#ECA843" x1="148.702" y1="72.139" x2="136.37" y2="107.537"/>
	<path fill="#575757" d="M136.739,123.578c0,0-0.221,8.691,3.973,11.131s36.167,13.563,36.167,13.563l-3.1,39.024h10.212
		l8.267-41.03c0,0,1.763-5.227-2.857-7.841c-4.62-2.614-28.192-15.561-28.192-15.561L136.739,123.578z"/>
	<path fill="none" stroke="#575757" stroke-miterlimit="10" d="M113.422,160.666l-2.929-0.844c-1.546-0.446-2.438-2.06-1.993-3.605
		c0.446-1.546,2.06-2.439,3.607-1.993l2.928,0.844c1.546,0.445,2.439,2.059,1.993,3.606
		C116.583,160.22,114.968,161.111,113.422,160.666z"/>
	<path fill="#575757" d="M113,158.601l-1.051-0.303c-0.555-0.159-0.876-0.739-0.716-1.294s0.74-0.876,1.295-0.716l1.051,0.303
		c0.555,0.16,0.875,0.739,0.715,1.295C114.135,158.441,113.555,158.761,113,158.601"/>
	<path fill="none" stroke="#575757" stroke-miterlimit="10" d="M136.739,68.007l-22.511,64.38l11.854,3.915l10.657-29.798v17.074
		l24.469-0.109V78.121c0,0,0.326-10.875-11.201-14.029C150.007,64.092,139.363,60.503,136.739,68.007z"/>
	<line fill="none" stroke="#575757" stroke-miterlimit="10" x1="148.702" y1="72.139" x2="136.37" y2="107.537"/>
	<path fill="#9C9C9D" d="M41.086,138.057H16.207c-0.199,0-0.362-0.163-0.362-0.362v-0.466c0-0.199,0.163-0.362,0.362-0.362h24.879
		c0.199,0,0.362,0.163,0.362,0.362v0.466C41.448,137.894,41.285,138.057,41.086,138.057"/>
	<path fill="#9C9C9D" d="M51.709,131.31H36.997c-0.199,0-0.362-0.163-0.362-0.362v-0.466c0-0.199,0.163-0.362,0.362-0.362h14.712
		c0.199,0,0.362,0.163,0.362,0.362v0.466C52.071,131.147,51.908,131.31,51.709,131.31"/>
	<path fill="#9C9C9D" d="M34.808,131.31h-4.545c-0.199,0-0.362-0.163-0.362-0.362v-0.466c0-0.199,0.163-0.362,0.362-0.362h4.545
		c0.199,0,0.362,0.163,0.362,0.362v0.466C35.17,131.147,35.007,131.31,34.808,131.31"/>
	<path fill="#9C9C9D" d="M85.554,43.165h24.715c0.2,0,0.362-0.163,0.362-0.362v-0.458c0-0.2-0.162-0.362-0.362-0.362H85.554
		c-0.199,0-0.362,0.162-0.362,0.362v0.458C85.192,43.001,85.355,43.165,85.554,43.165"/>
	<path fill="#9C9C9D" d="M74.999,36.46h14.614c0.199,0,0.362-0.163,0.362-0.362V35.64c0-0.199-0.163-0.362-0.362-0.362H74.999
		c-0.199,0-0.362,0.163-0.362,0.362v0.458C74.637,36.297,74.8,36.46,74.999,36.46"/>
	<path fill="#9C9C9D" d="M91.792,36.46h4.512c0.199,0,0.362-0.163,0.362-0.362V35.64c0-0.199-0.163-0.362-0.362-0.362h-4.512
		c-0.199,0-0.362,0.163-0.362,0.362v0.458C91.43,36.297,91.593,36.46,91.792,36.46"/>
	<circle fill="none" stroke="#575757" stroke-miterlimit="10" cx="193.836" cy="47.841" r="2.261"/>
	<circle fill="none" stroke="#575757" stroke-miterlimit="10" cx="32.705" cy="239.933" r="2.261"/>
	<circle fill="none" stroke="#575757" stroke-miterlimit="10" cx="86.691" cy="101.175" r="2.949"/>
	<line fill="none" stroke="#F68D52" stroke-miterlimit="10" x1="220.927" y1="42.652" x2="227.788" y2="42.652"/>
	<line fill="none" stroke="#F68D52" stroke-miterlimit="10" x1="224.357" y1="46.083" x2="224.357" y2="39.222"/>
	<line fill="none" stroke="#F68D52" stroke-miterlimit="10" x1="0" y1="188.611" x2="6.861" y2="188.611"/>
	<line fill="none" stroke="#F68D52" stroke-miterlimit="10" x1="3.431" y1="192.042" x2="3.431" y2="185.181"/>
	<line fill="none" stroke="#F68D52" stroke-miterlimit="10" x1="30.505" y1="74.869" x2="37.412" y2="74.869"/>
	<line fill="none" stroke="#F68D52" stroke-miterlimit="10" x1="33.958" y1="78.322" x2="33.958" y2="71.417"/>
</g>
</svg>
