<?xml version="1.0" encoding="utf-8"?>
<!-- Generator: Adobe Illustrator 16.0.0, SVG Export Plug-In . SVG Version: 6.00 Build 0)  -->
<!DOCTYPE svg PUBLIC "-//W3C//DTD SVG 1.1//EN" "http://www.w3.org/Graphics/SVG/1.1/DTD/svg11.dtd">
<svg version="1.1" id="Layer_1" xmlns="http://www.w3.org/2000/svg" xmlns:xlink="http://www.w3.org/1999/xlink" x="0px" y="0px"
	 width="108.818px" height="23.242px" viewBox="0 0 108.818 23.242" enable-background="new 0 0 108.818 23.242"
	 xml:space="preserve">
<g>
	<path fill="#634D88" d="M56.735,6.291c-1.286,0.878-2.088,1.994-2.081,3.738c0.018,2.13,3.602,3.72,3.602,3.72
		c1.929,0.963,1.042,2.325-0.329,2.076c-1.197-0.222-2.15-0.778-2.935-1.342c-0.273-0.204-0.75-0.056-0.76,0.513
		c-0.006,0.317-0.007,1.171-0.007,1.171c0,0.262,0.17,0.521,0.422,0.764c0.622,0.606,2.093,1.788,5.206,1.788
		c2.273,0,4.816-0.942,5.122-3.843c0.157-1.456-0.762-3.22-3.79-4.507c-1.063-0.453-1.537-0.95-1.229-1.645
		c0.279-0.663,1.358-0.772,2.335-0.319c1.108,0.506,2.071-1.251,1.073-1.91C61.093,5.007,58.384,5.159,56.735,6.291"/>
	<path fill="#634D88" d="M100.559,6.291c-1.283,0.878-2.083,1.994-2.075,3.738c0.016,2.13,3.599,3.72,3.599,3.72
		c1.929,0.963,1.048,2.325-0.326,2.076c-1.208-0.222-2.15-0.778-2.938-1.342c-0.277-0.204-0.754-0.056-0.763,0.513
		c-0.002,0.317-0.002,1.171-0.002,1.171c-0.001,0.262,0.172,0.521,0.427,0.764c0.621,0.606,2.087,1.788,5.203,1.788
		c2.274,0,4.805-0.942,5.117-3.843c0.163-1.456-0.759-3.22-3.79-4.507c-1.059-0.453-1.537-0.95-1.234-1.645
		c0.292-0.663,1.364-0.772,2.342-0.319c1.108,0.506,2.069-1.251,1.073-1.91C104.918,5.007,102.204,5.159,100.559,6.291"/>
	<path fill="#634D88" d="M41.076,18.592c-1.708,0.112-2.618-0.298-2.728-1.224c-0.345-2.962-0.075-6.324,0.101-7.294
		c0.063-0.382,0.157-1.734,2.293-1.661c1.16,0.038,1.803,0.271,2.105,0.604c0.186,0.201,0.252,0.486,0.217,0.891
		c-0.095,1.088-0.146,4.812,0.282,6.735c0.1,0.456,0.038,0.846-0.185,1.146C42.922,18.11,42.366,18.505,41.076,18.592"/>
	<path fill="#634D88" d="M38.945,6.105c0-0.382,0.16-0.741,0.461-1.047c0.403-0.401,1.012-0.635,1.653-0.635
		c0.645,0,1.256,0.233,1.661,0.635c0.294,0.306,0.456,0.665,0.456,1.047c0,0.931-0.951,1.684-2.116,1.684
		c-0.641,0-1.25-0.231-1.653-0.635C39.104,6.854,38.945,6.493,38.945,6.105"/>
	<path fill="#634D88" d="M53.506,6.538c-0.138-0.344-0.47-0.822-1.603-0.97c-1.181-0.142-4.089,0.022-5.449,0.398
		c-1.514,0.414-1.692,1.5-1.832,2.376c-0.166,1.015-0.448,4.761,0.091,7.875c0.161,0.956,0.646,1.482,1.721,1.885
		c1.294,0.486,5.058,0.639,5.917,0.24c0.566-0.23,0.655-0.635,0.699-0.724c0.178-0.349,0.419-1.243,0.419-2.019
		c0-0.186-0.058-0.318-0.179-0.414c-0.206-0.165-0.558-0.165-0.729-0.129c-0.522,0.113-1.634,0.118-2.822,0.113
		c0,0-0.349,0.014-0.514-0.183c-0.08-0.099-0.141-0.261-0.129-0.409l0.047-0.531c0.023-0.282,0.256-0.495,0.536-0.486
		c0.969,0.011,2.945-0.162,3.048-0.178c0.16-0.016,0.412-0.248,0.465-0.511c0.047-0.198,0.097-0.794,0.109-1.288
		c0.006-0.439-0.551-0.533-0.564-0.533c-0.165-0.028-1.635-0.256-2.745-0.361c-0.151-0.013-0.283-0.097-0.372-0.212
		c-0.095-0.118-0.127-0.271-0.101-0.42c0.021-0.131,0.046-0.282,0.072-0.452c0.043-0.271,0.282-0.469,0.56-0.451
		c0.643,0.032,1.827,0.094,2.575,0.156c0.933,0.074,1.083-0.304,1.169-0.771C53.984,8.1,53.661,6.902,53.506,6.538"/>
	<path fill="#634D88" d="M85.92,14.031c0.034-4.126,1.861-7.336,2.073-7.701c0.414-0.703,0.927-0.688,1.413-0.522
		c0.582,0.191,1.646,0.507,2.032,0.688c0.356,0.167,0.534,0.662,0.307,1.207c-0.265,0.616-1.458,2.875-1.598,4.98
		c-0.095,1.436,1.384,2.991,3.152,0.544c1.77-2.446,1.479-5.892,1.479-6.345c0-0.458,0.172-0.915,0.763-0.996
		c0.599-0.078,1.263-0.117,1.477-0.117c0.516,0,0.835,0.285,0.883,0.826c0.179,2.09-0.053,8.324-4.261,11.079
		C89.967,20.075,85.884,18.003,85.92,14.031"/>
	<path fill="#634D88" d="M33.401,15.125c-0.583,0.617-1.898,0.63-3.307,0.581c0,0-0.116,0.009-0.212-0.005
		c-0.061-0.014-0.06-0.075-0.06-0.075l0.004-0.203l0.105-2.226c0,0,0.002-0.118,0.002-0.17c0-0.055,0.06-0.065,0.06-0.065
		l0.167-0.021c0.092-0.017,2.247-0.293,3.145,0.423c0.238,0.193,0.382,0.445,0.408,0.744C33.757,14.52,33.652,14.869,33.401,15.125
		 M29.82,8.254c0.001-0.037,0.006-0.062,0.02-0.073c0.039-0.025,0.177-0.042,0.198-0.048V8.13c0.086-0.02,2.106-0.405,2.907,0.159
		c0.208,0.144,0.331,0.341,0.367,0.566c0.045,0.31-0.051,0.61-0.284,0.869c-0.507,0.57-1.581,0.88-2.886,0.837
		c0,0-0.133-0.007-0.193-0.007c-0.063,0-0.066-0.065-0.066-0.065l-0.003-0.187l-0.057-1.898C29.822,8.405,29.808,8.321,29.82,8.254
		 M37.566,14.425c-0.087-2.01-1.859-2.646-2.893-3.015c-0.123-0.04-0.302-0.083-0.41-0.125c-0.125-0.041-0.117-0.082,0.005-0.139
		c0.12-0.062,0.348-0.179,0.348-0.179c0.498-0.231,2.088-1.178,1.811-3.017c-0.336-2.2-3.174-2.62-4.041-2.702l-0.013-0.003
		c-0.929-0.08-3.429-0.055-5.185,0.565c-0.854,0.298-1.014,0.968-1.129,1.454l-0.039,0.143c-0.731,2.847-0.494,7.688,0.488,10.156
		c0.004,0.014,0.006,0.017,0.009,0.026l0.005,0.014c0.005,0.015,0.12,0.445,0.701,0.587c5.335,1.244,7.918-0.049,8.981-0.931
		C37.133,16.493,37.618,15.485,37.566,14.425"/>
	<path fill="#634D88" d="M7.805,15.125c-0.582,0.617-1.901,0.63-3.311,0.581c0,0-0.113,0.009-0.206-0.005
		c-0.07-0.014-0.069-0.075-0.069-0.075l0.012-0.203l0.101-2.226c0,0,0.005-0.118,0.005-0.17c0-0.055,0.061-0.065,0.061-0.065
		l0.169-0.021h0.003c0.091-0.017,2.236-0.293,3.135,0.423c0.248,0.193,0.385,0.445,0.411,0.744
		C8.155,14.52,8.05,14.869,7.805,15.125 M4.218,8.254C4.22,8.217,4.227,8.193,4.241,8.181C4.285,8.156,4.415,8.139,4.44,8.133V8.13
		c0.085-0.02,2.109-0.405,2.912,0.159c0.205,0.144,0.326,0.341,0.36,0.566c0.047,0.31-0.047,0.61-0.281,0.869
		c-0.501,0.57-1.583,0.88-2.884,0.837c0,0-0.136-0.007-0.196-0.007c-0.06,0-0.062-0.065-0.062-0.065S4.211,8.321,4.218,8.254
		 M11.968,14.425c-0.084-2.01-1.856-2.646-2.895-3.015c-0.111-0.04-0.298-0.083-0.41-0.125c-0.122-0.041-0.109-0.082,0.007-0.139
		c0.12-0.062,0.353-0.179,0.353-0.179c0.496-0.231,2.081-1.178,1.799-3.017c-0.322-2.2-3.167-2.62-4.029-2.702
		C6.774,5.247,6.774,5.247,6.778,5.247c-0.933-0.08-3.427-0.055-5.181,0.565C0.736,6.11,0.58,6.78,0.457,7.266L0.421,7.409
		c-0.72,2.847-0.491,7.688,0.489,10.156c0.006,0.014,0.012,0.017,0.013,0.026l0.002,0.014C0.929,17.62,1.04,18.05,1.63,18.192
		c5.333,1.244,7.916-0.049,8.979-0.931C11.534,16.493,12.021,15.485,11.968,14.425"/>
	<path fill="#634D88" d="M20.37,14.348c-0.822,0.107-2.036,0.133-2.887,0.063c-0.099-0.009-0.085-0.082-0.06-0.148
		c0.025-0.057,1.4-3.193,1.438-3.279c0.047-0.113,0.084-0.12,0.125,0.002c0.021,0.043,1.463,3.215,1.454,3.215
		C20.458,14.235,20.502,14.333,20.37,14.348 M25.383,16.035c-0.02-0.057-0.035-0.114-0.05-0.175
		c-0.929-3.551-3.091-7.909-4.264-9.734c-0.408-0.635-0.64-0.75-2.351-0.661c-1.609,0.083-2.115,0.741-2.614,1.598
		c-2.168,3.407-3.983,9.563-3.998,9.626c-0.212,0.748-0.178,0.969,1.907,1.649c0.897,0.296,1.495,0.348,1.813,0.161
		c0.205-0.121,0.283-0.351,0.336-0.651c0.032-0.149,0.117-0.438,0.258-0.855l0.036-0.11c0,0,0.028-0.054,0.079-0.043
		c0.053,0.007,0.112,0.017,0.112,0.017c1.155,0.19,2.878,0.055,4.292-0.342c0,0,0.065-0.021,0.123-0.037
		c0.063-0.019,0.081,0.049,0.081,0.049l0.046,0.126c0.232,0.741,0.399,1.303,0.462,1.529c0.05,0.206,0.161,0.34,0.326,0.402
		c0.291,0.116,0.917,0.071,2.241-0.777C25.627,16.89,25.515,16.497,25.383,16.035"/>
	<path fill="#634D88" d="M79.885,7.829c0,0-1.766,1.213-1.81,1.245c-0.152,0.114-0.358,0.256-0.387,0.817
		c-0.016,0.233-0.078,1.885-0.08,2.092c-0.004,0.227-0.105,0.851-0.825,0.217c0,0-1.205-1.054-1.383-1.21
		c-0.042-0.035-0.451-0.504-1.098-0.229l-1.887,0.754c0,0-1.133,0.463-0.71-0.556c0.406-0.991,0.684-1.814,0.774-2.077
		c0.092-0.278,0.061-0.67-0.169-0.942c-0.104-0.124-1.01-1.32-1.219-1.619c0,0-0.744-0.884,0.497-0.822c0,0,2.118,0.049,2.154,0.05
		c0.031,0.004,0.429,0.029,0.711-0.413c0.347-0.551,1.37-1.831,1.159-1.561c0.177-0.224,0.595-0.786,0.869,0.145
		c0,0,0.389,1.222,0.576,1.736c0.124,0.347,0.205,0.585,0.834,0.784l1.944,0.706C79.835,6.946,80.746,7.224,79.885,7.829
		 M83.531,2.408c-4.996-2.575-9.928-2.847-12.99-1.925c-5.673,1.699-7.428,8.905-2.177,12.438c0.317,0.212,0.119,0.66-0.279,1.377
		c-0.493,0.896-1.407,2.65-3.022,3.922c-0.971,0.764-1.601,1.079-0.802,2.021c0,0,1.776,1.992,3.091,2.57
		c1.58,0.694,1.977,0.575,3.153-0.528c0.74-0.692,2.208-2.585,3.977-5.605c0.923-1.566,2.149-1.596,1.982,0.982
		c0,0-0.242,2.484-0.311,2.997c-0.197,1.48-0.043,1.991,1.285,2.008c0,0,2.849-0.156,3.837-0.299
		c1.392-0.188,1.315-0.414,1.679-1.511C84.897,15,85.067,4.947,85.067,4.947C85.15,3.598,84.725,3.023,83.531,2.408"/>
</g>
</svg>
