<?xml version="1.0" encoding="utf-8"?>
<!-- Generator: Adobe Illustrator 16.0.0, SVG Export Plug-In . SVG Version: 6.00 Build 0)  -->
<!DOCTYPE svg PUBLIC "-//W3C//DTD SVG 1.1//EN" "http://www.w3.org/Graphics/SVG/1.1/DTD/svg11.dtd">
<svg version="1.1" id="Layer_1" xmlns="http://www.w3.org/2000/svg" xmlns:xlink="http://www.w3.org/1999/xlink" x="0px" y="0px"
	 width="156.75px" height="21.063px" viewBox="0 0 156.75 21.063" enable-background="new 0 0 156.75 21.063" xml:space="preserve">
<g>
	<g>
		<path fill="#FFFFFF" d="M104.983,12.581c0.541-0.11,1.314-0.172,2.051-0.172c1.142,0,1.879,0.209,2.395,0.676
			c0.418,0.368,0.651,0.933,0.651,1.572c0,1.093-0.688,1.818-1.56,2.112v0.037c0.639,0.221,1.02,0.811,1.216,1.67
			c0.271,1.155,0.467,1.953,0.639,2.272h-1.105c-0.135-0.233-0.319-0.946-0.553-1.978c-0.246-1.143-0.688-1.572-1.658-1.609h-1.007
			v3.587h-1.068V12.581z M106.051,16.352h1.093c1.143,0,1.867-0.626,1.867-1.572c0-1.069-0.774-1.535-1.904-1.548
			c-0.516,0-0.884,0.049-1.057,0.099V16.352z"/>
		<path fill="#FFFFFF" d="M116.186,16.868h-3.218v2.985h3.587v0.896h-4.655v-8.279h4.471v0.896h-3.403v2.616h3.218V16.868z"/>
		<path fill="#FFFFFF" d="M119.601,20.75l-2.101-8.279h1.13l0.982,4.188c0.246,1.032,0.467,2.063,0.614,2.862h0.024
			c0.135-0.823,0.393-1.806,0.676-2.874l1.105-4.176h1.118l1.007,4.201c0.233,0.983,0.455,1.965,0.577,2.837h0.025
			c0.172-0.909,0.405-1.83,0.663-2.862l1.093-4.176h1.093l-2.346,8.279h-1.118l-1.044-4.312c-0.258-1.056-0.43-1.867-0.541-2.702
			h-0.025c-0.147,0.823-0.332,1.634-0.639,2.702l-1.179,4.312H119.601z"/>
		<path fill="#FFFFFF" d="M130.277,18.146l-0.86,2.604h-1.105l2.813-8.279h1.29l2.825,8.279h-1.142l-0.885-2.604H130.277z
			 M132.991,17.31l-0.811-2.383c-0.184-0.541-0.307-1.032-0.43-1.511h-0.025c-0.123,0.491-0.258,0.995-0.417,1.499l-0.811,2.395
			H132.991z"/>
		<path fill="#FFFFFF" d="M136.751,12.581c0.541-0.11,1.314-0.172,2.051-0.172c1.143,0,1.879,0.209,2.395,0.676
			c0.418,0.368,0.651,0.933,0.651,1.572c0,1.093-0.688,1.818-1.56,2.112v0.037c0.639,0.221,1.02,0.811,1.216,1.67
			c0.271,1.155,0.467,1.953,0.639,2.272h-1.105c-0.135-0.233-0.319-0.946-0.553-1.978c-0.246-1.143-0.688-1.572-1.658-1.609h-1.007
			v3.587h-1.068V12.581z M137.819,16.352h1.093c1.143,0,1.867-0.626,1.867-1.572c0-1.069-0.774-1.535-1.904-1.548
			c-0.516,0-0.884,0.049-1.057,0.099V16.352z"/>
		<path fill="#FFFFFF" d="M143.667,12.581c0.651-0.098,1.425-0.172,2.272-0.172c1.535,0,2.628,0.356,3.353,1.032
			c0.737,0.676,1.167,1.634,1.167,2.973c0,1.351-0.417,2.457-1.191,3.218c-0.774,0.774-2.051,1.191-3.66,1.191
			c-0.762,0-1.4-0.037-1.941-0.098V12.581z M144.735,19.902c0.271,0.049,0.664,0.062,1.081,0.062c2.285,0,3.525-1.277,3.525-3.513
			c0.012-1.953-1.093-3.193-3.354-3.193c-0.553,0-0.97,0.049-1.253,0.11V19.902z"/>
		<path fill="#FFFFFF" d="M152.008,19.447c0.479,0.295,1.179,0.541,1.916,0.541c1.093,0,1.732-0.577,1.732-1.413
			c0-0.773-0.442-1.216-1.56-1.646c-1.352-0.479-2.187-1.179-2.187-2.346c0-1.29,1.068-2.248,2.678-2.248
			c0.848,0,1.461,0.196,1.83,0.405l-0.295,0.872c-0.27-0.147-0.823-0.393-1.572-0.393c-1.13,0-1.56,0.676-1.56,1.241
			c0,0.774,0.504,1.155,1.646,1.597c1.4,0.541,2.113,1.216,2.113,2.432c0,1.277-0.946,2.383-2.899,2.383
			c-0.798,0-1.67-0.233-2.112-0.528L152.008,19.447z"/>
	</g>
	<path fill="#FFFFFF" d="M29.151,4.77c0.967,0,1.903,0.17,2.78,0.505c0.88,0.336,1.728,0.849,2.522,1.525l0.609,0.519l0.216-3.985
		l-0.182-0.126c-0.935-0.646-1.913-1.134-2.909-1.454c-0.998-0.319-2.061-0.482-3.159-0.482c-1.395,0-2.711,0.24-3.913,0.713
		c-1.206,0.475-2.29,1.184-3.221,2.106c-0.932,0.915-1.654,1.993-2.146,3.203c-0.491,1.208-0.739,2.516-0.739,3.886
		c0,1.371,0.248,2.682,0.739,3.898c0.492,1.219,1.205,2.292,2.12,3.19c0.925,0.916,2.012,1.619,3.231,2.089
		c1.214,0.469,2.552,0.706,3.978,0.706c1.12,0,2.176-0.147,3.14-0.437c0.969-0.291,1.876-0.738,2.699-1.33l0.165-0.118v-4.39
		l-0.654,0.564c-0.851,0.733-1.75,1.288-2.672,1.648c-0.917,0.359-1.897,0.541-2.913,0.541c-1.739,0-3.139-0.582-4.277-1.779
		c-1.129-1.186-1.701-2.72-1.701-4.557c0-1.901,0.588-3.466,1.747-4.652C25.767,5.37,27.295,4.77,29.151,4.77"/>
	<path fill="#FFFFFF" d="M48.231,4.77c0.967,0,1.903,0.17,2.78,0.505c0.88,0.336,1.728,0.849,2.522,1.525l0.609,0.519l0.216-3.985
		l-0.183-0.126c-0.934-0.646-1.912-1.134-2.908-1.454c-0.998-0.319-2.061-0.482-3.159-0.482c-1.395,0-2.711,0.24-3.913,0.713
		c-1.206,0.475-2.29,1.184-3.221,2.106c-0.932,0.915-1.655,1.993-2.146,3.203c-0.491,1.208-0.739,2.516-0.739,3.886
		c0,1.371,0.248,2.682,0.739,3.898c0.491,1.219,1.205,2.292,2.12,3.19c0.925,0.916,2.012,1.619,3.231,2.089
		c1.214,0.469,2.552,0.706,3.978,0.706c1.12,0,2.176-0.147,3.14-0.437c0.969-0.291,1.876-0.738,2.699-1.33l0.165-0.118v-4.39
		l-0.654,0.564c-0.851,0.733-1.75,1.288-2.672,1.648c-0.917,0.359-1.897,0.541-2.913,0.541c-1.739,0-3.139-0.582-4.277-1.779
		c-1.129-1.186-1.701-2.72-1.701-4.557c0-1.901,0.588-3.466,1.747-4.652C44.847,5.37,46.375,4.77,48.231,4.77"/>
	<polygon fill="#FFFFFF" points="57.038,20.582 67.922,20.582 67.922,17.158 60.77,17.158 60.77,12.107 67.922,12.107 67.922,8.733 
		60.77,8.733 60.77,4.993 67.922,4.993 67.922,1.706 57.038,1.706 	"/>
	<path fill="#FFFFFF" d="M78.527,9.349c-0.089-0.041-0.211-0.097-0.368-0.172c-1.88-0.864-2.833-1.765-2.833-2.679
		c0-0.578,0.184-1.022,0.564-1.358c0.394-0.349,0.924-0.519,1.621-0.519c0.49,0,0.91,0.111,1.283,0.338
		c0.378,0.23,0.736,0.608,1.064,1.122l0.194,0.305l2.927-1.511l-0.117-0.327c-0.377-1.05-1.063-1.866-2.041-2.427
		c-0.954-0.547-2.147-0.824-3.544-0.824c-1.717,0-3.131,0.496-4.202,1.475c-1.082,0.988-1.63,2.291-1.63,3.874
		c0,1.228,0.366,2.284,1.088,3.14c0.706,0.838,2.051,1.733,4.127,2.745c0.127,0.056,0.311,0.144,0.558,0.267
		c1.604,0.757,2.417,1.593,2.417,2.483c0,0.708-0.212,1.252-0.648,1.664c-0.442,0.418-1.034,0.62-1.809,0.62
		c-0.834,0-1.521-0.189-2.043-0.562c-0.521-0.373-0.871-0.905-1.071-1.63l-0.124-0.45l-3.063,1.419l0.072,0.313
		c0.325,1.408,1.028,2.508,2.088,3.271c1.048,0.755,2.4,1.137,4.017,1.137c1.932,0,3.494-0.545,4.643-1.62
		c1.158-1.082,1.745-2.553,1.745-4.372c0-1.268-0.369-2.346-1.095-3.202C81.636,11.03,80.387,10.206,78.527,9.349"/>
	<path fill="#FFFFFF" d="M97.706,11.869c-0.711-0.838-1.96-1.662-3.82-2.519c-0.089-0.041-0.211-0.098-0.368-0.172
		c-1.88-0.864-2.833-1.766-2.833-2.679c0-0.579,0.184-1.023,0.564-1.359c0.394-0.348,0.924-0.518,1.621-0.518
		c0.491,0,0.91,0.11,1.283,0.337c0.378,0.231,0.736,0.609,1.064,1.123l0.195,0.305l2.927-1.511L98.22,4.549
		c-0.377-1.05-1.063-1.867-2.041-2.427c-0.954-0.547-2.147-0.825-3.544-0.825c-1.717,0-3.131,0.496-4.202,1.475
		c-1.082,0.989-1.63,2.292-1.63,3.875c0,1.227,0.366,2.284,1.088,3.14c0.706,0.837,2.051,1.732,4.127,2.744
		c0.128,0.056,0.311,0.144,0.559,0.268c1.603,0.757,2.416,1.592,2.416,2.483c0,0.708-0.212,1.252-0.648,1.663
		c-0.442,0.418-1.034,0.621-1.809,0.621c-0.834,0-1.521-0.189-2.043-0.563c-0.521-0.372-0.872-0.905-1.071-1.629l-0.125-0.451
		l-3.063,1.419l0.073,0.314c0.325,1.407,1.028,2.508,2.088,3.271c1.048,0.754,2.4,1.136,4.017,1.136c1.932,0,3.494-0.545,4.644-1.62
		c1.157-1.081,1.743-2.553,1.743-4.371C98.799,13.803,98.432,12.726,97.706,11.869"/>
	<polygon fill="#F68D52" points="9.781,0 9.774,0.015 9.768,0 0,20.996 4.11,20.996 4.71,20.996 7.354,15.165 4.9,13.324 
		8.189,13.324 9.729,9.927 9.774,9.787 9.82,9.927 11.36,13.324 14.649,13.324 12.195,15.165 14.838,20.996 15.439,20.996 
		19.548,20.996 	"/>
</g>
</svg>
