<?xml version="1.0" encoding="utf-8"?>
<!-- Generator: Adobe Illustrator 16.0.0, SVG Export Plug-In . SVG Version: 6.00 Build 0)  -->
<!DOCTYPE svg PUBLIC "-//W3C//DTD SVG 1.1//EN" "http://www.w3.org/Graphics/SVG/1.1/DTD/svg11.dtd">
<svg version="1.1" id="Layer_1" xmlns="http://www.w3.org/2000/svg" xmlns:xlink="http://www.w3.org/1999/xlink" x="0px" y="0px"
	 width="124.17px" height="30.023px" viewBox="0 0 124.17 30.023" enable-background="new 0 0 124.17 30.023" xml:space="preserve">
<g>
	<text transform="matrix(1 0 0 1 22.2349 25.9741)" fill="#231F20" font-family="'AvenirLTStd-Black'" font-size="4.316">G</text>
	<text transform="matrix(1 0 0 1 25.9126 25.9741)"><tspan x="0" y="0" fill="#231F20" font-family="'AvenirLTStd-Black'" font-size="4.316">L</tspan><tspan x="2.356" y="0" fill="#231F20" font-family="'AvenirLTStd-Black'" font-size="4.316">O</tspan></text>
	<text transform="matrix(1 0 0 1 32.4595 25.9741)"><tspan x="0" y="0" fill="#231F20" font-family="'AvenirLTStd-Black'" font-size="4.316">B</tspan><tspan x="2.658" y="0" fill="#231F20" font-family="'AvenirLTStd-Black'" font-size="4.316">A</tspan></text>
	<text transform="matrix(1 0 0 1 39.0933 25.9741)"><tspan x="0" y="0" fill="#231F20" font-family="'AvenirLTStd-Black'" font-size="4.316">L KI</tspan><tspan x="7.601" y="0" fill="#231F20" font-family="'AvenirLTStd-Black'" font-size="4.316">T</tspan></text>
	<text transform="matrix(1 0 0 1 51.1567 25.9741)" fill="#231F20" font-family="'AvenirLTStd-Black'" font-size="4.316">C</text>
	<text transform="matrix(1 0 0 1 54.4282 25.9741)"><tspan x="0" y="0" fill="#231F20" font-family="'AvenirLTStd-Black'" font-size="4.316">HEN &amp;</tspan><tspan x="12.9" y="0" fill="#231F20" font-family="'AvenirLTStd-Black'" font-size="4.316"> </tspan></text>
	<text transform="matrix(1 0 0 1 71.689 25.9741)"><tspan x="0" y="0" fill="#231F20" font-family="'AvenirLTStd-Black'" font-size="4.316">B</tspan><tspan x="2.658" y="0" fill="#231F20" font-family="'AvenirLTStd-Black'" font-size="4.316">A</tspan></text>
	<text transform="matrix(1 0 0 1 78.3218 25.9741)"><tspan x="0" y="0" fill="#231F20" font-family="'AvenirLTStd-Black'" font-size="4.316">KEH</tspan><tspan x="8.234" y="0" fill="#231F20" font-family="'AvenirLTStd-Black'" font-size="4.316">O</tspan></text>
	<text transform="matrix(1 0 0 1 92.3013 25.9741)" fill="#231F20" font-family="'AvenirLTStd-Black'" font-size="4.316">U</text>
	<text transform="matrix(1 0 0 1 95.8149 25.9741)" fill="#231F20" font-family="'AvenirLTStd-Black'" font-size="4.316">S</text>
	<text transform="matrix(1 0 0 1 98.6118 25.9741)" fill="#231F20" font-family="'AvenirLTStd-Black'" font-size="4.316">E</text>
	<path fill="#B82B30" d="M14.484,12.29c-0.108-0.049-0.216-0.099-0.328-0.15c0.039-0.052,0.047-0.073,0.063-0.081
		c0.072-0.047,0.146-0.091,0.223-0.137c1.399-0.804,2.703-1.741,3.849-2.892c1.481-1.493,2.586-3.179,2.847-5.33
		c0.112-0.92-0.017-1.778-0.495-2.573c-0.125-0.209-0.274-0.391-0.438-0.545V0.581c-0.001,0-0.001,0-0.004-0.002
		c-0.41-0.386-0.925-0.591-1.458-0.575c-0.719-0.037-1.262,0.246-1.262,0.246v0.007c-1.509,0.581-2.432,2.216-2.432,2.216V2.254
		c0.003-1.009-0.688-1.888-1.643-2.097c-0.349-0.076-0.456,0.003-0.493,0.354c-0.01,0.077-0.026,0.155-0.045,0.228
		c-0.229,0.89-0.512,1.487-0.864,2.183c-0.818,1.63-1.702,3.223-2.545,4.837C9.333,8.003,9.169,8.11,8.904,8.14
		C7.821,8.258,6.76,8.492,5.744,8.891C2.622,10.11,0.779,12.4,0.15,15.667c-0.229,1.178-0.188,2.369,0.065,3.555
		c0.345,1.612,1.049,3.034,2.183,4.231c1.487,1.572,3.321,2.445,5.48,2.63c1.591,0.14,3.146-0.058,4.632-0.617
		c2.091-0.786,3.664-2.229,4.819-4.118c0.926-1.517,1.288-3.167,0.844-4.912C17.663,14.435,16.342,13.111,14.484,12.29 M12.84,7.792
		c1.138-1.56,2.375-3.036,3.728-4.411c0.09-0.083,1.196-1.085,1.811-0.781c0.099,0.067,0.354,0.326,0.142,1.126
		c-0.014,0.052-0.027,0.104-0.044,0.155c-0.011,0.028-0.02,0.058-0.031,0.089C18.14,4.866,17.6,5.634,16.981,6.347
		c-1.345,1.551-2.932,2.785-4.856,3.551c-0.191,0.078-0.393,0.136-0.59,0.203c-0.033-0.041-0.067-0.078-0.102-0.119
		C11.901,9.25,12.33,8.492,12.84,7.792 M14.942,19.528c-0.633,1.654-1.592,3.076-3.108,4.064c-1.358,0.885-2.736,1.202-4.426,0.864
		c-4.208-0.844-5.192-4.7-5.207-6.981v-0.013c0-0.235,0.007-0.456,0.023-0.65c0.087-0.725,0.338-1.522,0.377-1.647
		c0.437-1.312,1.327-2.872,3.102-4.335c0.105-0.079,0.202-0.162,0.309-0.24c0.565-0.405,1.21-0.652,1.893-0.791
		C8.042,9.769,8.186,9.774,8.385,9.76c-0.102,0.208-0.176,0.372-0.258,0.53c-0.925,1.815-1.85,3.629-2.545,5.542
		c-0.42,1.156-0.676,2.351-0.677,3.582c-0.004,1.667,0.893,2.761,2.521,3.123c0.064,0.012,0.133,0.02,0.202,0.023
		c0.317,0.027,0.318,0.011,0.281-0.312c-0.139-1.201-0.12-2.404,0.1-3.594c0.428-2.328,1.306-4.496,2.431-6.567
		c0.031-0.059,0.075-0.113,0.149-0.226c0.31,0.834,1.004,1.155,1.675,1.515c1.007,0.538,1.884,1.229,2.452,2.249
		C15.417,16.886,15.448,18.206,14.942,19.528"/>
	<path fill="#B82B30" d="M124.047,15.132c-0.162-0.8-0.467-1.633-0.785-2.518c-0.412-1.137-0.837-2.312-1.058-3.621
		c0.017-0.038,0.032-0.078,0.045-0.115c0.047-0.117,0.087-0.222,0.139-0.321l0.007-0.016c0.225-0.557,0.417-1.035-0.116-1.39
		c-0.458-0.306-1.233-0.101-1.806,0.476c-0.579,0.577-0.754,1.144-0.659,2.151c-0.539,1.316-1.423,2.93-2.141,4.163
		c-0.027-0.07-0.051-0.147-0.082-0.22c-0.115-0.351-0.308-0.467-0.445-0.506c-0.132-0.032-0.339-0.028-0.58,0.191
		c-0.333,0.294-0.521,0.727-0.548,1.248c-0.015,0.253,0.057,0.721,0.119,0.99c-0.412,0.554-0.963,1.082-1.659,1.613
		c-0.042,0.028-0.081,0.061-0.124,0.096c-0.122,0.092-0.253,0.186-0.384,0.279c1.087-3.196,2.566-7.485,2.566-7.485
		c0.504-1.378-0.175-2.346-0.317-2.526c-0.118-0.12-0.238-0.225-0.363-0.303c-0.023-0.019-0.05-0.032-0.074-0.047l-0.004-0.004
		c-0.007-0.004-0.014-0.007-0.021-0.014c-0.576-0.341-1.076-0.273-1.076-0.273c-0.129,0.022-0.191,0.092-0.185,0.212
		c0.004,0.097-0.009,0.216-0.028,0.347l0.004-0.004c0,0-0.007,0.03-0.018,0.081c-0.027,0.146-0.064,0.305-0.119,0.488
		c-0.236,0.863-0.844,2.736-2.273,5.665c-0.239,0.521-0.472,0.978-0.697,1.385c-0.002,0.004-0.004,0.009-0.007,0.014v-0.002
		c-1.756,3.141-3.05,2.909-3.05,2.909c-0.487,0.002-0.799-0.267-0.942-0.61c-0.003-0.009-0.007-0.018-0.009-0.024
		c-0.009-0.019-0.017-0.034-0.021-0.052c-0.014-0.035-0.021-0.068-0.027-0.107c-0.043-0.188-0.042-0.382,0.005-0.567
		c0.216-1.728,1.833-5.464,2.245-6.587c0.505-1.381-0.174-2.349-0.316-2.529c-0.118-0.118-0.237-0.225-0.362-0.305
		c-0.023-0.017-0.051-0.031-0.074-0.046c-0.003-0.003-0.003-0.003-0.004-0.003c-0.008-0.004-0.015-0.007-0.021-0.012
		c-0.577-0.343-1.077-0.275-1.077-0.275c-0.129,0.021-0.194,0.092-0.187,0.212c0.014,0.271-0.073,0.674-0.257,1.21
		c-0.159,0.46-0.367,0.981-0.622,1.564c0,0-1.262,3.012-1.548,4.044c-0.013,0.058-0.028,0.114-0.041,0.17l-0.01,0.035
		c-0.018,0.074-0.033,0.147-0.051,0.221c-0.004,0.011-0.006,0.021-0.013,0.03c0.003,0.003,0.004,0.003,0.007,0.003
		c-0.034,0.144-0.059,0.28-0.085,0.406c-0.041,0.224-0.079,0.502-0.099,0.812c-0.337,0.748-0.747,1.367-1.179,1.815
		c-0.17,0.158-0.698,0.586-1.052,0.146c-0.009-0.014-0.018-0.025-0.024-0.041c-0.012-0.012-0.021-0.027-0.03-0.042
		c-0.033-0.06-0.063-0.125-0.092-0.19c-0.005-0.014-0.011-0.022-0.015-0.034c-0.185-0.461-0.225-1.056-0.106-1.7
		c0.259-1.341,1.345-3.332,2.769-5.078c0.417-0.519,0.441-1.179,0.063-1.901c-0.356-0.684-0.969-1.24-1.212-1.449
		c-0.397-0.338-0.837-0.311-1.31,0.086c-1.09,0.712-2.115,1.149-3.129,1.331c0.33-2.206-0.083-3.063-0.368-3.381
		c-0.21-0.234-0.489-0.346-0.813-0.327c-1.007,0.068-2.287,1.721-2.443,3.16c-0.118,1.075,0.37,1.86,1.377,2.229
		c-0.369,1.628-0.9,3.157-1.531,4.435c-0.136,0.268-0.507,0.979-0.935,1.604c-0.043,0.063-0.089,0.123-0.126,0.174
		c-0.022,0.038-0.051,0.076-0.081,0.114c-0.005,0.01-0.013,0.021-0.021,0.027c-0.032,0.046-0.069,0.09-0.108,0.138v0.001v-0.001
		c-0.123,0.146-0.252,0.283-0.335,0.366c-0.051,0.047-0.092,0.088-0.125,0.125c-0.394,0.363-0.975,0.731-1.249,0.066
		c-0.004-0.011-0.009-0.024-0.014-0.039c-0.019-0.047-0.033-0.095-0.046-0.149c-0.058-0.246-0.065-0.527-0.034-0.824
		c0.02-0.214,0.06-0.442,0.12-0.683c0.021-0.095,0.045-0.188,0.069-0.279c0.196-0.704,0.469-1.428,0.541-1.622L94.9,9.752
		C95,9.39,95.047,9.108,95.03,8.919c-0.053-0.489-0.19-0.889-0.415-1.197c-0.081-0.11-0.163-0.21-0.245-0.298
		c-0.149-0.161-0.305-0.289-0.462-0.387c0.005-0.001,0.008-0.005,0.012-0.009h-0.003l-0.004-0.004
		c-0.009-0.004-0.015-0.007-0.021-0.011c-0.154-0.087-0.303-0.147-0.436-0.187c-0.39-0.127-0.68-0.081-0.68-0.081
		c-0.122,0.023-0.181,0.091-0.171,0.204c0.018,0.258-0.053,0.645-0.214,1.158c-0.018,0.052-0.038,0.107-0.055,0.162
		c-0.248,0.68-0.666,1.808-0.987,2.602c-0.135,0.304-0.268,0.595-0.381,0.847h-0.002c-0.198,0.439-0.344,0.75-0.344,0.75
		c-0.141,0.304-0.29,0.617-0.451,0.942c-1.463,2.922-2.87,4.497-3.956,4.435c-0.184-0.017-0.333-0.102-0.448-0.26
		c-0.282-0.393-0.315-1.147-0.089-2.026c0.046-0.175,0.168-0.616,0.192-0.692c0.173-0.556,0.744-1.95,0.785-2.052
		c0.068-0.177,0.135-0.352,0.2-0.523c0.294-0.78,0.523-1.461,0.688-2.044c0.167-0.583,0.23-1.001,0.193-1.259
		C87.664,8.479,87.5,8.067,87.25,7.751c-0.09-0.112-0.179-0.212-0.271-0.303c-0.165-0.163-0.334-0.292-0.506-0.388
		c-0.027-0.015-0.051-0.028-0.077-0.041c-0.002,0-0.005-0.002-0.006-0.002L86.37,7.009c-0.598-0.307-1.092-0.203-1.092-0.203
		c-0.129,0.031-0.188,0.104-0.172,0.223c0.031,0.271-0.024,0.681-0.173,1.227c-0.059,0.214-0.13,0.447-0.207,0.688l0.003-0.001
		c0,0-0.003,0.01-0.008,0.024c-0.032,0.096-0.063,0.191-0.096,0.294c-0.027,0.071-0.308,0.789-0.439,1.121
		c-0.486,1.321-1.154,3.235-1.396,4.397c-0.043,0.264-0.067,0.52-0.076,0.769c-0.567,1.52-1.729,2.346-2.381,2.361
		c-0.241,0.008-0.441-0.113-0.577-0.325c0.656-0.821,1.164-1.907,1.502-3.237c0.592-2.305,0.343-4.492-0.657-5.709
		c-0.596-0.73-1.431-1.089-2.413-1.038c-0.641,0.033-1.313,0.304-1.947,0.776l2.035-5.265c0.102-0.361,0.148-0.645,0.129-0.832
		c-0.054-0.489-0.191-0.889-0.417-1.198c-0.078-0.109-0.161-0.208-0.243-0.297c-0.149-0.163-0.306-0.292-0.466-0.391
		c-0.023-0.013-0.048-0.025-0.072-0.04c0,0-0.002,0-0.003-0.002L77.182,0.34c-0.556-0.313-1.027-0.235-1.027-0.235
		c-0.126,0.024-0.184,0.092-0.174,0.204C76,0.568,75.928,0.954,75.766,1.464c-0.092,0.297-0.207,0.624-0.34,0.969
		c0,0-3.475,9.737-3.998,11.234c-0.117,0.317-0.233,0.605-0.341,0.873c-0.004,0.01-0.008,0.021-0.011,0.03
		c-1.199,3.149-1.995,3.198-1.995,3.198c0.384-0.667,0.368-1.503,0.277-2.285c-0.103-0.844-0.352-1.74-0.614-2.686
		c-0.339-1.213-0.686-2.468-0.813-3.848c0.022-0.044,0.041-0.082,0.058-0.122c0.058-0.117,0.105-0.221,0.169-0.322l0.009-0.016
		c0.277-0.561,0.515-1.044-0.012-1.457c-0.449-0.353-1.276-0.199-1.918,0.354c-0.646,0.554-0.873,1.131-0.854,2.187
		c-0.669,1.328-1.715,2.935-2.562,4.161c-0.004-0.008-0.008-0.019-0.009-0.03c-0.003-0.007-0.005-0.014-0.008-0.02v0.001
		c-0.015-0.062-0.03-0.121-0.051-0.187c-0.092-0.375-0.282-0.511-0.424-0.56c-0.134-0.047-0.35-0.059-0.617,0.151
		c-0.345,0.262-0.562,0.658-0.648,1.149c-0.019,0.125-0.026,0.239-0.03,0.35l-0.001-0.003v0.041c0,0.05,0,0.1,0.001,0.146v0.032
		c0.004,0.084,0.012,0.165,0.021,0.239c0.003,0.027,0.012,0.056,0.016,0.085c0.054,0.333,0.139,0.592,0.139,0.592l0.002,0.002
		c0.02,0.06,0.038,0.123,0.058,0.183c-0.184,0.2-0.356,0.38-0.525,0.538c-0.027,0.027-0.055,0.051-0.082,0.079l-0.004,0.004
		c-0.283,0.262-0.628,0.552-0.969,0.753c-0.064,0.033-0.136,0.066-0.218,0.103c-0.005,0.007-0.012,0.009-0.02,0.015
		c-0.236,0.1-0.608,0.2-0.864,0.01c-0.014-0.012-0.03-0.021-0.042-0.037c-0.048-0.047-0.088-0.105-0.118-0.166
		c-0.02-0.046-0.09-0.265-0.043-0.591c0.004-0.012,0.004-0.023,0.008-0.035c0.076-0.401,0.297-1.104,0.918-2.145
		c0.003-0.001,0.003-0.001,0.003-0.004c0.221-0.397,0.465-0.806,0.717-1.21c1.221-1.961,1.84-3.39,1.817-4.433
		c-0.02-1.015-0.529-1.833-1.422-1.846c-0.982-0.011-2.592,1.066-3.95,2.322C56.45,7.972,55.783,6.878,54.799,6.9
		c-0.976,0.02-2.65,1.2-3.941,2.504c0.015-0.106,0.02-0.198,0.015-0.272c-0.036-0.493-0.162-0.9-0.38-1.219
		c-0.077-0.115-0.155-0.216-0.237-0.308c-0.146-0.17-0.298-0.305-0.459-0.407c-0.021-0.017-0.044-0.03-0.07-0.042
		c0-0.003-0.001-0.003-0.004-0.004c-0.007-0.005-0.013-0.009-0.02-0.013c-0.551-0.331-1.029-0.271-1.029-0.271
		c-0.125,0.022-0.185,0.087-0.181,0.203c0.012,0.26-0.072,0.646-0.252,1.157s-0.422,1.103-0.726,1.767
		c-0.122,0.274-0.26,0.564-0.4,0.855c-0.475,0.457-1.077,0.781-1.749,0.915c-0.152,0.013-0.305,0.02-0.459,0.02
		c0.274-2.585-0.582-2.808-1.438-3.824c-0.584-0.803-1.14-1.145-2.031-1.148c-1.883-0.005-3.122,1.223-4.389,2.516
		c-0.713,0.923-1.702,1.845-2.66,2.147c0.161-2.279-0.606-2.529-1.466-3.55c-0.585-0.804-1.14-1.145-2.032-1.149
		c-2.035-0.004-3.984,1.53-5.381,3.992c-0.807,1.448-1.305,2.958-1.309,4.313c0,0.185,0.011,0.364,0.029,0.54
		c-0.184,0.438-0.554,1.224-1.021,1.729c-0.087,0.092-0.163,0.161-0.238,0.216c-0.048,0.044-0.104,0.08-0.171,0.104
		c-0.128,0.058-0.23,0.059-0.315,0.037c-0.049-0.017-0.096-0.04-0.135-0.064c-0.001-0.001-0.001-0.001-0.003-0.001
		c-0.212-0.145-0.284-0.409-0.307-0.55l-0.004-0.022c-0.001-0.018-0.005-0.035-0.005-0.048c-0.065-0.715,0.331-1.767,0.331-1.767
		c0.109-0.365,0.258-0.792,0.451-1.288c0.021-0.056,0.039-0.11,0.063-0.165c0.028-0.067,0.063-0.146,0.092-0.217
		c0.01-0.022,0.019-0.043,0.027-0.065c0.065-0.157,0.127-0.295,0.183-0.422c0.011-0.021,0.021-0.044,0.031-0.068l0.413-0.995
		l1.054-2.456L24.65,9.567l2.122-5.097V4.468c0.241-0.581,0.393-1.055,0.484-1.441c0.181-0.78,0.091-1.357-0.118-1.785
		c-0.079-0.146-0.182-0.291-0.31-0.432c-0.017-0.021-0.032-0.035-0.051-0.052c-0.127-0.138-0.275-0.267-0.451-0.391
		c-0.11-0.067-0.21-0.113-0.3-0.154c-0.069-0.025-0.133-0.049-0.192-0.064c-0.357-0.087-0.609-0.044-0.609-0.044
		c-0.132,0.028-0.195,0.102-0.185,0.224c0.025,0.279-0.046,0.697-0.213,1.253c-0.169,0.558-0.398,1.201-0.693,1.929
		c-0.291,0.729-0.626,1.521-1.007,2.378c-0.235,0.534-0.479,1.073-0.721,1.614v0.003c0,0-2.902,6.39-3.01,8.134
		c0,0-0.069,0.455-0.011,0.834c0,0,0.081,2.047,1.404,2.694c0.045,0.023,0.095,0.046,0.146,0.065
		c0.009,0.004,0.019,0.01,0.027,0.013v-0.001c0.212,0.08,0.469,0.124,0.774,0.094c0.137-0.014,0.294-0.042,0.474-0.102
		c0.002,0,0.004,0,0.008-0.001h-0.003c0.209-0.069,0.44-0.179,0.697-0.346c0,0,0.006-0.004,0.007-0.007
		c0.188-0.125,0.387-0.282,0.596-0.479c0.37-0.326,0.83-0.786,1.146-1.288c0.113,0.225,0.238,0.446,0.393,0.652
		c0.861,1.143,2,1.581,3.019,1.583c0.462,0,0.833-0.088,1.11-0.181c2.347-0.795,4.329-3.811,4.985-6.369
		c0.341-0.027,0.741-0.088,1.08-0.18c-0.343,0.923-0.497,1.632-0.503,2.497c-0.001,0.984,0.273,1.91,0.855,2.685
		c0.859,1.146,1.999,1.579,3.017,1.583c0.464,0,0.833-0.091,1.111-0.183c2.266-0.766,4.188-3.605,4.909-6.103
		c0.59-0.052,1.146-0.224,1.642-0.493c-0.011,0.025-0.019,0.04-0.019,0.04c-0.708,1.454-1.275,2.762-1.547,3.584
		c-0.232,0.712-0.314,0.963-0.305,1.394c0.013,0.707,0.331,1.253,0.77,1.614c0.531,0.451,0.866,0.259,1.073-0.237
		c0.668-1.675,1.415-3.065,2.258-4.537v-0.001c0.267-0.494,0.908-1.446,0.916-1.454c0.258-0.374,0.528-0.726,0.806-1.053
		c0.025-0.03,0.04-0.049,0.04-0.049l-0.003,0.005c0.058-0.065,0.111-0.13,0.168-0.192c1.803-2.065,2.987-2.765,3.234-2.771
		c0.275-0.006-0.562,1.181-1.365,2.579c-0.802,1.308-1.588,2.549-1.996,3.666c-0.291,0.773-0.518,1.762-0.507,2.286
		c0.016,0.798,0.239,1.224,0.71,1.675c0.5,0.483,0.932,0.382,1.226-0.207c1.234-2.884,2.453-5.396,4.804-7.844
		c1.776-1.848,2.416-2.169,2.66-2.175c0.247-0.005-0.473,0.934-1.128,1.961c-0.685,1.121-1.666,2.801-2.136,3.854
		c-0.324,0.777-0.433,1.454-0.422,2.008c0.018,0.854,0.341,1.56,0.93,2.041c0.68,0.593,1.444,0.551,1.444,0.551v-0.001
		c1.46,0.07,2.883-0.852,4.11-2.072c0.06,0.08,0.12,0.156,0.177,0.223c0.881,0.984,1.996,1.602,3.375,1.869
		c1.146,0.175,2.078,0.129,2.824-0.023c0.005-0.003,0.011-0.004,0.018-0.004c0.645-0.136,1.151-0.352,1.536-0.572l0.001-0.009
		c0.024-0.016,0.051-0.028,0.075-0.042v0.003c0.031-0.019,0.059-0.037,0.089-0.056c0.628-0.378,0.83-0.715,0.83-0.715
		c0.202,0.687,0.582,1.101,0.943,1.399c0.179,0.147,0.325,0.185,0.436,0.176c0.042-0.001,0.077-0.007,0.109-0.017
		c0.102-0.039,0.235-0.136,0.285-0.384c0.067-0.294,0.146-0.609,0.224-0.918c0.041-0.173,0.087-0.35,0.131-0.523
		c0.976,1.072,2.283,1.596,3.813,1.516c0.46-0.023,0.903-0.141,1.324-0.341c0.464,0.211,1.032,0.319,1.7,0.301
		c1.108-0.029,2.302-0.603,3.241-1.438c0.083,0.161,0.18,0.313,0.289,0.453c0.524,0.659,1.303,1.022,2.309,1.075
		c1.526,0.087,2.962-0.746,4.179-2.418c0.127,0.479,0.341,0.903,0.639,1.263c2.007,2.096,4.116,0.592,4.54,0.252
		c2.046-1.708,3.267-4.964,3.979-7.842c0.676-0.022,1.982-0.225,3.166-0.754c-0.035,0.045-0.071,0.094-0.106,0.143
		c-0.58,0.794-3.277,4.728-2.07,7.551c0.017,0.037,0.033,0.074,0.055,0.114c0.014,0.03,0.028,0.062,0.046,0.094
		c0.074,0.146,0.171,0.295,0.285,0.446c1.684,2.016,4.011,0.791,4.189,0.695c0.274-0.179,0.534-0.379,0.767-0.606
		c0.027,0.041,0.057,0.082,0.086,0.119c0.529,0.681,1.319,1.061,2.351,1.13c1.056,0.061,2.061-0.317,3-1.125
		c-0.052,0.186-0.099,0.366-0.149,0.547c-0.063,0.219-0.118,0.427-0.175,0.632c-0.182,0.085-0.356,0.168-0.523,0.244
		c-0.507,0.204-0.984,0.419-1.429,0.648h-0.002c-2.538,1.304-3.991,2.967-4.332,4.952c-0.322,1.824,0.602,2.925,1.574,3.892
		c0.633,0.621,1.186,0.803,1.654,0.799c0.262-0.001,0.498-0.06,0.708-0.132c2.236-0.906,4.084-6.67,4.719-8.876
		c0.08-0.292,0.268-0.997,0.343-1.28c0.022-0.007,0.044-0.012,0.067-0.017c0-0.005,0.001-0.01,0.001-0.014
		c0.133-0.059,0.258-0.114,0.362-0.17l-0.004,0.002c0,0,0.81-0.313,1.903-1.095l0.002-0.002c0.127-0.095,0.261-0.19,0.397-0.297
		c0.066-0.047,0.142-0.097,0.206-0.143V17.98c0.272-0.221,0.558-0.472,0.844-0.748c0.022,0.026,0.043,0.054,0.067,0.082
		c0.545,0.588,1.169,1.03,1.873,1.337c-0.001,0.001-0.009,0.005-0.009,0.005c0.047,0.019,0.091,0.033,0.137,0.055
		c0.02,0.007,0.039,0.016,0.059,0.023c0.457,0.188,0.866,0.307,1.23,0.379c1.076,0.183,1.912-0.116,2.355-0.34
		c0.001,0,0.001,0,0.001-0.002c0.004,0,0.007-0.002,0.008-0.004c0.091-0.042,0.163-0.086,0.217-0.119
		c0.004-0.001,0.008-0.004,0.013-0.008c0.039-0.024,0.07-0.047,0.089-0.059c0.014-0.009,0.023-0.021,0.035-0.029
		c0.216-0.16,0.389-0.348,0.528-0.54c0.042-0.056,0.075-0.113,0.111-0.169c0.011-0.021,0.021-0.039,0.033-0.057
		c0.092-0.156,0.171-0.315,0.225-0.47c-0.003,0.003-0.006,0.005-0.01,0.008c0.022-0.06,0.039-0.115,0.058-0.169
		c0-0.002,0.002-0.002,0.002-0.004c0.007-0.029,0.015-0.055,0.022-0.078c0.011-0.037,0.023-0.072,0.033-0.108
		c0.006-0.025,0.007-0.051,0.014-0.078c0.043-0.186,0.055-0.31,0.055-0.31h-0.003c0.006-0.054,0.013-0.107,0.017-0.152v-0.028
		c0.003-0.052,0.006-0.1,0.008-0.145C124.17,15.882,124.119,15.5,124.047,15.132 M30.526,14.549
		c-1.148,2.094-2.386,3.229-3.188,3.228c-0.464-0.002-0.739-0.374-0.735-1.299c0.004-1.142,0.503-2.865,1.31-4.343
		c0.526-0.924,1.115-1.692,1.765-2.309c0.244,1.083,0.887,1.885,1.872,2.505C31.364,12.98,30.991,13.748,30.526,14.549
		 M32.048,11.161c-0.339-0.4-0.489-1.201-0.487-1.759c0-0.493,0.278-0.739,0.465-0.739c0.216,0.001,0.461,0.188,0.46,0.651
		C32.483,9.712,32.358,10.453,32.048,11.161 M41.071,14.585c-1.147,2.093-2.385,3.229-3.188,3.226
		c-0.46-0.001-0.738-0.373-0.734-1.297c0.005-1.14,0.503-2.866,1.309-4.344c0.516-0.904,1.093-1.658,1.728-2.266
		c0.11,0.453,0.282,0.879,0.527,1.264c0.33,0.548,0.793,1.006,1.334,1.344C41.847,13.129,41.503,13.84,41.071,14.585 M42.604,11.168
		h-0.027c-0.325-0.406-0.472-1.187-0.471-1.73c0.003-0.495,0.279-0.739,0.465-0.739c0.218,0.001,0.463,0.188,0.462,0.651
		C43.033,9.747,42.907,10.469,42.604,11.168 M66.417,17.846c-0.076,0.118-0.173,0.191-0.292,0.223
		c-0.584,0.134-1.295-0.327-1.936-1.205h-0.002c-0.035-0.05-0.069-0.101-0.105-0.152c-0.143-0.21-0.382-0.593-0.623-1.101
		c0.153-0.2,0.299-0.399,0.439-0.597c0.626-0.848,1.129-1.679,1.454-2.254c0.06-0.11,0.116-0.218,0.174-0.327
		c0.152-0.277,0.235-0.444,0.235-0.444c0.022,0.076,0.04,0.158,0.059,0.237C66.277,14.111,66.963,16.955,66.417,17.846 M78.4,13.722
		L78.4,13.722c-0.855,2.73-1.948,4.025-3.247,3.853c-0.832-0.105-1.405-0.893-1.656-1.559c0.732-2.495,1.685-4.579,2.618-5.722
		c0.673-0.814,1.242-1.155,1.896-1.137c0.15,0.001,0.308,0.111,0.442,0.3C78.889,10.066,79.105,11.507,78.4,13.722 M108.101,26.023
		c-0.818,1.453-1.382,1.889-1.509,1.865l-0.006-0.006c-0.143-0.135-0.279-0.549-0.192-1.277c0.281-2.282,2.019-4.135,3.599-5.161
		C109.493,23.118,108.83,24.728,108.101,26.023 M121.408,17.603c-0.063,0.12-0.147,0.197-0.262,0.235
		c-0.74,0.231-1.949-0.703-2.798-2.126c0.468-0.615,0.92-1.319,1.321-2.12c0.004-0.003,0.004-0.004,0.004-0.004
		c0.117-0.225,0.23-0.461,0.338-0.702c0.01-0.02,0.019-0.04,0.028-0.062c0.112-0.249,0.219-0.502,0.316-0.769
		c0.023,0.073,0.047,0.148,0.074,0.226C121,14.046,121.865,16.711,121.408,17.603"/>
	<path fill="#B82B30" d="M112.887,5.149c-0.646-0.264-1.252,0.024-1.393,0.73c-0.154,0.765-0.245,1.542-0.353,2.314
		c-0.008,0.031-0.03,0.15-0.031,0.28h-0.002c0,0-0.021,0.232,0.074,0.41c0.006,0.011,0.01,0.018,0.015,0.026
		c0.018,0.028,0.037,0.055,0.064,0.077c0.012,0.011,0.019,0.018,0.026,0.023l0.001,0.002c0.115,0.101,0.035,0.029,0.006,0.002
		c0.007,0.004,0.018,0.01,0.036,0.018c0.005,0.005,0.012,0.006,0.015,0.008c0.013,0.004,0.026,0.009,0.044,0.013
		c0.011,0.004,0.023,0.008,0.037,0.01c0.019,0.003,0.038,0.005,0.06,0.005c0.002,0,0.004,0.002,0.008,0.002
		c0.003,0,0.006-0.002,0.01-0.002c0.13-0.002,0.304-0.063,0.479-0.31l0.01-0.017c0.019-0.026,0.034-0.051,0.051-0.081
		c0.079-0.122,0.169-0.265,0.252-0.413c0.177-0.316,0.35-0.631,0.506-0.953c0.191-0.405,0.373-0.818,0.514-1.245
		C113.451,5.646,113.266,5.305,112.887,5.149"/>
</g>
</svg>
