<?xml version="1.0" encoding="utf-8"?>
<!-- Generator: Adobe Illustrator 16.0.0, SVG Export Plug-In . SVG Version: 6.00 Build 0)  -->
<!DOCTYPE svg PUBLIC "-//W3C//DTD SVG 1.1//EN" "http://www.w3.org/Graphics/SVG/1.1/DTD/svg11.dtd">
<svg version="1.1" id="Layer_1" xmlns="http://www.w3.org/2000/svg" xmlns:xlink="http://www.w3.org/1999/xlink" x="0px" y="0px"
	 width="112.305px" height="12.755px" viewBox="0 0 112.305 12.755" enable-background="new 0 0 112.305 12.755"
	 xml:space="preserve">
<g>
	<path fill="#221F1F" d="M8.292,3.812C7.75,3.07,7.371,2.729,6.864,2.457C6.377,2.186,5.78,2.042,5.185,2.042
		c-1.247,0-2.151,0.613-2.151,1.481c0,0.704,0.417,1.011,1.735,1.318l1.752,0.414C7.786,5.563,8.6,5.907,9.158,6.378
		c0.724,0.613,1.104,1.481,1.104,2.511c0,2.313-1.988,3.866-4.915,3.866c-1.625,0-3.053-0.416-4.065-1.212
		C0.777,11.165,0.542,10.911,0,10.189l1.916-1.355c0.505,0.741,0.993,1.175,1.697,1.481c0.56,0.255,1.3,0.398,1.97,0.398
		c1.372,0,2.258-0.651,2.258-1.646c0-0.813-0.56-1.263-2.006-1.57L4.263,7.153C1.752,6.612,0.668,5.584,0.668,3.722
		C0.668,1.517,2.511,0,5.222,0c1.462,0,2.709,0.415,3.775,1.281c0.397,0.345,0.595,0.542,1.138,1.157L8.292,3.812z"/>
	<path fill="#221F1F" d="M14.666,12.394h-2.222V0.36h4.39c2.819,0,4.517,1.5,4.517,3.975c0,1.408-0.633,2.62-1.753,3.361
		c-0.723,0.487-1.446,0.668-2.62,0.668h-2.313V12.394z M16.455,6.432c1.716,0,2.546-0.704,2.546-2.186
		c0-1.337-0.74-1.969-2.366-1.969h-1.97v4.154H16.455z"/>
	<path fill="#221F1F" d="M25.521,12.393h-2.222V0.361h4.588c1.771,0,2.854,0.397,3.631,1.355c0.542,0.668,0.867,1.607,0.867,2.492
		c0,1.085-0.434,2.022-1.247,2.673c-0.343,0.271-0.559,0.418-1.156,0.689l2.639,4.821h-2.495l-2.384-4.461h-2.222V12.393z
		 M27.653,6.017c1.517,0,2.384-0.706,2.384-1.916c0-1.156-0.85-1.823-2.33-1.823h-2.187v3.739H27.653z"/>
	<rect x="35.321" y="0.36" fill="#221F1F" width="2.222" height="12.033"/>
	<polygon fill="#221F1F" points="50.129,12.394 48.124,12.394 42.993,4.155 42.993,12.394 40.898,12.394 40.898,0.36 43.011,0.36 
		48.015,8.491 48.015,0.36 50.129,0.36 	"/>
	<path fill="#221F1F" d="M63.637,12.394h-1.916v-1.03c-0.505,0.433-0.687,0.578-1.03,0.777c-0.687,0.378-1.552,0.614-2.401,0.614
		c-3.234,0-5.582-2.657-5.582-6.306C52.708,2.674,55.109,0,58.506,0c1.518,0,2.927,0.577,3.902,1.571
		c0.523,0.561,0.759,0.922,1.157,1.897l-2.079,0.866c-0.576-1.589-1.552-2.348-3.034-2.348c-2.025,0-3.343,1.698-3.343,4.316
		c0,2.676,1.337,4.355,3.433,4.355c1.753,0,2.854-1.049,3.034-2.871h-2.999V5.835h5.06V12.394z"/>
	<polygon fill="#221F1F" points="74.761,2.349 68.798,2.349 68.798,5.384 73.929,5.384 73.929,7.298 68.798,7.298 68.798,12.393 
		66.576,12.393 66.576,0.361 74.761,0.361 	"/>
	<rect x="76.835" y="0.36" fill="#221F1F" width="2.222" height="12.033"/>
	<polygon fill="#221F1F" points="90.704,2.349 84.382,2.349 84.382,5.203 90.199,5.203 90.199,7.118 84.382,7.118 84.382,10.406 
		91.21,10.406 91.21,12.393 82.16,12.393 82.16,0.361 90.704,0.361 	"/>
	<polygon fill="#221F1F" points="95.688,10.406 100.656,10.406 100.656,12.394 93.465,12.394 93.465,0.361 95.688,0.361 	"/>
	<path fill="#221F1F" d="M102.44,0.361h3.685c1.699,0,2.566,0.161,3.488,0.669c0.505,0.27,0.957,0.649,1.337,1.101
		c0.903,1.066,1.354,2.53,1.354,4.318c0,2.512-0.976,4.444-2.691,5.292c-0.904,0.454-2.006,0.652-3.488,0.652h-3.685V0.361z
		 M105.928,10.406c2.022,0,2.909-0.325,3.414-1.265c0.379-0.688,0.542-1.572,0.542-2.782c0-2.891-1.1-4.011-3.956-4.011h-1.266
		v8.058H105.928z"/>
</g>
</svg>
