<?xml version="1.0" encoding="utf-8"?>
<!-- Generator: Adobe Illustrator 16.0.0, SVG Export Plug-In . SVG Version: 6.00 Build 0)  -->
<!DOCTYPE svg PUBLIC "-//W3C//DTD SVG 1.1//EN" "http://www.w3.org/Graphics/SVG/1.1/DTD/svg11.dtd">
<svg version="1.1" id="Layer_1" xmlns="http://www.w3.org/2000/svg" xmlns:xlink="http://www.w3.org/1999/xlink" x="0px" y="0px"
	 width="115.722px" height="23.522px" viewBox="0 0 115.722 23.522" enable-background="new 0 0 115.722 23.522"
	 xml:space="preserve">
<g>
	<path fill-rule="evenodd" clip-rule="evenodd" fill="#C3922C" d="M104.679,0.724c6.083,0,11.043,4.958,11.043,11.041
		c0,6.077-4.96,11.037-11.043,11.037c-6.078,0-11.035-4.96-11.035-11.037C93.644,5.682,98.601,0.724,104.679,0.724"/>
	<path fill-rule="evenodd" clip-rule="evenodd" fill="#B12F25" d="M104.679,1.42c5.701,0,10.346,4.645,10.346,10.345
		c0,5.695-4.645,10.343-10.346,10.343c-5.694,0-10.341-4.647-10.341-10.343C94.338,6.064,98.984,1.42,104.679,1.42"/>
	<path fill-rule="evenodd" clip-rule="evenodd" fill="#C43627" d="M113.715,16.797c-0.212,0.377-0.445,0.739-0.699,1.085
		c-0.081-0.393-0.194-0.866-0.273-1.105c-0.259-0.808-0.475-1.241-0.625-1.425c-0.052-0.063-0.104-0.122-0.153-0.176
		c-0.008,0.006-0.016,0.014-0.023,0.02c-0.198,0.222-0.719,0.123-0.66,0.61c0.018,0.339,0.676,1.39,0.245,1.648
		c-0.216,0.132-0.26,0.363-0.317,0.63c0.014,0.067,0.027,0.129,0.039,0.186c0.028,0.107,0.453,0.122,0.666,0.146
		c0.057,0.017,0.359,0.034,0.647,0.039c-0.165,0.189-0.331,0.376-0.513,0.555c-0.223-0.017-0.416-0.041-0.514-0.028
		c-0.045,0.004-0.065,0.012-0.073,0.055c-0.021,0.102,0.063,0.252,0.081,0.354c0.005,0.031,0.016,0.056,0.022,0.083
		c-0.203,0.184-0.413,0.354-0.626,0.519c0-0.028,0-0.063-0.002-0.099c-0.011-0.272-0.037-0.68-0.188-0.922
		c-0.005-0.006-0.008-0.013-0.017-0.02c-0.092,0.055-0.199,0.08-0.29,0.046c-0.109-0.083-0.208-0.167-0.298-0.256
		c-0.113-0.019-0.229-0.034-0.337-0.052c-0.133-0.032-0.532-0.159-0.574,0.021c-0.092,0.099,0.051,0.957,0.133,1.093
		c0.451,0.154,0.92,0.313,1.354,0.351c-0.24,0.171-0.487,0.336-0.742,0.486c-0.204-0.056-0.396-0.109-0.575-0.132
		c-0.144-0.018-0.118,0.188-0.129,0.322c-0.033,0.371-0.381,0.234-0.419-0.058c-0.018-0.133-0.028-0.386-0.109-0.482
		c-0.091-0.096-1.073-0.439-1.181-0.478c-0.203-0.075-0.424-0.367-0.403-0.529c0.014-0.201,0.594,0.068,0.738,0.117
		c0.246,0.081,0.474,0.202,0.729,0.192c0.038-0.001,0.044-0.065,0.041-0.107c-0.007-0.183-0.122-1.034-0.164-1.05
		c-0.087-0.034-0.151-0.036-0.243-0.068c-0.48-0.155-0.733-0.16-1.202-0.353c-0.21-0.092-0.409-0.252-0.387-0.427
		c0.028-0.19,0.254-0.063,0.534,0.051c0.451,0.178,0.768,0.266,1.234,0.289c0.146,0.008,0.082-0.343,0.102-0.458
		c0.007-0.031,0.054-0.154,0.141-0.167c0.085-0.011,0.211,0.049,0.296,0.227c0.064,0.132,0.059,0.236,0.1,0.419
		c0.066,0.019,0.259,0.056,0.484,0.098c-0.176-0.244-0.337-0.482-0.529-0.699c-0.229-0.202-0.436-0.388-0.731-0.479
		c-0.243-0.071-0.948-0.155-0.557-0.557c0.156-0.159,0.438-0.187,0.51-0.173c0.764,0.114,1.075,0.514,1.786,1.435
		c0.428,0.559,0.522,0.32,0.621-0.205c0.243-1.281-0.222-1.56,0.04-2.307c0.188-0.539-0.478-1.026-0.239-1.413
		c0.354-0.586,1.094-0.338,1.652-0.386c1.127-0.101,1.933-0.502,1.807-1.816c-0.054-0.549-0.534-2.239-1.215-2.202
		c-0.83,0.044-2.242,0.529-2.988-0.073c-0.593-0.479-1.499-1.254-0.727-2.007c0.547-0.538,0.731-0.76,1.564-0.767
		c0.467-0.005,1.143,0.294,1.398,0.761c0.27,0.483-0.262,1.009-0.824,1.019c-0.346,0.005-0.531-0.117-0.855-0.239
		c-0.147-0.053-0.37-0.155-0.504-0.021c-0.145,0.143-0.073,0.532,0.056,0.659c0.131,0.132,0.405,0.084,0.587,0.068
		c0.791-0.068,1.414,0.124,2.146-0.387c0.706-0.5,0.081-1.736-0.262-2.04c-0.801-0.711-1.44-1.187-2.526-1.34
		c-0.533-0.074-1.372-0.054-1.908,0.024c-0.502,0.08-1.182,0.394-1.117,0.511c0.361,0.688,0.455,1.759,0.4,2.507
		c-0.188,2.412-2.488,2.81-4.483,2.953c-0.718,0.051-1.787-0.294-2.279-0.554c-0.606-0.317-1.066-0.884-0.896-1.571
		c0.091-0.361,0.322-0.734,0.501-1.006c0.397-0.591,0.931-0.894,1.601-1.046c0.856-0.204,1.538-0.125,1.998,0.156
		c0.166,0.102,0.54,0.336,0.794,0.633c0.381,0.438,0.523,0.787-0.082,1.234c-0.337,0.251-0.981,0.435-1.351,0.139
		c-0.107-0.086-0.666-0.553-0.416-0.702c0.13-0.081,0.999,0.147,0.953-0.201c-0.047-0.396-0.494-0.581-0.825-0.668
		c-0.951-0.251-2.274,0.934-2.245,1.87c0.042,1.434,1.987,1.047,2.937,0.831c0.497-0.119,0.996-0.252,1.471-0.463
		c0.496-0.224,0.872-0.706,1.086-1.247c0.277-0.701,0.292-1.876-0.037-2.56c-0.129-0.271-0.337-0.606-0.666-1.043
		c-0.227-0.303-0.438-0.594-0.755-0.813c-0.173-0.12-0.452-0.409-0.518-0.288c-0.064,0.122-0.157,0.41-0.18,0.598
		c-0.029,0.255-0.059,0.695-0.375,0.511c-0.161-0.09-0.216-0.215-0.216-0.431c0-0.285,0.088-0.516,0.192-0.783
		c0.034-0.086,0.11-0.189,0.084-0.209c-0.523-0.378-1.8-0.302-2.388-0.188c-1.887,0.366-3.319,1.56-4.001,3.381
		c-0.298,0.791-0.46,1.69-0.363,2.539c0.065,0.573,0.251,1.146,0.533,1.63c0.04,0.064,0.036,0.106,0.105,0.088
		c0.147-0.034,0.475-0.13,1-0.126c0.926,0.006,1.042,0.596,0.613,0.555c-0.075,0.008-0.766,0.097-1.042,0.195
		c-0.107,0.039-0.135,0.062-0.074,0.151c0.505,0.759,1.297,1.475,2.063,1.944c0.183,0.114,0.819,0.453,0.764,0.349
		c-0.319-0.586-0.205-1.236,0.341-1.643c0.77-0.575,1.292-0.956,2.301-0.875c0.566,0.047,1.024,0.204,1.459,0.621
		c0.362,0.341,0.55,0.705,0.033,1.11c-0.315,0.249-0.697,0.453-0.994,0.504c-0.349,0.061-0.671,0.503-0.99,0.13
		c-1.073-1.255,1.737-0.385,1.437-1.272c-0.082-0.236-0.264-0.333-0.49-0.405c-0.813-0.259-2.303,0.642-2.479,1.454
		c-0.018,0.077-0.082,0.388,0.277,0.646c0.188,0.138,0.634,0.081,0.417,0.428c-0.184,0.297-0.704,0.089-0.955,0.03
		c-1.238-0.287-2.333-1.313-3.162-2.244c-0.169-0.188-0.485-0.529-0.535-0.595c-0.043-0.055-0.405,0.32-0.545,0.483
		c-0.361,0.418-0.334,0.918,0.115,1.258c0.65,0.498,1.505,0.687,1.866,1.509c0.401,0.926-0.435,1.749-0.918,2.444
		c-0.382,0.555-0.545,1.106-0.506,1.656c-0.346-0.348-0.667-0.724-0.961-1.117c0.119-0.649,0.407-1.271,0.845-1.76
		c0.264-0.4,0.604-0.867,0.536-1.338c-0.037-0.232-0.103-0.317-0.296-0.423c-0.719-0.405-1.485-0.813-1.627-1.719
		c-0.054-0.694,0.337-1.229,0.885-1.616c0.144-0.084,0.136-0.096,0.061-0.234c-0.176-0.4-0.304-0.81-0.44-1.229
		c-0.323-1.531-0.106-3.03,0.672-4.398c0.706-1.19,1.884-2.138,3.213-2.601c1.192-0.415,2.576-0.47,3.724,0.124
		c0.258-0.158,0.506-0.31,0.796-0.411c0.9-0.308,1.861-0.244,2.441,0.444c0.221,0.262,0.461,0.687,0.253,1.032
		c-0.315,0.521-1.025,0.552-1.323,0.005c-0.064-0.117-0.106-0.203-0.056-0.332c0.059-0.163,0.242-0.066,0.371-0.135
		c0.04-0.021,0.019-0.149,0.001-0.182c-0.245-0.432-0.752-0.444-1.195-0.378c-0.322,0.047-0.893,0.295-0.735,0.37
		c0.122,0.059,0.315,0.195,0.436,0.298c0.33,0.288,0.627,0.565,0.888,0.914c0.132,0.175,0.258,0.35,0.42,0.498
		c0.06,0.056,0.138,0,0.205-0.041c1.142-0.686,2.2-0.777,3.601-0.517c1.529,0.283,2.324,1.106,3.149,2.086
		c0.462,0.55,0.849,1.765,0.454,2.362c-0.062,0.167-0.047,0.231,0.06,0.379c0.92,0.975,1.532,2.497,1.201,3.843
		c-0.289,0.628-0.762,1.033-1.485,1.026c-0.159,0.002-0.536,0.136-0.756,0.259c0.161,0.205,0.359,0.607,0.635,1.306
		C113.449,15.977,113.588,16.384,113.715,16.797 M108.648,21.313c-0.301,0.128-0.613,0.239-0.929,0.338
		c-0.58-0.468-1.169-0.921-1.778-1.369c-0.026-0.021-0.118-0.089-0.226-0.165c-0.266,0.241-0.538,0.428-0.646,0.471
		c-0.976,0.395-2.093-0.078-2.69-0.901c-0.216-0.299-0.265-0.717,0.211-0.631c0.218,0.04,0.348,0.101,0.53,0.222
		c0.4,0.268,0.776,0.642,1.259,0.398c0.111-0.059,0.245-0.185,0.376-0.341c-0.197-0.132-0.536-0.396-0.548-0.417
		c-0.113-0.147-0.043-0.296,0.122-0.335c0.253-0.057,0.447-0.061,0.653,0.012c0.063,0.017,0.143,0.051,0.217,0.09
		c0.036-0.07,0.068-0.134,0.083-0.183c0.142-0.399,0.242-1.103-0.136-1.438c-0.568-0.497-1.096-0.645-1.381-1.367
		c-0.325-0.827,0.562-0.311,0.642-0.41c0.521-0.643,0.795-0.433,1.49-0.597c0.396,0.028,0.786,0.192,1.002,0.548
		c0.202,0.331,0.805-0.262,0.735-0.577c-0.109-0.501-0.419-0.887-0.625-0.968c-0.116-0.044-0.212-0.078-0.231-0.027
		c-0.041,0.095-0.031,0.076-0.037,0.108c-0.065,0.298-0.477,0.505-0.682,0.28c-0.04-0.046-0.04-0.083-0.014-0.198
		c0.014-0.035,0.086-0.124,0.045-0.147c-0.046-0.022-0.209,0.019-0.281,0.052c-0.162,0.077-0.369,0.048-0.487-0.164
		c-0.101-0.179,0.155-0.399,0.374-0.482c0.137-0.049,0.262-0.091,0.355-0.126c0.171-0.057,0.286-0.277,0.378-0.429
		c0.382-0.637,1.06-1.319,1.722-1.647c0.823-0.416,2.185-0.822,2.914-0.014c0.153,0.173,0.344,0.65,0.336,1.105
		c-0.013,0.688-0.73,0.979-1.035,1.068c-0.607,0.179-1.275,0.009-1.397-0.724c-0.05-0.292,1.008-0.344,1.143-0.232
		c0.034,0.03,0.03,0.101,0.073,0.127c0.487,0.274,0.525-1.215-0.027-1.278c-0.777-0.094-1.456,0.307-2.079,0.746
		c-0.194,0.139-0.87,0.694-0.97,1.094c-0.077,0.317,0.017,0.279,0.204,0.354c0.808,0.319,1.078,0.938,1.105,1.708
		c0.023,0.714-0.391,1.048-0.894,1.185c-0.267,0.41-0.762,0.552-0.953,0.571c-0.223,0.056-0.439,0.062-0.688-0.004
		c-0.042-0.013-0.079-0.027-0.114-0.048c-0.065-0.025-0.122-0.053-0.18-0.087c-0.023-0.007-0.046-0.012-0.071-0.015
		c-0.078-0.008-0.072,0.069-0.034,0.108c0.178,0.18,0.426,0.427,0.555,0.642c0.464,0.765,0.405,1.602,0.3,2.076
		c-0.016,0.052-0.037,0.1-0.064,0.152C106.948,19.946,107.827,20.628,108.648,21.313 M100.185,21.077
		c-0.345-0.17-0.678-0.356-0.999-0.557c0.331-0.126,0.64-0.306,0.845-0.457c0.896-0.658,2.205-2.502,0.803-3.372
		c-0.301-0.189-1.016-0.179-1.215,0.16c-0.057,0.101-0.282,0.731-0.137,0.827c0.309,0.208,0.915-0.059,1.199-0.12
		c0.309-0.067-0.005,0.483,0.005,0.633c0.008,0.099,0.044,0.2-0.008,0.283c-0.244,0.391-0.978,0.497-1.336,0.203
		c-0.682-0.56-1.021-1.547-0.556-2.364c0.179-0.313,0.451-0.279,0.781-0.289c0.946-0.021,2.299,0.219,2.699,1.215
		c0.058,0.146,0.097,0.347,0.107,0.554c0.042,0.682-0.4,1.488-0.742,2.062C101.251,20.354,100.744,20.795,100.185,21.077
		 M94.517,9.849c0.144-0.756,0.367-1.484,0.664-2.175c0.216,0.105,0.406,0.258,0.531,0.447c0.228,0.337,0.29,0.767,0.073,1.131
		c-0.063,0.103-0.178,0.138-0.29,0.156c-0.101,0.02-0.366-0.083-0.435-0.004c-0.023,0.026,0.019,0.072,0.05,0.098
		c0.068,0.064,0.162,0.108,0.243,0.164c0.129,0.089,0.227,0.157,0.282,0.303c0.04,0.098-0.014,0.183-0.094,0.235
		c-0.187,0.124-0.573-0.047-0.734-0.15C94.715,9.994,94.615,9.926,94.517,9.849 M96.538,15.638c-0.403,0.173-0.931,0.32-1.28-0.024
		c-0.147-0.147-0.218-0.407-0.241-0.606c-0.044-0.325,0.076-0.688,0.315-0.909c0.073-0.063,0.163-0.118,0.261-0.157
		c0.208-0.08,0.47-0.075,0.662,0.032c0.377,0.2,0.579,0.438,0.827,0.786c0.057,0.078,0.18,0.127,0.196,0.229
		c0.027,0.143-0.059,0.226-0.176,0.304C96.915,15.411,96.737,15.553,96.538,15.638 M96.196,15.136
		c-0.307,0.152-0.571,0.262-0.719-0.104c-0.047-0.117-0.045-0.31,0.018-0.42c0.017-0.031,0.057-0.063,0.098-0.064
		c0.244-0.022,0.575,0.262,0.636,0.484C96.237,15.066,96.229,15.118,96.196,15.136 M102.073,16.499
		c-0.056-0.333-0.146-0.777,0.112-1.028c0.161-0.157,0.398-0.11,0.556,0.053c0.301,0.328,0.259,0.915-0.017,1.243
		C102.51,17.018,102.119,16.771,102.073,16.499 M112.713,11.719c-0.22-0.024-0.451-0.179-0.445-0.418
		c0.003-0.081,0.019-0.163,0.049-0.234c0.051-0.125,0.152-0.232,0.271-0.29c0.117-0.058,0.237-0.06,0.36-0.007
		c0.107,0.05,0.256,0.151,0.205,0.291c-0.04,0.095-0.128,0.201-0.148,0.285c-0.02,0.101,0.026,0.202-0.038,0.285
		C112.897,11.718,112.814,11.729,112.713,11.719 M100.529,6.642c0.276-0.354,0.663-0.568,0.477-1.057
		c-0.18-0.478-0.782-0.609-1.228-0.615c-0.633-0.008-1.155,0.786-0.87,1.357c0.157,0.308,0.447,0.616,0.813,0.627
		C100.151,6.968,100.289,6.951,100.529,6.642 M107.038,11.181c0.014-0.119-0.096-0.181-0.062-0.248
		c0.048-0.093,0.207-0.103,0.333-0.203c0.196-0.155,0.183-0.43-0.281-0.602c-0.433-0.161-0.749,0.104-0.853,0.463
		c-0.138,0.482,0.233,0.759,0.392,0.782C106.707,11.39,107.001,11.433,107.038,11.181 M110.842,7.561
		c-0.15-0.031-0.31-0.146-0.441-0.202c-0.143-0.056,0.052-0.191,0.104-0.222c0.119-0.073,0.276-0.123,0.401-0.118
		c0.105,0,0.44,0.214,0.369,0.382C111.195,7.6,111.021,7.602,110.842,7.561 M111.071,14.611c0.094-0.381-0.213-0.744-0.014-0.828
		c0.285-0.12,0.484,0.088,0.584,0.312c0.059,0.127,0.006,0.452-0.077,0.549C111.413,14.817,111.035,14.74,111.071,14.611
		 M106.284,15.684c-0.126,0.09-0.773,0.175-0.894,0.063c-0.242-0.223,0.128-0.451,0.35-0.531
		C105.891,15.16,106.551,15.491,106.284,15.684"/>
	<path fill-rule="evenodd" clip-rule="evenodd" fill="#FFFFFF" d="M107.599,17.179c0.114,0.166,0.102,0.261,0.021,0.437
		c-0.129,0.151-0.283,0.254-0.495,0.226c-0.143-0.023-0.288-0.077-0.42-0.133c-0.039,0.082-0.081,0.163-0.123,0.248
		c0.11,0.102,0.126,0.233,0.081,0.371c-0.081,0.185-0.238,0.272-0.44,0.238c-0.203,0.341-0.419,0.67-0.639,1.001
		c-0.196,0.298-0.395,0.594-0.607,0.878c-0.116,0.151-0.224,0.304-0.344,0.45c-0.213,0.266-0.46,0.537-0.798,0.629
		c-0.172,0.009-0.242-0.007-0.389-0.091c-0.171-0.17-0.245-0.337-0.163-0.586c0.097-0.251,0.26-0.476,0.407-0.702
		c0.055-0.081,0.117-0.17,0.156-0.259c-0.057-0.288,0.013-0.592-0.042-0.878c-0.188-0.982-0.474-1.804-0.805-2.741
		c-0.188-0.551-0.396-1.098-0.618-1.633c-0.461,0.056-0.85-0.113-1.166-0.445c-0.261-0.291-0.393-0.603-0.452-0.975
		c-0.299,0.159-0.726,0.215-1.057,0.224c-0.392-0.007-0.729-0.078-1.072-0.276c-0.348-0.252-0.636-0.588-0.69-1.034
		c-0.036-0.286-0.047-0.564-0.015-0.847c0.041-0.318,0.118-0.559,0.3-0.819c0.266-0.357,0.609-0.646,1.018-0.814
		c-0.212-0.103-0.462-0.146-0.641-0.302c-0.107-0.101-0.183-0.266-0.166-0.414c0.024-0.25,0.104-0.52,0.281-0.696
		c0.234-0.232,0.468-0.319,0.813-0.211c0.009-0.322,0.143-0.594,0.379-0.808c0.215-0.18,0.464-0.272,0.732-0.31
		c0.016-0.101,0.036-0.205,0.058-0.305c-0.06,0.049-0.15,0.063-0.224,0.071c-0.271-0.015-0.448-0.213-0.571-0.445
		c-0.158-0.33-0.284-0.709-0.193-1.081c0.063-0.216,0.211-0.401,0.39-0.541c0.168-0.118,0.343-0.17,0.549-0.146
		c0.342,0.063,0.619,0.335,0.735,0.657c0.345-0.45,0.804-0.828,1.316-1.079c0.321-0.148,0.661-0.26,1.016-0.314
		c-0.122-0.23-0.243-0.469-0.27-0.731c-0.04-0.449,0.362-0.809,0.752-0.953c0.421-0.143,0.805,0.064,1.032,0.407
		c0.125,0.19,0.2,0.387,0.173,0.621c-0.035,0.243-0.169,0.5-0.33,0.684c0.482,0.096,0.93,0.287,1.329,0.572
		c0.225,0.165,0.437,0.363,0.59,0.597c0.492,0.005,0.973,0.155,1.339,0.498c0.348,0.348,0.598,1.078,0.196,1.477
		c0.539,0.213,1.087,0.646,1.445,1.107c0.003-0.167,0.055-0.308,0.188-0.416c0.485-0.333,1.059,0.108,1.228,0.563
		c0.196,0.511-0.092,1.052-0.687,0.91c-0.1-0.026-0.184-0.071-0.266-0.133c0.079,0.261,0.125,0.524,0.17,0.795
		c0.056,0.41-0.04,0.864-0.253,1.221c-0.082,0.13-0.172,0.238-0.303,0.319c0.055,0.265,0.068,0.534,0.051,0.801
		c-0.058,0.844-0.487,1.947-1.496,1.935c-0.248-0.017-0.388-0.124-0.605-0.189c-0.029,0.362-0.106,0.717-0.186,1.066
		c-0.07,0.313-0.153,0.624-0.257,0.925c0.201,0.07,0.436,0.106,0.578,0.277c0.085,0.154,0.082,0.252-0.001,0.408
		c-0.092,0.129-0.199,0.193-0.358,0.213c-0.179,0.009-0.371-0.047-0.532-0.104c-0.05,0.104-0.097,0.207-0.142,0.313
		C107.278,16.985,107.457,17.049,107.599,17.179"/>
	<path fill-rule="evenodd" clip-rule="evenodd" fill="#FED307" d="M106.786,13.593c0,1.535-0.74,2.974-1.502,4.232
		c-0.189,0.313-0.708,1.074-0.96,1.313c-0.106,0.102-0.235-1.067-0.253-1.275c-0.087-0.965-0.538-2.207-0.92-3.068
		c-0.175-0.399-0.388-0.578-0.317-0.905c0.03-0.129,0.2-0.344,0.29-0.505c0.145-0.262,0.26-0.623,0.229-1.008
		c-0.019-0.275,0.722,0.179,0.788,0.25c0.229,0.224,0.395,0.389,0.789,0.555C105.396,15.069,105.31,15.505,106.786,13.593"/>
	<path fill-rule="evenodd" clip-rule="evenodd" fill="#D3A12A" d="M102.644,13.363c0.064,0.069,0.153,0.218,0.146,0.27
		c-0.013,0.153-0.332,0.132-0.43,0.104c-0.038-0.008-0.197-0.424-0.198-0.442c-0.01-0.106,0.069-0.16,0.16-0.13
		C102.467,13.212,102.563,13.267,102.644,13.363 M105.567,17.575c-0.084-0.079-0.5-0.368-0.558-0.465
		c-0.021-0.033,0.115-0.256,0.139-0.3c0.044-0.061,0.091-0.163,0.131-0.234c0.017-0.037,0.043,0.018,0.093,0.05
		c0.153,0.106,0.387,0.284,0.588,0.41c0.02,0.014,0.081,0.045,0.035,0.118c-0.054,0.098-0.193,0.326-0.264,0.454
		C105.694,17.68,105.622,17.606,105.567,17.575 M105.075,15.875c-0.226-0.149-0.428-0.386-0.621-0.612
		c0-0.094,0.186-0.557,0.26-0.581c0.075-0.076,0.231,0.105,0.289,0.159c0.111,0.093,0.236,0.19,0.334,0.299
		c0.016,0.015,0.046,0.085,0.046,0.12c0.005,0.164-0.103,0.372-0.177,0.514C105.142,15.892,105.115,15.884,105.075,15.875
		 M105.503,16.226c-0.017-0.027-0.029-0.06-0.014-0.094c0.092-0.208,0.104-0.216,0.163-0.428c0.022-0.06,0.022-0.159,0.069-0.2
		c0.016-0.021,0.027-0.018,0.05-0.009c0.069,0.033,0.199,0.141,0.351,0.243c0.119,0.081,0.256,0.157,0.385,0.227
		c0.033,0.018,0.083,0.032,0.038,0.126c-0.082,0.171-0.165,0.348-0.288,0.586c-0.03,0.046-0.056,0.082-0.131,0.036
		C105.939,16.604,105.606,16.381,105.503,16.226 M102.92,13.913c0.301,0.699,0.816,2.02,1.06,2.933
		c0.207,0.638,0.521,1.896,0.408,2.507c-0.003,0.021-0.04,0.166,0.004,0.154c0.076-0.012,0.153-0.119,0.198-0.173
		c0.316-0.432,0.599-0.876,0.894-1.315c0.065-0.104,0.02-0.123-0.08-0.188c-0.128-0.087-0.315-0.247-0.422-0.331
		c-0.078-0.061-0.17-0.183-0.199-0.157c-0.174,0.195-0.233,0.232-0.342,0.226c-0.109-0.004-0.044-0.136-0.001-0.189
		c0.054-0.066,0.077-0.124,0.12-0.191c0.017-0.024-0.008-0.077-0.049-0.112c-0.062-0.085-0.114-0.141-0.244-0.284
		c-0.104-0.115-0.202-0.358,0.005-0.281c0.028,0.019,0.099,0.08,0.139,0.114c0.135,0.111,0.125,0.149,0.268,0.258
		c0.04,0.03,0.146-0.132,0.192-0.261c0.027-0.072,0.105-0.215,0.108-0.268c0-0.031-0.051-0.087-0.07-0.104
		c-0.266-0.207-0.446-0.471-0.646-0.627c-0.067-0.051-0.113,0.056-0.16,0.121c-0.125,0.173-0.258,0.001-0.189-0.152
		c0.032-0.073,0.099-0.201,0.088-0.272c-0.017-0.075-0.402-0.533-0.438-0.588c-0.086-0.098-0.104-0.305-0.045-0.377
		c0.064-0.097,0.272,0.207,0.328,0.275c0.099,0.11,0.175,0.241,0.303,0.31c0.021,0.01,0.04-0.02,0.056-0.041
		c0.051-0.092,0.244-0.548,0.229-0.567c-0.037-0.042-0.064-0.064-0.104-0.105c-0.192-0.22-0.314-0.296-0.486-0.532
		c-0.079-0.106-0.132-0.244-0.067-0.324c0.069-0.083,0.146,0.046,0.251,0.184c0.167,0.221,0.303,0.357,0.521,0.508
		c0.071,0.049,0.145-0.146,0.188-0.195c0.014-0.014,0.074-0.063,0.12-0.04c0.046,0.018,0.088,0.084,0.079,0.202
		c-0.009,0.08-0.039,0.133-0.074,0.23c0.068,0.075,0.467,0.411,0.621,0.567c0.049,0.046,0.082-0.035,0.1-0.087
		c0.065-0.205,0.367-0.167,0.346,0.008c-0.014,0.11-0.056,0.222-0.088,0.313c-0.018,0.063,0.186,0.195,0.282,0.271
		c0.051,0.05,0.573,0.389,0.592,0.347c0.083-0.165,0.258-0.693,0.31-0.91c0.106-0.479,0.133-0.759,0.113-0.893
		c-0.023-0.143-0.058-0.267-0.035-0.349c0.071-0.22,0.321-0.217,0.444-0.237c0.18-0.03,0.273,0.096,0.115,1.024
		c-0.112,0.543-0.211,1.003-0.397,1.526c-0.01,0.022-0.017,0.05-0.024,0.072c-0.009,0.038,0.141,0.093,0.193,0.113
		c0.086,0.034,0.188,0.058,0.286,0.097c0.07,0.021,0.243,0.053,0.214,0.166c-0.042,0.1-0.124,0.133-0.22,0.123
		c-0.167-0.015-0.395-0.088-0.52-0.147c-0.055-0.024-0.065-0.061-0.124,0.064c-0.08,0.172-0.199,0.452-0.259,0.574
		c-0.028,0.055-0.035,0.089-0.014,0.11c0.123,0.121,0.501,0.229,0.604,0.336c0.077,0.083-0.087,0.216-0.199,0.216
		c-0.077,0-0.355-0.091-0.561-0.207c-0.039-0.025-0.044-0.016-0.082,0.053c-0.076,0.138-0.202,0.409-0.253,0.484
		c-0.07,0.099-0.079,0.127-0.021,0.157c0.041,0.02,0.073,0.05,0.129,0.101c0.032,0.028-0.005,0.137-0.083,0.14
		c-0.053,0.003-0.136-0.021-0.184-0.045c-0.033-0.016-0.052,0.013-0.078,0.054c-0.24,0.416-0.504,0.816-0.77,1.223
		c-0.169,0.251-0.343,0.509-0.523,0.751c-0.233,0.305-0.583,0.841-0.938,0.967c-0.175,0.063-0.34-0.103-0.29-0.28
		c0.093-0.308,0.55-0.833,0.598-1.066c-0.035-0.136-0.035-0.236-0.035-0.375c0.031-1.168-0.496-2.345-0.827-3.289
		c-0.205-0.591-0.424-1.166-0.664-1.747c-0.022-0.046-0.163-0.373-0.184-0.418L102.92,13.913z"/>
	<path fill-rule="evenodd" clip-rule="evenodd" fill="#D3A12A" d="M103.978,6.128c0.244-0.094,0.501-0.086,0.554-0.384
		c0.052-0.29-0.212-0.534-0.425-0.668c-0.314-0.188-0.808,0.05-0.835,0.417c-0.014,0.197,0.04,0.435,0.218,0.549
		C103.696,6.177,103.769,6.209,103.978,6.128 M100.459,6.413c-0.131,0.006-0.273-0.193-0.322-0.294
		c-0.133-0.271-0.292-0.714-0.133-0.997c0.165-0.296,0.472-0.516,0.8-0.296c0.202,0.134,0.343,0.372,0.355,0.607
		c0.011,0.235-0.087,0.462-0.303,0.581c-0.06,0.031-0.125,0.017-0.187-0.011c-0.058-0.019-0.156-0.147-0.218-0.129
		c-0.016,0.006-0.007,0.039,0,0.064c0.014,0.051,0.046,0.101,0.07,0.153c0.038,0.081,0.065,0.144,0.052,0.23
		C100.564,6.382,100.51,6.41,100.459,6.413 M101.822,11.464c0.072-0.18,0.16-0.426,0.363-0.476c0.125-0.029,0.229,0.065,0.256,0.191
		c0.053,0.253-0.143,0.532-0.373,0.611C101.885,11.851,101.766,11.61,101.822,11.464 M105.859,10.303
		c0.041-0.051,0.005-0.116,0.041-0.14c0.053-0.031,0.135,0.01,0.223-0.001c0.146-0.019,0.221-0.161,0.045-0.381
		c-0.17-0.211-0.404-0.171-0.562-0.026c-0.212,0.198-0.11,0.448-0.041,0.505C105.632,10.31,105.764,10.417,105.859,10.303
		 M99.338,9.396c-0.253-0.032-0.556-0.113-0.625-0.392c-0.03-0.115,0.013-0.266,0.058-0.37c0.076-0.173,0.244-0.319,0.428-0.354
		c0.053-0.014,0.116-0.014,0.175-0.003c0.127,0.021,0.255,0.102,0.319,0.215c0.125,0.207,0.157,0.387,0.176,0.631
		c0.007,0.056,0.049,0.116,0.026,0.172c-0.026,0.078-0.094,0.095-0.174,0.099C99.591,9.396,99.463,9.414,99.338,9.396 M99.318,9.047
		c-0.197-0.014-0.361-0.04-0.324-0.265c0.012-0.069,0.069-0.166,0.133-0.201c0.017-0.009,0.048-0.015,0.067-0.005
		c0.126,0.064,0.208,0.303,0.168,0.431C99.359,9.024,99.338,9.05,99.318,9.047 M104.11,3.778c-0.064-0.019-0.114-0.058-0.146-0.117
		c-0.113-0.215-0.236-0.427-0.268-0.673c-0.008-0.047-0.008-0.094,0.001-0.144c0.038-0.191,0.161-0.277,0.303-0.398
		c0.062-0.056,0.14-0.09,0.214-0.126c0.086-0.042,0.178-0.055,0.274-0.047c0.165,0.014,0.313,0.094,0.418,0.223
		c0.089,0.111,0.175,0.252,0.204,0.398c0.041,0.208-0.098,0.451-0.211,0.616c-0.068,0.098-0.182,0.204-0.301,0.246
		C104.474,3.802,104.249,3.821,104.11,3.778 M104.237,3.511c-0.098,0-0.172-0.184-0.194-0.253c-0.056-0.178-0.005-0.382,0.121-0.514
		c0.105-0.107,0.433-0.277,0.517-0.061c0.024,0.058,0.024,0.133,0.003,0.188c-0.057,0.147-0.12,0.289-0.189,0.427
		C104.444,3.396,104.355,3.513,104.237,3.511 M108.509,12.252c-0.104-0.078-0.173-0.223-0.097-0.337
		c0.023-0.042,0.055-0.076,0.093-0.104c0.064-0.047,0.144-0.07,0.221-0.063c0.073,0.007,0.137,0.042,0.176,0.102
		c0.042,0.06,0.087,0.148,0.018,0.204c-0.047,0.037-0.123,0.063-0.155,0.101c-0.038,0.043-0.051,0.105-0.106,0.129
		C108.601,12.307,108.554,12.287,108.509,12.252 M110.615,8.713c-0.182-0.127-0.34-0.375-0.368-0.551
		c-0.025-0.132-0.039-0.357,0.111-0.399c0.098-0.028,0.206-0.02,0.303,0.003c0.152,0.033,0.269,0.141,0.361,0.276
		c0.068,0.106,0.149,0.253,0.162,0.387c0.006,0.116-0.053,0.289-0.182,0.328C110.856,8.81,110.744,8.801,110.615,8.713"/>
	<path fill-rule="evenodd" clip-rule="evenodd" fill="#BF3138" d="M104.688,13.054c0.122-0.033,0.267,0.038,0.301,0.063
		c0.347,0.284,0.382,0.576,0.46,1.242c0.047,0.404,0.166,0.313,0.369,0.083c0.501-0.561,0.353-0.839,0.705-1.129
		c0.248-0.211,0.064-0.648,0.298-0.774c0.353-0.182,0.639,0.159,0.935,0.299c0.588,0.285,1.106,0.328,1.431-0.363
		c0.137-0.285,0.399-1.267,0.053-1.449c-0.426-0.222-1.267-0.401-1.46-0.921c-0.147-0.415-0.369-1.066,0.233-1.208
		c0.434-0.107,0.592-0.161,1.008,0.084c0.23,0.136,0.475,0.481,0.465,0.789c-0.01,0.32-0.428,0.423-0.713,0.263
		c-0.172-0.103-0.227-0.217-0.352-0.373c-0.055-0.07-0.138-0.188-0.244-0.161c-0.109,0.027-0.195,0.243-0.166,0.343
		c0.024,0.106,0.174,0.162,0.27,0.209c0.414,0.202,0.665,0.482,1.177,0.441c0.5-0.036,0.557-0.832,0.475-1.085
		c-0.185-0.589-0.36-1.013-0.853-1.412c-0.243-0.194-0.662-0.435-0.953-0.55c-0.271-0.112-0.699-0.159-0.702-0.08
		c-0.023,0.445-0.298,1.006-0.549,1.356c-0.804,1.141-2.061,0.654-3.091,0.136c-0.371-0.188-0.798-0.675-0.968-0.952
		c-0.204-0.335-0.26-0.753,0.024-1.042c0.15-0.149,0.378-0.269,0.55-0.35c0.366-0.175,0.722-0.166,1.1-0.043
		c0.485,0.154,0.796,0.393,0.941,0.672c0.051,0.098,0.17,0.324,0.207,0.547c0.058,0.329,0.026,0.544-0.405,0.587
		c-0.244,0.022-0.614-0.078-0.711-0.333c-0.029-0.074-0.166-0.469,0.004-0.472c0.088,0,0.449,0.372,0.53,0.186
		c0.095-0.211-0.075-0.437-0.212-0.577c-0.396-0.406-1.402-0.212-1.667,0.262c-0.401,0.725,0.673,1.107,1.209,1.278
		c0.281,0.091,0.566,0.175,0.865,0.207c0.314,0.039,0.644-0.086,0.907-0.291c0.345-0.268,0.703-0.845,0.74-1.279
		c0.016-0.174,0.013-0.402-0.02-0.715c-0.022-0.215-0.041-0.424-0.134-0.626c-0.052-0.11-0.104-0.335-0.17-0.295
		c-0.069,0.041-0.198,0.155-0.266,0.243c-0.095,0.116-0.235,0.323-0.34,0.14c-0.052-0.09-0.041-0.171,0.023-0.276
		c0.085-0.14,0.193-0.229,0.325-0.329c0.046-0.032,0.114-0.062,0.104-0.08c-0.147-0.343-0.801-0.683-1.125-0.8
		c-1.043-0.378-2.106-0.212-2.983,0.487c-0.38,0.304-0.731,0.701-0.931,1.152c-0.139,0.3-0.217,0.64-0.222,0.964
		c0,0.04-0.016,0.062,0.03,0.072c0.08,0.027,0.273,0.077,0.531,0.233c0.456,0.281,0.34,0.604,0.138,0.457
		c-0.039-0.019-0.407-0.181-0.572-0.212c-0.067-0.014-0.088-0.01-0.087,0.051c0.03,0.528,0.209,1.116,0.449,1.576
		c0.056,0.111,0.27,0.47,0.276,0.397c0.014-0.383,0.265-0.671,0.651-0.711c0.553-0.058,0.926-0.089,1.4,0.249
		c0.266,0.19,0.447,0.406,0.538,0.741c0.076,0.272,0.061,0.512-0.311,0.557c-0.229,0.032-0.48,0.019-0.642-0.042
		c-0.19-0.077-0.482,0.048-0.53-0.229c-0.157-0.938,0.973,0.323,1.086-0.204c0.032-0.143-0.028-0.242-0.121-0.348
		c-0.326-0.369-1.329-0.363-1.658-0.015c-0.032,0.034-0.153,0.17-0.052,0.402c0.052,0.124,0.289,0.228,0.079,0.338
		c-0.179,0.089-0.377-0.168-0.484-0.271c-0.524-0.509-0.762-1.342-0.9-2.046c-0.024-0.147-0.081-0.409-0.088-0.456
		c-0.004-0.041-0.295,0.04-0.413,0.081c-0.301,0.1-0.437,0.351-0.316,0.654c0.178,0.438,0.542,0.787,0.479,1.299
		c-0.075,0.579-0.731,0.738-1.179,0.938c-0.626,0.285-0.912,0.771-0.897,1.446c0.01,0.507,0.805,0.579,1.186,0.543
		c0.641-0.059,1.833-0.583,1.398-1.43c-0.096-0.184-0.449-0.391-0.648-0.281c-0.059,0.033-0.358,0.28-0.315,0.369
		c0.093,0.193,0.473,0.239,0.631,0.296c0.172,0.058-0.146,0.236-0.186,0.314c-0.026,0.053-0.033,0.111-0.087,0.139
		c-0.239,0.12-0.631-0.046-0.723-0.298c-0.172-0.479-0.046-1.068,0.427-1.334c0.182-0.103,0.304-0.004,0.474,0.091
		c0.47,0.271,1.072,0.787,0.975,1.397c-0.016,0.093-0.055,0.2-0.112,0.307c-0.179,0.352-0.641,0.619-0.976,0.805
		c-0.903,0.354-2.117,0.231-2.392-0.848c-0.062-0.442-0.07-0.882,0.097-1.307c0.252-0.463,0.694-0.842,1.203-0.999
		c0.249-0.122,0.555-0.248,0.662-0.504c0.053-0.125,0.043-0.187-0.017-0.295c-0.241-0.416-0.498-0.844-0.301-1.334
		c0.18-0.36,0.53-0.511,0.915-0.539c0.097,0.004,0.097-0.006,0.099-0.097c0.035-0.251,0.091-0.49,0.15-0.738
		c0.292-0.855,0.842-1.532,1.635-1.979c0.702-0.378,1.564-0.5,2.358-0.335c0.718,0.146,1.417,0.531,1.812,1.164
		c0.172-0.001,0.342-0.002,0.512,0.035c0.537,0.112,0.998,0.429,1.08,0.942c0.03,0.195,0.021,0.479-0.18,0.586
		c-0.313,0.164-0.677-0.031-0.66-0.391c0.005-0.076,0.009-0.131,0.071-0.182c0.081-0.06,0.141,0.039,0.222,0.043
		c0.029,0.003,0.056-0.065,0.056-0.088c0.009-0.285-0.238-0.442-0.479-0.542c-0.174-0.073-0.529-0.116-0.477-0.036
		c0.045,0.066,0.101,0.193,0.129,0.277c0.08,0.241,0.146,0.466,0.17,0.717c0.016,0.125,0.025,0.251,0.059,0.37
		c0.015,0.047,0.07,0.043,0.114,0.043c0.771-0.003,1.321,0.269,1.937,0.808c0.675,0.599,0.822,1.239,0.942,1.97
		c0.065,0.408-0.104,1.124-0.477,1.303c-0.079,0.063-0.092,0.1-0.083,0.206c0.165,0.754,0.02,1.688-0.544,2.258
		c-0.33,0.225-0.684,0.284-1.042,0.066c-0.103-0.061-0.473-0.12-0.558-0.084c-0.157,0.064-0.223,0.206-0.53,0.256
		c-0.168,0.049-0.396-0.155-0.511,0.105c-0.092,0.175-0.072,0.887-0.37,0.889c-0.274,0.002-0.348,0.375-0.738,0.493
		c-0.079,0.026-0.198,0.018-0.253-0.052c-0.18-0.45-0.132-0.847-0.206-1.231c-0.056-0.169-0.103-0.322-0.22-0.456
		C104.699,13.385,104.374,13.138,104.688,13.054 M104.651,12.859c-0.25,0.122-0.539,0.047-0.64,0
		c-0.124-0.039-0.232-0.103-0.336-0.207c-0.019-0.019-0.032-0.036-0.042-0.056c-0.023-0.032-0.047-0.064-0.064-0.098
		c-0.006-0.013-0.02-0.021-0.035-0.028c-0.032-0.027-0.052,0.012-0.044,0.047c0.03,0.14,0.083,0.332,0.083,0.48
		c0.004,0.515-0.274,0.91-0.467,1.113c-0.235,0.215-0.874,0.287-1.011,0.267c-0.601-0.098-1.015-0.656-1.064-1.246
		c-0.017-0.21,0.078-0.433,0.29-0.249c0.099,0.085,0.145,0.152,0.197,0.267c0.119,0.252,0.193,0.548,0.507,0.572
		c0.197,0.012,0.659-0.2,0.796-0.314c0.186-0.157,0.44-0.474,0.356-0.752c-0.132-0.414-0.353-0.644-0.28-1.085
		c0.087-0.509,0.371,0.013,0.441-0.014c0.448-0.165,0.523,0.021,0.912,0.146c0.188,0.131,0.335,0.331,0.335,0.567
		c0,0.224,0.474,0.108,0.535-0.07c0.097-0.278,0.058-0.561-0.02-0.662c-0.048-0.058-0.085-0.1-0.109-0.082
		c-0.048,0.035-0.039,0.027-0.049,0.043c-0.119,0.128-0.386,0.108-0.421-0.064c-0.006-0.033,0.004-0.052,0.051-0.102
		c0.017-0.014,0.078-0.034,0.064-0.06c-0.015-0.024-0.107-0.053-0.153-0.057c-0.105-0.013-0.197-0.084-0.191-0.229
		c0.002-0.116,0.195-0.148,0.33-0.124c0.077,0.014,0.156,0.029,0.212,0.044c0.102,0.019,0.225-0.056,0.315-0.103
		c0.375-0.201,0.915-0.34,1.339-0.31c0.53,0.041,1.322,0.243,1.443,0.858c0.026,0.133-0.024,0.427-0.16,0.648
		c-0.21,0.338-0.652,0.269-0.824,0.223c-0.357-0.093-0.637-0.371-0.481-0.771c0.063-0.159,0.602,0.129,0.636,0.223
		c0.009,0.026-0.015,0.06,0,0.084c0.16,0.283,0.617-0.446,0.363-0.643c-0.357-0.274-0.812-0.278-1.251-0.243
		c-0.136,0.009-0.634,0.087-0.805,0.254c-0.13,0.133-0.074,0.14-0.001,0.234c0.304,0.397,0.252,0.784,0.04,1.172
		C105.248,12.896,104.944,12.938,104.651,12.859 M108.813,9.64c-0.065-0.061-0.109-0.166-0.161-0.23
		c-0.048-0.073,0.086-0.079,0.12-0.079c0.082-0.003,0.173,0.019,0.235,0.06c0.054,0.031,0.151,0.234,0.071,0.297
		C108.978,9.763,108.891,9.713,108.813,9.64 M106.836,13.196c0.16-0.161,0.117-0.43,0.241-0.412
		c0.177,0.023,0.213,0.187,0.196,0.326c-0.011,0.08-0.135,0.226-0.203,0.248C106.948,13.4,106.781,13.25,106.836,13.196
		 M104.149,12.311c-0.088,0.005-0.437-0.143-0.461-0.233c-0.054-0.182,0.195-0.188,0.332-0.16
		C104.11,11.935,104.338,12.294,104.149,12.311"/>
	<path fill-rule="evenodd" clip-rule="evenodd" fill="#FFFFFF" d="M76.194,23.522L14.859,23.52l-0.4-0.038
		c-0.741-0.136-1.336-0.403-1.928-0.87l-0.284-0.254c-0.563-0.594-0.901-1.218-1.087-2.015c-0.128-0.715-0.101-1.395,0.133-2.087
		c-0.088,0.146-0.184,0.287-0.286,0.428c-0.557,0.711-1.228,1.148-2.071,1.461c-1.291,0.431-2.698,0.479-3.993,0.022l-0.27-0.108
		c-0.912-0.411-1.654-1.028-2.243-1.837c-0.212-0.215-0.407-0.453-0.584-0.697c-1.154-1.613-1.604-3.57-1.776-5.513
		c-0.127-1.671-0.086-3.356,0.175-5.013C0.61,4.86,1.422,2.62,3.134,1.197c0.63-0.505,1.31-0.847,2.102-1.007
		C6.271-0.001,7.457,0.047,8.39,0.579c0.421-0.566,1.093-0.621,1.745-0.559c0.279,0.042,0.488,0.105,0.748,0.229l0.247,0.182
		l0.251,0.334l0.028,0.134c0.249,0.121,0.38,0.325,0.539,0.542l0.073,0.36c-0.003,0.454-0.009,0.906-0.009,1.36
		c0.333-0.603,0.708-1.125,1.191-1.614l0.35-0.312c0.479-0.365,0.926-0.606,1.501-0.787c0.396-0.094,0.762-0.142,1.174-0.134
		c0.634,0.037,1.175,0.193,1.734,0.49c0.661,0.382,1.2,0.893,1.65,1.509c0.138,0.143,0.27,0.293,0.394,0.449
		C19.88,2.22,19.888,1.715,20.07,1.185l0.159-0.271l0.347-0.313l0.398-0.089c1.604,0.002,3.207,0.002,4.809,0l0.432,0.135
		c0.185,0.196,0.379,0.367,0.46,0.63l0.075,0.026l0.316,0.306L27.21,1.87l0.109,0.396c0.054,0.415,0.038,0.777-0.061,1.188
		l-0.198,0.435l-0.267,0.287l-0.352,0.147l-0.168,0.022c-0.01,0.884-0.014,1.766-0.014,2.646c0.553-0.346,1.186-0.415,1.814-0.303
		l0.38,0.118c0.413,0.185,0.682,0.393,0.963,0.744l0.146,0.236c0.075,0.063,0.148,0.123,0.213,0.193c0-1.335,0-2.674,0-4.011
		c-0.114-0.122-0.192-0.256-0.244-0.417l-0.133-0.05L29.119,3.2l-0.194-0.438c-0.107-0.469-0.109-0.887-0.004-1.354L28.992,1.2
		l0.143-0.255l0.304-0.303l0.41-0.131c1.108,0.002,2.217-0.003,3.325,0.002c0.907,0.001,1.767,0.081,2.627,0.399
		c0.17,0.064,0.332,0.14,0.497,0.22c0.753,0.405,1.381,0.974,1.878,1.665c1.972,2.063,2.323,5.14,1.984,7.857
		c-0.143,0.983-0.396,1.896-0.841,2.786c-0.286,0.539-0.615,1.011-1.033,1.459c-0.242,0.239-0.489,0.455-0.762,0.658h5.813
		c-0.157-0.178-0.285-0.383-0.449-0.547c-0.705-0.742-1.145-1.614-1.251-2.637c-0.044-0.597,0.046-1.125,0.247-1.687
		c0.209-0.521,0.473-0.952,0.854-1.363c0.372-0.372,0.822-0.701,1.333-0.847l-0.018-0.025c-0.629-0.671-1.108-1.394-1.403-2.27
		c-0.354-1.142-0.35-2.372,0.152-3.472c0.331-0.675,0.758-1.22,1.35-1.685c0.481-0.357,0.973-0.593,1.55-0.744
		c0.564-0.125,1.081-0.14,1.649-0.048c0.476,0.097,0.915,0.255,1.363,0.436l0.236-0.134c0.553-0.202,1.141-0.226,1.712-0.081
		l0.228,0.091l0.306,0.219l0.145,0.252l0.051-0.101L51.793,0.6l0.421-0.088h7.326L59.962,0.6l0.396,0.317l0.204,0.382l0.361,0.287
		l0.196,0.357c0.059,0.235,0.094,0.42,0.098,0.663c-0.008,0.182-0.006,0.357-0.006,0.533c0.52-0.938,1.188-1.758,2.122-2.311
		c0.442-0.238,0.856-0.384,1.35-0.469c0.49-0.063,0.928-0.05,1.41,0.044c0.492,0.117,0.902,0.291,1.331,0.558
		c0.525,0.361,0.971,0.806,1.346,1.322l0.045,0.046c-0.049-0.427,0.022-0.805,0.19-1.201l0.177-0.253l0.314-0.253l0.376-0.111H73.1
		c0.626,0.021,1.155,0.254,1.487,0.798l0.214-0.406l0.328-0.284l0.396-0.107c1.245,0.002,2.493,0.002,3.74,0l0.446,0.184
		l0.147,0.176l0.178-0.188l0.424-0.171h9.268l0.26,0.035l0.274,0.094l0.269,0.162l0.225,0.229L90.93,1.37l0.167,0.104l0.223,0.227
		l0.147,0.258c0.074,0.226,0.116,0.402,0.133,0.637c0.019,1.321,0.055,2.64,0.073,3.954c-0.006,0.19-0.032,0.343-0.073,0.527
		l-0.131,0.281l-0.26,0.29l-0.371,0.192c-0.421,0.057-0.827,0.054-1.253,0.045v4.361c0.283,0,0.543,0.006,0.826,0.045l0.372,0.193
		c0.147,0.166,0.336,0.354,0.392,0.579l0.173,0.09l0.259,0.289l0.133,0.283c0.04,0.182,0.067,0.336,0.07,0.521
		c-0.021,1.474-0.074,2.945-0.095,4.419c-0.008,0.208-0.026,0.384-0.076,0.586l-0.084,0.212l-0.139,0.219l-0.194,0.19l-0.22,0.136
		c-0.203,0.081-0.367,0.125-0.584,0.154l-0.339,0.017H81.1l-0.392-0.093c-0.23-0.192-0.436-0.343-0.545-0.634
		c0.025,0.979-0.307,1.858-0.909,2.618l-0.258,0.285c-0.592,0.563-1.214,0.901-2.013,1.087
		C76.718,23.493,76.463,23.517,76.194,23.522"/>
	<path fill-rule="evenodd" clip-rule="evenodd" fill="#BF3138" d="M30.001,14.988c-0.203,0.004-0.234-1.194,0-1.222
		c0.181-0.024,0.524-0.033,0.662-0.172c0.084-0.11,0.086-0.3,0.088-0.432c-0.001-3.312-0.002-6.624-0.002-9.938
		c-0.026-0.308-0.063-0.404-0.377-0.474c-0.126-0.021-0.248-0.04-0.371-0.06c-0.244-0.017-0.263-1.204,0-1.209
		c1.087,0,2.181-0.006,3.271,0.002c1.24,0.007,2.37,0.187,3.334,1.024c1.976,1.717,2.338,4.745,2.044,7.198
		c-0.188,1.604-0.783,3.228-2.084,4.261c-0.912,0.726-2.038,1.02-3.189,1.02H30.001z M33.661,13.32
		c0.015,0.257-0.017,0.372,0.267,0.401c1.335,0.038,1.44-1.493,1.529-2.487c0.109-1.238,0.125-2.484,0.114-3.73
		c-0.005-0.882-0.036-1.763-0.144-2.641c-0.085-0.694-0.233-1.773-1.007-2.067c-0.684-0.191-0.764,0.008-0.764,0.596v9.776
		C33.657,13.212,33.661,13.28,33.661,13.32"/>
	<path fill-rule="evenodd" clip-rule="evenodd" fill="#BF3138" d="M20.328,8.237c-0.001,2.127-0.544,4.549-2.139,6.071
		c-0.48,0.459-1.101,0.792-1.764,0.876c-2.146,0.269-3.555-1.908-4.128-3.687c-0.617-1.915-0.633-4.148-0.134-6.076
		c0.473-1.813,1.766-4.138,3.914-4.138c2.008,0,3.274,2.05,3.8,3.742C20.2,6.062,20.328,7.154,20.328,8.237 M16.079,2.532
		c-0.619,0.005-0.796,0.981-0.87,1.437c-0.144,0.886-0.177,1.791-0.203,2.686c-0.037,1.392-0.037,2.792,0.041,4.187
		c0.033,0.634,0.082,1.273,0.213,1.894c0.092,0.429,0.385,1.417,1.042,1.122c0.433-0.196,0.58-0.983,0.649-1.39
		c0.135-0.81,0.172-1.632,0.201-2.449c0.042-1.408,0.039-2.824-0.029-4.229c-0.034-0.671-0.076-1.345-0.207-2.003
		C16.838,3.378,16.638,2.529,16.079,2.532"/>
	<path fill-rule="evenodd" clip-rule="evenodd" fill="#BF3138" d="M27.757,14.988c0.74,0.023,0.896-0.374,0.698-0.893
		c-0.308-0.8-0.603-1.835-0.653-1.991c-0.123-0.387-0.161-0.993,0.374-1.604c0.477-0.539,0.602-0.949,0.665-1.486
		c0.207-1.794-2.715-2.099-2.934,0.373c-0.083,0.941,0.215,2.263,0.741,3.074c0.254,0.388,0.854,1.146,0.139,1.395
		c-0.563,0.198-1.983,0.354-2.045-0.507c0-3.343-0.039-6.682,0-10.022c0-0.155,0.049-0.472,0.232-0.508
		c0.233-0.048,0.408-0.074,0.642-0.109c0.254-0.029,0.278-1.228,0.02-1.227h-4.55c-0.28-0.019-0.238,1.227,0,1.21
		c0.122,0.019,0.252,0.022,0.376,0.059c0.295,0.089,0.37,0.148,0.37,0.474c0,3.313,0.001,6.626,0.003,9.938
		c-0.003,0.133-0.003,0.321-0.088,0.432c-0.136,0.139-0.481,0.147-0.661,0.175c-0.217,0.046-0.207,1.205,0,1.219
		C23.303,14.988,25.542,14.916,27.757,14.988"/>
	<path fill-rule="evenodd" clip-rule="evenodd" fill="#BF3138" d="M10.424,12.724c0.244,0.002,0.266,0.25,0.266,0.378
		c-0.009,1.495-0.1,3.096-1.023,4.329c-0.854,1.141-2.511,1.515-3.883,1.394c-1.463-0.128-2.604-0.969-3.371-2.192
		c-1.257-2.01-1.483-4.615-1.436-6.93c0.052-2.409,0.505-5.117,2.068-7.046c0.557-0.686,1.304-1.251,2.169-1.467
		c0.693-0.176,1.714-0.188,2.379,0.081c0.291,0.115,0.542,0.291,0.804,0.456c0.042,0.025,0.102,0.013,0.146,0
		c0.198-0.063,0.476-0.357,0.654-0.607c0.155-0.235,1.298-0.188,1.288,0.107c-0.017,1.938,0.007,3.514,0.025,5.427
		c0.001,0.109,0.073,0.537-0.316,0.539H9.32C8.989,7.169,8.96,6.745,8.922,6.586C8.653,5.481,8.36,4.495,7.808,3.514
		c-0.215-0.38-0.584-0.967-1.073-1.01C5.894,2.435,5.594,3.798,5.487,4.366c-0.555,2.978-0.508,6.396-0.199,9.43
		c0.096,0.948,0.288,3.216,1.679,3.346c0.751,0.07,1.317-0.364,1.663-0.994c0.497-0.906,0.556-1.973,0.564-2.99
		c0-0.146,0.005-0.439,0.324-0.434H10.424z"/>
	<path fill-rule="evenodd" clip-rule="evenodd" fill="#D3A12A" d="M34.826,3.424c-0.537-0.113-0.604,0.097-0.604,0.637
		c0,3.142,0,6.281,0,9.42c-0.109,0.021-0.228,0.037-0.336,0.017c-0.005-0.019-0.005-0.039-0.005-0.058
		c-0.005-0.09-0.01-0.184-0.01-0.273c0-3.155-0.003-6.313,0-9.469c0-0.166-0.004-0.331,0.002-0.497
		c0.008-0.074,0.01-0.165,0.05-0.232c0.031-0.037,0.111-0.026,0.153-0.026c0.109,0.016,0.22,0.034,0.325,0.078
		c0.074,0.038,0.133,0.075,0.198,0.13C34.694,3.234,34.765,3.322,34.826,3.424 M30.565,15.659c-0.087,0.001-0.142-0.211-0.158-0.456
		h2.97c1.313,0,2.584-0.379,3.566-1.274c1.374-1.253,1.871-3.118,1.984-4.91c0.097-1.559-0.089-3-0.634-4.462
		c0.985,1.709,1.146,3.937,0.921,5.821c-0.19,1.604-0.782,3.227-2.085,4.258c-0.91,0.729-2.033,1.023-3.188,1.023H30.565z"/>
	<path fill-rule="evenodd" clip-rule="evenodd" fill="#D3A12A" d="M16.537,3.214c-0.534,0.111-0.692,0.996-0.763,1.424
		c-0.144,0.889-0.179,1.791-0.202,2.684c-0.037,1.394-0.036,2.793,0.041,4.188c0.035,0.632,0.082,1.271,0.215,1.893
		c0.014,0.061,0.029,0.13,0.052,0.21c-0.078-0.068-0.135-0.164-0.18-0.249c-0.194-0.385-0.271-0.82-0.327-1.244
		c-0.086-0.645-0.116-1.293-0.144-1.94c-0.051-1.34-0.039-2.684,0.005-4.022c0.028-0.784,0.074-1.568,0.218-2.339
		c0.063-0.322,0.175-0.853,0.473-1.029c0.203-0.119,0.384,0.021,0.493,0.19C16.468,3.052,16.502,3.132,16.537,3.214 M14.595,15.029
		c0.512,0.28,1.057,0.42,1.644,0.387c1.845-0.104,3.096-1.854,3.684-3.446c0.438-1.189,0.62-2.468,0.62-3.733
		c0.002-1.365-0.2-2.791-0.744-4.05c0.631,1.119,1.012,2.493,1.063,3.777c0.024,0.612,0.034,1.228,0,1.841
		c-0.104,1.886-0.731,3.864-2.105,5.171c-0.48,0.459-1.101,0.794-1.764,0.877C16.046,15.972,15.245,15.617,14.595,15.029"/>
	<path fill-rule="evenodd" clip-rule="evenodd" fill="#D3A12A" d="M28.322,15.632c0.469,0.021,0.7-0.104,0.76-0.357
		c0.063-0.267-0.127-0.692-0.219-0.942c-0.243-0.697-0.454-1.426-0.497-1.561c-0.121-0.384-0.16-0.992,0.374-1.603
		c0.476-0.538,0.602-0.949,0.666-1.482c0.053-0.46-0.101-0.824-0.36-1.064c0.029,0.367-0.015,0.722-0.131,1.07
		c-0.124,0.361-0.332,0.66-0.578,0.949c-0.162,0.189-0.29,0.396-0.355,0.64c-0.069,0.258-0.051,0.522,0.029,0.777
		c0.197,0.634,0.384,1.266,0.613,1.884c0.13,0.347,0.204,0.677-0.06,0.996c-0.358,0.303-0.8,0.238-1.228,0.227
		c-0.693-0.015-1.387-0.019-2.079-0.013c-1.254,0.012-2.507,0.042-3.761,0.049c0.014,0.239,0.067,0.451,0.152,0.456
		C23.869,15.657,26.106,15.559,28.322,15.632 M25.31,13.725c-0.004-3.24-0.041-6.486-0.002-9.729
		c0.002-0.152,0.052-0.475,0.232-0.509c0.234-0.048,0.408-0.071,0.642-0.109c0.254-0.027,0.282-1.228,0.02-1.225h-0.173
		c-0.007,0.137-0.021,0.281-0.062,0.414c-0.024,0.086-0.064,0.185-0.128,0.254c-0.109,0.116-0.243,0.107-0.396,0.131
		c-0.116,0.019-0.235,0.034-0.35,0.058c-0.138,0.03-0.135,0.202-0.138,0.321c-0.037,3.336-0.009,6.67,0.003,10.005
		C24.959,13.55,25.128,13.665,25.31,13.725"/>
	<path fill-rule="evenodd" clip-rule="evenodd" fill="#D3A12A" d="M3.957,18.466c1.727,1.021,4.619,0.754,5.88-0.904
		c0.655-0.865,0.918-1.961,1.011-3.023c0.033-0.382,0.017-0.766,0.051-1.146c0.06-0.007,0.13,0.005,0.153,0.007
		c0.188,0.041,0.202,0.257,0.202,0.371c-0.007,1.495-0.1,3.097-1.022,4.332c-0.854,1.141-2.509,1.514-3.883,1.394
		C5.414,19.414,4.614,19.042,3.957,18.466 M7.342,3.178C6.482,3.052,6.165,4.432,6.051,5.036c-0.556,2.978-0.506,6.396-0.197,9.43
		c0.048,0.476,0.12,1.28,0.356,1.984c-0.428-0.645-0.563-1.395-0.655-2.15c-0.309-2.594-0.396-5.302-0.138-7.902
		C5.49,5.673,5.584,4.946,5.731,4.23C5.899,3.421,6.415,1.956,7.342,3.178 M10.695,1.673c0.203,0.039,0.359,0.113,0.354,0.222
		c-0.006,0.643-0.008,1.25-0.006,1.839c0.006,1.121,0.021,2.239,0.008,3.356c-0.002,0.195-0.006,0.382-0.011,0.547
		c-0.004,0.166-0.107,0.228-0.284,0.228H9.888c-0.253-0.02-0.331-0.267-0.369-0.453c0.229,0,0.456,0.002,0.684,0
		c0.127-0.003,0.251-0.041,0.348-0.127c0.062-0.052,0.109-0.126,0.134-0.202c0.04-0.114,0.049-0.229,0.043-0.35
		c-0.005-0.144-0.004-0.289-0.007-0.438C10.706,4.755,10.688,3.213,10.695,1.673"/>
	<path fill-rule="evenodd" clip-rule="evenodd" fill="#D3A12A" d="M90.279,2.156c0.263,0.035,0.343,0.207,0.348,0.48
		c0.027,1.666,0.049,2.189,0.073,3.853c0,0.145,0.018,0.424-0.251,0.424c-0.45,0-0.329-0.011-0.777,0
		c-0.307,0.011-0.358-0.205-0.382-0.31c-0.009-0.048-0.022-0.096-0.035-0.146c0.185,0,0.367,0.003,0.551,0.003
		c0.053-0.003,0.106,0,0.156-0.004c0.097-0.011,0.195-0.064,0.26-0.137c0.097-0.11,0.124-0.262,0.124-0.402
		c0.003-0.083,0-0.166,0-0.252L90.279,2.156z M87.327,3.791c-0.044-0.022-0.087-0.043-0.132-0.058
		c-0.382-0.135-0.966-0.206-1.37-0.139c-0.354,0.074-0.277,0.52-0.279,0.813v3.961c-0.11,0.072-0.228,0.134-0.353,0.186V3.737
		c-0.003-0.151-0.014-0.301,0.005-0.454c0.013-0.058,0.02-0.11,0.078-0.139c0.076-0.022,0.159-0.026,0.234-0.031
		c0.331-0.007,0.667,0.034,0.984,0.131c0.146,0.047,0.281,0.126,0.41,0.208l0.17,0.119c0.082,0.068,0.162,0.139,0.243,0.211
		C87.319,3.783,87.323,3.786,87.327,3.791 M88.266,7.091h0.094c0.271,0.017,0.256,0.23,0.256,0.345v2.94v2.901
		c0,0.113,0.015,0.326-0.256,0.342h-0.756c-0.354-0.005-0.377-0.126-0.39-0.191c-0.012-0.087-0.027-0.178-0.041-0.265
		c0.214,0,0.426,0.009,0.635,0c0.292-0.006,0.458-0.219,0.458-0.508V7.091z M85.546,11.181v5.726l-0.035-0.003l-0.121-0.015
		l-0.109-0.023c-0.072-0.031-0.079-0.16-0.082-0.227c-0.004-0.054-0.004-0.106-0.005-0.159v-5.663
		c0.196,0.083,0.373,0.193,0.539,0.331l0.097,0.089c0.023,0.025,0.045,0.05,0.069,0.077C85.788,11.264,85.668,11.218,85.546,11.181
		 M90.481,13.888h0.107c0.271-0.002,0.254,0.281,0.25,0.422c-0.024,1.667-0.063,2.329-0.09,3.995
		c-0.025,0.695,0.089,0.903-0.676,0.903h-8.862c-0.13,0.004-0.199-0.201-0.224-0.455h8.241c0.257,0,0.518,0.017,0.767-0.054
		c0.151-0.044,0.284-0.149,0.34-0.299c0.069-0.185,0.057-0.385,0.06-0.58c0.001-0.06,0.001-0.121,0.005-0.179
		C90.417,16.391,90.462,15.137,90.481,13.888"/>
	<path fill-rule="evenodd" clip-rule="evenodd" fill="#D3A12A" d="M73.901,14.447c0.047,0.005,0.096,0.016,0.146,0.022
		c0.27,0.071,0.283,1.176,0,1.188h-3.422c-0.15-0.006-0.233-0.213-0.255-0.456h3.129c0.103-0.015,0.168-0.044,0.236-0.126
		c0.047-0.056,0.086-0.131,0.107-0.201C73.883,14.735,73.899,14.593,73.901,14.447 M73.044,7.816c0,1.823,0,3.647,0,5.472
		c0,0.068,0.002,0.141,0.008,0.214c-0.074-0.023-0.147-0.054-0.203-0.102c-0.057-0.055-0.075-0.114-0.095-0.185
		c-0.063-0.266-0.063-0.535-0.063-0.804v-5.4C72.811,7.279,72.925,7.547,73.044,7.816 M79.462,2.154c0.077,0,0.147-0.004,0.23,0.004
		c0.076,0.009,0.123,0.051,0.123,0.11c0,0.246,0.012,0.438-0.009,0.66c-0.019,0.235-0.076,0.417-0.167,0.426
		c-0.256,0.03-0.596,0.066-0.798,0.254c-0.066,0.06-0.092,0.124-0.12,0.208c-0.065,0.228-0.079,0.464-0.084,0.697v10.653
		c0,0.232,0.084,0.711-0.258,0.709c-0.515,0.001-0.494,0.001-1.008,0c-0.306,0.001-0.417-0.279-0.486-0.457
		c0.309,0,0.622,0.005,0.936,0c0.136,0,0.253-0.047,0.344-0.15c0.05-0.063,0.084-0.144,0.103-0.222
		c0.038-0.187,0.021-0.367,0.014-0.554c0-3.438,0.005-6.877,0.005-10.313c0-0.253-0.043-0.892,0.135-1.083
		c0.135-0.11,0.319-0.138,0.484-0.166c0.082-0.014,0.167-0.021,0.248-0.036c0.063-0.013,0.135-0.078,0.171-0.133
		c0.031-0.051,0.052-0.093,0.069-0.15C79.439,2.468,79.461,2.304,79.462,2.154"/>
	<path fill-rule="evenodd" clip-rule="evenodd" fill="#D3A12A" d="M65.726,3.213c-0.532,0.106-0.694,1.009-0.763,1.428
		c-0.137,0.822-0.171,1.665-0.197,2.5c-0.045,1.402-0.045,2.812,0.026,4.214c0.034,0.657,0.079,1.315,0.208,1.963
		c0.015,0.097,0.036,0.194,0.062,0.291c-0.002-0.003-0.005-0.006-0.01-0.009c-0.211-0.223-0.304-0.521-0.372-0.813
		c-0.122-0.554-0.181-1.118-0.216-1.684c-0.083-1.365-0.094-2.73-0.066-4.101c0.022-0.876,0.045-1.748,0.156-2.616
		c0.046-0.357,0.097-0.713,0.208-1.059c0.073-0.198,0.165-0.428,0.353-0.541c0.055-0.028,0.094-0.036,0.154-0.041
		c0.029,0.003,0.054,0.007,0.083,0.013c0.137,0.046,0.216,0.152,0.285,0.272C65.671,3.09,65.7,3.151,65.726,3.213 M70.061,9.614
		c-0.052,1.288-0.346,2.577-0.931,3.725c-0.694,1.358-1.884,2.672-3.536,2.524c-0.576-0.051-1.081-0.268-1.526-0.594
		c-0.063-0.047-0.214-0.169-0.299-0.247c0.226,0.114,0.44,0.215,0.68,0.28c0.393,0.113,0.8,0.143,1.202,0.094
		c0.51-0.063,0.979-0.265,1.398-0.552c0.371-0.256,0.702-0.584,0.979-0.938c0.555-0.699,0.956-1.515,1.227-2.359
		c0.234-0.744,0.374-1.519,0.434-2.294c0.074-0.911,0.054-1.833-0.07-2.741c-0.097-0.679-0.26-1.353-0.499-1.996
		c-0.039-0.106-0.083-0.207-0.122-0.309c0.673,1.181,1.006,2.561,1.064,3.924C70.082,8.624,70.082,9.122,70.061,9.614"/>
	<path fill-rule="evenodd" clip-rule="evenodd" fill="#D3A12A" d="M54.209,5.022c-0.197,0.563-0.312,1.158-0.408,1.756
		c-0.024,0.142-0.036,0.358-0.227,0.358h-0.757c-0.249,0-0.263-0.231-0.254-0.454V6.682h0.234c0.095,0,0.187,0.004,0.279-0.004
		c0.073-0.019,0.116-0.036,0.179-0.079c0.11-0.105,0.149-0.223,0.177-0.371c0.006-0.063,0.019-0.125,0.03-0.187
		c0.139-0.825,0.313-1.668,0.746-2.391V5.022z M56.441,15.657h-2.346c-0.093,0.004-0.151-0.205-0.168-0.456h4.31
		c0.194-0.024,0.262-0.166,0.319-0.343c0.033-0.141,0.052-0.288,0.055-0.432c0.059,0.001,0.116,0.009,0.176,0.015
		c0.239,0.011,0.228,1.228,0,1.216H56.441z M57.898,4.396v9.128c-0.068-0.007-0.138-0.019-0.206-0.035
		c-0.021-0.004-0.064-0.015-0.079-0.032c-0.06-0.143-0.063-0.314-0.065-0.47L57.543,3.65C57.688,3.889,57.802,4.137,57.898,4.396
		 M59.891,2.154h0.115c0.3,0,0.238,0.451,0.233,0.579c-0.005,0.731,0.005,1.427,0.02,2.118c0.015,0.711,0.025,1.332,0.023,2.12
		c0,0.12-0.097,0.165-0.216,0.165H59.31c-0.191,0-0.2-0.217-0.223-0.358c-0.003-0.031-0.008-0.063-0.016-0.097h0.263
		c0.081,0,0.16,0.004,0.242-0.004c0.066-0.009,0.14-0.036,0.197-0.074c0.049-0.036,0.102-0.092,0.127-0.147
		c0.059-0.12,0.067-0.226,0.071-0.359l-0.004-0.093c-0.054-1.269-0.081-2.539-0.081-3.812L59.891,2.154z"/>
	<path fill-rule="evenodd" clip-rule="evenodd" fill="#D3A12A" d="M47.654,3.161c-0.849-0.294-1.604,0.285-1.379,1.201
		c-0.217-0.298-0.435-0.711-0.386-1.091c0.031-0.229,0.186-0.473,0.395-0.578c0.221-0.11,0.5-0.079,0.726-0.003
		C47.267,2.776,47.481,2.959,47.654,3.161 M50.703,2.012c0.184,0.016,0.328,0.055,0.347,0.131c0.031,0.131-0.036,2.124-0.021,3.779
		c-0.004,0.109-0.011,0.214,0.002,0.322l0.001,0.001c0.004,0.229,0.009,0.451,0.018,0.655c0.003,0.148-0.019,0.235-0.226,0.241
		h-0.976c-0.208-0.006-0.233-0.155-0.252-0.248c-0.01-0.065-0.024-0.131-0.039-0.206h0.659c0.186-0.012,0.271-0.02,0.406-0.152
		c0.064-0.117,0.067-0.172,0.073-0.31c-0.039-1.157-0.02-2.311-0.002-3.467C50.696,2.51,50.7,2.261,50.703,2.012 M46.65,10.479
		c0.235,0.248,0.374,0.568,0.374,0.911c0,0.488-0.27,0.988-0.901,1.348c-0.489,0.28-0.796,0.754-0.726,1.239
		c-0.088-0.092-0.176-0.225-0.231-0.341c-0.183-0.368-0.174-0.666,0.067-1.009c0.121-0.159,0.264-0.275,0.433-0.372
		c0.39-0.234,0.71-0.528,0.89-0.95C46.657,11.043,46.698,10.755,46.65,10.479 M47.129,16.253c-1.08,0-2.364-0.641-2.765-1.043
		c0.377,0.214,0.716,0.339,0.952,0.408c0.489,0.14,0.937,0.185,1.446,0.177c0.719-0.012,1.389-0.157,2.062-0.394
		c0.598-0.265,1.028-0.537,1.502-0.987c0.648-0.706,1.017-1.554,1.083-2.516c0.029-0.418,0.004-0.835-0.071-1.247
		c-0.055-0.304-0.133-0.604-0.244-0.893c0.168,0.291,0.323,0.597,0.434,0.932c0.286,0.871,0.335,1.819,0.092,2.708
		C51.031,15.374,49.218,16.254,47.129,16.253"/>
	<path fill-rule="evenodd" clip-rule="evenodd" fill="#BF3138" d="M19.74,19.999c-0.052,0.372-0.196,0.66-0.435,0.86
		c-0.239,0.205-0.548,0.307-0.925,0.307c-0.453,0-0.816-0.148-1.094-0.441c-0.276-0.294-0.415-0.681-0.415-1.165
		c0-0.499,0.14-0.901,0.423-1.195c0.28-0.3,0.658-0.447,1.132-0.447c0.374,0,0.679,0.097,0.918,0.292
		c0.237,0.201,0.37,0.47,0.406,0.809h-0.744c-0.036-0.147-0.102-0.259-0.206-0.334c-0.102-0.073-0.234-0.111-0.399-0.111
		c-0.221,0-0.396,0.086-0.525,0.263c-0.129,0.174-0.193,0.412-0.193,0.717c0,0.302,0.063,0.536,0.184,0.703
		c0.123,0.169,0.291,0.252,0.515,0.252c0.177,0,0.318-0.046,0.426-0.132c0.107-0.085,0.175-0.212,0.2-0.376H19.74z"/>
	<path fill-rule="evenodd" clip-rule="evenodd" fill="#BF3138" d="M25.632,19.313h0.588c0.16,0,0.276-0.029,0.352-0.084
		c0.075-0.061,0.113-0.155,0.113-0.284c0-0.114-0.036-0.197-0.109-0.253c-0.073-0.055-0.185-0.082-0.334-0.082h-0.609V19.313z
		 M24.845,21.082v-3.09h1.479c0.389,0,0.679,0.068,0.863,0.208c0.186,0.141,0.278,0.358,0.278,0.65c0,0.173-0.037,0.32-0.12,0.444
		c-0.077,0.126-0.201,0.228-0.366,0.316c0.136,0.049,0.23,0.12,0.288,0.206c0.057,0.089,0.087,0.246,0.095,0.471
		c0.006,0.064,0.008,0.146,0.014,0.253c0.009,0.249,0.054,0.396,0.128,0.433v0.108h-0.825c-0.043-0.108-0.068-0.257-0.073-0.449
		c-0.007-0.188-0.01-0.31-0.017-0.359c-0.012-0.121-0.052-0.21-0.12-0.264c-0.069-0.057-0.172-0.087-0.309-0.087h-0.528v1.159
		H24.845z"/>
	<polygon fill-rule="evenodd" clip-rule="evenodd" fill="#BF3138" points="32.649,21.082 32.649,17.992 34.996,17.992 
		34.996,18.622 33.44,18.622 33.44,19.171 34.862,19.171 34.862,19.789 33.44,19.789 33.44,20.45 35.047,20.45 35.047,21.082 	"/>
	<path fill-rule="evenodd" clip-rule="evenodd" fill="#BF3138" d="M41.048,19.874h0.674l-0.345-1.066L41.048,19.874z M40.973,17.992
		h0.866l1.091,3.088h-0.85l-0.189-0.565h-1.033l-0.176,0.565h-0.822L40.973,17.992z"/>
	<path fill-rule="evenodd" clip-rule="evenodd" fill="#BF3138" d="M47.88,21.082v-3.09h1.09l0.406,1.503
		c0.035,0.134,0.069,0.263,0.097,0.387c0.031,0.124,0.056,0.248,0.081,0.363c0.024-0.123,0.055-0.253,0.089-0.394
		c0.034-0.136,0.073-0.285,0.115-0.442l0.382-1.417h1.09v3.09h-0.724v-1.371c0-0.096,0.004-0.232,0.007-0.405
		c0.007-0.176,0.013-0.376,0.024-0.604l-0.595,2.381h-0.787l-0.577-2.381c0.009,0.275,0.016,0.522,0.02,0.741
		c0.008,0.218,0.011,0.389,0.011,0.514v1.126H47.88z"/>
	<polygon fill-rule="evenodd" clip-rule="evenodd" fill="#BF3138" points="56.487,21.082 56.487,17.992 58.837,17.992 
		58.837,18.622 57.278,18.622 57.278,19.171 58.7,19.171 58.7,19.789 57.278,19.789 57.278,20.45 58.887,20.45 58.887,21.082 	"/>
	<path fill-rule="evenodd" clip-rule="evenodd" fill="#BF3138" d="M64.789,19.313h0.588c0.158,0,0.276-0.029,0.352-0.084
		c0.073-0.061,0.113-0.155,0.113-0.284c0-0.114-0.038-0.197-0.111-0.253c-0.072-0.055-0.183-0.082-0.331-0.082h-0.61V19.313z
		 M63.999,21.082v-3.09h1.479c0.393,0,0.681,0.068,0.865,0.208c0.188,0.141,0.28,0.358,0.28,0.65c0,0.173-0.04,0.32-0.12,0.444
		c-0.079,0.126-0.202,0.228-0.368,0.316c0.136,0.049,0.232,0.12,0.283,0.206c0.058,0.089,0.095,0.246,0.101,0.471
		c0.005,0.064,0.009,0.146,0.013,0.253c0.009,0.249,0.052,0.396,0.128,0.433v0.108h-0.831c-0.038-0.108-0.058-0.257-0.068-0.449
		c-0.003-0.188-0.012-0.31-0.015-0.359c-0.014-0.121-0.055-0.21-0.124-0.264c-0.068-0.057-0.17-0.087-0.308-0.087h-0.525v1.159
		H63.999z"/>
	<polygon fill-rule="evenodd" clip-rule="evenodd" fill="#BF3138" points="72.525,21.082 72.525,19.916 71.46,17.992 72.346,17.992 
		72.915,19.235 73.482,17.992 74.376,17.992 73.295,19.916 73.295,21.082 	"/>
	<path fill-rule="evenodd" clip-rule="evenodd" fill="#D3A12A" d="M76.182,22.211c1.47,0,2.673-1.198,2.673-2.67
		s-1.203-2.672-2.673-2.672H15.064c-1.472,0-2.673,1.2-2.673,2.672s1.201,2.67,2.673,2.67H76.182z M76.182,22.555
		c1.66,0,3.013-1.356,3.013-3.014c0-1.656-1.353-3.013-3.013-3.013H15.064c-1.659,0-3.015,1.356-3.015,3.013
		c0,1.657,1.355,3.014,3.015,3.014H76.182z"/>
	<path fill-rule="evenodd" clip-rule="evenodd" fill="#BF3138" d="M84.979,10.512v5.972c0.007,0.217-0.002,0.491,0.232,0.585
		c1.526,0.422,3.122-1.694,3.469-2.874c0.079-0.264,0.129-0.41,0.197-0.677c0.021-0.102,0.061-0.324,0.367-0.302h0.779
		c0.267,0,0.251,0.287,0.248,0.425c-0.02,1.667-0.062,2.327-0.083,3.993c-0.031,0.697,0.08,0.906-0.685,0.906h-8.855
		c-0.344,0.006-0.271-1.365,0-1.386c0.244-0.038,0.603-0.05,0.8-0.215c0.149-0.142,0.154-0.442,0.158-0.634
		c0-4.216,0-8.437-0.004-12.654c-0.02-0.56-0.392-0.862-0.954-0.927c-0.229,0.021-0.285-1.205,0-1.241h9.012
		c0.305,0.016,0.396,0.196,0.4,0.482c0.025,1.666,0.049,2.189,0.074,3.858c0,0.138,0.018,0.421-0.25,0.42h-0.778
		c-0.306,0.024-0.356-0.206-0.379-0.312c-0.241-1.081-1.014-2.419-2.095-2.871c-0.382-0.133-0.969-0.202-1.374-0.134
		C84.904,3,84.981,3.444,84.979,3.738v5.123c0.863-0.271,1.409-0.797,1.605-1.829c0.021-0.138,0.045-0.28,0.066-0.419
		c0.011-0.064,0.034-0.185,0.386-0.193h0.762c0.268,0.017,0.255,0.23,0.255,0.346v2.942v2.897c0,0.116,0.013,0.33-0.255,0.345
		h-0.762c-0.352-0.005-0.375-0.127-0.386-0.191c-0.021-0.138-0.046-0.281-0.066-0.42C86.388,11.309,85.842,10.78,84.979,10.512"/>
	<path fill-rule="evenodd" clip-rule="evenodd" fill="#BF3138" d="M72.479,5.992v6.629c0.009,0.261,0.016,0.544,0.119,0.79
		c0.056,0.123,0.139,0.188,0.26,0.246c0.198,0.085,0.41,0.106,0.625,0.145c0.271,0.069,0.282,1.174,0,1.187h-3.424
		c-0.344-0.014-0.344-1.098,0-1.197c0.244-0.04,0.546-0.06,0.753-0.22c0.064-0.056,0.09-0.108,0.121-0.188
		c0.093-0.275,0.099-0.576,0.103-0.862c0-3.112-0.004-6.223-0.004-9.336c-0.006-0.084-0.018-0.248-0.094-0.302
		c-0.053-0.03-0.106-0.049-0.165-0.065c-0.246-0.066-0.507-0.084-0.758-0.112c-0.3-0.025-0.344-1.2,0-1.224h3.067
		c0.468,0,0.651,0.226,0.797,0.558l2.75,6.294c0-1.497-0.002-2.993-0.002-4.49C76.62,3.591,76.61,3.331,76.53,3.092
		c-0.053-0.127-0.104-0.182-0.225-0.247c-0.207-0.095-0.433-0.119-0.653-0.159c-0.243-0.002-0.299-1.2,0-1.203h3.422
		c0.241,0.017,0.228,1.216,0,1.203c-0.256,0.046-0.595,0.069-0.799,0.253c-0.065,0.063-0.088,0.124-0.121,0.209
		c-0.066,0.227-0.078,0.461-0.082,0.699v10.648c0,0.235,0.082,0.717-0.259,0.711H76.8c-0.329,0.006-0.43-0.336-0.503-0.506
		C75.023,11.797,73.753,8.896,72.479,5.992"/>
	<path fill-rule="evenodd" clip-rule="evenodd" fill="#BF3138" d="M69.518,8.235c-0.008,1.519-0.258,3.077-0.96,4.435
		c-0.688,1.36-1.877,2.671-3.53,2.525c-1.917-0.17-3.1-2.217-3.597-3.864c-0.479-1.6-0.534-3.381-0.266-5.019
		c0.246-1.525,0.9-3.173,2.065-4.222c1.164-1.048,2.823-1.077,4.006-0.057c0.468,0.402,0.846,0.912,1.158,1.441
		C69.224,4.896,69.521,6.611,69.518,8.235 M65.271,2.532c-0.62-0.003-0.801,0.992-0.876,1.441c-0.132,0.821-0.168,1.663-0.196,2.497
		c-0.041,1.403-0.041,2.813,0.029,4.213c0.033,0.658,0.077,1.32,0.204,1.965c0.075,0.386,0.188,0.814,0.471,1.104
		c0.227,0.23,0.581,0.191,0.78-0.051c0.284-0.345,0.384-0.806,0.458-1.234c0.14-0.867,0.18-1.751,0.204-2.626
		c0.037-1.402,0.031-2.812-0.043-4.213c-0.035-0.645-0.079-1.293-0.215-1.926C66.003,3.299,65.804,2.537,65.271,2.532"/>
	<path fill-rule="evenodd" clip-rule="evenodd" fill="#BF3138" d="M55.878,14.988h-2.344c-0.227,0.009-0.241-1.205,0-1.215
		c0.197-0.022,0.394-0.031,0.586-0.078c0.088-0.026,0.168-0.052,0.214-0.141c0.077-0.182,0.083-0.405,0.088-0.6V2.998
		c-0.773,0.876-1.004,1.991-1.19,3.112C53.207,6.249,53.202,6.47,53.01,6.47c-0.338,0-0.416,0-0.757-0.002
		c-0.248,0-0.265-0.234-0.252-0.454c0.057-1.347,0.084-2.579,0.078-3.947c0-0.128-0.065-0.583,0.232-0.583h3.566h3.564
		c0.3,0,0.234,0.455,0.234,0.583C59.67,3.435,59.7,4.667,59.756,6.014c0.009,0.22-0.004,0.454-0.251,0.454
		C59.16,6.47,59.08,6.47,58.744,6.47c-0.188,0-0.201-0.221-0.222-0.359c-0.188-1.121-0.416-2.236-1.19-3.112v9.957
		c0.006,0.194,0.011,0.418,0.092,0.6c0.042,0.089,0.122,0.114,0.213,0.141c0.191,0.047,0.388,0.056,0.584,0.078
		c0.242,0.01,0.226,1.224,0,1.215H55.878z"/>
	<path fill-rule="evenodd" clip-rule="evenodd" fill="#BF3138" d="M46.561,15.583c-2.205,0-3.967-1.714-3.967-3.544
		c0-1.13,0.861-2.658,2.259-2.723c0.884-0.04,1.606,0.632,1.606,1.405c0,0.489-0.269,0.986-0.901,1.348
		c-0.534,0.308-0.848,0.837-0.699,1.361c0.482,1.716,3.063,1.633,3.97-0.053c0.601-1.112-0.554-2.281-1.328-3.045
		c-0.789-0.778-1.68-1.494-2.471-2.268c-0.534-0.53-0.956-1.038-1.271-1.705c-0.451-0.996-0.529-2.112-0.123-3.135
		c0.463-1.049,1.375-1.891,2.645-2.063c0.758-0.08,1.294,0.098,1.975,0.371c0.146,0.057,0.322,0.136,0.476,0.154
		c0.302-0.008,0.438-0.011,0.566-0.217c0.053-0.147,1.137-0.211,1.187,0c0.041,0.163-0.064,3.046,0,4.759
		c0.006,0.149-0.017,0.234-0.224,0.243h-0.977c-0.207-0.009-0.234-0.155-0.251-0.248c-0.199-1.078-0.705-3.282-1.916-3.725
		c-0.356-0.128-0.777-0.129-1.033,0.068c-0.733,0.571-0.349,1.448,0.084,2.003c0.523,0.655,1.145,1.24,1.786,1.798
		c0.562,0.493,1.12,0.972,1.635,1.512c0.616,0.655,1.086,1.312,1.374,2.141c0.282,0.873,0.335,1.819,0.09,2.707
		C50.466,14.704,48.651,15.585,46.561,15.583"/>
	<path fill="#D3A12A" d="M113.253,20.839c0.242,0.001,0.439,0.078,0.594,0.235c0.149,0.15,0.229,0.357,0.232,0.61
		c-0.004,0.258-0.083,0.462-0.235,0.612c-0.153,0.155-0.349,0.236-0.591,0.239c-0.246-0.003-0.443-0.084-0.596-0.243
		c-0.152-0.155-0.23-0.359-0.233-0.606c0.003-0.254,0.084-0.462,0.24-0.612C112.813,20.917,113.013,20.84,113.253,20.839
		 M113.253,21.033c-0.18,0.005-0.318,0.064-0.429,0.189c-0.104,0.119-0.16,0.274-0.16,0.464c0,0.183,0.054,0.338,0.16,0.46
		c0.105,0.127,0.257,0.19,0.447,0.193c0.129,0,0.256-0.056,0.375-0.163c0.125-0.105,0.187-0.27,0.194-0.492
		c0-0.188-0.056-0.34-0.162-0.46C113.569,21.103,113.431,21.04,113.253,21.033 M112.925,21.229h0.322
		c0.25-0.005,0.373,0.088,0.373,0.273c-0.002,0.151-0.072,0.232-0.215,0.239l0.229,0.399h-0.225l-0.203-0.382h-0.091v0.382h-0.19
		V21.229z M113.115,21.383v0.222h0.161c0.044,0.002,0.075-0.006,0.105-0.02c0.023-0.016,0.036-0.047,0.036-0.097
		c0-0.046-0.018-0.075-0.048-0.088c-0.036-0.013-0.076-0.018-0.119-0.018H113.115z"/>
</g>
</svg>
