<?xml version="1.0" encoding="utf-8"?>
<!-- Generator: Adobe Illustrator 16.0.0, SVG Export Plug-In . SVG Version: 6.00 Build 0)  -->
<!DOCTYPE svg PUBLIC "-//W3C//DTD SVG 1.1//EN" "http://www.w3.org/Graphics/SVG/1.1/DTD/svg11.dtd">
<svg version="1.1" id="Layer_1" xmlns="http://www.w3.org/2000/svg" xmlns:xlink="http://www.w3.org/1999/xlink" x="0px" y="0px"
	 width="125.609px" height="12.948px" viewBox="0 0 125.609 12.948" enable-background="new 0 0 125.609 12.948"
	 xml:space="preserve">
<path fill="#221F1F" d="M10.271,10.085l2.21-7.853h1.807l-3.109,10.45H9.355L7.144,4.688l-2.235,7.995H3.127L0,2.232h1.806
	l2.233,7.853L6.25,2.232h1.808L10.271,10.085z M25.509,7.485c0,3.005-2.275,5.44-5.255,5.44c-2.963,0-5.256-2.436-5.256-5.44
	c0-3.036,2.293-5.515,5.256-5.515C23.234,1.971,25.509,4.449,25.509,7.485 M23.784,7.485c0-2.17-1.583-3.934-3.53-3.934
	c-1.928,0-3.511,1.764-3.511,3.934c0,2.136,1.583,3.855,3.511,3.855C22.201,11.341,23.784,9.621,23.784,7.485 M41.479,12.683h-1.727
	v-6.76c0-1.358-0.87-2.371-2.271-2.371c-1.359,0-2.271,1.013-2.271,2.371v6.76h-1.707v-6.76c0-1.358-0.895-2.371-2.272-2.371
	c-1.38,0-2.272,1.013-2.272,2.371v6.76h-1.724V5.987c0-2.273,1.642-4.017,3.997-4.017c1.422,0,2.515,0.667,3.126,1.723
	c0.629-1.056,1.702-1.723,3.125-1.723c2.373,0,3.998,1.743,3.998,4.017V12.683z M53.55,9.436c-0.728,2.231-2.515,3.49-4.931,3.49
	c-3.001,0-5.355-2.393-5.355-5.458c0-3.019,2.354-5.497,5.254-5.497c2.7,0,5.297,2.23,5.278,5.941h-8.788
	c0.224,2.173,1.889,3.449,3.611,3.449c1.481,0,2.54-0.708,3.105-1.926H53.55z M51.888,6.372c-0.424-1.705-1.846-2.842-3.37-2.842
	c-1.439,0-2.961,1.054-3.409,2.842H51.888z M57.367,12.683h-1.701V6.331c0-2.638,1.862-4.36,4.358-4.36
	c2.498,0,4.342,1.723,4.342,4.36v6.352h-1.705V6.271c0-1.563-1.034-2.696-2.637-2.696c-1.622,0-2.657,1.133-2.657,2.696V12.683z
	 M74.369,12.948c-2.536,0-4.38-1.363-4.665-3.572h1.746c0.222,1.215,1.422,1.965,2.919,1.965c1.626,0,2.619-0.791,2.619-1.701
	c0-0.729-0.284-1.281-2.838-1.622c-2.539-0.367-4.08-0.975-4.08-2.942c0-1.501,1.298-3.104,4.099-3.104
	c2.413,0,4.04,1.218,4.261,3.266h-1.744c-0.244-1.117-1.238-1.685-2.517-1.685c-1.38,0-2.374,0.649-2.374,1.46
	c0,0.753,0.589,1.017,2.637,1.343c2.313,0.362,4.222,0.808,4.222,3.186C78.653,11.626,76.866,12.948,74.369,12.948 M90.463,9.436
	c-0.731,2.231-2.515,3.49-4.931,3.49c-3.005,0-5.357-2.393-5.357-5.458c0-3.019,2.353-5.497,5.256-5.497
	c2.699,0,5.296,2.23,5.255,5.941H81.92c0.222,2.173,1.887,3.449,3.612,3.449c1.479,0,2.536-0.708,3.103-1.926H90.463z M88.798,6.372
	c-0.425-1.705-1.845-2.842-3.367-2.842c-1.441,0-2.965,1.054-3.41,2.842H88.798z M97.425,12.926c-2.884,0-5.235-2.436-5.235-5.458
	c0-3.019,2.352-5.497,5.235-5.497c2.331,0,4.158,1.379,4.868,3.487h-1.846c-0.589-1.136-1.664-1.906-3.022-1.906
	c-1.932,0-3.511,1.764-3.511,3.916c0,2.153,1.579,3.873,3.511,3.873c1.38,0,2.453-0.769,3.022-1.905h1.846
	C101.603,11.548,99.756,12.926,97.425,12.926 M108.683,2.027v1.602c-2.008-0.179-3.286,0.794-3.286,2.804v6.25h-1.702V6.474
	C103.695,3.306,105.945,1.705,108.683,2.027 M119.278,9.436c-0.729,2.231-2.515,3.49-4.931,3.49c-3.003,0-5.358-2.393-5.358-5.458
	c0-3.019,2.355-5.497,5.258-5.497c2.697,0,5.294,2.23,5.275,5.941h-8.788c0.224,2.173,1.889,3.449,3.613,3.449
	c1.481,0,2.536-0.708,3.104-1.926H119.278z M117.613,6.372c-0.426-1.705-1.847-2.842-3.366-2.842c-1.443,0-2.965,1.054-3.409,2.842
	H117.613z M125.609,12.683c-2.435,0.281-4.12-1.159-4.12-3.816V0h1.705v2.232h2.374v1.644h-2.374v4.99
	c0,1.849,1.116,2.314,2.415,2.231V12.683z M66.276,0h1.702v3.876h-1.702V0z"/>
</svg>
