<?xml version="1.0" encoding="utf-8"?>
<!-- Generator: Adobe Illustrator 16.0.0, SVG Export Plug-In . SVG Version: 6.00 Build 0)  -->
<!DOCTYPE svg PUBLIC "-//W3C//DTD SVG 1.1//EN" "http://www.w3.org/Graphics/SVG/1.1/DTD/svg11.dtd">
<svg version="1.1" id="Layer_1" xmlns="http://www.w3.org/2000/svg" xmlns:xlink="http://www.w3.org/1999/xlink" x="0px" y="0px"
	 width="65.511px" height="52.935px" viewBox="0 0 65.511 52.935" enable-background="new 0 0 65.511 52.935" xml:space="preserve">
<g>
	<path fill="#231F20" d="M35.521,52.045c0-0.229,0.118-0.465,0.266-0.599c0.032-0.029,0.034-0.078,0.005-0.111
		c-0.114-0.122-0.205-0.307-0.205-0.504c0-0.504,0.252-0.835,0.816-0.835c0.29,0,0.473,0.022,0.695,0.06
		c0.042,0.007,0.072,0.044,0.072,0.086v0.367c0,0.053-0.049,0.096-0.102,0.084c-0.164-0.028-0.348-0.061-0.586-0.061
		c-0.242,0-0.331,0.147-0.331,0.308c0,0.171,0.085,0.299,0.27,0.299h0.567c0.049,0,0.087,0.038,0.087,0.087v0.361
		c0,0.049-0.038,0.086-0.087,0.086h-0.567c-0.203,0-0.331,0.162-0.331,0.36c0,0.21,0.104,0.366,0.393,0.366
		c0.255,0,0.465-0.028,0.633-0.061c0.053-0.009,0.102,0.032,0.102,0.086v0.362c0,0.044-0.031,0.079-0.073,0.086
		c-0.184,0.025-0.413,0.062-0.741,0.062C35.82,52.935,35.521,52.589,35.521,52.045"/>
	<path fill="#231F20" d="M10.088,52.888H9.754c-0.064,0-0.117-0.054-0.117-0.116v-2.61c0-0.065,0.053-0.117,0.117-0.117h1.193
		c0.064,0,0.116,0.052,0.116,0.117v0.301c0,0.065-0.052,0.117-0.116,0.117h-0.624c-0.064,0-0.118,0.052-0.118,0.118v0.324
		c0,0.064,0.054,0.117,0.118,0.117h0.575c0.064,0,0.116,0.053,0.116,0.116v0.303c0,0.064-0.052,0.116-0.116,0.116h-0.575
		c-0.064,0-0.118,0.052-0.118,0.116v0.981C10.205,52.834,10.153,52.888,10.088,52.888"/>
	<path fill="#231F20" d="M13.239,52.42v0.399c0,0.037-0.031,0.067-0.068,0.067H11.88c-0.038,0-0.067-0.03-0.067-0.067v-2.707
		c0-0.039,0.029-0.068,0.067-0.068h0.434c0.037,0,0.067,0.029,0.067,0.068v2.172c0,0.038,0.03,0.068,0.068,0.068h0.722
		C13.208,52.353,13.239,52.383,13.239,52.42"/>
	<path fill="#231F20" d="M15.043,51.792l-0.233-0.855c-0.007-0.026-0.044-0.026-0.052,0l-0.231,0.855
		c-0.007,0.022,0.01,0.043,0.032,0.043h0.451C15.032,51.835,15.049,51.815,15.043,51.792 M14.348,52.441l-0.105,0.379
		c-0.01,0.041-0.047,0.068-0.088,0.068h-0.357c-0.061,0-0.106-0.059-0.091-0.118l0.716-2.613c0.018-0.066,0.078-0.112,0.147-0.112
		H15c0.067,0,0.129,0.046,0.146,0.112l0.716,2.613c0.016,0.06-0.03,0.118-0.091,0.118h-0.355c-0.042,0-0.079-0.027-0.091-0.068
		l-0.104-0.379c-0.012-0.041-0.049-0.069-0.091-0.069h-0.691C14.396,52.372,14.36,52.4,14.348,52.441"/>
	<path fill="#231F20" d="M16.787,52.888h-0.224c-0.08,0-0.145-0.068-0.137-0.148l0.226-2.598c0.005-0.056,0.052-0.098,0.106-0.098
		h0.289c0.043,0,0.084,0.027,0.099,0.068l0.421,1.06c0.029,0.072,0.129,0.072,0.158,0l0.421-1.06
		c0.016-0.041,0.056-0.068,0.099-0.068h0.289c0.055,0,0.102,0.042,0.105,0.098l0.229,2.614c0.006,0.071-0.05,0.132-0.122,0.132
		h-0.254c-0.063,0-0.115-0.049-0.122-0.11l-0.131-1.477c-0.003-0.024-0.038-0.031-0.047-0.006l-0.359,0.891
		c-0.021,0.053-0.07,0.085-0.126,0.085h-0.121c-0.056,0-0.105-0.032-0.125-0.085l-0.36-0.891c-0.01-0.025-0.044-0.019-0.047,0.006
		l-0.131,1.463C16.918,52.834,16.858,52.888,16.787,52.888"/>
	<path fill="#231F20" d="M19.557,52.045c0-0.229,0.118-0.465,0.265-0.599c0.032-0.029,0.036-0.078,0.006-0.111
		c-0.114-0.122-0.204-0.307-0.204-0.504c0-0.504,0.251-0.835,0.815-0.835c0.29,0,0.474,0.022,0.695,0.06
		c0.041,0.007,0.072,0.044,0.072,0.086v0.367c0,0.053-0.049,0.096-0.102,0.084c-0.164-0.028-0.348-0.061-0.585-0.061
		c-0.242,0-0.331,0.147-0.331,0.308c0,0.171,0.084,0.299,0.269,0.299h0.568c0.048,0,0.086,0.038,0.086,0.087v0.361
		c0,0.049-0.038,0.086-0.086,0.086h-0.568c-0.203,0-0.331,0.162-0.331,0.36c0,0.21,0.104,0.366,0.394,0.366
		c0.253,0,0.465-0.028,0.632-0.061c0.054-0.009,0.102,0.032,0.102,0.086v0.362c0,0.044-0.031,0.079-0.073,0.086
		c-0.184,0.025-0.413,0.062-0.741,0.062C19.855,52.935,19.557,52.589,19.557,52.045"/>
	<path fill="#231F20" d="M22.093,51.914v-0.284c0-0.069,0.056-0.126,0.126-0.126h0.979c0.07,0,0.128,0.057,0.128,0.126v0.284
		c0,0.069-0.058,0.125-0.128,0.125h-0.979C22.148,52.039,22.093,51.983,22.093,51.914"/>
	<path fill="#231F20" d="M24.226,51.466c0-0.872,0.318-1.471,1.043-1.471c0.312,0,0.519,0.088,0.653,0.146
		c0.028,0.013,0.049,0.041,0.049,0.072v0.37c0,0.06-0.063,0.097-0.114,0.071c-0.125-0.063-0.281-0.123-0.483-0.123
		c-0.469,0-0.578,0.416-0.578,0.934c0,0.525,0.061,0.934,0.531,0.934c0.035,0,0.083-0.009,0.125-0.022
		c0.052-0.014,0.088-0.061,0.088-0.114v-0.357c0-0.021-0.02-0.042-0.044-0.042h-0.213c-0.024,0-0.042-0.019-0.042-0.042v-0.442
		c0-0.027,0.021-0.051,0.05-0.051h0.747c0.028,0,0.051,0.023,0.051,0.051v1.293c0,0.045-0.033,0.082-0.078,0.089
		c-0.224,0.03-0.484,0.174-0.788,0.174C24.491,52.935,24.226,52.342,24.226,51.466"/>
	<path fill="#231F20" d="M27.532,51.195c0,0.042,0.036,0.076,0.08,0.076h0.286c0.233,0,0.309-0.164,0.309-0.346
		c0-0.18-0.075-0.346-0.309-0.346h-0.286c-0.044,0-0.08,0.035-0.08,0.077V51.195z M28.985,52.723
		c-0.014,0.069-0.058,0.134-0.126,0.161c-0.069,0.027-0.156,0.051-0.258,0.051c-0.161,0-0.322-0.094-0.385-0.275
		c-0.146-0.436-0.119-0.89-0.493-0.89c-0.039,0-0.07,0.004-0.1,0.009c-0.053,0.01-0.092,0.056-0.092,0.108v0.835
		c0,0.09-0.073,0.166-0.166,0.166h-0.232c-0.094,0-0.168-0.076-0.168-0.166v-2.595c0-0.046,0.036-0.083,0.082-0.083h0.865
		c0.588,0,0.858,0.404,0.858,0.881c0,0.283-0.11,0.553-0.314,0.699c-0.023,0.017-0.029,0.049-0.011,0.069
		c0.096,0.122,0.171,0.326,0.234,0.535c0.043,0.139,0.077,0.261,0.181,0.265C28.943,52.498,29.009,52.603,28.985,52.723"/>
	<path fill="#231F20" d="M30.311,50.198v2.537c0,0.085-0.067,0.153-0.153,0.153h-0.262c-0.084,0-0.153-0.068-0.153-0.153v-2.537
		c0-0.085,0.069-0.153,0.153-0.153h0.262C30.243,50.044,30.311,50.113,30.311,50.198"/>
	<path fill="#231F20" d="M32.757,52.461v0.317c0,0.06-0.05,0.108-0.109,0.108H31.44c-0.061,0-0.11-0.049-0.11-0.108v-2.626
		c0-0.06,0.05-0.108,0.11-0.108h0.35c0.061,0,0.109,0.049,0.109,0.108v2.091c0,0.06,0.049,0.109,0.11,0.109h0.638
		C32.707,52.353,32.757,52.402,32.757,52.461"/>
	<path fill="#231F20" d="M34.909,52.476v0.288c0,0.068-0.055,0.124-0.125,0.124h-1.178c-0.068,0-0.124-0.056-0.124-0.124v-2.596
		c0-0.068,0.056-0.124,0.124-0.124h0.321c0.069,0,0.125,0.056,0.125,0.124v2.059c0,0.069,0.055,0.126,0.122,0.126h0.609
		C34.854,52.353,34.909,52.409,34.909,52.476"/>
	<path fill="#231F20" d="M38.569,52.229c0,0.067,0.055,0.124,0.122,0.124c0.46,0,0.653-0.229,0.653-0.887
		c0-0.66-0.193-0.887-0.653-0.887c-0.067,0-0.122,0.056-0.122,0.123V52.229z M38,50.139c0-0.053,0.043-0.095,0.096-0.095h0.614
		c0.931,0,1.204,0.635,1.204,1.422s-0.273,1.423-1.204,1.423h-0.614c-0.053,0-0.096-0.043-0.096-0.097V50.139z"/>
	<path fill="#231F20" d="M42.99,50.533c-0.375,0-0.483,0.416-0.483,0.934c0,0.526,0.108,0.934,0.483,0.934
		c0.171,0,0.324-0.058,0.447-0.137c0.033-0.022,0.079,0.001,0.079,0.042v0.412c0,0.033-0.017,0.063-0.046,0.077
		c-0.158,0.081-0.369,0.141-0.585,0.141c-0.672,0-0.947-0.593-0.947-1.469c0-0.873,0.275-1.47,0.947-1.47
		c0.214,0,0.421,0.045,0.589,0.141c0.026,0.015,0.042,0.043,0.042,0.075v0.414c0,0.041-0.046,0.064-0.079,0.043
		C43.313,50.585,43.157,50.533,42.99,50.533"/>
	<path fill="#231F20" d="M44.809,52.888h-0.433c-0.038,0-0.068-0.031-0.068-0.068v-2.707c0-0.038,0.03-0.068,0.068-0.068h0.433
		c0.037,0,0.068,0.03,0.068,0.068v0.959c0,0.036,0.03,0.067,0.067,0.067h0.543c0.037,0,0.066-0.031,0.066-0.067v-0.959
		c0-0.038,0.031-0.068,0.069-0.068h0.432c0.038,0,0.068,0.03,0.068,0.068v2.707c0,0.037-0.03,0.068-0.068,0.068h-0.432
		c-0.038,0-0.069-0.031-0.069-0.068v-1.078c0-0.036-0.029-0.067-0.066-0.067h-0.543c-0.037,0-0.067,0.031-0.067,0.067v1.078
		C44.877,52.857,44.846,52.888,44.809,52.888"/>
	<path fill="#231F20" d="M47.711,50.119v2.695c0,0.041-0.032,0.074-0.074,0.074h-0.42c-0.041,0-0.073-0.033-0.073-0.074v-2.695
		c0-0.041,0.032-0.074,0.073-0.074h0.42C47.679,50.044,47.711,50.078,47.711,50.119"/>
	<path fill="#231F20" d="M49.684,50.533c-0.374,0-0.483,0.416-0.483,0.934c0,0.526,0.109,0.934,0.483,0.934
		c0.16,0,0.307-0.051,0.425-0.123c0.045-0.026,0.101,0.004,0.101,0.056v0.398c0,0.023-0.012,0.046-0.034,0.058
		c-0.159,0.085-0.375,0.146-0.597,0.146c-0.672,0-0.947-0.593-0.947-1.469c0-0.873,0.275-1.47,0.947-1.47
		c0.22,0,0.429,0.046,0.599,0.146c0.021,0.012,0.032,0.034,0.032,0.058v0.397c0,0.051-0.056,0.084-0.101,0.058
		C49.988,50.581,49.841,50.533,49.684,50.533"/>
	<path fill="#231F20" d="M52.966,52.639c0.012,0.125-0.085,0.211-0.135,0.231c-0.075,0.033-0.172,0.064-0.29,0.064
		c-0.161,0-0.322-0.094-0.384-0.275c-0.146-0.439-0.143-0.848-0.469-0.848c-0.015,0-0.027,0.001-0.042,0.005
		c-0.044,0.006-0.077,0.045-0.077,0.089v0.906c0,0.043-0.033,0.076-0.073,0.076h-0.42c-0.041,0-0.074-0.033-0.074-0.076v-2.711
		c0-0.032,0.025-0.057,0.057-0.057h0.454c0.03,0,0.057,0.024,0.057,0.057v1.07c0,0.024,0.032,0.033,0.043,0.014l0.643-1.111
		c0.01-0.019,0.028-0.029,0.05-0.029h0.506c0.044,0,0.073,0.048,0.05,0.086l-0.745,1.289c0.294,0.17,0.384,0.412,0.507,0.81
		c0.043,0.138,0.075,0.265,0.18,0.265C52.885,52.494,52.955,52.521,52.966,52.639"/>
	<path fill="#231F20" d="M53.461,52.045c0-0.234,0.126-0.48,0.278-0.609c0.027-0.023,0.028-0.063,0.004-0.088
		c-0.121-0.124-0.216-0.313-0.216-0.517c0-0.504,0.251-0.835,0.814-0.835c0.297,0,0.483,0.024,0.71,0.062
		c0.033,0.005,0.059,0.034,0.059,0.067v0.404c0,0.044-0.039,0.076-0.082,0.068c-0.169-0.031-0.355-0.065-0.605-0.065
		c-0.242,0-0.33,0.147-0.33,0.308c0,0.171,0.083,0.299,0.269,0.299h0.585c0.039,0,0.069,0.03,0.069,0.069v0.396
		c0,0.038-0.03,0.068-0.069,0.068h-0.585c-0.203,0-0.331,0.162-0.331,0.36c0,0.21,0.104,0.366,0.393,0.366
		c0.265,0,0.482-0.031,0.652-0.064c0.044-0.008,0.082,0.024,0.082,0.068v0.4c0,0.034-0.026,0.063-0.059,0.067
		c-0.186,0.025-0.42,0.063-0.757,0.063C53.759,52.935,53.461,52.589,53.461,52.045"/>
	<path fill="#231F20" d="M56.411,52.888h-0.37c-0.046,0-0.082-0.038-0.082-0.082v-2.71c0-0.028,0.022-0.052,0.053-0.052h0.439
		c0.021,0,0.039,0.012,0.048,0.03l0.682,1.48c0.011,0.023,0.048,0.015,0.048-0.011v-1.448c0-0.028,0.024-0.052,0.053-0.052h0.431
		c0.029,0,0.053,0.023,0.053,0.052v2.71c0,0.044-0.037,0.082-0.084,0.082h-0.39c-0.032,0-0.061-0.019-0.076-0.049l-0.672-1.461
		c-0.011-0.025-0.048-0.018-0.048,0.01v1.418C56.495,52.85,56.456,52.888,56.411,52.888"/>
	<path fill="#231F20" d="M18.269,44.718c-0.416-0.189-0.617-0.602-0.566-1.031c0.047-0.411,0.33-0.729,0.714-0.844
		c0.313-0.094,0.831-0.145,1.281,0.051c0.059,0.025,0.094,0.083,0.099,0.147c0.031,0.449,0.117,0.924,0.282,1.337
		c0.033,0.088-0.009,0.186-0.097,0.223C19.653,44.741,18.885,45,18.269,44.718 M16.063,45.919c0.376,0.387,1.072,0.802,1.987,0.802
		c1.453,0,2.676-0.901,2.676-0.901c0.664,0.711,1.396,0.9,1.906,0.9c1.056,0,1.843-0.455,1.843-1.117c0-0.283-0.166-0.41-0.453-0.41
		c-0.25,0-0.409,0.158-0.803,0.158c-0.588,0-0.696-1.398-0.696-2.488c0-1.088,0.127-2.799,0.177-3.93
		c0.125-2.856-1.663-3.801-3.963-3.801c-1.689,0-3.147,1.279-3.147,2.839c0,1.038,0.529,1.882,1.691,1.882
		c0.714,0,1.128-0.514,1.128-1.128c0-0.615-0.414-0.883-0.838-1.107c-0.425-0.222-0.425-0.498-0.357-0.675
		c0.183-0.475,0.558-0.881,1.287-0.881c0.682,0,1.693,0.813,1.462,3.326c-0.059,0.611-0.091,1.371-0.116,1.65
		c-0.003,0.055-0.058,0.089-0.109,0.073c0,0-0.564-0.187-1.272-0.187c-1.463,0-3.161,1.017-3.161,3.062
		C15.304,45.003,15.706,45.55,16.063,45.919"/>
	<path fill="#231F20" d="M63.887,36.943c0.044,0.182,0.065,0.45-0.358,0.675s-0.838,0.492-0.838,1.106s0.414,1.129,1.129,1.129
		c1.162,0,1.691-0.844,1.691-1.883c0-1.467-1.125-2.741-2.989-2.817c-1.9-0.078-3.847,1.185-3.832,3.802
		c0.01,1.702,1.09,2.957,3.184,4.057c1.178,0.575,1.748,0.943,1.748,1.621c0,0.419-0.214,1.05-1.086,1.05
		c-0.869,0-1.491-0.508-1.6-1.374c-0.044-0.379-0.331-0.837-0.976-0.837s-1.206,0.664-0.783,1.628
		c0.228,0.521,0.998,1.619,3.376,1.619s2.691-1.782,2.747-2.102c0.267-1.589-0.456-2.484-1.43-3.288
		c-1.431-1.178-2.844-1.623-3.08-2.949c-0.269-1.501,0.697-2.297,1.841-2.297C63.368,36.083,63.811,36.638,63.887,36.943"/>
	<path fill="#231F20" d="M45.45,43.616c1.072,0,0.688,3.066-2.279,3.066c-2.012,0-3.245-1.26-3.245-3.958v-4.688
		c0-1.083-0.206-1.146-1.153-1.146c-0.392,0-0.729-0.19-0.729-0.754c0-0.4,0.265-0.687,0.845-0.687c0.997,0,1.383-0.318,1.508-0.896
		c0.441-2.023,0.251-4.503,1.382-4.503c1.03,0,0.823,1.539,0.823,4.354c0,0.843,0.212,1.021,0.883,1.021h1.751
		c0.419,0,0.761,0.236,0.761,0.704c0,0.563-0.347,0.765-0.727,0.765l-1.572,0.003c-0.963,0-1.038,0.318-1.038,0.86v6.356
		c0,0.77,0.411,1.071,1.015,1.071C44.848,45.187,44.429,43.616,45.45,43.616"/>
	<path fill="#231F20" d="M26.187,28.533c-0.58,0-0.845,0.313-0.845,0.714c0,0.562,0.34,0.689,0.719,0.782
		c0.196,0.043,0.613,0.062,0.615,0.602c0,1.109-0.001,13.667-0.001,13.667c-0.003,0.541-0.418,0.561-0.615,0.602
		c-0.378,0.093-0.719,0.221-0.719,0.782c0,0.403,0.264,0.716,0.846,0.716l3.769-0.002c0.58,0,0.845-0.313,0.845-0.715
		c0-0.562-0.34-0.689-0.72-0.782c-0.195-0.042-0.612-0.063-0.614-0.602c0-0.625,0.001-11.876,0.001-15.05
		c0-0.401-0.265-0.714-0.845-0.714H26.187z"/>
	<path fill="#231F20" d="M34.409,33.688c0.936,0,1.697-0.762,1.697-1.697c0-0.935-0.762-1.696-1.697-1.696
		c-0.935,0-1.695,0.762-1.695,1.696C32.714,32.926,33.475,33.688,34.409,33.688"/>
	<path fill="#231F20" d="M35.393,35.451c0.58,0,0.845,0.313,0.845,0.713c0,2.832-0.007,8.101-0.007,8.101
		c0.019,0.496,0.228,0.575,0.774,0.663c0.369,0.073,0.609,0.22,0.605,0.698c0,0.576-0.318,0.771-1.03,0.771h-3.632
		c-0.58,0-0.845-0.313-0.845-0.715c0-0.563,0.337-0.69,0.718-0.783c0.194-0.042,0.612-0.061,0.614-0.6l0.008-6.751
		c0-0.616-0.487-0.559-0.675-0.616c-0.188-0.06-0.656-0.193-0.656-0.768s0.44-0.714,0.993-0.714S35.393,35.451,35.393,35.451"/>
	<path fill="#231F20" d="M11.887,32.566c0-2.48-2.521-3.155-4.187-2.691c-1.947,0.543-4.216,2.886-4.216,7.948
		c0,3.048,1.687,7.36,4.87,7.36c1.156,0,1.113-0.795,1.113-2.336c0-1.118,0.06-1.447-1.167-1.447c-0.38,0-0.728-0.201-0.728-0.765
		c0-0.4,0.265-0.713,0.845-0.713h5.203c0.58,0,0.845,0.313,0.845,0.713c0,0.134,0.134,0.79-1.131,0.79
		c-0.975,0-0.764,0.483-0.764,3.074c0,2.222,0.218,2.215-4.229,2.215C2.353,46.714,0,41.797,0,37.084
		c0-2.79,1.176-5.275,2.983-6.914c2.188-1.983,6.093-2.377,8.227-0.944c3.046,2.04,2.251,6.579,0.149,6.579
		c-0.937,0-1.564-0.571-1.564-1.264c0-1.073,0.806-1.167,1.343-1.167C11.673,33.375,11.887,33.009,11.887,32.566"/>
	<path fill="#231F20" d="M56.71,30.815c-0.519,0-1.066,0.414-1.122,1.14c0,1.775,1.541,1.229,1.541,2.53
		c0,0.564-0.175,0.776-0.229,1.034c-0.061,0.29,0.111,0.457,0.324,0.457c1.106,0,1.475-2.233,1.095-3.585
		C57.98,31.187,57.313,30.815,56.71,30.815"/>
	<path fill="#231F20" d="M51.831,45.339c-1.042,0-1.982-1.071-1.982-4.51c0-1.024,0.137-4.315,1.982-4.315
		c1.848,0,2.108,3.277,2.108,4.304C53.939,44.255,52.872,45.339,51.831,45.339 M51.837,35.13c-3.459,0-4.967,2.707-4.967,6.051
		c0,2.623,1.635,5.54,5.004,5.54c3.37,0,5.002-2.917,5.002-5.54C56.876,37.837,55.294,35.13,51.837,35.13"/>
	<path fill="#231F20" d="M52.233,25.601c-0.056-0.006-0.109,0-0.166,0.008c-0.175,0.025-0.27,0.006-0.175-0.074
		c0.252-0.205,0.564-0.108,0.996-0.082c0.428,0.025,0.658-0.38,0.808-0.373c0.256-0.017,0.54,0.152,0.535,0.013
		c-0.032-0.183-0.26-0.234-0.66-0.561c-0.369-0.302-0.807-0.176-1.454,0.056c-0.648,0.233-0.888,0.209-0.96,0.193
		c-0.071-0.016-0.047-0.105,0.288-0.201c0.521-0.16,0.417-0.602,0.561-0.642c0.144-0.041,0.46-0.193,0.286-0.259
		c-0.37-0.104-0.467,0.001-0.586-0.007c-0.888-0.097-1.387,0.684-1.584,0.94c-0.4,0.524-1.154,0.127-2.757-0.12
		c-0.795-0.124-1.588-0.34-2.135-0.505c-0.074-0.022-0.123-0.091-0.125-0.168c-0.03-1.152-0.812-1.63-1.054-1.751
		c-0.035-0.018-0.041-0.063-0.014-0.09c0.063-0.062,0.164-0.162,0.23-0.231c0.163-0.174-1.751-0.979-5.109-0.467
		c-0.031,0.006-0.063-0.013-0.069-0.043l-0.063-0.226c-0.01-0.037,0.016-0.073,0.054-0.077c0.184-0.02,0.659-0.126,0.707-0.668
		c0.033-0.373-0.073-0.607-0.057-0.855c0.003-0.035,0.035-0.061,0.071-0.05c0.131,0.04,0.457,0.102,0.771-0.124
		c0.022-0.016,0.054-0.015,0.072,0.005c0.108,0.122,0.483,0.478,0.971,0.149c0.023-0.014,0.054-0.01,0.067,0.012
		c0.131,0.197,0.746,1.023,1.54,0.48c0.028-0.021,0.067-0.015,0.086,0.015c0.131,0.196,0.655,0.853,1.646,0.449
		c0.014-0.005,0.031-0.004,0.041,0.006c0.109,0.099,0.719,0.611,1.218,0.262c0.553-0.385-0.036-1.71-1.282-2.949
		c-0.759-0.782-1.146-0.756-1.48-0.832c-0.066-0.017-0.133-0.042-0.188-0.085c-0.097-0.074-0.189-0.21-0.1-0.443
		c0.089-0.225,0.58-0.564,0.796-0.691c0.215-0.129,0.348-0.087,0.589-0.055c0.628,0.084,0.964-0.102,1.1-0.211
		c0.041-0.032,0.099-0.021,0.125,0.024c0.163,0.293,0.712,1.167,1.467,1.237c0.642,0.06,0.963-0.383,0.966-0.911
		c0-0.062-0.049-0.114-0.11-0.114c-0.295,0-1.137-0.055-1.601-0.632c-0.01-0.013-0.007-0.033,0.01-0.042
		c0.068-0.035,0.234-0.142,0.326-0.375c0.008-0.018,0.022-0.029,0.042-0.03c0.052-0.004,0.173-0.004,0.336,0.03
		c0.247,0.059,0.267-0.453-0.167-1.005c-0.019-0.022-0.022-0.054-0.008-0.078c0.089-0.151,0.376-0.717,0.171-1.444
		c-0.053-0.386,0.368-0.309,0.269-1.003c-0.043-0.289,0.112-0.888,0.238-1.255c0.082-0.234,0.743-1.836-0.011-3.4
		c-0.756-1.565-2.122-1.601-2.71-1.191c-0.587,0.408-0.877,1.157-0.036,2.431c0.636,0.964,0.337,1.372,0.06,1.396
		c-0.691,0.062-0.351-1.506-1.402-2.083c-0.433-0.237-1.486,0.05-1.438,0.939c0.048,0.892,0.748,1.084,0.755,1.781
		c0.003,0.462-0.731,0.495-0.853-0.3c-0.118-0.795-1.194-0.097-1.021,0.955c0.135,0.642,0.551,0.922,0.986,1.104
		c0.251,0.084-0.284,0.779-0.852,1.119c-1.207,0.723-4.419,1.355-7.458,0.987c-0.728-0.089-1.169,0.856-0.794,1.486
		c0.026,0.044,0.015,0.102-0.03,0.127c-0.252,0.145-1.05,0.543-1.909,0.385c-1.038-0.192-1.981-0.805-2.269-1.044
		c-0.269-0.221-0.081-0.722,0.159-1.172c0.24-0.448,1.476-3.581,0.623-6.371c-0.727-2.378-2.817-3.432-4.719-3.22
		c-0.118,0.013-0.233-0.023-0.317-0.107c-0.76-0.762-4.766-4.492-8.451-2.459c-0.11,0.062-0.242,0.063-0.352,0
		c-0.72-0.416-3.584-1.893-6.063-0.587c-2.207,1.237-2.078,3.869-1.679,5.04C8.331,6.74,9.168,6.333,9.388,6.146
		c0.877-0.755,0.811-1.077,1.565-1.18c1.141-0.154,3.261,1.822,4.859,3.956c1.587,2.12,3.332,4.587,5.781,6.02
		c0.027,0.017,0.035,0.054,0.013,0.077c-0.186,0.205-0.956,1.047-1.528,1.553c-0.656,0.577-0.18,1.05,0.144,1.179
		c0.399,0.16,0.981,0.238,1.823-0.113c0.022-0.009,0.048-0.007,0.066,0.008c0.054,0.043,0.202,0.137,0.507,0.199
		c0.276,0.058,0.647,0.069,1.113-0.051c0.024-0.006,0.05,0.003,0.064,0.022c0.089,0.124,0.468,0.545,1.431,0.454
		c0.028-0.003,0.055,0.011,0.064,0.038c0.06,0.151,0.315,0.646,1.169,0.646c0.188,0.015-0.101,0.664,0.295,1.387
		c0.014,0.025,0.007,0.054-0.016,0.068c-0.217,0.141-1.298,0.729-2.82-0.171c-0.338-0.21-0.097,0.658-0.321,0.689
		c-0.224,0.033-0.454-0.458-0.543-0.657c-0.124-0.276-0.814-0.05-0.814,1.556c0,0.064,0.002,0.136,0.009,0.21
		c0.005,0.064-0.043,0.124-0.107,0.135c-2.491,0.42-4.5-0.457-4.634-0.611c-0.12-0.142,0.007-0.322,0.331-0.404
		c0.631-0.159,0.547-0.875,0.689-0.94c0.143-0.066,0.356-0.178,0.064-0.21c-1.444-0.092-1.452,1.274-1.777,1.091
		c-0.325-0.182-0.143-0.653-0.025-0.764c0.911-0.563,0.521-1.308,0.618-1.438c0.099-0.132,0.177-0.32-0.13-0.289
		c-1.184,0.185-1.355,1.034-1.367,1.438c-0.008,0.255-0.019,0.522-0.137,0.353c-0.429-0.665-0.084-0.855-0.038-1.652
		c0.046-0.798-0.378-0.909-0.32-1.204c0.059-0.293-0.042-0.489-0.208-0.268c0,0-1.496,1.896,0.507,4.197
		c1.577,1.809,5.235,1.742,6.729,1.631c0.06-0.004,0.114,0.028,0.141,0.081c0.389,0.738,1.171,1.482,2.675,1.759
		c2.493,0.46,5.739-1.023,6.688-1.373c0.022-0.008,0.046-0.002,0.061,0.017c0.183,0.214,1.512,1.397,4.575,0.288
		c0.037-0.014,0.077-0.008,0.106,0.016c0.363,0.298,2.777,2.176,5.692,2.176c0.949,0,1.438-0.273,1.608-0.393
		c0.035-0.026,0.082-0.006,0.092,0.036c0.017,0.075,0.039,0.189,0.059,0.309c0.023,0.162,0.515-0.061,0.79-0.962
		c0.023-0.08,0.106-0.125,0.187-0.108c1.264,0.293,3.608,0.784,3.898,0.87c0.375,0.112,0.479,0.49,0.145,1.068
		c-0.337,0.577,0.207,1.234,0.35,1.477c0.146,0.239,0.338,0.359,0.33-0.089c-0.018-0.41,0.327-0.401,0.432-0.61
		c0.304-0.61-0.137-0.812,0.071-1.188c0.303-0.549,1.52-0.287,1.727,0.08c0.208,0.371,0.64,0.587,1.039,0.571
		c0.4-0.017,0.663-0.025,0.815,0.104c0.125,0.107,0.368,0.192,0.287-0.097C53.886,25.976,52.668,25.636,52.233,25.601"/>
	<path fill="#81C341" d="M39.141,18.677c0.093-0.36,0.368-0.691,0.718-1.009c0.459-0.413,0.988-0.74,1.561-0.967
		c0.232-0.092,0.398-0.184,0.29-0.267c-0.406-0.208-0.688-0.538-0.794-0.851c-0.156-0.454-0.138-1.075,0.713-1.138
		c0.371-0.029,1.086-0.045,1.677-0.148c0.141-0.023,0.298-0.074,0.392-0.136c0.234-0.151,0.179-0.24-0.035-0.698
		c-0.139-0.294-0.166-0.719-0.102-1.097c0.024-0.141,0.078-0.362-0.082-0.508c-0.68-0.612-0.808,0.522-1.675,1.172
		c-2.133,1.601-6.255,1.484-6.886,1.389c-0.643-0.098-1.061-0.024-1.027,0.452c0.027,0.424,0.407,0.482,0.216,1.024
		c-0.193,0.542-0.042,1.058,0.538,1.36c0.648,0.337,0.025,1.064,0.888,1.396c0.563,0.216,0.541,0.277,0.66,0.577
		c0.119,0.301,0.176,0.807,0.994,0.494c0.911-0.35,0.817,0.501,1.452,0.456C39.243,20.141,38.926,19.517,39.141,18.677"/>
	<path fill="#E72F2C" d="M42.39,17.24c0,0-0.384,0.028-0.498,0.19c-0.054,0.076-0.023,0.278,0.3,0.242
		c1.271-0.133,1.668,0.409,2.183,1.168c0.516,0.757,1.06,1.33,1.354,1.312c0.2-0.013,0.144-0.398-0.119-0.818
		c-0.529-0.846-1.248-1.552-1.858-1.877C43.139,17.13,42.39,17.24,42.39,17.24"/>
	<path fill="#E72F2C" d="M43.28,18.493c-0.308-0.047-0.035,0.422,0.133,0.662c0.167,0.241,0.49,0.854,0.814,0.854
		C44.551,20.009,43.915,18.589,43.28,18.493"/>
	<path fill="#E72F2C" d="M42.181,18.592c-0.229,0.093-0.084,0.513,0.144,0.85c0.231,0.345,0.491,0.223,0.491-0.029
		C42.815,18.994,42.471,18.476,42.181,18.592"/>
	<path fill="#FFFFFF" d="M46.222,12.583c0.011-0.214-0.025-0.416,0.229-0.522c0.275-0.115,0.38-0.133,0.419,0.064
		c0,0,0.117,0.682-0.179,1.07C46.391,13.589,46.201,13.004,46.222,12.583"/>
	<path fill="#E72F2C" d="M43.583,14.742c-0.058,0.028-0.117,0.052-0.178,0.069c-0.167,0.052-0.572,0.167-0.866,0.193
		c-0.322,0.028-0.729-0.009-0.79,0.282c-0.069,0.329,0.254,0.526,0.624,0.413c0.306-0.094,1.428-0.831,1.33-0.966
		C43.676,14.698,43.639,14.713,43.583,14.742"/>
	<path fill="#FFFFFF" d="M45.318,12.117c-0.217-0.098-0.354-0.155-0.505-0.198c-0.368-0.133-0.49-0.02-0.562,0.046
		c-0.136,0.125-0.172,0.525-0.121,0.955c0.058,0.472,0.245,0.782,0.688,0.734c0.445-0.048,0.583-0.772,0.637-1.132
		C45.48,12.347,45.47,12.186,45.318,12.117"/>
	<path fill="#FED600" d="M46.352,14.502c-0.138-0.051-0.656-0.06-0.756-0.034c-0.1,0.029-0.07,0.086-0.037,0.128
		c0.05,0.063,0.149,0.125,0.33,0.13C46.242,14.738,46.47,14.545,46.352,14.502"/>
	<path fill="#FED600" d="M46.782,13.801c-0.173-0.135-0.309-0.21-0.487-0.281c-0.389-0.151-0.216-0.461-0.423-0.483
		c-0.219-0.021-0.307,0.473-0.306,0.759c0.003,0.245,0.231,0.318,0.549,0.318c0.376,0,0.574,0.005,0.675,0.017
		C46.915,14.144,47.04,14.001,46.782,13.801"/>
	<path fill="#E72F2C" d="M36.7,20.763c0.485-0.115,0.887-0.069,0.932,0.317c0.055,0.476-0.79,1.426-1.654,1.828
		c-0.74,0.345-2.09,0.834-3.077,0.147c-0.384-0.266,0.49-0.785,0.473-1.151c-0.007-0.183-0.245-0.287-0.588-0.052
		c-0.186,0.126-0.814,0.533-1.921,1.002c-1.107,0.468-2.902,0.852-3.819,1.014c-1.681,0.298-3.185-0.549-3.184-1.583
		c0-0.587,0.413-0.859,1.631-0.811c0.521,0.02,1.129-0.155,1.479-0.266c0.505-0.159,1.191-0.005,1.62,0.236
		c0.647,0.365,0.871-0.135,0.871-0.135c0.213-0.602-0.754-0.737-1.158-0.888c-0.938-0.35-1.036-1.173-0.473-1.606
		c0.23-0.178,0.753-0.533,0.477-0.812c-0.402-0.405-1.417,0.498-1.879,0.304c-0.363-0.152,0.031-0.595,0.713-0.894
		c0.533-0.236,1.051-0.324,1.617-0.07c0.564,0.255,1.477,0.741,1.703,0.467c0.326-0.394-0.591-0.969-0.991-1.139
		c-0.399-0.169-1.388-0.739-2.824-1.518c-1.387-0.752-2.414,0.065-3.696,0.958c-0.681,0.475-1.37,1.025-1.706,0.852
		c-0.358-0.182,0.112-0.66,1.147-1.469c1.036-0.809,2.187-1.646,3.415-1.407c1.108,0.216,2.838,1.374,3.763,1.793
		c0.7,0.315,1.477,0.889,1.72,1.442c0.146,0.338,0.581,0.342,0.604,0.032c0.014-0.194,0.005-0.582,0.509-0.557
		c0.192,0.011,0.507,0.163,0.593,0.642c0.083,0.479,0.545,0.448,0.737,0.679c0.191,0.232,0.063,0.946,0.677,1.354
		c0.653,0.433,0.661,0.015,1.217,0.934C35.801,20.701,36.217,20.878,36.7,20.763"/>
	<path fill="#E72F2C" d="M25.221,15.68c-0.247-0.16-0.707,0.048-1.007,0.24c-0.533,0.343-1.187,0.832-0.893,1.101
		c0.363,0.33,1.28-0.348,1.779-0.761C25.277,16.114,25.457,15.833,25.221,15.68"/>
	<path fill="#E72F2C" d="M26.827,16.27c0,0-0.317-0.228-0.737-0.013c-0.421,0.218-0.905,0.565-1.037,0.74
		c-0.133,0.175-0.209,0.477,0.205,0.602c0.411,0.128,0.993-0.349,1.233-0.505S27.163,16.546,26.827,16.27"/>
	<path fill="#E72F2C" d="M41.198,18.208c-0.291,0.017-0.412,0.887,0.021,0.887C41.566,19.094,41.474,18.192,41.198,18.208"/>
	<path fill="#E72F2C" d="M21.881,8.775c-0.67-1.115-2.859-4.856-6.313-6.796c-3.451-1.938-4.778-1.19-5.178-1.023
		C10.078,1.085,8.884,1.72,8.724,3.43c-0.172,1.845,0.38,1.648,0.639,1.327c0.259-0.319,0.897-1.236,2.175-0.823
		c1.278,0.41,2.677,1.357,4.274,3.298c1.597,1.939,3.681,5.223,5.855,5.666C23.842,13.339,22.549,9.889,21.881,8.775"/>
	<path fill="#81C341" d="M17.255,2.187c1.082,0.809,3.81,3.066,5.542,6.433c0.729,1.419,1.112,3.412,2.354,3.679
		c1.4,0.302,1.68-1.499,0.949-3.744c-0.729-2.244-1.726-4.432-4.633-6.281c-1.99-1.266-3.432-0.984-4.145-0.68
		C17.08,1.698,17.043,2.029,17.255,2.187"/>
	<path fill="#E72F2C" d="M27.311,11.96c-0.052,0.723,0.719,1.107,1.072,0.369c0.351-0.738,1.201-2.293,0.431-5.136
		c-0.625-2.306-2.548-2.77-3.407-2.74c-0.155,0.005-0.241,0.182-0.152,0.309C25.826,5.571,27.497,8.263,27.311,11.96"/>
	<path fill="#E72F2C" d="M46.879,11.503c-0.383-0.066-0.568,0.177-0.709,0.038c-0.144-0.143,0.008-0.327,0.219-0.327
		c0.204,0,0.442-0.38,0.641-0.24C47.228,11.113,47.157,11.55,46.879,11.503"/>
	<path fill="#E72F2C" d="M45.516,11.247c0.28,0.011,0.34,0.123,0.321,0.223c-0.012,0.068-0.063,0.119-0.123,0.146
		c-0.155,0.067-0.433,0.05-0.938-0.213c-0.598-0.311-0.724-0.102-1.053-0.06c-0.338,0.042-0.363-0.565,0.267-0.704
		C44.619,10.496,44.927,11.223,45.516,11.247"/>
	<path fill="#E72F2C" d="M43.859,24.171c-0.271,1.485-1.874,1.289-2.414,1.206c-0.544-0.08-0.447-0.457-0.255-0.511
		c0.353-0.097,0.408-0.277,0.375-0.365c-0.05-0.14-0.188-0.16-0.375-0.103c-0.933,0.285-2.994-0.84-2.322-1.942
		c0.288-0.474,1.522-0.701,3.281-0.489C42.872,22.055,44.133,22.685,43.859,24.171"/>
	<path fill="#231F20" d="M46.727,12.617c-0.005,0.141-0.085,0.254-0.179,0.25c-0.092-0.004-0.163-0.121-0.156-0.265
		c0.006-0.143,0.085-0.256,0.178-0.252S46.731,12.472,46.727,12.617"/>
	<path fill="#231F20" d="M45.027,12.763c-0.023,0.182-0.138,0.317-0.258,0.301c-0.118-0.015-0.193-0.175-0.17-0.357
		c0.023-0.182,0.139-0.317,0.257-0.302C44.974,12.419,45.052,12.58,45.027,12.763"/>
	<path fill="#E72F2C" d="M41.623,9.71c-0.158,0.056-0.022,0.349,0.088,0.493c0.124,0.164,0.251,0.271,0.347,0.216
		c0.106-0.061,0.042-0.286-0.059-0.43C41.899,9.844,41.736,9.669,41.623,9.71"/>
	<path fill="#E72F2C" d="M43.958,8.196c0.031,0.159,0.081,0.493-0.047,0.52C43.783,8.74,43.721,8.518,43.6,8.26
		C43.479,8,43.28,7.876,43.14,7.748c-0.141-0.127-0.213-0.322-0.043-0.412c0.113-0.06,0.4-0.039,0.616,0.231
		C43.892,7.792,43.958,8.196,43.958,8.196"/>
	<path fill="#E72F2C" d="M45.691,5.468c-0.301,0.145-0.042,0.616,0.116,0.823c0.16,0.207,0.474,0.575,0.668,0.842
		c0.857,1.165,0.585,1.726,0.855,1.709c0.21-0.012,0.322-1.127-0.084-1.989C46.844,5.99,46.18,5.231,45.691,5.468"/>
</g>
</svg>
