<?xml version="1.0" encoding="utf-8"?>
<!-- Generator: Adobe Illustrator 16.0.0, SVG Export Plug-In . SVG Version: 6.00 Build 0)  -->
<!DOCTYPE svg PUBLIC "-//W3C//DTD SVG 1.1//EN" "http://www.w3.org/Graphics/SVG/1.1/DTD/svg11.dtd">
<svg version="1.1" id="Layer_1" xmlns="http://www.w3.org/2000/svg" xmlns:xlink="http://www.w3.org/1999/xlink" x="0px" y="0px"
	 width="102.744px" height="25.546px" viewBox="0 0 102.744 25.546" enable-background="new 0 0 102.744 25.546"
	 xml:space="preserve">
<g>
	<polygon fill="#FFFFFF" points="58.512,6.059 58.512,6.059 58.51,6.059 	"/>
	<path fill="#0664AC" d="M71.521,2.647c-5.682-2.83-11.293-3.13-14.785-2.118c-6.455,1.872-8.456,9.792-2.475,13.671
		c0.361,0.236,0.134,0.729-0.321,1.521c-0.56,0.98-1.599,2.912-3.434,4.305c-1.107,0.842-1.824,1.189-0.916,2.228
		c0,0,2.022,2.184,3.516,2.82c1.8,0.759,2.25,0.634,3.591-0.579c0.841-0.761,2.513-2.847,4.527-6.161
		c1.044-1.724,2.443-1.757,2.253,1.079c0,0-0.275,2.73-0.351,3.295c-0.225,1.627-0.05,2.192,1.458,2.206
		c0,0,3.244-0.175,4.368-0.327c1.583-0.207,1.497-0.455,1.912-1.661c2.215-6.436,2.403-17.486,2.403-17.486
		C73.363,3.96,72.878,3.325,71.521,2.647 M67.372,8.606c0,0-2.011,1.333-2.062,1.366c-0.171,0.13-0.406,0.283-0.437,0.897
		c-0.013,0.257-0.092,2.077-0.095,2.303c-0.005,0.252-0.118,0.938-0.937,0.236c0,0-1.371-1.159-1.574-1.332
		c-0.045-0.036-0.517-0.55-1.249-0.244l-2.147,0.825c0,0-1.292,0.51-0.81-0.61c0.466-1.088,0.78-1.996,0.883-2.288
		c0.106-0.303,0.068-0.73-0.192-1.031c-0.12-0.136-1.15-1.448-1.387-1.775c0,0-0.846-0.973,0.565-0.908c0,0,2.409,0.053,2.448,0.058
		c0.041,0.002,0.491,0.033,0.814-0.457c0.397-0.602,1.562-2.013,1.317-1.715c0.205-0.245,0.677-0.862,0.989,0.158
		c0,0,0.443,1.345,0.652,1.908c0.145,0.382,0.235,0.644,0.952,0.864l2.213,0.772C67.315,7.634,68.35,7.943,67.372,8.606"/>
	<path fill="#F08022" d="M24.876,11.215c-1.032-1.653-2.686-2.716-4.657-2.985c-2.516-0.343-4.951,0.651-6.354,2.588
		c-1.031,1.427-1.363,3.14-0.932,4.834c1.037,4.077,5.186,5.216,7.784,4.474c2.93-0.838,4.569-2.495,5.013-5.057
		C25.944,13.833,25.633,12.43,24.876,11.215 M17.74,16.726c-0.82-0.264-1.431-1.525-1.134-2.897c0.295-1.372,1.292-2.323,2.219-2.04
		c0.825,0.255,1.43,1.596,1.145,2.969C19.663,16.219,18.681,17.031,17.74,16.726"/>
	<path fill="#78BD43" d="M77.309,8.095c-0.237,0.352-2.113,3.098-2.346,7.319c-0.103,1.878,0.751,3.532,2.288,4.433
		c1.704,0.998,3.917,0.917,5.916-0.228c4.295-2.453,4.776-8.635,4.655-11.424c-0.027-0.646-0.419-1.034-1.078-1.062
		c-0.251-0.013-0.796,0.006-1.41,0.059c-0.625,0.052-1,0.472-1.028,1.154l-0.006,0.181c-0.028,2.591-0.209,4.894-1.376,6.307
		c-0.765,0.935-1.676,1.307-2.276,1.065c-0.537-0.214-0.881-0.909-0.797-1.621c0.206-1.771,0.98-3.164,1.459-4.054l0.206-0.386
		c0.292-0.599,0.145-1.237-0.347-1.482c-0.284-0.146-0.907-0.367-1.455-0.563L79.05,7.557C78.579,7.378,77.885,7.239,77.309,8.095"
		/>
	<path fill="#E4205E" d="M92.359,6.289c-1.865,0.964-2.822,2.279-3.019,4.142c-0.268,2.51,3.27,4.261,4.11,4.702
		c1.014,0.533,1.051,1.15,0.789,1.517c-0.414,0.572-1.563,0.41-2.41,0.081c-0.928-0.355-1.401-0.786-2.167-1.644
		c-0.449-0.505-1.813,0.938-2.024,1.944c-0.099,0.458,0.086,0.677,0.377,1.088c0.743,1.052,3.133,2.921,6.597,3.173
		c0.957,0.07,3.445,0.127,5.123-1.385c0.679-0.606,1.418-1.618,1.675-2.82c0.176-0.833,0.163-1.923-0.51-2.916
		c-0.944-1.398-2.515-2.322-4.262-3.117c-2.547-1.159-2.056-1.845-1.487-2.159c0.536-0.302,2.348-0.091,3.768,1.214
		c0.72,0.659,2.212-1.389,1.592-2.088C98.245,5.479,94.393,5.239,92.359,6.289"/>
	<path fill="#78BD43" d="M40.002,6.466c-1.419,4.441-7.477,14.597-9.841,15.568c-0.334,0.14-0.402,0.178-0.75,0.131
		c-1.256-0.174-2.821-1.746-3.325-2.326c-0.224-0.257-0.707-0.848-0.318-1.161c1.478-1.177,3.312-2.976,3.399-4.029
		c0.019-0.231-0.053-0.473-0.138-0.587c-0.137-0.184-3.976-5.242-4.362-5.779c-0.654-0.926-0.65-1.143,0.074-1.496
		c0.724-0.354,1.876-0.836,2.684-1.148c0.809-0.308,0.932-0.091,1.161,0.164l3.44,4.327c0.248,0.169,0.473,0.123,0.654-0.091
		c0.439-0.518,2.296-3.873,2.588-4.4c0.343-0.587,0.908-0.426,1.477-0.43c0.604-0.005,1.539,0.004,2.516,0.051
		C40.2,5.308,40.287,5.571,40.002,6.466"/>
	<path fill="#E4205E" d="M41.724,7.521c-1.549,0.964-2.285,2.175-2.321,3.806c-0.049,2.201,3,3.658,3.767,3.988
		c0.919,0.396,1.049,0.869,0.884,1.225c-0.24,0.529-0.787,0.625-1.431,0.496c-1.166-0.241-2.076-1.261-2.994-1.774
		c-0.519-0.284-1.284,0.705-1.396,1.596c-0.052,0.403,0.073,0.63,0.407,0.915c0.86,0.746,2.63,2.486,6.141,2.642
		c0.834,0.037,3.004-0.13,4.353-1.554c0.547-0.576,1.119-1.34,1.254-2.403c0.092-0.732-0.079-1.627-0.656-2.498
		c-0.484-0.729-1.366-1.46-2.914-2.102c-2.51-1.031-1.718-2.074-1.122-2.271c0.51-0.168,1.404-0.038,2.889,0.855
		c0.805,0.485,1.872-1.419,1.208-1.896C46.459,6.146,43.417,6.471,41.724,7.521"/>
	<path fill="#E4205E" d="M1.214,5.118C6.663,5.075,8.505,4.971,13.42,4.162c1.108-0.183,1.198,0.368,1.379,0.722
		c0.15,0.295,0.438,1.831,0.419,2.226c-0.021,0.39,0.175,0.963-0.489,1.15c-2.069,0.577-2.611,0.756-3.985,1.164
		c-0.635,0.19-0.596,0.456-0.578,0.94c0.098,2.691,0.994,6.249,1.627,8.237c0.268,0.838,0.389,1.437-0.198,1.659
		c-0.814,0.297-3.084,0.913-3.693,1.041c-1.054,0.221-1.206-0.553-1.305-0.948c-0.894-3.579-1.338-7.225-1.425-8.587
		c-0.044-0.695-0.271-1.345-0.925-1.329c-0.673,0.013-1.423,0.097-2.884,0.123c-0.782,0.018-1.195-0.031-1.3-0.699
		C-0.04,9.188-0.011,6.146,0.103,5.675C0.219,5.196,0.772,5.122,1.214,5.118"/>
	<path fill="#0865AC" d="M102.744,7.349c0-0.468-0.395-0.848-0.883-0.848c-0.484,0-0.878,0.38-0.878,0.848
		c0,0.475,0.394,0.849,0.878,0.849C102.349,8.197,102.744,7.823,102.744,7.349"/>
	<path fill="#FFFFFF" d="M102.636,7.349c0,0.411-0.345,0.751-0.774,0.751c-0.426,0-0.772-0.34-0.772-0.751
		c0-0.407,0.346-0.749,0.772-0.749C102.291,6.601,102.636,6.941,102.636,7.349"/>
	<path fill="#0865AC" d="M101.508,7.887V6.742h0.359c0.113,0,0.2,0.023,0.26,0.071c0.062,0.048,0.092,0.117,0.092,0.214
		c0,0.151-0.08,0.259-0.24,0.324l0.395,0.535h-0.207l-0.336-0.484h-0.155v0.484H101.508 M101.677,7.284h0.053
		c0.212,0,0.316-0.084,0.316-0.244c0-0.118-0.088-0.179-0.263-0.179h-0.107V7.284z"/>
</g>
</svg>
