<?xml version="1.0" encoding="utf-8"?>
<!-- Generator: Adobe Illustrator 16.0.0, SVG Export Plug-In . SVG Version: 6.00 Build 0)  -->
<!DOCTYPE svg PUBLIC "-//W3C//DTD SVG 1.1//EN" "http://www.w3.org/Graphics/SVG/1.1/DTD/svg11.dtd">
<svg version="1.1" id="Layer_1" xmlns="http://www.w3.org/2000/svg" xmlns:xlink="http://www.w3.org/1999/xlink" x="0px" y="0px"
	 width="19.196px" height="25.608px" viewBox="0 0 19.196 25.608" enable-background="new 0 0 19.196 25.608" xml:space="preserve">
<g>
	<path fill="#FFFFFF" d="M10.046,25.608l-6.918-8.945c-0.802-0.71-1.506-1.615-2.035-2.629l-0.17-0.211l0.03-0.07
		C0.32,12.445,0,11.048,0,9.598C0,4.306,4.306,0,9.598,0c5.292,0,9.598,4.306,9.598,9.598c0,0.7-0.082,1.417-0.245,2.13
		c-0.043,0.478-0.209,1.01-0.496,1.566c-0.317,0.768-0.763,1.525-1.313,2.228c-2.414,3.814-6.659,9.503-6.702,9.56L10.046,25.608z
		 M2.002,13.615c0.471,0.89,1.095,1.687,1.855,2.37l6.173,7.969c1.107-1.499,4.308-5.872,6.295-9.009
		c0.523-0.671,0.923-1.35,1.216-2.059c0.253-0.494,0.384-0.908,0.424-1.319c0.156-0.702,0.229-1.344,0.229-1.97
		C18.196,4.856,14.339,1,9.598,1C4.857,1,1,4.856,1,9.598c0,1.368,0.318,2.684,0.947,3.909L2.002,13.615z"/>
</g>
<g>
	<path fill="#FFFFFF" d="M9.598,13.933c-2.444,0-4.432-1.988-4.432-4.433s1.988-4.433,4.432-4.433c2.444,0,4.433,1.988,4.433,4.433
		S12.042,13.933,9.598,13.933z M9.598,6.067c-1.893,0-3.432,1.54-3.432,3.433s1.54,3.433,3.432,3.433s3.433-1.54,3.433-3.433
		S11.49,6.067,9.598,6.067z"/>
</g>
</svg>
