<?xml version="1.0" encoding="utf-8"?>
<!-- Generator: Adobe Illustrator 16.0.0, SVG Export Plug-In . SVG Version: 6.00 Build 0)  -->
<!DOCTYPE svg PUBLIC "-//W3C//DTD SVG 1.1//EN" "http://www.w3.org/Graphics/SVG/1.1/DTD/svg11.dtd">
<svg version="1.1" id="Layer_1" xmlns="http://www.w3.org/2000/svg" xmlns:xlink="http://www.w3.org/1999/xlink" x="0px" y="0px"
	 width="28.112px" height="49.567px" viewBox="0 0 28.112 49.567" enable-background="new 0 0 28.112 49.567" xml:space="preserve">
<pattern  x="-555.442" y="462.802" width="1024" height="2332.091" patternUnits="userSpaceOnUse" id="Unnamed_Pattern" viewBox="0 -2332.091 1024 2332.091" overflow="visible">
	<g>
		<polygon fill="none" points="0,0 1024,0 1024,-2332.091 0,-2332.091 		"/>
		<g>
			<defs>
				<rect id="SVGID_1_" y="-2332.091" width="1024" height="2332.091"/>
			</defs>
			<clipPath id="SVGID_2_">
				<use xlink:href="#SVGID_1_"  overflow="visible"/>
			</clipPath>
			<path clip-path="url(#SVGID_2_)" fill-rule="evenodd" clip-rule="evenodd" fill="#F6901E" d="M569.498-462.802
				c-7.763,0-14.056,6.293-14.056,14.056c0,6.698,4.684,12.301,10.955,13.713c0.801,0.181,0.747,0.773,0.841,1.61l2.26,20.188
				l2.229-19.9c0.091-0.81,0.061-1.718,0.822-1.887c6.297-1.394,11.006-7.009,11.006-13.725
				C583.555-456.509,577.262-462.802,569.498-462.802"/>
			<path clip-path="url(#SVGID_2_)" fill-rule="evenodd" clip-rule="evenodd" fill="#FFFFFF" d="M569.498-436.392
				c6.805,0,12.354-5.55,12.354-12.354c0-6.805-5.55-12.354-12.354-12.354c-6.804,0-12.354,5.55-12.354,12.354
				C557.145-441.941,562.694-436.392,569.498-436.392"/>
			<path clip-path="url(#SVGID_2_)" fill="#221F1F" d="M560.898-449.729c-0.104-0.141-0.177-0.207-0.272-0.258
				c-0.093-0.052-0.207-0.08-0.32-0.08c-0.237,0-0.409,0.117-0.409,0.283c0,0.134,0.078,0.193,0.33,0.251l0.334,0.079
				c0.24,0.059,0.396,0.124,0.503,0.214c0.138,0.117,0.21,0.282,0.21,0.478c0,0.441-0.379,0.737-0.938,0.737
				c-0.309,0-0.581-0.079-0.773-0.23c-0.098-0.072-0.142-0.12-0.245-0.259l0.365-0.258c0.097,0.142,0.189,0.225,0.323,0.282
				c0.107,0.049,0.248,0.076,0.375,0.076c0.262,0,0.432-0.124,0.432-0.313c0-0.154-0.107-0.24-0.383-0.3l-0.3-0.064
				c-0.479-0.104-0.685-0.301-0.685-0.654c0-0.42,0.351-0.71,0.868-0.71c0.277,0,0.516,0.079,0.719,0.245
				c0.076,0.064,0.114,0.103,0.217,0.22L560.898-449.729z"/>
			<path clip-path="url(#SVGID_2_)" fill="#221F1F" d="M562.112-448.861h0.441c0.223,0,0.361-0.033,0.499-0.127
				c0.213-0.141,0.334-0.372,0.334-0.641c0-0.471-0.324-0.757-0.861-0.757h-0.837v2.293h0.424V-448.861z M562.112-449.229v-0.793
				h0.375c0.311,0,0.451,0.121,0.451,0.375c0,0.283-0.158,0.418-0.484,0.418H562.112z"/>
			<path clip-path="url(#SVGID_2_)" fill="#221F1F" d="M564.182-448.943h0.424l0.453,0.85h0.477l-0.503-0.919
				c0.114-0.052,0.155-0.079,0.22-0.131c0.155-0.124,0.238-0.303,0.238-0.509c0-0.169-0.063-0.348-0.165-0.475
				c-0.149-0.184-0.355-0.26-0.693-0.26h-0.874v2.293h0.424V-448.943z M564.182-449.309v-0.713h0.416
				c0.282,0,0.444,0.128,0.444,0.348c0,0.231-0.165,0.365-0.454,0.365H564.182z"/>
			<polygon clip-path="url(#SVGID_2_)" fill="#221F1F" points="566.473,-448.093 566.05,-448.093 566.05,-450.386 566.473,-450.386 
							"/>
			<polygon clip-path="url(#SVGID_2_)" fill="#221F1F" points="568.871,-448.093 568.489,-448.093 567.511,-449.663 
				567.511,-448.093 567.112,-448.093 567.112,-450.386 567.516,-450.386 568.468,-448.837 568.468,-450.386 568.871,-450.386 			
				"/>
			<path clip-path="url(#SVGID_2_)" fill="#221F1F" d="M571.446-448.093h-0.365v-0.196c-0.097,0.082-0.131,0.11-0.196,0.148
				c-0.131,0.071-0.296,0.116-0.458,0.116c-0.616,0-1.063-0.506-1.063-1.201c0-0.72,0.458-1.229,1.104-1.229
				c0.29,0,0.558,0.11,0.744,0.3c0.1,0.106,0.144,0.175,0.22,0.361l-0.396,0.165c-0.11-0.302-0.296-0.447-0.578-0.447
				c-0.386,0-0.637,0.324-0.637,0.823c0,0.509,0.255,0.83,0.653,0.83c0.334,0,0.544-0.2,0.578-0.548h-0.571v-0.372h0.965V-448.093z"
				/>
			<polygon clip-path="url(#SVGID_2_)" fill="#221F1F" points="573.566,-450.008 572.43,-450.008 572.43,-449.43 573.407,-449.43 
				573.407,-449.064 572.43,-449.064 572.43,-448.094 572.006,-448.094 572.006,-450.387 573.566,-450.387 			"/>
			<polygon clip-path="url(#SVGID_2_)" fill="#221F1F" points="574.384,-448.093 573.961,-448.093 573.961,-450.386 
				574.384,-450.386 			"/>
			<polygon clip-path="url(#SVGID_2_)" fill="#221F1F" points="576.604,-450.008 575.399,-450.008 575.399,-449.463 
				576.509,-449.463 576.509,-449.099 575.399,-449.099 575.399,-448.472 576.7,-448.472 576.7,-448.094 574.977,-448.094 
				574.977,-450.387 576.604,-450.387 			"/>
			<polygon clip-path="url(#SVGID_2_)" fill="#221F1F" points="577.555,-448.472 578.501,-448.472 578.501,-448.093 
				577.13,-448.093 577.13,-450.386 577.555,-450.386 			"/>
			<path clip-path="url(#SVGID_2_)" fill="#221F1F" d="M578.841-448.093h0.703c0.282,0,0.492-0.038,0.665-0.124
				c0.326-0.162,0.512-0.531,0.512-1.009c0-0.341-0.086-0.62-0.258-0.823c-0.072-0.086-0.158-0.159-0.254-0.21
				c-0.176-0.097-0.342-0.127-0.665-0.127h-0.703V-448.093z M579.265-448.472v-1.536h0.241c0.544,0,0.754,0.214,0.754,0.765
				c0,0.23-0.031,0.399-0.103,0.53c-0.098,0.18-0.266,0.241-0.651,0.241H579.265z"/>
			<path clip-path="url(#SVGID_2_)" fill="#FFFFFF" d="M291.722-382.833c-1.1,0-2,0.899-2,2v53c0,1.1,0.9,2,2,2h379.5v-57H291.722z"
				/>
		</g>
		<g>
			<defs>
				<rect id="SVGID_3_" y="-2332.091" width="1024" height="2332.091"/>
			</defs>
			<clipPath id="SVGID_4_">
				<use xlink:href="#SVGID_3_"  overflow="visible"/>
			</clipPath>
			<polygon clip-path="url(#SVGID_4_)" fill="#606060" points="613.308,-351.69 610.723,-356 608.137,-351.69 			"/>
			<polygon clip-path="url(#SVGID_4_)" fill="#606060" points="608.137,-350 610.722,-345.691 613.308,-350 			"/>
			<polygon clip-path="url(#SVGID_4_)" fill="#606060" points="455.307,-351.69 452.722,-356 450.136,-351.69 			"/>
			<polygon clip-path="url(#SVGID_4_)" fill="#606060" points="450.137,-350 452.722,-345.691 455.308,-350 			"/>
			<g clip-path="url(#SVGID_4_)">
				<defs>
					<rect id="SVGID_5_" x="697.433" y="-356.423" width="10.823" height="10.823"/>
				</defs>
				<clipPath id="SVGID_6_">
					<use xlink:href="#SVGID_5_"  overflow="visible"/>
				</clipPath>
				<g clip-path="url(#SVGID_6_)">
					<defs>
						<rect id="SVGID_7_" x="697.433" y="-356.423" width="10.823" height="10.823"/>
					</defs>
					<clipPath id="SVGID_8_">
						<use xlink:href="#SVGID_7_"  overflow="visible"/>
					</clipPath>
					<path clip-path="url(#SVGID_8_)" fill="#FFFFFF" d="M705.492-349.896c0.38-0.644,0.6-1.395,0.6-2.198
						c0-2.391-1.938-4.329-4.33-4.329c-2.39,0-4.329,1.938-4.329,4.329c0,2.392,1.939,4.329,4.329,4.329
						c0.804,0,1.555-0.22,2.199-0.6l2.446,2.447c0.424,0.424,1.109,0.424,1.531,0c0.424-0.423,0.424-1.108,0-1.53L705.492-349.896z
						 M705.009-352.095c0,1.79-1.458,3.247-3.247,3.247c-1.79,0-3.245-1.457-3.245-3.247s1.455-3.247,3.245-3.247
						C703.551-355.342,705.009-353.885,705.009-352.095"/>
				</g>
			</g>
			<path clip-path="url(#SVGID_4_)" fill="#FFFFFF" d="M616.022-499.041h-95.45c-0.535,0-0.973,0.438-0.973,0.974v27.771
				c0,0.535,0.438,0.974,0.973,0.974h44.722L568.33-464l3.082-5.323h44.61c0.535,0,0.973-0.438,0.973-0.974v-27.771
				C616.995-498.603,616.558-499.041,616.022-499.041"/>
			<path clip-path="url(#SVGID_4_)" fill="#8C6239" d="M554.822-472.798h-29.525c-1.101,0-2-0.899-2-2v-19.354c0-1.1,0.899-2,2-2
				h29.525c1.1,0,2,0.9,2,2v19.354C556.822-473.697,555.922-472.798,554.822-472.798"/>
			<path clip-path="url(#SVGID_4_)" fill="none" stroke="#F6901E" stroke-width="0.25" stroke-miterlimit="10" d="M614.213-495.187
				c0,1.009-0.818,1.827-1.827,1.827s-1.827-0.818-1.827-1.827s0.818-1.827,1.827-1.827S614.213-496.195,614.213-495.187z"/>
			
				<line clip-path="url(#SVGID_4_)" fill="none" stroke="#F6901E" stroke-width="0.25" stroke-miterlimit="10" x1="611.022" y1="-496.402" x2="613.739" y2="-493.959"/>
			
				<line clip-path="url(#SVGID_4_)" fill="none" stroke="#F6901E" stroke-width="0.25" stroke-miterlimit="10" x1="613.739" y1="-496.402" x2="611.021" y2="-493.959"/>
		</g>
		<text transform="matrix(1 0 0 1 559.9648 -489.1094)"><tspan x="0" y="0" fill="#606060" font-family="'Roboto-Light'" font-size="3">Lo</tspan><tspan x="3.261" y="0" fill="#606060" font-family="'Roboto-Light'" font-size="3">r</tspan><tspan x="4.243" y="0" fill="#606060" font-family="'Roboto-Light'" font-size="3">em Ipsum is simply </tspan></text>
		<text transform="matrix(1 0 0 1 559.9648 -485.5098)" fill="#606060" font-family="'Roboto-Light'" font-size="3">dummy text of the printing</text>
		<text transform="matrix(1 0 0 1 559.9648 -481.9092)"><tspan x="0" y="0" fill="#606060" font-family="'Roboto-Light'" font-size="3">Lo</tspan><tspan x="3.261" y="0" fill="#606060" font-family="'Roboto-Light'" font-size="3">r</tspan><tspan x="4.243" y="0" fill="#606060" font-family="'Roboto-Light'" font-size="3">em Ipsum is simply </tspan></text>
		<text transform="matrix(1 0 0 1 559.9648 -478.3096)" fill="#606060" font-family="'Roboto-Light'" font-size="3">dummy text of the printing</text>
	</g>
</pattern>
<g id="Layer_2">
	<g id="Layer_3">
		<path fill-rule="evenodd" clip-rule="evenodd" fill="url(#Unnamed_Pattern)" d="M14.056,0C6.293,0,0,6.293,0,14.056
			c0,6.698,4.684,12.301,10.955,13.713c0.801,0.181,0.747,0.773,0.841,1.61l2.26,20.188l2.229-19.9
			c0.091-0.81,0.061-1.718,0.822-1.887c6.297-1.394,11.006-7.009,11.006-13.725C28.112,6.293,21.819,0,14.056,0"/>
		<circle fill-rule="evenodd" clip-rule="evenodd" fill="#FFFFFF" cx="14.056" cy="14.083" r="12.344"/>
		<g>
			<path d="M8.013,16.84c0.077-0.018,0.116-0.021,0.18,0.004c0,0.061,0.002,0.12,0.002,0.181c-0.034-0.033-0.068-0.066-0.102-0.098
				c-0.022-0.021-0.047-0.024-0.08-0.019c-0.12,0.026-0.135,0.189-0.134,0.316c0,0.124,0.02,0.28,0.138,0.278
				c0.032-0.001,0.056-0.013,0.079-0.04c0.034-0.038,0.066-0.079,0.101-0.12c0.001,0.063,0.001,0.123,0.001,0.185
				c-0.064,0.041-0.109,0.046-0.181,0.048c-0.166,0-0.295-0.161-0.294-0.331C7.723,17.073,7.85,16.881,8.013,16.84"/>
			<path d="M8.287,17.175c-0.001-0.204,0.114-0.422,0.289-0.462c0.176-0.039,0.296,0.16,0.298,0.396
				c0.004,0.238-0.112,0.461-0.289,0.461S8.29,17.379,8.287,17.175 M8.585,17.486c0.116-0.002,0.135-0.203,0.133-0.36
				c-0.002-0.156-0.024-0.353-0.14-0.329c-0.117,0.023-0.136,0.213-0.135,0.359C8.444,17.305,8.468,17.489,8.585,17.486"/>
			<path d="M9.137,17.536c-0.073,0.002-0.146,0.003-0.218,0.004c0.021-0.031,0.045-0.063,0.067-0.097
				c0.065-0.264,0.131-0.538,0.194-0.822c0.028-0.004,0.056-0.01,0.083-0.015c0.07,0.264,0.141,0.537,0.212,0.819
				c0.022,0.034,0.046,0.068,0.07,0.103c-0.093,0.002-0.186,0.004-0.277,0.005c0.022-0.032,0.044-0.066,0.066-0.101
				c-0.013-0.052-0.025-0.104-0.038-0.156c-0.064,0.004-0.129,0.007-0.192,0.012c-0.014,0.052-0.025,0.103-0.037,0.154
				C9.09,17.473,9.113,17.504,9.137,17.536 M9.125,17.195c0.049-0.004,0.098-0.009,0.146-0.012c-0.024-0.101-0.049-0.2-0.074-0.297
				C9.173,16.991,9.149,17.094,9.125,17.195"/>
			<path d="M9.939,17.417c0.029-0.048,0.058-0.096,0.085-0.143c0.002,0.082,0.003,0.163,0.004,0.246
				c-0.148,0.002-0.297,0.005-0.444,0.008c0.021-0.034,0.045-0.071,0.067-0.107c-0.004-0.256-0.007-0.515-0.012-0.772
				c-0.022-0.031-0.047-0.063-0.068-0.094c0.09-0.015,0.181-0.028,0.271-0.042c-0.023,0.038-0.046,0.078-0.067,0.116
				c0.003,0.265,0.007,0.528,0.01,0.792C9.837,17.419,9.889,17.418,9.939,17.417"/>
			<path d="M10.401,17.516c0.023-0.039,0.046-0.078,0.068-0.117c-0.004-0.286-0.009-0.572-0.012-0.858
				c-0.023-0.035-0.047-0.071-0.07-0.107c0.083-0.01,0.166-0.021,0.25-0.031c0.11-0.014,0.233,0.053,0.235,0.283
				c0.001,0.088-0.053,0.207-0.118,0.245c0.083,0.018,0.155,0.148,0.156,0.284c0.003,0.223-0.124,0.296-0.235,0.297
				C10.584,17.513,10.494,17.515,10.401,17.516 M10.592,16.521c0.003,0.125,0.004,0.251,0.005,0.376
				c0.017,0,0.031-0.001,0.048-0.004c0.056-0.003,0.09-0.08,0.089-0.195c-0.002-0.118-0.038-0.188-0.095-0.183
				C10.623,16.519,10.607,16.52,10.592,16.521 M10.674,17.396c0.056-0.001,0.101-0.054,0.098-0.177
				c-0.001-0.113-0.042-0.216-0.103-0.212c-0.023,0.002-0.047,0.003-0.07,0.005c0.001,0.129,0.004,0.257,0.005,0.386
				C10.627,17.398,10.65,17.398,10.674,17.396"/>
			<path d="M11.512,17.375c0.023,0.042,0.046,0.084,0.069,0.127c-0.062,0-0.125,0.001-0.188,0.001
				c-0.05-0.178-0.102-0.354-0.15-0.528c-0.016,0.001-0.031,0.002-0.047,0.002c0.002,0.136,0.004,0.27,0.005,0.404
				c0.024,0.04,0.048,0.082,0.072,0.123c-0.091,0.001-0.184,0.003-0.273,0.004c0.022-0.041,0.045-0.083,0.066-0.124
				c-0.003-0.303-0.007-0.605-0.012-0.907c-0.021-0.04-0.046-0.079-0.069-0.116c0.084-0.01,0.167-0.019,0.251-0.026
				c0.117-0.013,0.251,0.073,0.253,0.293c0.002,0.159-0.068,0.263-0.118,0.297C11.418,17.072,11.465,17.223,11.512,17.375
				 M11.19,16.459c0.001,0.133,0.004,0.265,0.005,0.397c0.017-0.001,0.031-0.002,0.047-0.003c0.058-0.003,0.1-0.105,0.099-0.217
				c-0.001-0.104-0.047-0.188-0.104-0.183C11.222,16.456,11.206,16.457,11.19,16.459"/>
			<path d="M11.604,16.298c0.091-0.007,0.183-0.016,0.274-0.022c-0.023,0.046-0.046,0.09-0.069,0.136
				c0.004,0.319,0.008,0.639,0.011,0.958c0.022,0.043,0.047,0.086,0.07,0.131c-0.091,0-0.183,0.001-0.274,0.001
				c0.023-0.044,0.046-0.087,0.069-0.13c-0.004-0.316-0.008-0.633-0.011-0.95C11.65,16.381,11.627,16.339,11.604,16.298"/>
			<path d="M12.267,16.22c0.078-0.006,0.117,0.001,0.183,0.063c0.002,0.103,0.002,0.206,0.003,0.307
				c-0.035-0.063-0.069-0.129-0.104-0.194c-0.022-0.041-0.048-0.056-0.08-0.055c-0.122,0.008-0.136,0.303-0.133,0.536
				c0.001,0.229,0.023,0.52,0.143,0.519c0.032-0.001,0.056-0.018,0.079-0.063c0.032-0.066,0.066-0.133,0.101-0.199
				c0,0.105,0.001,0.21,0.001,0.316c-0.064,0.066-0.11,0.074-0.18,0.074c-0.167,0-0.299-0.309-0.303-0.639
				C11.974,16.552,12.1,16.231,12.267,16.22"/>
			<path d="M12.745,17.357c0.024,0.045,0.048,0.09,0.071,0.135c-0.092,0.002-0.183,0.002-0.273,0.002
				c0.022-0.045,0.046-0.09,0.067-0.136c-0.002-0.333-0.004-0.664-0.007-0.997c-0.023-0.043-0.047-0.087-0.07-0.13
				c0.093-0.006,0.184-0.011,0.275-0.015c-0.022,0.046-0.046,0.093-0.069,0.139c0.001,0.146,0.002,0.292,0.002,0.438
				c0.076-0.153,0.152-0.306,0.228-0.46c-0.022-0.041-0.043-0.081-0.064-0.121c0.071-0.003,0.144-0.006,0.215-0.009
				c-0.084,0.173-0.169,0.345-0.253,0.515c0.097,0.256,0.192,0.514,0.288,0.772c-0.071,0-0.144,0.001-0.215,0.001
				c0-0.044-0.001-0.088-0.001-0.133c-0.065-0.178-0.131-0.354-0.196-0.528C12.742,17.006,12.745,17.182,12.745,17.357"/>
			<path d="M13.221,17.054c0-0.05,0-0.101,0-0.15c0.088-0.001,0.175-0.004,0.263-0.005c0,0.052,0,0.102,0,0.151
				C13.396,17.052,13.309,17.053,13.221,17.054"/>
			<path d="M13.601,16.84c-0.002-0.354,0.116-0.688,0.294-0.689c0.179-0.001,0.297,0.333,0.297,0.688
				c0,0.354-0.118,0.688-0.295,0.688S13.601,17.195,13.601,16.84 M13.896,17.393c0.117,0,0.138-0.309,0.138-0.555
				c0-0.245-0.021-0.553-0.139-0.553c-0.118,0.001-0.139,0.31-0.138,0.555C13.758,17.084,13.778,17.394,13.896,17.393"/>
			<path d="M14.52,16.19c-0.023,0.045-0.047,0.091-0.069,0.135c0.038,0.263,0.074,0.523,0.112,0.784
				c0.04-0.261,0.081-0.521,0.122-0.779c-0.023-0.047-0.047-0.092-0.069-0.138c0.073,0.001,0.147,0.003,0.22,0.005
				c-0.023,0.047-0.047,0.092-0.07,0.139c-0.064,0.383-0.128,0.768-0.19,1.154c-0.028,0-0.056,0-0.084,0
				c-0.06-0.387-0.12-0.773-0.181-1.161c-0.023-0.047-0.047-0.095-0.071-0.142C14.333,16.188,14.427,16.189,14.52,16.19"/>
			<path d="M15.315,17.492c-0.151,0-0.304-0.001-0.455-0.002c0.023-0.046,0.047-0.091,0.069-0.137
				c0.001-0.338,0.003-0.678,0.003-1.015c-0.021-0.047-0.045-0.094-0.067-0.141c0.152,0.004,0.305,0.01,0.457,0.017
				c-0.001,0.102-0.001,0.203-0.002,0.305c-0.028-0.059-0.059-0.117-0.087-0.177c-0.055-0.002-0.11-0.003-0.165-0.006
				c0,0.135-0.001,0.27-0.001,0.404c0.037,0.001,0.075,0.001,0.114,0.002c0.021-0.045,0.046-0.091,0.068-0.137
				c0,0.136-0.001,0.272-0.002,0.407c-0.022-0.045-0.045-0.092-0.067-0.138c-0.038-0.001-0.076-0.001-0.113-0.002
				c-0.002,0.161-0.003,0.323-0.004,0.484c0.055,0,0.109,0.001,0.164,0.001c0.029-0.057,0.06-0.115,0.089-0.173
				C15.315,17.289,15.315,17.391,15.315,17.492"/>
			<path d="M15.544,17.358c0.023,0.046,0.047,0.09,0.069,0.136c-0.071,0-0.143,0-0.214-0.002c0.022-0.045,0.046-0.09,0.069-0.135
				c0.002-0.333,0.004-0.667,0.007-1c-0.023-0.046-0.046-0.093-0.068-0.14c0.061,0.004,0.119,0.006,0.181,0.01
				c0.087,0.257,0.175,0.511,0.262,0.764c0.003-0.206,0.004-0.41,0.005-0.614c-0.021-0.046-0.045-0.092-0.067-0.138
				c0.071,0.004,0.143,0.01,0.214,0.014c-0.023,0.042-0.047,0.086-0.07,0.129c-0.004,0.42-0.007,0.84-0.011,1.26
				c-0.122-0.353-0.246-0.712-0.371-1.074C15.548,16.831,15.547,17.095,15.544,17.358"/>
			<path d="M16.363,17.5c0.024-0.044,0.048-0.087,0.071-0.13c0.002-0.317,0.007-0.636,0.01-0.955
				c-0.022-0.044-0.046-0.09-0.068-0.134c0.092,0.007,0.184,0.016,0.274,0.023c0.126,0.012,0.263,0.14,0.261,0.372
				c-0.004,0.233-0.143,0.339-0.269,0.334c-0.023,0-0.046-0.001-0.07-0.003c-0.001,0.122-0.002,0.243-0.003,0.364
				c0.022,0.043,0.045,0.087,0.068,0.13C16.547,17.501,16.454,17.501,16.363,17.5 M16.645,16.887
				c0.064,0.004,0.115-0.101,0.117-0.221c0.001-0.121-0.048-0.231-0.112-0.237c-0.023-0.003-0.047-0.004-0.07-0.006
				c-0.002,0.153-0.003,0.307-0.005,0.461C16.597,16.885,16.62,16.886,16.645,16.887"/>
			<path d="M16.995,16.339c0.091,0.009,0.182,0.02,0.273,0.03c-0.024,0.037-0.048,0.075-0.07,0.114
				c-0.004,0.301-0.008,0.601-0.012,0.901c0.023,0.042,0.044,0.083,0.067,0.124c-0.091-0.001-0.183-0.002-0.273-0.004
				c0.023-0.04,0.047-0.081,0.07-0.123c0.004-0.304,0.007-0.608,0.011-0.913C17.039,16.426,17.017,16.383,16.995,16.339"/>
			<path d="M17.442,16.505c-0.03,0.048-0.059,0.096-0.09,0.144c0.002-0.09,0.003-0.18,0.004-0.271
				c0.147,0.018,0.293,0.036,0.438,0.057c-0.096,0.31-0.191,0.632-0.287,0.962c0.06,0.002,0.119,0.003,0.179,0.005
				c0.029-0.049,0.06-0.097,0.09-0.145c-0.001,0.086-0.002,0.172-0.003,0.258c-0.147-0.001-0.292-0.004-0.439-0.006
				c0.096-0.336,0.191-0.665,0.287-0.983C17.562,16.519,17.502,16.511,17.442,16.505"/>
			<path d="M17.957,16.566c-0.03,0.044-0.06,0.088-0.088,0.134c0.001-0.085,0.001-0.17,0.002-0.257
				c0.147,0.021,0.293,0.041,0.438,0.063c-0.095,0.29-0.19,0.591-0.286,0.902c0.06,0.003,0.119,0.004,0.179,0.006
				c0.03-0.045,0.06-0.091,0.09-0.135c-0.002,0.08-0.003,0.162-0.003,0.242c-0.147-0.002-0.293-0.004-0.439-0.006
				c0.096-0.319,0.19-0.63,0.286-0.928C18.076,16.581,18.017,16.573,17.957,16.566"/>
			<path d="M18.821,17.532c-0.15-0.004-0.303-0.005-0.455-0.008c0.024-0.035,0.048-0.07,0.071-0.105
				c0.003-0.262,0.007-0.522,0.011-0.784c-0.021-0.038-0.045-0.077-0.067-0.116c0.152,0.022,0.303,0.049,0.453,0.074
				c-0.001,0.075-0.003,0.149-0.004,0.224c-0.027-0.046-0.056-0.093-0.084-0.141c-0.055-0.008-0.109-0.017-0.163-0.024
				c-0.002,0.103-0.004,0.204-0.005,0.307c0.037,0.004,0.075,0.008,0.113,0.012c0.023-0.032,0.047-0.064,0.07-0.096
				c-0.001,0.101-0.004,0.202-0.005,0.303c-0.022-0.035-0.044-0.071-0.066-0.107c-0.039-0.004-0.076-0.008-0.114-0.01
				c-0.001,0.122-0.003,0.245-0.005,0.366c0.055,0.003,0.109,0.005,0.163,0.006c0.03-0.042,0.06-0.083,0.09-0.125
				C18.823,17.383,18.822,17.457,18.821,17.532"/>
			<path d="M19.42,17.454c0.021,0.03,0.044,0.061,0.067,0.091c-0.063-0.001-0.126-0.002-0.189-0.003
				c-0.046-0.133-0.092-0.267-0.139-0.405c-0.016-0.001-0.031-0.003-0.047-0.004c-0.001,0.103-0.002,0.206-0.003,0.31
				c0.023,0.032,0.047,0.064,0.068,0.096c-0.091-0.001-0.182-0.002-0.272-0.005c0.023-0.032,0.047-0.064,0.069-0.096
				c0.004-0.24,0.006-0.48,0.011-0.721c-0.022-0.036-0.045-0.072-0.067-0.11c0.083,0.016,0.166,0.029,0.248,0.045
				c0.116,0.023,0.248,0.119,0.245,0.271c-0.001,0.113-0.072,0.175-0.123,0.194C19.332,17.232,19.375,17.345,19.42,17.454
				 M19.118,16.735c-0.001,0.103-0.002,0.203-0.003,0.305c0.015,0.002,0.03,0.003,0.047,0.006c0.057,0.006,0.1-0.063,0.102-0.144
				c0.001-0.077-0.041-0.149-0.099-0.159C19.15,16.741,19.134,16.737,19.118,16.735"/>
			<path d="M19.529,16.721c0.091,0.018,0.181,0.037,0.271,0.056c-0.021,0.023-0.045,0.046-0.068,0.069
				c-0.002,0.207-0.004,0.413-0.006,0.62c0.023,0.029,0.045,0.057,0.067,0.085c-0.09-0.001-0.182-0.004-0.271-0.006
				c0.023-0.028,0.046-0.056,0.069-0.085c0.002-0.213,0.004-0.425,0.006-0.639C19.575,16.789,19.553,16.755,19.529,16.721"/>
			<path d="M20.05,17.558c-0.072-0.002-0.145-0.003-0.219-0.006c0.023-0.026,0.049-0.054,0.071-0.08
				c0.07-0.222,0.14-0.432,0.208-0.629c0.027,0.006,0.055,0.013,0.083,0.019c0.064,0.223,0.13,0.434,0.196,0.633
				c0.023,0.024,0.046,0.049,0.069,0.072c-0.093-0.002-0.184-0.004-0.277-0.006c0.023-0.024,0.046-0.05,0.067-0.072
				c-0.012-0.04-0.023-0.079-0.035-0.119c-0.063-0.005-0.128-0.01-0.192-0.016c-0.013,0.041-0.025,0.082-0.038,0.123
				C20.005,17.504,20.027,17.531,20.05,17.558 M20.045,17.282c0.049,0.004,0.097,0.01,0.146,0.015
				c-0.022-0.08-0.046-0.161-0.068-0.243C20.097,17.127,20.07,17.204,20.045,17.282"/>
			<path fill-rule="evenodd" clip-rule="evenodd" fill="#A34E24" d="M14.062,10.612c0.085,0.005,0.188-0.008,0.262,0.008
				c0.047,0.161,0.06,0.333,0.084,0.502c0.16,1.081,0.315,2.206,0.48,3.319c0.013,0.09,0.019,0.178,0.045,0.24
				c0.028,0.062,0.082,0.093,0.132,0.139c0.046,0.041,0.108,0.083,0.116,0.154c-0.065,0.021-0.147,0.01-0.225,0.008
				c-0.151-0.006-0.317-0.015-0.479-0.015c-0.08,0-0.163,0.011-0.232-0.017c0.012-0.076,0.069-0.1,0.117-0.147
				c0.037-0.037,0.104-0.083,0.115-0.139c0.011-0.05-0.014-0.125-0.023-0.185c-0.009-0.063-0.015-0.128-0.023-0.186
				c-0.018-0.121-0.025-0.241-0.068-0.339c-0.155-0.025-0.32-0.011-0.486-0.009c-0.047,0.161-0.059,0.353-0.086,0.54
				c-0.008,0.063-0.031,0.128-0.023,0.178c0.012,0.066,0.075,0.105,0.116,0.147c0.043,0.043,0.098,0.079,0.102,0.139
				c-0.054,0.027-0.12,0.017-0.186,0.017c-0.118,0-0.26,0.002-0.395,0.007c-0.06,0.001-0.123,0.021-0.169-0.007
				c-0.008-0.074,0.068-0.105,0.108-0.147c0.042-0.047,0.102-0.097,0.122-0.147c0.024-0.058,0.025-0.159,0.039-0.254
				c0.166-1.175,0.324-2.348,0.486-3.544c0.012-0.089,0.024-0.178,0.047-0.246C14.044,10.622,14.052,10.616,14.062,10.612
				 M13.914,13.631c0.119,0.013,0.291,0.013,0.409,0c-0.052-0.47-0.134-0.978-0.208-1.451c0-0.005-0.002-0.009-0.009-0.007
				C14.046,12.657,13.963,13.16,13.914,13.631"/>
			<path fill-rule="evenodd" clip-rule="evenodd" fill="#A34E24" d="M12.996,10.65c-0.011,0.113-0.188,0.191-0.225,0.325
				c-0.03,0.111-0.008,0.299-0.008,0.463v2.787c0,0.156-0.023,0.346,0.008,0.456c0.034,0.117,0.203,0.179,0.225,0.301
				c-0.141,0.022-0.296,0.028-0.448,0.038c-0.154,0.011-0.309,0.025-0.448,0.023c0.017-0.122,0.157-0.198,0.193-0.301
				c0.03-0.088,0.016-0.229,0.016-0.355c0-0.838,0.006-1.786-0.009-2.578c-0.171,1.063-0.295,2.181-0.47,3.257
				c-0.04,0.023-0.137,0.028-0.178,0.023c-0.181-1.038-0.327-2.112-0.494-3.165c-0.015,0.79-0.009,1.718-0.008,2.563
				c0,0.125-0.019,0.262,0.008,0.356c0.031,0.109,0.171,0.156,0.193,0.277c-0.249,0.046-0.543,0.087-0.788,0.107
				c-0.006-0.059,0.059-0.113,0.107-0.177c0.042-0.054,0.114-0.128,0.124-0.193c0.02-0.133,0-0.301,0-0.463V11.64
				c0-0.155,0.021-0.339-0.007-0.448c-0.023-0.087-0.117-0.153-0.178-0.216c-0.018-0.018-0.063-0.035-0.047-0.069
				c0.046-0.045,0.123-0.037,0.186-0.047c0.186-0.026,0.411-0.072,0.609-0.068c0.059,0.09,0.054,0.204,0.07,0.308
				c0.113,0.724,0.238,1.512,0.362,2.239c0.117-0.757,0.222-1.542,0.332-2.316c0.015-0.105,0.021-0.217,0.062-0.315
				c0.094-0.027,0.199-0.032,0.31-0.039C12.659,10.655,12.835,10.641,12.996,10.65"/>
			<path fill-rule="evenodd" clip-rule="evenodd" fill="#A34E24" d="M15.435,10.65c0.271,0.021,0.595,0.031,0.873,0.063
				c0.03,0.003,0.079-0.001,0.101,0.031c0.015,0.034-0.027,0.06-0.047,0.077c-0.055,0.05-0.179,0.116-0.208,0.192
				c-0.041,0.102-0.017,0.298-0.017,0.456c0,1.077,0,2.248,0,3.289c0.12-0.003,0.222,0.057,0.325,0.023
				c0.079-0.027,0.109-0.19,0.139-0.279c0.092-0.271,0.175-0.509,0.263-0.771c0.017-0.05,0.021-0.108,0.062-0.139
				c0.062,0.023,0.038,0.108,0.038,0.162v0.594c0,0.267,0.013,0.543-0.015,0.772c-0.249-0.002-0.504-0.039-0.765-0.062
				c-0.191-0.017-0.38-0.033-0.579-0.047c-0.061-0.003-0.128,0.001-0.186-0.023c-0.006-0.06,0.064-0.107,0.116-0.154
				c0.055-0.047,0.12-0.08,0.139-0.139c0.034-0.103,0.008-0.309,0.008-0.463v-2.779c0-0.164,0.022-0.341-0.008-0.455
				c-0.036-0.144-0.237-0.212-0.263-0.325C15.416,10.664,15.424,10.655,15.435,10.65"/>
			<path fill-rule="evenodd" clip-rule="evenodd" fill="#C4950C" d="M14.509,10.751c0.01,0.004,0.012,0.015,0.022,0.017
				c0.207,1.304,0.382,2.64,0.579,3.952c-0.054-0.061-0.051-0.151-0.063-0.224c-0.08-0.562-0.159-1.156-0.246-1.737
				C14.702,12.086,14.606,11.404,14.509,10.751"/>
			<path fill-rule="evenodd" clip-rule="evenodd" fill="#C4950C" d="M13.158,10.76c0.006-0.002,0.007,0.002,0.007,0.008
				c0.092,0.074-0.013,0.146-0.054,0.192c-0.048,0.057-0.121,0.125-0.139,0.186c-0.033,0.112-0.009,0.297-0.009,0.447v3.157
				c-0.057-0.05-0.038-0.137-0.038-0.2v-3.258c0-0.082-0.014-0.176,0-0.231c0.012-0.046,0.07-0.102,0.108-0.147
				C13.077,10.863,13.134,10.822,13.158,10.76"/>
			<path fill-rule="evenodd" clip-rule="evenodd" fill="#A34E24" d="M17.341,10.836c0.189,0.025,0.351,0.054,0.534,0.086
				c0.178,0.03,0.352,0.039,0.501,0.115c0.531,0.269,0.669,1.103,0.694,1.915c0.015,0.415-0.001,0.864-0.046,1.258
				c-0.042,0.373-0.122,0.788-0.323,0.98c-0.107,0.103-0.251,0.155-0.472,0.14c-0.148-0.012-0.304-0.054-0.455-0.078
				c-0.156-0.024-0.311-0.032-0.448-0.077c-0.007-0.063,0.072-0.098,0.124-0.139c0.052-0.042,0.113-0.084,0.131-0.139
				c0.032-0.102,0.008-0.305,0.008-0.456c0-0.924,0-1.847,0-2.779c0-0.164,0.02-0.338-0.008-0.455
				c-0.035-0.151-0.24-0.236-0.255-0.348C17.326,10.847,17.332,10.84,17.341,10.836 M18.044,11.261v3.752
				c0.059,0.003,0.146,0.028,0.217,0.008c0.108-0.03,0.177-0.186,0.216-0.332c0.12-0.444,0.116-1.011,0.116-1.528
				c0-0.371-0.002-0.733-0.039-1.058c-0.034-0.3-0.102-0.693-0.293-0.811c-0.054-0.032-0.158-0.044-0.209-0.054
				C18.043,11.239,18.044,11.251,18.044,11.261"/>
			<path fill-rule="evenodd" clip-rule="evenodd" fill="#C4950C" d="M16.577,10.852h0.017c0.06,0.095-0.027,0.148-0.079,0.193
				c-0.056,0.051-0.14,0.087-0.162,0.154c-0.032,0.103-0.007,0.293-0.007,0.44c0,0.998,0.021,1.993,0,2.987
				c-0.001,0.026,0.015,0.072-0.015,0.093c-0.052,0-0.03-0.063-0.032-0.085c-0.016-0.252,0-0.527,0-0.796V11.57
				c0-0.143-0.022-0.336,0.009-0.439C16.337,11.036,16.536,10.941,16.577,10.852"/>
			<path fill-rule="evenodd" clip-rule="evenodd" fill="#C4950C" d="M11.56,10.929c0.007,0.003,0.014,0.007,0.016,0.017
				c0.062,0.277,0.101,0.565,0.146,0.856c0.023,0.142,0.048,0.289,0.069,0.432c0.022,0.146,0.058,0.293,0.046,0.44
				C11.739,12.098,11.651,11.512,11.56,10.929"/>
			<path fill-rule="evenodd" clip-rule="evenodd" fill="#A34E24" d="M10.27,15.268c-0.068,0.042-0.156,0.048-0.237,0.062
				c-0.084,0.015-0.171,0.03-0.256,0.047c-0.168,0.031-0.336,0.074-0.494,0.085c0.006-0.07,0.071-0.117,0.124-0.178
				c0.042-0.05,0.109-0.111,0.131-0.17c0.038-0.107,0.015-0.295,0.015-0.455V11.84c0-0.148,0.021-0.353-0.015-0.448
				c-0.022-0.058-0.077-0.081-0.131-0.122c-0.052-0.04-0.114-0.076-0.124-0.132c0.063-0.045,0.146-0.046,0.225-0.063
				c0.217-0.043,0.477-0.09,0.702-0.13c0.009-0.003,0.022-0.012,0.03-0.009c0.081,0.037-0.063,0.144-0.092,0.178
				c-0.035,0.04-0.123,0.131-0.139,0.193C9.976,11.425,10,11.605,10,11.763v2.778c0,0.162-0.024,0.345,0.009,0.457
				c0.018,0.061,0.076,0.097,0.13,0.139S10.259,15.208,10.27,15.268"/>
			<path fill-rule="evenodd" clip-rule="evenodd" fill="#C4950C" d="M10.448,11.061c0.062,0.102-0.036,0.168-0.085,0.224
				c-0.052,0.059-0.135,0.122-0.154,0.193c-0.032,0.112-0.008,0.29-0.008,0.439v3.135c-0.065-0.04-0.039-0.135-0.039-0.193v-3.242
				c0-0.076-0.014-0.168,0-0.225c0.01-0.037,0.092-0.126,0.124-0.162c0.053-0.059,0.1-0.113,0.131-0.154
				C10.428,11.063,10.42,11.049,10.448,11.061"/>
			<path fill-rule="evenodd" clip-rule="evenodd" fill="#A34E24" d="M19.472,11.238c0.233,0.057,0.501,0.12,0.741,0.186
				c0.076,0.02,0.16,0.032,0.216,0.084c-0.032,0.1-0.217,0.128-0.254,0.224c-0.035,0.091-0.007,0.324-0.007,0.465
				c0,0.934,0,1.852,0,2.793c0,0.164-0.023,0.34,0.007,0.456c0.036,0.134,0.224,0.239,0.254,0.379
				c-0.081,0.006-0.163-0.033-0.246-0.056c-0.164-0.044-0.336-0.091-0.502-0.13c-0.081-0.021-0.171-0.02-0.231-0.077
				c0.038-0.099,0.226-0.136,0.262-0.239c0.032-0.09,0.009-0.303,0.009-0.456c0-0.915,0-1.852,0-2.779
				c0-0.169,0.019-0.365-0.016-0.471c-0.045-0.142-0.217-0.244-0.255-0.355C19.453,11.249,19.462,11.242,19.472,11.238"/>
			<path fill-rule="evenodd" clip-rule="evenodd" fill="#A34E24" d="M8.418,13.438c0.21,0.059,0.343,0.234,0.363,0.485
				c0.021,0.278,0,0.662,0,0.974c0,0.115-0.021,0.242,0,0.324c0.016,0.067,0.096,0.104,0.146,0.147
				c0.026,0.021,0.053,0.048,0.077,0.068c0.023,0.02,0.063,0.036,0.063,0.077c-0.285,0.07-0.689,0.242-0.733-0.131
				c-0.022-0.183,0-0.439,0-0.688c0-0.313,0.047-0.654-0.047-0.834c-0.07-0.136-0.226-0.188-0.408-0.107v1.305
				c0,0.148-0.027,0.316,0.007,0.425c0.019,0.056,0.074,0.089,0.124,0.124c0.047,0.032,0.108,0.054,0.13,0.106
				c-0.003,0.051-0.067,0.053-0.099,0.063c-0.12,0.033-0.246,0.064-0.371,0.101c-0.164,0.048-0.328,0.108-0.494,0.139
				c0.006-0.122,0.184-0.222,0.239-0.363c0.047-0.121,0.023-0.376,0.023-0.556v-2.741c0-0.146,0.018-0.359-0.015-0.439
				c-0.03-0.071-0.139-0.113-0.202-0.162c-0.018-0.013-0.059-0.024-0.046-0.054c0.048-0.064,0.143-0.07,0.216-0.094
				c0.226-0.067,0.479-0.155,0.727-0.192c0.183-0.026,0.393,0.011,0.509,0.124c0.163,0.16,0.216,0.466,0.217,0.749
				c0,0.365-0.083,0.706-0.239,0.934C8.545,13.306,8.468,13.363,8.418,13.438 M8.24,13.229c0.09-0.161,0.123-0.497,0.123-0.779
				c0-0.292-0.011-0.645-0.185-0.718c-0.113-0.049-0.211,0.01-0.301,0.022v1.706C8.029,13.438,8.173,13.349,8.24,13.229"/>
			<path fill-rule="evenodd" clip-rule="evenodd" fill="#C4950C" d="M18.206,11.424h0.023c0.032,0.017,0.015,0.059,0.015,0.084
				c0.022,1.134-0.009,2.337-0.007,3.467c-0.051,0-0.03-0.063-0.031-0.086c-0.014-0.243,0-0.521,0-0.779c0-0.873,0-1.787,0-2.663
				V11.424z"/>
			<path fill-rule="evenodd" clip-rule="evenodd" fill="#C4950C" d="M20.368,15.522c-0.057-0.05-0.038-0.135-0.038-0.2v-3.251
				c0-0.086-0.016-0.185,0-0.231c0.011-0.034,0.077-0.07,0.131-0.108c0.057-0.04,0.09-0.09,0.123-0.107
				c0.007-0.004-0.007-0.021,0.009-0.023c0.012-0.002,0.033,0.027,0.038,0.047c0.028,0.136-0.218,0.169-0.256,0.27
				c-0.037,0.101-0.007,0.295-0.007,0.448C20.368,13.407,20.368,14.511,20.368,15.522"/>
			<path fill-rule="evenodd" clip-rule="evenodd" fill="#A34E24" d="M20.809,12.882c-0.006-0.066,0.069-0.089,0.107-0.139
				c0.09-0.118,0.156-0.28,0.146-0.471c-0.055-0.061-0.131-0.068-0.177-0.146c-0.074-0.12-0.095-0.479,0.076-0.472
				c0.257,0.013,0.306,0.285,0.286,0.579c-0.011,0.152-0.056,0.303-0.132,0.425C21.043,12.78,20.942,12.91,20.809,12.882"/>
			<path fill-rule="evenodd" clip-rule="evenodd" fill="#A34E24" d="M6.673,11.84c0.056,0.031,0.038,0.108,0.039,0.162
				c0.006,0.384,0,0.808,0,1.204c0,0.056,0.017,0.125-0.031,0.162c-0.066-0.005-0.063-0.088-0.077-0.13
				c-0.049-0.148-0.103-0.291-0.169-0.44c-0.053-0.116-0.191-0.443-0.363-0.448c-0.136-0.004-0.21,0.17-0.247,0.302
				c-0.046,0.156-0.064,0.315-0.077,0.463c-0.033,0.355-0.031,0.67-0.031,1.058c0,0.553-0.016,1.085,0.046,1.59
				c0.021,0.158,0.045,0.375,0.147,0.394c0.133,0.025,0.242-0.143,0.284-0.246c0.062-0.147,0.076-0.297,0.086-0.441
				c0.023-0.362-0.011-0.713-0.007-1.042c-0.002-0.086-0.235-0.09-0.24-0.178c-0.004-0.07,0.141-0.091,0.208-0.115
				c0.174-0.061,0.315-0.114,0.479-0.17c0.083-0.028,0.167-0.065,0.24-0.063c-0.006,0.083-0.063,0.132-0.116,0.194
				c-0.046,0.052-0.117,0.109-0.131,0.177c-0.016,0.07,0,0.16,0,0.248v1.45c0,0.072,0.017,0.155-0.023,0.217
				c-0.064,0.021-0.101-0.024-0.139-0.047c-0.039-0.021-0.091-0.063-0.132-0.062c-0.059,0.002-0.112,0.102-0.154,0.147
				c-0.049,0.052-0.114,0.116-0.154,0.146c-0.088,0.064-0.273,0.137-0.425,0.078c-0.276-0.108-0.357-0.576-0.393-0.965
				c-0.04-0.416-0.049-0.888-0.04-1.321c0.011-0.421,0.04-0.873,0.132-1.227c0.093-0.354,0.253-0.692,0.525-0.827
				c0.065-0.031,0.173-0.062,0.254-0.061c0.077,0.001,0.173,0.06,0.225,0.054C6.489,12.092,6.573,11.876,6.673,11.84"/>
			<path fill-rule="evenodd" clip-rule="evenodd" fill="#C4950C" d="M8.217,11.91c-0.038,0.02-0.093,0.024-0.139,0.038v1.258
				c0,0.048,0.018,0.128-0.023,0.154c-0.029,0.016-0.014-0.04-0.016-0.068c-0.011-0.396,0-0.828,0-1.236
				c0-0.056-0.012-0.12,0.016-0.169C8.107,11.874,8.194,11.87,8.217,11.91"/>
			<path fill-rule="evenodd" clip-rule="evenodd" fill="#C4950C" d="M6.866,11.964c0.013-0.003,0.013,0.007,0.023,0.008
				c0.038,0.117,0.023,0.273,0.023,0.432v0.903c0,0.131,0.01,0.352-0.154,0.232c0.021-0.021,0.041-0.034,0.061-0.055
				c0.019-0.019,0.032-0.036,0.047-0.063V11.964z"/>
			<path fill-rule="evenodd" clip-rule="evenodd" fill="#A34E24" d="M22.884,13.855c-0.051,0.007-0.054-0.055-0.062-0.085
				c-0.067-0.262-0.118-0.528-0.208-0.771c-0.063-0.172-0.155-0.405-0.294-0.557c-0.043-0.048-0.115-0.108-0.177-0.101
				c-0.135,0.019-0.081,0.426-0.054,0.556c0.03,0.15,0.103,0.37,0.153,0.518c0.122,0.346,0.237,0.652,0.363,0.98
				c0.119,0.311,0.26,0.65,0.333,1.011c0.074,0.377,0.092,0.946-0.155,1.097c-0.204,0.125-0.439-0.031-0.564-0.147
				c-0.047-0.044-0.137-0.164-0.192-0.169c-0.075-0.008-0.152,0.101-0.239,0.077c-0.042-0.028-0.023-0.115-0.023-0.178
				c0-0.432-0.006-0.924,0.009-1.351c0.071,0.015,0.059,0.104,0.068,0.153c0.082,0.396,0.191,0.864,0.394,1.151
				c0.096,0.135,0.342,0.342,0.363-0.03c0.008-0.137-0.012-0.242-0.022-0.31c-0.088-0.52-0.319-1.035-0.495-1.49
				c-0.122-0.318-0.248-0.657-0.323-1.004c-0.071-0.326-0.142-0.916,0.069-1.111c0.186-0.173,0.49,0.01,0.617,0.132
				c0.05,0.046,0.104,0.153,0.178,0.162c0.081,0.008,0.156-0.119,0.24-0.063c0.041,0.028,0.03,0.084,0.03,0.171
				C22.893,12.948,22.898,13.428,22.884,13.855"/>
			<path fill-rule="evenodd" clip-rule="evenodd" fill="#C4950C" d="M23.055,12.45c0.009,0.002,0.012,0.014,0.023,0.016
				c0.037,0.097,0.023,0.299,0.023,0.486c0,0.286,0,0.549,0,0.85c0,0.127,0.021,0.342-0.132,0.23
				c-0.002-0.034,0.075-0.051,0.085-0.1V12.45z"/>
			<path fill-rule="evenodd" clip-rule="evenodd" fill="#C4950C" d="M14.161,12.99c0.009-0.001,0.014,0.002,0.016,0.007
				c0.025,0.153,0.013,0.35-0.03,0.511c-0.011,0.038,0.007,0.093-0.062,0.069C14.109,13.38,14.142,13.192,14.161,12.99"/>
			<path fill-rule="evenodd" clip-rule="evenodd" fill="#A34E24" d="M2.781,13.315h0.812v0.803c0.254,0.018,0.543,0.002,0.811,0.007
				c0.014,0.255,0.014,0.563,0,0.819H3.601c-0.019,0.254-0.003,0.542-0.008,0.81H2.774v-0.81h0.811
				c0.019-0.256,0.003-0.544,0.008-0.812c-0.257-0.019-0.549-0.002-0.818-0.008C2.779,13.857,2.765,13.569,2.781,13.315"/>
			<path fill-rule="evenodd" clip-rule="evenodd" fill="#C4950C" d="M11.305,13.346c0.091,0.416,0.027,1.05,0.047,1.566
				c-0.071-0.074-0.047-0.222-0.047-0.362V13.346z"/>
			<path fill-rule="evenodd" clip-rule="evenodd" fill="#C4950C" d="M12.239,13.384c0.024,0.457-0.056,0.854-0.116,1.274
				c-0.016,0.104-0.018,0.209-0.039,0.293c-0.009,0.037-0.042,0.067-0.045,0.108c-0.007,0.062,0.035,0.148-0.017,0.2
				c-0.038,0.04-0.233,0.06-0.263,0c0.052-0.025,0.141-0.008,0.194-0.054c0.078-0.069,0.073-0.303,0.092-0.439
				C12.106,14.318,12.191,13.807,12.239,13.384"/>
			<path fill-rule="evenodd" clip-rule="evenodd" fill="#C4950C" d="M17.125,13.717c0.011,0.002,0.012,0.013,0.023,0.015
				c0.028,0.121,0.016,0.263,0.016,0.401v0.818c0,0.121,0.02,0.332-0.039,0.371c-0.063,0.042-0.307-0.016-0.393-0.023
				c-0.334-0.034-0.673-0.061-1.021-0.085c-0.058-0.004-0.13,0.002-0.177-0.039c0.427,0.015,0.856,0.049,1.289,0.101
				c0.118,0.014,0.213,0.041,0.271-0.047c0.042-0.063,0.03-0.24,0.03-0.354c0-0.367,0-0.795,0-1.136V13.717z"/>
			<path fill-rule="evenodd" clip-rule="evenodd" fill="#C4950C" d="M8.202,13.909c-0.033,0.021-0.088,0.021-0.124,0.038v1.582
				c-0.065-0.031-0.038-0.121-0.038-0.177v-0.626c0-0.285-0.007-0.603,0.007-0.841C8.099,13.868,8.175,13.877,8.202,13.909"/>
			<path fill-rule="evenodd" clip-rule="evenodd" fill="#C4950C" d="M7.137,14.018c0.061,0.098-0.018,0.169-0.07,0.23
				C7.02,14.304,6.93,14.36,6.913,14.442c-0.015,0.061,0,0.156,0,0.246v1.221c0,0.107,0.025,0.413-0.023,0.462
				c-0.039,0.04-0.126,0.026-0.171-0.007c0.063-0.029,0.119-0.046,0.14-0.108c0.035-0.112,0.008-0.333,0.008-0.471v-0.958
				c0-0.168-0.026-0.35,0.008-0.47c0.018-0.063,0.082-0.115,0.124-0.163c0.042-0.05,0.08-0.11,0.115-0.162
				C7.121,14.021,7.109,13.994,7.137,14.018"/>
			<path fill-rule="evenodd" clip-rule="evenodd" fill="#C4950C" d="M14.339,14.133c-0.024,0.028-0.085,0.016-0.132,0.016h-0.139
				c-0.045,0.182-0.054,0.398-0.093,0.587c-0.004,0.036-0.027-0.023-0.046-0.023c0.02-0.202,0.055-0.388,0.076-0.587
				c-0.002-0.012,0.009-0.013,0.009-0.022H14.2C14.25,14.103,14.335,14.082,14.339,14.133"/>
			<path fill-rule="evenodd" clip-rule="evenodd" fill="#C4950C" d="M14.146,15.013c0.041,0.019,0.06,0.087,0.03,0.132
				c-0.07,0.041-0.167,0.019-0.263,0.023c-0.104,0.004-0.221,0.002-0.324,0.007c-0.088,0.004-0.183,0.031-0.239-0.023
				c0.197-0.085,0.709,0.086,0.787-0.115C14.141,15.029,14.147,15.024,14.146,15.013"/>
			<path fill-rule="evenodd" clip-rule="evenodd" fill="#C4950C" d="M15.334,15.036c0.033,0.018,0.059,0.069,0.047,0.108
				c-0.02,0.066-0.126,0.041-0.192,0.039c-0.148-0.008-0.36-0.009-0.54-0.017c-0.112-0.005-0.232,0.029-0.279-0.037
				c0.153,0,0.397-0.002,0.587,0.007C15.129,15.144,15.309,15.19,15.334,15.036"/>
			<path fill-rule="evenodd" clip-rule="evenodd" fill="#C4950C" d="M13.158,15.044c0.026,0.017,0.052,0.056,0.045,0.093
				c-0.012,0.064-0.091,0.057-0.153,0.062c-0.18,0.013-0.451,0.029-0.656,0.047c-0.072,0.006-0.158,0.029-0.178-0.039
				c0.185-0.007,0.445-0.037,0.656-0.046C13.003,15.154,13.135,15.164,13.158,15.044"/>
			<path fill-rule="evenodd" clip-rule="evenodd" fill="#C4950C" d="M11.514,15.184c0.042,0.021,0.058,0.085,0.03,0.123
				c-0.03,0.042-0.128,0.035-0.216,0.046c-0.164,0.02-0.304,0.048-0.455,0.07c-0.08,0.011-0.164,0.033-0.202-0.023
				c0.155-0.039,0.381-0.061,0.572-0.086C11.372,15.298,11.484,15.294,11.514,15.184"/>
			<path fill-rule="evenodd" clip-rule="evenodd" fill="#C4950C" d="M10.425,15.337c0.036,0.019,0.06,0.064,0.046,0.108
				c-0.018,0.058-0.174,0.07-0.255,0.084c-0.211,0.04-0.374,0.071-0.563,0.109c-0.095,0.019-0.211,0.065-0.254-0.016
				c0.126-0.024,0.291-0.061,0.463-0.094c0.168-0.031,0.348-0.05,0.471-0.084C10.37,15.436,10.424,15.389,10.425,15.337"/>
			<path fill-rule="evenodd" clip-rule="evenodd" fill="#C4950C" d="M9.221,15.585c0.133,0.117-0.031,0.15-0.178,0.186
				c-0.152,0.034-0.333,0.088-0.463,0.015c0.122-0.006,0.223-0.025,0.347-0.054C9.061,15.699,9.194,15.694,9.221,15.585"/>
			<path fill-rule="evenodd" clip-rule="evenodd" fill="#C4950C" d="M7.291,16.187c0.024-0.03,0.071-0.035,0.108-0.047
				c0.179-0.055,0.381-0.116,0.57-0.17c0.127-0.035,0.294-0.041,0.324-0.161c0.043,0.004,0.053,0.031,0.054,0.061
				c0.005,0.096-0.145,0.108-0.23,0.132c-0.208,0.058-0.371,0.104-0.563,0.162C7.461,16.191,7.352,16.26,7.291,16.187"/>
			<path fill-rule="evenodd" clip-rule="evenodd" fill="#C4950C" d="M6.55,16.287c-0.133,0.204-0.425,0.492-0.765,0.347
				c0.343,0.017,0.537-0.184,0.688-0.385C6.501,16.259,6.521,16.277,6.55,16.287"/>
			<path fill-rule="evenodd" clip-rule="evenodd" fill="#C4950C" d="M22.12,16.418c-0.063,0.02-0.19,0.106-0.231,0.008
				C21.978,16.418,22.08,16.299,22.12,16.418"/>
			<path fill-rule="evenodd" clip-rule="evenodd" fill="#A34E24" d="M23.44,16.371c0.115-0.023,0.214,0.021,0.263,0.07
				c0,0.001,0.042,0.037,0.061,0.085c0.065,0.162-0.038,0.357-0.2,0.386c-0.121,0.021-0.265-0.032-0.316-0.162
				c-0.013-0.034-0.04-0.1-0.007-0.209C23.263,16.467,23.341,16.393,23.44,16.371 M23.379,16.456
				c-0.126,0.085-0.11,0.335,0.047,0.387c0.124,0.041,0.251-0.031,0.284-0.124c0.062-0.158-0.073-0.308-0.224-0.293
				C23.435,16.432,23.407,16.438,23.379,16.456"/>
			<path fill-rule="evenodd" clip-rule="evenodd" fill="#A34E24" d="M23.379,16.503c0.126-0.055,0.334,0.046,0.192,0.139
				c0.03,0.04,0.041,0.099,0.085,0.124c-0.019,0.018-0.069,0.002-0.1,0.007c-0.022-0.037-0.036-0.082-0.063-0.115
				c-0.036,0.047,0.024,0.104,0.023,0.115h-0.123c-0.038-0.002,0.016-0.023,0.015-0.038C23.397,16.658,23.438,16.532,23.379,16.503
				 M23.494,16.618c0.048,0.004,0.059-0.1-0.008-0.085C23.49,16.563,23.48,16.603,23.494,16.618"/>
			<path fill-rule="evenodd" clip-rule="evenodd" fill="#C4950C" d="M17.45,15.367c0.426,0.015,0.934,0.243,1.272,0.032
				c0.441-0.273,0.481-1.088,0.511-1.783c0.02-0.476-0.002-0.98-0.069-1.382c-0.024-0.139-0.061-0.265-0.078-0.387
				c0.178,0.499,0.199,1.217,0.186,1.923c-0.006,0.325-0.029,0.66-0.093,0.965c-0.081,0.396-0.242,0.802-0.702,0.803
				c-0.167,0-0.35-0.049-0.525-0.077c-0.09-0.014-0.177-0.025-0.262-0.038C17.606,15.409,17.519,15.407,17.45,15.367"/>
			<path fill-rule="evenodd" clip-rule="evenodd" fill="#C4950C" d="M8.711,13.501c-0.007-0.025-0.04-0.022-0.047-0.047
				c-0.022-0.013,0.013-0.034,0.017-0.039c0.215-0.297,0.344-0.67,0.316-1.228c-0.005-0.101-0.022-0.191-0.047-0.286v-0.015
				C9.146,12.409,9.022,13.209,8.711,13.501"/>
			<path fill-rule="evenodd" clip-rule="evenodd" fill="#C4950C" d="M20.924,13.06c0.366-0.13,0.556-0.602,0.463-1.111
				c0.013-0.025,0.023,0.033,0.03,0.054c0.123,0.368-0.03,0.85-0.262,1.027C21.097,13.073,21.003,13.138,20.924,13.06"/>
			<path fill-rule="evenodd" clip-rule="evenodd" fill="#C4950C" d="M5.986,16.078c-0.001,0.007,0.003,0.007,0.007,0.008
				c-0.036-0.032-0.049-0.104-0.061-0.177c-0.061-0.36-0.055-0.803-0.055-1.221c0-0.486-0.005-0.987,0.031-1.467
				c0.015-0.209,0.031-0.468,0.131-0.633c0.027-0.047,0.094-0.12,0.132-0.038c0.006,0.012,0.02-0.003,0.007,0.015
				c-0.012,0.016-0.031,0.021-0.054,0.047c-0.149,0.169-0.167,0.557-0.186,0.872c-0.017,0.282-0.023,0.581-0.023,0.873
				C5.916,14.975,5.91,15.58,5.986,16.078"/>
			<path fill-rule="evenodd" clip-rule="evenodd" fill="#C4950C" d="M22.22,12.52c0.022-0.016,0.041,0.021,0.063,0.031
				c-0.075,0.271,0.039,0.564,0.093,0.787c0,0.002,0.016,0.063-0.008,0.008c-0.05-0.117-0.055-0.177-0.085-0.293
				C22.245,12.91,22.207,12.739,22.22,12.52"/>
			<path fill-rule="evenodd" clip-rule="evenodd" fill="#A34E24" d="M24.513,14.998h-0.81v-0.812h0.81
				c0.02-0.257,0.003-0.547,0.009-0.818h0.817v0.812c-0.254,0.018-0.542,0.002-0.811,0.007c-0.018,0.253-0.002,0.538-0.007,0.803
				c0.257,0.019,0.548,0.003,0.817,0.009v0.811h-0.817v-0.796C24.522,15.004,24.519,14.999,24.513,14.998"/>
			<path fill-rule="evenodd" clip-rule="evenodd" fill="#C4950C" d="M8.981,15.283c-0.057-0.019-0.038-0.088-0.038-0.132
				c-0.005-0.411,0.02-0.939-0.023-1.313c0.029,0.062,0.055,0.136,0.062,0.209C9.017,14.422,8.955,14.893,8.981,15.283"/>
			<path fill-rule="evenodd" clip-rule="evenodd" fill="#C4950C" d="M21.996,14.874c0.058,0.114,0.069,0.253,0.101,0.386
				c0.031,0.132,0.066,0.263,0.102,0.387C22.11,15.409,22.05,15.145,21.996,14.874"/>
			<path fill-rule="evenodd" clip-rule="evenodd" fill="#C4950C" d="M22.568,16.704c0.745,0.085,0.619-1.027,0.463-1.536
				c0.159,0.359,0.348,1.537-0.224,1.582C22.707,16.759,22.648,16.73,22.568,16.704"/>
			<path fill-rule="evenodd" clip-rule="evenodd" fill="#C4950C" d="M20.6,15.886c0.024,0.025,0.048,0.094,0.015,0.131
				c-0.08,0.029-0.171-0.009-0.254-0.03c-0.077-0.022-0.161-0.049-0.239-0.07c-0.168-0.043-0.346-0.067-0.494-0.124
				c-0.012-0.003-0.021-0.001-0.022-0.015c-0.004,0-0.006,0-0.009,0c0.041-0.011,0.134,0.026,0.209,0.047
				c0.15,0.038,0.289,0.074,0.44,0.115c0.118,0.032,0.231,0.09,0.308,0.015C20.573,15.935,20.571,15.899,20.6,15.886"/>
		</g>
	</g>
</g>
</svg>
