<?xml version="1.0" encoding="utf-8"?>
<!-- Generator: Adobe Illustrator 16.0.0, SVG Export Plug-In . SVG Version: 6.00 Build 0)  -->
<!DOCTYPE svg PUBLIC "-//W3C//DTD SVG 1.1//EN" "http://www.w3.org/Graphics/SVG/1.1/DTD/svg11.dtd">
<svg version="1.1" id="Layer_1" xmlns="http://www.w3.org/2000/svg" xmlns:xlink="http://www.w3.org/1999/xlink" x="0px" y="0px"
	 width="28.112px" height="49.567px" viewBox="0 0 28.112 49.567" enable-background="new 0 0 28.112 49.567" xml:space="preserve">
<pattern  x="-555.442" y="462.802" width="1024" height="2332.091" patternUnits="userSpaceOnUse" id="Unnamed_Pattern" viewBox="0 -2332.091 1024 2332.091" overflow="visible">
	<g>
		<polygon fill="none" points="0,0 1024,0 1024,-2332.091 0,-2332.091 		"/>
		<g>
			<defs>
				<rect id="SVGID_1_" y="-2332.091" width="1024" height="2332.091"/>
			</defs>
			<clipPath id="SVGID_2_">
				<use xlink:href="#SVGID_1_"  overflow="visible"/>
			</clipPath>
			<path clip-path="url(#SVGID_2_)" fill-rule="evenodd" clip-rule="evenodd" fill="#F6901E" d="M569.498-462.802
				c-7.763,0-14.056,6.293-14.056,14.056c0,6.698,4.684,12.301,10.955,13.713c0.801,0.181,0.747,0.773,0.841,1.61l2.26,20.188
				l2.229-19.9c0.091-0.81,0.061-1.718,0.822-1.887c6.297-1.394,11.006-7.009,11.006-13.725
				C583.555-456.509,577.262-462.802,569.498-462.802"/>
			<path clip-path="url(#SVGID_2_)" fill-rule="evenodd" clip-rule="evenodd" fill="#FFFFFF" d="M569.498-436.392
				c6.805,0,12.354-5.55,12.354-12.354c0-6.805-5.55-12.354-12.354-12.354c-6.804,0-12.354,5.55-12.354,12.354
				C557.145-441.941,562.694-436.392,569.498-436.392"/>
			<path clip-path="url(#SVGID_2_)" fill="#221F1F" d="M560.898-449.729c-0.104-0.141-0.177-0.207-0.272-0.258
				c-0.093-0.052-0.207-0.08-0.32-0.08c-0.237,0-0.409,0.117-0.409,0.283c0,0.134,0.078,0.193,0.33,0.251l0.334,0.079
				c0.24,0.059,0.396,0.124,0.503,0.214c0.138,0.117,0.21,0.282,0.21,0.478c0,0.441-0.379,0.737-0.938,0.737
				c-0.309,0-0.581-0.079-0.773-0.23c-0.098-0.072-0.142-0.12-0.245-0.259l0.365-0.258c0.097,0.142,0.189,0.225,0.323,0.282
				c0.107,0.049,0.248,0.076,0.375,0.076c0.262,0,0.432-0.124,0.432-0.313c0-0.154-0.107-0.24-0.383-0.3l-0.3-0.064
				c-0.479-0.104-0.685-0.301-0.685-0.654c0-0.42,0.351-0.71,0.868-0.71c0.277,0,0.516,0.079,0.719,0.245
				c0.076,0.064,0.114,0.103,0.217,0.22L560.898-449.729z"/>
			<path clip-path="url(#SVGID_2_)" fill="#221F1F" d="M562.112-448.861h0.441c0.223,0,0.361-0.033,0.499-0.127
				c0.213-0.141,0.334-0.372,0.334-0.641c0-0.471-0.324-0.757-0.861-0.757h-0.837v2.293h0.424V-448.861z M562.112-449.229v-0.793
				h0.375c0.311,0,0.451,0.121,0.451,0.375c0,0.283-0.158,0.418-0.484,0.418H562.112z"/>
			<path clip-path="url(#SVGID_2_)" fill="#221F1F" d="M564.182-448.943h0.424l0.453,0.85h0.477l-0.503-0.919
				c0.114-0.052,0.155-0.079,0.22-0.131c0.155-0.124,0.238-0.303,0.238-0.509c0-0.169-0.063-0.348-0.165-0.475
				c-0.149-0.184-0.355-0.26-0.693-0.26h-0.874v2.293h0.424V-448.943z M564.182-449.309v-0.713h0.416
				c0.282,0,0.444,0.128,0.444,0.348c0,0.231-0.165,0.365-0.454,0.365H564.182z"/>
			<polygon clip-path="url(#SVGID_2_)" fill="#221F1F" points="566.473,-448.093 566.05,-448.093 566.05,-450.386 566.473,-450.386 
							"/>
			<polygon clip-path="url(#SVGID_2_)" fill="#221F1F" points="568.871,-448.093 568.489,-448.093 567.511,-449.663 
				567.511,-448.093 567.112,-448.093 567.112,-450.386 567.516,-450.386 568.468,-448.837 568.468,-450.386 568.871,-450.386 			
				"/>
			<path clip-path="url(#SVGID_2_)" fill="#221F1F" d="M571.446-448.093h-0.365v-0.196c-0.097,0.082-0.131,0.11-0.196,0.148
				c-0.131,0.071-0.296,0.116-0.458,0.116c-0.616,0-1.063-0.506-1.063-1.201c0-0.72,0.458-1.229,1.104-1.229
				c0.29,0,0.558,0.11,0.744,0.3c0.1,0.106,0.144,0.175,0.22,0.361l-0.396,0.165c-0.11-0.302-0.296-0.447-0.578-0.447
				c-0.386,0-0.637,0.324-0.637,0.823c0,0.509,0.255,0.83,0.653,0.83c0.334,0,0.544-0.2,0.578-0.548h-0.571v-0.372h0.965V-448.093z"
				/>
			<polygon clip-path="url(#SVGID_2_)" fill="#221F1F" points="573.566,-450.008 572.43,-450.008 572.43,-449.43 573.407,-449.43 
				573.407,-449.064 572.43,-449.064 572.43,-448.094 572.006,-448.094 572.006,-450.387 573.566,-450.387 			"/>
			<polygon clip-path="url(#SVGID_2_)" fill="#221F1F" points="574.384,-448.093 573.961,-448.093 573.961,-450.386 
				574.384,-450.386 			"/>
			<polygon clip-path="url(#SVGID_2_)" fill="#221F1F" points="576.604,-450.008 575.399,-450.008 575.399,-449.463 
				576.509,-449.463 576.509,-449.099 575.399,-449.099 575.399,-448.472 576.7,-448.472 576.7,-448.094 574.977,-448.094 
				574.977,-450.387 576.604,-450.387 			"/>
			<polygon clip-path="url(#SVGID_2_)" fill="#221F1F" points="577.555,-448.472 578.501,-448.472 578.501,-448.093 
				577.13,-448.093 577.13,-450.386 577.555,-450.386 			"/>
			<path clip-path="url(#SVGID_2_)" fill="#221F1F" d="M578.841-448.093h0.703c0.282,0,0.492-0.038,0.665-0.124
				c0.326-0.162,0.512-0.531,0.512-1.009c0-0.341-0.086-0.62-0.258-0.823c-0.072-0.086-0.158-0.159-0.254-0.21
				c-0.176-0.097-0.342-0.127-0.665-0.127h-0.703V-448.093z M579.265-448.472v-1.536h0.241c0.544,0,0.754,0.214,0.754,0.765
				c0,0.23-0.031,0.399-0.103,0.53c-0.098,0.18-0.266,0.241-0.651,0.241H579.265z"/>
			<path clip-path="url(#SVGID_2_)" fill="#FFFFFF" d="M291.722-382.833c-1.1,0-2,0.899-2,2v53c0,1.1,0.9,2,2,2h379.5v-57H291.722z"
				/>
		</g>
		<g>
			<defs>
				<rect id="SVGID_3_" y="-2332.091" width="1024" height="2332.091"/>
			</defs>
			<clipPath id="SVGID_4_">
				<use xlink:href="#SVGID_3_"  overflow="visible"/>
			</clipPath>
			<polygon clip-path="url(#SVGID_4_)" fill="#606060" points="613.308,-351.69 610.723,-356 608.137,-351.69 			"/>
			<polygon clip-path="url(#SVGID_4_)" fill="#606060" points="608.137,-350 610.722,-345.691 613.308,-350 			"/>
			<polygon clip-path="url(#SVGID_4_)" fill="#606060" points="455.307,-351.69 452.722,-356 450.136,-351.69 			"/>
			<polygon clip-path="url(#SVGID_4_)" fill="#606060" points="450.137,-350 452.722,-345.691 455.308,-350 			"/>
			<g clip-path="url(#SVGID_4_)">
				<defs>
					<rect id="SVGID_5_" x="697.433" y="-356.423" width="10.823" height="10.823"/>
				</defs>
				<clipPath id="SVGID_6_">
					<use xlink:href="#SVGID_5_"  overflow="visible"/>
				</clipPath>
				<g clip-path="url(#SVGID_6_)">
					<defs>
						<rect id="SVGID_7_" x="697.433" y="-356.423" width="10.823" height="10.823"/>
					</defs>
					<clipPath id="SVGID_8_">
						<use xlink:href="#SVGID_7_"  overflow="visible"/>
					</clipPath>
					<path clip-path="url(#SVGID_8_)" fill="#FFFFFF" d="M705.492-349.896c0.38-0.644,0.6-1.395,0.6-2.198
						c0-2.391-1.938-4.329-4.33-4.329c-2.39,0-4.329,1.938-4.329,4.329c0,2.392,1.939,4.329,4.329,4.329
						c0.804,0,1.555-0.22,2.199-0.6l2.446,2.447c0.424,0.424,1.109,0.424,1.531,0c0.424-0.423,0.424-1.108,0-1.53L705.492-349.896z
						 M705.009-352.095c0,1.79-1.458,3.247-3.247,3.247c-1.79,0-3.245-1.457-3.245-3.247s1.455-3.247,3.245-3.247
						C703.551-355.342,705.009-353.885,705.009-352.095"/>
				</g>
			</g>
			<path clip-path="url(#SVGID_4_)" fill="#FFFFFF" d="M616.022-499.041h-95.45c-0.535,0-0.973,0.438-0.973,0.974v27.771
				c0,0.535,0.438,0.974,0.973,0.974h44.722L568.33-464l3.082-5.323h44.61c0.535,0,0.973-0.438,0.973-0.974v-27.771
				C616.995-498.603,616.558-499.041,616.022-499.041"/>
			<path clip-path="url(#SVGID_4_)" fill="#8C6239" d="M554.822-472.798h-29.525c-1.101,0-2-0.899-2-2v-19.354c0-1.1,0.899-2,2-2
				h29.525c1.1,0,2,0.9,2,2v19.354C556.822-473.697,555.922-472.798,554.822-472.798"/>
			<path clip-path="url(#SVGID_4_)" fill="none" stroke="#F6901E" stroke-width="0.25" stroke-miterlimit="10" d="M614.213-495.187
				c0,1.009-0.818,1.827-1.827,1.827s-1.827-0.818-1.827-1.827s0.818-1.827,1.827-1.827S614.213-496.195,614.213-495.187z"/>
			
				<line clip-path="url(#SVGID_4_)" fill="none" stroke="#F6901E" stroke-width="0.25" stroke-miterlimit="10" x1="611.022" y1="-496.402" x2="613.739" y2="-493.959"/>
			
				<line clip-path="url(#SVGID_4_)" fill="none" stroke="#F6901E" stroke-width="0.25" stroke-miterlimit="10" x1="613.739" y1="-496.402" x2="611.021" y2="-493.959"/>
		</g>
		<text transform="matrix(1 0 0 1 559.9648 -489.1094)"><tspan x="0" y="0" fill="#606060" font-family="'Roboto-Light'" font-size="3">Lo</tspan><tspan x="3.261" y="0" fill="#606060" font-family="'Roboto-Light'" font-size="3">r</tspan><tspan x="4.243" y="0" fill="#606060" font-family="'Roboto-Light'" font-size="3">em Ipsum is simply </tspan></text>
		<text transform="matrix(1 0 0 1 559.9648 -485.5098)" fill="#606060" font-family="'Roboto-Light'" font-size="3">dummy text of the printing</text>
		<text transform="matrix(1 0 0 1 559.9648 -481.9092)"><tspan x="0" y="0" fill="#606060" font-family="'Roboto-Light'" font-size="3">Lo</tspan><tspan x="3.261" y="0" fill="#606060" font-family="'Roboto-Light'" font-size="3">r</tspan><tspan x="4.243" y="0" fill="#606060" font-family="'Roboto-Light'" font-size="3">em Ipsum is simply </tspan></text>
		<text transform="matrix(1 0 0 1 559.9648 -478.3096)" fill="#606060" font-family="'Roboto-Light'" font-size="3">dummy text of the printing</text>
	</g>
</pattern>
<g id="Layer_2">
	<g id="Layer_3">
		<path fill-rule="evenodd" clip-rule="evenodd" fill="url(#Unnamed_Pattern)" d="M14.056,0C6.293,0,0,6.293,0,14.056
			c0,6.698,4.684,12.301,10.955,13.713c0.801,0.181,0.747,0.773,0.841,1.61l2.26,20.188l2.229-19.9
			c0.091-0.81,0.061-1.718,0.822-1.887c6.297-1.394,11.006-7.009,11.006-13.725C28.112,6.293,21.819,0,14.056,0"/>
		<circle fill-rule="evenodd" clip-rule="evenodd" fill="#FFFFFF" cx="14.056" cy="14.083" r="12.344"/>
		<g>
			<path fill="#231F20" d="M14.558,21.63c0-0.07,0.031-0.146,0.07-0.186c0.01-0.009,0.01-0.024,0.002-0.035
				c-0.029-0.038-0.055-0.096-0.055-0.157c0-0.156,0.066-0.261,0.213-0.261c0.076,0,0.125,0.008,0.184,0.019
				c0.012,0.003,0.018,0.015,0.018,0.026v0.116c0,0.016-0.014,0.028-0.027,0.026c-0.043-0.011-0.092-0.02-0.152-0.02
				c-0.063,0-0.084,0.046-0.084,0.096c0,0.053,0.02,0.093,0.068,0.093h0.148c0.012,0,0.023,0.012,0.023,0.026v0.115
				c0,0.014-0.012,0.025-0.023,0.025h-0.148c-0.055,0-0.086,0.05-0.086,0.113c0,0.063,0.025,0.112,0.102,0.112
				c0.066,0,0.123-0.008,0.166-0.019c0.014-0.004,0.027,0.011,0.027,0.026v0.113c0,0.015-0.01,0.025-0.02,0.027
				c-0.049,0.007-0.107,0.019-0.195,0.019C14.638,21.907,14.558,21.8,14.558,21.63"/>
			<path fill="#231F20" d="M7.917,21.893H7.831c-0.018,0-0.031-0.017-0.031-0.037v-0.813c0-0.021,0.014-0.037,0.031-0.037h0.311
				c0.018,0,0.029,0.017,0.029,0.037v0.094c0,0.021-0.012,0.036-0.029,0.036H7.979c-0.018,0-0.031,0.018-0.031,0.037v0.102
				c0,0.019,0.014,0.036,0.031,0.036h0.15c0.018,0,0.031,0.017,0.031,0.037v0.093c0,0.021-0.014,0.037-0.031,0.037h-0.15
				c-0.018,0-0.031,0.017-0.031,0.036v0.305C7.948,21.876,7.935,21.893,7.917,21.893"/>
			<path fill="#231F20" d="M8.739,21.747v0.124c0,0.012-0.006,0.021-0.018,0.021H8.386c-0.01,0-0.018-0.01-0.018-0.021v-0.843
				c0-0.012,0.008-0.021,0.018-0.021h0.113c0.01,0,0.018,0.009,0.018,0.021v0.676c0,0.012,0.006,0.021,0.018,0.021h0.188
				C8.733,21.726,8.739,21.734,8.739,21.747"/>
			<path fill="#231F20" d="M9.212,21.552l-0.063-0.268c0-0.008-0.01-0.008-0.012,0l-0.063,0.268
				c-0.002,0.006,0.004,0.013,0.01,0.013h0.117C9.208,21.564,9.214,21.558,9.212,21.552 M9.028,21.753l-0.027,0.118
				c-0.002,0.012-0.012,0.021-0.023,0.021H8.886c-0.016,0-0.027-0.019-0.023-0.037l0.188-0.813c0.004-0.02,0.02-0.036,0.037-0.036
				H9.2c0.018,0,0.033,0.017,0.037,0.036l0.188,0.813c0.006,0.019-0.006,0.037-0.023,0.037H9.308c-0.008,0-0.02-0.01-0.023-0.021
				l-0.027-0.118c-0.002-0.012-0.012-0.021-0.023-0.021h-0.18C9.044,21.732,9.032,21.741,9.028,21.753"/>
			<path fill="#231F20" d="M9.669,21.893H9.606c-0.02,0-0.037-0.021-0.031-0.047l0.057-0.81c0.002-0.018,0.012-0.03,0.027-0.03
				h0.074c0.014,0,0.021,0.01,0.027,0.022l0.109,0.33c0.008,0.021,0.033,0.021,0.041,0l0.111-0.33
				c0.004-0.013,0.014-0.022,0.025-0.022h0.074c0.016,0,0.027,0.013,0.029,0.03l0.059,0.815c0.002,0.021-0.014,0.041-0.033,0.041
				h-0.064c-0.016,0-0.031-0.015-0.031-0.034l-0.035-0.46c0-0.008-0.01-0.009-0.014-0.001L9.94,21.674
				c-0.006,0.016-0.02,0.027-0.033,0.027H9.876c-0.016,0-0.029-0.012-0.033-0.027l-0.094-0.276
				c-0.002-0.008-0.012-0.007-0.014,0.001L9.7,21.854C9.7,21.876,9.687,21.893,9.669,21.893"/>
			<path fill="#231F20" d="M10.39,21.63c0-0.07,0.031-0.146,0.07-0.186c0.008-0.009,0.008-0.024,0.002-0.035
				c-0.031-0.038-0.055-0.096-0.055-0.157c0-0.156,0.064-0.261,0.213-0.261c0.078,0,0.123,0.008,0.182,0.019
				c0.012,0.003,0.018,0.015,0.018,0.026v0.116c0,0.016-0.012,0.028-0.025,0.026c-0.041-0.011-0.09-0.02-0.152-0.02
				c-0.064,0-0.088,0.046-0.088,0.096c0,0.053,0.023,0.093,0.072,0.093h0.148c0.01,0,0.021,0.012,0.021,0.026v0.115
				c0,0.014-0.012,0.025-0.021,0.025h-0.148c-0.053,0-0.086,0.05-0.086,0.113c0,0.063,0.025,0.112,0.102,0.112
				c0.066,0,0.121-0.008,0.166-0.019c0.012-0.004,0.025,0.011,0.025,0.026v0.113c0,0.015-0.01,0.025-0.02,0.027
				c-0.049,0.007-0.107,0.019-0.193,0.019C10.468,21.907,10.39,21.8,10.39,21.63"/>
			<path fill="#231F20" d="M11.052,21.589v-0.088c0-0.022,0.016-0.039,0.035-0.039h0.256c0.018,0,0.031,0.017,0.031,0.039v0.088
				c0,0.023-0.014,0.039-0.031,0.039h-0.256C11.067,21.628,11.052,21.612,11.052,21.589"/>
			<path fill="#231F20" d="M11.61,21.45c0-0.271,0.082-0.459,0.271-0.459c0.08,0,0.135,0.027,0.17,0.045
				c0.008,0.005,0.014,0.016,0.014,0.024v0.116c0,0.016-0.018,0.028-0.031,0.021c-0.031-0.019-0.072-0.038-0.123-0.038
				c-0.125,0-0.152,0.13-0.152,0.291c0,0.164,0.016,0.29,0.139,0.29c0.008,0,0.021-0.002,0.033-0.007
				c0.012-0.004,0.021-0.019,0.021-0.036v-0.111c0-0.007-0.004-0.013-0.012-0.013h-0.055c-0.006,0-0.014-0.005-0.014-0.014v-0.138
				c0-0.008,0.008-0.015,0.014-0.015h0.195c0.008,0,0.016,0.007,0.016,0.015v0.403c0,0.015-0.01,0.025-0.023,0.027
				c-0.057,0.01-0.123,0.055-0.205,0.055C11.679,21.907,11.61,21.722,11.61,21.45"/>
			<path fill="#231F20" d="M12.472,21.365c0,0.013,0.012,0.024,0.021,0.024h0.074c0.063,0,0.082-0.053,0.082-0.107
				c0-0.058-0.02-0.109-0.082-0.109h-0.074c-0.01,0-0.021,0.012-0.021,0.025V21.365z M12.853,21.841
				c-0.002,0.022-0.016,0.042-0.033,0.05c-0.018,0.009-0.041,0.017-0.068,0.017c-0.041,0-0.084-0.029-0.1-0.086
				c-0.037-0.136-0.031-0.276-0.129-0.276c-0.01,0-0.018,0.001-0.027,0.002c-0.012,0.004-0.023,0.018-0.023,0.035v0.258
				c0,0.029-0.018,0.051-0.043,0.051h-0.063c-0.021,0-0.043-0.021-0.043-0.051v-0.807c0-0.016,0.012-0.027,0.023-0.027h0.227
				c0.152,0,0.225,0.126,0.225,0.276c0,0.088-0.031,0.172-0.084,0.217c-0.006,0.005-0.006,0.016-0.002,0.022
				c0.023,0.037,0.043,0.102,0.059,0.166c0.014,0.042,0.02,0.081,0.049,0.082C12.841,21.771,12.858,21.804,12.853,21.841"/>
			<path fill="#231F20" d="M13.2,21.055v0.79c0,0.026-0.02,0.048-0.043,0.048h-0.066c-0.023,0-0.039-0.021-0.039-0.048v-0.79
				c0-0.026,0.016-0.049,0.039-0.049h0.066C13.181,21.006,13.2,21.028,13.2,21.055"/>
			<path fill="#231F20" d="M13.837,21.76v0.099c0,0.02-0.012,0.034-0.027,0.034h-0.316c-0.016,0-0.027-0.015-0.027-0.034v-0.817
				c0-0.019,0.012-0.035,0.027-0.035h0.092c0.014,0,0.027,0.017,0.027,0.035v0.649c0,0.021,0.014,0.035,0.029,0.035h0.168
				C13.825,21.726,13.837,21.741,13.837,21.76"/>
			<path fill="#231F20" d="M14.399,21.764v0.09c0,0.022-0.016,0.039-0.033,0.039h-0.309c-0.018,0-0.029-0.017-0.029-0.039v-0.808
				c0-0.021,0.012-0.038,0.029-0.038h0.084c0.02,0,0.035,0.017,0.035,0.038v0.642c0,0.021,0.012,0.038,0.029,0.038h0.16
				C14.384,21.726,14.399,21.743,14.399,21.764"/>
			<path fill="#231F20" d="M15.354,21.688c0,0.021,0.016,0.038,0.033,0.038c0.119,0,0.172-0.072,0.172-0.275
				c0-0.205-0.053-0.277-0.172-0.277c-0.018,0-0.033,0.019-0.033,0.038V21.688z M15.206,21.036c0-0.018,0.01-0.03,0.025-0.03h0.16
				c0.242,0,0.314,0.199,0.314,0.444c0,0.244-0.072,0.442-0.314,0.442h-0.16c-0.016,0-0.025-0.014-0.025-0.029V21.036z"/>
			<path fill="#231F20" d="M16.511,21.159c-0.1,0-0.127,0.13-0.127,0.291c0,0.164,0.027,0.29,0.127,0.29
				c0.043,0,0.084-0.018,0.115-0.043c0.008-0.007,0.02,0.002,0.02,0.014v0.129c0,0.01-0.002,0.02-0.012,0.023
				c-0.041,0.025-0.096,0.044-0.152,0.044c-0.174,0-0.246-0.185-0.246-0.457c0-0.271,0.072-0.459,0.246-0.459
				c0.057,0,0.111,0.015,0.154,0.045c0.008,0.005,0.01,0.014,0.01,0.024v0.127c0,0.014-0.012,0.021-0.02,0.014
				C16.593,21.177,16.552,21.159,16.511,21.159"/>
			<path fill="#231F20" d="M16.983,21.893H16.87c-0.008,0-0.016-0.011-0.016-0.021v-0.843c0-0.012,0.008-0.022,0.016-0.022h0.113
				c0.012,0,0.018,0.011,0.018,0.022v0.299c0,0.01,0.01,0.021,0.018,0.021h0.143c0.012,0,0.018-0.011,0.018-0.021v-0.299
				c0-0.012,0.008-0.022,0.018-0.022h0.113c0.01,0,0.018,0.011,0.018,0.022v0.843c0,0.011-0.008,0.021-0.018,0.021h-0.113
				c-0.01,0-0.018-0.011-0.018-0.021v-0.335c0-0.012-0.006-0.021-0.018-0.021h-0.143c-0.008,0-0.018,0.01-0.018,0.021v0.335
				C17.001,21.882,16.995,21.893,16.983,21.893"/>
			<path fill="#231F20" d="M17.743,21.03v0.839c0,0.013-0.01,0.023-0.02,0.023H17.61c-0.008,0-0.018-0.011-0.018-0.023V21.03
				c0-0.013,0.01-0.022,0.018-0.022h0.113C17.733,21.008,17.743,21.018,17.743,21.03"/>
			<path fill="#231F20" d="M18.259,21.159c-0.1,0-0.127,0.13-0.127,0.291c0,0.164,0.027,0.29,0.127,0.29
				c0.041,0,0.078-0.016,0.109-0.038c0.012-0.008,0.025,0.001,0.025,0.019v0.123c0,0.007-0.002,0.015-0.008,0.018
				c-0.043,0.026-0.1,0.046-0.156,0.046c-0.174,0-0.246-0.185-0.246-0.457c0-0.271,0.072-0.459,0.246-0.459
				c0.057,0,0.113,0.015,0.158,0.046c0.004,0.004,0.006,0.012,0.006,0.018v0.125c0,0.017-0.014,0.026-0.025,0.018
				C18.335,21.174,18.298,21.159,18.259,21.159"/>
			<path fill="#231F20" d="M19.114,21.814c0.002,0.039-0.023,0.066-0.035,0.073c-0.02,0.011-0.045,0.02-0.076,0.02
				c-0.041,0-0.086-0.029-0.1-0.086c-0.039-0.137-0.037-0.264-0.123-0.264c-0.004,0-0.006,0-0.012,0.001
				c-0.01,0.002-0.02,0.015-0.02,0.029v0.281c0,0.013-0.008,0.023-0.02,0.023H18.62c-0.01,0-0.02-0.011-0.02-0.023v-0.845
				c0-0.009,0.008-0.019,0.016-0.019h0.119c0.008,0,0.014,0.01,0.014,0.019v0.333c0,0.008,0.01,0.01,0.012,0.004l0.168-0.346
				c0.002-0.006,0.006-0.01,0.014-0.01h0.131c0.014,0,0.02,0.017,0.014,0.028l-0.195,0.401c0.076,0.054,0.102,0.129,0.133,0.252
				c0.012,0.042,0.02,0.082,0.047,0.082C19.093,21.77,19.112,21.778,19.114,21.814"/>
			<path fill="#231F20" d="M19.243,21.63c0-0.072,0.033-0.148,0.072-0.189c0.006-0.008,0.006-0.02,0.002-0.027
				c-0.033-0.039-0.057-0.097-0.057-0.161c0-0.156,0.066-0.261,0.213-0.261c0.078,0,0.127,0.008,0.186,0.021
				c0.008,0.001,0.016,0.011,0.016,0.021v0.126c0,0.013-0.01,0.023-0.023,0.021c-0.043-0.011-0.092-0.021-0.156-0.021
				s-0.088,0.046-0.088,0.096c0,0.053,0.021,0.093,0.07,0.093h0.154c0.01,0,0.018,0.01,0.018,0.022v0.124
				c0,0.011-0.008,0.021-0.018,0.021h-0.154c-0.051,0-0.086,0.05-0.086,0.113c0,0.063,0.027,0.112,0.104,0.112
				c0.07,0,0.127-0.009,0.17-0.02c0.012-0.003,0.02,0.007,0.02,0.021v0.124c0,0.012-0.006,0.021-0.016,0.022
				c-0.047,0.008-0.109,0.02-0.195,0.02C19.321,21.907,19.243,21.8,19.243,21.63"/>
			<path fill="#231F20" d="M20.015,21.893h-0.098c-0.012,0-0.02-0.012-0.02-0.027v-0.843c0-0.008,0.004-0.017,0.012-0.017h0.117
				c0.002,0,0.008,0.004,0.01,0.011l0.178,0.461c0.004,0.007,0.014,0.005,0.014-0.004v-0.451c0-0.008,0.006-0.017,0.012-0.017h0.115
				c0.008,0,0.012,0.009,0.012,0.017v0.843c0,0.016-0.008,0.027-0.021,0.027h-0.1c-0.01,0-0.018-0.005-0.02-0.015l-0.178-0.456
				c-0.002-0.008-0.014-0.005-0.014,0.004v0.439C20.034,21.881,20.026,21.893,20.015,21.893"/>
			<path fill="#231F20" d="M22.81,19.597c0,0.102-0.068,0.186-0.154,0.186c-0.088,0-0.156-0.082-0.156-0.186l0,0
				c0-0.102,0.068-0.186,0.156-0.186C22.741,19.411,22.81,19.492,22.81,19.597L22.81,19.597z M22.655,19.387
				c-0.1,0-0.176,0.096-0.176,0.21l0,0c0,0.113,0.076,0.207,0.176,0.207c0.098,0,0.174-0.094,0.174-0.207v-0.001
				C22.829,19.481,22.753,19.387,22.655,19.387"/>
			<path fill="#231F20" d="M22.62,19.59v-0.074h0.045c0.027,0,0.039,0.013,0.039,0.037c0,0.022-0.012,0.037-0.039,0.037H22.62z
				 M22.737,19.551c0-0.043-0.025-0.071-0.068-0.071h-0.082v0.223h0.033v-0.076h0.041l0.043,0.076h0.039l-0.049-0.085
				C22.72,19.609,22.737,19.587,22.737,19.551"/>
			<path fill="#231F20" d="M10.056,19.35c-0.111-0.061-0.162-0.189-0.148-0.322c0.01-0.128,0.084-0.228,0.186-0.262
				c0.08-0.029,0.215-0.046,0.334,0.016c0.016,0.007,0.025,0.025,0.025,0.045c0.01,0.141,0.031,0.288,0.074,0.417
				c0.008,0.025-0.004,0.059-0.025,0.068C10.415,19.354,10.214,19.437,10.056,19.35 M9.478,19.722
				c0.1,0.123,0.281,0.251,0.521,0.251c0.377,0,0.695-0.281,0.695-0.281c0.176,0.222,0.367,0.28,0.5,0.28
				c0.275,0,0.48-0.143,0.48-0.348c0-0.089-0.045-0.127-0.119-0.127c-0.064,0-0.107,0.049-0.209,0.049
				c-0.152,0-0.182-0.436-0.182-0.773c0-0.34,0.033-0.872,0.047-1.225c0.031-0.891-0.436-1.185-1.035-1.185
				c-0.441,0-0.82,0.399-0.82,0.884c0,0.325,0.137,0.587,0.441,0.587c0.186,0,0.293-0.16,0.293-0.351
				c0-0.192-0.107-0.276-0.219-0.346s-0.111-0.153-0.094-0.209c0.047-0.147,0.146-0.274,0.336-0.274
				c0.176,0,0.443,0.252,0.383,1.034c-0.016,0.19-0.025,0.428-0.031,0.514c0,0.018-0.016,0.028-0.029,0.023
				c0,0-0.146-0.058-0.332-0.058c-0.381,0-0.826,0.317-0.826,0.953C9.278,19.437,9.384,19.608,9.478,19.722"/>
			<path fill="#231F20" d="M21.966,16.929c0.012,0.057,0.018,0.14-0.094,0.208c-0.109,0.07-0.219,0.154-0.219,0.347
				c0,0.19,0.109,0.351,0.293,0.351c0.307,0,0.443-0.263,0.443-0.587c0-0.455-0.295-0.852-0.779-0.876
				c-0.498-0.024-1.006,0.367-1.002,1.184c0.004,0.529,0.285,0.921,0.832,1.263c0.307,0.18,0.455,0.294,0.455,0.505
				c0,0.131-0.057,0.328-0.281,0.328c-0.229,0-0.391-0.16-0.42-0.429c-0.01-0.118-0.084-0.261-0.254-0.261
				c-0.168,0-0.316,0.206-0.205,0.507c0.063,0.161,0.26,0.504,0.881,0.504s0.703-0.555,0.717-0.655
				c0.072-0.493-0.115-0.772-0.373-1.022c-0.371-0.367-0.74-0.506-0.805-0.919c-0.068-0.468,0.184-0.714,0.482-0.714
				C21.829,16.661,21.946,16.832,21.966,16.929"/>
			<path fill="#231F20" d="M17.149,19.005c0.283,0,0.182,0.954-0.594,0.954c-0.527,0-0.846-0.392-0.846-1.232v-1.458
				c0-0.337-0.057-0.356-0.303-0.356c-0.102,0-0.189-0.061-0.189-0.235c0-0.124,0.068-0.214,0.219-0.214
				c0.26,0,0.363-0.1,0.395-0.278c0.115-0.631,0.066-1.402,0.359-1.402c0.271,0,0.217,0.479,0.217,1.356
				c0,0.262,0.055,0.317,0.232,0.317h0.455c0.109,0,0.199,0.073,0.199,0.219c0,0.176-0.092,0.238-0.189,0.238h-0.41
				c-0.252,0-0.271,0.1-0.271,0.269v1.979c0,0.242,0.107,0.335,0.264,0.335C16.995,19.495,16.886,19.005,17.149,19.005"/>
			<path fill="#231F20" d="M12.122,14.31c-0.15,0-0.221,0.097-0.221,0.223c0,0.175,0.088,0.214,0.188,0.244
				c0.051,0.012,0.16,0.019,0.16,0.186c0,0.348,0,4.256,0,4.256c0,0.168-0.109,0.175-0.16,0.188c-0.1,0.029-0.188,0.068-0.188,0.245
				c0,0.124,0.07,0.222,0.221,0.222l0.982-0.001c0.152,0,0.221-0.097,0.221-0.224c0-0.175-0.088-0.213-0.188-0.243
				c-0.053-0.012-0.158-0.019-0.162-0.187c0-0.195,0-3.699,0-4.687c0-0.125-0.066-0.222-0.217-0.222H12.122z"/>
			<path fill="#231F20" d="M14.271,15.914c0.242,0,0.441-0.236,0.441-0.528c0-0.291-0.199-0.527-0.441-0.527
				c-0.248,0-0.445,0.236-0.445,0.527C13.825,15.678,14.022,15.914,14.271,15.914"/>
			<path fill="#231F20" d="M14.526,16.463c0.15,0,0.219,0.099,0.219,0.223c0,0.881,0,2.523,0,2.523
				c0.004,0.151,0.059,0.178,0.201,0.205c0.098,0.022,0.158,0.068,0.158,0.216c0,0.181-0.082,0.241-0.268,0.241h-0.951
				c-0.15,0-0.219-0.097-0.219-0.221c0-0.178,0.088-0.216,0.186-0.245c0.053-0.013,0.162-0.019,0.162-0.187l0.002-2.103
				c0-0.191-0.127-0.174-0.178-0.191c-0.047-0.019-0.17-0.061-0.17-0.239c0-0.178,0.115-0.223,0.258-0.223
				C14.073,16.463,14.526,16.463,14.526,16.463"/>
			<path fill="#231F20" d="M8.388,15.566c0-0.774-0.658-0.983-1.094-0.84c-0.508,0.171-1.1,0.898-1.1,2.474
				c0,0.949,0.439,2.292,1.27,2.292c0.303,0,0.293-0.246,0.293-0.727c0-0.347,0.016-0.451-0.307-0.451
				c-0.098,0-0.188-0.062-0.188-0.237c0-0.125,0.064-0.221,0.219-0.221h1.359c0.15,0,0.221,0.096,0.221,0.221
				c0,0.042,0.035,0.246-0.295,0.246c-0.256,0-0.201,0.151-0.201,0.957c0,0.692,0.059,0.689-1.104,0.689
				c-1.563,0-2.18-1.53-2.18-2.998c0-0.869,0.309-1.642,0.781-2.152c0.57-0.618,1.59-0.739,2.146-0.294
				c0.797,0.635,0.588,2.049,0.041,2.049c-0.246,0-0.41-0.179-0.41-0.394c0-0.335,0.211-0.364,0.35-0.364
				C8.331,15.816,8.388,15.704,8.388,15.566"/>
			<path fill="#231F20" d="M20.091,15.02c-0.135,0-0.277,0.129-0.291,0.355c0,0.554,0.4,0.383,0.4,0.787
				c0,0.177-0.043,0.243-0.059,0.321c-0.016,0.091,0.029,0.144,0.086,0.144c0.287,0,0.385-0.695,0.283-1.115
				C20.423,15.137,20.249,15.02,20.091,15.02"/>
			<path fill="#231F20" d="M18.817,19.542c-0.271,0-0.516-0.333-0.516-1.403c0-0.318,0.033-1.345,0.516-1.345
				s0.551,1.021,0.551,1.34C19.368,19.204,19.091,19.542,18.817,19.542 M18.819,16.363c-0.902,0-1.297,0.843-1.297,1.884
				c0,0.817,0.426,1.726,1.307,1.726c0.879,0,1.307-0.908,1.307-1.726C20.136,17.206,19.722,16.363,18.819,16.363"/>
			<path fill="#231F20" d="M18.923,13.397c-0.016-0.001-0.029,0-0.045,0.002c-0.045,0.008-0.068,0.001-0.045-0.023
				c0.068-0.064,0.148-0.033,0.262-0.025c0.109,0.009,0.17-0.118,0.211-0.115c0.066-0.005,0.141,0.046,0.139,0.002
				c-0.008-0.057-0.068-0.073-0.172-0.175c-0.096-0.093-0.211-0.055-0.381,0.019c-0.168,0.072-0.229,0.066-0.248,0.061
				c-0.021-0.006-0.014-0.034,0.074-0.063c0.135-0.05,0.107-0.188,0.146-0.201c0.037-0.011,0.119-0.059,0.074-0.079
				c-0.098-0.033-0.121,0.001-0.154-0.003c-0.23-0.03-0.359,0.212-0.412,0.293c-0.105,0.162-0.303,0.041-0.719-0.038
				c-0.211-0.037-0.416-0.104-0.561-0.156c-0.02-0.007-0.029-0.029-0.031-0.053c-0.008-0.358-0.213-0.508-0.273-0.545
				c-0.012-0.005-0.014-0.02-0.006-0.027c0.016-0.021,0.043-0.05,0.063-0.073c0.041-0.055-0.459-0.305-1.336-0.145
				c-0.008,0.002-0.016-0.004-0.018-0.013l-0.018-0.072c-0.002-0.011,0.006-0.021,0.014-0.023c0.049-0.007,0.172-0.039,0.186-0.207
				c0.01-0.117-0.02-0.188-0.016-0.267c0.002-0.012,0.012-0.019,0.02-0.016c0.033,0.013,0.121,0.032,0.201-0.038
				c0.008-0.005,0.014-0.004,0.02,0.001c0.027,0.039,0.125,0.149,0.254,0.046c0.006-0.005,0.014-0.002,0.016,0.005
				c0.035,0.063,0.197,0.318,0.402,0.148c0.008-0.006,0.02-0.004,0.023,0.006c0.033,0.06,0.17,0.266,0.43,0.14
				c0.004-0.002,0.008-0.001,0.01,0.001c0.029,0.03,0.189,0.191,0.318,0.083c0.145-0.121-0.008-0.533-0.334-0.92
				c-0.199-0.242-0.299-0.235-0.387-0.259c-0.018-0.005-0.035-0.014-0.051-0.026c-0.023-0.024-0.047-0.065-0.023-0.138
				c0.021-0.07,0.15-0.175,0.207-0.216c0.055-0.04,0.092-0.026,0.154-0.016c0.164,0.025,0.25-0.033,0.287-0.066
				c0.012-0.01,0.025-0.007,0.031,0.006c0.043,0.093,0.186,0.365,0.383,0.387c0.168,0.019,0.254-0.12,0.254-0.284
				c0-0.019-0.014-0.035-0.029-0.035c-0.078,0-0.297-0.017-0.42-0.197c-0.002-0.003,0-0.01,0.004-0.013
				c0.018-0.01,0.061-0.044,0.086-0.115c0.002-0.006,0.004-0.011,0.012-0.011c0.012-0.001,0.043-0.001,0.086,0.01
				c0.066,0.019,0.07-0.142-0.043-0.313c-0.006-0.007-0.006-0.017-0.002-0.022c0.023-0.049,0.096-0.225,0.043-0.451
				c-0.012-0.121,0.098-0.096,0.07-0.313c-0.008-0.089,0.031-0.275,0.064-0.391c0.021-0.073,0.193-0.571-0.004-1.058
				c-0.197-0.488-0.555-0.5-0.707-0.372s-0.227,0.361-0.01,0.757c0.164,0.301,0.088,0.427,0.016,0.435
				c-0.182,0.019-0.094-0.469-0.367-0.647c-0.113-0.074-0.389,0.015-0.375,0.292c0.014,0.278,0.195,0.337,0.197,0.555
				c0.002,0.143-0.191,0.154-0.221-0.094c-0.033-0.247-0.313-0.031-0.27,0.298c0.037,0.199,0.145,0.287,0.26,0.343
				c0.064,0.026-0.074,0.243-0.223,0.349c-0.316,0.226-1.154,0.423-1.949,0.308c-0.188-0.027-0.303,0.267-0.207,0.463
				c0.008,0.013,0.006,0.031-0.01,0.039c-0.063,0.045-0.27,0.17-0.496,0.119c-0.27-0.058-0.518-0.249-0.594-0.324
				c-0.068-0.069-0.02-0.224,0.043-0.365c0.063-0.14,0.385-1.115,0.162-1.982c-0.189-0.741-0.736-1.07-1.23-1.003
				c-0.029,0.004-0.061-0.007-0.084-0.033c-0.199-0.237-1.244-1.398-2.207-0.766c-0.029,0.019-0.064,0.02-0.092,0
				C9.188,5.644,8.44,5.184,7.794,5.59C7.216,5.976,7.249,6.795,7.354,7.16C7.46,7.524,7.677,7.399,7.735,7.34
				c0.229-0.234,0.211-0.336,0.408-0.368c0.297-0.047,0.852,0.567,1.27,1.232c0.412,0.66,0.869,1.428,1.508,1.874
				c0.008,0.005,0.01,0.018,0.004,0.023c-0.049,0.063-0.25,0.326-0.398,0.483c-0.172,0.181-0.047,0.328,0.037,0.367
				c0.105,0.05,0.256,0.074,0.477-0.036c0.004-0.002,0.012-0.001,0.018,0.003c0.014,0.015,0.053,0.043,0.131,0.063
				c0.072,0.017,0.168,0.021,0.291-0.018c0.006-0.001,0.014,0.003,0.018,0.009c0.021,0.037,0.123,0.169,0.373,0.14
				c0.008-0.001,0.014,0.005,0.016,0.013c0.018,0.048,0.086,0.201,0.307,0.201c0.051,0.004-0.027,0.207,0.078,0.433
				c0.002,0.007,0,0.018-0.006,0.021c-0.055,0.044-0.338,0.228-0.734-0.053c-0.088-0.065-0.027,0.206-0.086,0.215
				c-0.057,0.011-0.117-0.144-0.139-0.206c-0.033-0.086-0.215-0.014-0.215,0.485c0,0.02,0.002,0.043,0.002,0.064
				c0.002,0.021-0.012,0.039-0.027,0.043c-0.65,0.131-1.174-0.142-1.209-0.19c-0.033-0.044,0-0.1,0.084-0.127
				c0.164-0.049,0.145-0.271,0.18-0.29c0.039-0.022,0.094-0.057,0.018-0.067c-0.377-0.029-0.377,0.397-0.463,0.341
				c-0.086-0.059-0.037-0.204-0.006-0.239c0.238-0.175,0.135-0.406,0.16-0.447s0.047-0.1-0.033-0.09
				c-0.309,0.057-0.355,0.322-0.357,0.448c-0.002,0.079-0.006,0.162-0.037,0.11c-0.111-0.208-0.021-0.267-0.008-0.515
				c0.01-0.25-0.1-0.283-0.086-0.375c0.018-0.092-0.008-0.153-0.053-0.084c0,0-0.391,0.591,0.131,1.307
				c0.414,0.563,1.369,0.543,1.758,0.508c0.016,0,0.029,0.009,0.037,0.026c0.102,0.229,0.305,0.461,0.699,0.547
				c0.65,0.144,1.498-0.319,1.746-0.428c0.006-0.001,0.01,0,0.016,0.005c0.047,0.066,0.395,0.437,1.195,0.089
				c0.008-0.003,0.02-0.001,0.027,0.007c0.094,0.093,0.727,0.677,1.486,0.677c0.246,0,0.375-0.085,0.42-0.122
				c0.008-0.008,0.021-0.002,0.023,0.011c0.004,0.024,0.012,0.061,0.016,0.096c0.006,0.052,0.135-0.019,0.207-0.3
				c0.006-0.024,0.027-0.038,0.049-0.033c0.33,0.092,0.941,0.244,1.018,0.272c0.098,0.034,0.125,0.152,0.037,0.331
				c-0.088,0.181,0.055,0.386,0.092,0.459c0.037,0.076,0.088,0.113,0.086-0.026c-0.004-0.128,0.084-0.126,0.111-0.19
				c0.08-0.19-0.033-0.252,0.02-0.37c0.078-0.17,0.396-0.09,0.451,0.025c0.055,0.114,0.166,0.184,0.271,0.178
				c0.104-0.005,0.174-0.008,0.215,0.032c0.031,0.032,0.094,0.059,0.074-0.029C19.354,13.513,19.036,13.407,18.923,13.397"/>
			<path fill="#81C241" d="M15.505,11.241c0.023-0.113,0.094-0.216,0.186-0.314c0.121-0.128,0.258-0.23,0.408-0.301
				c0.063-0.029,0.104-0.057,0.076-0.084c-0.105-0.064-0.178-0.166-0.207-0.264c-0.041-0.143-0.037-0.335,0.186-0.354
				c0.096-0.009,0.285-0.013,0.439-0.046c0.035-0.007,0.076-0.022,0.102-0.043c0.061-0.048,0.045-0.074-0.01-0.217
				c-0.037-0.092-0.043-0.225-0.025-0.342c0.004-0.044,0.02-0.113-0.023-0.157C16.46,8.928,16.425,9.281,16.2,9.484
				c-0.559,0.496-1.635,0.461-1.799,0.431c-0.168-0.03-0.277-0.007-0.27,0.141c0.01,0.134,0.107,0.152,0.057,0.32
				c-0.049,0.169-0.01,0.328,0.141,0.423c0.168,0.106,0.008,0.332,0.234,0.434c0.145,0.068,0.139,0.087,0.17,0.181
				s0.049,0.252,0.26,0.154c0.238-0.109,0.215,0.156,0.379,0.143C15.53,11.697,15.448,11.504,15.505,11.241"/>
			<path fill="#E72C2A" d="M16.353,10.794c0,0-0.1,0.009-0.131,0.059c-0.014,0.024-0.006,0.088,0.078,0.075
				c0.332-0.04,0.436,0.128,0.57,0.364c0.137,0.235,0.277,0.414,0.354,0.408c0.051-0.003,0.037-0.124-0.029-0.256
				c-0.141-0.262-0.326-0.482-0.486-0.583C16.55,10.759,16.353,10.794,16.353,10.794"/>
			<path fill="#E72C2A" d="M16.585,11.184c-0.08-0.015-0.01,0.132,0.035,0.208c0.043,0.074,0.129,0.264,0.213,0.264
				S16.751,11.213,16.585,11.184"/>
			<path fill="#E72C2A" d="M16.298,11.214c-0.059,0.03-0.021,0.16,0.037,0.266c0.061,0.106,0.129,0.069,0.129-0.01
				C16.464,11.339,16.372,11.177,16.298,11.214"/>
			<path fill="#FFFFFF" d="M17.353,9.344c0.004-0.067-0.006-0.13,0.061-0.163c0.072-0.036,0.098-0.041,0.109,0.02
				c0,0,0.029,0.214-0.047,0.335C17.397,9.657,17.349,9.475,17.353,9.344"/>
			<path fill="#E72C2A" d="M16.663,10.016c-0.014,0.009-0.029,0.016-0.047,0.021c-0.041,0.017-0.148,0.053-0.225,0.061
				c-0.084,0.008-0.189-0.002-0.207,0.089c-0.018,0.101,0.068,0.162,0.164,0.127c0.08-0.029,0.371-0.259,0.348-0.301
				C16.687,10.003,16.681,10.008,16.663,10.016"/>
			<path fill="#FFFFFF" d="M17.118,9.199c-0.057-0.031-0.092-0.049-0.133-0.062c-0.098-0.043-0.129-0.007-0.148,0.014
				c-0.031,0.038-0.043,0.163-0.029,0.297c0.016,0.146,0.063,0.244,0.178,0.229c0.119-0.016,0.154-0.241,0.168-0.353
				C17.159,9.27,17.157,9.221,17.118,9.199"/>
			<path fill="#FFD600" d="M17.386,9.941c-0.035-0.017-0.17-0.019-0.195-0.011c-0.027,0.01-0.018,0.026-0.01,0.04
				c0.012,0.02,0.037,0.038,0.086,0.041C17.358,10.015,17.417,9.954,17.386,9.941"/>
			<path fill="#FFD600" d="M17.499,9.723c-0.045-0.041-0.08-0.065-0.127-0.087c-0.102-0.047-0.057-0.145-0.111-0.15
				c-0.057-0.007-0.08,0.146-0.078,0.236c0,0.075,0.059,0.1,0.143,0.1c0.098,0,0.15,0.001,0.178,0.004
				C17.534,9.83,17.567,9.786,17.499,9.723"/>
			<path fill="#E72C2A" d="M14.866,11.891c0.127-0.036,0.232-0.021,0.242,0.099c0.016,0.147-0.205,0.444-0.432,0.57
				c-0.193,0.105-0.545,0.259-0.803,0.046c-0.1-0.085,0.129-0.246,0.123-0.36c0-0.057-0.063-0.088-0.152-0.016
				c-0.049,0.04-0.213,0.166-0.502,0.313s-0.758,0.264-0.998,0.315c-0.439,0.093-0.832-0.171-0.83-0.493
				c0-0.182,0.107-0.268,0.426-0.253c0.137,0.007,0.293-0.047,0.387-0.082c0.131-0.049,0.311-0.001,0.422,0.074
				c0.168,0.112,0.227-0.043,0.227-0.043c0.059-0.187-0.195-0.229-0.301-0.276c-0.246-0.109-0.271-0.365-0.125-0.501
				c0.061-0.054,0.197-0.164,0.125-0.251c-0.105-0.126-0.369,0.154-0.49,0.094c-0.096-0.046,0.008-0.184,0.188-0.276
				c0.139-0.074,0.271-0.103,0.422-0.023c0.145,0.08,0.383,0.23,0.443,0.146c0.086-0.122-0.154-0.302-0.258-0.355
				c-0.105-0.052-0.363-0.23-0.74-0.473c-0.359-0.232-0.629,0.021-0.963,0.301c-0.178,0.146-0.357,0.317-0.445,0.264
				c-0.094-0.057,0.027-0.206,0.299-0.459c0.271-0.25,0.57-0.511,0.893-0.437c0.287,0.067,0.74,0.429,0.982,0.559
				c0.182,0.098,0.385,0.276,0.447,0.448c0.041,0.105,0.154,0.106,0.158,0.009c0.004-0.059,0.002-0.179,0.133-0.171
				c0.053,0.002,0.131,0.05,0.156,0.2c0.021,0.149,0.141,0.139,0.191,0.21c0.051,0.072,0.018,0.294,0.178,0.421
				c0.17,0.136,0.172,0.006,0.318,0.292C14.63,11.871,14.739,11.928,14.866,11.891"/>
			<path fill="#E72C2A" d="M11.868,10.309c-0.063-0.051-0.184,0.014-0.262,0.074c-0.141,0.107-0.311,0.259-0.234,0.343
				c0.098,0.103,0.334-0.109,0.467-0.236C11.884,10.444,11.931,10.356,11.868,10.309"/>
			<path fill="#E72C2A" d="M12.288,10.491c0,0-0.082-0.071-0.191-0.002c-0.109,0.067-0.236,0.176-0.271,0.23
				s-0.055,0.146,0.055,0.187c0.107,0.038,0.258-0.11,0.32-0.158C12.265,10.701,12.376,10.577,12.288,10.491"/>
			<path fill="#E72C2A" d="M16.04,11.095c-0.074,0.006-0.107,0.275,0.006,0.275C16.138,11.37,16.114,11.09,16.04,11.095"/>
			<path fill="#E72C2A" d="M10.997,8.158c-0.176-0.348-0.748-1.512-1.648-2.116c-0.902-0.604-1.25-0.369-1.354-0.318
				c-0.082,0.04-0.393,0.237-0.434,0.77C7.517,7.068,7.659,7.008,7.728,6.907c0.068-0.1,0.234-0.385,0.568-0.256
				C8.63,6.778,8.995,7.074,9.413,7.679c0.416,0.602,0.959,1.623,1.527,1.764C11.511,9.58,11.171,8.505,10.997,8.158"/>
			<path fill="#81C241" d="M9.788,6.106c0.285,0.254,0.994,0.956,1.449,2.003c0.189,0.442,0.289,1.062,0.613,1.146
				c0.365,0.095,0.439-0.466,0.248-1.165c-0.191-0.701-0.451-1.38-1.209-1.956c-0.521-0.395-0.898-0.307-1.084-0.212
				C9.743,5.954,9.733,6.058,9.788,6.106"/>
			<path fill="#E72C2A" d="M12.415,9.149c-0.014,0.225,0.188,0.345,0.279,0.114c0.092-0.229,0.314-0.712,0.113-1.6
				c-0.164-0.716-0.666-0.861-0.891-0.852c-0.039,0.002-0.061,0.057-0.039,0.096C12.028,7.16,12.464,7.999,12.415,9.149"/>
			<path fill="#E72C2A" d="M17.524,9.007c-0.1-0.02-0.148,0.056-0.184,0.014c-0.037-0.045,0.002-0.104,0.057-0.104
				c0.053,0,0.115-0.117,0.166-0.073C17.616,8.885,17.599,9.021,17.524,9.007"/>
			<path fill="#E72C2A" d="M17.167,8.928c0.074,0.003,0.09,0.038,0.086,0.068c-0.004,0.022-0.018,0.037-0.033,0.047
				c-0.039,0.02-0.113,0.015-0.244-0.067c-0.158-0.095-0.188-0.03-0.275-0.019c-0.088,0.013-0.094-0.175,0.07-0.22
				C16.935,8.693,17.015,8.92,17.167,8.928"/>
			<path fill="#E72C2A" d="M16.737,12.951c-0.072,0.462-0.49,0.402-0.631,0.375c-0.143-0.025-0.117-0.141-0.066-0.157
				c0.092-0.03,0.105-0.088,0.098-0.115c-0.014-0.042-0.049-0.049-0.098-0.03c-0.244,0.089-0.781-0.262-0.605-0.606
				c0.074-0.146,0.396-0.219,0.855-0.151C16.478,12.292,16.808,12.488,16.737,12.951"/>
			<path fill="#231F20" d="M17.485,9.354c0,0.044-0.023,0.079-0.047,0.078c-0.023-0.002-0.041-0.039-0.041-0.082
				c0.002-0.045,0.023-0.081,0.045-0.08C17.468,9.272,17.487,9.309,17.485,9.354"/>
			<path fill="#231F20" d="M17.04,9.399c-0.006,0.057-0.033,0.1-0.066,0.094c-0.031-0.004-0.051-0.055-0.045-0.111
				c0.008-0.057,0.037-0.1,0.068-0.094S17.048,9.343,17.04,9.399"/>
			<path fill="#E72C2A" d="M16.151,8.449c-0.041,0.018-0.004,0.109,0.023,0.153c0.033,0.052,0.066,0.086,0.09,0.068
				c0.029-0.02,0.012-0.091-0.016-0.136C16.226,8.491,16.183,8.436,16.151,8.449"/>
			<path fill="#E72C2A" d="M16.761,7.978c0.01,0.051,0.021,0.153-0.01,0.16c-0.033,0.01-0.051-0.06-0.082-0.14
				c-0.033-0.081-0.084-0.119-0.119-0.16c-0.037-0.039-0.057-0.101-0.012-0.128c0.029-0.019,0.105-0.012,0.16,0.072
				C16.743,7.852,16.761,7.978,16.761,7.978"/>
			<path fill="#E72C2A" d="M17.216,7.128c-0.078,0.046-0.012,0.192,0.027,0.258c0.043,0.063,0.125,0.178,0.176,0.262
				c0.223,0.362,0.152,0.536,0.223,0.531c0.055-0.004,0.086-0.351-0.02-0.62C17.515,7.291,17.343,7.054,17.216,7.128"/>
		</g>
	</g>
</g>
</svg>
