<?xml version="1.0" encoding="utf-8"?>
<!-- Generator: Adobe Illustrator 16.0.0, SVG Export Plug-In . SVG Version: 6.00 Build 0)  -->
<!DOCTYPE svg PUBLIC "-//W3C//DTD SVG 1.1//EN" "http://www.w3.org/Graphics/SVG/1.1/DTD/svg11.dtd">
<svg version="1.1" id="Layer_1" xmlns="http://www.w3.org/2000/svg" xmlns:xlink="http://www.w3.org/1999/xlink" x="0px" y="0px"
	 width="28.112px" height="49.567px" viewBox="0 0 28.112 49.567" enable-background="new 0 0 28.112 49.567" xml:space="preserve">
<pattern  x="-555.442" y="462.802" width="1024" height="2332.091" patternUnits="userSpaceOnUse" id="Unnamed_Pattern" viewBox="0 -2332.091 1024 2332.091" overflow="visible">
	<g>
		<polygon fill="none" points="0,0 1024,0 1024,-2332.091 0,-2332.091 		"/>
		<g>
			<defs>
				<rect id="SVGID_1_" y="-2332.091" width="1024" height="2332.091"/>
			</defs>
			<clipPath id="SVGID_2_">
				<use xlink:href="#SVGID_1_"  overflow="visible"/>
			</clipPath>
			<path clip-path="url(#SVGID_2_)" fill-rule="evenodd" clip-rule="evenodd" fill="#F6901E" d="M569.498-462.802
				c-7.763,0-14.056,6.293-14.056,14.056c0,6.698,4.684,12.301,10.955,13.713c0.801,0.181,0.747,0.773,0.841,1.61l2.26,20.188
				l2.229-19.9c0.091-0.81,0.061-1.718,0.822-1.887c6.297-1.394,11.006-7.009,11.006-13.725
				C583.555-456.509,577.262-462.802,569.498-462.802"/>
			<path clip-path="url(#SVGID_2_)" fill-rule="evenodd" clip-rule="evenodd" fill="#FFFFFF" d="M569.498-436.392
				c6.805,0,12.354-5.55,12.354-12.354c0-6.805-5.55-12.354-12.354-12.354c-6.804,0-12.354,5.55-12.354,12.354
				C557.145-441.941,562.694-436.392,569.498-436.392"/>
			<path clip-path="url(#SVGID_2_)" fill="#221F1F" d="M560.898-449.729c-0.104-0.141-0.177-0.207-0.272-0.258
				c-0.093-0.052-0.207-0.08-0.32-0.08c-0.237,0-0.409,0.117-0.409,0.283c0,0.134,0.078,0.193,0.33,0.251l0.334,0.079
				c0.24,0.059,0.396,0.124,0.503,0.214c0.138,0.117,0.21,0.282,0.21,0.478c0,0.441-0.379,0.737-0.938,0.737
				c-0.309,0-0.581-0.079-0.773-0.23c-0.098-0.072-0.142-0.12-0.245-0.259l0.365-0.258c0.097,0.142,0.189,0.225,0.323,0.282
				c0.107,0.049,0.248,0.076,0.375,0.076c0.262,0,0.432-0.124,0.432-0.313c0-0.154-0.107-0.24-0.383-0.3l-0.3-0.064
				c-0.479-0.104-0.685-0.301-0.685-0.654c0-0.42,0.351-0.71,0.868-0.71c0.277,0,0.516,0.079,0.719,0.245
				c0.076,0.064,0.114,0.103,0.217,0.22L560.898-449.729z"/>
			<path clip-path="url(#SVGID_2_)" fill="#221F1F" d="M562.112-448.861h0.441c0.223,0,0.361-0.033,0.499-0.127
				c0.213-0.141,0.334-0.372,0.334-0.641c0-0.471-0.324-0.757-0.861-0.757h-0.837v2.293h0.424V-448.861z M562.112-449.229v-0.793
				h0.375c0.311,0,0.451,0.121,0.451,0.375c0,0.283-0.158,0.418-0.484,0.418H562.112z"/>
			<path clip-path="url(#SVGID_2_)" fill="#221F1F" d="M564.182-448.943h0.424l0.453,0.85h0.477l-0.503-0.919
				c0.114-0.052,0.155-0.079,0.22-0.131c0.155-0.124,0.238-0.303,0.238-0.509c0-0.169-0.063-0.348-0.165-0.475
				c-0.149-0.184-0.355-0.26-0.693-0.26h-0.874v2.293h0.424V-448.943z M564.182-449.309v-0.713h0.416
				c0.282,0,0.444,0.128,0.444,0.348c0,0.231-0.165,0.365-0.454,0.365H564.182z"/>
			<polygon clip-path="url(#SVGID_2_)" fill="#221F1F" points="566.473,-448.093 566.05,-448.093 566.05,-450.386 566.473,-450.386 
							"/>
			<polygon clip-path="url(#SVGID_2_)" fill="#221F1F" points="568.871,-448.093 568.489,-448.093 567.511,-449.663 
				567.511,-448.093 567.112,-448.093 567.112,-450.386 567.516,-450.386 568.468,-448.837 568.468,-450.386 568.871,-450.386 			
				"/>
			<path clip-path="url(#SVGID_2_)" fill="#221F1F" d="M571.446-448.093h-0.365v-0.196c-0.097,0.082-0.131,0.11-0.196,0.148
				c-0.131,0.071-0.296,0.116-0.458,0.116c-0.616,0-1.063-0.506-1.063-1.201c0-0.72,0.458-1.229,1.104-1.229
				c0.29,0,0.558,0.11,0.744,0.3c0.1,0.106,0.144,0.175,0.22,0.361l-0.396,0.165c-0.11-0.302-0.296-0.447-0.578-0.447
				c-0.386,0-0.637,0.324-0.637,0.823c0,0.509,0.255,0.83,0.653,0.83c0.334,0,0.544-0.2,0.578-0.548h-0.571v-0.372h0.965V-448.093z"
				/>
			<polygon clip-path="url(#SVGID_2_)" fill="#221F1F" points="573.566,-450.008 572.43,-450.008 572.43,-449.43 573.407,-449.43 
				573.407,-449.064 572.43,-449.064 572.43,-448.094 572.006,-448.094 572.006,-450.387 573.566,-450.387 			"/>
			<polygon clip-path="url(#SVGID_2_)" fill="#221F1F" points="574.384,-448.093 573.961,-448.093 573.961,-450.386 
				574.384,-450.386 			"/>
			<polygon clip-path="url(#SVGID_2_)" fill="#221F1F" points="576.604,-450.008 575.399,-450.008 575.399,-449.463 
				576.509,-449.463 576.509,-449.099 575.399,-449.099 575.399,-448.472 576.7,-448.472 576.7,-448.094 574.977,-448.094 
				574.977,-450.387 576.604,-450.387 			"/>
			<polygon clip-path="url(#SVGID_2_)" fill="#221F1F" points="577.555,-448.472 578.501,-448.472 578.501,-448.093 
				577.13,-448.093 577.13,-450.386 577.555,-450.386 			"/>
			<path clip-path="url(#SVGID_2_)" fill="#221F1F" d="M578.841-448.093h0.703c0.282,0,0.492-0.038,0.665-0.124
				c0.326-0.162,0.512-0.531,0.512-1.009c0-0.341-0.086-0.62-0.258-0.823c-0.072-0.086-0.158-0.159-0.254-0.21
				c-0.176-0.097-0.342-0.127-0.665-0.127h-0.703V-448.093z M579.265-448.472v-1.536h0.241c0.544,0,0.754,0.214,0.754,0.765
				c0,0.23-0.031,0.399-0.103,0.53c-0.098,0.18-0.266,0.241-0.651,0.241H579.265z"/>
			<path clip-path="url(#SVGID_2_)" fill="#FFFFFF" d="M291.722-382.833c-1.1,0-2,0.899-2,2v53c0,1.1,0.9,2,2,2h379.5v-57H291.722z"
				/>
		</g>
		<g>
			<defs>
				<rect id="SVGID_3_" y="-2332.091" width="1024" height="2332.091"/>
			</defs>
			<clipPath id="SVGID_4_">
				<use xlink:href="#SVGID_3_"  overflow="visible"/>
			</clipPath>
			<polygon clip-path="url(#SVGID_4_)" fill="#606060" points="613.308,-351.69 610.723,-356 608.137,-351.69 			"/>
			<polygon clip-path="url(#SVGID_4_)" fill="#606060" points="608.137,-350 610.722,-345.691 613.308,-350 			"/>
			<polygon clip-path="url(#SVGID_4_)" fill="#606060" points="455.307,-351.69 452.722,-356 450.136,-351.69 			"/>
			<polygon clip-path="url(#SVGID_4_)" fill="#606060" points="450.137,-350 452.722,-345.691 455.308,-350 			"/>
			<g clip-path="url(#SVGID_4_)">
				<defs>
					<rect id="SVGID_5_" x="697.433" y="-356.423" width="10.823" height="10.823"/>
				</defs>
				<clipPath id="SVGID_6_">
					<use xlink:href="#SVGID_5_"  overflow="visible"/>
				</clipPath>
				<g clip-path="url(#SVGID_6_)">
					<defs>
						<rect id="SVGID_7_" x="697.433" y="-356.423" width="10.823" height="10.823"/>
					</defs>
					<clipPath id="SVGID_8_">
						<use xlink:href="#SVGID_7_"  overflow="visible"/>
					</clipPath>
					<path clip-path="url(#SVGID_8_)" fill="#FFFFFF" d="M705.492-349.896c0.38-0.644,0.6-1.395,0.6-2.198
						c0-2.391-1.938-4.329-4.33-4.329c-2.39,0-4.329,1.938-4.329,4.329c0,2.392,1.939,4.329,4.329,4.329
						c0.804,0,1.555-0.22,2.199-0.6l2.446,2.447c0.424,0.424,1.109,0.424,1.531,0c0.424-0.423,0.424-1.108,0-1.53L705.492-349.896z
						 M705.009-352.095c0,1.79-1.458,3.247-3.247,3.247c-1.79,0-3.245-1.457-3.245-3.247s1.455-3.247,3.245-3.247
						C703.551-355.342,705.009-353.885,705.009-352.095"/>
				</g>
			</g>
			<path clip-path="url(#SVGID_4_)" fill="#FFFFFF" d="M616.022-499.041h-95.45c-0.535,0-0.973,0.438-0.973,0.974v27.771
				c0,0.535,0.438,0.974,0.973,0.974h44.722L568.33-464l3.082-5.323h44.61c0.535,0,0.973-0.438,0.973-0.974v-27.771
				C616.995-498.603,616.558-499.041,616.022-499.041"/>
			<path clip-path="url(#SVGID_4_)" fill="#8C6239" d="M554.822-472.798h-29.525c-1.101,0-2-0.899-2-2v-19.354c0-1.1,0.899-2,2-2
				h29.525c1.1,0,2,0.9,2,2v19.354C556.822-473.697,555.922-472.798,554.822-472.798"/>
			<path clip-path="url(#SVGID_4_)" fill="none" stroke="#F6901E" stroke-width="0.25" stroke-miterlimit="10" d="M614.213-495.187
				c0,1.009-0.818,1.827-1.827,1.827s-1.827-0.818-1.827-1.827s0.818-1.827,1.827-1.827S614.213-496.195,614.213-495.187z"/>
			
				<line clip-path="url(#SVGID_4_)" fill="none" stroke="#F6901E" stroke-width="0.25" stroke-miterlimit="10" x1="611.022" y1="-496.402" x2="613.739" y2="-493.959"/>
			
				<line clip-path="url(#SVGID_4_)" fill="none" stroke="#F6901E" stroke-width="0.25" stroke-miterlimit="10" x1="613.739" y1="-496.402" x2="611.021" y2="-493.959"/>
		</g>
		<text transform="matrix(1 0 0 1 559.9648 -489.1094)"><tspan x="0" y="0" fill="#606060" font-family="'Roboto-Light'" font-size="3">Lo</tspan><tspan x="3.261" y="0" fill="#606060" font-family="'Roboto-Light'" font-size="3">r</tspan><tspan x="4.243" y="0" fill="#606060" font-family="'Roboto-Light'" font-size="3">em Ipsum is simply </tspan></text>
		<text transform="matrix(1 0 0 1 559.9648 -485.5098)" fill="#606060" font-family="'Roboto-Light'" font-size="3">dummy text of the printing</text>
		<text transform="matrix(1 0 0 1 559.9648 -481.9092)"><tspan x="0" y="0" fill="#606060" font-family="'Roboto-Light'" font-size="3">Lo</tspan><tspan x="3.261" y="0" fill="#606060" font-family="'Roboto-Light'" font-size="3">r</tspan><tspan x="4.243" y="0" fill="#606060" font-family="'Roboto-Light'" font-size="3">em Ipsum is simply </tspan></text>
		<text transform="matrix(1 0 0 1 559.9648 -478.3096)" fill="#606060" font-family="'Roboto-Light'" font-size="3">dummy text of the printing</text>
	</g>
</pattern>
<g id="Layer_2">
	<g id="Layer_3">
		<path fill-rule="evenodd" clip-rule="evenodd" fill="url(#Unnamed_Pattern)" d="M14.056,0C6.293,0,0,6.293,0,14.056
			c0,6.698,4.684,12.301,10.955,13.713c0.801,0.181,0.747,0.773,0.841,1.61l2.26,20.188l2.229-19.9
			c0.091-0.81,0.061-1.718,0.822-1.887c6.297-1.394,11.006-7.009,11.006-13.725C28.112,6.293,21.819,0,14.056,0"/>
		<circle fill-rule="evenodd" clip-rule="evenodd" fill="#FFFFFF" cx="14.056" cy="14.083" r="12.344"/>
		<g>
			<path fill-rule="evenodd" clip-rule="evenodd" fill="#E32726" d="M23.24,11.121c-0.287,0-0.366,0.207-0.366,0.207l0.117,0.243
				l0.084,0.462c0,0,0.148,0.043,0.169,0.021c0.021-0.021,0.186-0.229,0.191-0.286c0.006-0.059,0.006-0.186,0.011-0.218
				s-0.011-0.207-0.011-0.207L23.24,11.121z"/>
			<path fill-rule="evenodd" clip-rule="evenodd" fill="#E32726" d="M4.911,12.645c-0.104,0.217-0.528,0.119-0.707,0.166
				c-0.256,0.067-0.202,0.563-0.225,0.767c-0.026,0.227-0.016,0.732-0.114,0.939c-0.133,0.273-0.729-0.125-0.772-0.291
				c-0.103-0.395,0.136-1.171,0.219-1.575c0.055-0.263,0.137-0.508,0.22-0.764c0.174-0.547-0.4-0.318-0.313-0.633
				c0.039-0.14-0.195-0.59,0.095-0.673c0.244-0.072,0.681,0.112,0.919,0.15c0.458,0.071,0.966,0.011,1.423,0.1
				c0.135,0.027,0.273,0.731-0.012,0.743C5.33,11.589,4.363,11.252,4.3,11.663c-0.048,0.308-0.247,0.452,0.136,0.437
				c0.371-0.015,0.678,0.055,0.476,0.479V12.645z"/>
			<path fill="#231F20" d="M24.821,11.899c0.069,0,0.131,0.026,0.181,0.077c0.049,0.051,0.074,0.109,0.074,0.179
				c0,0.071-0.025,0.132-0.076,0.183c-0.048,0.051-0.109,0.075-0.179,0.075s-0.13-0.024-0.181-0.075
				c-0.049-0.05-0.074-0.111-0.074-0.183c0-0.069,0.024-0.129,0.073-0.179C24.689,11.926,24.751,11.899,24.821,11.899
				 M25.131,12.154c0-0.086-0.031-0.159-0.091-0.219c-0.062-0.061-0.133-0.092-0.22-0.092c-0.081,0-0.152,0.028-0.212,0.084
				c-0.064,0.062-0.097,0.136-0.097,0.227c0,0.088,0.03,0.161,0.089,0.222c0.061,0.06,0.133,0.09,0.22,0.09
				c0.085,0,0.156-0.029,0.218-0.088C25.1,12.316,25.131,12.242,25.131,12.154 M24.877,12.09c0,0.019-0.005,0.033-0.018,0.041
				c-0.013,0.009-0.029,0.013-0.051,0.013h-0.035v-0.101h0.022c0.022,0,0.04,0.003,0.053,0.008
				C24.867,12.059,24.877,12.071,24.877,12.09 M24.773,12.328v-0.124h0.019l0.021,0.001c0.014,0.001,0.024,0.003,0.031,0.006
				c0.013,0.005,0.021,0.013,0.026,0.025c0.002,0.007,0.005,0.021,0.005,0.043c0.002,0.021,0.004,0.037,0.007,0.049h0.085
				l-0.003-0.011c-0.001-0.003-0.001-0.008-0.001-0.01c-0.001-0.004-0.001-0.007-0.001-0.011v-0.031c0-0.035-0.01-0.062-0.03-0.077
				c-0.011-0.008-0.027-0.015-0.05-0.02c0.023-0.002,0.044-0.01,0.06-0.022c0.017-0.013,0.023-0.033,0.023-0.062
				c0-0.039-0.015-0.066-0.046-0.083c-0.018-0.009-0.04-0.016-0.067-0.018c-0.005-0.001-0.028-0.001-0.072-0.001
				c-0.041,0-0.073,0-0.095,0v0.345H24.773z"/>
			<path fill="#231F20" d="M23.385,15.398c0.049,0,0.091,0.019,0.126,0.054c0.034,0.036,0.052,0.078,0.052,0.126
				c0,0.049-0.018,0.091-0.053,0.127c-0.034,0.035-0.076,0.053-0.125,0.053c-0.05,0-0.092-0.018-0.126-0.053
				c-0.035-0.034-0.053-0.078-0.053-0.127c0-0.048,0.018-0.09,0.051-0.126C23.293,15.417,23.334,15.398,23.385,15.398
				 M23.602,15.577c0-0.061-0.021-0.111-0.064-0.153c-0.042-0.043-0.092-0.065-0.153-0.065c-0.057,0-0.106,0.021-0.148,0.061
				c-0.045,0.042-0.067,0.095-0.067,0.158c0,0.062,0.021,0.113,0.062,0.154c0.042,0.042,0.095,0.063,0.154,0.063
				s0.109-0.02,0.151-0.061C23.58,15.691,23.602,15.64,23.602,15.577 M23.424,15.533c0,0.013-0.004,0.022-0.013,0.027
				c-0.009,0.007-0.021,0.009-0.035,0.009h-0.025v-0.07h0.016c0.016,0,0.029,0.002,0.037,0.006
				C23.417,15.51,23.424,15.519,23.424,15.533 M23.351,15.697v-0.086h0.014l0.014,0.001c0.01,0.001,0.019,0.003,0.021,0.004
				c0.01,0.005,0.017,0.009,0.02,0.018c0.002,0.006,0.003,0.016,0.004,0.031c0,0.014,0.002,0.025,0.003,0.032h0.061l-0.002-0.006
				c0-0.003,0-0.005-0.001-0.008c-0.001-0.002-0.001-0.005-0.001-0.007v-0.021c0-0.025-0.007-0.043-0.021-0.054
				c-0.008-0.007-0.02-0.011-0.035-0.015c0.017-0.001,0.03-0.007,0.041-0.016c0.012-0.009,0.018-0.023,0.018-0.043
				c0-0.027-0.011-0.046-0.032-0.059c-0.012-0.006-0.029-0.01-0.048-0.012c-0.003,0-0.02,0-0.05-0.001h-0.066v0.24H23.351z"/>
			<path fill-rule="evenodd" clip-rule="evenodd" fill="#231F20" d="M14.775,12.814c-0.014-0.024-0.054-0.052-0.068-0.076
				c-0.023-0.038-0.146-0.319-0.156-0.337c-0.059-0.105,0.021-0.281-0.007-0.411c-0.01-0.053-0.058-0.09-0.087-0.125
				c-0.045-0.059-0.078-0.144-0.144-0.183c-0.085-0.049-0.396-0.093-0.55-0.068c-0.062,0.011-0.214,0.039-0.263,0.068
				c-0.016,0.011-0.067,0.063-0.08,0.076c-0.025,0.022-0.058,0.267-0.063,0.318c-0.009,0.082-0.003,0.149-0.032,0.212
				c-0.022-0.067-0.084-0.169-0.087-0.175c-0.017-0.029-0.195-0.164-0.219-0.175c-0.027-0.013-0.125-0.081-0.15-0.094
				c-0.037-0.021-0.156-0.024-0.212-0.012c-0.049,0.01-0.099,0.1-0.188,0.068c-0.02-0.007-0.024-0.045-0.037-0.063
				c-0.036-0.047-0.191-0.217-0.243-0.229c-0.149-0.04-0.522-0.06-0.626-0.02c-0.058,0.023-0.104,0.249-0.104,0.356
				c-0.021,0.01-0.065,0.057-0.088,0.025c-0.124-0.176-0.315-0.342-0.294-0.308c-0.047-0.076-0.355-0.051-0.487-0.03
				c-0.04,0.006-0.216-0.016-0.226-0.02c-0.064-0.021-0.156-0.035-0.236-0.024c-0.038,0.005-0.106,0.023-0.138,0.044
				c-0.105,0.067-0.114,0.257-0.218,0.338c-0.019-0.024-0.02-0.053-0.038-0.083c-0.046-0.071-0.146-0.127-0.206-0.187
				c-0.015-0.014-0.032-0.055-0.05-0.063c-0.069-0.03-0.181,0.008-0.251,0.019c-0.116,0.019-0.237-0.014-0.336,0.02
				C8.838,11.695,8.7,12,8.674,12.084c-0.061-0.049-0.104-0.142-0.176-0.176c-0.121-0.057-0.435-0.041-0.574,0
				c-0.016-0.045-0.017-0.103-0.044-0.138c-0.067-0.088-0.182-0.103-0.299-0.143c-0.019-0.008-0.184-0.097-0.2-0.101
				c-0.071-0.018-0.184,0-0.238,0.019c-0.118,0.04-0.141,0.269-0.181,0.388c-0.004,0-0.022-0.003-0.024,0
				c-0.036-0.03-0.07-0.086-0.112-0.106c-0.035-0.016-0.061-0.001-0.101-0.013c-0.018-0.005-0.045-0.044-0.069-0.049
				c-0.075-0.02-0.121-0.008-0.199-0.02c-0.094-0.015-0.174-0.083-0.25-0.112c-0.052-0.021-0.143-0.032-0.199-0.068
				c-0.081-0.052-0.034-0.15-0.057-0.264c-0.018-0.086-0.063-0.171-0.075-0.258c-0.013-0.078-0.002-0.126-0.02-0.203
				c-0.003-0.019-0.046-0.074-0.063-0.082c-0.049-0.021-0.245-0.058-0.279-0.062c-0.106-0.014-0.826,0.016-1.051-0.019
				c-0.13-0.021-0.689-0.106-0.849-0.132c-0.081-0.013-0.18-0.063-0.287-0.05c-0.207,0.026-0.295,0.182-0.256,0.432
				c0.01,0.063,0.087,0.2,0.087,0.2c-0.013,0.055-0.072,0.239-0.032,0.324c0.066,0.16,0.351,0.006,0.313,0.367
				c0,0-0.144,0.409-0.181,0.558c-0.048,0.177-0.085,0.35-0.101,0.537c-0.01,0.113-0.111,0.51-0.119,0.562
				c-0.043,0.276-0.092,0.732-0.024,0.874c0.086,0.182,0.232,0.297,0.394,0.406c0.116,0.078,0.217,0.229,0.456,0.181
				c0.444-0.09,0.339-0.802,0.393-1.28c0.017-0.144-0.02-0.317,0.014-0.438c0.012-0.049,0.097-0.117,0.144-0.131
				c0.113-0.035,0.271-0.026,0.404-0.031c0,0.183,0.034,0.354,0.082,0.5c0.007,0.017,0.037,0.046,0.044,0.062
				c0.119,0.308,0.4,0.644,0.856,0.55c0.183-0.037,0.367-0.087,0.461-0.212c0.019-0.023,0.031-0.072,0.045-0.112
				c0.003,0,0.205,0.192,0.23,0.2c0.068,0.021,0.138-0.036,0.176-0.057c0.126,0.156,0.342,0.464,0.631,0.388
				c0.038-0.011,0.066-0.011,0.087-0.037c0.019-0.026,0.008-0.043,0.019-0.063c0.024-0.049,0.077-0.108,0.1-0.161
				c0.05-0.12,0.064-0.189,0.112-0.294c0.094,0.191,0.295,0.33,0.538,0.367c0.061,0.011,0.169,0.049,0.237,0.007
				c0.048-0.03,0.148-0.238,0.168-0.286c0.011-0.028-0.001-0.051,0.013-0.075c0.008-0.013,0.023-0.006,0.037-0.013
				c0.045,0.075,0.134,0.21,0.206,0.256c0.117,0.073,0.356,0.117,0.55,0.068c0.077-0.02,0.254-0.146,0.301-0.207
				c0.11,0.063,0.191,0.17,0.312,0.22c0.075,0.03,0.233,0.006,0.313-0.007c0.063-0.01,0.104,0.002,0.163-0.012
				c0,0,0.046-0.03,0.049-0.031c0.218-0.05,0.374-0.16,0.494-0.307c0.068,0.019,0.189,0.057,0.188,0.057
				c0.046-0.004,0.107-0.032,0.162-0.013c0.03,0.011,0.1,0.113,0.131,0.138c0.166,0.124,0.448,0.266,0.712,0.162
				c0.091-0.035,0.156-0.074,0.188-0.168c0.045,0.024,0.091,0.071,0.137,0.086c0.228,0.075,0.398-0.131,0.525-0.198
				c0.01,0.038,0.037,0.057,0.05,0.087c0.063,0.155,0.173,0.383,0.344,0.419c0.141,0.028,0.275-0.013,0.4-0.031
				c0.076-0.013,0.127-0.003,0.192-0.025c0.027-0.01,0.131-0.058,0.156-0.068c0.011-0.005,0.022-0.032,0.031-0.039
				c0.183-0.104,0.518-0.443,0.531-0.479c0.003-0.009,0.104-0.132,0.125-0.194c0.026-0.078,0.03-0.252,0.007-0.356
				C14.919,13.171,14.837,12.913,14.775,12.814 M4.863,12.633c-0.114,0.24-0.731-0.031-0.861,0.206
				c-0.031,0.056-0.03,0.154-0.044,0.25c-0.04,0.257-0.061,0.548-0.101,0.824c-0.006,0.045-0.016,0.441-0.062,0.538
				c-0.017,0.033-0.062,0.084-0.101,0.093c-0.127,0.031-0.215-0.057-0.273-0.1c-0.086-0.061-0.255-0.177-0.282-0.281
				c-0.048-0.18,0.021-0.338,0.043-0.487c0.019-0.127,0.099-0.622,0.106-0.73c0,0,0.097-0.471,0.106-0.513
				c0.063-0.254,0.183-0.482,0.225-0.75c0.05-0.315-0.182-0.243-0.343-0.317c0-0.139,0.093-0.206,0.019-0.338
				c-0.016-0.026-0.067-0.054-0.076-0.088c-0.031-0.124,0.05-0.285,0.119-0.305c0.102-0.03,0.209,0.027,0.275,0.036
				c0.2,0.03,0.43,0.08,0.643,0.113c0.435,0.067,0.966,0.017,1.387,0.101c0.014,0.002,0.058,0.022,0.063,0.036
				c0.018,0.048-0.005,0.099,0,0.17c0.007,0.085,0.03,0.141,0.044,0.23c0.043,0.272-0.367,0.175-0.562,0.144
				c0,0-0.51-0.027-0.575-0.037c-0.241-0.038-0.327-0.088-0.368,0.182c-0.016,0.1-0.029,0.204-0.044,0.299
				c-0.007,0.047-0.016,0.155,0,0.2c0.044,0.125,0.679-0.064,0.73,0.137C4.953,12.329,4.884,12.59,4.863,12.633 M4.676,12.015
				c0.022-0.088,0.019-0.183,0.019-0.275c0.201,0.017,0.382,0.037,0.575,0.037c-0.024,0.038-0.057,0.067-0.081,0.102
				c-0.043,0.057-0.094,0.116-0.125,0.181C4.949,12.021,4.823,11.976,4.676,12.015 M14.532,13.438
				c-0.079,0.249-0.417,0.423-0.456,0.45c-0.118,0.083-0.504,0.197-0.655,0.094c-0.146-0.101-0.197-0.388-0.225-0.632
				c-0.085,0.024-0.13,0.129-0.188,0.182c-0.094,0.086-0.188,0.159-0.294,0.238c-0.04,0.029-0.082,0.092-0.137,0.105
				c-0.244,0.063-0.155-0.308-0.237-0.3c-0.035,0.003-0.074,0.053-0.1,0.068c-0.118,0.073-0.305,0.222-0.45,0.244
				c-0.175,0.027-0.366-0.195-0.399-0.318c-0.137,0.016-0.243,0.132-0.438,0.081c-0.062-0.016-0.138-0.109-0.218-0.094
				c-0.03,0.005-0.104,0.116-0.132,0.137c-0.162,0.121-0.498,0.269-0.75,0.15c-0.028-0.013-0.147-0.096-0.162-0.118
				c-0.059-0.093-0.012-0.14-0.118-0.2c-0.116,0.155-0.283,0.325-0.5,0.374c-0.038,0.01-0.087-0.008-0.105-0.012
				c-0.17-0.034-0.191-0.15-0.231-0.313c-0.053-0.206-0.018-0.468,0.03-0.649c0.008-0.027,0.024-0.068-0.012-0.063
				c-0.069,0.01-0.102,0.107-0.138,0.156c-0.166,0.222-0.269,0.475-0.362,0.756c-0.021,0.061-0.035,0.121-0.05,0.175
				c-0.025,0-0.063,0.006-0.088,0c-0.074-0.02-0.352-0.249-0.374-0.319c-0.038-0.115,0.011-0.356,0.036-0.463
				c0.015-0.056,0.164-0.382,0.095-0.398c-0.034-0.008-0.064,0.022-0.075,0.037c-0.02,0.025-0.107,0.149-0.131,0.188
				c-0.025,0.04-0.027,0.077-0.051,0.118c-0.011,0.022-0.127,0.238-0.168,0.338c-0.036,0.086-0.099,0.176-0.119,0.275
				c-0.022,0.111-0.012,0.217-0.05,0.306c-0.004,0.011-0.021,0.043-0.03,0.05c-0.061,0.04-0.314-0.074-0.351-0.094
				c-0.12-0.067,0.001-0.361-0.025-0.475c-0.115,0.038-0.212,0.156-0.324,0.181c-0.249,0.056-0.234-0.206-0.425-0.206
				c-0.075,0.151-0.507,0.549-0.781,0.376c-0.081-0.053-0.12-0.15-0.174-0.232c-0.027-0.04-0.08-0.097-0.106-0.149
				c-0.08-0.158-0.081-0.477-0.05-0.675c0.082-0.529,0.258-1.092,0.842-1.13c0.16-0.011,0.341,0.128,0.456,0.181
				c0.097,0.044,0.234,0.006,0.325,0.044c0.03,0.012,0.034,0.059,0.051,0.088c0.029,0.055,0.094,0.174,0.094,0.174
				c0.013,0.078-0.041,0.186-0.05,0.25c-0.036,0.228-0.111,0.552,0,0.751c0.026,0.047,0.064,0.102,0.137,0.099
				c0.037-0.001,0.078-0.064,0.088-0.095c0.024-0.077,0.041-0.184,0.05-0.262c0.004-0.044,0.016-0.4,0.038-0.536
				c0.016-0.104,0.054-0.229,0.067-0.326c0.021-0.126,0.018-0.253,0.069-0.337c0.003-0.005,0.009-0.023,0.012-0.025
				c0.104-0.036,0.504,0.162,0.52,0.213c0.029,0.099-0.052,0.174-0.063,0.244c0.002,0,0.002,0.087-0.006,0.131
				c-0.019,0.118-0.128,0.313-0.094,0.406c0.021,0.057,0.046,0.039,0.075,0.006c0.149-0.166,0.192-0.426,0.325-0.612
				c0.07-0.099,0.369-0.09,0.462-0.025c0.16,0.114,0.054,0.415,0.025,0.5c-0.026,0.077-0.085,0.239-0.088,0.313
				c-0.003,0.084,0.052,0.079,0.094,0.038c0.052-0.052,0.075-0.135,0.119-0.213c0.102-0.187,0.214-0.399,0.299-0.605
				c0.029-0.07,0.026-0.216,0.088-0.25c0.054-0.031,0.321-0.053,0.4-0.031c0.081,0.021,0.054,0.037,0.087,0.106
				c0.019,0.04,0.108,0.1,0.124,0.162c0.041,0.156-0.108,0.285-0.13,0.395c-0.004,0.013-0.078,0.204-0.106,0.274
				c-0.055,0.13-0.191,0.646,0.012,0.699c0.062,0.016,0.108-0.016,0.138-0.031c0.032-0.019,0.102-0.042,0.112-0.075
				c0.025-0.069-0.017-0.141-0.006-0.213c0.013-0.082,0.036-0.183,0.044-0.262c0.006-0.07,0.117-0.356,0.156-0.438
				c0.032-0.069,0.092-0.148,0.125-0.217c0.023-0.051,0.131-0.334,0.181-0.401c0.008-0.009,0.053-0.041,0.063-0.044
				c0.135-0.034,0.207,0.07,0.331,0.063c0.116-0.007,0.29-0.068,0.425-0.024c0.092,0.029,0.169,0.097,0.219,0.175
				c0.029,0.047,0.094,0.13,0.106,0.175c0.063,0.24-0.003,0.479-0.069,0.662c-0.016,0.042-0.005,0.07-0.031,0.125
				c-0.061,0.129-0.157,0.226-0.206,0.35c-0.02,0.052-0.031,0.082,0.025,0.113c0.155,0.084,0.255,0.062,0.425,0.018
				c-0.064-0.246,0.03-0.534,0.088-0.749c0.009-0.034,0.083-0.496,0.111-0.682c0.013-0.079,0.033-0.158,0.088-0.225
				c0.083-0.013,0.313-0.024,0.419-0.006c0.067,0.012,0.163,0.073,0.181,0.137c0.032,0.127-0.104,0.382-0.132,0.488
				c-0.059,0.227-0.104,0.435-0.161,0.675c-0.022,0.087-0.097,0.203-0.057,0.344c0.004,0.013,0.049,0.07,0.063,0.08
				c0.035,0.022,0.13,0.042,0.175,0.013c0.017-0.011,0.126-0.229,0.144-0.288c0.013-0.039,0.065-0.127,0.087-0.181
				c0.051-0.123,0.061-0.219,0.094-0.349c0.009-0.033,0.055-0.474,0.038-0.601c0.081-0.027,0.159-0.104,0.274-0.056
				c0.065,0.027,0.247,0.123,0.281,0.182c0.017,0.027,0.071,0.125,0.074,0.136c0.01,0.032-0.003,0.068-0.012,0.088
				c-0.018,0.038-0.563,1.167-0.095,0.824c0.063-0.045,0.141-0.122,0.183-0.187c0.087-0.138,0.118-0.242,0.181-0.394
				c0.019-0.045,0.062-0.114,0.075-0.163c0.005-0.021,0.055-0.23,0.068-0.313c0.015-0.095-0.03-0.309,0.044-0.349
				c0.008-0.005,0.116-0.04,0.137-0.044c0.166-0.038,0.409-0.016,0.513,0.044c0,0.301-0.004,0.568,0.063,0.824
				C14.37,12.944,14.663,13.028,14.532,13.438"/>
			<path fill-rule="evenodd" clip-rule="evenodd" fill="#E32726" d="M24.052,12.502c-0.012-0.053-0.03-0.139-0.031-0.144
				c-0.051-0.214,0.131-0.435,0.068-0.618l-0.013-0.014c-0.024-0.018-0.119-0.021-0.162-0.011c-0.048,0.009-0.394,0.136-0.4,0.154
				c-0.023,0.065-0.05,0.294-0.056,0.326c-0.021,0.099-0.021,0.16-0.044,0.248c-0.076,0.29-0.229,0.534-0.399,0.721
				c-0.042,0.044-0.277,0.239-0.356,0.293c-0.092,0.062-0.238,0.183-0.412,0.149c-0.082-0.016-0.212-0.16-0.231-0.237
				c-0.016-0.064,0.001-0.18,0.013-0.225c0.147,0.038,0.29,0.081,0.475,0.043c0.07-0.014,0.148-0.067,0.199-0.105
				c0.072-0.053,0.155-0.105,0.207-0.175c0.178-0.238,0.148-0.586-0.013-0.838c-0.042-0.066-0.09-0.171-0.155-0.212
				c-0.092-0.058-0.309-0.073-0.451-0.063c-0.125,0.01-0.229-0.002-0.312,0.05c-0.01,0.006-0.146,0.129-0.175,0.182
				c-0.004,0.006-0.03,0.061-0.031,0.063c-0.02,0.029-0.178,0.366-0.219,0.567c-0.023,0.109-0.049,0.25-0.069,0.375
				c-0.014,0.095,0.028,0.37,0.007,0.413c-0.031,0.06-0.178,0.102-0.28,0.081c-0.055-0.011-0.189-0.092-0.17-0.176
				c0.005-0.02,0.039-0.034,0.051-0.049c0.031-0.043,0.17-0.339,0.193-0.394c0.055-0.133,0.164-0.546,0.175-0.612
				c0.007-0.047,0.023-0.135,0-0.188c-0.003-0.005-0.143-0.106-0.156-0.112c-0.13-0.053-0.274,0.028-0.318,0.107
				c-0.045,0.082-0.105,0.524-0.119,0.617c-0.053,0.38-0.102,0.727-0.318,0.963c-0.026,0.028-0.087,0.107-0.162,0.081
				c-0.206-0.074,0.208-1.583,0.199-1.643c-0.012-0.091-0.102-0.181-0.181-0.207c-0.167-0.055-0.388,0.086-0.418,0.258
				c-0.022,0.122-0.022,0.246-0.044,0.349c-0.018,0.087-0.068,0.275-0.068,0.275c-0.025,0.094-0.052,0.19-0.063,0.281
				c-0.017,0.133,0.026,0.339-0.025,0.43c-0.045,0.079-0.176,0.029-0.206-0.03c-0.027-0.056,0.002-0.441,0.019-0.55
				c0.006-0.04,0.129-0.482,0.149-0.563c0.008-0.03,0.028-0.093,0.014-0.137c-0.002-0.002-0.021-0.01-0.025-0.012
				c-0.056-0.034-0.108,0.013-0.175,0c-0.046-0.01-0.129-0.043-0.176-0.069c-0.035-0.02-0.107-0.101-0.117-0.112
				c-0.086-0.095-0.171-0.172-0.313-0.194c-0.196-0.029-0.571,0.148-0.631,0.251c-0.218,0.362-0.443,0.981-0.264,1.524
				c0.104,0.312,0.199,0.37,0.22,0.387c0.016,0.013,0.107,0.033,0.099,0.031c0.263,0.068,0.509-0.234,0.656-0.344
				c0.016-0.012,0.036-0.051,0.057-0.057c0.043-0.012,0.063,0.015,0.081,0.025c0.119,0.067,0.192,0.182,0.331,0.212
				c0.246,0.055,0.206-0.219,0.369-0.237c0.046,0.14,0.21,0.419,0.369,0.431c0.174,0.016,0.513-0.377,0.555-0.418
				c0.022-0.021,0.058-0.087,0.087-0.094c0.071-0.017,0.217,0.286,0.475,0.22c0.053-0.015,0.086-0.096,0.125-0.126
				c0.022-0.016,0.04-0.011,0.063-0.025c0.138,0.171,0.317,0.347,0.581,0.388c0.176,0.028,0.448-0.054,0.543-0.118
				c0.049-0.033,0.1-0.091,0.149-0.118c0.018-0.011,0.15-0.156,0.264-0.17c0.016,0.063-0.008,0.123,0,0.207
				c0.019,0.248,0.037,0.508,0.187,0.631c0.193,0.158,0.734-0.186,0.887-0.28c0.161-0.103,0.229-0.314,0.24-0.459
				c0.022-0.283-0.127-0.699-0.215-0.903C24.176,12.78,24.06,12.541,24.052,12.502 M22.152,12.72c0.086-0.25,0.14-0.469,0.25-0.692
				c0.1,0,0.132,0.037,0.168,0.101c0.298,0.501-0.263,0.827-0.274,0.831c-0.06,0.014-0.106-0.017-0.138-0.026
				c-0.034-0.012-0.048-0.012-0.074-0.024C22.105,12.843,22.137,12.765,22.152,12.72 M19.017,13.188
				c-0.033,0.106-0.129,0.322-0.131,0.325c-0.018,0.025-0.095,0.104-0.137,0.101c-0.027-0.004-0.158-0.151-0.17-0.195
				c-0.05-0.195,0.28-1.129,0.356-1.217c0.021-0.025,0.106-0.048,0.149-0.044c0.04,0.003,0.116,0.054,0.125,0.087
				C19.25,12.396,19.017,13.188,19.017,13.188 M23.745,13.727c-0.022,0.07-0.085,0.096-0.144,0.131
				c-0.043,0.024-0.093,0.033-0.138,0c-0.049-0.037-0.062-0.336-0.05-0.406c0.003-0.012,0.025-0.14,0.05-0.144
				c0.011-0.002,0.003-0.09-0.162-0.143c0.157-0.151,0.241-0.384,0.331-0.607c0,0,0.031,0.036,0.031,0.038
				c0.031,0.155,0.005,0.33,0.031,0.494C23.723,13.258,23.809,13.521,23.745,13.727"/>
			<path fill-rule="evenodd" clip-rule="evenodd" fill="#E32726" d="M14.232,11.834c-0.104-0.06-0.347-0.082-0.513-0.044
				c-0.021,0.004-0.129,0.039-0.137,0.044c-0.074,0.04-0.029,0.254-0.044,0.349c-0.013,0.082-0.063,0.292-0.068,0.313
				c-0.014,0.049-0.057,0.118-0.075,0.163c-0.063,0.151-0.094,0.256-0.181,0.394c-0.042,0.064-0.12,0.142-0.183,0.187
				c-0.469,0.343,0.077-0.786,0.095-0.824c0.009-0.02,0.021-0.056,0.012-0.088c-0.003-0.011-0.058-0.108-0.074-0.136
				c-0.034-0.059-0.216-0.154-0.281-0.182c-0.115-0.048-0.193,0.028-0.274,0.056c0.017,0.127-0.029,0.567-0.038,0.601
				c-0.033,0.13-0.043,0.226-0.094,0.349c-0.021,0.054-0.074,0.142-0.087,0.181c-0.018,0.06-0.127,0.277-0.144,0.288
				c-0.045,0.029-0.14,0.01-0.175-0.013c-0.014-0.01-0.059-0.067-0.063-0.081c-0.04-0.14,0.034-0.256,0.057-0.343
				c0.058-0.24,0.103-0.448,0.161-0.675c0.028-0.106,0.164-0.361,0.133-0.488c-0.018-0.063-0.114-0.125-0.182-0.137
				c-0.105-0.019-0.335-0.008-0.419,0.006c-0.056,0.066-0.075,0.146-0.088,0.226c-0.028,0.185-0.103,0.647-0.111,0.681
				c-0.058,0.215-0.152,0.503-0.088,0.749c-0.17,0.044-0.27,0.066-0.425-0.019c-0.057-0.03-0.045-0.061-0.025-0.112
				c0.049-0.125,0.146-0.221,0.206-0.35c0.025-0.055,0.016-0.083,0.031-0.125c0.066-0.184,0.132-0.422,0.069-0.663
				c-0.013-0.044-0.076-0.127-0.106-0.174c-0.05-0.078-0.127-0.146-0.219-0.175c-0.135-0.044-0.309,0.018-0.425,0.024
				c-0.124,0.008-0.196-0.097-0.331-0.063c-0.01,0.003-0.055,0.035-0.063,0.044c-0.05,0.067-0.157,0.351-0.181,0.4
				c-0.033,0.069-0.093,0.148-0.125,0.218c-0.039,0.082-0.15,0.367-0.156,0.438c-0.008,0.079-0.031,0.18-0.044,0.262
				c-0.011,0.072,0.031,0.144,0.006,0.213c-0.011,0.033-0.08,0.057-0.112,0.075c-0.029,0.016-0.076,0.047-0.138,0.031
				c-0.203-0.053-0.066-0.569-0.012-0.699c0.028-0.07,0.103-0.262,0.106-0.274c0.021-0.109,0.171-0.238,0.13-0.395
				c-0.016-0.063-0.105-0.122-0.124-0.162c-0.033-0.069-0.006-0.085-0.087-0.106c-0.079-0.021-0.347,0-0.4,0.031
				c-0.062,0.034-0.059,0.18-0.088,0.25c-0.085,0.206-0.197,0.419-0.299,0.605c-0.044,0.078-0.067,0.161-0.119,0.213
				c-0.042,0.041-0.097,0.046-0.094-0.038c0.003-0.073,0.062-0.235,0.088-0.312c0.028-0.086,0.135-0.387-0.025-0.501
				c-0.093-0.064-0.392-0.073-0.462,0.026c-0.133,0.186-0.176,0.445-0.325,0.611c-0.029,0.033-0.054,0.051-0.075-0.006
				c-0.034-0.093,0.075-0.288,0.094-0.406c0.008-0.044,0.008-0.132,0.007-0.132c0.011-0.069,0.092-0.145,0.063-0.243
				c-0.016-0.051-0.415-0.249-0.519-0.213c-0.004,0.002-0.01,0.021-0.013,0.025c-0.052,0.084-0.049,0.211-0.069,0.337
				c-0.014,0.098-0.052,0.222-0.067,0.326c-0.022,0.136-0.034,0.492-0.038,0.536c-0.009,0.078-0.025,0.185-0.05,0.262
				c-0.01,0.03-0.051,0.094-0.088,0.095c-0.072,0.003-0.11-0.052-0.137-0.099c-0.111-0.2-0.036-0.524,0-0.751
				c0.009-0.064,0.063-0.172,0.05-0.25c0,0-0.063-0.119-0.094-0.174c-0.017-0.029-0.021-0.076-0.05-0.088
				c-0.092-0.038-0.229,0-0.326-0.044c-0.115-0.053-0.296-0.191-0.456-0.181c-0.584,0.038-0.76,0.601-0.842,1.13
				c-0.032,0.198-0.03,0.517,0.05,0.675c0.026,0.053,0.079,0.109,0.105,0.149c0.055,0.082,0.094,0.18,0.175,0.232
				c0.274,0.173,0.706-0.225,0.781-0.376c0.19,0,0.176,0.263,0.425,0.206c0.112-0.024,0.209-0.143,0.324-0.181
				c0.026,0.113-0.095,0.407,0.025,0.475c0.036,0.02,0.29,0.135,0.351,0.094c0.009-0.007,0.026-0.039,0.03-0.05
				c0.038-0.089,0.027-0.194,0.05-0.306c0.021-0.1,0.083-0.189,0.119-0.275c0.041-0.1,0.157-0.315,0.168-0.338
				c0.023-0.041,0.025-0.078,0.051-0.118c0.023-0.038,0.111-0.162,0.131-0.188c0.012-0.015,0.041-0.045,0.075-0.037
				c0.069,0.017-0.08,0.343-0.095,0.398c-0.025,0.106-0.074,0.348-0.036,0.463c0.022,0.07,0.3,0.3,0.374,0.32
				c0.025,0.005,0.063,0,0.088,0c0.015-0.055,0.029-0.115,0.05-0.176c0.094-0.282,0.196-0.534,0.363-0.756
				c0.035-0.049,0.067-0.146,0.137-0.156c0.036-0.006,0.02,0.035,0.012,0.063c-0.048,0.182-0.083,0.443-0.03,0.649
				c0.04,0.162,0.063,0.278,0.231,0.313c0.019,0.004,0.067,0.021,0.105,0.012c0.217-0.049,0.384-0.219,0.5-0.374
				c0.106,0.061,0.06,0.107,0.118,0.2c0.015,0.021,0.134,0.104,0.162,0.118c0.252,0.118,0.588-0.029,0.751-0.15
				c0.027-0.021,0.102-0.132,0.131-0.137c0.081-0.016,0.156,0.078,0.218,0.093c0.194,0.052,0.301-0.064,0.438-0.08
				c0.033,0.123,0.225,0.346,0.399,0.318c0.146-0.022,0.332-0.171,0.449-0.244c0.026-0.017,0.065-0.065,0.101-0.068
				c0.082-0.008-0.007,0.363,0.237,0.3c0.055-0.014,0.097-0.076,0.137-0.105c0.105-0.079,0.2-0.152,0.294-0.238
				c0.06-0.053,0.104-0.157,0.188-0.182c0.027,0.244,0.078,0.531,0.225,0.632c0.151,0.104,0.537-0.011,0.655-0.094
				c0.039-0.027,0.377-0.201,0.456-0.45c0.132-0.41-0.162-0.494-0.237-0.78C14.229,12.402,14.232,12.135,14.232,11.834
				 M6.156,12.477c-0.005,0.035-0.044,0.239-0.056,0.3c-0.026,0.126-0.124,0.471-0.126,0.476c-0.012,0.04-0.084,0.146-0.087,0.149
				c-0.013,0.011-0.05,0.03-0.05,0.031C5.764,13.455,5.722,13.37,5.7,13.332c-0.03-0.054-0.057-0.123-0.069-0.2
				c-0.011-0.073,0.02-0.162,0.025-0.225c0.023-0.235,0.101-0.425,0.176-0.618c0.03-0.081,0.022-0.137,0.056-0.212
				c0.013-0.029,0.071-0.08,0.106-0.087c0.083-0.019,0.18,0.023,0.193,0.074C6.229,12.227,6.173,12.354,6.156,12.477 M10.186,13.551
				c-0.054-0.038-0.063-0.111-0.075-0.193c-0.033-0.21,0.056-0.54,0.124-0.706c0.019-0.042,0.068-0.167,0.068-0.175
				c0.005-0.021,0.047-0.099,0.063-0.124c0.038-0.061,0.101-0.101,0.133-0.17l0.019,0.008c0,0.235-0.028,0.4-0.058,0.599
				c-0.026,0.19,0.079,0.464,0.138,0.581C10.498,13.45,10.386,13.693,10.186,13.551 M10.753,13.046
				c-0.021-0.063-0.018-0.122-0.024-0.207c-0.017-0.214-0.015-0.45,0.056-0.594c0.032,0.024,0.077,0.042,0.094,0.069
				C11.026,12.553,10.908,12.919,10.753,13.046 M13.927,13.601c-0.044,0.027-0.111,0.053-0.2,0.039
				c-0.042-0.008-0.059-0.045-0.088-0.082c-0.022-0.029-0.07-0.059-0.081-0.1c-0.033-0.125,0.085-0.224,0.032-0.326
				c-0.014-0.023-0.11-0.053-0.138-0.086c0.036-0.075,0.209-0.494,0.268-0.494c0.019,0,0.052,0.027,0.063,0.038
				c0.063,0.058,0.072,0.255,0.095,0.361C13.908,13.111,14.128,13.473,13.927,13.601"/>
			<path fill-rule="evenodd" clip-rule="evenodd" fill="#231F20" d="M23.664,12.596c0-0.002-0.031-0.038-0.031-0.038
				c-0.09,0.224-0.174,0.456-0.331,0.607c0.165,0.053,0.173,0.141,0.162,0.143c-0.024,0.005-0.047,0.132-0.05,0.144
				c-0.012,0.07,0.001,0.369,0.05,0.406c0.045,0.033,0.095,0.024,0.138,0c0.059-0.036,0.122-0.062,0.144-0.131
				c0.063-0.205-0.021-0.469-0.05-0.638C23.669,12.926,23.695,12.751,23.664,12.596"/>
			<path fill-rule="evenodd" clip-rule="evenodd" fill="#231F20" d="M13.782,12.589c-0.011-0.01-0.044-0.037-0.062-0.037
				c-0.06,0-0.232,0.419-0.269,0.494c0.027,0.033,0.124,0.063,0.138,0.086c0.053,0.103-0.065,0.201-0.032,0.326
				c0.011,0.041,0.059,0.07,0.081,0.1c0.029,0.037,0.046,0.074,0.088,0.082c0.089,0.014,0.156-0.012,0.2-0.039
				c0.201-0.128-0.018-0.489-0.05-0.649C13.854,12.845,13.847,12.647,13.782,12.589"/>
			<path fill-rule="evenodd" clip-rule="evenodd" fill="#231F20" d="M10.879,12.314c-0.018-0.027-0.063-0.045-0.095-0.069
				c-0.07,0.144-0.072,0.379-0.056,0.594c0.006,0.085,0.004,0.145,0.024,0.207C10.908,12.919,11.026,12.553,10.879,12.314"/>
			<path fill-rule="evenodd" clip-rule="evenodd" fill="#231F20" d="M10.46,12.789c0.028-0.198,0.057-0.363,0.057-0.599
				l-0.019-0.007c-0.033,0.068-0.095,0.108-0.133,0.169c-0.016,0.025-0.058,0.103-0.063,0.124c0,0.008-0.05,0.134-0.067,0.175
				c-0.069,0.166-0.158,0.496-0.125,0.706c0.012,0.082,0.021,0.155,0.075,0.193c0.2,0.143,0.313-0.101,0.411-0.181
				C10.538,13.253,10.433,12.98,10.46,12.789"/>
			<path fill-rule="evenodd" clip-rule="evenodd" fill="#231F20" d="M19.086,12.158c-0.044-0.003-0.129,0.019-0.15,0.044
				c-0.076,0.088-0.406,1.022-0.356,1.217c0.012,0.044,0.143,0.191,0.17,0.195c0.042,0.004,0.119-0.075,0.138-0.101
				c0.001-0.003,0.097-0.219,0.13-0.325c0,0,0.233-0.792,0.193-0.943C19.201,12.212,19.125,12.161,19.086,12.158"/>
			<path fill-rule="evenodd" clip-rule="evenodd" fill="#231F20" d="M22.296,12.959c0.012-0.004,0.572-0.33,0.275-0.831
				c-0.037-0.063-0.069-0.101-0.169-0.101c-0.11,0.224-0.165,0.442-0.249,0.692c-0.017,0.045-0.047,0.123-0.07,0.188
				c0.027,0.013,0.041,0.013,0.075,0.024C22.189,12.942,22.236,12.973,22.296,12.959"/>
			<path fill-rule="evenodd" clip-rule="evenodd" fill="#231F20" d="M5.994,11.99c-0.035,0.007-0.094,0.058-0.106,0.087
				c-0.033,0.075-0.025,0.131-0.056,0.212c-0.075,0.194-0.152,0.383-0.176,0.619c-0.006,0.062-0.036,0.15-0.025,0.225
				c0.013,0.076,0.039,0.146,0.069,0.199c0.021,0.038,0.063,0.123,0.138,0.102c0-0.001,0.037-0.021,0.05-0.032
				c0.003-0.003,0.075-0.109,0.087-0.149c0.002-0.005,0.1-0.35,0.126-0.476c0.012-0.061,0.051-0.265,0.056-0.3
				c0.016-0.122,0.072-0.25,0.031-0.412C6.174,12.014,6.077,11.972,5.994,11.99"/>
			<path fill="#231F20" d="M4.781,15.462c0-0.077-0.018-0.089-0.126-0.089v-0.077c0.049,0.005,0.118,0.009,0.291,0.009
				c0.175,0,0.243-0.004,0.292-0.009v0.077c-0.114,0-0.131,0.012-0.131,0.089v0.747h0.117c0.158,0,0.22-0.071,0.271-0.189
				l0.091,0.011l-0.047,0.255H4.958c-0.177,0-0.251,0.009-0.299,0.009H4.655v-0.077c0.106,0,0.126-0.018,0.126-0.089V15.462z"/>
			<path fill="#231F20" d="M5.919,15.866c0.011-0.165,0.054-0.201,0.103-0.201s0.084,0.043,0.089,0.201H5.919z M6.354,16.074
				c-0.04,0.036-0.117,0.082-0.21,0.082c-0.127,0-0.19-0.11-0.214-0.219h0.133c0.146,0,0.217-0.005,0.325-0.008
				c-0.007-0.188-0.103-0.337-0.347-0.337c-0.208,0-0.399,0.137-0.399,0.378c0,0.23,0.17,0.335,0.367,0.335s0.319-0.101,0.39-0.186
				L6.354,16.074z"/>
			<path fill="#231F20" d="M6.654,16.416c0-0.026,0.016-0.05,0.023-0.076c0.06,0.006,0.117,0.01,0.229,0.014
				c0.181,0.008,0.2,0.021,0.2,0.064c0,0.056-0.09,0.085-0.219,0.085C6.683,16.503,6.654,16.462,6.654,16.416 M6.914,15.865
				c0,0.075-0.015,0.117-0.082,0.117c-0.049,0-0.082-0.091-0.082-0.203c0-0.097,0.028-0.123,0.069-0.123
				C6.87,15.656,6.914,15.711,6.914,15.865 M7.272,15.615c-0.015-0.019-0.041-0.033-0.069-0.033c-0.041,0-0.104,0.041-0.148,0.07
				c-0.019-0.021-0.129-0.06-0.225-0.06c-0.217,0-0.328,0.108-0.328,0.225c0,0.11,0.054,0.175,0.159,0.206
				c-0.076,0.077-0.164,0.137-0.164,0.193c0,0.056,0.052,0.085,0.098,0.106c-0.053,0.028-0.131,0.081-0.131,0.15
				c0,0.073,0.121,0.132,0.336,0.132c0.316,0,0.415-0.128,0.415-0.263c0-0.141-0.104-0.221-0.404-0.221
				c-0.105,0-0.116-0.002-0.116-0.022c0-0.017,0.024-0.046,0.035-0.061c0.035,0.006,0.07,0.009,0.105,0.009
				c0.209,0,0.327-0.086,0.327-0.221c0-0.052-0.02-0.101-0.061-0.133c0.011-0.013,0.027-0.021,0.048-0.021
				c0.024,0,0.038,0.021,0.038,0.054c0.02-0.003,0.037-0.003,0.045-0.003c0.018,0,0.036,0.002,0.047,0.003L7.272,15.615z"/>
			<path fill="#231F20" d="M7.595,15.866c0.012-0.165,0.055-0.201,0.104-0.201s0.083,0.043,0.089,0.201H7.595z M8.029,16.074
				c-0.039,0.036-0.117,0.082-0.21,0.082c-0.125,0-0.189-0.11-0.213-0.219H7.74c0.145,0,0.215-0.005,0.324-0.008
				c-0.006-0.188-0.104-0.337-0.347-0.337c-0.209,0-0.399,0.137-0.399,0.378c0,0.23,0.169,0.335,0.366,0.335
				c0.198,0,0.319-0.101,0.391-0.186L8.029,16.074z"/>
			<path fill="#231F20" d="M8.512,16.128c0,0.084,0.014,0.097,0.071,0.097v0.069c-0.055-0.007-0.134-0.009-0.213-0.009
				s-0.156,0.002-0.237,0.009v-0.069c0.087,0,0.102-0.013,0.102-0.097v-0.357c0-0.065-0.016-0.074-0.099-0.074v-0.069
				c0.127-0.002,0.255-0.014,0.341-0.034L8.5,15.714l0.129-0.089c0.047-0.021,0.091-0.032,0.142-0.032
				c0.106,0,0.207,0.069,0.207,0.213v0.322c0,0.084,0.014,0.097,0.084,0.097v0.069c-0.069-0.007-0.147-0.009-0.228-0.009
				c-0.078,0-0.156,0.002-0.201,0.009v-0.069c0.053,0,0.067-0.013,0.067-0.097v-0.306c-0.002-0.049-0.028-0.08-0.078-0.08
				c-0.03,0-0.066,0.012-0.11,0.038V16.128z"/>
			<path fill="#231F20" d="M9.668,16.125L9.668,16.125c-0.019,0.017-0.055,0.04-0.097,0.04c-0.061,0-0.137-0.05-0.137-0.24
				c0-0.2,0.075-0.246,0.143-0.246c0.035,0,0.074,0.019,0.091,0.049V16.125z M10.031,16.199c-0.06,0-0.097,0-0.097-0.079
				c-0.001-0.435-0.002-0.747,0.007-0.924c-0.113,0.021-0.243,0.031-0.375,0.049v0.067c0.089,0,0.102,0.002,0.102,0.115v0.215
				c-0.035-0.031-0.104-0.05-0.175-0.05c-0.209,0-0.355,0.186-0.355,0.39c0,0.162,0.093,0.322,0.294,0.322
				c0.022,0,0.074-0.006,0.083-0.013l0.164-0.099l0.053,0.111c0.061-0.008,0.097-0.013,0.152-0.02
				c0.067-0.008,0.108-0.013,0.147-0.014V16.199z"/>
			<path fill="#231F20" d="M10.539,16.138c-0.03,0.022-0.057,0.036-0.094,0.036c-0.053,0-0.078-0.034-0.078-0.086
				c0-0.095,0.092-0.147,0.172-0.169V16.138z M10.89,16.168c-0.016,0.006-0.042,0.018-0.063,0.018c-0.019,0-0.023-0.032-0.023-0.069
				c0-0.052,0.005-0.176,0.005-0.243c0-0.227-0.169-0.28-0.34-0.28c-0.108,0-0.221,0.019-0.31,0.083l-0.013,0.157
				c0.026-0.005,0.061-0.006,0.098-0.006s0.071,0.001,0.098,0.006c0.006-0.122,0.048-0.168,0.108-0.168
				c0.06,0,0.089,0.049,0.09,0.186c-0.156,0.029-0.449,0.079-0.449,0.286c0,0.114,0.088,0.169,0.209,0.169
				c0.127,0,0.205-0.049,0.248-0.112c0.029,0.063,0.074,0.112,0.151,0.112c0.073,0,0.165-0.047,0.213-0.074L10.89,16.168z"/>
			<path fill="#231F20" d="M11.33,16.128c0,0.084,0.014,0.097,0.111,0.097v0.069c-0.095-0.007-0.174-0.009-0.253-0.009
				s-0.156,0.002-0.235,0.009v-0.069c0.086,0,0.1-0.013,0.1-0.097v-0.357c0-0.065-0.016-0.074-0.098-0.074v-0.069
				c0.126-0.002,0.255-0.014,0.341-0.034c0.004,0.055,0.017,0.1,0.026,0.127c0.071-0.073,0.151-0.117,0.235-0.117
				c0.022,0,0.063,0.009,0.083,0.022v0.194c-0.025-0.005-0.051-0.007-0.078-0.007c-0.031,0-0.062,0.004-0.093,0.007
				c-0.004-0.052-0.031-0.081-0.05-0.081c-0.016,0-0.043,0.013-0.09,0.067V16.128z"/>
			<path fill="#231F20" d="M11.723,15.742c-0.023-0.051-0.028-0.066-0.081-0.068v-0.069c0.084,0.007,0.168,0.009,0.253,0.009
				c0.062,0,0.121-0.002,0.184-0.009v0.069c-0.057,0.001-0.065,0.016-0.065,0.036c0,0.027,0.033,0.099,0.12,0.336h0.003
				c0.084-0.264,0.103-0.288,0.103-0.326c0-0.022-0.012-0.044-0.07-0.046v-0.069c0.041,0.007,0.084,0.007,0.125,0.007
				s0.081,0,0.124-0.007v0.069c-0.045,0.002-0.066,0.016-0.093,0.086l-0.179,0.472c-0.121,0.318-0.188,0.374-0.348,0.374
				c-0.048,0-0.091-0.008-0.124-0.014v-0.173c0.029,0.002,0.058,0.005,0.086,0.005c0.031,0,0.06-0.003,0.089-0.005
				c0,0.056,0.021,0.069,0.045,0.069c0.066,0,0.126-0.163,0.126-0.215c0-0.04-0.031-0.075-0.104-0.08L11.723,15.742z"/>
			<path fill="#231F20" d="M13.341,15.382c0.133,0,0.194,0.039,0.194,0.189c0,0.148-0.062,0.188-0.194,0.188V15.382z M13.015,16.128
				c0,0.077-0.018,0.089-0.111,0.089v0.077c0.049-0.005,0.116-0.009,0.288-0.009c0.174,0,0.24,0.004,0.289,0.009v-0.077
				c-0.122,0-0.14-0.012-0.14-0.089v-0.291h0.115c0.358,0,0.437-0.141,0.437-0.27c0-0.188-0.123-0.266-0.406-0.266
				c-0.108,0-0.211,0.003-0.333,0.003c-0.168,0-0.224-0.009-0.247-0.009h-0.003v0.077c0.094,0,0.111,0.012,0.111,0.089V16.128z"/>
			<path fill="#231F20" d="M13.935,15.627c0.127-0.002,0.255-0.014,0.382-0.034c-0.003,0.184-0.006,0.387-0.006,0.535
				c0,0.084,0.014,0.097,0.099,0.097v0.069c-0.083-0.007-0.162-0.009-0.241-0.009c-0.078,0-0.155,0.002-0.235,0.009v-0.069
				c0.086,0,0.1-0.013,0.1-0.097v-0.357c0-0.065-0.016-0.074-0.098-0.074V15.627z M14.165,15.243c0.086,0,0.154,0.068,0.154,0.155
				c0,0.085-0.068,0.153-0.154,0.153c-0.085,0-0.153-0.068-0.153-0.153C14.012,15.312,14.08,15.243,14.165,15.243"/>
			<path fill="#231F20" d="M14.987,15.682h-0.154v0.408c0,0.07,0.005,0.09,0.048,0.09s0.084-0.015,0.109-0.029l0.027,0.052
				c-0.074,0.052-0.176,0.104-0.284,0.104c-0.1,0-0.175-0.031-0.175-0.178v-0.446h-0.095v-0.068c0.124,0,0.212-0.104,0.212-0.229
				h0.157v0.229h0.154V15.682z"/>
			<path fill="#231F20" d="M15.864,15.813h0.059c0.104,0,0.189,0.053,0.189,0.198c0,0.146-0.085,0.198-0.189,0.198h-0.059V15.813z
				 M15.539,16.128c0,0.071-0.012,0.089-0.118,0.089v0.077h0.003c0.023,0,0.081-0.009,0.251-0.009c0.085,0,0.229,0.003,0.384,0.003
				c0.274,0,0.385-0.105,0.385-0.274c0-0.197-0.175-0.244-0.33-0.244v-0.003c0.14-0.016,0.297-0.051,0.297-0.228
				c0-0.14-0.089-0.237-0.352-0.237c-0.154,0-0.299,0.003-0.384,0.003c-0.17,0-0.228-0.009-0.251-0.009h-0.003v0.077
				c0.106,0,0.118,0.018,0.118,0.089V16.128z M15.864,15.382h0.047c0.099,0,0.183,0.058,0.183,0.178
				c0,0.119-0.084,0.177-0.183,0.177h-0.047V15.382z"/>
			<path fill="#231F20" d="M16.996,16.138c-0.031,0.022-0.059,0.036-0.096,0.036c-0.051,0-0.078-0.034-0.078-0.086
				c0-0.095,0.093-0.147,0.174-0.169V16.138z M17.345,16.168c-0.016,0.006-0.041,0.018-0.063,0.018
				c-0.018,0-0.023-0.032-0.023-0.069c0-0.052,0.006-0.176,0.006-0.243c0-0.227-0.17-0.28-0.341-0.28
				c-0.109,0-0.223,0.019-0.311,0.083l-0.011,0.157c0.024-0.005,0.06-0.006,0.097-0.006c0.036,0,0.071,0.001,0.097,0.006
				c0.006-0.122,0.049-0.168,0.108-0.168c0.061,0,0.089,0.049,0.092,0.186c-0.158,0.029-0.451,0.079-0.451,0.286
				c0,0.114,0.089,0.169,0.208,0.169c0.128,0,0.205-0.049,0.249-0.112c0.03,0.063,0.074,0.112,0.15,0.112
				c0.074,0,0.166-0.047,0.216-0.074L17.345,16.168z"/>
			<path fill="#231F20" d="M17.785,16.128c0,0.084,0.014,0.097,0.11,0.097v0.069c-0.094-0.007-0.174-0.009-0.253-0.009
				s-0.156,0.002-0.236,0.009v-0.069c0.086,0,0.101-0.013,0.101-0.097v-0.357c0-0.065-0.017-0.074-0.098-0.074v-0.069
				c0.127-0.002,0.255-0.014,0.341-0.034c0.004,0.055,0.017,0.1,0.027,0.127c0.071-0.073,0.15-0.117,0.233-0.117
				c0.023,0,0.065,0.009,0.085,0.022v0.194c-0.026-0.005-0.052-0.007-0.079-0.007c-0.031,0-0.061,0.004-0.093,0.007
				c-0.004-0.052-0.031-0.081-0.049-0.081c-0.016,0-0.045,0.013-0.09,0.067V16.128z"/>
			<rect x="18.157" y="15.841" fill="#231F20" width="0.356" height="0.217"/>
			<path fill="#231F20" d="M19.051,15.813h0.061c0.104,0,0.187,0.053,0.187,0.198c0,0.146-0.083,0.198-0.187,0.198h-0.061V15.813z
				 M18.727,16.128c0,0.071-0.013,0.089-0.118,0.089v0.077h0.003c0.022,0,0.08-0.009,0.25-0.009c0.086,0,0.23,0.003,0.385,0.003
				c0.275,0,0.385-0.105,0.385-0.274c0-0.197-0.176-0.244-0.331-0.244v-0.003c0.141-0.016,0.297-0.051,0.297-0.228
				c0-0.14-0.088-0.237-0.351-0.237c-0.154,0-0.299,0.003-0.385,0.003c-0.17,0-0.228-0.009-0.25-0.009h-0.003v0.077
				c0.105,0,0.118,0.018,0.118,0.089V16.128z M19.051,15.382h0.046c0.101,0,0.184,0.058,0.184,0.178
				c0,0.119-0.083,0.177-0.184,0.177h-0.046V15.382z"/>
			<rect x="19.75" y="15.841" fill="#231F20" width="0.357" height="0.217"/>
			<path fill="#231F20" d="M20.755,15.358c0.142,0,0.18,0.146,0.18,0.437c0,0.291-0.038,0.437-0.18,0.437
				c-0.145,0-0.184-0.146-0.184-0.437C20.571,15.505,20.61,15.358,20.755,15.358 M21.194,16.402
				c-0.152-0.009-0.257-0.036-0.26-0.117c0.213-0.056,0.358-0.222,0.358-0.49c0-0.34-0.231-0.513-0.538-0.513
				c-0.31,0-0.541,0.173-0.541,0.513c0,0.255,0.13,0.415,0.325,0.481c0.071,0.162,0.154,0.203,0.414,0.203
				c0.116,0,0.179-0.004,0.241-0.007V16.402z"/>
			<path fill="#231F20" d="M21.92,15.771c0-0.065-0.021-0.075-0.079-0.075v-0.068c0.102-0.002,0.23-0.014,0.358-0.034
				c0,0.183-0.002,0.352-0.002,0.544c0,0.057,0.016,0.065,0.095,0.065v0.069c-0.13,0.002-0.258,0.014-0.335,0.033l-0.031-0.119
				l-0.13,0.088c-0.046,0.021-0.089,0.031-0.141,0.031c-0.106,0-0.207-0.082-0.207-0.217v-0.317c0-0.065-0.016-0.075-0.084-0.075
				v-0.068c0.112-0.002,0.241-0.014,0.368-0.034c-0.003,0.165-0.007,0.427-0.007,0.493c0,0.041,0.028,0.071,0.078,0.071
				c0.029,0,0.066-0.012,0.116-0.039V15.771z"/>
			<path fill="#231F20" d="M22.633,15.866c0.011-0.165,0.054-0.201,0.102-0.201c0.049,0,0.083,0.043,0.089,0.201H22.633z
				 M23.066,16.074c-0.04,0.036-0.117,0.082-0.21,0.082c-0.126,0-0.19-0.11-0.213-0.219h0.133c0.145,0,0.216-0.005,0.324-0.008
				c-0.006-0.188-0.104-0.337-0.347-0.337c-0.208,0-0.399,0.137-0.399,0.378c0,0.23,0.171,0.335,0.368,0.335
				c0.196,0,0.317-0.101,0.389-0.186L23.066,16.074z"/>
			<path fill-rule="evenodd" clip-rule="evenodd" fill="#231F20" d="M24.583,13.146c-0.01-0.034-0.095-0.262-0.128-0.342
				c-0.021-0.052-0.068-0.116-0.092-0.172c-0.013-0.029-0.082-0.181-0.093-0.244c-0.021-0.131,0.011-0.277,0.031-0.361
				c0.022-0.096,0.168-0.258,0.08-0.397c-0.03-0.047-0.091-0.05-0.147-0.067c-0.171-0.055-0.501-0.036-0.674,0.024
				c0-0.25-0.149-0.547-0.373-0.582c-0.072-0.011-0.167,0.002-0.22,0.024c-0.09,0.037-0.352,0.259-0.324,0.361l0.017,0.06
				c0.028,0.108,0.087,0.021,0.129,0.088c0.04,0.061,0.044,0.164,0.044,0.257c-0.004,0-0.021-0.003-0.024,0
				c-0.021-0.044-0.029-0.04-0.073-0.062c-0.102-0.049-0.213-0.084-0.337-0.104s-0.234,0.024-0.354,0.005
				c-0.033-0.004-0.1-0.016-0.142-0.005c-0.21,0.047-0.255,0.227-0.398,0.324c-0.115-0.092-0.319-0.187-0.52-0.104
				c-0.072,0.028-0.138,0.077-0.221,0.104c-0.017-0.021-0.029-0.058-0.049-0.073c-0.093-0.08-0.404-0.159-0.587-0.104
				c-0.052,0.015-0.173,0.072-0.222,0.104c-0.056,0.034-0.093,0.16-0.159,0.178c-0.046,0.01-0.082-0.019-0.11-0.025
				c-0.12-0.025-0.207-0.081-0.28-0.152c-0.021-0.021-0.038-0.06-0.062-0.074c-0.33-0.208-0.765-0.145-1.04,0.079
				c-0.144-0.429-0.725-1.576-2.605-1.063c-0.129,0.037-0.354,0.012-0.438,0.048c-0.057,0.023-0.089,0.036-0.156,0.073
				c-0.025,0.014-0.072,0.047-0.089,0.066c-0.053,0.066,0.009,0.233-0.019,0.343c-0.011,0.044-0.039,0.065-0.055,0.11
				c-0.059,0.174,0.001,0.321,0.055,0.453c0.033,0.079,0.151,0.339,0.227,0.354c0.061,0.014,0.172,0.007,0.258,0.007
				c-0.02,0.074-0.044,0.128-0.062,0.184c-0.009,0.029-0.115,0.356-0.116,0.361c-0.047,0.277-0.094,0.569-0.141,0.869
				c-0.03,0.192-0.138,0.407-0.074,0.648c0.022,0.085,0.092,0.177,0.153,0.227c0.01,0.008,0.05,0.054,0.062,0.062
				c0.111,0.078,0.456,0.344,0.655,0.3c0.065-0.016,0.164-0.092,0.201-0.141c0.011-0.015,0.008-0.043,0.025-0.048
				c0.047-0.017,0.455,0.171,0.52,0.183c0.124,0.021,0.263,0.009,0.361-0.03c0.145-0.059,0.227-0.19,0.343-0.276
				c0.236-0.176,0.427-0.366,0.612-0.593c0.033,0.056,0.088,0.096,0.134,0.14c0.235,0.229,0.543,0.313,0.889,0.11
				c0.067-0.04,0.166-0.127,0.214-0.188c0.013-0.019,0.017-0.055,0.036-0.062c0.007-0.003,0.212,0.181,0.324,0.202
				c0.075,0.014,0.197,0.004,0.245-0.02c0.023-0.011,0.046-0.06,0.092-0.048c0.022,0.005,0.049,0.059,0.067,0.072
				c0.105,0.079,0.271,0.202,0.49,0.154c0.214-0.048,0.475-0.249,0.569-0.417c0.111,0,0.228,0.047,0.367,0.019
				c0.02-0.005,0.057-0.043,0.099-0.025c0.001,0.001,0.073,0.091,0.208,0.19c0.175,0.132,0.452,0.222,0.776,0.171
				c0.084-0.013,0.216-0.073,0.306-0.104c0.056,0.211,0.166,0.341,0.301,0.472c0.104,0.101,0.297,0.23,0.533,0.171
				c0.027-0.007,0.271-0.087,0.337-0.121c0.011-0.008,0.286-0.155,0.348-0.203c0.048-0.037,0.211-0.215,0.22-0.226
				c0.03-0.041,0.076-0.135,0.087-0.166C24.693,13.883,24.652,13.412,24.583,13.146 M17.662,13.713c-0.016,0.03-0.1,0.155-0.132,0.2
				c-0.018,0.025-0.338,0.336-0.506,0.444c-0.03,0.019-0.154,0.099-0.187,0.117c-0.071,0.04-0.154,0.103-0.245,0.12
				c-0.161,0.03-0.453-0.005-0.556-0.069c-0.037-0.023-0.077-0.09-0.125-0.1c-0.134-0.027-0.082,0.21-0.287,0.169
				c-0.001-0.001-0.035-0.025-0.037-0.025c-0.123-0.049-0.253-0.116-0.325-0.23c0-0.001-0.025-0.013-0.025-0.014
				c-0.091-0.229,0.057-0.531,0.089-0.736c0.027-0.179,0.04-0.325,0.063-0.487c0.012-0.097,0.047-0.21,0.055-0.313
				c0.008-0.085,0.087-0.367,0.107-0.431c0.048-0.156,0.245-0.524,0.175-0.712c-0.009-0.021-0.011-0.042-0.025-0.051
				c-0.186-0.101-0.451,0.133-0.612,0.087c-0.028-0.006-0.066-0.014-0.075-0.036c-0.044-0.124,0.072-0.256,0.082-0.313
				c0.016-0.108-0.011-0.199,0.037-0.269c0.04-0.06,0.197-0.062,0.294-0.075c0.005-0.001,0.26-0.03,0.375-0.056
				c0.451-0.102,1-0.002,1.092,0.005c0.281,0.025,0.702,0.415,0.7,0.42c0.104,0.088,0.194,0.255,0.249,0.387
				C18.103,12.379,17.903,13.24,17.662,13.713 M23.064,11.228c0.028-0.021,0.064-0.065,0.1-0.074
				c0.053-0.015,0.089,0.011,0.113,0.025c0.207,0.116,0.064,0.698-0.076,0.786c-0.089,0.045-0.109-0.043-0.099-0.038
				c0.002,0.001,0.036-0.095,0.037-0.1c0.022-0.143-0.04-0.317-0.095-0.388c-0.02-0.026-0.079-0.043-0.087-0.08
				C22.947,11.298,23.022,11.256,23.064,11.228 M24.397,13.699c-0.011,0.145-0.08,0.356-0.24,0.459
				c-0.152,0.095-0.693,0.438-0.887,0.279c-0.149-0.122-0.168-0.381-0.187-0.63c-0.008-0.084,0.016-0.144,0-0.207
				c-0.113,0.014-0.246,0.159-0.264,0.169c-0.05,0.028-0.1,0.086-0.149,0.118c-0.095,0.064-0.367,0.146-0.543,0.119
				c-0.264-0.041-0.443-0.217-0.581-0.388c-0.023,0.014-0.041,0.01-0.063,0.025c-0.039,0.03-0.072,0.112-0.125,0.125
				c-0.258,0.067-0.403-0.235-0.475-0.219c-0.029,0.007-0.064,0.072-0.087,0.094c-0.042,0.041-0.381,0.434-0.556,0.418
				c-0.158-0.012-0.322-0.291-0.368-0.431c-0.163,0.019-0.123,0.292-0.369,0.237c-0.139-0.029-0.211-0.145-0.331-0.212
				c-0.018-0.011-0.039-0.037-0.081-0.025c-0.021,0.007-0.041,0.045-0.057,0.057c-0.147,0.109-0.394,0.413-0.656,0.344
				c0.009,0.002-0.083-0.019-0.099-0.031c-0.021-0.017-0.115-0.074-0.22-0.387c-0.18-0.543,0.047-1.162,0.264-1.524
				c0.06-0.103,0.435-0.28,0.631-0.25c0.142,0.021,0.227,0.099,0.312,0.193c0.011,0.013,0.083,0.094,0.118,0.113
				c0.047,0.024,0.13,0.059,0.176,0.068c0.066,0.013,0.119-0.034,0.175,0c0.004,0.003,0.023,0.01,0.025,0.012
				c0.015,0.044-0.006,0.106-0.014,0.137c-0.021,0.082-0.144,0.524-0.149,0.563c-0.017,0.108-0.046,0.494-0.019,0.55
				c0.03,0.06,0.16,0.109,0.206,0.03c0.052-0.091,0.009-0.298,0.025-0.43c0.011-0.091,0.037-0.188,0.063-0.282
				c0,0,0.051-0.187,0.068-0.274c0.021-0.103,0.021-0.227,0.044-0.35c0.03-0.171,0.251-0.312,0.418-0.257
				c0.079,0.026,0.168,0.116,0.181,0.206c0.009,0.061-0.405,1.569-0.199,1.644c0.075,0.026,0.136-0.053,0.162-0.081
				c0.217-0.236,0.266-0.583,0.318-0.963c0.014-0.093,0.074-0.535,0.119-0.617c0.044-0.079,0.188-0.16,0.318-0.107
				c0.014,0.007,0.153,0.107,0.156,0.112c0.023,0.054,0.007,0.142,0,0.188c-0.011,0.066-0.12,0.479-0.175,0.612
				c-0.023,0.055-0.162,0.351-0.193,0.394c-0.012,0.015-0.045,0.029-0.051,0.049c-0.02,0.084,0.115,0.165,0.17,0.176
				c0.103,0.021,0.249-0.021,0.28-0.081c0.021-0.042-0.021-0.318-0.007-0.413c0.021-0.125,0.047-0.266,0.069-0.374
				c0.041-0.202,0.199-0.539,0.219-0.568c0.002-0.002,0.027-0.057,0.031-0.063c0.028-0.053,0.165-0.176,0.175-0.182
				c0.082-0.052,0.187-0.04,0.313-0.05c0.142-0.011,0.358,0.005,0.45,0.063c0.065,0.041,0.113,0.146,0.155,0.212
				c0.161,0.252,0.19,0.6,0.013,0.838c-0.052,0.069-0.135,0.122-0.207,0.175c-0.05,0.037-0.129,0.091-0.199,0.105
				c-0.185,0.038-0.327-0.005-0.475-0.044c-0.012,0.046-0.028,0.161-0.012,0.226c0.019,0.077,0.148,0.222,0.23,0.237
				c0.174,0.033,0.32-0.088,0.412-0.149c0.079-0.054,0.314-0.249,0.356-0.293c0.17-0.187,0.323-0.431,0.399-0.72
				c0.023-0.089,0.023-0.15,0.044-0.249c0.006-0.032,0.032-0.261,0.056-0.326c0.007-0.019,0.353-0.146,0.4-0.154
				c0.043-0.01,0.138-0.007,0.162,0.011l0.013,0.014c0.063,0.184-0.119,0.405-0.069,0.618c0.001,0.005,0.021,0.091,0.031,0.144
				c0.009,0.039,0.125,0.278,0.132,0.293C24.271,13,24.42,13.416,24.397,13.699"/>
			<path fill-rule="evenodd" clip-rule="evenodd" fill="#E32726" d="M17.593,11.359c0.002-0.005-0.419-0.395-0.7-0.42
				c-0.092-0.007-0.641-0.106-1.092-0.005c-0.115,0.025-0.37,0.055-0.375,0.056c-0.097,0.014-0.254,0.016-0.294,0.075
				c-0.048,0.069-0.021,0.16-0.037,0.269c-0.01,0.057-0.126,0.188-0.082,0.313c0.009,0.022,0.047,0.03,0.075,0.036
				c0.161,0.046,0.427-0.188,0.612-0.087c0.015,0.009,0.017,0.03,0.024,0.051c0.071,0.188-0.126,0.556-0.174,0.712
				c-0.021,0.063-0.1,0.346-0.107,0.431c-0.009,0.103-0.043,0.216-0.055,0.313c-0.022,0.162-0.036,0.309-0.063,0.487
				c-0.032,0.205-0.18,0.508-0.089,0.736c0,0.001,0.024,0.013,0.025,0.014c0.072,0.114,0.202,0.182,0.325,0.23
				c0.001,0,0.036,0.024,0.037,0.025c0.205,0.041,0.153-0.196,0.287-0.169c0.048,0.01,0.089,0.076,0.125,0.1
				c0.103,0.064,0.395,0.1,0.556,0.069c0.091-0.018,0.174-0.08,0.245-0.12c0.033-0.019,0.156-0.099,0.187-0.117
				c0.168-0.108,0.488-0.419,0.506-0.444c0.031-0.045,0.116-0.17,0.132-0.2c0.241-0.473,0.44-1.334,0.18-1.967
				C17.787,11.614,17.696,11.447,17.593,11.359 M17.355,12.465c-0.009,0.082-0.05,0.188-0.063,0.269
				c-0.002,0.008-0.078,0.288-0.105,0.399c-0.086,0.34-0.228,0.55-0.453,0.763c-0.132,0.126-0.353,0.212-0.353,0.212
				c-0.126,0.032-0.273,0.007-0.401,0.007c-0.031-0.282,0.049-0.535,0.089-0.788c0.017-0.111,0.001-0.167,0.019-0.274
				c0.01-0.067,0.039-0.292,0.044-0.325c0.012-0.082,0.093-0.644,0.149-0.78c0.04-0.099,0.122-0.169,0.193-0.238
				c-0.083-0.074-0.088-0.178-0.088-0.286c0.048-0.017,0.13-0.036,0.188-0.032c0.266,0.02,0.568,0.159,0.706,0.318
				C17.454,11.909,17.359,12.426,17.355,12.465"/>
			<path fill-rule="evenodd" clip-rule="evenodd" fill="#231F20" d="M16.574,11.39c-0.058-0.004-0.14,0.016-0.188,0.032
				c0,0.108,0.005,0.212,0.088,0.286c-0.071,0.069-0.153,0.14-0.193,0.238c-0.057,0.137-0.138,0.698-0.149,0.78
				c-0.005,0.033-0.034,0.258-0.044,0.325c-0.018,0.107-0.002,0.163-0.019,0.274c-0.04,0.253-0.12,0.506-0.089,0.788
				c0.128,0,0.275,0.024,0.401-0.007c0,0,0.221-0.086,0.353-0.212c0.226-0.213,0.367-0.423,0.453-0.764
				c0.026-0.11,0.104-0.391,0.105-0.398c0.013-0.08,0.054-0.187,0.063-0.269c0.004-0.039,0.099-0.556-0.075-0.757
				C17.143,11.549,16.84,11.409,16.574,11.39 M17.183,12.491c-0.009,0.075-0.046,0.172-0.057,0.243
				c-0.001,0.007-0.07,0.26-0.096,0.359c-0.076,0.305-0.203,0.494-0.406,0.687c-0.12,0.113-0.283,0.107-0.075-1.052
				c0.014-0.074,0.085-0.58,0.136-0.703c0.053-0.129,0.28-0.387,0.43-0.213C17.271,11.993,17.186,12.458,17.183,12.491"/>
		</g>
	</g>
</g>
</svg>
