<?xml version="1.0" encoding="UTF-8" standalone="no"?>
<svg
   xmlns:dc="http://purl.org/dc/elements/1.1/"
   xmlns:cc="http://creativecommons.org/ns#"
   xmlns:rdf="http://www.w3.org/1999/02/22-rdf-syntax-ns#"
   xmlns:svg="http://www.w3.org/2000/svg"
   xmlns="http://www.w3.org/2000/svg"
   viewBox="0 0 35.140373 61.958"
   height="61.958"
   width="35.140373"
   xml:space="preserve"
   version="1.1"
   id="svg2"><metadata
     id="metadata8"><rdf:RDF><cc:Work
         rdf:about=""><dc:format>image/svg+xml</dc:format><dc:type
           rdf:resource="http://purl.org/dc/dcmitype/StillImage" /></cc:Work></rdf:RDF></metadata><defs
     id="defs6"><clipPath
       id="clipPath16"
       clipPathUnits="userSpaceOnUse"><path
         id="path18"
         d="m 0,49.566 28.112,0 L 28.112,0 0,0 0,49.566 Z" /></clipPath></defs><g
     transform="matrix(1.25,0,0,-1.25,0,61.958)"
     id="g10"><g
       id="g12"><g
         clip-path="url(#clipPath16)"
         id="g14"><g
           transform="translate(14.0557,49.5664)"
           id="g20"><path
             id="path22"
             style="fill:#f58315;fill-opacity:1;fill-rule:evenodd;stroke:none"
             d="m 0,0 c -7.763,0 -14.056,-6.293 -14.056,-14.055 0,-6.699 4.684,-12.3 10.955,-13.713 0.801,-0.181 0.747,-0.773 0.841,-1.611 L 0,-49.566 l 2.229,19.9 c 0.09,0.809 0.06,1.717 0.822,1.887 6.297,1.392 11.006,7.008 11.006,13.724 C 14.057,-6.293 7.764,0 0,0" /></g><g
           transform="translate(13.9209,23.1563)"
           id="g24"><path
             id="path26"
             style="fill:#ffffff;fill-opacity:1;fill-rule:evenodd;stroke:none"
             d="m 0,0 c 6.805,0 12.354,5.551 12.354,12.354 0,6.804 -5.549,12.355 -12.354,12.355 -6.804,0 -12.354,-5.551 -12.354,-12.355 C -12.354,5.551 -6.804,0 0,0" /></g><g
           transform="translate(3.4648,31.6436)"
           id="g28"><path
             id="path30"
             style="fill:#211d1d;fill-opacity:1;fill-rule:nonzero;stroke:none"
             d="m 0,0 c 0.163,0.005 0.279,-0.068 0.279,-0.204 0,-0.07 -0.063,-0.145 -0.097,-0.178 0.084,-0.039 0.147,-0.094 0.147,-0.216 0,-0.14 -0.084,-0.266 -0.32,-0.266 l -0.197,0 0,0.737 -0.018,0.119 L 0,0 Z m -0.071,-0.352 0.092,0 c 0.05,0 0.095,-0.009 0.097,-0.009 0.022,0.03 0.05,0.074 0.05,0.132 0,0.09 -0.057,0.133 -0.184,0.133 -0.016,0 -0.036,-0.001 -0.055,-0.002 l 0,-0.254 z m 0,-0.419 0.094,0 c 0.14,0 0.181,0.082 0.181,0.161 0,0.118 -0.067,0.161 -0.201,0.161 l -0.074,0 0,-0.322 z" /></g><g
           transform="translate(4.6133,31.1309)"
           id="g32"><path
             id="path34"
             style="fill:#211d1d;fill-opacity:1;fill-rule:nonzero;stroke:none"
             d="m 0,0 c 0,-0.205 -0.153,-0.368 -0.355,-0.368 -0.216,0 -0.34,0.159 -0.34,0.354 0,0.204 0.152,0.368 0.354,0.368 C -0.112,0.354 0,0.202 0,0 m -0.347,-0.284 c 0.139,0 0.227,0.124 0.227,0.276 0,0.154 -0.088,0.277 -0.227,0.277 -0.136,0 -0.226,-0.123 -0.226,-0.277 0,-0.152 0.09,-0.276 0.226,-0.276" /></g><g
           transform="translate(5.3154,31.3711)"
           id="g36"><path
             id="path38"
             style="fill:#211d1d;fill-opacity:1;fill-rule:nonzero;stroke:none"
             d="m 0,0 -0.016,0.101 0.12,0 0,-0.417 c 0,-0.171 -0.126,-0.292 -0.319,-0.292 -0.278,0 -0.287,0.249 -0.287,0.266 l 0,0.341 -0.017,0.102 0.128,0 0,-0.436 c 0,-0.108 0.084,-0.186 0.196,-0.186 0.115,0 0.195,0.086 0.195,0.195 L 0,0 Z" /></g><g
           transform="translate(5.5635,31.4717)"
           id="g40"><path
             id="path42"
             style="fill:#211d1d;fill-opacity:1;fill-rule:nonzero;stroke:none"
             d="m 0,0 0.611,0 0,-0.09 -0.254,0 0,-0.517 0.013,-0.085 -0.124,0 0,0.602 L 0,-0.09 0,0 Z" /></g><g
           transform="translate(6.4365,30.8633)"
           id="g44"><path
             id="path46"
             style="fill:#211d1d;fill-opacity:1;fill-rule:nonzero;stroke:none"
             d="m 0,0 0.016,-0.084 -0.127,0 0,0.591 L -0.127,0.608 0,0.608 0,0 Z" /></g><g
           transform="translate(7.3369,31.1309)"
           id="g48"><path
             id="path50"
             style="fill:#211d1d;fill-opacity:1;fill-rule:nonzero;stroke:none"
             d="m 0,0 c 0,-0.184 -0.124,-0.332 -0.293,-0.363 0.081,-0.032 0.165,-0.061 0.246,-0.091 l -0.047,-0.098 -0.288,0.12 0,0.066 c -0.2,0.012 -0.314,0.163 -0.314,0.352 0,0.204 0.153,0.368 0.354,0.368 C -0.114,0.354 0,0.202 0,0 m -0.348,-0.284 c 0.138,0 0.229,0.124 0.229,0.276 0,0.154 -0.091,0.277 -0.229,0.277 -0.136,0 -0.226,-0.123 -0.226,-0.277 0,-0.152 0.09,-0.276 0.226,-0.276" /></g><g
           transform="translate(8.0381,31.3711)"
           id="g52"><path
             id="path54"
             style="fill:#211d1d;fill-opacity:1;fill-rule:nonzero;stroke:none"
             d="m 0,0 -0.016,0.101 0.12,0 0,-0.417 c 0,-0.171 -0.125,-0.292 -0.319,-0.292 -0.279,0 -0.286,0.249 -0.286,0.266 l 0,0.341 -0.017,0.102 0.127,0 0,-0.436 c 0,-0.108 0.084,-0.186 0.198,-0.186 0.113,0 0.193,0.086 0.193,0.195 L 0,0 Z" /></g><g
           transform="translate(8.4268,31.3701)"
           id="g56"><path
             id="path58"
             style="fill:#211d1d;fill-opacity:1;fill-rule:nonzero;stroke:none"
             d="m 0,0 -0.018,0.102 0.409,0 0,-0.087 -0.28,0 0,-0.207 0.246,0 -0.026,-0.087 -0.22,0 0,-0.225 0.295,0 -0.027,-0.087 -0.381,0 0,0.591 L 0,0 Z" /></g><g
           transform="translate(9.9326,31.457)"
           id="g60"><path
             id="path62"
             style="fill:#211d1d;fill-opacity:1;fill-rule:nonzero;stroke:none"
             d="m 0,0 c -0.061,0.063 -0.131,0.1 -0.217,0.1 -0.17,0 -0.285,-0.172 -0.285,-0.354 0,-0.21 0.147,-0.34 0.293,-0.34 0.117,0 0.252,0.11 0.252,0.11 L 0.072,-0.58 c 0,0 -0.125,-0.114 -0.302,-0.114 -0.202,0 -0.397,0.148 -0.397,0.427 0,0.267 0.184,0.461 0.414,0.461 0.108,0 0.195,-0.035 0.273,-0.105 L 0,0 Z" /></g><g
           transform="translate(10.3496,31.4717)"
           id="g64"><path
             id="path66"
             style="fill:#211d1d;fill-opacity:1;fill-rule:nonzero;stroke:none"
             d="m 0,0 0.066,0.015 0.238,-0.584 0.064,-0.123 -0.131,0 -0.076,0.18 -0.281,0 -0.076,-0.18 -0.107,0 L 0,0 Z m -0.087,-0.424 0.217,0 -0.093,0.225 -0.011,0.04 -0.014,-0.04 -0.099,-0.225 z" /></g><g
           transform="translate(10.8506,31.4717)"
           id="g68"><path
             id="path70"
             style="fill:#211d1d;fill-opacity:1;fill-rule:nonzero;stroke:none"
             d="m 0,0 0.407,0 0,-0.087 -0.28,0 0,-0.207 0.248,0 -0.027,-0.087 -0.221,0 0,-0.226 0.016,-0.085 -0.125,0 0,0.59 L 0,0 Z" /></g><g
           transform="translate(11.4561,31.3701)"
           id="g72"><path
             id="path74"
             style="fill:#211d1d;fill-opacity:1;fill-rule:nonzero;stroke:none"
             d="m 0,0 -0.017,0.102 0.408,0 0,-0.087 -0.28,0 0,-0.207 0.248,0 -0.027,-0.087 -0.221,0 0,-0.225 0.296,0 L 0.379,-0.591 0,-0.591 0,0 Z" /></g><g
           transform="translate(12.6055,31.6357)"
           id="g76"><path
             id="path78"
             style="fill:#211d1d;fill-opacity:1;fill-rule:nonzero;stroke:none"
             d="m 0,0 0.079,0.017 0.266,-0.73 0.064,-0.143 -0.141,0 -0.083,0.224 -0.318,0 -0.085,-0.224 -0.113,0 L 0,0 Z m -0.099,-0.533 0.252,0 -0.107,0.3 -0.014,0.05 -0.015,-0.051 -0.116,-0.299 z" /></g><g
           transform="translate(13.793,30.8633)"
           id="g80"><path
             id="path82"
             style="fill:#211d1d;fill-opacity:1;fill-rule:nonzero;stroke:none"
             d="m 0,0 0.006,-0.084 -0.062,0 -0.435,0.438 -0.046,0.06 0,-0.413 0.014,-0.085 -0.113,0 0,0.592 -0.015,0.1 0.072,0 0.432,-0.435 0.046,-0.062 0,0.397 -0.015,0.1 L 0,0.608 0,0 Z" /></g><g
           transform="translate(14.3467,31.4717)"
           id="g84"><path
             id="path86"
             style="fill:#211d1d;fill-opacity:1;fill-rule:nonzero;stroke:none"
             d="m 0,0 c 0.164,0 0.326,-0.104 0.326,-0.341 0,-0.198 -0.141,-0.351 -0.361,-0.351 l -0.243,0 0,0.59 L -0.295,0 0,0 Z m -0.167,-0.085 0,-0.52 0.146,0 c 0.134,0 0.228,0.115 0.228,0.257 0,0.144 -0.094,0.263 -0.228,0.263 l -0.146,0 z" /></g><g
           transform="translate(15.4121,31.6357)"
           id="g88"><path
             id="path90"
             style="fill:#211d1d;fill-opacity:1;fill-rule:nonzero;stroke:none"
             d="m 0,0 0.079,0.017 0.265,-0.73 0.065,-0.143 -0.14,0 -0.083,0.224 -0.32,0 -0.084,-0.224 -0.113,0 L 0,0 Z m -0.099,-0.533 0.252,0 -0.107,0.3 -0.015,0.05 -0.015,-0.051 -0.115,-0.299 z" /></g><g
           transform="translate(16.3857,30.7793)"
           id="g92"><path
             id="path94"
             style="fill:#211d1d;fill-opacity:1;fill-rule:nonzero;stroke:none"
             d="m 0,0 -0.206,0.254 -0.097,-0.001 0,-0.168 L -0.29,0 l -0.124,0 0,0.591 -0.017,0.101 0.222,0 c 0.131,0 0.257,-0.066 0.257,-0.211 0,-0.08 -0.057,-0.158 -0.143,-0.198 L 0.145,0 0,0 Z m -0.229,0.34 c 0.086,0 0.159,0.063 0.159,0.141 0,0.082 -0.073,0.124 -0.159,0.124 l -0.074,0 0,-0.265 0.074,0 z" /></g><g
           transform="translate(16.5508,31.4717)"
           id="g96"><path
             id="path98"
             style="fill:#211d1d;fill-opacity:1;fill-rule:nonzero;stroke:none"
             d="m 0,0 0.61,0 0,-0.09 -0.254,0 0,-0.517 0.013,-0.085 -0.124,0 0,0.602 L 0,-0.09 0,0 Z" /></g><g
           transform="translate(17.4248,30.8633)"
           id="g100"><path
             id="path102"
             style="fill:#211d1d;fill-opacity:1;fill-rule:nonzero;stroke:none"
             d="m 0,0 0.014,-0.084 -0.124,0 0,0.591 L -0.127,0.608 0,0.608 0,0 Z" /></g><g
           transform="translate(17.6377,30.8447)"
           id="g104"><path
             id="path106"
             style="fill:#211d1d;fill-opacity:1;fill-rule:nonzero;stroke:none"
             d="m 0,0 0.012,0.101 c 0,0 0.088,-0.094 0.204,-0.094 0.065,0 0.12,0.035 0.12,0.103 0,0.133 -0.334,0.138 -0.334,0.33 0,0.109 0.094,0.2 0.228,0.2 0.092,0 0.162,-0.03 0.2,-0.052 L 0.395,0.497 C 0.392,0.501 0.315,0.551 0.227,0.551 0.174,0.551 0.117,0.524 0.117,0.466 0.117,0.321 0.448,0.339 0.448,0.125 0.448,0 0.355,-0.082 0.213,-0.082 c -0.14,0 -0.211,0.078 -0.211,0.078 L 0,0 Z" /></g><g
           transform="translate(18.4492,31.4717)"
           id="g108"><path
             id="path110"
             style="fill:#211d1d;fill-opacity:1;fill-rule:nonzero;stroke:none"
             d="m 0,0 0.065,0.015 0.239,-0.584 0.06,-0.123 -0.127,0 -0.076,0.18 -0.284,0 -0.076,-0.18 -0.105,0 L 0,0 Z m -0.087,-0.424 0.215,0 -0.092,0.225 -0.012,0.04 -0.013,-0.04 -0.098,-0.225 z" /></g><g
           transform="translate(19.5908,30.8633)"
           id="g112"><path
             id="path114"
             style="fill:#211d1d;fill-opacity:1;fill-rule:nonzero;stroke:none"
             d="m 0,0 0.009,-0.084 -0.062,0 -0.436,0.438 -0.046,0.06 0,-0.413 0.012,-0.085 -0.112,0 0,0.592 -0.013,0.1 0.072,0 0.431,-0.435 0.045,-0.062 0,0.397 -0.014,0.1 0.116,0 L 0.002,0 0,0 Z" /></g><g
           transform="translate(20.4082,31.6436)"
           id="g116"><path
             id="path118"
             style="fill:#211d1d;fill-opacity:1;fill-rule:nonzero;stroke:none"
             d="m 0,0 c 0.163,0.005 0.28,-0.068 0.28,-0.204 0,-0.07 -0.064,-0.145 -0.097,-0.178 0.084,-0.039 0.146,-0.094 0.146,-0.216 0,-0.14 -0.084,-0.266 -0.32,-0.266 l -0.197,0 0,0.737 -0.018,0.119 L 0,0 Z m -0.071,-0.352 0.093,0 c 0.049,0 0.093,-0.009 0.095,-0.009 0.023,0.03 0.05,0.074 0.05,0.132 0,0.09 -0.054,0.133 -0.182,0.133 -0.017,0 -0.037,-0.001 -0.056,-0.002 l 0,-0.254 z m 0,-0.419 0.095,0 c 0.139,0 0.182,0.082 0.182,0.161 0,0.118 -0.07,0.161 -0.202,0.161 l -0.075,0 0,-0.322 z" /></g><g
           transform="translate(21.1025,31.4717)"
           id="g120"><path
             id="path122"
             style="fill:#211d1d;fill-opacity:1;fill-rule:nonzero;stroke:none"
             d="m 0,0 0.064,0.015 0.24,-0.584 0.061,-0.123 -0.129,0 -0.074,0.18 -0.284,0 -0.077,-0.18 -0.104,0 L 0,0 Z m -0.086,-0.424 0.215,0 -0.092,0.225 -0.012,0.04 -0.015,-0.04 -0.096,-0.225 z" /></g><g
           transform="translate(22.0205,30.7793)"
           id="g124"><path
             id="path126"
             style="fill:#211d1d;fill-opacity:1;fill-rule:nonzero;stroke:none"
             d="m 0,0 -0.29,0.342 0,-0.257 0.014,-0.085 -0.126,0 0,0.591 -0.017,0.101 0.129,0 0,-0.32 0.228,0.251 0,-0.001 0.037,0.07 0.162,0 L -0.17,0.367 0.152,0 0,0 Z" /></g><g
           transform="translate(22.3262,31.3701)"
           id="g128"><path
             id="path130"
             style="fill:#211d1d;fill-opacity:1;fill-rule:nonzero;stroke:none"
             d="m 0,0 -0.019,0.102 0.411,0 0,-0.087 -0.281,0 0,-0.207 0.246,0 -0.027,-0.087 -0.219,0 0,-0.225 0.294,0 L 0.378,-0.591 0,-0.591 0,0 Z" /></g><g
           transform="translate(23.3545,30.7793)"
           id="g132"><path
             id="path134"
             style="fill:#211d1d;fill-opacity:1;fill-rule:nonzero;stroke:none"
             d="m 0,0 -0.207,0.254 -0.097,-0.001 0,-0.168 L -0.29,0 l -0.125,0 0,0.591 -0.017,0.101 0.223,0 c 0.13,0 0.256,-0.066 0.256,-0.211 0,-0.08 -0.057,-0.158 -0.143,-0.198 L 0.145,0 0,0 Z m -0.23,0.34 c 0.085,0 0.16,0.063 0.16,0.141 0,0.082 -0.075,0.124 -0.16,0.124 l -0.074,0 0,-0.265 0.074,0 z" /></g><g
           transform="translate(23.8486,30.8633)"
           id="g136"><path
             id="path138"
             style="fill:#211d1d;fill-opacity:1;fill-rule:nonzero;stroke:none"
             d="m 0,0 0.012,-0.084 -0.121,0 0,0.302 -0.184,0.308 0,-0.001 -0.068,0.083 0.148,0 0.152,-0.255 0.014,-0.04 0.02,0.04 0.156,0.255 0.115,0 L 0,0.218 0,0 Z" /></g><g
           transform="translate(22.042,38.0742)"
           id="g140"><path
             id="path142"
             style="fill:#671c28;fill-opacity:1;fill-rule:nonzero;stroke:none"
             d="m 0,0 c -0.2,0 -0.337,-0.105 -0.337,-0.205 0,-0.025 0.009,-0.05 0.017,-0.066 0.002,-0.01 0.011,-0.016 0.022,-0.016 l 0.017,0 c 0.047,0 0.083,0.027 0.097,0.073 0.034,0.091 0.073,0.136 0.192,0.136 0.129,0 0.263,-0.071 0.263,-0.179 0,-0.102 -0.121,-0.18 -0.279,-0.18 -0.192,0 -0.357,0.121 -0.489,0.239 -0.144,0.128 -0.338,0.275 -0.565,0.275 -0.014,0 -0.031,0 -0.046,-0.001 -0.117,0.121 -0.304,0.195 -0.488,0.195 -0.361,0 -0.613,-0.179 -0.81,-0.355 -0.019,-0.017 -0.035,-0.033 -0.053,-0.051 l -0.02,-0.017 c -0.125,-0.124 -0.244,-0.242 -0.435,-0.242 -0.102,0 -0.191,0.029 -0.28,0.094 0.01,0.002 0.022,0.005 0.031,0.009 l 0.007,0.003 c 0.103,0.031 0.195,0.099 0.249,0.176 0.003,0.002 0.005,0.004 0.005,0.007 l 0.006,0.005 c 10e-4,0.006 0.005,0.013 0.007,0.018 0,0 0,0.002 0.002,0.003 0.002,0.003 0.004,0.005 0.007,0.009 0.044,0.088 0.048,0.174 0.009,0.254 0.036,0.028 0.066,0.063 0.091,0.101 0,0.001 10e-4,0.002 0.003,0.003 l 0,0.002 0.006,0.009 c 0.002,0.005 0.005,0.01 0.006,0.013 0.015,0.021 0.026,0.046 0.035,0.072 10e-4,0.003 10e-4,0.004 10e-4,0.006 0.004,0.007 0.005,0.013 0.006,0.018 0.002,0.002 0.002,0.007 0.002,0.005 0.002,0.004 0.002,0.01 0.004,0.014 0.004,0.009 0.004,0.014 0.004,0.014 l 0,0.005 c 0.01,0.049 0.012,0.098 0.005,0.15 -0.007,0.048 -0.024,0.097 -0.04,0.132 -0.044,0.095 -0.119,0.18 -0.225,0.253 -0.213,0.146 -0.57,0.226 -1.004,0.226 -0.089,0 -0.181,-0.003 -0.273,-0.011 L -4.309,1.19 C -4.556,1.161 -5.23,1.026 -6.193,0.422 L -6.23,0.398 c -0.285,-0.183 -0.58,-0.372 -0.944,-0.48 -0.154,-0.045 -0.297,-0.066 -0.434,-0.067 -0.033,0 -0.062,0.001 -0.093,0.003 -0.024,0.001 -0.064,0.004 -0.1,0.009 -0.013,0.053 -0.011,0.11 -0.008,0.151 0.002,0.018 0.008,0.036 0.014,0.06 0.027,0.102 0.065,0.188 0.108,0.264 0.044,0.075 0.103,0.152 0.178,0.237 0.059,0.065 0.122,0.13 0.195,0.193 0.085,0.011 0.158,0.04 0.212,0.084 0.003,0.002 0.005,0.004 0.008,0.005 0.006,0.007 0.012,0.012 0.02,0.019 0,0.001 0.002,0.002 0.002,0.005 l 0.007,0.007 c 0.003,0.004 0.004,0.007 0.008,0.009 0,0 0.003,0.005 0.005,0.005 0.015,0.023 0.028,0.046 0.036,0.068 l 0.026,0.003 c 0.26,0.043 0.297,0.21 0.303,0.251 l 0,0.009 0,0.028 c 0,0.022 -0.002,0.046 -0.01,0.066 l 0,0.003 C -6.746,1.468 -6.93,1.569 -7.192,1.603 -7.262,1.61 -7.328,1.615 -7.392,1.616 -7.459,1.614 -7.641,1.598 -7.906,1.488 -7.918,1.483 -7.931,1.479 -7.946,1.471 -7.948,1.469 -7.951,1.468 -7.957,1.466 l -0.229,-0.111 -0.102,0.059 0.364,0.21 0.101,0.049 0.151,0.058 c 0.002,0 0.004,10e-4 0.004,10e-4 0.012,0.005 0.025,0.007 0.031,0.01 l 0.046,-0.026 c 0.095,-0.05 0.183,-0.078 0.265,-0.087 0.043,-0.004 0.076,-0.002 0.107,0.002 0.004,0 0.008,10e-4 0.01,0.002 0.042,0.01 0.07,0.028 0.085,0.054 0.019,0.031 0.009,0.061 0.007,0.064 -0.002,0.001 -0.004,0.008 -0.004,0.008 -10e-4,0.003 -0.002,0.006 -0.004,0.008 0,0.001 -0.006,0.007 -0.006,0.007 -0.002,0.003 -0.005,0.006 -0.007,0.01 -0.004,0.005 -0.007,0.007 -0.008,0.007 0,0.001 -0.004,0.004 -0.004,0.004 C -7.205,1.843 -7.33,1.854 -7.5,1.835 -7.545,1.831 -7.582,1.824 -7.6,1.82 l -0.066,0.047 -0.04,0.035 -0.069,0.069 c -0.029,0.033 -0.057,0.066 -0.082,0.1 l -0.022,0.03 c -0.01,0.013 -0.019,0.028 -0.031,0.041 -0.029,0.041 -0.08,0.1 -0.092,0.115 -0.035,0.035 -0.072,0.064 -0.109,0.089 -0.034,0.023 -0.071,0.041 -0.11,0.055 C -8.26,2.414 -8.3,2.424 -8.344,2.428 -8.426,2.433 -8.51,2.418 -8.586,2.384 -8.659,2.352 -8.723,2.304 -8.784,2.242 L -8.791,2.233 C -8.801,2.222 -8.813,2.209 -8.822,2.196 L -8.826,2.19 c 0,-10e-4 -0.003,-0.005 -0.005,-0.006 L -8.854,2.151 C -8.875,2.123 -8.895,2.097 -8.918,2.07 -8.939,2.043 -8.963,2.016 -8.984,1.99 -9.008,1.964 -9.031,1.939 -9.057,1.917 -9.068,1.904 -9.08,1.894 -9.092,1.885 L -9.119,1.862 C -9.124,1.86 -9.127,1.858 -9.133,1.854 -9.141,1.849 -9.148,1.844 -9.16,1.837 L -9.169,1.832 c -0.039,0.011 -0.173,0.046 -0.29,0.046 -0.055,0 -0.098,-0.008 -0.131,-0.022 -0.02,-0.011 -0.066,-0.041 -0.066,-0.097 0,-0.026 0.01,-0.071 0.075,-0.094 0.015,-0.004 0.029,-0.008 0.044,-0.009 0.011,-0.002 0.019,-0.003 0.029,-0.003 0.154,-0.007 0.33,0.069 0.373,0.089 L -9.049,1.713 -8.938,1.665 -8.512,1.434 -8.631,1.365 c -0.038,0.022 -0.153,0.084 -0.308,0.141 l -0.051,0.019 -0.122,0.037 -0.134,0.03 c -0.111,0.022 -0.222,0.029 -0.313,0.022 -0.007,0 -0.203,-0.003 -0.359,-0.094 -0.039,-0.023 -0.072,-0.047 -0.098,-0.076 -0.072,-0.08 -0.062,-0.156 -0.062,-0.156 0,-0.009 -0.004,-0.197 0.332,-0.276 0,-0.001 0.002,-0.002 0.002,-0.003 l 0,-0.008 c 0.024,-0.068 0.088,-0.16 0.267,-0.205 0.073,-0.08 0.135,-0.154 0.192,-0.229 0.068,-0.085 0.13,-0.171 0.181,-0.256 0.028,-0.048 0.053,-0.094 0.073,-0.136 0.018,-0.046 0.039,-0.092 0.054,-0.142 0.018,-0.052 0.026,-0.095 0.026,-0.135 -0.003,-0.012 -0.003,-0.026 -0.005,-0.041 -0.031,-0.003 -0.069,-0.006 -0.105,-0.009 l -0.01,0 c -0.146,-0.011 -0.277,0.001 -0.399,0.033 -0.018,0.006 -0.04,0.009 -0.059,0.013 l -0.068,0.014 c -0.181,0.056 -0.324,0.123 -0.439,0.183 -0.187,0.095 -0.359,0.204 -0.523,0.307 l -0.007,0.003 c -0.919,0.598 -1.645,0.722 -1.916,0.747 -0.258,0.021 -0.507,0.014 -0.723,-0.021 -0.147,-0.023 -0.246,-0.044 -0.353,-0.089 -0.222,-0.09 -0.36,-0.204 -0.434,-0.357 -0.017,-0.037 -0.033,-0.083 -0.041,-0.131 0,0 -0.003,-0.017 -0.003,-0.042 -0.002,-0.033 0,-0.065 0.003,-0.085 0.012,-0.094 0.05,-0.219 0.166,-0.302 -10e-4,-0.002 -0.002,-0.005 -0.003,-0.008 -0.003,-0.006 -0.005,-0.011 -0.007,-0.017 -0.055,-0.183 0.072,-0.324 0.205,-0.393 0.039,-0.021 0.084,-0.037 0.127,-0.047 -0.088,-0.061 -0.174,-0.089 -0.275,-0.089 -0.192,0 -0.311,0.119 -0.436,0.242 -0.023,0.023 -0.045,0.045 -0.072,0.069 -0.197,0.175 -0.449,0.353 -0.811,0.353 -0.183,0 -0.371,-0.074 -0.485,-0.195 -0.017,0.004 -0.033,0.004 -0.048,0.004 -0.225,0 -0.42,-0.149 -0.562,-0.277 -0.137,-0.118 -0.3,-0.24 -0.489,-0.24 -0.162,0 -0.282,0.079 -0.282,0.181 0,0.111 0.136,0.18 0.265,0.18 0.116,0 0.156,-0.046 0.189,-0.137 0.024,-0.066 0.082,-0.072 0.099,-0.072 0.009,0 0.015,0 0.018,0.001 0.01,0 0.018,0.006 0.022,0.013 0.01,0.022 0.014,0.046 0.014,0.068 0,0.098 -0.133,0.205 -0.334,0.205 -0.196,0 -0.352,-0.114 -0.352,-0.258 0,-0.144 0.158,-0.258 0.361,-0.258 0.244,0 0.445,0.121 0.568,0.225 l 0.017,0.016 c 0.021,0.016 0.04,0.034 0.06,0.049 0.129,0.112 0.248,0.215 0.391,0.224 -0.041,-0.065 -0.054,-0.119 -0.054,-0.189 0,-0.238 0.264,-0.383 0.51,-0.383 0.233,0 0.484,0.113 0.484,0.326 0,0.174 -0.177,0.279 -0.34,0.279 -0.057,0 -0.141,-0.011 -0.212,-0.066 -0.06,0.041 -0.135,0.073 -0.214,0.091 0.097,0.088 0.229,0.137 0.374,0.137 0.256,0 0.401,-0.141 0.539,-0.278 l 0.034,-0.031 c 0.014,-0.016 0.031,-0.032 0.047,-0.045 0.232,-0.214 0.447,-0.31 0.699,-0.31 0.148,0 0.271,0.051 0.394,0.16 0.004,0.003 0.011,0.007 0.013,0.01 0.007,0.007 0.011,0.017 0.009,0.026 -0.004,0.014 -0.016,0.025 -0.028,0.031 -0.002,0 -0.004,10e-4 -0.004,10e-4 -0.013,0.005 -0.027,0.005 -0.035,0.005 l -0.009,0 c -0.132,0.016 -0.241,0.081 -0.297,0.179 -0.02,0.037 -0.048,0.118 -0.02,0.18 0.039,-0.017 0.082,-0.029 0.128,-0.036 0.003,0 0.007,-0.002 0.013,-0.002 0.001,0 0.001,-0.001 0.001,-0.001 0.003,-0.001 0.007,-0.001 0.01,-0.001 l 0,0.026 0.006,-0.026 0.01,-10e-4 c 0.006,-0.001 0.012,-0.002 0.021,-0.002 0.073,-0.005 0.138,0.005 0.2,0.028 0.013,0.005 0.029,0.012 0.037,0.017 0.002,10e-4 0.003,10e-4 0.006,0.002 0.004,0.003 0.009,0.005 0.013,0.009 0.104,0.059 0.17,0.165 0.178,0.274 0.088,0.006 0.187,0.005 0.287,0 0.013,-0.155 0.096,-0.268 0.174,-0.363 0.074,-0.092 0.17,-0.176 0.294,-0.257 0.099,-0.064 0.218,-0.139 0.356,-0.189 0.116,-0.043 0.271,-0.094 0.444,-0.1 0.154,-0.008 0.271,0.028 0.334,0.102 0.003,0.001 0.008,0.005 0.01,0.01 0.004,0.005 0.006,0.011 0.009,0.016 0.02,0.029 0.03,0.063 0.03,0.1 0,0.084 -0.05,0.165 -0.093,0.217 -0.039,0.049 -0.084,0.094 -0.144,0.142 -0.11,0.085 -0.23,0.139 -0.364,0.195 -0.14,0.059 -0.282,0.106 -0.425,0.142 -0.078,0.019 -0.162,0.037 -0.243,0.048 -0.091,0.016 -0.179,0.026 -0.274,0.033 0.025,0.065 0.079,0.115 0.163,0.147 0.044,0.02 0.102,0.029 0.17,0.029 0.086,0 0.188,-0.016 0.276,-0.044 0.1,-0.031 0.19,-0.065 0.277,-0.101 0.145,-0.063 0.28,-0.139 0.408,-0.212 0.029,-0.016 0.06,-0.033 0.089,-0.051 0.156,-0.088 0.309,-0.17 0.458,-0.251 l 0.047,-0.026 c 0.012,-0.007 0.021,-0.011 0.031,-0.016 0,0 0.002,-0.001 0.002,-0.002 0.004,-0.002 0.514,-0.295 0.994,-0.393 l 0.002,-0.002 c 0.056,-0.011 0.112,-0.02 0.168,-0.024 0.073,-0.009 0.144,-0.014 0.21,-0.014 0.41,0 0.559,0.178 0.612,0.289 0.004,0.003 0.011,0.003 0.011,0.003 0.043,0.011 0.269,0.072 0.475,0.242 0.058,-0.049 0.256,-0.197 0.501,-0.25 0.011,-0.009 0.02,-0.018 0.028,-0.027 0.008,-0.009 0.017,-0.02 0.029,-0.03 0.002,-0.004 0.005,-0.005 0.007,-0.004 0.004,-0.007 0.01,-0.011 0.017,-0.016 l 0.009,-0.008 c 0.002,-0.002 0.005,-0.003 0.008,-0.004 0.146,-0.114 0.348,-0.179 0.547,-0.179 0.098,0 0.193,0.01 0.287,0.029 0.184,0.038 0.354,0.097 0.483,0.143 0.134,0.051 0.277,0.115 0.433,0.195 0.129,0.066 0.269,0.137 0.405,0.217 0.055,0.033 0.11,0.064 0.166,0.095 0.075,0.042 0.155,0.086 0.229,0.132 0.016,0.011 0.031,0.021 0.048,0.028 0,0.001 0.002,0.001 0.002,0.002 0.042,0.026 0.093,0.051 0.151,0.078 0.032,0.016 0.063,0.032 0.097,0.047 0.175,0.079 0.427,0.174 0.636,0.174 0.032,0 0.062,-0.003 0.089,-0.008 0.005,0 0.013,-0.001 0.021,-0.003 0.07,-0.016 0.158,-0.056 0.197,-0.153 C -4.086,0.489 -4.178,0.477 -4.271,0.461 -4.506,0.424 -4.709,0.365 -4.908,0.28 -5.025,0.23 -5.149,0.174 -5.267,0.087 -5.316,0.049 -5.364,0.006 -5.409,-0.046 c -0.044,-0.051 -0.093,-0.113 -0.109,-0.183 -0.013,-0.064 -0.004,-0.123 0.032,-0.172 0.045,-0.062 0.129,-0.105 0.224,-0.113 0.151,-0.014 0.274,0.013 0.385,0.044 0.176,0.047 0.337,0.118 0.482,0.21 0.446,0.273 0.524,0.524 0.526,0.664 0.103,0.006 0.207,0.005 0.299,-0.003 0.002,-0.025 0.008,-0.048 0.017,-0.072 0.022,-0.068 0.084,-0.187 0.266,-0.232 0.004,-0.001 0.006,-0.003 0.009,-0.003 l 0.003,0 C -3.271,0.093 -3.268,0.093 -3.27,0.093 -3.258,0.091 -3.244,0.087 -3.23,0.085 l 10e-4,0.026 0.007,-0.027 c 0.007,-0.001 0.016,-0.001 0.023,-0.001 0.005,-0.001 0.01,-0.001 0.015,-0.001 l 0.003,0 c 0.085,-0.005 0.161,0.012 0.231,0.048 0,-0.001 0,-0.002 0.001,-0.004 0.014,-0.027 0.014,-0.065 0.012,-0.091 -0.014,-0.128 -0.151,-0.234 -0.269,-0.263 -0.012,-0.002 -0.024,-0.003 -0.036,-0.003 -0.016,-0.002 -0.036,-0.005 -0.053,-0.012 -0.002,0 -0.006,-0.002 -0.006,-0.003 -0.01,-0.003 -0.017,-0.009 -0.025,-0.016 -0.004,-0.005 -0.009,-0.011 -0.009,-0.019 0,-0.008 0.005,-0.016 0.011,-0.02 0.006,-0.006 0.011,-0.008 0.018,-0.01 0.122,-0.111 0.243,-0.16 0.395,-0.16 0.251,0 0.466,0.095 0.697,0.308 0.027,0.025 0.054,0.052 0.081,0.078 0.139,0.136 0.283,0.277 0.537,0.277 0.148,0 0.279,-0.047 0.373,-0.136 -0.078,-0.02 -0.153,-0.051 -0.212,-0.091 -0.073,0.056 -0.156,0.066 -0.213,0.066 -0.163,0 -0.34,-0.106 -0.34,-0.279 0,-0.213 0.252,-0.328 0.487,-0.328 0.245,0 0.51,0.148 0.51,0.385 0,0.07 -0.016,0.123 -0.057,0.19 0.142,-0.009 0.261,-0.111 0.388,-0.221 l 0.006,-0.005 c 0.025,-0.021 0.05,-0.044 0.075,-0.065 0.124,-0.102 0.321,-0.224 0.571,-0.224 0.199,0 0.358,0.115 0.358,0.259 C 0.35,-0.112 0.197,0 0,0 m -1.648,-0.044 c 0.062,0 0.115,-0.014 0.156,-0.04 -0.042,-0.042 -0.066,-0.088 -0.066,-0.136 0,-0.076 0.054,-0.137 0.119,-0.137 0.065,0 0.12,0.062 0.12,0.137 0,0.048 -0.019,0.093 -0.055,0.133 0.062,0.036 0.138,0.064 0.21,0.076 0.037,-0.054 0.055,-0.111 0.055,-0.178 0,-0.202 -0.202,-0.307 -0.391,-0.307 -0.182,0 -0.365,0.076 -0.365,0.25 0,0.118 0.089,0.202 0.217,0.202 m 0.209,-0.237 c -0.023,0 -0.041,0.027 -0.041,0.061 0,0.031 0.016,0.058 0.047,0.09 0.023,-0.027 0.037,-0.057 0.037,-0.09 0,-0.033 -0.02,-0.061 -0.043,-0.061 M -8.582,0 -8.6,-0.01 c -0.003,-0.002 -0.005,-0.003 -0.011,-0.007 -0.007,-0.004 -0.015,-0.008 -0.022,-0.011 l -0.011,-0.007 c -0.002,-10e-4 -0.004,-0.002 -0.008,-0.005 -0.06,-0.029 -0.125,-0.056 -0.191,-0.073 0.002,0.012 0.002,0.02 0.002,0.026 0.015,0.143 -0.048,0.265 -0.05,0.27 -0.091,0.214 -0.321,0.477 -0.42,0.585 0.051,-0.002 0.101,0 0.151,0.006 0.303,0.038 0.727,0.287 0.812,0.336 0.001,-0.001 0.002,-0.003 0.004,-0.004 0.065,-0.044 0.264,-0.181 0.545,-0.269 l 0.151,-0.044 0.086,-0.015 0.009,0 C -7.527,0.772 -7.502,0.771 -7.481,0.768 -7.574,0.684 -7.776,0.48 -7.883,0.229 -7.885,0.226 -7.887,0.221 -7.887,0.217 L -7.891,0.209 C -7.893,0.206 -7.895,0.198 -7.896,0.195 -7.9,0.18 -7.907,0.161 -7.912,0.145 -7.914,0.138 -7.948,0.017 -7.918,-0.108 c -0.033,0.01 -0.069,0.021 -0.094,0.03 l -0.002,0 c -0.002,0.003 -0.005,0.003 -0.005,0.004 -0.133,0.042 -0.239,0.117 -0.3,0.175 -0.005,0.002 -0.01,0.006 -0.014,0.01 C -8.352,0.13 -8.367,0.143 -8.381,0.143 -8.39,0.144 -8.398,0.141 -8.402,0.133 -8.404,0.133 -8.436,0.093 -8.582,0 M -9.744,1.164 C -9.746,1.163 -9.753,1.146 -9.756,1.118 l 0,-0.009 c -0.098,0.034 -0.158,0.088 -0.167,0.156 -0.011,0.071 0.038,0.147 0.124,0.199 l 0.034,0.015 c 0.005,0.004 0.009,0.007 0.015,0.009 l 0.049,0.017 0.084,0.016 c 0.007,0 0.013,0.001 0.02,0.003 0.033,0.002 0.066,0.003 0.1,0.003 0.349,0 0.671,-0.146 0.786,-0.206 -0.41,-0.222 -0.658,-0.235 -0.664,-0.235 -0.107,-0.01 -0.204,-0.01 -0.285,0.002 -0.004,0.05 0.008,0.091 0.033,0.119 0.053,0.059 0.145,0.062 0.158,0.062 0.056,-0.003 0.108,-0.015 0.123,-0.019 0.016,-0.004 0.033,-0.013 0.048,-0.019 l 0.015,-0.007 c 0.006,-0.002 0.019,-0.009 0.037,-0.009 0.021,0 0.041,0.011 0.049,0.031 0.004,0.011 0.004,0.023 -0.002,0.033 -0.011,0.024 -0.039,0.035 -0.047,0.038 -0.033,0.013 -0.098,0.03 -0.17,0.033 L -9.437,1.351 C -9.524,1.353 -9.6,1.339 -9.648,1.306 -9.694,1.273 -9.73,1.224 -9.744,1.164 m 0.762,0.667 c 0.064,0.052 0.123,0.108 0.162,0.154 0.027,0.027 0.049,0.054 0.075,0.084 l 0.022,0.03 c 0,10e-4 0.004,0.005 0.004,0.005 l 0.004,0.004 c 0.01,0.013 0.024,0.025 0.033,0.036 0.045,0.044 0.1,0.082 0.154,0.106 0.056,0.024 0.118,0.036 0.176,0.034 0.057,-0.005 0.116,-0.023 0.17,-0.055 0.03,-0.016 0.057,-0.039 0.09,-0.067 C -8.084,2.155 -8.07,2.14 -8.051,2.118 -8.035,2.101 -8.016,2.08 -7.996,2.059 -7.993,2.056 -7.991,2.053 -7.99,2.053 -7.984,2.046 -7.979,2.04 -7.974,2.034 -7.971,2.028 -7.965,2.022 -7.955,2.014 -7.951,2.009 -7.948,2.005 -7.945,2.002 -7.943,1.999 -7.943,1.998 -7.941,1.997 -7.926,1.979 -7.812,1.858 -7.725,1.793 L -7.834,1.762 -7.996,1.703 -8.205,1.604 -8.414,1.488 -8.702,1.656 -8.822,1.717 -8.941,1.768 -9.029,1.797 c 0.016,0.011 0.033,0.023 0.047,0.034 M -6.803,1.24 C -6.811,1.149 -6.896,1.102 -6.968,1.076 L -6.972,1.072 C -6.975,1.072 -6.98,1.07 -6.982,1.07 -6.986,1.068 -6.99,1.067 -6.999,1.066 c 0,0.075 -0.034,0.131 -0.034,0.133 -0.043,0.09 -0.123,0.123 -0.129,0.126 -0.06,0.028 -0.129,0.042 -0.207,0.042 -0.039,0 -0.072,-0.003 -0.094,-0.007 C -7.52,1.354 -7.559,1.341 -7.582,1.323 -7.584,1.321 -7.588,1.319 -7.592,1.317 -7.595,1.314 -7.598,1.312 -7.6,1.309 -7.602,1.307 -7.604,1.303 -7.604,1.301 -7.613,1.284 -7.615,1.267 -7.606,1.254 -7.595,1.233 -7.57,1.228 -7.538,1.241 c 0.002,0 0.007,0.004 0.007,0.005 0.006,0.002 0.011,0.005 0.017,0.008 l 0.008,0.003 c 0.028,0.01 0.076,0.022 0.142,0.022 l 0.016,0 0.018,0 c 0.05,-0.005 0.138,-0.022 0.184,-0.084 0.027,-0.038 0.038,-0.088 0.027,-0.147 l -0.021,0 c -0.1,0 -0.308,0.014 -0.575,0.099 l -0.117,0.041 -0.178,0.077 -0.011,-0.024 0.002,0.028 -0.027,0.013 0.22,0.113 0.053,0.023 0.158,0.057 0.104,0.026 0.056,0.008 0.053,0.006 c 0.01,0 0.027,0.002 0.048,0.002 0.063,0 0.194,-0.008 0.33,-0.054 0.022,-0.01 0.233,-0.094 0.221,-0.223 m -0.383,-0.282 0.021,0 c -0.038,-0.038 -0.12,-0.1 -0.273,-0.1 -0.035,0 -0.068,0.005 -0.105,0.009 -0.133,0.019 -0.293,0.074 -0.478,0.162 l -0.241,0.132 0.129,0.072 c 0.07,-0.035 0.399,-0.197 0.61,-0.237 0.168,-0.03 0.257,-0.037 0.318,-0.037 L -7.186,0.958 Z M -8.405,1.24 -8.467,1.277 -8.494,1.292 -8.377,1.36 -8.276,1.307 -8.405,1.24 Z M -9.547,0.984 c 0.496,-0.033 0.893,0.207 0.973,0.261 l 0.082,-0.051 -0.346,-0.175 -0.193,-0.086 -0.004,0 C -9.189,0.877 -9.327,0.862 -9.437,0.886 -9.536,0.911 -9.592,0.952 -9.622,0.992 -9.597,0.987 -9.57,0.985 -9.547,0.984 m -0.089,-1.382 c -0.002,0.001 -0.004,0.001 -0.009,0.001 -0.293,0.024 -0.548,0.149 -0.785,0.276 -0.156,0.084 -0.34,0.183 -0.516,0.289 l -0.019,0.01 c -0.053,0.032 -0.103,0.061 -0.156,0.086 -0.053,0.027 -0.108,0.056 -0.163,0.085 -0.179,0.093 -0.362,0.188 -0.565,0.264 -0.071,0.027 -0.318,0.112 -0.563,0.112 -0.145,0 -0.263,-0.031 -0.34,-0.094 -0.051,-0.037 -0.086,-0.089 -0.113,-0.159 -0.115,0.004 -0.219,0.001 -0.322,-0.009 -0.016,0.046 -0.071,0.148 -0.211,0.175 -0.006,0.001 -0.01,0.001 -0.02,0.004 -0.024,0.002 -0.053,0.002 -0.078,0 -10e-4,0 -0.003,-0.002 -0.006,-0.003 -0.01,-0.001 -0.016,-0.002 -0.014,-0.002 -0.105,-0.021 -0.175,-0.093 -0.182,-0.186 0,-0.013 0.009,-0.024 0.02,-0.027 0.014,-0.002 0.026,0.004 0.03,0.017 0,0 0.013,0.033 0.046,0.067 0,0 0,0.002 0.002,0.003 0.02,0.019 0.056,0.043 0.11,0.05 0.002,0 0.005,0 0.01,0.001 0.001,0 0.005,-0.001 0.009,0 0.02,10e-4 0.041,0 0.058,-0.002 0.002,-0.001 0.005,-0.001 0.007,-0.001 0,-0.001 0.008,-0.002 0.01,-0.004 0.001,-0.001 0.003,-0.002 0.005,-0.002 l 0.003,-0.001 c 0.003,-0.001 0.009,-0.003 0.011,-0.003 0.034,-0.018 0.066,-0.055 0.086,-0.1 -0.014,-0.003 -0.027,-0.006 -0.035,-0.007 -0.2,-0.037 -0.299,-0.091 -0.303,-0.093 -0.072,-0.036 -0.135,-0.082 -0.189,-0.139 -0.205,0.152 -0.114,0.416 -0.109,0.427 0.016,0.038 0.036,0.073 0.063,0.106 0.111,0.135 0.294,0.205 0.296,0.205 0.002,0.001 0.002,0.001 0.002,0.002 0.008,0.002 0.017,0.004 0.023,0.008 l 0.01,0.004 c 0.242,0.089 0.484,0.122 0.787,0.107 0.01,-10e-4 0.021,-10e-4 0.033,-0.002 l 0.018,-10e-4 c 0.154,-0.014 0.72,-0.088 1.482,-0.461 0.054,-0.027 0.106,-0.055 0.159,-0.083 l 0.07,-0.037 c 0.076,-0.039 0.148,-0.084 0.22,-0.125 0.034,-0.019 0.067,-0.038 0.107,-0.061 0,-0.001 0.003,-0.002 0.005,-0.002 l 0.005,-0.002 c 0.01,-0.008 0.024,-0.016 0.04,-0.025 0.125,-0.069 0.252,-0.14 0.384,-0.204 0.241,-0.118 0.542,-0.263 0.901,-0.291 0.103,-0.008 0.215,-0.006 0.321,0.003 -0.056,-0.064 -0.2,-0.179 -0.521,-0.179 -0.035,0 -0.07,0.001 -0.109,0.003 l -0.005,0 m -2.702,0.242 c -0.103,0.064 -0.213,0.133 -0.295,0.214 -0.078,0.077 -0.158,0.171 -0.164,0.304 0.127,-0.011 0.234,-0.029 0.301,-0.04 0.209,-0.039 0.388,-0.086 0.534,-0.141 0.062,-0.023 0.114,-0.046 0.165,-0.07 l 0.008,-0.004 c 0.002,0 0.002,0 0.002,-0.001 l 0.004,0 0.006,-0.003 0.002,-0.001 c 0.105,-0.052 0.493,-0.258 0.429,-0.459 -0.017,-0.057 -0.077,-0.084 -0.174,-0.084 -0.185,0 -0.47,0.105 -0.658,0.196 -0.054,0.025 -0.103,0.056 -0.15,0.082 l -0.01,0.007 z m -1.289,0.414 c 0.033,0.021 0.073,0.038 0.121,0.054 0.005,0 0.01,0.002 0.016,0.003 l 0.045,0.014 c 0.03,0.009 0.057,0.015 0.089,0.02 0.027,0.005 0.058,0.008 0.084,0.012 0,-0.038 -0.009,-0.073 -0.027,-0.104 -0.012,-0.024 -0.03,-0.044 -0.053,-0.065 -0.059,-0.046 -0.127,-0.068 -0.204,-0.068 -0.067,0 -0.128,0.019 -0.167,0.033 -0.007,0.003 -0.013,0.005 -0.019,0.009 0.031,0.035 0.07,0.065 0.115,0.092 M -3.002,0.204 C -3.068,0.161 -3.178,0.15 -3.273,0.176 c -0.131,0.037 -0.186,0.135 -0.196,0.217 0.22,-0.03 0.381,-0.094 0.467,-0.189 m -0.421,0.35 c 0.019,0.016 0.042,0.031 0.068,0.041 0.022,0.007 0.046,0.01 0.068,0.01 0.088,0 0.142,-0.053 0.172,-0.097 0.002,-0.006 0.005,-0.01 0.007,-0.015 0.003,-0.007 0.006,-0.011 0.01,-0.017 0.004,-0.008 0.012,-0.013 0.024,-0.013 0.013,0 0.024,0.012 0.024,0.026 0,0.004 0,0.008 -0.002,0.012 C -3.059,0.54 -3.096,0.687 -3.311,0.687 -3.355,0.685 -3.51,0.66 -3.557,0.502 -3.656,0.511 -3.763,0.514 -3.883,0.508 -3.886,0.52 -3.889,0.527 -3.889,0.527 -3.891,0.528 -3.891,0.528 -3.891,0.53 -3.949,0.686 -4.096,0.765 -4.328,0.765 -4.556,0.765 -4.795,0.685 -4.841,0.669 -4.866,0.659 -4.891,0.65 -4.914,0.642 -5.033,0.594 -5.141,0.542 -5.25,0.49 L -5.321,0.456 -5.405,0.413 c -0.19,-0.102 -0.388,-0.209 -0.572,-0.321 -0.28,-0.155 -0.66,-0.355 -0.871,-0.427 -0.164,-0.054 -0.318,-0.07 -0.47,-0.055 -0.162,0.019 -0.309,0.075 -0.419,0.16 -0.005,0.003 -0.007,0.006 -0.011,0.009 0.042,-0.003 0.086,-0.006 0.13,-0.006 0.27,0 0.506,0.067 0.622,0.105 0.092,0.03 0.191,0.071 0.307,0.128 0.229,0.112 0.804,0.437 0.81,0.441 0.256,0.148 0.531,0.301 0.838,0.419 0.356,0.139 0.678,0.218 0.983,0.24 0.144,0.012 0.256,0.012 0.402,0 0.17,-0.011 0.367,-0.062 0.513,-0.127 0.15,-0.069 0.332,-0.196 0.356,-0.417 0.01,-0.121 -0.031,-0.221 -0.131,-0.305 -0.046,0.055 -0.187,0.186 -0.541,0.235 0.008,0.025 0.021,0.046 0.036,0.062 m -2.044,-0.845 0.026,0.009 c 0.019,0.22 0.501,0.428 0.707,0.508 0.05,0.018 0.105,0.036 0.158,0.053 0.139,0.039 0.293,0.075 0.444,0.1 0.048,0.008 0.101,0.014 0.157,0.018 l 0,-0.012 C -3.977,0.273 -4.041,0.162 -4.164,0.056 c 0,-0.002 -0.002,-0.003 -0.002,-0.005 l -0.002,0 -0.006,-0.006 C -4.176,0.043 -4.18,0.041 -4.185,0.036 -4.212,0.015 -4.242,-0.01 -4.275,-0.033 L -4.281,-0.037 -4.289,-0.042 C -4.298,-0.046 -4.305,-0.053 -4.312,-0.058 L -4.32,-0.063 c -0.007,-0.005 -0.014,-0.01 -0.02,-0.015 l -0.01,-0.005 c -0.285,-0.184 -0.676,-0.324 -0.908,-0.324 -0.08,0 -0.137,0.016 -0.162,0.048 -0.01,0.011 -0.021,0.032 -0.021,0.068 l -0.026,0 z m -1.897,2.05 0.007,-10e-4 c 0.018,0 0.037,-0.002 0.054,-0.006 C -7.258,1.746 -7.235,1.735 -7.226,1.731 -7.229,1.73 -7.23,1.729 -7.234,1.728 l -0.002,0 c -0.012,-0.004 -0.03,-0.005 -0.049,-0.005 -0.025,0 -0.102,0.002 -0.193,0.037 0.035,10e-4 0.076,10e-4 0.114,-0.001 m -2.181,0.007 c 0.002,10e-4 0.004,0.002 0.006,0.004 0.042,0.014 0.088,0.022 0.141,0.022 0.044,0 0.087,-0.006 0.121,-0.014 -0.139,-0.044 -0.258,-0.014 -0.258,-0.014 -0.004,10e-4 -0.006,0.002 -0.01,0.002 m -5.686,-2.302 c -0.191,0 -0.39,0.108 -0.39,0.307 0,0.07 0.016,0.125 0.052,0.178 0.073,-0.01 0.151,-0.037 0.21,-0.074 -0.037,-0.04 -0.055,-0.085 -0.055,-0.132 0,-0.077 0.055,-0.139 0.121,-0.139 0.064,0 0.117,0.062 0.117,0.139 0,0.046 -0.022,0.092 -0.064,0.135 0.042,0.026 0.094,0.039 0.153,0.039 0.13,0 0.22,-0.083 0.22,-0.203 0,-0.172 -0.184,-0.25 -0.364,-0.25 m -0.062,0.217 c -0.024,0 -0.045,0.028 -0.045,0.062 0,0.032 0.012,0.061 0.037,0.088 0.03,-0.029 0.047,-0.06 0.047,-0.088 0,-0.035 -0.017,-0.062 -0.039,-0.062" /></g><g
           transform="translate(22.0303,33.8594)"
           id="g144"><path
             id="path146"
             style="fill:#671c28;fill-opacity:1;fill-rule:nonzero;stroke:none"
             d="m 0,0 c -0.244,0 -0.442,-0.122 -0.567,-0.226 -0.025,-0.02 -0.05,-0.044 -0.076,-0.066 -0.128,-0.109 -0.25,-0.215 -0.393,-0.224 0.041,0.068 0.057,0.12 0.057,0.191 0,0.236 -0.265,0.384 -0.509,0.384 -0.237,0 -0.486,-0.116 -0.486,-0.328 0,-0.171 0.175,-0.28 0.337,-0.28 0.058,0 0.141,0.013 0.216,0.068 0.057,-0.04 0.132,-0.072 0.212,-0.09 -0.094,-0.09 -0.227,-0.137 -0.375,-0.137 -0.256,0 -0.398,0.14 -0.537,0.276 -0.027,0.027 -0.054,0.053 -0.081,0.078 -0.232,0.213 -0.446,0.309 -0.697,0.309 -0.152,0 -0.273,-0.05 -0.395,-0.159 -0.009,-0.005 -0.013,-0.007 -0.019,-0.01 -0.005,-0.005 -0.01,-0.012 -0.01,-0.02 0,-0.006 0.002,-0.014 0.009,-0.02 0.005,-0.007 0.011,-0.011 0.02,-0.015 0.002,-0.002 0.007,-0.002 0.011,-0.003 0.016,-0.008 0.037,-0.01 0.054,-0.011 0.012,-0.002 0.023,-0.003 0.035,-0.005 0.118,-0.027 0.255,-0.137 0.269,-0.264 0.003,-0.035 -0.002,-0.068 -0.013,-0.092 0,-0.001 0,-0.002 0,-0.003 -10e-4,-0.001 -0.002,-0.004 -0.002,-0.005 -0.031,0.015 -0.093,0.043 -0.152,0.051 -0.032,0.005 -0.063,0.005 -0.096,0.002 -0.006,0 -0.013,-0.001 -0.024,-0.001 0,0 -0.009,-0.001 -0.009,-0.002 -0.05,-0.007 -0.097,-0.023 -0.14,-0.043 -0.003,-0.002 -0.005,-0.003 -0.008,-0.004 -0.049,-0.028 -0.084,-0.058 -0.106,-0.08 C -3.477,-0.731 -3.479,-0.733 -3.48,-0.737 -3.484,-0.74 -3.488,-0.746 -3.493,-0.75 -3.494,-0.753 -3.498,-0.756 -3.498,-0.758 -3.5,-0.761 -3.5,-0.762 -3.5,-0.763 c -0.009,-0.011 -0.018,-0.025 -0.024,-0.036 -0.003,-0.002 -0.035,-0.058 -0.037,-0.132 -0.087,-0.005 -0.186,-0.003 -0.272,0 -10e-4,0.003 -0.002,0.003 -0.004,0.003 l -0.02,0.001 c 0.009,0.31 -0.429,0.607 -0.446,0.619 -0.004,0.003 -0.008,0.006 -0.016,0.012 -0.019,0.014 -0.033,0.023 -0.041,0.027 -0.003,0.003 -0.007,0.005 -0.012,0.007 -0.145,0.094 -0.312,0.166 -0.493,0.217 -0.132,0.035 -0.243,0.057 -0.385,0.044 -0.102,-0.01 -0.187,-0.056 -0.231,-0.124 0,0 -0.005,-0.005 -0.009,-0.018 -0.012,-0.024 -0.021,-0.05 -0.021,-0.076 -0.011,-0.112 0.052,-0.288 0.407,-0.479 0.073,-0.039 0.143,-0.072 0.206,-0.098 0.199,-0.085 0.402,-0.141 0.639,-0.182 0.101,-0.016 0.196,-0.03 0.288,-0.039 -0.05,-0.115 -0.193,-0.156 -0.211,-0.162 l -0.004,0 c -0.089,-0.017 -0.207,-0.01 -0.335,0.018 -0.006,0.002 -0.012,0.003 -0.018,0.004 l -0.012,0.004 -0.002,0 c -0.003,0.001 -0.008,0.002 -0.011,0.002 -0.209,0.057 -0.596,0.268 -0.752,0.356 l -0.081,0.047 c -0.003,0 -0.003,0.001 -0.003,0.001 -0.03,0.016 -0.055,0.032 -0.083,0.048 -0.046,0.024 -0.091,0.05 -0.137,0.076 -0.132,0.079 -0.267,0.148 -0.405,0.218 -0.036,0.018 -0.075,0.037 -0.111,0.054 l -0.009,0.003 c -0.071,0.039 -0.146,0.075 -0.226,0.106 -0.236,0.107 -0.47,0.174 -0.691,0.194 -0.053,0.006 -0.109,0.009 -0.167,0.009 l -0.011,0 c -0.078,-0.001 -0.121,-0.009 -0.121,-0.009 -0.006,-0.001 -0.016,-0.003 -0.025,-0.005 -0.003,0 -0.005,0 -0.008,-0.001 -0.008,-0.002 -0.019,-0.004 -0.033,-0.006 L -7.451,-0.066 C -7.459,-0.067 -7.463,-0.068 -7.473,-0.07 l -0.01,-0.004 C -7.497,-0.078 -7.51,-0.082 -7.522,-0.085 -7.527,-0.086 -7.531,-0.089 -7.536,-0.09 L -7.541,-0.093 C -7.686,-0.142 -7.808,-0.215 -7.906,-0.314 -7.914,-0.315 -7.932,-0.322 -7.953,-0.328 L -7.968,-0.332 C -7.984,-0.339 -8,-0.345 -8.018,-0.351 c -0.105,-0.04 -0.252,-0.104 -0.359,-0.202 -0.049,0.045 -0.191,0.16 -0.427,0.228 -0.063,0.074 -0.138,0.138 -0.226,0.187 -0.044,0.028 -0.095,0.049 -0.15,0.068 -0.041,0.012 -0.065,0.017 -0.065,0.017 -0.123,0.028 -0.266,0.034 -0.417,0.018 -0.07,-0.006 -0.151,-0.021 -0.235,-0.04 -10e-4,-0.001 -0.11,-0.027 -0.146,-0.042 l 0,0.001 c -0.129,-0.039 -0.27,-0.093 -0.433,-0.162 -0.081,-0.034 -0.169,-0.073 -0.266,-0.122 l -0.006,-0.005 c -0.031,-0.016 -0.063,-0.032 -0.092,-0.048 l -0.152,-0.082 c -0.129,-0.07 -0.258,-0.142 -0.393,-0.215 -0.03,-0.017 -0.06,-0.034 -0.092,-0.054 -0.128,-0.072 -0.259,-0.147 -0.404,-0.208 -0.09,-0.039 -0.18,-0.072 -0.277,-0.101 -0.088,-0.028 -0.191,-0.045 -0.277,-0.045 -0.067,0 -0.126,0.01 -0.169,0.027 -0.084,0.034 -0.138,0.084 -0.162,0.149 0.09,0.005 0.182,0.017 0.273,0.032 0.081,0.013 0.163,0.03 0.245,0.05 0.143,0.035 0.285,0.083 0.423,0.139 0.118,0.051 0.249,0.107 0.364,0.198 0.055,0.043 0.103,0.09 0.144,0.14 0.034,0.042 0.092,0.127 0.092,0.219 0,0.034 -0.009,0.069 -0.029,0.1 -0.003,0.005 -0.008,0.011 -0.012,0.017 -0.002,0.002 -0.002,0.003 -0.005,0.005 -0.061,0.076 -0.178,0.111 -0.336,0.106 -0.135,-0.006 -0.276,-0.039 -0.444,-0.102 -0.138,-0.052 -0.258,-0.124 -0.356,-0.189 -0.126,-0.083 -0.22,-0.164 -0.294,-0.257 -0.078,-0.094 -0.161,-0.206 -0.174,-0.361 -0.107,-0.007 -0.209,-0.007 -0.298,0 -0.005,0.077 -0.04,0.139 -0.042,0.142 -0.066,0.129 -0.209,0.198 -0.382,0.186 -0.006,0 -0.012,0 -0.018,-0.001 -0.004,0 -0.006,0 -0.014,-0.001 -0.004,0 -0.008,-0.002 -0.01,-0.002 0,0 -0.007,-0.001 -0.009,-0.001 0,0 -0.007,0 -0.009,0 -0.048,-0.008 -0.089,-0.021 -0.128,-0.037 -0.029,0.063 -0.002,0.143 0.019,0.18 0.057,0.097 0.165,0.163 0.297,0.18 l 0.006,0 c 0.01,0 0.025,0 0.036,0.003 0.003,0.001 0.007,0.002 0.009,0.005 0.012,0.004 0.022,0.017 0.025,0.031 0,0.008 -0.002,0.016 -0.006,0.022 -0.004,0.006 -0.011,0.009 -0.016,0.01 -0.122,0.111 -0.245,0.16 -0.394,0.16 -0.252,0 -0.466,-0.095 -0.698,-0.307 -0.028,-0.026 -0.054,-0.052 -0.081,-0.079 -0.139,-0.135 -0.283,-0.277 -0.539,-0.277 -0.147,0 -0.277,0.049 -0.374,0.137 0.081,0.019 0.153,0.051 0.214,0.091 0.072,-0.055 0.155,-0.067 0.212,-0.067 0.165,0 0.34,0.106 0.34,0.281 0,0.211 -0.249,0.326 -0.485,0.326 -0.245,0 -0.509,-0.148 -0.509,-0.384 0,-0.07 0.014,-0.125 0.054,-0.191 -0.142,0.01 -0.263,0.114 -0.391,0.224 l -0.078,0.067 c -0.123,0.103 -0.323,0.225 -0.567,0.225 -0.203,0 -0.361,-0.113 -0.361,-0.257 0,-0.145 0.156,-0.259 0.351,-0.259 0.201,0 0.337,0.107 0.337,0.206 0,0.019 -0.005,0.042 -0.014,0.066 -0.004,0.009 -0.014,0.014 -0.024,0.017 l -0.018,0 c -0.017,0 -0.076,-0.006 -0.099,-0.075 -0.031,-0.088 -0.071,-0.135 -0.19,-0.135 -0.128,0 -0.264,0.069 -0.264,0.18 0,0.103 0.12,0.179 0.282,0.179 0.191,0 0.352,-0.12 0.486,-0.239 0.145,-0.128 0.339,-0.275 0.565,-0.275 0.016,0 0.031,0 0.046,0.001 0.118,-0.119 0.303,-0.195 0.487,-0.195 0.362,0 0.613,0.18 0.813,0.355 0.025,0.022 0.046,0.045 0.072,0.07 0.125,0.123 0.243,0.239 0.433,0.239 0.102,0 0.188,-0.027 0.276,-0.087 -0.043,-0.01 -0.088,-0.026 -0.127,-0.047 -0.133,-0.07 -0.26,-0.211 -0.205,-0.393 0.002,-0.007 0.004,-0.014 0.007,-0.021 0.001,-0.003 0.002,-0.004 0.002,-0.006 -0.055,-0.04 -0.21,-0.174 -0.165,-0.418 l 0,-0.008 c 0.007,-0.048 0.024,-0.094 0.041,-0.132 0.074,-0.154 0.211,-0.267 0.434,-0.359 0.108,-0.044 0.208,-0.064 0.353,-0.088 0.135,-0.021 0.287,-0.032 0.444,-0.032 0.294,0 0.608,0.038 0.864,0.104 0.344,0.091 0.627,0.236 0.883,0.38 0.148,0.084 0.287,0.171 0.422,0.255 0.182,0.118 0.356,0.228 0.555,0.331 0.143,0.072 0.256,0.122 0.382,0.164 0.001,0 0.015,0.004 0.041,0.011 l 0.022,0.006 c 0.002,0.001 0.006,0.002 0.006,0.003 0.074,0.022 0.217,0.056 0.351,0.059 0.052,0.004 0.107,0.004 0.16,-0.001 l 0.018,-0.001 c 0.03,-0.002 0.065,-0.004 0.094,-0.009 0.005,0 0.009,-0.001 0.012,-0.001 0.058,-0.073 0.115,-0.16 0.162,-0.253 0.03,-0.062 0.05,-0.126 0.068,-0.186 -0.086,-0.02 -0.17,-0.044 -0.244,-0.078 -0.003,-0.001 -0.006,-0.002 -0.01,-0.004 -0.004,-0.002 -0.011,-0.004 -0.016,-0.007 l -0.015,-0.007 c -0.002,-0.001 -0.005,-0.002 -0.01,-0.005 -0.035,-0.019 -0.054,-0.029 -0.054,-0.029 -10e-4,-0.001 -10e-4,-0.002 -0.002,-0.002 -0.036,-0.022 -0.063,-0.043 -0.09,-0.065 -0.109,-0.094 -0.17,-0.185 -0.193,-0.289 -0.009,-0.029 -0.012,-0.07 -0.011,-0.099 0.002,-0.081 0.034,-0.148 0.097,-0.202 0.014,-0.012 0.103,-0.082 0.239,-0.064 0,0 0.012,0.002 0.012,0.004 0.01,0 0.019,0.002 0.022,0.003 0.002,0 0.004,0 0.005,0.001 0.02,0.006 0.041,0.011 0.069,0.024 0.23,0.106 0.352,0.39 0.321,0.742 0.151,0.022 0.286,0.021 0.415,-0.001 0,-0.004 0,-0.008 -0.001,-0.012 l -0.002,-0.007 0,-0.008 c -0.007,-0.087 0,-0.176 0.019,-0.266 0.047,-0.235 0.168,-0.404 0.338,-0.466 0.131,-0.05 0.266,-0.025 0.345,0.062 0.053,0.059 0.077,0.141 0.069,0.231 -0.043,0.328 -0.41,0.467 -0.57,0.513 -0.022,0.006 -0.045,0.012 -0.069,0.018 0.024,0.093 0.053,0.163 0.066,0.19 0.042,0.091 0.092,0.17 0.151,0.242 0.003,0.002 0.006,0.006 0.008,0.01 0,0 0,0.001 0.002,0.001 l 0.023,0.002 c 0.002,0 0.002,0.001 0.004,0.001 0.01,0.001 0.021,0.005 0.036,0.005 l 0.009,0.001 c 0.002,0 0.004,0 0.006,0.001 0.01,0.001 0.021,0.002 0.029,0.002 l 0.022,0.001 c 0.171,0.014 0.336,-0.009 0.527,-0.064 0.363,-0.107 0.654,-0.295 0.935,-0.475 0.008,-0.004 0.604,-0.387 0.981,-0.554 0.318,-0.139 0.648,-0.22 1.008,-0.248 0.092,-0.007 0.183,-0.011 0.273,-0.011 0.434,0 0.791,0.08 1.004,0.227 0.106,0.072 0.181,0.158 0.225,0.253 0.017,0.043 0.033,0.093 0.038,0.131 0.025,0.198 -0.062,0.314 -0.165,0.408 0.041,0.078 0.039,0.167 -0.005,0.254 -0.003,0.006 -0.005,0.009 -0.009,0.012 l 0,0.001 c -0.004,0.009 -0.008,0.017 -0.012,0.024 -0.002,0.002 -0.002,0.004 -0.004,0.006 -0.054,0.08 -0.148,0.146 -0.253,0.18 -0.012,0.004 -0.024,0.008 -0.037,0.012 0.089,0.063 0.179,0.092 0.281,0.092 0.191,0 0.31,-0.117 0.435,-0.241 0.023,-0.022 0.047,-0.045 0.072,-0.069 0.198,-0.176 0.45,-0.356 0.811,-0.356 0.184,0 0.371,0.077 0.486,0.196 0.015,-0.001 0.032,-0.001 0.048,-0.001 0.225,0 0.419,0.149 0.564,0.277 0.132,0.118 0.298,0.238 0.486,0.238 0.16,0 0.282,-0.077 0.282,-0.181 0,-0.109 -0.137,-0.179 -0.264,-0.179 -0.118,0 -0.157,0.046 -0.19,0.136 -0.023,0.068 -0.08,0.073 -0.098,0.073 -0.007,0 -0.014,0 -0.019,0 -0.01,0 -0.018,-0.007 -0.023,-0.015 -0.006,-0.017 -0.013,-0.041 -0.013,-0.068 0,-0.097 0.134,-0.204 0.337,-0.204 0.195,0 0.347,0.115 0.347,0.257 C 0.361,-0.113 0.203,0 0,0 m -1.489,-0.018 c 0.19,0 0.391,-0.108 0.391,-0.307 0,-0.068 -0.019,-0.125 -0.054,-0.18 -0.073,0.013 -0.151,0.04 -0.21,0.076 0.036,0.041 0.054,0.086 0.054,0.132 0,0.076 -0.054,0.141 -0.12,0.141 -0.064,0 -0.118,-0.063 -0.118,-0.141 0,-0.045 0.023,-0.092 0.066,-0.135 -0.042,-0.025 -0.096,-0.038 -0.157,-0.038 -0.128,0 -0.218,0.082 -0.218,0.201 10e-4,0.173 0.185,0.251 0.366,0.251 m 0.061,-0.216 c 0.024,0 0.043,-0.028 0.043,-0.063 0,-0.032 -0.013,-0.061 -0.036,-0.088 -0.031,0.031 -0.048,0.061 -0.048,0.088 0,0.036 0.019,0.063 0.041,0.063 m -2.217,-1.388 c -0.145,-0.012 -0.255,-0.012 -0.401,0 -0.306,0.023 -0.627,0.101 -0.985,0.24 -0.268,0.106 -0.508,0.234 -0.729,0.358 0,0 -0.002,0.002 -0.003,0.002 -0.031,0.017 -0.063,0.035 -0.092,0.053 -0.032,0.018 -0.061,0.034 -0.091,0.051 -0.333,0.188 -0.729,0.395 -0.738,0.399 -0.111,0.054 -0.209,0.094 -0.3,0.125 -0.118,0.039 -0.352,0.105 -0.622,0.105 -0.044,0 -0.083,-0.003 -0.126,-0.006 0.006,0.006 0.01,0.01 0.015,0.014 l 0.006,0.004 0.004,0.005 0.004,0.002 c 0.002,0.001 0.004,0.003 0.006,0.005 l 0.001,0 c 0.108,0.077 0.237,0.122 0.389,0.138 0.153,0.016 0.307,-0.002 0.471,-0.053 0.115,-0.041 0.294,-0.123 0.53,-0.245 0.007,-0.004 0.622,-0.351 0.828,-0.458 l 0.056,-0.028 c 0.037,-0.022 0.074,-0.04 0.114,-0.063 l 0.072,-0.034 c 0.091,-0.043 0.187,-0.088 0.287,-0.13 0.013,-0.007 0.332,-0.147 0.625,-0.147 0.233,0 0.385,0.089 0.451,0.263 0.095,0 0.197,0.001 0.323,0.005 0.017,-0.051 0.064,-0.139 0.181,-0.174 0.072,-0.018 0.147,-0.013 0.209,0.018 0.099,0.055 0.119,0.159 0.12,0.163 0.002,0.014 -0.005,0.026 -0.017,0.029 -0.011,0.004 -0.025,-0.001 -0.031,-0.012 L -3.092,-1.002 C -3.097,-1.009 -3.1,-1.017 -3.104,-1.021 -3.133,-1.067 -3.188,-1.12 -3.273,-1.12 c -0.024,0 -0.048,0.002 -0.071,0.01 -0.023,0.008 -0.048,0.022 -0.065,0.038 -0.017,0.018 -0.03,0.041 -0.038,0.066 0.164,0.029 0.283,0.067 0.378,0.115 10e-4,0.001 10e-4,0.001 0.002,0.001 0.004,0.003 0.09,0.042 0.159,0.119 0.101,-0.084 0.144,-0.185 0.133,-0.306 -0.024,-0.222 -0.206,-0.35 -0.356,-0.417 -0.146,-0.067 -0.342,-0.115 -0.514,-0.128 m -1.601,1.513 c 0.215,0 0.578,-0.122 0.86,-0.292 l 0.014,-0.009 c 0.011,-0.007 0.022,-0.016 0.034,-0.024 0.005,-0.003 0.008,-0.004 0.008,-0.004 l 0.033,-0.021 c 0.006,-0.005 0.011,-0.009 0.016,-0.013 0.123,-0.087 0.322,-0.259 0.326,-0.447 -0.033,0.003 -0.063,0.008 -0.089,0.011 -0.192,0.03 -0.385,0.073 -0.56,0.125 -0.081,0.027 -0.8,0.276 -0.826,0.553 l 0,0.006 c 0,0.037 0.014,0.056 0.02,0.068 0.027,0.03 0.084,0.047 0.164,0.047 m 1.908,-0.789 c -0.037,-0.009 -0.078,-0.016 -0.121,-0.022 0.006,0.093 0.066,0.191 0.195,0.229 0.035,0.009 0.075,0.013 0.111,0.013 0.065,0 0.122,-0.015 0.165,-0.043 -0.071,-0.086 -0.184,-0.142 -0.35,-0.177 m -4.418,-0.133 c 0.003,-0.004 0.008,-0.005 0.008,-0.005 0.041,-0.027 0.076,-0.058 0.108,-0.091 0.002,-0.002 0.002,-0.003 0.003,-0.004 0.018,-0.018 0.035,-0.035 0.047,-0.052 0.002,-0.004 0.004,-0.008 0.012,-0.017 0.004,-0.007 0.008,-0.012 0.012,-0.021 0.046,-0.07 0.091,-0.172 0.06,-0.267 -0.002,-0.01 -0.029,-0.092 -0.144,-0.108 -0.014,-0.002 -0.031,-0.002 -0.044,0 -0.154,0.018 -0.271,0.203 -0.274,0.205 -0.1,0.161 -0.104,0.345 -0.096,0.44 10e-4,0.008 10e-4,0.015 0.002,0.02 0,0.007 0.003,0.014 0.003,0.023 0.05,-0.01 0.163,-0.037 0.281,-0.111 0.005,-0.002 0.01,-0.005 0.013,-0.007 l 0.009,-0.005 z m -1.075,-0.416 -0.005,-0.008 c -0.076,-0.086 -0.156,-0.131 -0.238,-0.131 -0.041,0 -0.074,0.012 -0.092,0.021 -0.003,0.002 -0.008,0.003 -0.012,0.004 L -9.18,-1.56 c -0.041,0.025 -0.066,0.057 -0.077,0.1 -0.027,0.109 0.061,0.244 0.061,0.246 0.007,0.009 0.011,0.018 0.018,0.026 0.074,0.098 0.219,0.226 0.49,0.282 C -8.67,-1.03 -8.68,-1.148 -8.723,-1.258 -8.738,-1.297 -8.76,-1.336 -8.786,-1.385 -8.791,-1.392 -8.795,-1.398 -8.801,-1.404 -8.807,-1.413 -8.811,-1.42 -8.818,-1.43 -8.822,-1.436 -8.826,-1.442 -8.831,-1.447 m 0.298,0.896 0.073,-0.058 c 0.003,-0.001 0.005,-0.003 0.005,-0.004 l 0.02,-0.019 c 0.017,-0.013 0.039,-0.03 0.042,-0.032 0.004,-0.002 0.008,-0.004 0.012,-0.004 0.016,0 0.027,0.011 0.07,0.05 l 0.014,0.014 c 0.004,0.002 0.007,0.005 0.014,0.009 0.018,0.016 0.138,0.1 0.26,0.151 0.005,0.001 0.007,0.003 0.011,0.003 l -0.002,-0.003 c -0.004,-0.007 -0.104,-0.143 -0.146,-0.361 -0.086,0.014 -0.17,0.022 -0.25,0.022 -0.065,0 -0.127,-0.005 -0.188,-0.013 -0.023,0.132 -0.063,0.247 -0.121,0.348 0.062,-0.024 0.125,-0.057 0.186,-0.103 M -10.6,-0.788 c -0.049,-0.026 -0.099,-0.056 -0.149,-0.086 -0.073,-0.044 -0.147,-0.087 -0.224,-0.128 l -0.044,-0.022 c -0.237,-0.124 -0.482,-0.253 -0.754,-0.354 -0.049,-0.018 -0.102,-0.034 -0.154,-0.049 -0.025,-0.007 -0.048,-0.012 -0.071,-0.019 -0.195,-0.057 -0.455,-0.125 -0.74,-0.14 -0.297,-0.014 -0.541,0.021 -0.785,0.107 -0.011,0.004 -0.023,0.009 -0.036,0.016 -0.003,0.001 -0.006,0.001 -0.007,0.001 -0.035,0.015 -0.19,0.083 -0.289,0.202 -0.028,0.034 -0.046,0.071 -0.062,0.108 -0.005,0.011 -0.097,0.271 0.108,0.425 0.055,-0.055 0.118,-0.103 0.19,-0.137 0.004,-0.002 0.115,-0.064 0.338,-0.101 -0.002,-0.005 -0.004,-0.012 -0.007,-0.017 -0.018,-0.039 -0.048,-0.069 -0.099,-0.088 -0.004,-0.002 -0.008,-0.003 -0.008,-0.003 -0.027,-0.007 -0.056,-0.008 -0.084,-0.003 l -0.006,0 c -0.002,0.001 -0.007,0.001 -0.009,0.003 0,0 -0.006,10e-4 -0.007,10e-4 -0.021,0.005 -0.038,0.011 -0.056,0.021 0,10e-4 -0.002,0.003 -0.005,0.003 -0.016,0.01 -0.03,0.022 -0.042,0.035 -0.025,0.029 -0.035,0.056 -0.035,0.056 -0.004,0.012 -0.015,0.02 -0.029,0.018 -0.012,-0.004 -0.021,-0.014 -0.021,-0.028 0.007,-0.1 0.086,-0.174 0.208,-0.19 0.043,-0.005 0.081,-10e-4 0.114,0.009 0.002,10e-4 0.008,0.002 0.01,0.003 l 0.003,0 c 0.002,0 0.006,0.001 0.009,0.005 0.021,0.007 0.039,0.018 0.06,0.03 0.058,0.043 0.088,0.101 0.099,0.132 0.102,-0.01 0.209,-0.014 0.33,-0.009 0.028,-0.072 0.063,-0.122 0.114,-0.159 0.077,-0.062 0.192,-0.093 0.342,-0.093 0.243,0 0.49,0.083 0.561,0.109 0.202,0.076 0.384,0.171 0.562,0.264 0.054,0.028 0.111,0.057 0.166,0.086 0.045,0.023 0.09,0.048 0.136,0.074 l 0.038,0.023 c 0.169,0.1 0.349,0.199 0.517,0.287 0.236,0.127 0.493,0.253 0.787,0.278 0.003,10e-4 0.007,10e-4 0.01,10e-4 0.113,0.008 0.211,0.005 0.295,-0.011 l 0.008,0 0.015,-0.004 c 0.017,-0.004 0.032,-0.007 0.046,-0.011 0.086,-0.025 0.167,-0.075 0.242,-0.149 -0.099,0.01 -0.202,0.01 -0.297,0.001 -0.357,-0.026 -0.659,-0.174 -0.901,-0.291 -0.131,-0.063 -0.252,-0.13 -0.387,-0.206 m -2.668,-0.06 0,-0.012 0,-0.016 c -0.054,0.007 -0.111,0.016 -0.165,0.032 -0.016,0.004 -0.032,0.009 -0.046,0.012 -0.008,0.002 -0.013,0.005 -0.021,0.008 -0.044,0.015 -0.082,0.031 -0.115,0.05 -0.047,0.027 -0.086,0.057 -0.115,0.093 0.005,0.002 0.011,0.006 0.019,0.009 0.031,0.012 0.094,0.033 0.165,0.033 0.033,0 0.066,-0.005 0.095,-0.012 0.013,-0.003 0.039,-0.013 0.064,-0.028 0.04,-0.024 0.108,-0.077 0.119,-0.169 m 1.504,0.231 c 0,-0.001 -0.002,-0.001 -0.003,-0.002 -0.003,-0.001 -0.008,-0.003 -0.01,-0.004 -0.003,-0.002 -0.005,-0.003 -0.006,-0.004 l -0.003,-0.001 c -0.053,-0.024 -0.105,-0.046 -0.164,-0.067 -0.147,-0.057 -0.325,-0.103 -0.532,-0.141 -0.07,-0.014 -0.178,-0.03 -0.301,-0.042 0.004,0.134 0.086,0.227 0.164,0.304 0.078,0.081 0.184,0.147 0.287,0.21 l 0.014,0.01 c 0.048,0.03 0.097,0.057 0.153,0.083 0.186,0.091 0.469,0.197 0.657,0.197 0.097,0 0.156,-0.028 0.174,-0.084 0.063,-0.199 -0.323,-0.407 -0.43,-0.459 m -3.311,0.185 c -0.061,0 -0.112,0.013 -0.154,0.039 0.042,0.042 0.065,0.088 0.065,0.134 0,0.078 -0.053,0.141 -0.117,0.141 -0.067,0 -0.121,-0.063 -0.121,-0.141 0,-0.047 0.019,-0.092 0.054,-0.132 -0.058,-0.035 -0.136,-0.062 -0.21,-0.075 -0.036,0.053 -0.051,0.111 -0.051,0.18 0,0.199 0.199,0.306 0.389,0.306 0.181,0 0.365,-0.078 0.365,-0.249 0,-0.121 -0.09,-0.203 -0.22,-0.203 m -0.206,0.236 c 0.022,0 0.039,-0.028 0.039,-0.063 0,-0.027 -0.016,-0.056 -0.047,-0.089 -0.025,0.028 -0.037,0.059 -0.037,0.089 0,0.033 0.02,0.063 0.045,0.063" /></g><g
           transform="translate(22.7998,36.1426)"
           id="g148"><path
             id="path150"
             style="fill:#201c1b;fill-opacity:1;fill-rule:nonzero;stroke:none"
             d="m 0,0 c 0.106,0.103 0.15,0.185 0.15,0.25 0,0.086 -0.031,0.103 -0.067,0.103 -0.009,0.074 0.05,0.137 0.118,0.137 0.088,0 0.131,-0.055 0.131,-0.146 0,-0.113 -0.1,-0.276 -0.291,-0.401 L 0,0 Z" /></g><g
           transform="translate(2.999,35.0566)"
           id="g152"><path
             id="path154"
             style="fill:#201c1b;fill-opacity:1;fill-rule:nonzero;stroke:none"
             d="m 0,0 0,1.062 c 0,0.183 -0.035,0.219 -0.061,0.256 l 0.018,0.04 0.406,0.011 C 0.668,1.378 0.807,1.204 0.807,1.041 0.807,0.9 0.718,0.788 0.584,0.709 0.756,0.66 0.908,0.544 0.908,0.309 0.908,0.026 0.692,-0.155 0.361,-0.155 l -0.363,0 C 0.002,-0.08 0,0 0,0 M 0.23,0.635 C 0.227,0.384 0.227,0.135 0.233,-0.045 l 0.15,0 c 0.228,0 0.32,0.141 0.32,0.278 0,0.26 -0.164,0.387 -0.375,0.396 L 0.23,0.635 Z m 0.279,0.09 c 0.046,0.044 0.102,0.125 0.102,0.252 0,0.169 -0.113,0.268 -0.258,0.266 L 0.242,1.241 c 0,-0.062 0,-0.147 -0.003,-0.247 C 0.237,0.912 0.23,0.826 0.23,0.739 l 0.123,0 c 0.05,0 0.1,-0.005 0.156,-0.014" /></g><g
           transform="translate(4.8242,34.9014)"
           id="g156"><path
             id="path158"
             style="fill:#201c1b;fill-opacity:1;fill-rule:nonzero;stroke:none"
             d="m 0,0 c 0.002,0.075 0.004,0.155 0.004,1.224 0,0.18 -0.034,0.213 -0.06,0.252 l 0.017,0.04 c 0,0 0.07,0.03 0.159,0.03 0.039,0 0.086,-0.007 0.129,-0.028 C 0.239,1.261 0.227,0.923 0.227,0.606 c 0,-0.16 0,-0.353 0.008,-0.479 l 0.264,0 c 0.135,0 0.229,0.054 0.242,0.122 l 0.043,0 C 0.813,0.208 0.806,0.048 0.755,0 L 0,0 Z" /></g><g
           transform="translate(9.2471,36.4424)"
           id="g160"><path
             id="path162"
             style="fill:#201c1b;fill-opacity:1;fill-rule:nonzero;stroke:none"
             d="m 0,0 c 0.334,0 0.611,-0.26 0.611,-0.757 -0.008,-0.458 -0.292,-0.814 -0.747,-0.814 -0.288,0 -0.583,0.262 -0.583,0.761 C -0.719,-0.334 -0.414,0 0,0 m -0.024,-1.434 c 0.219,0 0.384,0.27 0.384,0.599 0,0.379 -0.204,0.692 -0.44,0.692 -0.224,0 -0.391,-0.266 -0.391,-0.593 0,-0.357 0.195,-0.698 0.447,-0.698" /></g><g
           transform="translate(13.3691,35.1035)"
           id="g164"><path
             id="path166"
             style="fill:#201c1b;fill-opacity:1;fill-rule:nonzero;stroke:none"
             d="m 0,0 c 0,0.025 0.009,0.05 0.024,0.076 0.02,-0.066 0.2,-0.146 0.344,-0.146 0.135,0 0.286,0.045 0.286,0.21 0,0.308 -0.647,0.374 -0.647,0.793 0,0.202 0.146,0.412 0.426,0.412 0.189,0 0.298,-0.066 0.361,-0.103 C 0.811,1.187 0.813,1.049 0.755,0.99 L 0.713,1 C 0.659,1.164 0.497,1.222 0.407,1.222 0.304,1.222 0.185,1.159 0.185,1.026 c 0,-0.3 0.689,-0.357 0.689,-0.819 0,-0.239 -0.199,-0.439 -0.496,-0.439 C 0.179,-0.232 0,-0.12 0,0" /></g><g
           transform="translate(17.7275,34.8691)"
           id="g168"><path
             id="path170"
             style="fill:#201c1b;fill-opacity:1;fill-rule:nonzero;stroke:none"
             d="m 0,0 c -0.314,0 -0.542,0.105 -0.554,0.513 -0.005,0.175 -0.012,0.37 -0.012,0.744 0,0.18 -0.034,0.213 -0.06,0.251 l 0.017,0.04 c 0,0 0.072,0.03 0.158,0.03 0.042,0 0.088,-0.007 0.131,-0.028 -0.012,-0.284 -0.012,-0.665 -0.012,-1.007 0,-0.338 0.218,-0.389 0.352,-0.389 0.228,0 0.393,0.14 0.406,0.308 0,0 0.01,0.074 0.01,0.799 0,0.135 -0.021,0.203 -0.061,0.247 l 0.016,0.04 C 0.415,1.563 0.461,1.575 0.506,1.575 0.547,1.575 0.59,1.565 0.61,1.55 0.596,1.244 0.588,0.893 0.588,0.531 0.588,0.234 0.375,0 0,0" /></g><g
           transform="translate(7.0391,36.4424)"
           id="g172"><path
             id="path174"
             style="fill:#201c1b;fill-opacity:1;fill-rule:nonzero;stroke:none"
             d="M 0,0 C 0.335,0 0.612,-0.26 0.612,-0.757 0.604,-1.215 0.319,-1.571 -0.136,-1.571 -0.424,-1.571 -0.72,-1.309 -0.72,-0.81 -0.72,-0.334 -0.413,0 0,0 m -0.025,-1.434 c 0.222,0 0.387,0.27 0.387,0.599 0,0.379 -0.205,0.692 -0.441,0.692 -0.225,0 -0.392,-0.266 -0.392,-0.593 0,-0.357 0.195,-0.698 0.446,-0.698" /></g><g
           transform="translate(11.5166,34.873)"
           id="g176"><path
             id="path178"
             style="fill:#201c1b;fill-opacity:1;fill-rule:nonzero;stroke:none"
             d="m 0,0 c -0.113,0.021 -0.154,0.125 -0.168,0.176 l -0.38,0.931 c -0.016,0.04 -0.036,0.123 -0.039,0.133 0.003,-0.033 0.005,-0.112 0.005,-0.152 -0.005,-0.276 -0.01,-0.716 -0.016,-0.94 0,-0.042 0.002,-0.092 0.008,-0.12 l -0.167,0 0.005,0.037 c 0.027,0.509 0.048,1.162 0.05,1.352 -0.032,0.06 -0.055,0.084 -0.062,0.087 l 0.016,0.04 c 0.039,0.014 0.094,0.03 0.158,0.03 0.056,0 0.114,-0.012 0.145,-0.034 0.06,-0.237 0.404,-1.067 0.507,-1.286 0.429,1.095 0.459,1.171 0.471,1.207 0.033,0.088 0.16,0.091 0.309,0.103 C 0.833,1.443 0.84,1.423 0.833,1.187 0.828,0.838 0.84,0.434 0.848,0.165 0.852,0.123 0.855,0.065 0.865,0.028 l -0.254,0 0.002,0.139 C 0.621,0.581 0.611,0.889 0.605,1.102 0.605,1.142 0.6,1.215 0.6,1.24 L 0.553,1.092 0.16,0.176 0.096,-0.02 0,0 Z" /></g><g
           transform="translate(15.2461,35.0566)"
           id="g180"><path
             id="path182"
             style="fill:#201c1b;fill-opacity:1;fill-rule:nonzero;stroke:none"
             d="m 0,0 0,1.062 c 0,0.183 -0.033,0.219 -0.059,0.256 l 0.017,0.04 0.404,0.011 C 0.668,1.378 0.808,1.204 0.808,1.041 0.808,0.9 0.719,0.788 0.585,0.709 0.757,0.66 0.908,0.544 0.908,0.309 0.908,0.026 0.694,-0.155 0.36,-0.155 l -0.362,0 C 0.003,-0.08 0,0 0,0 M 0.231,0.635 C 0.229,0.384 0.229,0.135 0.235,-0.045 l 0.147,0 c 0.228,0 0.323,0.141 0.323,0.278 0,0.26 -0.166,0.387 -0.379,0.396 L 0.231,0.635 Z m 0.277,0.09 C 0.556,0.769 0.61,0.85 0.61,0.977 0.61,1.146 0.497,1.245 0.354,1.243 L 0.242,1.241 c 0,-0.062 0,-0.147 -0.002,-0.247 C 0.237,0.912 0.233,0.826 0.233,0.739 l 0.121,0 c 0.049,0 0.101,-0.005 0.154,-0.014" /></g><g
           transform="translate(19.4346,34.9014)"
           id="g184"><path
             id="path186"
             style="fill:#201c1b;fill-opacity:1;fill-rule:nonzero;stroke:none"
             d="m 0,0 0,0.037 c 0,0.199 0.006,0.398 0.002,0.574 0,0.389 0.02,0.759 -0.063,0.863 l 0.017,0.04 c 0.424,0.01 0.431,0.01 0.44,0.01 0.229,0 0.508,-0.091 0.508,-0.466 C 0.904,0.853 0.775,0.69 0.586,0.618 0.641,0.591 1.05,0.048 1.115,0 L 0.806,0 C 0.722,0.167 0.5,0.409 0.352,0.575 0.311,0.575 0.271,0.579 0.229,0.59 0.234,0.356 0.241,0.07 0.251,0 L 0,0 Z m 0.699,1.006 c 0,0.298 -0.194,0.397 -0.338,0.392 L 0.237,1.395 C 0.229,1.311 0.229,0.986 0.229,0.779 l 0,-0.069 C 0.262,0.694 0.301,0.69 0.373,0.69 c 0.179,0 0.326,0.122 0.326,0.316" /></g><g
           transform="translate(21.6621,34.9014)"
           id="g188"><path
             id="path190"
             style="fill:#201c1b;fill-opacity:1;fill-rule:nonzero;stroke:none"
             d="m 0,0 0,0.036 c 0,0.171 0.003,0.3 0.003,0.394 0,0.146 0,0.223 -0.003,0.261 -0.013,0.015 -0.024,0.034 -0.048,0.072 L -0.27,1.149 C -0.4,1.382 -0.411,1.441 -0.495,1.474 l 0.017,0.04 c 0.039,0.017 0.1,0.032 0.162,0.032 0.053,0 0.106,-0.013 0.133,-0.042 0.075,-0.183 0.26,-0.533 0.336,-0.653 0,0 0.013,0.042 0.037,0.086 l 0.19,0.337 c 0.039,0.068 0.044,0.139 0.004,0.2 l 0.017,0.04 C 0.444,1.533 0.493,1.546 0.53,1.546 0.566,1.546 0.61,1.533 0.65,1.514 0.65,1.458 0.573,1.284 0.519,1.198 L 0.235,0.743 C 0.235,0.653 0.231,0.523 0.231,0.396 0.231,0.241 0.238,0.09 0.249,0 L 0,0 Z" /></g><g
           transform="translate(23.5381,35.1035)"
           id="g192"><path
             id="path194"
             style="fill:#201c1b;fill-opacity:1;fill-rule:nonzero;stroke:none"
             d="M 0,0 C 0,0.025 0.008,0.05 0.026,0.076 0.045,0.01 0.223,-0.07 0.367,-0.07 c 0.135,0 0.289,0.045 0.289,0.21 0,0.308 -0.648,0.374 -0.648,0.793 0,0.202 0.144,0.412 0.424,0.412 0.188,0 0.299,-0.066 0.361,-0.103 C 0.809,1.187 0.812,1.049 0.754,0.99 L 0.711,1 C 0.656,1.164 0.495,1.222 0.406,1.222 0.303,1.222 0.183,1.159 0.183,1.025 0.183,0.726 0.874,0.669 0.874,0.207 0.874,-0.032 0.675,-0.232 0.376,-0.232 0.178,-0.232 0,-0.12 0,0" /></g><g
           transform="translate(24.4873,37.0586)"
           id="g196"><path
             id="path198"
             style="fill:#211d1d;fill-opacity:1;fill-rule:nonzero;stroke:none"
             d="m 0,0 0.316,0 0,-0.068 -0.117,0 0,-0.321 -0.082,0 0,0.321 L 0,-0.068 0,0 Z" /></g><g
           transform="translate(24.8486,37.0586)"
           id="g200"><path
             id="path202"
             style="fill:#211d1d;fill-opacity:1;fill-rule:nonzero;stroke:none"
             d="M 0,0 0.119,0 0.189,-0.306 0.26,0 l 0.117,0 0,-0.389 -0.075,0 0,0.326 -0.003,0 -0.07,-0.326 -0.082,0 -0.07,0.326 -0.002,0 0,-0.326 L 0,-0.389 0,0 Z" /></g></g></g></g></svg>