<?xml version="1.0" encoding="utf-8"?>
<!-- Generator: Adobe Illustrator 16.0.0, SVG Export Plug-In . SVG Version: 6.00 Build 0)  -->
<!DOCTYPE svg PUBLIC "-//W3C//DTD SVG 1.1//EN" "http://www.w3.org/Graphics/SVG/1.1/DTD/svg11.dtd">
<svg version="1.1" id="Layer_1" xmlns="http://www.w3.org/2000/svg" xmlns:xlink="http://www.w3.org/1999/xlink" x="0px" y="0px"
	 width="28.112px" height="49.567px" viewBox="0 0 28.112 49.567" enable-background="new 0 0 28.112 49.567" xml:space="preserve">
<pattern  x="-555.442" y="462.802" width="1024" height="2332.091" patternUnits="userSpaceOnUse" id="Unnamed_Pattern" viewBox="0 -2332.091 1024 2332.091" overflow="visible">
	<g>
		<polygon fill="none" points="0,0 1024,0 1024,-2332.091 0,-2332.091 		"/>
		<g>
			<defs>
				<rect id="SVGID_1_" y="-2332.091" width="1024" height="2332.091"/>
			</defs>
			<clipPath id="SVGID_2_">
				<use xlink:href="#SVGID_1_"  overflow="visible"/>
			</clipPath>
			<path clip-path="url(#SVGID_2_)" fill-rule="evenodd" clip-rule="evenodd" fill="#F6901E" d="M569.498-462.802
				c-7.763,0-14.056,6.293-14.056,14.056c0,6.698,4.684,12.301,10.955,13.713c0.801,0.181,0.747,0.773,0.841,1.61l2.26,20.188
				l2.229-19.9c0.091-0.81,0.061-1.718,0.822-1.887c6.297-1.394,11.006-7.009,11.006-13.725
				C583.555-456.509,577.262-462.802,569.498-462.802"/>
			<path clip-path="url(#SVGID_2_)" fill-rule="evenodd" clip-rule="evenodd" fill="#FFFFFF" d="M569.498-436.392
				c6.805,0,12.354-5.55,12.354-12.354c0-6.805-5.55-12.354-12.354-12.354c-6.804,0-12.354,5.55-12.354,12.354
				C557.145-441.941,562.694-436.392,569.498-436.392"/>
			<path clip-path="url(#SVGID_2_)" fill="#221F1F" d="M560.898-449.729c-0.104-0.141-0.177-0.207-0.272-0.258
				c-0.093-0.052-0.207-0.08-0.32-0.08c-0.237,0-0.409,0.117-0.409,0.283c0,0.134,0.078,0.193,0.33,0.251l0.334,0.079
				c0.24,0.059,0.396,0.124,0.503,0.214c0.138,0.117,0.21,0.282,0.21,0.478c0,0.441-0.379,0.737-0.938,0.737
				c-0.309,0-0.581-0.079-0.773-0.23c-0.098-0.072-0.142-0.12-0.245-0.259l0.365-0.258c0.097,0.142,0.189,0.225,0.323,0.282
				c0.107,0.049,0.248,0.076,0.375,0.076c0.262,0,0.432-0.124,0.432-0.313c0-0.154-0.107-0.24-0.383-0.3l-0.3-0.064
				c-0.479-0.104-0.685-0.301-0.685-0.654c0-0.42,0.351-0.71,0.868-0.71c0.277,0,0.516,0.079,0.719,0.245
				c0.076,0.064,0.114,0.103,0.217,0.22L560.898-449.729z"/>
			<path clip-path="url(#SVGID_2_)" fill="#221F1F" d="M562.112-448.861h0.441c0.223,0,0.361-0.033,0.499-0.127
				c0.213-0.141,0.334-0.372,0.334-0.641c0-0.471-0.324-0.757-0.861-0.757h-0.837v2.293h0.424V-448.861z M562.112-449.229v-0.793
				h0.375c0.311,0,0.451,0.121,0.451,0.375c0,0.283-0.158,0.418-0.484,0.418H562.112z"/>
			<path clip-path="url(#SVGID_2_)" fill="#221F1F" d="M564.182-448.943h0.424l0.453,0.85h0.477l-0.503-0.919
				c0.114-0.052,0.155-0.079,0.22-0.131c0.155-0.124,0.238-0.303,0.238-0.509c0-0.169-0.063-0.348-0.165-0.475
				c-0.149-0.184-0.355-0.26-0.693-0.26h-0.874v2.293h0.424V-448.943z M564.182-449.309v-0.713h0.416
				c0.282,0,0.444,0.128,0.444,0.348c0,0.231-0.165,0.365-0.454,0.365H564.182z"/>
			<polygon clip-path="url(#SVGID_2_)" fill="#221F1F" points="566.473,-448.093 566.05,-448.093 566.05,-450.386 566.473,-450.386 
							"/>
			<polygon clip-path="url(#SVGID_2_)" fill="#221F1F" points="568.871,-448.093 568.489,-448.093 567.511,-449.663 
				567.511,-448.093 567.112,-448.093 567.112,-450.386 567.516,-450.386 568.468,-448.837 568.468,-450.386 568.871,-450.386 			
				"/>
			<path clip-path="url(#SVGID_2_)" fill="#221F1F" d="M571.446-448.093h-0.365v-0.196c-0.097,0.082-0.131,0.11-0.196,0.148
				c-0.131,0.071-0.296,0.116-0.458,0.116c-0.616,0-1.063-0.506-1.063-1.201c0-0.72,0.458-1.229,1.104-1.229
				c0.29,0,0.558,0.11,0.744,0.3c0.1,0.106,0.144,0.175,0.22,0.361l-0.396,0.165c-0.11-0.302-0.296-0.447-0.578-0.447
				c-0.386,0-0.637,0.324-0.637,0.823c0,0.509,0.255,0.83,0.653,0.83c0.334,0,0.544-0.2,0.578-0.548h-0.571v-0.372h0.965V-448.093z"
				/>
			<polygon clip-path="url(#SVGID_2_)" fill="#221F1F" points="573.566,-450.008 572.43,-450.008 572.43,-449.43 573.407,-449.43 
				573.407,-449.064 572.43,-449.064 572.43,-448.094 572.006,-448.094 572.006,-450.387 573.566,-450.387 			"/>
			<polygon clip-path="url(#SVGID_2_)" fill="#221F1F" points="574.384,-448.093 573.961,-448.093 573.961,-450.386 
				574.384,-450.386 			"/>
			<polygon clip-path="url(#SVGID_2_)" fill="#221F1F" points="576.604,-450.008 575.399,-450.008 575.399,-449.463 
				576.509,-449.463 576.509,-449.099 575.399,-449.099 575.399,-448.472 576.7,-448.472 576.7,-448.094 574.977,-448.094 
				574.977,-450.387 576.604,-450.387 			"/>
			<polygon clip-path="url(#SVGID_2_)" fill="#221F1F" points="577.555,-448.472 578.501,-448.472 578.501,-448.093 
				577.13,-448.093 577.13,-450.386 577.555,-450.386 			"/>
			<path clip-path="url(#SVGID_2_)" fill="#221F1F" d="M578.841-448.093h0.703c0.282,0,0.492-0.038,0.665-0.124
				c0.326-0.162,0.512-0.531,0.512-1.009c0-0.341-0.086-0.62-0.258-0.823c-0.072-0.086-0.158-0.159-0.254-0.21
				c-0.176-0.097-0.342-0.127-0.665-0.127h-0.703V-448.093z M579.265-448.472v-1.536h0.241c0.544,0,0.754,0.214,0.754,0.765
				c0,0.23-0.031,0.399-0.103,0.53c-0.098,0.18-0.266,0.241-0.651,0.241H579.265z"/>
			<path clip-path="url(#SVGID_2_)" fill="#FFFFFF" d="M291.722-382.833c-1.1,0-2,0.899-2,2v53c0,1.1,0.9,2,2,2h379.5v-57H291.722z"
				/>
		</g>
		<g>
			<defs>
				<rect id="SVGID_3_" y="-2332.091" width="1024" height="2332.091"/>
			</defs>
			<clipPath id="SVGID_4_">
				<use xlink:href="#SVGID_3_"  overflow="visible"/>
			</clipPath>
			<polygon clip-path="url(#SVGID_4_)" fill="#606060" points="613.308,-351.69 610.723,-356 608.137,-351.69 			"/>
			<polygon clip-path="url(#SVGID_4_)" fill="#606060" points="608.137,-350 610.722,-345.691 613.308,-350 			"/>
			<polygon clip-path="url(#SVGID_4_)" fill="#606060" points="455.307,-351.69 452.722,-356 450.136,-351.69 			"/>
			<polygon clip-path="url(#SVGID_4_)" fill="#606060" points="450.137,-350 452.722,-345.691 455.308,-350 			"/>
			<g clip-path="url(#SVGID_4_)">
				<defs>
					<rect id="SVGID_5_" x="697.433" y="-356.423" width="10.823" height="10.823"/>
				</defs>
				<clipPath id="SVGID_6_">
					<use xlink:href="#SVGID_5_"  overflow="visible"/>
				</clipPath>
				<g clip-path="url(#SVGID_6_)">
					<defs>
						<rect id="SVGID_7_" x="697.433" y="-356.423" width="10.823" height="10.823"/>
					</defs>
					<clipPath id="SVGID_8_">
						<use xlink:href="#SVGID_7_"  overflow="visible"/>
					</clipPath>
					<path clip-path="url(#SVGID_8_)" fill="#FFFFFF" d="M705.492-349.896c0.38-0.644,0.6-1.395,0.6-2.198
						c0-2.391-1.938-4.329-4.33-4.329c-2.39,0-4.329,1.938-4.329,4.329c0,2.392,1.939,4.329,4.329,4.329
						c0.804,0,1.555-0.22,2.199-0.6l2.446,2.447c0.424,0.424,1.109,0.424,1.531,0c0.424-0.423,0.424-1.108,0-1.53L705.492-349.896z
						 M705.009-352.095c0,1.79-1.458,3.247-3.247,3.247c-1.79,0-3.245-1.457-3.245-3.247s1.455-3.247,3.245-3.247
						C703.551-355.342,705.009-353.885,705.009-352.095"/>
				</g>
			</g>
			<path clip-path="url(#SVGID_4_)" fill="#FFFFFF" d="M616.022-499.041h-95.45c-0.535,0-0.973,0.438-0.973,0.974v27.771
				c0,0.535,0.438,0.974,0.973,0.974h44.722L568.33-464l3.082-5.323h44.61c0.535,0,0.973-0.438,0.973-0.974v-27.771
				C616.995-498.603,616.558-499.041,616.022-499.041"/>
			<path clip-path="url(#SVGID_4_)" fill="#8C6239" d="M554.822-472.798h-29.525c-1.101,0-2-0.899-2-2v-19.354c0-1.1,0.899-2,2-2
				h29.525c1.1,0,2,0.9,2,2v19.354C556.822-473.697,555.922-472.798,554.822-472.798"/>
			<path clip-path="url(#SVGID_4_)" fill="none" stroke="#F6901E" stroke-width="0.25" stroke-miterlimit="10" d="M614.213-495.187
				c0,1.009-0.818,1.827-1.827,1.827s-1.827-0.818-1.827-1.827s0.818-1.827,1.827-1.827S614.213-496.195,614.213-495.187z"/>
			
				<line clip-path="url(#SVGID_4_)" fill="none" stroke="#F6901E" stroke-width="0.25" stroke-miterlimit="10" x1="611.022" y1="-496.402" x2="613.739" y2="-493.959"/>
			
				<line clip-path="url(#SVGID_4_)" fill="none" stroke="#F6901E" stroke-width="0.25" stroke-miterlimit="10" x1="613.739" y1="-496.402" x2="611.021" y2="-493.959"/>
		</g>
		<text transform="matrix(1 0 0 1 559.9648 -489.1094)"><tspan x="0" y="0" fill="#606060" font-family="'Roboto-Light'" font-size="3">Lo</tspan><tspan x="3.261" y="0" fill="#606060" font-family="'Roboto-Light'" font-size="3">r</tspan><tspan x="4.243" y="0" fill="#606060" font-family="'Roboto-Light'" font-size="3">em Ipsum is simply </tspan></text>
		<text transform="matrix(1 0 0 1 559.9648 -485.5098)" fill="#606060" font-family="'Roboto-Light'" font-size="3">dummy text of the printing</text>
		<text transform="matrix(1 0 0 1 559.9648 -481.9092)"><tspan x="0" y="0" fill="#606060" font-family="'Roboto-Light'" font-size="3">Lo</tspan><tspan x="3.261" y="0" fill="#606060" font-family="'Roboto-Light'" font-size="3">r</tspan><tspan x="4.243" y="0" fill="#606060" font-family="'Roboto-Light'" font-size="3">em Ipsum is simply </tspan></text>
		<text transform="matrix(1 0 0 1 559.9648 -478.3096)" fill="#606060" font-family="'Roboto-Light'" font-size="3">dummy text of the printing</text>
	</g>
</pattern>
<g id="Layer_2">
	<g id="Layer_3">
		<path fill-rule="evenodd" clip-rule="evenodd" fill="url(#Unnamed_Pattern)" d="M14.056,0C6.293,0,0,6.293,0,14.056
			c0,6.698,4.684,12.301,10.955,13.713c0.801,0.181,0.747,0.773,0.841,1.61l2.26,20.188l2.229-19.9
			c0.091-0.81,0.061-1.718,0.822-1.887c6.297-1.394,11.006-7.009,11.006-13.725C28.112,6.293,21.819,0,14.056,0"/>
		<circle fill-rule="evenodd" clip-rule="evenodd" fill="#FFFFFF" cx="14.056" cy="14.083" r="12.344"/>
		<g>
			<path fill="#231F20" d="M14.589,21.146c0-0.063,0.033-0.128,0.072-0.165c0.01-0.008,0.01-0.021,0.002-0.03
				c-0.031-0.034-0.057-0.085-0.057-0.14c0-0.14,0.07-0.231,0.225-0.231c0.082,0,0.133,0.007,0.193,0.018
				c0.012,0.001,0.02,0.011,0.02,0.023v0.101c0,0.017-0.014,0.027-0.027,0.024c-0.045-0.008-0.096-0.018-0.162-0.018
				s-0.092,0.041-0.092,0.085c0,0.048,0.023,0.083,0.074,0.083h0.158c0.012,0,0.023,0.011,0.023,0.024v0.1
				c0,0.013-0.012,0.024-0.023,0.024h-0.158c-0.057,0-0.092,0.044-0.092,0.1c0,0.058,0.029,0.101,0.109,0.101
				c0.07,0,0.129-0.008,0.176-0.017c0.014-0.003,0.027,0.009,0.027,0.023v0.101c0,0.012-0.008,0.021-0.021,0.023
				c-0.049,0.007-0.113,0.018-0.205,0.018C14.671,21.394,14.589,21.297,14.589,21.146"/>
			<path fill="#231F20" d="M7.556,21.38H7.464c-0.02,0-0.033-0.015-0.033-0.032v-0.721c0-0.02,0.014-0.033,0.033-0.033h0.328
				c0.02,0,0.033,0.014,0.033,0.033v0.083c0,0.018-0.014,0.032-0.033,0.032H7.62c-0.018,0-0.033,0.014-0.033,0.032v0.09
				c0,0.018,0.016,0.032,0.033,0.032h0.158c0.02,0,0.033,0.015,0.033,0.033v0.082c0,0.019-0.014,0.033-0.033,0.033H7.62
				c-0.018,0-0.033,0.015-0.033,0.032v0.271C7.587,21.365,7.573,21.38,7.556,21.38"/>
			<path fill="#231F20" d="M8.427,21.251v0.11c0,0.011-0.01,0.019-0.02,0.019H8.052c-0.012,0-0.02-0.008-0.02-0.019v-0.749
				c0-0.011,0.008-0.019,0.02-0.019h0.117c0.012,0,0.02,0.008,0.02,0.019v0.602c0,0.01,0.01,0.019,0.02,0.019h0.199
				C8.417,21.232,8.427,21.24,8.427,21.251"/>
			<path fill="#231F20" d="M8.925,21.077L8.86,20.841c-0.002-0.008-0.012-0.008-0.014,0l-0.064,0.236
				c-0.002,0.006,0.002,0.013,0.01,0.013h0.123C8.923,21.09,8.927,21.083,8.925,21.077 M8.733,21.257l-0.029,0.104
				C8.7,21.373,8.69,21.38,8.679,21.38H8.581c-0.018,0-0.029-0.016-0.025-0.032l0.199-0.723c0.004-0.019,0.021-0.031,0.039-0.031
				h0.119c0.02,0,0.035,0.013,0.041,0.031l0.197,0.723c0.004,0.017-0.008,0.032-0.025,0.032H9.028c-0.012,0-0.021-0.007-0.025-0.019
				l-0.029-0.104c-0.002-0.012-0.012-0.02-0.023-0.02H8.757C8.745,21.237,8.735,21.245,8.733,21.257"/>
			<path fill="#231F20" d="M9.409,21.38H9.345c-0.021,0-0.039-0.019-0.037-0.041l0.063-0.718c0.002-0.016,0.014-0.027,0.031-0.027
				h0.078c0.014,0,0.023,0.007,0.027,0.019l0.117,0.293c0.008,0.021,0.035,0.021,0.043,0l0.115-0.293
				c0.006-0.012,0.018-0.019,0.029-0.019h0.08c0.016,0,0.027,0.012,0.029,0.027l0.063,0.723c0.002,0.02-0.014,0.036-0.033,0.036
				H9.88c-0.02,0-0.031-0.013-0.035-0.03L9.81,20.941c-0.002-0.007-0.01-0.009-0.014-0.002l-0.1,0.247
				c-0.004,0.015-0.02,0.023-0.035,0.023H9.63c-0.016,0-0.029-0.009-0.035-0.023l-0.1-0.247c-0.002-0.007-0.014-0.005-0.014,0.002
				l-0.037,0.404C9.444,21.365,9.427,21.38,9.409,21.38"/>
			<path fill="#231F20" d="M10.173,21.146c0-0.063,0.033-0.128,0.074-0.165c0.008-0.008,0.01-0.021,0.002-0.03
				c-0.031-0.034-0.057-0.085-0.057-0.14c0-0.14,0.068-0.231,0.225-0.231c0.08,0,0.131,0.007,0.193,0.018
				c0.01,0.001,0.02,0.011,0.02,0.023v0.101c0,0.017-0.014,0.027-0.027,0.024c-0.047-0.008-0.098-0.018-0.162-0.018
				c-0.066,0-0.092,0.041-0.092,0.085c0,0.048,0.021,0.083,0.074,0.083h0.156c0.014,0,0.025,0.011,0.025,0.024v0.1
				c0,0.013-0.012,0.024-0.025,0.024h-0.156c-0.057,0-0.094,0.044-0.094,0.1c0,0.058,0.031,0.101,0.111,0.101
				c0.07,0,0.127-0.008,0.174-0.017c0.016-0.003,0.027,0.009,0.027,0.023v0.101c0,0.012-0.008,0.021-0.02,0.023
				c-0.051,0.007-0.115,0.018-0.205,0.018C10.257,21.394,10.173,21.297,10.173,21.146"/>
			<path fill="#231F20" d="M10.874,21.11v-0.078c0-0.02,0.016-0.035,0.035-0.035h0.271c0.02,0,0.035,0.016,0.035,0.035v0.078
				c0,0.02-0.016,0.035-0.035,0.035h-0.271C10.89,21.146,10.874,21.13,10.874,21.11"/>
			<path fill="#231F20" d="M11.464,20.987c0-0.241,0.09-0.407,0.289-0.407c0.086,0,0.145,0.024,0.182,0.041
				c0.008,0.004,0.012,0.012,0.012,0.021v0.102c0,0.017-0.016,0.026-0.031,0.02c-0.033-0.017-0.076-0.034-0.133-0.034
				c-0.129,0-0.16,0.116-0.16,0.259c0,0.146,0.018,0.258,0.146,0.258c0.01,0,0.023-0.002,0.035-0.006
				c0.014-0.004,0.023-0.017,0.023-0.031v-0.099c0-0.007-0.004-0.013-0.01-0.013h-0.061c-0.008,0-0.012-0.005-0.012-0.011v-0.123
				c0-0.008,0.006-0.014,0.014-0.014h0.207c0.008,0,0.014,0.006,0.014,0.014v0.358c0,0.012-0.01,0.022-0.021,0.023
				c-0.063,0.009-0.133,0.049-0.219,0.049C11.538,21.394,11.464,21.229,11.464,20.987"/>
			<path fill="#231F20" d="M12.38,20.912c0,0.012,0.01,0.021,0.021,0.021h0.078c0.064,0,0.086-0.046,0.086-0.096
				s-0.021-0.097-0.086-0.097h-0.078c-0.012,0-0.021,0.01-0.021,0.021V20.912z M12.782,21.335c-0.006,0.019-0.018,0.037-0.035,0.044
				c-0.02,0.008-0.043,0.015-0.072,0.015c-0.045,0-0.09-0.026-0.105-0.076c-0.041-0.121-0.033-0.247-0.139-0.247
				c-0.01,0-0.018,0.002-0.027,0.003c-0.014,0.003-0.023,0.016-0.023,0.03v0.229c0,0.026-0.021,0.047-0.047,0.047h-0.064
				c-0.025,0-0.047-0.021-0.047-0.047v-0.716c0-0.013,0.01-0.023,0.023-0.023h0.24c0.162,0,0.236,0.111,0.236,0.244
				c0,0.078-0.031,0.152-0.086,0.193c-0.008,0.005-0.01,0.013-0.004,0.02c0.027,0.033,0.047,0.09,0.064,0.146
				c0.012,0.039,0.021,0.072,0.051,0.074C12.769,21.272,12.786,21.302,12.782,21.335"/>
			<path fill="#231F20" d="M13.147,20.636v0.702c0,0.023-0.018,0.042-0.043,0.042h-0.072c-0.023,0-0.041-0.019-0.041-0.042v-0.702
				c0-0.022,0.018-0.042,0.041-0.042h0.072C13.13,20.594,13.147,20.613,13.147,20.636"/>
			<path fill="#231F20" d="M13.823,21.262v0.089c0,0.016-0.014,0.029-0.029,0.029H13.46c-0.016,0-0.031-0.014-0.031-0.029v-0.726
				c0-0.018,0.016-0.031,0.031-0.031h0.098c0.016,0,0.029,0.014,0.029,0.031v0.577c0,0.017,0.014,0.03,0.029,0.03h0.178
				C13.81,21.232,13.823,21.246,13.823,21.262"/>
			<path fill="#231F20" d="M14.419,21.267v0.079c0,0.02-0.016,0.034-0.035,0.034H14.06c-0.02,0-0.035-0.015-0.035-0.034v-0.718
				c0-0.02,0.016-0.034,0.035-0.034h0.088c0.02,0,0.035,0.015,0.035,0.034v0.569c0,0.02,0.016,0.035,0.033,0.035h0.168
				C14.403,21.232,14.419,21.247,14.419,21.267"/>
			<path fill="#231F20" d="M15.431,21.197c0,0.02,0.016,0.035,0.033,0.035c0.129,0,0.182-0.063,0.182-0.245
				c0-0.183-0.053-0.246-0.182-0.246c-0.018,0-0.033,0.016-0.033,0.035V21.197z M15.272,20.62c0-0.015,0.014-0.026,0.027-0.026h0.17
				c0.258,0,0.334,0.176,0.334,0.394c0,0.217-0.076,0.393-0.334,0.393H15.3c-0.014,0-0.027-0.012-0.027-0.026V20.62z"/>
			<path fill="#231F20" d="M16.653,20.729c-0.104,0-0.133,0.116-0.133,0.259c0,0.146,0.029,0.258,0.133,0.258
				c0.047,0,0.09-0.016,0.125-0.037c0.01-0.006,0.021,0,0.021,0.011v0.114c0,0.01-0.006,0.018-0.012,0.021
				c-0.045,0.023-0.104,0.039-0.162,0.039c-0.186,0-0.264-0.164-0.264-0.406c0-0.241,0.078-0.407,0.264-0.407
				c0.059,0,0.115,0.013,0.162,0.039c0.008,0.004,0.012,0.013,0.012,0.021v0.114c0,0.012-0.012,0.019-0.021,0.012
				C16.743,20.743,16.7,20.729,16.653,20.729"/>
			<path fill="#231F20" d="M17.157,21.38h-0.119c-0.012,0-0.02-0.008-0.02-0.019v-0.748c0-0.012,0.008-0.02,0.02-0.02h0.119
				c0.01,0,0.018,0.008,0.018,0.02v0.265c0,0.011,0.01,0.019,0.02,0.019h0.15c0.01,0,0.02-0.008,0.02-0.019v-0.265
				c0-0.012,0.008-0.02,0.018-0.02h0.119c0.012,0,0.02,0.008,0.02,0.02v0.748c0,0.011-0.008,0.019-0.02,0.019h-0.119
				c-0.01,0-0.018-0.008-0.018-0.019v-0.299c0-0.01-0.01-0.018-0.02-0.018h-0.15c-0.01,0-0.02,0.008-0.02,0.018v0.299
				C17.175,21.372,17.167,21.38,17.157,21.38"/>
			<path fill="#231F20" d="M17.96,20.614v0.745c0,0.012-0.01,0.021-0.021,0.021h-0.115c-0.012,0-0.02-0.009-0.02-0.021v-0.745
				c0-0.011,0.008-0.021,0.02-0.021h0.115C17.95,20.594,17.96,20.604,17.96,20.614"/>
			<path fill="#231F20" d="M18.505,20.729c-0.104,0-0.133,0.116-0.133,0.259c0,0.146,0.029,0.258,0.133,0.258
				c0.045,0,0.084-0.014,0.117-0.034c0.014-0.008,0.027,0.001,0.027,0.016v0.11c0,0.007-0.002,0.013-0.01,0.016
				c-0.043,0.023-0.104,0.041-0.164,0.041c-0.186,0-0.262-0.164-0.262-0.406c0-0.241,0.076-0.407,0.262-0.407
				c0.061,0,0.119,0.013,0.166,0.041c0.006,0.004,0.008,0.009,0.008,0.016v0.11c0,0.015-0.014,0.023-0.027,0.016
				C18.589,20.742,18.548,20.729,18.505,20.729"/>
			<path fill="#231F20" d="M19.413,21.312c0.002,0.034-0.023,0.059-0.037,0.063c-0.021,0.01-0.049,0.019-0.08,0.019
				c-0.045,0-0.09-0.026-0.107-0.076c-0.041-0.122-0.039-0.234-0.129-0.234c-0.004,0-0.008,0-0.012,0
				c-0.012,0.003-0.021,0.014-0.021,0.026v0.25c0,0.012-0.008,0.021-0.02,0.021H18.89c-0.012,0-0.02-0.009-0.02-0.021V20.61
				c0-0.01,0.006-0.017,0.016-0.017h0.125c0.008,0,0.016,0.007,0.016,0.017v0.295c0,0.007,0.008,0.009,0.012,0.004l0.178-0.308
				c0.004-0.005,0.01-0.008,0.014-0.008h0.141c0.012,0,0.02,0.013,0.014,0.024l-0.207,0.356c0.082,0.046,0.107,0.113,0.141,0.223
				c0.012,0.039,0.021,0.074,0.049,0.074C19.39,21.271,19.409,21.279,19.413,21.312"/>
			<path fill="#231F20" d="M19.55,21.146c0-0.064,0.033-0.133,0.076-0.167c0.008-0.007,0.008-0.019,0-0.025
				c-0.031-0.034-0.059-0.086-0.059-0.143c0-0.14,0.07-0.231,0.227-0.231c0.082,0,0.133,0.007,0.195,0.018
				c0.01,0.001,0.018,0.01,0.018,0.02v0.11c0,0.013-0.012,0.021-0.023,0.02c-0.047-0.008-0.1-0.019-0.168-0.019
				c-0.066,0-0.092,0.041-0.092,0.085c0,0.048,0.023,0.083,0.076,0.083h0.16c0.012,0,0.02,0.009,0.02,0.02v0.109
				c0,0.011-0.008,0.02-0.02,0.02H19.8c-0.057,0-0.094,0.044-0.094,0.1c0,0.058,0.029,0.101,0.109,0.101
				c0.072,0,0.135-0.008,0.18-0.019c0.014-0.002,0.023,0.009,0.023,0.02v0.111c0,0.009-0.008,0.017-0.016,0.018
				c-0.053,0.007-0.117,0.019-0.209,0.019C19.632,21.394,19.55,21.297,19.55,21.146"/>
			<path fill="#231F20" d="M20.364,21.38h-0.102c-0.012,0-0.021-0.01-0.021-0.022v-0.75c0-0.008,0.006-0.014,0.014-0.014h0.121
				c0.006,0,0.012,0.004,0.014,0.008l0.188,0.41c0.004,0.007,0.014,0.005,0.014-0.003v-0.401c0-0.008,0.008-0.014,0.016-0.014h0.119
				c0.008,0,0.014,0.006,0.014,0.014v0.75c0,0.013-0.01,0.022-0.021,0.022h-0.109c-0.01,0-0.018-0.005-0.02-0.013l-0.188-0.404
				c-0.002-0.008-0.012-0.005-0.012,0.003v0.392C20.39,21.37,20.378,21.38,20.364,21.38"/>
			<path fill="#231F20" d="M23.325,19.341c0,0.091-0.07,0.164-0.164,0.164c-0.092,0-0.162-0.072-0.162-0.163v-0.001
				c0-0.091,0.07-0.165,0.164-0.165C23.255,19.176,23.325,19.249,23.325,19.341L23.325,19.341z M23.163,19.155
				c-0.105,0-0.186,0.085-0.186,0.186v0.001c0,0.101,0.08,0.184,0.184,0.184c0.105,0,0.186-0.084,0.186-0.185V19.34
				C23.347,19.239,23.267,19.155,23.163,19.155"/>
			<path fill="#231F20" d="M23.124,19.335V19.27h0.051c0.025,0,0.039,0.011,0.039,0.032c0,0.021-0.016,0.033-0.039,0.033H23.124z
				 M23.251,19.3c0-0.038-0.027-0.063-0.074-0.063h-0.088v0.197h0.035v-0.069h0.043l0.049,0.069h0.041l-0.053-0.074
				C23.231,19.352,23.251,19.333,23.251,19.3"/>
			<path fill="#231F20" d="M9.817,19.121c-0.115-0.054-0.17-0.166-0.156-0.285c0.012-0.113,0.092-0.202,0.197-0.233
				c0.086-0.026,0.229-0.04,0.354,0.014c0.016,0.008,0.027,0.023,0.027,0.042c0.01,0.123,0.033,0.255,0.078,0.369
				c0.01,0.023-0.002,0.052-0.025,0.061C10.2,19.127,9.987,19.199,9.817,19.121 M9.206,19.453c0.105,0.107,0.297,0.222,0.551,0.222
				c0.402,0,0.74-0.249,0.74-0.249c0.184,0.197,0.387,0.249,0.527,0.249c0.291,0,0.51-0.126,0.51-0.31
				c0-0.078-0.047-0.113-0.125-0.113c-0.07,0-0.113,0.045-0.223,0.045c-0.162,0-0.193-0.388-0.193-0.688
				c0-0.302,0.037-0.774,0.051-1.087c0.033-0.791-0.461-1.051-1.096-1.051c-0.469,0-0.871,0.354-0.871,0.784
				c0,0.288,0.146,0.521,0.467,0.521c0.197,0,0.313-0.143,0.313-0.313s-0.115-0.244-0.232-0.306
				c-0.117-0.063-0.117-0.139-0.098-0.188c0.049-0.131,0.154-0.243,0.355-0.243c0.188,0,0.469,0.226,0.404,0.919
				c-0.016,0.169-0.025,0.38-0.031,0.457c-0.002,0.015-0.016,0.024-0.031,0.021c0,0-0.156-0.053-0.352-0.053
				c-0.404,0-0.875,0.282-0.875,0.847C8.997,19.2,9.108,19.351,9.206,19.453"/>
			<path fill="#231F20" d="M22.433,16.971c0.012,0.05,0.018,0.125-0.1,0.188c-0.117,0.062-0.23,0.136-0.23,0.306
				s0.113,0.311,0.311,0.311c0.322,0,0.467-0.232,0.467-0.52c0-0.405-0.309-0.759-0.824-0.778c-0.527-0.021-1.064,0.327-1.061,1.051
				c0.002,0.471,0.301,0.817,0.881,1.121c0.326,0.16,0.482,0.261,0.482,0.449c0,0.115-0.059,0.289-0.299,0.289
				s-0.412-0.14-0.443-0.379c-0.012-0.104-0.09-0.232-0.27-0.232c-0.178,0-0.334,0.185-0.217,0.451
				c0.063,0.144,0.275,0.447,0.934,0.447s0.744-0.493,0.76-0.581c0.074-0.439-0.125-0.688-0.395-0.909
				c-0.396-0.325-0.787-0.448-0.852-0.816c-0.076-0.414,0.191-0.634,0.508-0.634C22.288,16.733,22.411,16.886,22.433,16.971"/>
			<path fill="#231F20" d="M17.335,18.816c0.295,0,0.189,0.847-0.631,0.847c-0.557,0-0.898-0.348-0.898-1.094v-1.296
				c0-0.3-0.057-0.316-0.318-0.316c-0.109,0-0.201-0.054-0.201-0.209c0-0.111,0.074-0.19,0.232-0.19
				c0.275,0,0.383-0.087,0.418-0.247c0.121-0.559,0.07-1.245,0.383-1.245c0.285,0,0.227,0.426,0.227,1.203
				c0,0.233,0.059,0.283,0.244,0.283h0.484c0.115,0,0.211,0.066,0.211,0.195c0,0.155-0.098,0.21-0.201,0.21l-0.436,0.002
				c-0.266,0-0.287,0.088-0.287,0.237v1.759c0,0.212,0.115,0.296,0.281,0.296C17.167,19.251,17.052,18.816,17.335,18.816"/>
			<path fill="#231F20" d="M12.007,14.646c-0.16,0-0.232,0.086-0.232,0.197c0,0.156,0.094,0.191,0.197,0.216
				c0.055,0.013,0.17,0.017,0.17,0.166c0,0.308,0,3.78,0,3.78c0,0.149-0.115,0.154-0.17,0.166c-0.104,0.026-0.197,0.062-0.197,0.216
				c0,0.111,0.072,0.198,0.232,0.198h1.043c0.16,0,0.232-0.087,0.232-0.198c0-0.154-0.094-0.191-0.199-0.216
				c-0.055-0.013-0.17-0.017-0.17-0.166c0-0.173,0-3.285,0-4.162c0-0.111-0.072-0.197-0.232-0.197H12.007z"/>
			<path fill="#231F20" d="M14.28,16.071c0.26,0,0.471-0.211,0.471-0.471c0-0.258-0.211-0.469-0.471-0.469
				c-0.258,0-0.469,0.211-0.469,0.469C13.812,15.86,14.022,16.071,14.28,16.071"/>
			<path fill="#231F20" d="M14.554,16.558c0.16,0,0.232,0.087,0.232,0.198c0,0.782-0.002,2.239-0.002,2.239
				c0.006,0.138,0.063,0.16,0.215,0.184c0.102,0.021,0.168,0.062,0.166,0.192c0,0.16-0.086,0.214-0.283,0.214h-1.006
				c-0.16,0-0.232-0.087-0.232-0.198c0-0.154,0.094-0.189,0.199-0.216c0.053-0.012,0.168-0.017,0.17-0.166l0.002-1.866
				c0-0.171-0.135-0.155-0.188-0.171s-0.182-0.054-0.182-0.212s0.121-0.198,0.275-0.198C14.073,16.558,14.554,16.558,14.554,16.558"
				/>
			<path fill="#231F20" d="M8.052,15.761c0-0.687-0.695-0.873-1.156-0.745c-0.539,0.15-1.166,0.8-1.166,2.197
				c0,0.844,0.465,2.037,1.346,2.037c0.32,0,0.309-0.22,0.309-0.646c0-0.309,0.016-0.4-0.324-0.4c-0.104,0-0.199-0.056-0.199-0.211
				c0-0.111,0.072-0.198,0.232-0.198h1.439c0.16,0,0.232,0.087,0.232,0.198c0,0.036,0.037,0.219-0.313,0.219
				c-0.27,0-0.211,0.134-0.211,0.851c0,0.613,0.061,0.611-1.17,0.611c-1.654,0-2.307-1.36-2.307-2.663
				c0-0.771,0.326-1.459,0.826-1.911c0.604-0.55,1.684-0.657,2.273-0.262c0.844,0.563,0.623,1.819,0.043,1.819
				c-0.26,0-0.434-0.158-0.434-0.349c0-0.298,0.223-0.324,0.371-0.324S8.052,15.883,8.052,15.761"/>
			<path fill="#231F20" d="M20.448,15.276c-0.145,0-0.297,0.114-0.311,0.314c0,0.491,0.426,0.341,0.426,0.701
				c0,0.154-0.049,0.214-0.063,0.285c-0.018,0.08,0.031,0.127,0.09,0.127c0.305,0,0.406-0.618,0.303-0.992
				C20.798,15.379,20.614,15.276,20.448,15.276"/>
			<path fill="#231F20" d="M19.099,19.292c-0.289,0-0.549-0.296-0.549-1.246c0-0.283,0.039-1.193,0.549-1.193
				c0.512,0,0.582,0.906,0.582,1.189C19.681,18.993,19.388,19.292,19.099,19.292 M19.101,16.47c-0.957,0-1.373,0.749-1.373,1.673
				c0,0.726,0.451,1.532,1.383,1.532s1.383-0.807,1.383-1.532C20.493,17.219,20.056,16.47,19.101,16.47"/>
			<path fill="#231F20" d="M19.21,13.835c-0.016-0.001-0.031,0-0.047,0.001c-0.047,0.008-0.074,0.002-0.047-0.02
				c0.068-0.058,0.156-0.03,0.275-0.022c0.117,0.007,0.182-0.106,0.225-0.104c0.07-0.004,0.148,0.042,0.146,0.004
				c-0.01-0.05-0.072-0.063-0.182-0.155c-0.104-0.083-0.225-0.048-0.404,0.016c-0.178,0.064-0.244,0.058-0.264,0.055
				c-0.021-0.006-0.014-0.029,0.078-0.057c0.145-0.044,0.115-0.167,0.156-0.177c0.039-0.012,0.127-0.055,0.078-0.072
				c-0.102-0.028-0.129,0.001-0.162-0.001c-0.246-0.027-0.383,0.188-0.438,0.259c-0.109,0.146-0.32,0.036-0.762-0.032
				c-0.221-0.034-0.439-0.095-0.592-0.14c-0.02-0.007-0.033-0.025-0.033-0.047c-0.01-0.319-0.225-0.45-0.293-0.484
				c-0.008-0.004-0.012-0.017-0.002-0.024c0.016-0.018,0.045-0.046,0.063-0.064c0.047-0.048-0.484-0.27-1.412-0.128
				c-0.01,0.001-0.018-0.005-0.02-0.013l-0.016-0.063c-0.004-0.01,0.002-0.021,0.012-0.021c0.053-0.006,0.184-0.035,0.197-0.185
				c0.008-0.103-0.021-0.168-0.016-0.236c0-0.01,0.01-0.018,0.02-0.014c0.037,0.011,0.127,0.028,0.213-0.034
				c0.006-0.005,0.016-0.005,0.02,0.001c0.031,0.034,0.135,0.132,0.27,0.041c0.006-0.004,0.014-0.002,0.018,0.003
				c0.037,0.055,0.207,0.283,0.426,0.133c0.008-0.005,0.018-0.003,0.023,0.005c0.037,0.054,0.182,0.235,0.455,0.124
				c0.006-0.002,0.01-0.001,0.012,0.001c0.031,0.027,0.199,0.169,0.338,0.073c0.152-0.106-0.01-0.473-0.355-0.815
				c-0.209-0.217-0.316-0.21-0.408-0.231c-0.02-0.003-0.039-0.011-0.053-0.022c-0.025-0.021-0.053-0.059-0.027-0.123
				c0.023-0.063,0.16-0.155,0.219-0.191c0.061-0.035,0.098-0.024,0.164-0.015c0.174,0.023,0.268-0.028,0.305-0.058
				c0.01-0.01,0.027-0.006,0.033,0.007c0.045,0.08,0.197,0.322,0.406,0.342c0.178,0.017,0.268-0.106,0.268-0.253
				c0-0.017-0.014-0.03-0.031-0.03c-0.082,0-0.314-0.016-0.441-0.176c-0.004-0.003-0.002-0.009,0.002-0.011
				c0.018-0.011,0.064-0.04,0.09-0.104c0.002-0.006,0.006-0.009,0.012-0.009c0.014-0.001,0.049-0.001,0.094,0.008
				c0.068,0.017,0.072-0.125-0.047-0.277c-0.006-0.007-0.006-0.015-0.002-0.021c0.025-0.042,0.104-0.198,0.047-0.399
				c-0.014-0.106,0.102-0.087,0.074-0.278c-0.012-0.079,0.031-0.245,0.066-0.346c0.023-0.064,0.205-0.509-0.004-0.941
				s-0.586-0.442-0.748-0.329c-0.164,0.113-0.242,0.32-0.012,0.673c0.176,0.266,0.094,0.379,0.018,0.386
				c-0.191,0.017-0.098-0.417-0.389-0.576c-0.119-0.066-0.41,0.014-0.396,0.259c0.014,0.247,0.207,0.3,0.207,0.494
				c0.004,0.128-0.201,0.136-0.234-0.084s-0.33-0.026-0.283,0.264c0.039,0.178,0.154,0.256,0.273,0.306
				c0.07,0.022-0.078,0.215-0.234,0.31c-0.334,0.2-1.223,0.374-2.064,0.273c-0.199-0.024-0.322,0.237-0.219,0.411
				c0.008,0.012,0.004,0.028-0.008,0.035c-0.07,0.04-0.291,0.149-0.527,0.106c-0.287-0.053-0.549-0.223-0.629-0.289
				c-0.074-0.061-0.021-0.2,0.045-0.323c0.066-0.125,0.408-0.991,0.172-1.763c-0.201-0.657-0.779-0.949-1.305-0.891
				c-0.033,0.004-0.064-0.007-0.088-0.029c-0.211-0.211-1.316-1.242-2.338-0.681c-0.029,0.018-0.066,0.019-0.098,0
				C8.899,6.947,8.108,6.54,7.423,6.901C6.813,7.243,6.849,7.971,6.958,8.295C7.069,8.618,7.3,8.507,7.362,8.454
				c0.242-0.208,0.223-0.298,0.432-0.326C8.11,8.085,8.696,8.632,9.138,9.222c0.439,0.587,0.922,1.269,1.6,1.665
				c0.008,0.004,0.01,0.016,0.004,0.021c-0.053,0.057-0.266,0.289-0.424,0.429c-0.182,0.16-0.049,0.291,0.039,0.326
				c0.111,0.044,0.273,0.065,0.506-0.03c0.006-0.004,0.012-0.003,0.018,0.002c0.016,0.012,0.057,0.037,0.141,0.055
				c0.076,0.016,0.18,0.019,0.309-0.014c0.006-0.003,0.014,0,0.016,0.006c0.025,0.034,0.131,0.15,0.396,0.125
				c0.008-0.001,0.016,0.004,0.018,0.011c0.018,0.043,0.088,0.179,0.324,0.179c0.053,0.004-0.029,0.185,0.082,0.384
				c0.002,0.007,0.002,0.015-0.006,0.02c-0.059,0.038-0.357,0.201-0.779-0.048c-0.094-0.058-0.025,0.183-0.088,0.19
				c-0.063,0.009-0.127-0.127-0.15-0.182c-0.035-0.077-0.227-0.014-0.227,0.431c0,0.018,0.002,0.037,0.002,0.058
				c0.002,0.018-0.01,0.034-0.029,0.037c-0.688,0.117-1.244-0.127-1.279-0.169c-0.035-0.039,0-0.089,0.09-0.111
				c0.174-0.045,0.152-0.243,0.191-0.261c0.039-0.019,0.098-0.049,0.018-0.058c-0.398-0.025-0.402,0.352-0.492,0.302
				c-0.09-0.051-0.039-0.181-0.006-0.211c0.252-0.155,0.143-0.361,0.17-0.397s0.049-0.09-0.035-0.08
				c-0.328,0.05-0.375,0.286-0.379,0.397c-0.002,0.07-0.004,0.145-0.037,0.098c-0.119-0.185-0.023-0.236-0.012-0.457
				s-0.104-0.252-0.088-0.333c0.018-0.082-0.012-0.136-0.059-0.074c0,0-0.412,0.524,0.141,1.161
				c0.438,0.499,1.449,0.481,1.861,0.451c0.018-0.002,0.031,0.007,0.039,0.022c0.107,0.203,0.324,0.409,0.74,0.486
				c0.689,0.127,1.588-0.284,1.85-0.381c0.006-0.002,0.012,0,0.016,0.005c0.051,0.059,0.418,0.386,1.266,0.079
				c0.01-0.003,0.021-0.001,0.029,0.006c0.102,0.082,0.77,0.602,1.574,0.602c0.262,0,0.398-0.076,0.445-0.109
				c0.01-0.007,0.023-0.002,0.025,0.01c0.004,0.021,0.012,0.053,0.016,0.086c0.006,0.045,0.143-0.018,0.219-0.267
				c0.006-0.021,0.029-0.035,0.053-0.029c0.348,0.081,0.996,0.217,1.076,0.24c0.105,0.031,0.133,0.136,0.041,0.296
				c-0.094,0.159,0.057,0.342,0.098,0.408c0.039,0.065,0.092,0.1,0.09-0.024c-0.004-0.113,0.09-0.111,0.119-0.169
				c0.084-0.169-0.037-0.225,0.02-0.328c0.084-0.152,0.42-0.081,0.479,0.022c0.057,0.102,0.176,0.162,0.287,0.157
				c0.109-0.005,0.182-0.007,0.225,0.028c0.035,0.029,0.102,0.053,0.08-0.026C19.667,13.938,19.331,13.844,19.21,13.835"/>
			<path fill="#81C241" d="M15.589,11.92c0.025-0.1,0.102-0.191,0.199-0.279c0.127-0.113,0.273-0.204,0.432-0.268
				c0.064-0.024,0.109-0.051,0.08-0.073c-0.113-0.058-0.189-0.148-0.221-0.235c-0.043-0.126-0.037-0.297,0.199-0.315
				c0.102-0.007,0.299-0.011,0.463-0.04c0.037-0.006,0.082-0.021,0.107-0.038c0.064-0.042,0.051-0.066-0.01-0.192
				c-0.039-0.081-0.047-0.199-0.027-0.305c0.008-0.038,0.021-0.1-0.023-0.14c-0.188-0.169-0.223,0.145-0.463,0.324
				c-0.59,0.442-1.73,0.41-1.904,0.384c-0.178-0.026-0.293-0.007-0.285,0.126c0.008,0.117,0.113,0.133,0.061,0.283
				c-0.053,0.149-0.012,0.292,0.15,0.376c0.178,0.093,0.006,0.294,0.244,0.386c0.156,0.061,0.15,0.076,0.184,0.16
				c0.033,0.082,0.049,0.223,0.275,0.136c0.25-0.097,0.225,0.139,0.4,0.127C15.618,12.324,15.528,12.152,15.589,11.92"/>
			<path fill="#E72C2A" d="M16.487,11.522c0,0-0.105,0.008-0.137,0.053c-0.016,0.021-0.008,0.076,0.082,0.066
				c0.352-0.036,0.461,0.113,0.604,0.322c0.143,0.211,0.293,0.368,0.375,0.364c0.055-0.004,0.039-0.11-0.033-0.227
				c-0.146-0.234-0.346-0.431-0.514-0.52C16.696,11.492,16.487,11.522,16.487,11.522"/>
			<path fill="#E72C2A" d="M16.733,11.869c-0.084-0.014-0.01,0.116,0.037,0.183s0.135,0.236,0.227,0.236
				C17.087,12.288,16.911,11.896,16.733,11.869"/>
			<path fill="#E72C2A" d="M16.429,11.896c-0.063,0.025-0.021,0.142,0.041,0.234c0.064,0.095,0.135,0.063,0.135-0.008
				C16.604,12.007,16.511,11.863,16.429,11.896"/>
			<path fill="#FFFFFF" d="M17.548,10.234c0.002-0.059-0.008-0.114,0.063-0.144c0.076-0.033,0.105-0.038,0.117,0.017
				c0,0,0.031,0.189-0.051,0.297C17.595,10.513,17.542,10.351,17.548,10.234"/>
			<path fill="#E72C2A" d="M16.817,10.831c-0.016,0.008-0.031,0.015-0.049,0.021c-0.047,0.014-0.16,0.046-0.24,0.052
				c-0.088,0.008-0.201-0.002-0.219,0.079c-0.018,0.091,0.07,0.146,0.174,0.113c0.086-0.024,0.395-0.229,0.367-0.267
				C16.843,10.819,16.833,10.824,16.817,10.831"/>
			<path fill="#FFFFFF" d="M17.298,10.105c-0.061-0.027-0.098-0.043-0.141-0.055c-0.102-0.037-0.135-0.006-0.154,0.013
				c-0.037,0.034-0.047,0.146-0.033,0.264c0.016,0.13,0.068,0.217,0.189,0.204c0.123-0.014,0.162-0.215,0.176-0.314
				C17.343,10.169,17.339,10.126,17.298,10.105"/>
			<path fill="#FFD600" d="M17.583,10.766c-0.037-0.015-0.182-0.018-0.209-0.01s-0.02,0.024-0.01,0.035
				c0.014,0.018,0.041,0.035,0.092,0.036C17.552,10.83,17.616,10.777,17.583,10.766"/>
			<path fill="#FFD600" d="M17.702,10.571c-0.047-0.038-0.086-0.059-0.135-0.078c-0.107-0.042-0.059-0.128-0.117-0.133
				c-0.061-0.006-0.084,0.13-0.084,0.209c0,0.068,0.064,0.088,0.152,0.088c0.104,0,0.158,0.002,0.186,0.005
				C17.739,10.666,17.772,10.627,17.702,10.571"/>
			<path fill="#E72C2A" d="M14.915,12.496c0.135-0.031,0.244-0.019,0.256,0.088c0.016,0.132-0.219,0.394-0.455,0.506
				c-0.205,0.096-0.58,0.23-0.852,0.041c-0.107-0.074,0.135-0.218,0.131-0.318c-0.004-0.051-0.068-0.079-0.164-0.015
				c-0.051,0.035-0.225,0.146-0.529,0.277c-0.307,0.129-0.803,0.235-1.057,0.28c-0.467,0.082-0.881-0.151-0.881-0.438
				c0-0.162,0.113-0.238,0.449-0.225c0.145,0.006,0.313-0.043,0.41-0.073c0.141-0.045,0.328-0.001,0.447,0.065
				c0.18,0.101,0.242-0.037,0.242-0.037c0.059-0.167-0.209-0.204-0.32-0.246c-0.26-0.096-0.287-0.324-0.131-0.443
				c0.064-0.05,0.209-0.148,0.131-0.226c-0.111-0.111-0.391,0.138-0.52,0.085c-0.1-0.042,0.01-0.164,0.197-0.248
				c0.148-0.064,0.291-0.09,0.447-0.02c0.156,0.071,0.408,0.205,0.471,0.131c0.092-0.11-0.162-0.269-0.273-0.316
				c-0.111-0.046-0.385-0.204-0.781-0.42c-0.383-0.207-0.666,0.02-1.021,0.266c-0.189,0.132-0.379,0.283-0.473,0.236
				c-0.1-0.052,0.031-0.184,0.318-0.407c0.285-0.224,0.604-0.455,0.943-0.39c0.307,0.061,0.785,0.381,1.041,0.496
				c0.193,0.088,0.408,0.246,0.475,0.4c0.041,0.093,0.162,0.094,0.168,0.008c0.004-0.054,0.002-0.161,0.141-0.154
				c0.053,0.003,0.141,0.045,0.164,0.178s0.15,0.123,0.203,0.188c0.055,0.065,0.018,0.262,0.188,0.374
				c0.182,0.12,0.184,0.005,0.336,0.258C14.665,12.479,14.78,12.528,14.915,12.496"/>
			<path fill="#E72C2A" d="M11.739,11.091c-0.068-0.045-0.195,0.013-0.277,0.067c-0.148,0.094-0.33,0.229-0.246,0.304
				c0.1,0.092,0.354-0.097,0.49-0.211C11.755,11.21,11.806,11.133,11.739,11.091"/>
			<path fill="#E72C2A" d="M12.185,11.254c0,0-0.088-0.063-0.203-0.003c-0.117,0.06-0.252,0.156-0.289,0.205
				c-0.035,0.048-0.057,0.131,0.057,0.165c0.115,0.035,0.275-0.096,0.342-0.14C12.157,11.438,12.276,11.33,12.185,11.254"/>
			<path fill="#E72C2A" d="M16.159,11.79c-0.082,0.004-0.115,0.244,0.006,0.244C16.259,12.034,16.235,11.785,16.159,11.79"/>
			<path fill="#E72C2A" d="M10.815,9.182c-0.184-0.309-0.789-1.343-1.744-1.88C8.116,6.767,7.749,6.973,7.64,7.019
				C7.552,7.055,7.222,7.23,7.179,7.702C7.13,8.213,7.284,8.159,7.354,8.07c0.072-0.088,0.248-0.342,0.602-0.229
				c0.354,0.114,0.74,0.376,1.182,0.912c0.441,0.537,1.018,1.445,1.619,1.567S11.001,9.489,10.815,9.182"/>
			<path fill="#81C241" d="M9.536,7.359c0.301,0.225,1.055,0.848,1.533,1.779c0.203,0.393,0.309,0.942,0.65,1.018
				c0.389,0.082,0.465-0.416,0.264-1.036s-0.477-1.225-1.281-1.737c-0.551-0.35-0.949-0.271-1.146-0.188
				C9.489,7.224,9.479,7.315,9.536,7.359"/>
			<path fill="#E72C2A" d="M12.317,10.063c-0.014,0.2,0.199,0.307,0.297,0.102c0.098-0.204,0.332-0.634,0.119-1.42
				c-0.174-0.638-0.705-0.767-0.943-0.758c-0.041,0.002-0.066,0.05-0.041,0.085C11.907,8.295,12.37,9.04,12.317,10.063"/>
			<path fill="#E72C2A" d="M17.729,9.936c-0.105-0.019-0.158,0.05-0.195,0.011c-0.041-0.039,0.002-0.09,0.059-0.09
				c0.059,0,0.123-0.105,0.178-0.067C17.825,9.828,17.806,9.949,17.729,9.936"/>
			<path fill="#E72C2A" d="M17.353,9.865c0.078,0.003,0.094,0.034,0.09,0.061c-0.004,0.02-0.018,0.033-0.035,0.041
				c-0.043,0.019-0.119,0.014-0.26-0.059c-0.166-0.086-0.201-0.028-0.291-0.017c-0.094,0.011-0.1-0.156,0.074-0.195
				S17.188,9.858,17.353,9.865"/>
			<path fill="#E72C2A" d="M16.896,13.438c-0.076,0.411-0.52,0.356-0.668,0.334c-0.152-0.022-0.125-0.127-0.07-0.142
				c0.096-0.026,0.111-0.076,0.102-0.101c-0.014-0.039-0.051-0.044-0.102-0.028c-0.26,0.079-0.83-0.232-0.645-0.537
				c0.082-0.131,0.422-0.194,0.908-0.136C16.622,12.854,16.97,13.028,16.896,13.438"/>
			<path fill="#231F20" d="M17.687,10.243c0,0.04-0.023,0.07-0.049,0.07c-0.025-0.001-0.045-0.034-0.043-0.073
				c0-0.04,0.023-0.071,0.049-0.07S17.688,10.204,17.687,10.243"/>
			<path fill="#231F20" d="M17.218,10.284c-0.008,0.051-0.039,0.087-0.072,0.084c-0.033-0.005-0.055-0.049-0.047-0.1
				c0.006-0.05,0.039-0.088,0.07-0.083C17.202,10.188,17.224,10.233,17.218,10.284"/>
			<path fill="#E72C2A" d="M16.274,9.439c-0.043,0.016-0.004,0.098,0.025,0.137c0.035,0.046,0.07,0.075,0.098,0.061
				c0.029-0.018,0.01-0.079-0.018-0.119C16.353,9.477,16.308,9.428,16.274,9.439"/>
			<path fill="#E72C2A" d="M16.921,9.021c0.01,0.045,0.023,0.137-0.012,0.144s-0.053-0.054-0.088-0.126
				c-0.031-0.071-0.088-0.104-0.125-0.141c-0.041-0.035-0.061-0.09-0.014-0.115c0.031-0.016,0.111-0.01,0.172,0.065
				C16.903,8.909,16.921,9.021,16.921,9.021"/>
			<path fill="#E72C2A" d="M17.401,8.267c-0.084,0.041-0.014,0.171,0.033,0.229c0.043,0.057,0.129,0.158,0.182,0.232
				c0.238,0.322,0.162,0.477,0.238,0.473c0.059-0.003,0.088-0.313-0.023-0.55C17.72,8.411,17.536,8.201,17.401,8.267"/>
		</g>
	</g>
</g>
</svg>
