<?xml version="1.0" encoding="utf-8"?>
<!-- Generator: Adobe Illustrator 16.0.0, SVG Export Plug-In . SVG Version: 6.00 Build 0)  -->
<!DOCTYPE svg PUBLIC "-//W3C//DTD SVG 1.1//EN" "http://www.w3.org/Graphics/SVG/1.1/DTD/svg11.dtd">
<svg version="1.1" id="Layer_1" xmlns="http://www.w3.org/2000/svg" xmlns:xlink="http://www.w3.org/1999/xlink" x="0px" y="0px"
	 width="28.112px" height="49.567px" viewBox="0 0 28.112 49.567" enable-background="new 0 0 28.112 49.567" xml:space="preserve">
<pattern  x="-555.442" y="462.802" width="1024" height="2332.091" patternUnits="userSpaceOnUse" id="Unnamed_Pattern" viewBox="0 -2332.091 1024 2332.091" overflow="visible">
	<g>
		<polygon fill="none" points="0,0 1024,0 1024,-2332.091 0,-2332.091 		"/>
		<g>
			<defs>
				<rect id="SVGID_1_" y="-2332.091" width="1024" height="2332.091"/>
			</defs>
			<clipPath id="SVGID_2_">
				<use xlink:href="#SVGID_1_"  overflow="visible"/>
			</clipPath>
			<path clip-path="url(#SVGID_2_)" fill-rule="evenodd" clip-rule="evenodd" fill="#F6901E" d="M569.498-462.802
				c-7.763,0-14.056,6.293-14.056,14.056c0,6.698,4.684,12.301,10.955,13.713c0.801,0.181,0.747,0.773,0.841,1.61l2.26,20.188
				l2.229-19.9c0.091-0.81,0.061-1.718,0.822-1.887c6.297-1.394,11.006-7.009,11.006-13.725
				C583.555-456.509,577.262-462.802,569.498-462.802"/>
			<path clip-path="url(#SVGID_2_)" fill-rule="evenodd" clip-rule="evenodd" fill="#FFFFFF" d="M569.498-436.392
				c6.805,0,12.354-5.55,12.354-12.354c0-6.805-5.55-12.354-12.354-12.354c-6.804,0-12.354,5.55-12.354,12.354
				C557.145-441.941,562.694-436.392,569.498-436.392"/>
			<path clip-path="url(#SVGID_2_)" fill="#221F1F" d="M560.898-449.729c-0.104-0.141-0.177-0.207-0.272-0.258
				c-0.093-0.052-0.207-0.08-0.32-0.08c-0.237,0-0.409,0.117-0.409,0.283c0,0.134,0.078,0.193,0.33,0.251l0.334,0.079
				c0.24,0.059,0.396,0.124,0.503,0.214c0.138,0.117,0.21,0.282,0.21,0.478c0,0.441-0.379,0.737-0.938,0.737
				c-0.309,0-0.581-0.079-0.773-0.23c-0.098-0.072-0.142-0.12-0.245-0.259l0.365-0.258c0.097,0.142,0.189,0.225,0.323,0.282
				c0.107,0.049,0.248,0.076,0.375,0.076c0.262,0,0.432-0.124,0.432-0.313c0-0.154-0.107-0.24-0.383-0.3l-0.3-0.064
				c-0.479-0.104-0.685-0.301-0.685-0.654c0-0.42,0.351-0.71,0.868-0.71c0.277,0,0.516,0.079,0.719,0.245
				c0.076,0.064,0.114,0.103,0.217,0.22L560.898-449.729z"/>
			<path clip-path="url(#SVGID_2_)" fill="#221F1F" d="M562.112-448.861h0.441c0.223,0,0.361-0.033,0.499-0.127
				c0.213-0.141,0.334-0.372,0.334-0.641c0-0.471-0.324-0.757-0.861-0.757h-0.837v2.293h0.424V-448.861z M562.112-449.229v-0.793
				h0.375c0.311,0,0.451,0.121,0.451,0.375c0,0.283-0.158,0.418-0.484,0.418H562.112z"/>
			<path clip-path="url(#SVGID_2_)" fill="#221F1F" d="M564.182-448.943h0.424l0.453,0.85h0.477l-0.503-0.919
				c0.114-0.052,0.155-0.079,0.22-0.131c0.155-0.124,0.238-0.303,0.238-0.509c0-0.169-0.063-0.348-0.165-0.475
				c-0.149-0.184-0.355-0.26-0.693-0.26h-0.874v2.293h0.424V-448.943z M564.182-449.309v-0.713h0.416
				c0.282,0,0.444,0.128,0.444,0.348c0,0.231-0.165,0.365-0.454,0.365H564.182z"/>
			<polygon clip-path="url(#SVGID_2_)" fill="#221F1F" points="566.473,-448.093 566.05,-448.093 566.05,-450.386 566.473,-450.386 
							"/>
			<polygon clip-path="url(#SVGID_2_)" fill="#221F1F" points="568.871,-448.093 568.489,-448.093 567.511,-449.663 
				567.511,-448.093 567.112,-448.093 567.112,-450.386 567.516,-450.386 568.468,-448.837 568.468,-450.386 568.871,-450.386 			
				"/>
			<path clip-path="url(#SVGID_2_)" fill="#221F1F" d="M571.446-448.093h-0.365v-0.196c-0.097,0.082-0.131,0.11-0.196,0.148
				c-0.131,0.071-0.296,0.116-0.458,0.116c-0.616,0-1.063-0.506-1.063-1.201c0-0.72,0.458-1.229,1.104-1.229
				c0.29,0,0.558,0.11,0.744,0.3c0.1,0.106,0.144,0.175,0.22,0.361l-0.396,0.165c-0.11-0.302-0.296-0.447-0.578-0.447
				c-0.386,0-0.637,0.324-0.637,0.823c0,0.509,0.255,0.83,0.653,0.83c0.334,0,0.544-0.2,0.578-0.548h-0.571v-0.372h0.965V-448.093z"
				/>
			<polygon clip-path="url(#SVGID_2_)" fill="#221F1F" points="573.566,-450.008 572.43,-450.008 572.43,-449.43 573.407,-449.43 
				573.407,-449.064 572.43,-449.064 572.43,-448.094 572.006,-448.094 572.006,-450.387 573.566,-450.387 			"/>
			<polygon clip-path="url(#SVGID_2_)" fill="#221F1F" points="574.384,-448.093 573.961,-448.093 573.961,-450.386 
				574.384,-450.386 			"/>
			<polygon clip-path="url(#SVGID_2_)" fill="#221F1F" points="576.604,-450.008 575.399,-450.008 575.399,-449.463 
				576.509,-449.463 576.509,-449.099 575.399,-449.099 575.399,-448.472 576.7,-448.472 576.7,-448.094 574.977,-448.094 
				574.977,-450.387 576.604,-450.387 			"/>
			<polygon clip-path="url(#SVGID_2_)" fill="#221F1F" points="577.555,-448.472 578.501,-448.472 578.501,-448.093 
				577.13,-448.093 577.13,-450.386 577.555,-450.386 			"/>
			<path clip-path="url(#SVGID_2_)" fill="#221F1F" d="M578.841-448.093h0.703c0.282,0,0.492-0.038,0.665-0.124
				c0.326-0.162,0.512-0.531,0.512-1.009c0-0.341-0.086-0.62-0.258-0.823c-0.072-0.086-0.158-0.159-0.254-0.21
				c-0.176-0.097-0.342-0.127-0.665-0.127h-0.703V-448.093z M579.265-448.472v-1.536h0.241c0.544,0,0.754,0.214,0.754,0.765
				c0,0.23-0.031,0.399-0.103,0.53c-0.098,0.18-0.266,0.241-0.651,0.241H579.265z"/>
			<path clip-path="url(#SVGID_2_)" fill="#FFFFFF" d="M291.722-382.833c-1.1,0-2,0.899-2,2v53c0,1.1,0.9,2,2,2h379.5v-57H291.722z"
				/>
		</g>
		<g>
			<defs>
				<rect id="SVGID_3_" y="-2332.091" width="1024" height="2332.091"/>
			</defs>
			<clipPath id="SVGID_4_">
				<use xlink:href="#SVGID_3_"  overflow="visible"/>
			</clipPath>
			<polygon clip-path="url(#SVGID_4_)" fill="#606060" points="613.308,-351.69 610.723,-356 608.137,-351.69 			"/>
			<polygon clip-path="url(#SVGID_4_)" fill="#606060" points="608.137,-350 610.722,-345.691 613.308,-350 			"/>
			<polygon clip-path="url(#SVGID_4_)" fill="#606060" points="455.307,-351.69 452.722,-356 450.136,-351.69 			"/>
			<polygon clip-path="url(#SVGID_4_)" fill="#606060" points="450.137,-350 452.722,-345.691 455.308,-350 			"/>
			<g clip-path="url(#SVGID_4_)">
				<defs>
					<rect id="SVGID_5_" x="697.433" y="-356.423" width="10.823" height="10.823"/>
				</defs>
				<clipPath id="SVGID_6_">
					<use xlink:href="#SVGID_5_"  overflow="visible"/>
				</clipPath>
				<g clip-path="url(#SVGID_6_)">
					<defs>
						<rect id="SVGID_7_" x="697.433" y="-356.423" width="10.823" height="10.823"/>
					</defs>
					<clipPath id="SVGID_8_">
						<use xlink:href="#SVGID_7_"  overflow="visible"/>
					</clipPath>
					<path clip-path="url(#SVGID_8_)" fill="#FFFFFF" d="M705.492-349.896c0.38-0.644,0.6-1.395,0.6-2.198
						c0-2.391-1.938-4.329-4.33-4.329c-2.39,0-4.329,1.938-4.329,4.329c0,2.392,1.939,4.329,4.329,4.329
						c0.804,0,1.555-0.22,2.199-0.6l2.446,2.447c0.424,0.424,1.109,0.424,1.531,0c0.424-0.423,0.424-1.108,0-1.53L705.492-349.896z
						 M705.009-352.095c0,1.79-1.458,3.247-3.247,3.247c-1.79,0-3.245-1.457-3.245-3.247s1.455-3.247,3.245-3.247
						C703.551-355.342,705.009-353.885,705.009-352.095"/>
				</g>
			</g>
			<path clip-path="url(#SVGID_4_)" fill="#FFFFFF" d="M616.022-499.041h-95.45c-0.535,0-0.973,0.438-0.973,0.974v27.771
				c0,0.535,0.438,0.974,0.973,0.974h44.722L568.33-464l3.082-5.323h44.61c0.535,0,0.973-0.438,0.973-0.974v-27.771
				C616.995-498.603,616.558-499.041,616.022-499.041"/>
			<path clip-path="url(#SVGID_4_)" fill="#8C6239" d="M554.822-472.798h-29.525c-1.101,0-2-0.899-2-2v-19.354c0-1.1,0.899-2,2-2
				h29.525c1.1,0,2,0.9,2,2v19.354C556.822-473.697,555.922-472.798,554.822-472.798"/>
			<path clip-path="url(#SVGID_4_)" fill="none" stroke="#F6901E" stroke-width="0.25" stroke-miterlimit="10" d="M614.213-495.187
				c0,1.009-0.818,1.827-1.827,1.827s-1.827-0.818-1.827-1.827s0.818-1.827,1.827-1.827S614.213-496.195,614.213-495.187z"/>
			
				<line clip-path="url(#SVGID_4_)" fill="none" stroke="#F6901E" stroke-width="0.25" stroke-miterlimit="10" x1="611.022" y1="-496.402" x2="613.739" y2="-493.959"/>
			
				<line clip-path="url(#SVGID_4_)" fill="none" stroke="#F6901E" stroke-width="0.25" stroke-miterlimit="10" x1="613.739" y1="-496.402" x2="611.021" y2="-493.959"/>
		</g>
		<text transform="matrix(1 0 0 1 559.9648 -489.1094)"><tspan x="0" y="0" fill="#606060" font-family="'Roboto-Light'" font-size="3">Lo</tspan><tspan x="3.261" y="0" fill="#606060" font-family="'Roboto-Light'" font-size="3">r</tspan><tspan x="4.243" y="0" fill="#606060" font-family="'Roboto-Light'" font-size="3">em Ipsum is simply </tspan></text>
		<text transform="matrix(1 0 0 1 559.9648 -485.5098)" fill="#606060" font-family="'Roboto-Light'" font-size="3">dummy text of the printing</text>
		<text transform="matrix(1 0 0 1 559.9648 -481.9092)"><tspan x="0" y="0" fill="#606060" font-family="'Roboto-Light'" font-size="3">Lo</tspan><tspan x="3.261" y="0" fill="#606060" font-family="'Roboto-Light'" font-size="3">r</tspan><tspan x="4.243" y="0" fill="#606060" font-family="'Roboto-Light'" font-size="3">em Ipsum is simply </tspan></text>
		<text transform="matrix(1 0 0 1 559.9648 -478.3096)" fill="#606060" font-family="'Roboto-Light'" font-size="3">dummy text of the printing</text>
	</g>
</pattern>
<g id="Layer_2">
	<g id="Layer_3">
		<path fill-rule="evenodd" clip-rule="evenodd" fill="url(#Unnamed_Pattern)" d="M14.056,0C6.293,0,0,6.293,0,14.056
			c0,6.698,4.684,12.301,10.955,13.713c0.801,0.181,0.747,0.773,0.841,1.61l2.26,20.188l2.229-19.9
			c0.091-0.81,0.061-1.718,0.822-1.887c6.297-1.394,11.006-7.009,11.006-13.725C28.112,6.293,21.819,0,14.056,0"/>
		<circle fill-rule="evenodd" clip-rule="evenodd" fill="#FFFFFF" cx="14.056" cy="14.083" r="12.344"/>
		<g>
			<path fill="#A96F47" d="M15.202,10.031c0.002-0.003,0.002-0.007,0.002-0.01V9.912c0-0.007-0.002-0.015-0.004-0.021
				c0.03-0.018,0.048-0.05,0.048-0.086c0-0.055-0.044-0.101-0.099-0.101s-0.101,0.046-0.101,0.101c0,0.036,0.021,0.068,0.05,0.086
				c-0.002,0.006-0.004,0.014-0.004,0.021v0.109c0,0,0,0.003,0,0.004h-0.886c0.017-0.012,0.028-0.03,0.028-0.054
				c0-0.037-0.029-0.066-0.066-0.066c-0.035,0-0.067,0.029-0.067,0.066c0,0.023,0.013,0.042,0.028,0.054h-0.035
				c-0.035,0-0.063,0.029-0.063,0.065c0,0.011,0.002,0.021,0.007,0.029c-0.191,0.056-0.331,0.233-0.331,0.444
				c0,0.16,0.083,0.303,0.208,0.384h-0.151c-0.028,0-0.05,0.022-0.05,0.05v0.049c0,0.027,0.021,0.05,0.05,0.05h0.06
				c0.004,0.127,0.009,0.458-0.022,0.77h-0.147c-0.036,0-0.063,0.027-0.063,0.063v0.062c0,0.036,0.027,0.063,0.063,0.063h0.123
				c-0.021,0.125-0.052,0.237-0.092,0.32h-0.173v0.556h1.313v-0.556h-0.173c-0.04-0.083-0.07-0.195-0.09-0.32h0.122
				c0.035,0,0.064-0.027,0.064-0.063v-0.062c0-0.035-0.029-0.063-0.064-0.063h-0.148c-0.031-0.312-0.024-0.643-0.021-0.77h0.06
				c0.026,0,0.048-0.022,0.048-0.05v-0.049c0-0.027-0.021-0.05-0.048-0.05h-0.153c0.127-0.081,0.208-0.224,0.208-0.384
				c0-0.18-0.101-0.334-0.25-0.41h0.796c0.035,0,0.063-0.029,0.063-0.063C15.241,10.064,15.225,10.041,15.202,10.031"/>
			<path fill="#A96F47" d="M16.152,11.098c0,0.011-0.007,0.02-0.016,0.02h-0.513c-0.008,0-0.016-0.009-0.016-0.02v-0.077
				c0-0.01,0.008-0.019,0.016-0.019h0.513c0.009,0,0.016,0.009,0.016,0.019V11.098z"/>
			<path fill="#A96F47" d="M15.677,11.15c0,0.011-0.007,0.018-0.016,0.018h-0.141c-0.009,0-0.016-0.007-0.016-0.018v-0.211
				c0-0.011,0.007-0.019,0.016-0.019h0.141c0.009,0,0.016,0.008,0.016,0.019V11.15z"/>
			<path fill="#A96F47" d="M16.169,11.118c0,0.01-0.006,0.019-0.013,0.019h-0.06c-0.01,0-0.013-0.009-0.013-0.019v-0.17
				c0-0.01,0.003-0.018,0.013-0.018h0.06c0.007,0,0.013,0.008,0.013,0.018V11.118z"/>
			<path fill="#A96F47" d="M15.649,11.121c0,0.009-0.008,0.016-0.016,0.016h-0.085c-0.009,0-0.016-0.007-0.016-0.016v-0.218
				c0-0.009,0.007-0.017,0.016-0.017h0.085c0.008,0,0.016,0.008,0.016,0.017V11.121z"/>
			<path fill="#A96F47" d="M15.297,12.384c-0.024,0-0.049,0.012-0.068,0.035c-0.02,0.021-0.028,0.051-0.028,0.08v0.253
				c0,0.049,0.016,0.097,0.048,0.135c0.031,0.037,0.072,0.056,0.114,0.056h0.457c0.041,0,0.083-0.019,0.115-0.056
				c0.031-0.038,0.047-0.086,0.047-0.135v-0.253c0-0.029-0.009-0.06-0.027-0.08c-0.02-0.023-0.045-0.035-0.069-0.035H15.297z"/>
			<path fill="#A96F47" d="M15.887,11.253c-0.06-0.069-0.134-0.106-0.211-0.111h-0.169c-0.078,0.005-0.153,0.042-0.212,0.111
				c-0.063,0.074-0.152,0.2-0.095,0.27c0.336,0.396,0,0.696,0,0.696c0,0.028,0.009,0.058,0.028,0.08s0.044,0.033,0.068,0.033h0.588
				c0.024,0,0.05-0.011,0.069-0.033c0.019-0.022,0.027-0.052,0.027-0.08c0,0-0.297-0.346,0-0.696
				C16.04,11.453,15.95,11.327,15.887,11.253"/>
			<path fill="#A96F47" d="M16.209,10.896c0,0.046-0.037,0.083-0.083,0.083s-0.082-0.037-0.082-0.083
				c0-0.045,0.036-0.082,0.082-0.082S16.209,10.851,16.209,10.896"/>
			<rect x="15.316" y="12.209" fill="#A96F47" width="0.572" height="0.272"/>
			<path fill-rule="evenodd" clip-rule="evenodd" fill="#A96F47" d="M12.493,11.008h0.182v-0.042h-0.633
				c-0.026,0-0.037-0.009-0.037-0.024V10.88c0-0.006-0.001-0.007-0.012-0.01c-0.02-0.002-0.02-0.017,0-0.02
				c0.007,0,0.012,0,0.012-0.014c0-0.007-0.005-0.014-0.012-0.019c-0.016-0.008-0.024-0.021-0.024-0.039
				c0-0.025,0.035-0.055,0.079-0.055c0.042,0,0.079,0.029,0.079,0.055s-0.016,0.037-0.039,0.046v0.025h0.015
				c0.021,0,0.021,0.02,0,0.02h-0.015v0.042h0.587v-0.021c-0.019-0.001-0.03-0.011-0.03-0.023c0-0.011,0.016-0.021,0.033-0.021h0.12
				c0.018,0,0.033,0.011,0.033,0.021c0,0.013-0.013,0.022-0.03,0.023v0.021h0.048v0.054h-0.048v0.042h0.182
				c0.009,0,0.02,0.007,0.02,0.014v1.002c0,0.096,0.051,0.15,0.137,0.22c0.063,0.053,0.074,0.101,0.074,0.17
				c0,0.166-0.051,0.355-0.193,0.492c-0.011,0.011-0.028,0.019-0.048,0.019h-0.234h-0.233c-0.02,0-0.037-0.008-0.046-0.019
				c-0.145-0.137-0.195-0.326-0.195-0.492c0-0.069,0.01-0.117,0.073-0.17c0.085-0.069,0.14-0.124,0.14-0.22v-1.002
				C12.476,11.015,12.484,11.008,12.493,11.008"/>
			<path fill="#A96F47" d="M2.687,13.829h0.546c0.163,0,0.308,0.022,0.433,0.065c0.125,0.044,0.228,0.104,0.31,0.184
				c0.083,0.079,0.145,0.175,0.188,0.287c0.043,0.112,0.063,0.235,0.063,0.37c0,0.132-0.021,0.253-0.063,0.363
				c-0.044,0.111-0.105,0.207-0.188,0.288c-0.082,0.08-0.185,0.142-0.31,0.185c-0.125,0.044-0.27,0.065-0.433,0.065H2.941v0.599
				H2.687V13.829z M3.218,15.411c0.134,0,0.248-0.017,0.344-0.051c0.095-0.032,0.171-0.079,0.229-0.139
				c0.061-0.06,0.103-0.131,0.131-0.215c0.027-0.083,0.04-0.175,0.04-0.274c0-0.098-0.013-0.188-0.04-0.271
				c-0.028-0.082-0.07-0.152-0.131-0.214c-0.058-0.059-0.134-0.106-0.229-0.14c-0.096-0.035-0.21-0.052-0.344-0.052H2.941v1.355
				H3.218z"/>
			<polygon fill="#A96F47" points="5.106,13.829 6.571,13.829 6.571,14.056 5.362,14.056 5.362,15.182 6.441,15.182 6.441,15.407 
				5.362,15.407 5.362,16.01 6.621,16.01 6.621,16.235 5.106,16.235 			"/>
			<path fill="#A96F47" d="M7.513,13.829h0.546c0.164,0,0.31,0.022,0.434,0.065c0.123,0.044,0.227,0.104,0.31,0.184
				c0.081,0.079,0.145,0.175,0.187,0.287c0.044,0.112,0.063,0.235,0.063,0.37c0,0.132-0.02,0.253-0.063,0.363
				c-0.042,0.111-0.105,0.207-0.187,0.288c-0.083,0.08-0.187,0.142-0.31,0.185c-0.124,0.044-0.27,0.065-0.434,0.065h-0.29v0.599
				H7.513V13.829z M8.045,15.411c0.134,0,0.248-0.017,0.343-0.051c0.094-0.032,0.171-0.079,0.23-0.139
				c0.059-0.06,0.101-0.131,0.129-0.215c0.026-0.083,0.041-0.175,0.041-0.274c0-0.098-0.015-0.188-0.041-0.271
				c-0.028-0.082-0.07-0.152-0.129-0.214c-0.06-0.059-0.137-0.106-0.23-0.14c-0.095-0.035-0.209-0.052-0.343-0.052H7.769v1.355
				H8.045z"/>
			<path fill="#A96F47" d="M9.934,13.829h0.546c0.165,0,0.31,0.022,0.433,0.065c0.125,0.044,0.228,0.104,0.31,0.184
				c0.083,0.079,0.145,0.175,0.188,0.287c0.041,0.112,0.063,0.235,0.063,0.37c0,0.132-0.022,0.253-0.063,0.363
				c-0.044,0.111-0.105,0.207-0.188,0.288c-0.082,0.08-0.185,0.142-0.31,0.185c-0.123,0.044-0.268,0.065-0.433,0.065h-0.291v0.599
				H9.934V13.829z M10.465,15.411c0.134,0,0.249-0.017,0.344-0.051c0.095-0.032,0.171-0.079,0.229-0.139
				c0.06-0.06,0.103-0.131,0.13-0.215c0.027-0.083,0.041-0.175,0.041-0.274c0-0.098-0.014-0.188-0.041-0.271
				c-0.027-0.082-0.07-0.152-0.13-0.214c-0.058-0.059-0.134-0.106-0.229-0.14c-0.095-0.035-0.21-0.052-0.344-0.052h-0.276v1.355
				H10.465z"/>
			<polygon fill="#A96F47" points="12.355,13.829 13.818,13.829 13.818,14.056 12.609,14.056 12.609,15.182 13.688,15.182 
				13.688,15.407 12.609,15.407 12.609,16.01 13.869,16.01 13.869,16.235 12.355,16.235 			"/>
			<path fill="#A96F47" d="M16.321,16.235h-0.301l-0.465-0.654c-0.081,0.014-0.165,0.021-0.253,0.021h-0.287v0.633H14.76v-2.406
				h0.543c0.165,0,0.31,0.022,0.433,0.065c0.125,0.044,0.227,0.104,0.312,0.184c0.083,0.079,0.146,0.173,0.19,0.281
				c0.042,0.109,0.063,0.228,0.063,0.358c0,0.181-0.043,0.34-0.127,0.474c-0.083,0.135-0.208,0.236-0.377,0.305L16.321,16.235z
				 M15.288,15.375c0.136,0,0.252-0.015,0.347-0.049c0.096-0.033,0.171-0.079,0.229-0.139c0.06-0.059,0.102-0.129,0.13-0.209
				c0.026-0.08,0.04-0.167,0.04-0.261c0-0.096-0.014-0.183-0.04-0.264c-0.028-0.082-0.07-0.152-0.13-0.212
				c-0.059-0.058-0.136-0.104-0.23-0.138c-0.098-0.032-0.212-0.049-0.346-0.049h-0.272v1.319H15.288z"/>
			<path fill="#A96F47" d="M17.39,13.801h0.035l0.824,1.391c0.031,0.055,0.059,0.108,0.083,0.162
				c0.011,0.029,0.022,0.058,0.037,0.085c0.016-0.027,0.027-0.056,0.04-0.085c0.013-0.025,0.023-0.053,0.037-0.082
				c0.012-0.026,0.028-0.054,0.044-0.08l0.823-1.391h0.034l0.266,2.435h-0.259l-0.167-1.469c-0.004-0.038-0.007-0.078-0.011-0.119
				c-0.002-0.044-0.006-0.082-0.007-0.118c-0.002-0.042-0.004-0.084-0.004-0.123c-0.014,0.039-0.03,0.081-0.046,0.119
				c-0.014,0.033-0.029,0.07-0.049,0.113c-0.02,0.04-0.039,0.077-0.057,0.11l-0.637,1.083H18.35l-0.634-1.083
				c-0.018-0.033-0.037-0.07-0.057-0.11s-0.037-0.077-0.051-0.113l-0.05-0.123c0,0.042,0,0.085-0.003,0.127
				c-0.002,0.038-0.004,0.078-0.007,0.118c-0.002,0.043-0.006,0.081-0.011,0.119l-0.166,1.469h-0.248L17.39,13.801z"/>
			<rect x="20.536" y="13.829" fill="#A96F47" width="0.258" height="2.406"/>
			<polygon fill="#A96F47" points="21.817,13.829 22.072,13.829 22.072,16.01 23.208,16.01 23.208,16.235 21.817,16.235 			"/>
			<polygon fill="#A96F47" points="24.035,13.829 24.29,13.829 24.29,16.01 25.426,16.01 25.426,16.235 24.035,16.235 			"/>
			<path fill="#231F20" d="M6.654,17.981c-0.032,0-0.062-0.006-0.09-0.017s-0.051-0.026-0.072-0.046
				c-0.021-0.021-0.037-0.046-0.049-0.073c-0.013-0.027-0.02-0.06-0.02-0.094c0-0.033,0.007-0.064,0.02-0.092
				c0.012-0.028,0.027-0.053,0.049-0.073s0.044-0.035,0.072-0.047c0.028-0.011,0.058-0.017,0.09-0.017
				c0.081,0,0.139,0.029,0.178,0.086l-0.035,0.026c-0.016-0.021-0.033-0.038-0.059-0.051c-0.024-0.014-0.051-0.02-0.084-0.02
				c-0.026,0-0.051,0.005-0.072,0.015c-0.021,0.009-0.04,0.022-0.058,0.039c-0.017,0.017-0.027,0.036-0.037,0.059
				c-0.009,0.023-0.013,0.048-0.013,0.074c0,0.027,0.004,0.053,0.013,0.076c0.01,0.021,0.021,0.041,0.037,0.058
				c0.018,0.017,0.036,0.03,0.058,0.04s0.046,0.014,0.072,0.014c0.033,0,0.062-0.007,0.086-0.021
				c0.024-0.013,0.044-0.03,0.062-0.054l0.037,0.024c-0.021,0.029-0.046,0.053-0.075,0.068C6.729,17.973,6.694,17.981,6.654,17.981"
				/>
			<path fill="#231F20" d="M7.326,17.981c-0.029,0-0.06-0.006-0.089-0.017c-0.027-0.011-0.054-0.026-0.072-0.046
				c-0.021-0.021-0.037-0.046-0.05-0.073s-0.018-0.06-0.018-0.093c0-0.034,0.005-0.065,0.018-0.093
				c0.013-0.028,0.028-0.053,0.05-0.073c0.019-0.021,0.045-0.035,0.072-0.047c0.029-0.012,0.06-0.018,0.089-0.018
				c0.034,0,0.063,0.006,0.09,0.018c0.028,0.012,0.053,0.026,0.074,0.047s0.037,0.045,0.05,0.073
				c0.012,0.027,0.018,0.059,0.018,0.093c0,0.033-0.006,0.065-0.018,0.093c-0.013,0.027-0.028,0.053-0.05,0.073
				c-0.021,0.02-0.046,0.035-0.074,0.046C7.39,17.976,7.36,17.981,7.326,17.981 M7.326,17.939c0.026,0,0.052-0.004,0.074-0.014
				c0.021-0.01,0.041-0.023,0.057-0.04s0.028-0.037,0.037-0.058c0.009-0.025,0.014-0.049,0.014-0.075
				c0-0.027-0.005-0.052-0.014-0.075c-0.009-0.022-0.021-0.042-0.037-0.059S7.422,17.589,7.4,17.58
				c-0.022-0.01-0.048-0.015-0.074-0.015s-0.049,0.005-0.07,0.015c-0.022,0.009-0.042,0.022-0.058,0.039
				c-0.018,0.017-0.028,0.036-0.039,0.059c-0.009,0.023-0.012,0.048-0.012,0.075c0,0.026,0.003,0.05,0.012,0.075
				c0.011,0.021,0.021,0.041,0.039,0.058c0.016,0.017,0.035,0.03,0.058,0.04C7.277,17.936,7.3,17.939,7.326,17.939"/>
			<polygon fill="#231F20" points="7.853,17.528 7.9,17.528 7.9,17.935 8.11,17.935 8.11,17.978 7.853,17.978 			"/>
			<path fill="#231F20" d="M8.571,17.981c-0.032,0-0.062-0.006-0.09-0.017s-0.051-0.026-0.072-0.046
				c-0.021-0.021-0.037-0.046-0.049-0.073c-0.013-0.027-0.018-0.06-0.018-0.093c0-0.034,0.005-0.065,0.018-0.093
				c0.012-0.028,0.027-0.053,0.049-0.073s0.044-0.035,0.072-0.047s0.058-0.018,0.09-0.018c0.031,0,0.062,0.006,0.092,0.018
				c0.026,0.012,0.051,0.026,0.071,0.047c0.021,0.021,0.037,0.045,0.05,0.073c0.012,0.027,0.018,0.059,0.018,0.093
				c0,0.033-0.006,0.065-0.018,0.093c-0.013,0.027-0.028,0.053-0.05,0.073c-0.021,0.02-0.045,0.035-0.071,0.046
				C8.633,17.976,8.603,17.981,8.571,17.981 M8.571,17.939c0.026,0,0.051-0.004,0.074-0.014c0.021-0.01,0.04-0.023,0.056-0.04
				s0.028-0.037,0.039-0.058c0.009-0.025,0.013-0.049,0.013-0.075c0-0.027-0.004-0.052-0.013-0.075
				c-0.011-0.022-0.023-0.042-0.039-0.059s-0.035-0.03-0.056-0.039c-0.023-0.01-0.048-0.015-0.074-0.015
				c-0.024,0-0.05,0.005-0.072,0.015c-0.023,0.009-0.041,0.022-0.057,0.039s-0.029,0.036-0.037,0.059
				c-0.01,0.023-0.016,0.048-0.016,0.075c0,0.026,0.006,0.05,0.016,0.075c0.008,0.021,0.021,0.041,0.037,0.058
				s0.033,0.03,0.057,0.04C8.521,17.936,8.547,17.939,8.571,17.939"/>
			<path fill="#231F20" d="M9.168,17.665c-0.004-0.004-0.007-0.007-0.011-0.013c-0.004-0.004-0.005-0.01-0.009-0.014
				c-0.004-0.005-0.007-0.01-0.011-0.016c0,0.007,0,0.013,0.002,0.02c0,0.004,0.002,0.01,0.002,0.017c0,0.004,0,0.01,0,0.016v0.303
				H9.096v-0.454h0.009l0.268,0.315c0.004,0.006,0.007,0.009,0.011,0.014c0.003,0.005,0.007,0.01,0.011,0.014
				c0.001,0.006,0.005,0.01,0.009,0.016c0-0.007,0-0.013,0-0.019C9.4,17.857,9.4,17.853,9.4,17.847c0-0.007,0-0.011,0-0.016v-0.303
				h0.042v0.453H9.436L9.168,17.665z"/>
			<rect x="9.767" y="17.528" fill="#231F20" width="0.047" height="0.449"/>
			<path fill="#231F20" d="M10.285,17.523h0.008l0.189,0.454h-0.051l-0.03-0.076h-0.227l-0.028,0.076h-0.048L10.285,17.523z
				 M10.384,17.861l-0.079-0.199c0-0.006-0.003-0.012-0.005-0.018s-0.004-0.012-0.006-0.017c-0.001-0.006-0.003-0.013-0.005-0.02
				c-0.002,0.007-0.004,0.014-0.005,0.02c-0.004,0.005-0.006,0.011-0.008,0.017c-0.001,0.006-0.003,0.012-0.005,0.018l-0.079,0.199
				H10.384z"/>
			<polygon fill="#231F20" points="10.767,17.528 10.813,17.528 10.813,17.935 11.024,17.935 11.024,17.978 10.767,17.978 			"/>
			<rect x="11.666" y="17.528" fill="#231F20" width="0.049" height="0.449"/>
			<path fill="#231F20" d="M12.109,17.665c-0.004-0.004-0.009-0.007-0.013-0.013c-0.003-0.004-0.005-0.01-0.009-0.014
				c-0.003-0.005-0.007-0.01-0.011-0.016c0.002,0.007,0.002,0.013,0.002,0.02c0,0.004,0,0.01,0.002,0.017c0,0.004,0,0.01,0,0.016
				v0.303h-0.044v-0.454h0.009l0.266,0.315c0.004,0.006,0.006,0.009,0.011,0.014c0.004,0.005,0.007,0.01,0.011,0.014
				c0.003,0.006,0.007,0.01,0.011,0.016c-0.002-0.007-0.002-0.013-0.004-0.019c0-0.006,0-0.011,0-0.017c0-0.007,0-0.011,0-0.016
				v-0.303h0.044v0.453h-0.007L12.109,17.665z"/>
			<path fill="#231F20" d="M12.704,17.528h0.109c0.037,0,0.07,0.005,0.101,0.016c0.029,0.011,0.054,0.026,0.075,0.045
				c0.021,0.02,0.037,0.044,0.05,0.071c0.01,0.027,0.016,0.059,0.016,0.092c0,0.034-0.006,0.064-0.016,0.093
				c-0.013,0.028-0.026,0.051-0.05,0.071c-0.02,0.02-0.046,0.033-0.075,0.044c-0.03,0.012-0.063,0.018-0.101,0.018h-0.109V17.528z
				 M12.81,17.935c0.032,0,0.061-0.005,0.087-0.014c0.024-0.009,0.046-0.021,0.06-0.038c0.018-0.015,0.029-0.034,0.037-0.057
				c0.009-0.023,0.012-0.047,0.012-0.074c0-0.026-0.003-0.051-0.012-0.073c-0.008-0.022-0.02-0.041-0.037-0.057
				c-0.014-0.017-0.035-0.029-0.06-0.039c-0.026-0.008-0.055-0.013-0.087-0.013h-0.06v0.364H12.81z"/>
			<rect x="13.352" y="17.528" fill="#231F20" width="0.048" height="0.449"/>
			<path fill="#231F20" d="M13.871,17.523h0.007l0.19,0.454H14.02l-0.032-0.076h-0.226l-0.029,0.076h-0.048L13.871,17.523z
				 M13.972,17.861l-0.079-0.199c-0.004-0.006-0.006-0.012-0.007-0.018c-0.002-0.006-0.004-0.012-0.006-0.017
				c-0.002-0.006-0.003-0.013-0.005-0.02c-0.002,0.007-0.004,0.014-0.007,0.02c0,0.005-0.004,0.011-0.006,0.017
				s-0.004,0.012-0.005,0.018l-0.079,0.199H13.972z"/>
			<path fill="#231F20" d="M14.424,17.665c-0.005-0.004-0.009-0.007-0.013-0.013c-0.003-0.004-0.005-0.01-0.008-0.014
				c-0.004-0.005-0.008-0.01-0.011-0.016c0.001,0.007,0.001,0.013,0.001,0.02c0,0.004,0.002,0.01,0.002,0.017
				c0,0.004,0.002,0.01,0.002,0.016v0.303h-0.046v-0.454h0.009l0.268,0.315c0.002,0.006,0.006,0.009,0.009,0.014
				c0.004,0.005,0.007,0.01,0.011,0.014c0.004,0.006,0.007,0.01,0.011,0.016c0-0.007-0.002-0.013-0.002-0.019
				c-0.002-0.006-0.002-0.011-0.002-0.017c0-0.007,0-0.011,0-0.016v-0.303h0.044v0.453h-0.007L14.424,17.665z"/>
			<rect x="15.374" y="17.528" fill="#231F20" width="0.05" height="0.449"/>
			<path fill="#231F20" d="M15.816,17.665c-0.004-0.004-0.007-0.007-0.011-0.013c-0.004-0.004-0.007-0.01-0.009-0.014
				c-0.003-0.005-0.007-0.01-0.011-0.016c0,0.007,0,0.013,0.002,0.02c0,0.004,0,0.01,0.002,0.017c0,0.004,0,0.01,0,0.016v0.303
				h-0.046v-0.454h0.009l0.268,0.315c0.002,0.006,0.006,0.009,0.011,0.014c0.003,0.005,0.007,0.01,0.009,0.014
				c0.004,0.006,0.007,0.01,0.011,0.016c0-0.007,0-0.013-0.002-0.019c0-0.006,0-0.011-0.002-0.017c0-0.007,0-0.011,0-0.016v-0.303
				h0.046v0.453h-0.009L15.816,17.665z"/>
			<path fill="#231F20" d="M16.525,17.981c-0.021,0-0.04-0.002-0.056-0.007c-0.018-0.006-0.032-0.012-0.046-0.021
				c-0.011-0.009-0.023-0.018-0.032-0.028c-0.009-0.013-0.016-0.023-0.022-0.034l0.04-0.022c0.006,0.01,0.011,0.02,0.018,0.027
				c0.008,0.009,0.017,0.016,0.025,0.022s0.02,0.011,0.031,0.016c0.013,0.003,0.026,0.005,0.042,0.005
				c0.013,0,0.025-0.002,0.035-0.005c0.013-0.005,0.021-0.009,0.03-0.016s0.016-0.015,0.02-0.023
				c0.005-0.01,0.009-0.021,0.009-0.032s-0.004-0.021-0.007-0.03c-0.004-0.009-0.009-0.017-0.016-0.024
				c-0.008-0.007-0.017-0.014-0.027-0.021c-0.01-0.006-0.022-0.012-0.037-0.019l-0.035-0.017c-0.016-0.007-0.029-0.014-0.042-0.021
				c-0.012-0.009-0.022-0.018-0.031-0.027c-0.007-0.009-0.015-0.021-0.018-0.032c-0.006-0.012-0.007-0.025-0.007-0.04
				c0-0.017,0.003-0.032,0.009-0.045c0.005-0.014,0.014-0.025,0.024-0.034c0.011-0.01,0.022-0.018,0.037-0.022
				c0.014-0.004,0.029-0.007,0.047-0.007c0.03,0,0.055,0.006,0.074,0.02c0.02,0.012,0.035,0.027,0.046,0.047L16.6,17.615
				c-0.009-0.016-0.02-0.026-0.033-0.035c-0.013-0.01-0.03-0.015-0.05-0.015c-0.022,0-0.04,0.006-0.053,0.018
				c-0.012,0.012-0.02,0.026-0.02,0.046c0,0.021,0.006,0.036,0.018,0.047c0.011,0.012,0.03,0.022,0.055,0.033l0.035,0.017
				c0.018,0.009,0.035,0.018,0.05,0.026c0.014,0.01,0.024,0.02,0.035,0.03c0.009,0.011,0.016,0.022,0.021,0.036
				c0.006,0.013,0.008,0.028,0.008,0.045c0,0.019-0.004,0.035-0.011,0.05s-0.018,0.026-0.028,0.038
				c-0.012,0.009-0.026,0.018-0.044,0.021C16.566,17.979,16.547,17.981,16.525,17.981"/>
			<path fill="#231F20" d="M16.959,17.528h0.102c0.032,0,0.059,0.005,0.081,0.012c0.023,0.009,0.043,0.021,0.059,0.035
				c0.016,0.014,0.026,0.032,0.035,0.053c0.007,0.021,0.011,0.044,0.011,0.068c0,0.026-0.004,0.049-0.011,0.069
				c-0.009,0.02-0.02,0.037-0.035,0.053c-0.016,0.015-0.035,0.026-0.059,0.034c-0.022,0.009-0.049,0.013-0.081,0.013h-0.054v0.112
				h-0.048V17.528z M17.06,17.822c0.024,0,0.045-0.002,0.063-0.01c0.018-0.004,0.032-0.014,0.043-0.024
				c0.01-0.012,0.02-0.025,0.024-0.041c0.005-0.015,0.007-0.032,0.007-0.051s-0.002-0.035-0.007-0.05s-0.015-0.028-0.024-0.04
				c-0.011-0.011-0.025-0.02-0.043-0.026s-0.038-0.01-0.063-0.01h-0.053v0.252H17.06z"/>
			<rect x="17.545" y="17.528" fill="#231F20" width="0.048" height="0.449"/>
			<path fill="#231F20" d="M18.205,17.978h-0.057l-0.086-0.122c-0.016,0.002-0.032,0.003-0.048,0.003h-0.053v0.119h-0.047v-0.449
				h0.1c0.03,0,0.059,0.005,0.081,0.012c0.023,0.009,0.042,0.021,0.059,0.035c0.014,0.014,0.026,0.032,0.035,0.053
				s0.012,0.041,0.012,0.065c0,0.035-0.009,0.063-0.024,0.089c-0.016,0.024-0.039,0.044-0.068,0.057L18.205,17.978z M18.012,17.816
				c0.026,0,0.047-0.004,0.064-0.01c0.018-0.005,0.032-0.014,0.043-0.024c0.012-0.013,0.019-0.023,0.024-0.04
				c0.005-0.014,0.009-0.03,0.009-0.049c0-0.017-0.004-0.033-0.009-0.049c-0.006-0.015-0.013-0.028-0.024-0.038
				c-0.011-0.012-0.025-0.021-0.043-0.026c-0.018-0.007-0.038-0.01-0.064-0.01h-0.05v0.246H18.012z"/>
			<path fill="#231F20" d="M18.646,17.523h0.008l0.189,0.454h-0.049l-0.03-0.076h-0.227l-0.03,0.076H18.46L18.646,17.523z
				 M18.747,17.861l-0.079-0.199c-0.004-0.006-0.004-0.012-0.007-0.018c0-0.006-0.004-0.012-0.004-0.017
				c-0.003-0.006-0.005-0.013-0.007-0.02c-0.002,0.007-0.004,0.014-0.005,0.02c-0.002,0.005-0.004,0.011-0.008,0.017
				c0,0.006-0.003,0.012-0.005,0.018l-0.079,0.199H18.747z"/>
			<polygon fill="#231F20" points="19.173,17.57 19.036,17.57 19.036,17.528 19.358,17.528 19.358,17.57 19.221,17.57 
				19.221,17.978 19.173,17.978 			"/>
			<rect x="19.642" y="17.528" fill="#231F20" width="0.047" height="0.449"/>
			<path fill="#231F20" d="M20.215,17.981c-0.031,0-0.062-0.006-0.089-0.017c-0.028-0.011-0.054-0.026-0.072-0.046
				c-0.021-0.021-0.037-0.046-0.05-0.073s-0.018-0.06-0.018-0.093c0-0.034,0.005-0.065,0.018-0.093
				c0.013-0.028,0.028-0.053,0.05-0.073c0.019-0.021,0.044-0.035,0.072-0.047c0.027-0.012,0.058-0.018,0.089-0.018
				c0.032,0,0.062,0.006,0.09,0.018s0.053,0.026,0.072,0.047c0.023,0.021,0.039,0.045,0.052,0.073
				c0.01,0.027,0.018,0.059,0.018,0.093c0,0.033-0.008,0.065-0.018,0.093c-0.013,0.027-0.028,0.053-0.052,0.073
				c-0.02,0.02-0.044,0.035-0.072,0.046S20.247,17.981,20.215,17.981 M20.215,17.939c0.026,0,0.052-0.004,0.072-0.014
				c0.023-0.01,0.043-0.023,0.059-0.04s0.028-0.037,0.037-0.058c0.009-0.025,0.014-0.049,0.014-0.075
				c0-0.027-0.005-0.052-0.014-0.075c-0.009-0.022-0.021-0.042-0.037-0.059s-0.035-0.03-0.059-0.039
				c-0.021-0.01-0.046-0.015-0.072-0.015s-0.051,0.005-0.071,0.015c-0.023,0.009-0.043,0.022-0.057,0.039
				c-0.018,0.017-0.03,0.036-0.039,0.059c-0.009,0.023-0.014,0.048-0.014,0.075c0,0.026,0.005,0.05,0.014,0.075
				c0.009,0.021,0.021,0.041,0.039,0.058c0.014,0.017,0.033,0.03,0.057,0.04C20.164,17.936,20.188,17.939,20.215,17.939"/>
			<path fill="#231F20" d="M20.812,17.665c-0.003-0.004-0.007-0.007-0.01-0.013c-0.004-0.004-0.006-0.01-0.009-0.014
				c-0.004-0.005-0.008-0.01-0.013-0.016c0,0.007,0.002,0.013,0.004,0.02c0,0.004,0,0.01,0.001,0.017c0,0.004,0,0.01,0,0.016v0.303
				H20.74v-0.454h0.009l0.268,0.315c0.003,0.006,0.005,0.009,0.01,0.014c0.004,0.005,0.008,0.01,0.009,0.014
				c0.004,0.006,0.008,0.01,0.011,0.016c0-0.007,0-0.013-0.002-0.019c0-0.006,0-0.011,0-0.017c0-0.007-0.001-0.011-0.001-0.016
				v-0.303h0.044v0.453h-0.008L20.812,17.665z"/>
			<path fill="#231F20" d="M21.521,17.981c-0.021,0-0.041-0.002-0.059-0.007c-0.016-0.006-0.029-0.012-0.044-0.021
				c-0.01-0.009-0.022-0.018-0.031-0.028c-0.009-0.013-0.018-0.023-0.021-0.034l0.039-0.022c0.005,0.01,0.011,0.02,0.018,0.027
				c0.007,0.009,0.016,0.016,0.022,0.022c0.011,0.007,0.021,0.011,0.034,0.016c0.01,0.003,0.026,0.005,0.04,0.005
				c0.015,0,0.026-0.002,0.037-0.005c0.013-0.005,0.021-0.009,0.03-0.016c0.009-0.007,0.016-0.015,0.019-0.023
				c0.006-0.01,0.008-0.021,0.008-0.032s-0.002-0.021-0.006-0.03c-0.003-0.009-0.009-0.017-0.016-0.024
				c-0.007-0.007-0.016-0.014-0.026-0.021c-0.011-0.006-0.023-0.012-0.037-0.019l-0.035-0.017c-0.016-0.007-0.03-0.014-0.042-0.021
				c-0.013-0.009-0.023-0.018-0.032-0.027c-0.007-0.009-0.014-0.021-0.02-0.032c-0.003-0.012-0.005-0.025-0.005-0.04
				c0-0.017,0.002-0.032,0.009-0.045c0.006-0.014,0.014-0.025,0.023-0.034c0.012-0.01,0.024-0.018,0.038-0.022
				c0.015-0.004,0.03-0.007,0.048-0.007c0.029,0,0.055,0.006,0.074,0.02c0.019,0.012,0.035,0.027,0.045,0.047l-0.036,0.025
				c-0.009-0.016-0.02-0.026-0.034-0.035c-0.012-0.01-0.029-0.015-0.049-0.015c-0.023,0-0.041,0.006-0.053,0.018
				c-0.015,0.012-0.02,0.026-0.02,0.046c0,0.021,0.005,0.036,0.018,0.047c0.011,0.012,0.028,0.022,0.055,0.033l0.035,0.017
				c0.018,0.009,0.035,0.018,0.049,0.026c0.015,0.01,0.025,0.02,0.035,0.03s0.017,0.022,0.021,0.036
				c0.006,0.013,0.007,0.028,0.007,0.045c0,0.019-0.003,0.035-0.011,0.05c-0.007,0.015-0.016,0.026-0.027,0.038
				c-0.013,0.009-0.026,0.018-0.045,0.021C21.562,17.979,21.542,17.981,21.521,17.981"/>
		</g>
	</g>
</g>
</svg>
