<?xml version="1.0" encoding="utf-8"?>
<!-- Generator: Adobe Illustrator 16.0.0, SVG Export Plug-In . SVG Version: 6.00 Build 0)  -->
<!DOCTYPE svg PUBLIC "-//W3C//DTD SVG 1.1//EN" "http://www.w3.org/Graphics/SVG/1.1/DTD/svg11.dtd">
<svg version="1.1" id="Layer_1" xmlns="http://www.w3.org/2000/svg" xmlns:xlink="http://www.w3.org/1999/xlink" x="0px" y="0px"
	 width="28.112px" height="49.567px" viewBox="0 0 28.112 49.567" enable-background="new 0 0 28.112 49.567" xml:space="preserve">
<pattern  x="-555.442" y="462.802" width="1024" height="2332.091" patternUnits="userSpaceOnUse" id="Unnamed_Pattern" viewBox="0 -2332.091 1024 2332.091" overflow="visible">
	<g>
		<polygon fill="none" points="0,0 1024,0 1024,-2332.091 0,-2332.091 		"/>
		<g>
			<defs>
				<rect id="SVGID_1_" y="-2332.091" width="1024" height="2332.091"/>
			</defs>
			<clipPath id="SVGID_2_">
				<use xlink:href="#SVGID_1_"  overflow="visible"/>
			</clipPath>
			<path clip-path="url(#SVGID_2_)" fill-rule="evenodd" clip-rule="evenodd" fill="#F6901E" d="M569.498-462.802
				c-7.763,0-14.056,6.293-14.056,14.056c0,6.698,4.684,12.301,10.955,13.713c0.801,0.181,0.747,0.773,0.841,1.61l2.26,20.188
				l2.229-19.9c0.091-0.81,0.061-1.718,0.822-1.887c6.297-1.394,11.006-7.009,11.006-13.725
				C583.555-456.509,577.262-462.802,569.498-462.802"/>
			<path clip-path="url(#SVGID_2_)" fill-rule="evenodd" clip-rule="evenodd" fill="#FFFFFF" d="M569.498-436.392
				c6.805,0,12.354-5.55,12.354-12.354c0-6.805-5.55-12.354-12.354-12.354c-6.804,0-12.354,5.55-12.354,12.354
				C557.145-441.941,562.694-436.392,569.498-436.392"/>
			<path clip-path="url(#SVGID_2_)" fill="#221F1F" d="M560.898-449.729c-0.104-0.141-0.177-0.207-0.272-0.258
				c-0.093-0.052-0.207-0.08-0.32-0.08c-0.237,0-0.409,0.117-0.409,0.283c0,0.134,0.078,0.193,0.33,0.251l0.334,0.079
				c0.24,0.059,0.396,0.124,0.503,0.214c0.138,0.117,0.21,0.282,0.21,0.478c0,0.441-0.379,0.737-0.938,0.737
				c-0.309,0-0.581-0.079-0.773-0.23c-0.098-0.072-0.142-0.12-0.245-0.259l0.365-0.258c0.097,0.142,0.189,0.225,0.323,0.282
				c0.107,0.049,0.248,0.076,0.375,0.076c0.262,0,0.432-0.124,0.432-0.313c0-0.154-0.107-0.24-0.383-0.3l-0.3-0.064
				c-0.479-0.104-0.685-0.301-0.685-0.654c0-0.42,0.351-0.71,0.868-0.71c0.277,0,0.516,0.079,0.719,0.245
				c0.076,0.064,0.114,0.103,0.217,0.22L560.898-449.729z"/>
			<path clip-path="url(#SVGID_2_)" fill="#221F1F" d="M562.112-448.861h0.441c0.223,0,0.361-0.033,0.499-0.127
				c0.213-0.141,0.334-0.372,0.334-0.641c0-0.471-0.324-0.757-0.861-0.757h-0.837v2.293h0.424V-448.861z M562.112-449.229v-0.793
				h0.375c0.311,0,0.451,0.121,0.451,0.375c0,0.283-0.158,0.418-0.484,0.418H562.112z"/>
			<path clip-path="url(#SVGID_2_)" fill="#221F1F" d="M564.182-448.943h0.424l0.453,0.85h0.477l-0.503-0.919
				c0.114-0.052,0.155-0.079,0.22-0.131c0.155-0.124,0.238-0.303,0.238-0.509c0-0.169-0.063-0.348-0.165-0.475
				c-0.149-0.184-0.355-0.26-0.693-0.26h-0.874v2.293h0.424V-448.943z M564.182-449.309v-0.713h0.416
				c0.282,0,0.444,0.128,0.444,0.348c0,0.231-0.165,0.365-0.454,0.365H564.182z"/>
			<polygon clip-path="url(#SVGID_2_)" fill="#221F1F" points="566.473,-448.093 566.05,-448.093 566.05,-450.386 566.473,-450.386 
							"/>
			<polygon clip-path="url(#SVGID_2_)" fill="#221F1F" points="568.871,-448.093 568.489,-448.093 567.511,-449.663 
				567.511,-448.093 567.112,-448.093 567.112,-450.386 567.516,-450.386 568.468,-448.837 568.468,-450.386 568.871,-450.386 			
				"/>
			<path clip-path="url(#SVGID_2_)" fill="#221F1F" d="M571.446-448.093h-0.365v-0.196c-0.097,0.082-0.131,0.11-0.196,0.148
				c-0.131,0.071-0.296,0.116-0.458,0.116c-0.616,0-1.063-0.506-1.063-1.201c0-0.72,0.458-1.229,1.104-1.229
				c0.29,0,0.558,0.11,0.744,0.3c0.1,0.106,0.144,0.175,0.22,0.361l-0.396,0.165c-0.11-0.302-0.296-0.447-0.578-0.447
				c-0.386,0-0.637,0.324-0.637,0.823c0,0.509,0.255,0.83,0.653,0.83c0.334,0,0.544-0.2,0.578-0.548h-0.571v-0.372h0.965V-448.093z"
				/>
			<polygon clip-path="url(#SVGID_2_)" fill="#221F1F" points="573.566,-450.008 572.43,-450.008 572.43,-449.43 573.407,-449.43 
				573.407,-449.064 572.43,-449.064 572.43,-448.094 572.006,-448.094 572.006,-450.387 573.566,-450.387 			"/>
			<polygon clip-path="url(#SVGID_2_)" fill="#221F1F" points="574.384,-448.093 573.961,-448.093 573.961,-450.386 
				574.384,-450.386 			"/>
			<polygon clip-path="url(#SVGID_2_)" fill="#221F1F" points="576.604,-450.008 575.399,-450.008 575.399,-449.463 
				576.509,-449.463 576.509,-449.099 575.399,-449.099 575.399,-448.472 576.7,-448.472 576.7,-448.094 574.977,-448.094 
				574.977,-450.387 576.604,-450.387 			"/>
			<polygon clip-path="url(#SVGID_2_)" fill="#221F1F" points="577.555,-448.472 578.501,-448.472 578.501,-448.093 
				577.13,-448.093 577.13,-450.386 577.555,-450.386 			"/>
			<path clip-path="url(#SVGID_2_)" fill="#221F1F" d="M578.841-448.093h0.703c0.282,0,0.492-0.038,0.665-0.124
				c0.326-0.162,0.512-0.531,0.512-1.009c0-0.341-0.086-0.62-0.258-0.823c-0.072-0.086-0.158-0.159-0.254-0.21
				c-0.176-0.097-0.342-0.127-0.665-0.127h-0.703V-448.093z M579.265-448.472v-1.536h0.241c0.544,0,0.754,0.214,0.754,0.765
				c0,0.23-0.031,0.399-0.103,0.53c-0.098,0.18-0.266,0.241-0.651,0.241H579.265z"/>
			<path clip-path="url(#SVGID_2_)" fill="#FFFFFF" d="M291.722-382.833c-1.1,0-2,0.899-2,2v53c0,1.1,0.9,2,2,2h379.5v-57H291.722z"
				/>
		</g>
		<g>
			<defs>
				<rect id="SVGID_3_" y="-2332.091" width="1024" height="2332.091"/>
			</defs>
			<clipPath id="SVGID_4_">
				<use xlink:href="#SVGID_3_"  overflow="visible"/>
			</clipPath>
			<polygon clip-path="url(#SVGID_4_)" fill="#606060" points="613.308,-351.69 610.723,-356 608.137,-351.69 			"/>
			<polygon clip-path="url(#SVGID_4_)" fill="#606060" points="608.137,-350 610.722,-345.691 613.308,-350 			"/>
			<polygon clip-path="url(#SVGID_4_)" fill="#606060" points="455.307,-351.69 452.722,-356 450.136,-351.69 			"/>
			<polygon clip-path="url(#SVGID_4_)" fill="#606060" points="450.137,-350 452.722,-345.691 455.308,-350 			"/>
			<g clip-path="url(#SVGID_4_)">
				<defs>
					<rect id="SVGID_5_" x="697.433" y="-356.423" width="10.823" height="10.823"/>
				</defs>
				<clipPath id="SVGID_6_">
					<use xlink:href="#SVGID_5_"  overflow="visible"/>
				</clipPath>
				<g clip-path="url(#SVGID_6_)">
					<defs>
						<rect id="SVGID_7_" x="697.433" y="-356.423" width="10.823" height="10.823"/>
					</defs>
					<clipPath id="SVGID_8_">
						<use xlink:href="#SVGID_7_"  overflow="visible"/>
					</clipPath>
					<path clip-path="url(#SVGID_8_)" fill="#FFFFFF" d="M705.492-349.896c0.38-0.644,0.6-1.395,0.6-2.198
						c0-2.391-1.938-4.329-4.33-4.329c-2.39,0-4.329,1.938-4.329,4.329c0,2.392,1.939,4.329,4.329,4.329
						c0.804,0,1.555-0.22,2.199-0.6l2.446,2.447c0.424,0.424,1.109,0.424,1.531,0c0.424-0.423,0.424-1.108,0-1.53L705.492-349.896z
						 M705.009-352.095c0,1.79-1.458,3.247-3.247,3.247c-1.79,0-3.245-1.457-3.245-3.247s1.455-3.247,3.245-3.247
						C703.551-355.342,705.009-353.885,705.009-352.095"/>
				</g>
			</g>
			<path clip-path="url(#SVGID_4_)" fill="#FFFFFF" d="M616.022-499.041h-95.45c-0.535,0-0.973,0.438-0.973,0.974v27.771
				c0,0.535,0.438,0.974,0.973,0.974h44.722L568.33-464l3.082-5.323h44.61c0.535,0,0.973-0.438,0.973-0.974v-27.771
				C616.995-498.603,616.558-499.041,616.022-499.041"/>
			<path clip-path="url(#SVGID_4_)" fill="#8C6239" d="M554.822-472.798h-29.525c-1.101,0-2-0.899-2-2v-19.354c0-1.1,0.899-2,2-2
				h29.525c1.1,0,2,0.9,2,2v19.354C556.822-473.697,555.922-472.798,554.822-472.798"/>
			<path clip-path="url(#SVGID_4_)" fill="none" stroke="#F6901E" stroke-width="0.25" stroke-miterlimit="10" d="M614.213-495.187
				c0,1.009-0.818,1.827-1.827,1.827s-1.827-0.818-1.827-1.827s0.818-1.827,1.827-1.827S614.213-496.195,614.213-495.187z"/>
			
				<line clip-path="url(#SVGID_4_)" fill="none" stroke="#F6901E" stroke-width="0.25" stroke-miterlimit="10" x1="611.022" y1="-496.402" x2="613.739" y2="-493.959"/>
			
				<line clip-path="url(#SVGID_4_)" fill="none" stroke="#F6901E" stroke-width="0.25" stroke-miterlimit="10" x1="613.739" y1="-496.402" x2="611.021" y2="-493.959"/>
		</g>
		<text transform="matrix(1 0 0 1 559.9648 -489.1094)"><tspan x="0" y="0" fill="#606060" font-family="'Roboto-Light'" font-size="3">Lo</tspan><tspan x="3.261" y="0" fill="#606060" font-family="'Roboto-Light'" font-size="3">r</tspan><tspan x="4.243" y="0" fill="#606060" font-family="'Roboto-Light'" font-size="3">em Ipsum is simply </tspan></text>
		<text transform="matrix(1 0 0 1 559.9648 -485.5098)" fill="#606060" font-family="'Roboto-Light'" font-size="3">dummy text of the printing</text>
		<text transform="matrix(1 0 0 1 559.9648 -481.9092)"><tspan x="0" y="0" fill="#606060" font-family="'Roboto-Light'" font-size="3">Lo</tspan><tspan x="3.261" y="0" fill="#606060" font-family="'Roboto-Light'" font-size="3">r</tspan><tspan x="4.243" y="0" fill="#606060" font-family="'Roboto-Light'" font-size="3">em Ipsum is simply </tspan></text>
		<text transform="matrix(1 0 0 1 559.9648 -478.3096)" fill="#606060" font-family="'Roboto-Light'" font-size="3">dummy text of the printing</text>
	</g>
</pattern>
<g id="Layer_2">
	<g id="Layer_3">
		<path fill-rule="evenodd" clip-rule="evenodd" fill="url(#Unnamed_Pattern)" d="M14.056,0C6.293,0,0,6.293,0,14.056
			c0,6.698,4.684,12.301,10.955,13.713c0.801,0.181,0.747,0.773,0.841,1.61l2.26,20.188l2.229-19.9
			c0.091-0.81,0.061-1.718,0.822-1.887c6.297-1.394,11.006-7.009,11.006-13.725C28.112,6.293,21.819,0,14.056,0"/>
		<circle fill-rule="evenodd" clip-rule="evenodd" fill="#FFFFFF" cx="14.056" cy="14.083" r="12.344"/>
		<g>
			<polygon fill="#231F20" points="7.17,17.044 7.251,17.044 7.251,16.955 7.374,16.955 7.374,17.383 7.302,17.383 7.302,17.457 
				7.536,17.457 7.536,17.383 7.465,17.383 7.465,16.955 7.587,16.955 7.587,17.044 7.667,17.044 7.667,16.879 7.17,16.879 			"/>
			<polygon fill="#231F20" points="8.296,16.951 8.368,16.951 8.368,17.129 8.085,17.129 8.085,16.951 8.156,16.951 8.156,16.879 
				7.923,16.879 7.923,16.951 7.994,16.951 7.994,17.383 7.923,17.383 7.923,17.457 8.156,17.457 8.156,17.383 8.085,17.383 
				8.085,17.206 8.368,17.206 8.368,17.383 8.296,17.383 8.296,17.457 8.53,17.457 8.53,17.383 8.459,17.383 8.459,16.951 
				8.53,16.951 8.53,16.879 8.296,16.879 			"/>
			<polygon fill="#231F20" points="9.159,17.381 8.967,17.381 8.967,17.204 9.168,17.204 9.168,17.127 8.967,17.127 8.967,16.955 
				9.146,16.955 9.146,17.021 9.228,17.021 9.228,16.879 8.806,16.879 8.806,16.951 8.876,16.951 8.876,17.383 8.806,17.383 
				8.806,17.457 9.24,17.457 9.24,17.312 9.159,17.312 			"/>
			<path fill="#231F20" d="M10.168,16.981c0.001,0.007,0.004,0.014,0.006,0.021l0.066,0.189h-0.146l0.067-0.189
				C10.164,16.995,10.167,16.988,10.168,16.981 M10.217,16.879h-0.098l-0.181,0.504H9.882v0.074h0.208v-0.074h-0.06l0.041-0.115
				h0.193l0.041,0.115h-0.06v0.074h0.208v-0.074h-0.056L10.217,16.879z"/>
			<path fill="#231F20" d="M10.917,17.123l-0.003-0.003c-0.062-0.023-0.113-0.043-0.113-0.097s0.048-0.072,0.095-0.072
				c0.045,0,0.092,0.016,0.092,0.044v0.046h0.085v-0.072c0-0.065-0.09-0.1-0.177-0.1c-0.091,0-0.188,0.042-0.188,0.158
				c0,0.106,0.086,0.14,0.154,0.165l0.012,0.006c0.065,0.024,0.122,0.046,0.122,0.105c0,0.05-0.042,0.08-0.108,0.08
				c-0.051,0-0.106-0.021-0.106-0.061v-0.047h-0.086v0.063c0,0.084,0.099,0.127,0.192,0.127c0.1,0,0.2-0.053,0.2-0.171
				C11.088,17.187,10.997,17.152,10.917,17.123"/>
			<polygon fill="#231F20" points="11.361,16.951 11.433,16.951 11.433,17.383 11.361,17.383 11.361,17.457 11.595,17.457 
				11.595,17.383 11.522,17.383 11.522,16.951 11.595,16.951 11.595,16.879 11.361,16.879 			"/>
			<path fill="#231F20" d="M12.121,16.981c0.002,0.007,0.003,0.014,0.006,0.021l0.066,0.189h-0.146l0.069-0.189
				C12.117,16.995,12.119,16.988,12.121,16.981 M12.17,16.879h-0.097l-0.182,0.504h-0.057v0.074h0.207v-0.074h-0.059l0.04-0.115
				h0.194l0.04,0.115h-0.059v0.074h0.208v-0.074h-0.056L12.17,16.879z"/>
			<path fill="#231F20" d="M13.023,16.951h0.072v0.335c0,0.005,0,0.012,0.001,0.019c-0.003-0.007-0.006-0.013-0.01-0.018
				l-0.279-0.408h-0.158v0.072h0.07v0.432h-0.07v0.074h0.234v-0.074H12.81V17.05c0.002-0.006,0-0.012,0-0.019
				c0.003,0.006,0.007,0.012,0.01,0.017l0.28,0.409h0.087v-0.506h0.071v-0.072h-0.234V16.951z"/>
			<polygon fill="#231F20" points="14.279,17.381 14.087,17.381 14.087,17.204 14.287,17.204 14.287,17.127 14.087,17.127 
				14.087,16.955 14.265,16.955 14.265,17.021 14.346,17.021 14.346,16.879 13.925,16.879 13.925,16.951 13.995,16.951 
				13.995,17.383 13.925,17.383 13.925,17.457 14.359,17.457 14.359,17.312 14.279,17.312 			"/>
			<path fill="#231F20" d="M14.911,16.951h0.056l-0.086,0.14c-0.005,0.006-0.009,0.013-0.012,0.017
				c-0.002-0.004-0.006-0.011-0.01-0.015l-0.089-0.142h0.056v-0.072h-0.208v0.072h0.055l0.141,0.214l-0.144,0.218h-0.056v0.074
				h0.204v-0.074h-0.056l0.087-0.14c0.004-0.006,0.008-0.013,0.009-0.016c0.004,0.003,0.008,0.01,0.011,0.016l0.09,0.14h-0.056
				v0.074h0.209v-0.074h-0.057l-0.141-0.211l0.144-0.221h0.055v-0.072h-0.202V16.951z"/>
			<path fill="#231F20" d="M15.533,16.955h0.101c0.028,0,0.052,0.005,0.067,0.014c0.03,0.016,0.047,0.048,0.047,0.092
				c0,0.047-0.019,0.081-0.053,0.096c-0.019,0.007-0.038,0.011-0.062,0.011h-0.101V16.955z M15.74,16.895
				c-0.03-0.015-0.067-0.016-0.1-0.016h-0.27v0.072h0.071v0.432h-0.071v0.074h0.233v-0.074h-0.071v-0.139h0.11
				c0.025,0,0.057-0.002,0.086-0.014c0.067-0.021,0.111-0.089,0.111-0.17C15.841,16.984,15.803,16.921,15.74,16.895"/>
			<polygon fill="#231F20" points="16.452,17.381 16.259,17.381 16.259,17.204 16.459,17.204 16.459,17.127 16.259,17.127 
				16.259,16.955 16.438,16.955 16.438,17.021 16.518,17.021 16.518,16.879 16.098,16.879 16.098,16.951 16.167,16.951 
				16.167,17.383 16.098,17.383 16.098,17.457 16.531,17.457 16.531,17.312 16.452,17.312 			"/>
			<path fill="#231F20" d="M16.967,16.955h0.089c0.027,0,0.051,0.004,0.068,0.01c0.033,0.015,0.049,0.043,0.049,0.085
				c0,0.063-0.037,0.102-0.097,0.102h-0.109V16.955z M17.252,17.367l-0.08-0.14c-0.006-0.01-0.014-0.018-0.019-0.022
				c0.07-0.022,0.111-0.082,0.111-0.162c0-0.074-0.036-0.13-0.102-0.151c-0.03-0.011-0.063-0.013-0.106-0.013h-0.25v0.072h0.069
				v0.432h-0.069v0.074h0.23v-0.074h-0.07v-0.155h0.063c0.033,0,0.042,0.007,0.056,0.029l0.087,0.154
				c0.021,0.035,0.033,0.046,0.083,0.046h0.055v-0.074h-0.023C17.267,17.383,17.259,17.379,17.252,17.367"/>
			<polygon fill="#231F20" points="17.566,16.951 17.637,16.951 17.637,17.383 17.566,17.383 17.566,17.457 17.8,17.457 
				17.8,17.383 17.729,17.383 17.729,16.951 17.8,16.951 17.8,16.879 17.566,16.879 			"/>
			<polygon fill="#231F20" points="18.428,17.381 18.236,17.381 18.236,17.204 18.437,17.204 18.437,17.127 18.236,17.127 
				18.236,16.955 18.416,16.955 18.416,17.021 18.495,17.021 18.495,16.879 18.073,16.879 18.073,16.951 18.145,16.951 
				18.145,17.383 18.073,17.383 18.073,17.457 18.509,17.457 18.509,17.312 18.428,17.312 			"/>
			<path fill="#231F20" d="M19.157,16.951h0.073v0.335c0,0.005,0,0.012,0,0.019c-0.003-0.007-0.005-0.013-0.009-0.018l-0.281-0.408
				h-0.158v0.072h0.071v0.432h-0.071v0.074h0.235v-0.074h-0.073V17.05c0-0.006,0-0.012,0-0.019c0.002,0.006,0.006,0.012,0.009,0.017
				l0.28,0.409h0.088v-0.506h0.07v-0.072h-0.234V16.951z"/>
			<path fill="#231F20" d="M20.089,17.324c0,0.045-0.094,0.062-0.137,0.062c-0.121,0-0.209-0.095-0.209-0.225
				c0-0.125,0.084-0.212,0.204-0.212c0.056,0,0.134,0.02,0.134,0.063v0.049h0.085v-0.074c0-0.096-0.163-0.118-0.221-0.118
				c-0.168,0-0.296,0.128-0.296,0.296c0,0.171,0.129,0.302,0.298,0.302c0.089,0,0.228-0.032,0.228-0.118v-0.073h-0.086V17.324z"/>
			<polygon fill="#231F20" points="20.805,17.312 20.805,17.379 20.613,17.379 20.613,17.204 20.813,17.204 20.813,17.127 
				20.613,17.127 20.613,16.955 20.793,16.955 20.793,17.021 20.872,17.021 20.872,16.879 20.452,16.879 20.452,16.951 
				20.521,16.951 20.521,17.383 20.452,17.383 20.452,17.457 20.886,17.457 20.886,17.312 			"/>
			<path fill="#231F20" d="M3.495,12.978H3.246c-0.289,0-0.437,0.159-0.437,0.471v1.749c0,0.308,0.147,0.464,0.437,0.464h0.728
				v-1.325H3.388v0.354h0.188v0.616H3.348c-0.097,0-0.141-0.057-0.141-0.176v-1.624c0-0.119,0.044-0.176,0.141-0.176h0.091
				c0.093,0,0.138,0.059,0.138,0.176v0.254h0.397v-0.306C3.974,13.139,3.812,12.978,3.495,12.978"/>
			<polygon fill="#231F20" points="4.687,15.661 5.62,15.661 5.62,15.307 5.084,15.307 5.084,14.458 5.56,14.458 5.56,14.104 
				5.084,14.104 5.084,13.331 5.62,13.331 5.62,12.978 4.687,12.978 			"/>
			<polygon fill="#231F20" points="7.051,14.159 6.691,12.978 6.299,12.978 6.299,15.661 6.696,15.661 6.696,14.019 7.051,15.119 
				7.051,15.661 7.447,15.661 7.447,12.978 7.051,12.978 			"/>
			<path fill="#231F20" d="M8.873,12.978H8.624c-0.29,0-0.436,0.159-0.436,0.471v1.749c0,0.308,0.146,0.464,0.436,0.464h0.727
				v-1.325H8.766v0.354h0.189v0.616H8.727c-0.097,0-0.143-0.057-0.143-0.176v-1.624c0-0.119,0.046-0.176,0.143-0.176h0.09
				c0.093,0,0.139,0.059,0.139,0.176v0.254h0.396v-0.306C9.351,13.139,9.19,12.978,8.873,12.978"/>
			<polygon fill="#231F20" points="10.873,14.104 10.462,14.104 10.462,12.978 10.064,12.978 10.064,15.661 10.462,15.661 
				10.462,14.458 10.873,14.458 10.873,15.661 11.271,15.661 11.271,12.978 10.873,12.978 			"/>
			<rect x="12.028" y="12.978" fill="#231F20" width="0.396" height="2.684"/>
			<path fill="#231F20" d="M14.277,13.724v-0.275c0-0.312-0.152-0.471-0.453-0.471h-0.227c-0.3,0-0.45,0.159-0.45,0.471v0.543
				c0,0.07,0.007,0.128,0.023,0.173c0.016,0.046,0.041,0.084,0.078,0.113c0.036,0.026,0.091,0.062,0.167,0.101l0.344,0.188
				c0.044,0.027,0.075,0.048,0.096,0.065c0.016,0.013,0.024,0.044,0.024,0.087v0.45c0,0.095-0.041,0.139-0.127,0.139h-0.064
				c-0.099,0-0.145-0.044-0.145-0.139v-0.161h-0.396v0.15c0,0.333,0.15,0.504,0.45,0.504h0.223c0.304,0,0.457-0.156,0.457-0.464
				v-0.564c0-0.097-0.01-0.162-0.029-0.197c-0.019-0.036-0.045-0.066-0.079-0.091c-0.031-0.024-0.084-0.057-0.162-0.1l-0.343-0.18
				c-0.045-0.027-0.076-0.048-0.096-0.065c-0.017-0.014-0.024-0.043-0.024-0.087v-0.439c0-0.097,0.044-0.143,0.137-0.143h0.058
				c0.096,0,0.142,0.046,0.142,0.143v0.25H14.277z"/>
			<path fill="#231F20" d="M18.379,12.978h-0.25c-0.29,0-0.436,0.159-0.436,0.471v1.749c0,0.308,0.146,0.464,0.436,0.464h0.729
				v-1.325h-0.587v0.354h0.189v0.616h-0.229c-0.097,0-0.143-0.057-0.143-0.176v-1.624c0-0.119,0.046-0.176,0.143-0.176h0.091
				c0.092,0,0.138,0.059,0.138,0.176v0.254h0.397v-0.306C18.857,13.139,18.695,12.978,18.379,12.978"/>
			<path fill="#231F20" d="M19.966,13.331h0.223c0.098,0,0.145,0.057,0.145,0.176v0.573c0,0.118-0.047,0.174-0.145,0.174h-0.223
				V13.331z M20.73,14.102v-0.653c0-0.312-0.146-0.471-0.434-0.471h-0.728v2.684h0.396V14.59h0.189l0.237,1.071h0.379l-0.255-1.111
				C20.658,14.483,20.73,14.332,20.73,14.102"/>
			<rect x="21.45" y="12.978" fill="#231F20" width="0.397" height="2.684"/>
			<polygon fill="#231F20" points="23.003,12.978 22.605,12.978 22.605,15.661 23.502,15.661 23.502,15.307 23.003,15.307 			"/>
			<polygon fill="#231F20" points="24.525,15.307 24.525,12.978 24.129,12.978 24.129,15.661 25.023,15.661 25.023,15.307 			"/>
			<path fill="#CF1D39" d="M16.004,11.154c0,0-0.136,0.264-0.032,0.439c0.104,0.177,0.276,0.495,0.057,0.84
				c-0.225,0.351-0.695,0.503-0.879,0.95c0,0,0.031-0.344,0.312-0.679c0.208-0.248,0.272-0.487,0.231-0.696
				C15.653,11.802,15.645,11.458,16.004,11.154"/>
			<path fill="#CF1D39" d="M16.236,12.002c0,0,0.264,0.407,0.24,0.759c-0.021,0.307-0.257,0.576-0.497,0.792
				c-0.239,0.216-0.646,0.631-0.431,1.143c-0.272-0.256-0.504-0.575-0.44-0.935c0.064-0.36,0.447-0.666,0.664-0.815
				C16.004,12.784,16.332,12.553,16.236,12.002"/>
			<path fill="#CF1D39" d="M16.596,12.682c0,0,0.375,0.56,0.279,0.998c-0.096,0.44-0.287,0.527-0.558,0.8
				c-0.272,0.271-0.37,0.592-0.305,0.8c-0.257-0.345-0.44-0.743-0.312-1.063c0.128-0.32,0.359-0.512,0.551-0.656
				C16.444,13.416,16.66,13.12,16.596,12.682"/>
			<path d="M25.075,12.913c0.036,0,0.074,0.01,0.111,0.029s0.064,0.048,0.086,0.085c0.02,0.035,0.03,0.073,0.03,0.114
				c0,0.039-0.011,0.077-0.03,0.114c-0.02,0.035-0.049,0.063-0.085,0.083c-0.035,0.021-0.073,0.03-0.112,0.03
				c-0.04,0-0.078-0.01-0.114-0.03c-0.036-0.02-0.064-0.048-0.085-0.083c-0.02-0.037-0.029-0.075-0.029-0.114
				c0-0.041,0.01-0.079,0.03-0.114c0.02-0.037,0.05-0.065,0.086-0.085S25.037,12.913,25.075,12.913 M25.075,12.952
				c-0.032,0-0.063,0.008-0.094,0.025c-0.03,0.016-0.054,0.039-0.071,0.069c-0.016,0.029-0.024,0.062-0.024,0.095
				s0.009,0.063,0.024,0.094c0.018,0.03,0.041,0.053,0.07,0.07c0.029,0.016,0.062,0.024,0.095,0.024
				c0.031,0,0.063-0.009,0.093-0.024c0.03-0.018,0.053-0.04,0.07-0.07c0.017-0.03,0.025-0.061,0.025-0.094
				c0-0.032-0.009-0.064-0.025-0.095c-0.018-0.03-0.041-0.054-0.071-0.069C25.138,12.96,25.105,12.952,25.075,12.952 M25.049,13.166
				v0.1h-0.057v-0.251h0.085c0.031,0,0.054,0.005,0.068,0.016c0.021,0.012,0.032,0.032,0.032,0.06c0,0.018-0.005,0.032-0.013,0.044
				s-0.021,0.02-0.039,0.026l0.064,0.105h-0.065l-0.057-0.1H25.049z M25.049,13.115h0.021c0.018,0,0.031-0.001,0.035-0.003
				c0.01-0.005,0.014-0.013,0.014-0.022c0-0.007-0.003-0.014-0.008-0.019c-0.006-0.004-0.017-0.006-0.034-0.006h-0.028V13.115z"/>
		</g>
	</g>
</g>
</svg>
