<?xml version="1.0" encoding="utf-8"?>
<!-- Generator: Adobe Illustrator 16.0.0, SVG Export Plug-In . SVG Version: 6.00 Build 0)  -->
<!DOCTYPE svg PUBLIC "-//W3C//DTD SVG 1.1//EN" "http://www.w3.org/Graphics/SVG/1.1/DTD/svg11.dtd">
<svg version="1.1" id="Layer_1" xmlns="http://www.w3.org/2000/svg" xmlns:xlink="http://www.w3.org/1999/xlink" x="0px" y="0px"
	 width="28.112px" height="49.567px" viewBox="0 0 28.112 49.567" enable-background="new 0 0 28.112 49.567" xml:space="preserve">
<pattern  x="-555.442" y="462.802" width="1024" height="2332.091" patternUnits="userSpaceOnUse" id="Unnamed_Pattern" viewBox="0 -2332.091 1024 2332.091" overflow="visible">
	<g>
		<polygon fill="none" points="0,0 1024,0 1024,-2332.091 0,-2332.091 		"/>
		<g>
			<defs>
				<rect id="SVGID_1_" y="-2332.091" width="1024" height="2332.091"/>
			</defs>
			<clipPath id="SVGID_2_">
				<use xlink:href="#SVGID_1_"  overflow="visible"/>
			</clipPath>
			<path clip-path="url(#SVGID_2_)" fill-rule="evenodd" clip-rule="evenodd" fill="#F6901E" d="M569.498-462.802
				c-7.763,0-14.056,6.293-14.056,14.056c0,6.698,4.684,12.301,10.955,13.713c0.801,0.181,0.747,0.773,0.841,1.61l2.26,20.188
				l2.229-19.9c0.091-0.81,0.061-1.718,0.822-1.887c6.297-1.394,11.006-7.009,11.006-13.725
				C583.555-456.509,577.262-462.802,569.498-462.802"/>
			<path clip-path="url(#SVGID_2_)" fill-rule="evenodd" clip-rule="evenodd" fill="#FFFFFF" d="M569.498-436.392
				c6.805,0,12.354-5.55,12.354-12.354c0-6.805-5.55-12.354-12.354-12.354c-6.804,0-12.354,5.55-12.354,12.354
				C557.145-441.941,562.694-436.392,569.498-436.392"/>
			<path clip-path="url(#SVGID_2_)" fill="#221F1F" d="M560.898-449.729c-0.104-0.141-0.177-0.207-0.272-0.258
				c-0.093-0.052-0.207-0.08-0.32-0.08c-0.237,0-0.409,0.117-0.409,0.283c0,0.134,0.078,0.193,0.33,0.251l0.334,0.079
				c0.24,0.059,0.396,0.124,0.503,0.214c0.138,0.117,0.21,0.282,0.21,0.478c0,0.441-0.379,0.737-0.938,0.737
				c-0.309,0-0.581-0.079-0.773-0.23c-0.098-0.072-0.142-0.12-0.245-0.259l0.365-0.258c0.097,0.142,0.189,0.225,0.323,0.282
				c0.107,0.049,0.248,0.076,0.375,0.076c0.262,0,0.432-0.124,0.432-0.313c0-0.154-0.107-0.24-0.383-0.3l-0.3-0.064
				c-0.479-0.104-0.685-0.301-0.685-0.654c0-0.42,0.351-0.71,0.868-0.71c0.277,0,0.516,0.079,0.719,0.245
				c0.076,0.064,0.114,0.103,0.217,0.22L560.898-449.729z"/>
			<path clip-path="url(#SVGID_2_)" fill="#221F1F" d="M562.112-448.861h0.441c0.223,0,0.361-0.033,0.499-0.127
				c0.213-0.141,0.334-0.372,0.334-0.641c0-0.471-0.324-0.757-0.861-0.757h-0.837v2.293h0.424V-448.861z M562.112-449.229v-0.793
				h0.375c0.311,0,0.451,0.121,0.451,0.375c0,0.283-0.158,0.418-0.484,0.418H562.112z"/>
			<path clip-path="url(#SVGID_2_)" fill="#221F1F" d="M564.182-448.943h0.424l0.453,0.85h0.477l-0.503-0.919
				c0.114-0.052,0.155-0.079,0.22-0.131c0.155-0.124,0.238-0.303,0.238-0.509c0-0.169-0.063-0.348-0.165-0.475
				c-0.149-0.184-0.355-0.26-0.693-0.26h-0.874v2.293h0.424V-448.943z M564.182-449.309v-0.713h0.416
				c0.282,0,0.444,0.128,0.444,0.348c0,0.231-0.165,0.365-0.454,0.365H564.182z"/>
			<polygon clip-path="url(#SVGID_2_)" fill="#221F1F" points="566.473,-448.093 566.05,-448.093 566.05,-450.386 566.473,-450.386 
							"/>
			<polygon clip-path="url(#SVGID_2_)" fill="#221F1F" points="568.871,-448.093 568.489,-448.093 567.511,-449.663 
				567.511,-448.093 567.112,-448.093 567.112,-450.386 567.516,-450.386 568.468,-448.837 568.468,-450.386 568.871,-450.386 			
				"/>
			<path clip-path="url(#SVGID_2_)" fill="#221F1F" d="M571.446-448.093h-0.365v-0.196c-0.097,0.082-0.131,0.11-0.196,0.148
				c-0.131,0.071-0.296,0.116-0.458,0.116c-0.616,0-1.063-0.506-1.063-1.201c0-0.72,0.458-1.229,1.104-1.229
				c0.29,0,0.558,0.11,0.744,0.3c0.1,0.106,0.144,0.175,0.22,0.361l-0.396,0.165c-0.11-0.302-0.296-0.447-0.578-0.447
				c-0.386,0-0.637,0.324-0.637,0.823c0,0.509,0.255,0.83,0.653,0.83c0.334,0,0.544-0.2,0.578-0.548h-0.571v-0.372h0.965V-448.093z"
				/>
			<polygon clip-path="url(#SVGID_2_)" fill="#221F1F" points="573.566,-450.008 572.43,-450.008 572.43,-449.43 573.407,-449.43 
				573.407,-449.064 572.43,-449.064 572.43,-448.094 572.006,-448.094 572.006,-450.387 573.566,-450.387 			"/>
			<polygon clip-path="url(#SVGID_2_)" fill="#221F1F" points="574.384,-448.093 573.961,-448.093 573.961,-450.386 
				574.384,-450.386 			"/>
			<polygon clip-path="url(#SVGID_2_)" fill="#221F1F" points="576.604,-450.008 575.399,-450.008 575.399,-449.463 
				576.509,-449.463 576.509,-449.099 575.399,-449.099 575.399,-448.472 576.7,-448.472 576.7,-448.094 574.977,-448.094 
				574.977,-450.387 576.604,-450.387 			"/>
			<polygon clip-path="url(#SVGID_2_)" fill="#221F1F" points="577.555,-448.472 578.501,-448.472 578.501,-448.093 
				577.13,-448.093 577.13,-450.386 577.555,-450.386 			"/>
			<path clip-path="url(#SVGID_2_)" fill="#221F1F" d="M578.841-448.093h0.703c0.282,0,0.492-0.038,0.665-0.124
				c0.326-0.162,0.512-0.531,0.512-1.009c0-0.341-0.086-0.62-0.258-0.823c-0.072-0.086-0.158-0.159-0.254-0.21
				c-0.176-0.097-0.342-0.127-0.665-0.127h-0.703V-448.093z M579.265-448.472v-1.536h0.241c0.544,0,0.754,0.214,0.754,0.765
				c0,0.23-0.031,0.399-0.103,0.53c-0.098,0.18-0.266,0.241-0.651,0.241H579.265z"/>
			<path clip-path="url(#SVGID_2_)" fill="#FFFFFF" d="M291.722-382.833c-1.1,0-2,0.899-2,2v53c0,1.1,0.9,2,2,2h379.5v-57H291.722z"
				/>
		</g>
		<g>
			<defs>
				<rect id="SVGID_3_" y="-2332.091" width="1024" height="2332.091"/>
			</defs>
			<clipPath id="SVGID_4_">
				<use xlink:href="#SVGID_3_"  overflow="visible"/>
			</clipPath>
			<polygon clip-path="url(#SVGID_4_)" fill="#606060" points="613.308,-351.69 610.723,-356 608.137,-351.69 			"/>
			<polygon clip-path="url(#SVGID_4_)" fill="#606060" points="608.137,-350 610.722,-345.691 613.308,-350 			"/>
			<polygon clip-path="url(#SVGID_4_)" fill="#606060" points="455.307,-351.69 452.722,-356 450.136,-351.69 			"/>
			<polygon clip-path="url(#SVGID_4_)" fill="#606060" points="450.137,-350 452.722,-345.691 455.308,-350 			"/>
			<g clip-path="url(#SVGID_4_)">
				<defs>
					<rect id="SVGID_5_" x="697.433" y="-356.423" width="10.823" height="10.823"/>
				</defs>
				<clipPath id="SVGID_6_">
					<use xlink:href="#SVGID_5_"  overflow="visible"/>
				</clipPath>
				<g clip-path="url(#SVGID_6_)">
					<defs>
						<rect id="SVGID_7_" x="697.433" y="-356.423" width="10.823" height="10.823"/>
					</defs>
					<clipPath id="SVGID_8_">
						<use xlink:href="#SVGID_7_"  overflow="visible"/>
					</clipPath>
					<path clip-path="url(#SVGID_8_)" fill="#FFFFFF" d="M705.492-349.896c0.38-0.644,0.6-1.395,0.6-2.198
						c0-2.391-1.938-4.329-4.33-4.329c-2.39,0-4.329,1.938-4.329,4.329c0,2.392,1.939,4.329,4.329,4.329
						c0.804,0,1.555-0.22,2.199-0.6l2.446,2.447c0.424,0.424,1.109,0.424,1.531,0c0.424-0.423,0.424-1.108,0-1.53L705.492-349.896z
						 M705.009-352.095c0,1.79-1.458,3.247-3.247,3.247c-1.79,0-3.245-1.457-3.245-3.247s1.455-3.247,3.245-3.247
						C703.551-355.342,705.009-353.885,705.009-352.095"/>
				</g>
			</g>
			<path clip-path="url(#SVGID_4_)" fill="#FFFFFF" d="M616.022-499.041h-95.45c-0.535,0-0.973,0.438-0.973,0.974v27.771
				c0,0.535,0.438,0.974,0.973,0.974h44.722L568.33-464l3.082-5.323h44.61c0.535,0,0.973-0.438,0.973-0.974v-27.771
				C616.995-498.603,616.558-499.041,616.022-499.041"/>
			<path clip-path="url(#SVGID_4_)" fill="#8C6239" d="M554.822-472.798h-29.525c-1.101,0-2-0.899-2-2v-19.354c0-1.1,0.899-2,2-2
				h29.525c1.1,0,2,0.9,2,2v19.354C556.822-473.697,555.922-472.798,554.822-472.798"/>
			<path clip-path="url(#SVGID_4_)" fill="none" stroke="#F6901E" stroke-width="0.25" stroke-miterlimit="10" d="M614.213-495.187
				c0,1.009-0.818,1.827-1.827,1.827s-1.827-0.818-1.827-1.827s0.818-1.827,1.827-1.827S614.213-496.195,614.213-495.187z"/>
			
				<line clip-path="url(#SVGID_4_)" fill="none" stroke="#F6901E" stroke-width="0.25" stroke-miterlimit="10" x1="611.022" y1="-496.402" x2="613.739" y2="-493.959"/>
			
				<line clip-path="url(#SVGID_4_)" fill="none" stroke="#F6901E" stroke-width="0.25" stroke-miterlimit="10" x1="613.739" y1="-496.402" x2="611.021" y2="-493.959"/>
		</g>
		<text transform="matrix(1 0 0 1 559.9648 -489.1094)"><tspan x="0" y="0" fill="#606060" font-family="'Roboto-Light'" font-size="3">Lo</tspan><tspan x="3.261" y="0" fill="#606060" font-family="'Roboto-Light'" font-size="3">r</tspan><tspan x="4.243" y="0" fill="#606060" font-family="'Roboto-Light'" font-size="3">em Ipsum is simply </tspan></text>
		<text transform="matrix(1 0 0 1 559.9648 -485.5098)" fill="#606060" font-family="'Roboto-Light'" font-size="3">dummy text of the printing</text>
		<text transform="matrix(1 0 0 1 559.9648 -481.9092)"><tspan x="0" y="0" fill="#606060" font-family="'Roboto-Light'" font-size="3">Lo</tspan><tspan x="3.261" y="0" fill="#606060" font-family="'Roboto-Light'" font-size="3">r</tspan><tspan x="4.243" y="0" fill="#606060" font-family="'Roboto-Light'" font-size="3">em Ipsum is simply </tspan></text>
		<text transform="matrix(1 0 0 1 559.9648 -478.3096)" fill="#606060" font-family="'Roboto-Light'" font-size="3">dummy text of the printing</text>
	</g>
</pattern>
<g id="Layer_2">
	<g id="Layer_3">
		<path fill-rule="evenodd" clip-rule="evenodd" fill="url(#Unnamed_Pattern)" d="M14.056,0C6.293,0,0,6.293,0,14.056
			c0,6.698,4.684,12.301,10.955,13.713c0.801,0.181,0.747,0.773,0.841,1.61l2.26,20.188l2.229-19.9
			c0.091-0.81,0.061-1.718,0.822-1.887c6.297-1.394,11.006-7.009,11.006-13.725C28.112,6.293,21.819,0,14.056,0"/>
		<circle fill-rule="evenodd" clip-rule="evenodd" fill="#FFFFFF" cx="14.056" cy="14.083" r="12.344"/>
		<g id="g14">
			<g id="g20" transform="translate(19.7083,12.3094)">
				<path id="path22" inkscape:connector-curvature="0" fill="#231F20" d="M-16.114,6.134h0.092c0.137,0,0.178-0.079,0.178-0.156
					c0-0.116-0.068-0.158-0.197-0.158h-0.072V6.134z M-16.114,5.725h0.09c0.049,0,0.092,0.01,0.094,0.01
					c0.021-0.03,0.049-0.073,0.049-0.129c0-0.09-0.055-0.132-0.178-0.132c-0.018,0-0.037,0.001-0.055,0.003V5.725z M-16.045,5.381
					c0.16-0.005,0.273,0.065,0.273,0.199c0,0.069-0.063,0.142-0.096,0.174c0.084,0.038,0.145,0.091,0.145,0.212
					c0,0.137-0.082,0.26-0.313,0.26h-0.193V5.504l-0.016-0.116L-16.045,5.381z"/>
			</g>
			<g id="g24" transform="translate(26.6897,12.1004)">
				<path id="path26" inkscape:connector-curvature="0" fill="#231F20" d="M-22.241,6.368c0.135,0,0.223-0.121,0.223-0.271
					c0-0.148-0.088-0.27-0.223-0.27c-0.133,0-0.223,0.121-0.223,0.27C-22.464,6.247-22.374,6.368-22.241,6.368 M-21.902,6.092
					c0,0.2-0.15,0.359-0.348,0.359c-0.211,0-0.334-0.155-0.334-0.347c0-0.2,0.15-0.359,0.348-0.359
					C-22.013,5.745-21.902,5.893-21.902,6.092"/>
			</g>
			<g id="g28" transform="translate(35.0667,16.284)">
				<path id="path30" inkscape:connector-curvature="0" fill="#231F20" d="M-29.591,1.673l-0.016-0.099h0.117v0.408
					c0,0.167-0.123,0.285-0.313,0.285c-0.273,0-0.281-0.243-0.281-0.26V1.674l-0.016-0.1h0.125V2c0,0.105,0.082,0.184,0.191,0.184
					c0.113,0,0.191-0.086,0.191-0.191V1.673L-29.591,1.673z"/>
			</g>
			<g id="g32" transform="translate(37.051,17.0848)">
				<path id="path34" inkscape:connector-curvature="0" fill="#231F20" d="M-31.333,0.774h0.6v0.087h-0.25v0.508l0.014,0.082h-0.121
					v-0.59h-0.242V0.774L-31.333,0.774z"/>
			</g>
			<g id="g36" transform="translate(44.0325,12.2362)">
				<path id="path38" inkscape:connector-curvature="0" fill="#231F20" d="M-37.459,6.217l0.014,0.082h-0.121V5.722l-0.018-0.1
					h0.125V6.217L-37.459,6.217z"/>
			</g>
			<g id="g40" transform="translate(48.4441,12.1004)">
				<path id="path42" inkscape:connector-curvature="0" fill="#231F20" d="M-41.33,6.368c0.135,0,0.223-0.121,0.223-0.271
					c0-0.148-0.088-0.27-0.223-0.27c-0.133,0-0.223,0.121-0.223,0.27C-41.552,6.247-41.463,6.368-41.33,6.368 M-40.99,6.092
					c0,0.178-0.121,0.323-0.287,0.354c0.08,0.03,0.162,0.06,0.24,0.089l-0.047,0.096l-0.279-0.117V6.45
					c-0.195-0.012-0.309-0.161-0.309-0.346c0-0.2,0.148-0.36,0.348-0.36C-41.101,5.745-40.99,5.893-40.99,6.092"/>
			</g>
			<g id="g44" transform="translate(56.8201,16.284)">
				<path id="path46" inkscape:connector-curvature="0" fill="#231F20" d="M-48.68,1.673l-0.014-0.099h0.117v0.408
					c0,0.167-0.125,0.285-0.313,0.285c-0.275,0-0.281-0.243-0.281-0.26V1.674l-0.016-0.1h0.125V2c0,0.105,0.08,0.184,0.191,0.184
					c0.113,0,0.189-0.086,0.189-0.191V1.673z"/>
			</g>
			<g id="g48" transform="translate(59.9192,16.2733)">
				<path id="path50" inkscape:connector-curvature="0" fill="#231F20" d="M-51.399,1.685l-0.018-0.1h0.398v0.086h-0.273v0.2h0.242
					l-0.027,0.086h-0.215v0.22h0.289l-0.025,0.086h-0.371V1.685L-51.399,1.685z"/>
			</g>
			<g id="g52" transform="translate(71.9568,16.9715)">
				<path id="path54" inkscape:connector-curvature="0" fill="#231F20" d="M-61.962,0.901c-0.061-0.063-0.131-0.097-0.215-0.097
					c-0.164,0-0.277,0.168-0.277,0.346c0,0.205,0.145,0.333,0.287,0.333c0.115,0,0.248-0.107,0.248-0.107l0.027,0.095
					c0,0-0.123,0.11-0.297,0.11c-0.197,0-0.389-0.146-0.389-0.418c0-0.262,0.182-0.452,0.406-0.452c0.105,0,0.191,0.035,0.268,0.104
					L-61.962,0.901z"/>
			</g>
			<g id="g56" transform="translate(74.5984,13.7039)">
				<path id="path58" inkscape:connector-curvature="0" fill="#231F20" d="M-64.279,4.569h0.209l-0.088-0.22L-64.17,4.31
					l-0.014,0.039L-64.279,4.569z M-64.195,4.155l0.064-0.015l0.232,0.571l0.063,0.12h-0.129l-0.072-0.176h-0.277l-0.074,0.176
					h-0.104L-64.195,4.155z"/>
			</g>
			<g id="g60" transform="translate(79.2908,17.0848)">
				<path id="path62" inkscape:connector-curvature="0" fill="#231F20" d="M-68.397,0.774h0.398v0.085h-0.273V1.06h0.242
					l-0.027,0.086h-0.215v0.223l0.014,0.082h-0.123V0.873L-68.397,0.774z"/>
			</g>
			<g id="g64" transform="translate(84.1292,16.2733)">
				<path id="path66" inkscape:connector-curvature="0" fill="#231F20" d="M-72.644,1.685l-0.016-0.1h0.398v0.086h-0.273v0.2h0.242
					l-0.027,0.086h-0.215v0.22h0.289l-0.027,0.086h-0.371V1.685z"/>
			</g>
			<g id="g68" transform="translate(92.5256,14.1414)">
				<path id="path70" inkscape:connector-curvature="0" fill="#231F20" d="M-80.011,4.077h0.246l-0.105-0.293l-0.014-0.05
					L-79.9,3.785L-80.011,4.077z M-79.915,3.555l0.078-0.017l0.26,0.715l0.063,0.141h-0.139l-0.08-0.22h-0.313l-0.082,0.22h-0.111
					L-79.915,3.555z"/>
			</g>
			<g id="g72" transform="translate(102.7849,12.2264)">
				<path id="path74" inkscape:connector-curvature="0" fill="#231F20" d="M-89.012,6.228l0.006,0.081h-0.061l-0.426-0.427
					l-0.045-0.061v0.404l0.014,0.083h-0.109V5.73l-0.016-0.098h0.07l0.424,0.426l0.045,0.061V5.731l-0.016-0.099h0.111v0.596
					H-89.012z"/>
			</g>
			<g id="g76" transform="translate(105.884,16.409)">
				<path id="path78" inkscape:connector-curvature="0" fill="#231F20" d="M-91.733,1.532v0.51h0.145
					c0.129,0,0.221-0.113,0.221-0.254c0-0.14-0.092-0.256-0.221-0.256H-91.733L-91.733,1.532z M-91.569,1.449
					c0.16,0,0.318,0.102,0.318,0.334c0,0.192-0.137,0.343-0.354,0.343h-0.238V1.549l-0.016-0.1H-91.569L-91.569,1.449z"/>
			</g>
			<g id="g80" transform="translate(114.9431,14.1414)">
				<path id="path82" inkscape:connector-curvature="0" fill="#231F20" d="M-99.682,4.077h0.246l-0.105-0.293l-0.014-0.05
					l-0.014,0.051L-99.682,4.077z M-99.587,3.555l0.078-0.017l0.26,0.715l0.064,0.141h-0.139l-0.082-0.22h-0.311l-0.084,0.22h-0.111
					L-99.587,3.555z"/>
			</g>
			<g id="g84" transform="translate(121.6765,14.2762)">
				<path id="path86" inkscape:connector-curvature="0" fill="#231F20" d="M-105.592,3.926c0.086,0,0.156-0.062,0.156-0.137
					c0-0.08-0.07-0.121-0.156-0.121h-0.07v0.258H-105.592z M-105.365,4.259l-0.201-0.249l-0.096,0.002v0.164l0.012,0.083h-0.121
					V3.682l-0.016-0.1h0.217c0.127,0,0.252,0.064,0.252,0.206c0,0.078-0.057,0.154-0.141,0.194l0.234,0.276H-105.365L-105.365,4.259
					z"/>
			</g>
			<g id="g88" transform="translate(124.8289,17.0848)">
				<path id="path90" inkscape:connector-curvature="0" fill="#231F20" d="M-108.357,0.774h0.598v0.087h-0.248v0.508l0.014,0.082
					h-0.123v-0.59h-0.24V0.774z"/>
			</g>
			<g id="g92" transform="translate(131.8103,12.2362)">
				<path id="path94" inkscape:connector-curvature="0" fill="#231F20" d="M-114.483,6.217l0.012,0.082h-0.119V5.722l-0.018-0.1
					h0.125V6.217z"/>
			</g>
			<g id="g96" transform="translate(133.5134,12.0809)">
				<path id="path98" inkscape:connector-curvature="0" fill="#231F20" d="M-115.977,6.391c0,0.001,0.012-0.099,0.012-0.099
					s0.086,0.092,0.199,0.092c0.064,0,0.117-0.034,0.117-0.102c0-0.129-0.326-0.135-0.326-0.321c0-0.106,0.092-0.196,0.223-0.196
					c0.09,0,0.158,0.029,0.195,0.051l-0.035,0.089c-0.002-0.005-0.076-0.054-0.162-0.054c-0.053,0-0.107,0.027-0.107,0.083
					c0,0.143,0.324,0.124,0.324,0.334c0,0.123-0.092,0.203-0.232,0.203c-0.135,0-0.205-0.076-0.205-0.076L-115.977,6.391z"/>
			</g>
			<g id="g100" transform="translate(139.3005,13.7039)">
				<path id="path102" inkscape:connector-curvature="0" fill="#231F20" d="M-121.055,4.569h0.209l-0.088-0.22l-0.012-0.039
					l-0.014,0.039L-121.055,4.569z M-120.971,4.155l0.064-0.015l0.234,0.571l0.061,0.12h-0.127l-0.072-0.176h-0.279l-0.074,0.176
					h-0.104L-120.971,4.155z"/>
			</g>
			<g id="g104" transform="translate(149.1228,12.2264)">
				<path id="path106" inkscape:connector-curvature="0" fill="#231F20" d="M-129.675,6.228l0.008,0.081h-0.063l-0.424-0.427
					l-0.045-0.061v0.404l0.012,0.083h-0.109V5.73l-0.016-0.098h0.072l0.424,0.426l0.045,0.061V5.731l-0.016-0.099h0.111V6.228
					L-129.675,6.228z"/>
			</g>
			<g id="g108" transform="translate(155.0808,12.3094)">
				<path id="path110" inkscape:connector-curvature="0" fill="#231F20" d="M-134.902,6.134h0.092c0.137,0,0.178-0.079,0.178-0.156
					c0-0.116-0.066-0.158-0.197-0.158h-0.072V6.134z M-134.902,5.725h0.092c0.049,0,0.09,0.01,0.092,0.01
					c0.021-0.03,0.049-0.073,0.049-0.129c0-0.09-0.055-0.132-0.178-0.132c-0.018,0-0.035,0.001-0.055,0.003V5.725z M-134.834,5.381
					c0.16-0.005,0.273,0.065,0.273,0.199c0,0.069-0.063,0.142-0.096,0.174c0.084,0.038,0.145,0.091,0.145,0.212
					c0,0.137-0.082,0.26-0.314,0.26h-0.191V5.504l-0.016-0.116L-134.834,5.381z"/>
			</g>
			<g id="g112" transform="translate(160.5027,13.7039)">
				<path id="path114" inkscape:connector-curvature="0" fill="#231F20" d="M-139.66,4.569h0.209l-0.088-0.22l-0.012-0.039
					l-0.014,0.039L-139.66,4.569z M-139.576,4.155l0.064-0.015l0.234,0.571l0.061,0.12h-0.127l-0.074-0.176h-0.277l-0.074,0.176
					h-0.104L-139.576,4.155z"/>
			</g>
			<g id="g116" transform="translate(168.5329,11.5594)">
				<path id="path118" inkscape:connector-curvature="0" fill="#231F20" d="M-146.706,6.976l-0.285-0.334v0.251l0.014,0.083h-0.123
					V6.399l-0.016-0.1h0.125v0.313l0.223-0.245v0.001l0.035-0.068h0.16l-0.299,0.318l0.314,0.358H-146.706z"/>
			</g>
			<g id="g120" transform="translate(170.9695,16.2733)">
				<path id="path122" inkscape:connector-curvature="0" fill="#231F20" d="M-148.845,1.685l-0.016-0.1h0.398v0.086h-0.273v0.2
					h0.242l-0.027,0.086h-0.215v0.22h0.289l-0.027,0.086h-0.371V1.685z"/>
			</g>
			<g id="g124" transform="translate(177.3464,14.2762)">
				<path id="path126" inkscape:connector-curvature="0" fill="#231F20" d="M-154.441,3.926c0.084,0,0.156-0.062,0.156-0.137
					c0-0.08-0.072-0.121-0.156-0.121h-0.07v0.258H-154.441z M-154.215,4.259l-0.201-0.249l-0.096,0.002v0.164l0.012,0.083h-0.121
					V3.682l-0.016-0.1h0.217c0.127,0,0.25,0.064,0.25,0.206c0,0.078-0.055,0.154-0.139,0.194l0.234,0.276H-154.215L-154.215,4.259z"
					/>
			</g>
			<g id="g128" transform="translate(183.1413,12.2362)">
				<path id="path130" inkscape:connector-curvature="0" fill="#231F20" d="M-159.525,6.217l0.012,0.082h-0.121V6.003l-0.178-0.302
					v0.001l-0.068-0.08h0.146l0.148,0.25l0.014,0.038l0.02-0.037l0.152-0.251h0.111l-0.236,0.381V6.217L-159.525,6.217z"/>
			</g>
			<g id="g132" transform="translate(46.5168,67.2923)">
				<path id="path134" inkscape:connector-curvature="0" fill="#6B212A" d="M-39.639-55.584c-0.023,0-0.043-0.028-0.043-0.061
					s0.012-0.061,0.035-0.087c0.031,0.029,0.047,0.06,0.047,0.087C-39.6-55.611-39.615-55.584-39.639-55.584 M-39.578-55.372
					c-0.186,0-0.381-0.105-0.381-0.301c0-0.067,0.016-0.122,0.051-0.175c0.072,0.012,0.146,0.038,0.205,0.074
					c-0.035,0.039-0.053,0.082-0.053,0.129c0,0.075,0.053,0.137,0.117,0.137s0.115-0.062,0.115-0.137
					c0-0.046-0.021-0.091-0.063-0.133c0.041-0.024,0.092-0.038,0.15-0.038c0.127,0,0.215,0.082,0.215,0.198
					C-39.221-55.449-39.401-55.372-39.578-55.372 M-34.012-57.625c0.002-0.001,0.004-0.003,0.006-0.003
					c0.039-0.016,0.086-0.022,0.137-0.022c0.045,0,0.086,0.006,0.119,0.012c-0.135,0.043-0.252,0.016-0.252,0.016
					C-34.006-57.624-34.01-57.625-34.012-57.625 M-31.879-57.618c0.002,0,0.008,0.001,0.008,0.001
					c0.018,0.001,0.035,0.003,0.053,0.005c0.045,0.008,0.066,0.016,0.076,0.021c-0.002,0.001-0.006,0.002-0.008,0.004
					c-0.002,0-0.002,0-0.004,0c-0.01,0.003-0.027,0.004-0.047,0.004c-0.023,0-0.098-0.003-0.188-0.036
					C-31.955-57.62-31.916-57.62-31.879-57.618 M-30.022-55.612l0.025-0.009c0.02-0.216,0.49-0.419,0.693-0.496
					c0.049-0.019,0.102-0.036,0.154-0.053c0.137-0.039,0.287-0.073,0.434-0.099c0.049-0.007,0.1-0.014,0.154-0.018l0.002,0.012
					c-0.004,0.109-0.066,0.219-0.186,0.323c-0.002,0.001-0.002,0.002-0.004,0.003c0,0,0,0,0,0.001l-0.008,0.005
					c-0.002,0.003-0.004,0.005-0.01,0.009c-0.027,0.022-0.057,0.045-0.09,0.068c0,0.001-0.006,0.004-0.006,0.004l-0.006,0.005
					c-0.008,0.005-0.016,0.011-0.023,0.016l-0.008,0.006c-0.006,0.004-0.014,0.009-0.02,0.013l-0.008,0.006
					c-0.281,0.181-0.664,0.317-0.893,0.317c-0.076,0-0.131-0.017-0.156-0.045c-0.01-0.014-0.02-0.032-0.021-0.068H-30.022z
					 M-28.02-56.44c0.018-0.016,0.039-0.029,0.064-0.039c0.023-0.007,0.047-0.01,0.07-0.01c0.084,0,0.137,0.053,0.166,0.095
					c0.002,0.005,0.006,0.01,0.008,0.015c0.002,0.006,0.006,0.011,0.008,0.016c0.006,0.009,0.014,0.013,0.023,0.013
					c0.016,0.001,0.025-0.011,0.025-0.025c0-0.003,0-0.007-0.002-0.01c-0.006-0.039-0.043-0.183-0.254-0.185
					c-0.045,0.003-0.195,0.027-0.242,0.183c-0.096-0.009-0.199-0.011-0.318-0.005c-0.002-0.014-0.006-0.021-0.006-0.021
					c0-0.001,0-0.001,0-0.002c-0.059-0.152-0.203-0.23-0.43-0.23c-0.223,0-0.457,0.078-0.502,0.095
					c-0.025,0.009-0.049,0.018-0.072,0.027c-0.115,0.046-0.223,0.098-0.326,0.146l-0.07,0.033l-0.082,0.044
					c-0.188,0.1-0.381,0.202-0.561,0.313c-0.275,0.151-0.646,0.347-0.852,0.418c-0.162,0.051-0.313,0.068-0.461,0.052
					c-0.16-0.017-0.303-0.07-0.412-0.154c-0.002-0.004-0.006-0.007-0.01-0.011c0.041,0.004,0.084,0.006,0.129,0.006
					c0.264,0,0.494-0.063,0.607-0.102c0.09-0.029,0.188-0.07,0.301-0.125c0.225-0.11,0.787-0.429,0.793-0.433
					c0.25-0.144,0.52-0.294,0.82-0.41c0.348-0.135,0.662-0.212,0.961-0.234c0.143-0.012,0.252-0.012,0.395,0
					c0.166,0.013,0.359,0.061,0.502,0.125c0.146,0.066,0.326,0.191,0.348,0.407c0.012,0.118-0.031,0.218-0.127,0.3
					c-0.045-0.055-0.184-0.184-0.531-0.23C-28.047-56.403-28.035-56.423-28.02-56.44 M-27.608-56.097
					c-0.064,0.043-0.172,0.053-0.266,0.028c-0.129-0.037-0.184-0.132-0.191-0.212C-27.85-56.252-27.694-56.19-27.608-56.097
					 M-38.008-56.15c0.033-0.02,0.072-0.036,0.119-0.052c0.004-0.002,0.01-0.003,0.016-0.005l0.043-0.014
					c0.029-0.007,0.059-0.014,0.088-0.019c0.025-0.004,0.057-0.009,0.08-0.012c0.002,0.037-0.006,0.071-0.023,0.103
					c-0.014,0.022-0.031,0.043-0.053,0.063c-0.059,0.045-0.125,0.067-0.199,0.067c-0.066,0-0.125-0.018-0.162-0.032
					c-0.008-0.003-0.014-0.006-0.021-0.009C-38.09-56.094-38.053-56.124-38.008-56.15 M-36.746-55.743
					c-0.102-0.064-0.207-0.131-0.287-0.21c-0.076-0.076-0.156-0.168-0.16-0.298c0.123,0.011,0.227,0.027,0.293,0.04
					c0.203,0.037,0.379,0.084,0.523,0.139c0.059,0.021,0.111,0.043,0.16,0.066l0.01,0.004c0,0,0.002,0,0.002,0.001V-56l0.008,0.003
					c0.002,0.001,0.002,0.001,0.002,0.001c0.104,0.051,0.482,0.253,0.42,0.45c-0.018,0.055-0.074,0.082-0.17,0.082
					c-0.182,0-0.461-0.104-0.643-0.192c-0.055-0.026-0.104-0.054-0.148-0.081L-36.746-55.743z M-34.1-55.507
					c-0.004,0-0.006,0-0.01-0.001c-0.287-0.023-0.537-0.146-0.77-0.271c-0.152-0.081-0.332-0.18-0.506-0.282l-0.018-0.011
					c-0.053-0.03-0.102-0.06-0.152-0.084c-0.053-0.027-0.105-0.055-0.16-0.083c-0.174-0.091-0.354-0.185-0.553-0.259
					c-0.068-0.025-0.311-0.109-0.551-0.109c-0.143,0-0.256,0.031-0.334,0.092c-0.049,0.038-0.082,0.088-0.109,0.157
					c-0.113-0.005-0.215-0.002-0.314,0.008c-0.016-0.045-0.07-0.146-0.209-0.172c-0.006,0-0.01-0.001-0.016-0.002
					c-0.025-0.003-0.053-0.003-0.078,0c-0.002,0-0.004,0-0.006,0.001c-0.01,0.001-0.016,0.003-0.016,0.003l0,0
					c-0.104,0.021-0.17,0.091-0.176,0.182c-0.002,0.013,0.006,0.023,0.02,0.026c0.012,0.002,0.025-0.005,0.029-0.017
					c0-0.001,0.012-0.032,0.043-0.064c0.002-0.001,0.002-0.002,0.002-0.004c0.021-0.019,0.057-0.042,0.107-0.049
					c0.002,0,0.006,0,0.01-0.002v0.001c0.004,0,0.008,0,0.01-0.001c0.02-0.001,0.041,0,0.057,0.003
					c0.002,0.001,0.006,0.002,0.008,0.002l0.008,0.002c0.004,0.002,0.004,0.003,0.008,0.003h0.002
					c0.004,0.003,0.008,0.004,0.01,0.005c0.033,0.016,0.064,0.053,0.084,0.097c-0.012,0.003-0.025,0.005-0.033,0.006
					c-0.195,0.036-0.293,0.09-0.297,0.093c-0.068,0.034-0.131,0.08-0.186,0.136c-0.201-0.149-0.109-0.407-0.105-0.418
					c0.014-0.037,0.035-0.072,0.061-0.104c0.109-0.132,0.287-0.199,0.291-0.2c0,0,0-0.001,0.002-0.002
					c0.008-0.002,0.014-0.006,0.021-0.008l0.012-0.004c0.236-0.087,0.473-0.12,0.768-0.105c0.012,0.001,0.023,0.001,0.035,0.002
					l0.016,0.002c0.15,0.014,0.705,0.086,1.451,0.45c0.053,0.027,0.104,0.055,0.156,0.082l0.066,0.035
					c0.074,0.039,0.146,0.082,0.217,0.123c0.033,0.02,0.064,0.038,0.104,0.06c0.002,0.001,0.004,0.002,0.006,0.002l0.004,0.003
					c0.012,0.008,0.025,0.015,0.039,0.024c0.121,0.066,0.246,0.136,0.377,0.199c0.236,0.114,0.531,0.258,0.881,0.285
					c0.102,0.007,0.211,0.006,0.314-0.003c-0.055,0.063-0.197,0.177-0.51,0.177c-0.033,0-0.068-0.002-0.105-0.005
					C-34.098-55.507-34.1-55.507-34.1-55.507 M-34.014-56.861c0.484,0.033,0.875-0.203,0.951-0.254l0.082,0.049l-0.342,0.174
					l-0.188,0.082c-0.002,0-0.002,0.001-0.002,0.001c-0.152,0.054-0.289,0.068-0.395,0.045c-0.098-0.024-0.15-0.064-0.182-0.104
					C-34.063-56.864-34.039-56.862-34.014-56.861 M-32.897-57.112l-0.061-0.035l-0.027-0.015l0.113-0.067l0.1,0.054L-32.897-57.112z
					 M-31.701-56.834l0.02-0.001c-0.037,0.038-0.117,0.098-0.27,0.098c-0.031,0-0.066-0.003-0.102-0.009
					c-0.129-0.019-0.287-0.072-0.469-0.159l-0.234-0.127l0.125-0.071c0.068,0.034,0.391,0.193,0.598,0.232
					c0.164,0.03,0.252,0.035,0.311,0.036L-31.701-56.834z M-31.328-57.111c-0.008,0.089-0.09,0.137-0.16,0.161l-0.006,0.003
					c-0.002,0-0.008,0.002-0.01,0.002c-0.004,0.002-0.01,0.003-0.016,0.005c0-0.074-0.031-0.13-0.033-0.132
					c-0.045-0.086-0.121-0.119-0.129-0.123c-0.055-0.026-0.123-0.04-0.201-0.04c-0.037,0-0.07,0.003-0.092,0.006
					c-0.055,0.006-0.094,0.019-0.115,0.037c-0.004,0.002-0.008,0.004-0.01,0.006c-0.004,0.002-0.006,0.005-0.008,0.008
					s-0.004,0.006-0.006,0.008c-0.008,0.016-0.01,0.033-0.002,0.047c0.012,0.02,0.037,0.025,0.066,0.012
					c0.002-0.001,0.008-0.004,0.008-0.004c0.006-0.003,0.012-0.006,0.018-0.008l0.008-0.004c0.027-0.01,0.074-0.021,0.139-0.021
					h0.016c0.006,0,0.012,0,0.018,0.001c0.047,0.004,0.135,0.021,0.18,0.081c0.027,0.036,0.035,0.085,0.027,0.145
					c-0.006,0-0.014,0-0.021,0c-0.098,0-0.303-0.013-0.561-0.097l-0.115-0.04l-0.176-0.076l-0.01,0.023l0.002-0.027l-0.027-0.014
					l0.215-0.109l0.051-0.022l0.156-0.056l0.102-0.025l0.055-0.008l0.053-0.006c0.01-0.001,0.025-0.001,0.047-0.001
					c0.063,0,0.188,0.007,0.322,0.052C-31.522-57.32-31.317-57.238-31.328-57.111 M-33.461-57.689c0.063-0.05,0.119-0.106,0.16-0.15
					c0.023-0.026,0.047-0.054,0.07-0.082l0.023-0.029c0-0.001,0.004-0.005,0.004-0.005l0.004-0.006
					c0.01-0.012,0.021-0.023,0.031-0.034c0.045-0.043,0.098-0.079,0.152-0.104s0.115-0.036,0.17-0.033
					c0.057,0.004,0.113,0.022,0.168,0.055c0.027,0.016,0.057,0.037,0.088,0.064c0.008,0.007,0.021,0.022,0.039,0.042
					c0.018,0.018,0.037,0.038,0.055,0.06c0.002,0.002,0.004,0.005,0.006,0.006c0.006,0.006,0.01,0.013,0.016,0.019
					c0.004,0.005,0.01,0.01,0.018,0.02c0.004,0.004,0.008,0.008,0.012,0.012c0,0.002,0.002,0.003,0.002,0.005
					c0.016,0.017,0.127,0.136,0.213,0.198l-0.105,0.031l-0.16,0.058l-0.205,0.097l-0.203,0.113l-0.283-0.164l-0.117-0.06
					l-0.115-0.05l-0.088-0.028C-33.49-57.666-33.475-57.679-33.461-57.689 M-34.209-57.036c0,0.001-0.006,0.02-0.01,0.046
					c0,0.003,0,0.005,0,0.007c-0.096-0.03-0.154-0.085-0.164-0.151c-0.01-0.07,0.039-0.145,0.123-0.195l0.033-0.016
					c0.004-0.002,0.01-0.006,0.014-0.007l0.049-0.016l0.082-0.018c0.006-0.001,0.012-0.001,0.02-0.002
					c0.031-0.003,0.064-0.004,0.098-0.004c0.34,0,0.656,0.145,0.77,0.202c-0.402,0.217-0.645,0.229-0.65,0.229
					c-0.105,0.011-0.199,0.011-0.279-0.002c-0.004-0.049,0.008-0.087,0.033-0.116c0.049-0.058,0.141-0.061,0.154-0.061
					c0.055,0.003,0.105,0.016,0.121,0.019c0.016,0.004,0.031,0.013,0.045,0.019l0.016,0.008c0.006,0.002,0.02,0.007,0.035,0.007
					c0.023,0,0.041-0.011,0.049-0.028c0.004-0.012,0.004-0.023-0.002-0.034c-0.01-0.022-0.037-0.034-0.045-0.036
					c-0.033-0.012-0.096-0.027-0.166-0.032l-0.021-0.001c-0.086-0.003-0.158,0.012-0.207,0.044
					C-34.16-57.143-34.194-57.095-34.209-57.036 M-33.07-55.897l-0.016,0.01c-0.004,0.001-0.006,0.004-0.012,0.006
					c-0.008,0.005-0.016,0.009-0.021,0.013l-0.012,0.006c-0.002,0.001-0.004,0.002-0.008,0.004c-0.057,0.03-0.123,0.055-0.188,0.072
					c0.002-0.012,0.004-0.021,0.004-0.025c0.014-0.139-0.047-0.26-0.049-0.263c-0.09-0.211-0.314-0.469-0.41-0.574
					c0.049,0.003,0.098,0,0.146-0.007c0.295-0.036,0.711-0.278,0.793-0.328c0.002,0.001,0.004,0.003,0.006,0.004
					c0.064,0.044,0.258,0.178,0.533,0.265l0.146,0.042l0.086,0.016h0.008c0.025,0.004,0.049,0.007,0.068,0.009
					c-0.088,0.083-0.287,0.282-0.391,0.528c-0.002,0.003-0.004,0.007-0.004,0.012l-0.006,0.008c0,0.002-0.002,0.01-0.004,0.013
					c-0.006,0.017-0.01,0.033-0.016,0.05c-0.002,0.007-0.035,0.125-0.006,0.247c-0.031-0.01-0.066-0.021-0.092-0.029l-0.002-0.001
					c-0.002-0.001-0.004-0.001-0.006-0.003c-0.131-0.041-0.232-0.115-0.293-0.171c-0.004-0.003-0.008-0.007-0.014-0.011
					c-0.02-0.019-0.031-0.03-0.047-0.03c-0.008-0.001-0.018,0.003-0.021,0.01C-32.895-56.027-32.926-55.989-33.07-55.897
					 M-26.078-55.621c-0.023,0-0.041-0.026-0.041-0.062c0-0.027,0.018-0.056,0.047-0.087c0.023,0.027,0.035,0.057,0.035,0.087
					C-26.037-55.65-26.055-55.621-26.078-55.621 M-26.283-55.853c0.061,0,0.113,0.013,0.154,0.038
					c-0.043,0.041-0.064,0.086-0.064,0.132c0,0.075,0.051,0.137,0.115,0.137s0.117-0.063,0.117-0.137
					c0-0.046-0.018-0.089-0.053-0.129c0.059-0.035,0.133-0.063,0.205-0.074c0.035,0.053,0.053,0.108,0.053,0.176
					c0,0.194-0.197,0.3-0.383,0.3c-0.178,0-0.357-0.076-0.357-0.245C-26.496-55.772-26.408-55.853-26.283-55.853 M-24.67-55.897
					c-0.197,0-0.33,0.104-0.33,0.2c0,0.026,0.01,0.05,0.016,0.065c0.004,0.009,0.014,0.015,0.023,0.015h0.016
					c0.045,0,0.08-0.026,0.096-0.07c0.033-0.089,0.07-0.135,0.188-0.135c0.125,0,0.258,0.071,0.258,0.177
					c0,0.101-0.117,0.177-0.275,0.177c-0.188,0-0.346-0.119-0.479-0.234c-0.139-0.126-0.328-0.27-0.551-0.27
					c-0.014,0-0.029,0-0.045,0.001c-0.115-0.118-0.297-0.191-0.477-0.191c-0.355,0-0.602,0.176-0.795,0.349
					c-0.018,0.015-0.035,0.032-0.051,0.048l-0.02,0.019c-0.123,0.121-0.238,0.235-0.424,0.235c-0.102,0-0.189-0.028-0.275-0.09
					c0.01-0.003,0.02-0.007,0.029-0.01l0.008-0.003c0.1-0.031,0.189-0.096,0.242-0.172c0.002-0.002,0.006-0.005,0.006-0.007
					l0.004-0.007c0.004-0.006,0.008-0.012,0.01-0.017c0-0.001,0-0.002,0-0.003c0.004-0.002,0.006-0.005,0.006-0.008
					c0.045-0.086,0.047-0.172,0.01-0.249c0.035-0.028,0.066-0.063,0.088-0.099c0.002-0.001,0.004-0.002,0.004-0.004
					c0,0,0.002-0.002,0.002-0.003l0.004-0.008c0.004-0.004,0.006-0.009,0.008-0.012c0.014-0.022,0.025-0.046,0.033-0.07
					c0.002-0.003,0.002-0.005,0.002-0.007c0.002-0.007,0.004-0.013,0.006-0.018c0.002-0.003,0.002-0.007,0-0.005
					c0.004-0.004,0.006-0.01,0.006-0.014c0.002-0.009,0.004-0.015,0.004-0.015c0-0.001,0-0.003,0-0.005
					c0.01-0.047,0.01-0.096,0.004-0.146c-0.006-0.047-0.025-0.096-0.039-0.129c-0.043-0.094-0.117-0.178-0.219-0.248
					c-0.209-0.143-0.559-0.222-0.982-0.222c-0.09,0-0.18,0.004-0.27,0.011l-0.057,0.006c-0.242,0.029-0.904,0.16-1.846,0.752
					l-0.035,0.022c-0.279,0.18-0.566,0.365-0.924,0.47c-0.15,0.045-0.291,0.066-0.426,0.066c-0.029,0-0.061-0.001-0.092-0.003
					c-0.021-0.002-0.061-0.004-0.094-0.009c-0.016-0.052-0.014-0.107-0.01-0.146c0.004-0.019,0.008-0.037,0.012-0.06
					c0.027-0.1,0.063-0.184,0.107-0.258c0.043-0.074,0.102-0.149,0.176-0.232c0.055-0.063,0.119-0.127,0.188-0.189
					c0.086-0.011,0.156-0.038,0.209-0.082c0.002-0.002,0.006-0.004,0.008-0.006c0.006-0.006,0.012-0.012,0.02-0.018
					c0-0.001,0.002-0.002,0.002-0.004l0.008-0.008c0.002-0.003,0.004-0.007,0.008-0.009c0-0.001,0.004-0.006,0.004-0.006
					c0.016-0.021,0.027-0.043,0.037-0.065l0.021-0.003c0.256-0.042,0.293-0.206,0.297-0.246c0.002-0.003,0.002-0.006,0.002-0.009
					v-0.027c0-0.022-0.002-0.044-0.01-0.064c0-0.001,0-0.002,0-0.002c-0.047-0.136-0.229-0.236-0.484-0.268
					c-0.068-0.009-0.133-0.013-0.195-0.013c-0.064,0.001-0.244,0.017-0.504,0.125c-0.012,0.004-0.023,0.009-0.037,0.016
					c-0.004,0.002-0.008,0.004-0.014,0.006l-0.223,0.107l-0.1-0.057l0.355-0.206l0.1-0.047l0.146-0.058
					c0.002-0.001,0.004-0.001,0.004-0.001c0.014-0.005,0.025-0.008,0.031-0.009l0.045,0.024c0.092,0.048,0.18,0.077,0.258,0.086
					c0.045,0.003,0.076,0.002,0.107-0.003c0.002,0,0.006-0.001,0.008-0.002c0.041-0.009,0.07-0.026,0.084-0.052
					c0.018-0.031,0.008-0.061,0.008-0.064c-0.002,0-0.004-0.006-0.004-0.007c-0.002-0.003-0.004-0.006-0.006-0.009
					c0-0.001-0.004-0.006-0.004-0.006c-0.002-0.004-0.006-0.007-0.008-0.01c-0.004-0.005-0.006-0.008-0.008-0.008l-0.004-0.004
					c-0.055-0.045-0.176-0.058-0.342-0.039c-0.045,0.006-0.08,0.012-0.098,0.015l-0.064-0.046l-0.039-0.034l-0.068-0.066
					c-0.029-0.032-0.055-0.065-0.08-0.099l-0.021-0.028c-0.01-0.014-0.021-0.027-0.031-0.041c-0.027-0.039-0.078-0.098-0.09-0.111
					c-0.035-0.035-0.07-0.064-0.105-0.088c-0.035-0.022-0.072-0.04-0.109-0.054s-0.076-0.023-0.119-0.026
					c-0.08-0.006-0.162,0.009-0.238,0.044c-0.07,0.031-0.135,0.077-0.191,0.138l-0.008,0.008c-0.01,0.013-0.021,0.023-0.031,0.037
					l-0.004,0.006c0,0.001-0.004,0.006-0.004,0.006l-0.023,0.032c-0.02,0.027-0.039,0.054-0.063,0.08
					c-0.021,0.026-0.043,0.053-0.066,0.077c-0.021,0.024-0.045,0.05-0.068,0.073c-0.012,0.01-0.025,0.021-0.035,0.031l-0.027,0.021
					c-0.004,0.003-0.008,0.005-0.012,0.008c-0.01,0.006-0.018,0.011-0.027,0.017l-0.01,0.006c-0.037-0.011-0.168-0.045-0.283-0.045
					c-0.053,0-0.096,0.007-0.129,0.022c-0.02,0.01-0.064,0.039-0.064,0.095c0,0.023,0.01,0.067,0.074,0.09
					c0.014,0.005,0.027,0.009,0.043,0.01c0.01,0.002,0.02,0.003,0.029,0.003c0.148,0.007,0.32-0.067,0.363-0.086l0.086,0.029
					l0.107,0.045l0.416,0.227l-0.115,0.067c-0.037-0.021-0.15-0.081-0.301-0.139l-0.051-0.018l-0.119-0.037l-0.131-0.029
					c-0.111-0.021-0.217-0.028-0.307-0.021c-0.008,0-0.197,0.002-0.352,0.093c-0.039,0.021-0.07,0.046-0.096,0.074
					c-0.07,0.078-0.061,0.153-0.061,0.153c0,0.008-0.004,0.191,0.324,0.269c0,0.001,0,0.003,0,0.004
					c0,0.002,0.002,0.006,0.002,0.007c0.023,0.068,0.086,0.158,0.26,0.202c0.072,0.077,0.133,0.149,0.189,0.224
					c0.066,0.082,0.127,0.167,0.178,0.251c0.027,0.046,0.051,0.091,0.068,0.133c0.02,0.044,0.039,0.091,0.055,0.138
					c0.018,0.053,0.025,0.095,0.025,0.133c0,0.013-0.002,0.026-0.004,0.039c-0.031,0.005-0.068,0.007-0.104,0.01h-0.01
					c-0.141,0.011-0.27-0.001-0.391-0.032c-0.018-0.005-0.037-0.009-0.057-0.012c-0.023-0.005-0.045-0.009-0.066-0.016
					c-0.178-0.054-0.318-0.12-0.43-0.178c-0.184-0.093-0.35-0.198-0.512-0.301l-0.008-0.005c-0.9-0.584-1.609-0.705-1.875-0.729
					c-0.252-0.02-0.498-0.013-0.707,0.021c-0.145,0.023-0.24,0.044-0.346,0.088c-0.219,0.088-0.354,0.199-0.424,0.35
					c-0.018,0.036-0.035,0.08-0.041,0.129c0,0-0.002,0.015-0.004,0.04c-0.002,0.032,0,0.063,0.004,0.084
					c0.01,0.091,0.047,0.213,0.162,0.293c-0.002,0.004-0.004,0.007-0.004,0.01c-0.002,0.005-0.004,0.011-0.006,0.017
					c-0.053,0.179,0.068,0.316,0.201,0.384c0.039,0.021,0.082,0.037,0.123,0.046c-0.086,0.06-0.17,0.087-0.27,0.087
					c-0.188,0-0.303-0.115-0.426-0.235c-0.021-0.023-0.045-0.045-0.07-0.068c-0.193-0.171-0.439-0.347-0.793-0.347
					c-0.182,0-0.363,0.073-0.477,0.19c-0.016-0.001-0.031-0.001-0.047-0.001c-0.219,0-0.41,0.144-0.551,0.27
					c-0.133,0.116-0.291,0.234-0.477,0.234c-0.158,0-0.277-0.076-0.277-0.177c0-0.108,0.135-0.176,0.258-0.176
					c0.117,0,0.154,0.045,0.188,0.134c0.023,0.066,0.08,0.072,0.098,0.072c0.006,0,0.012,0,0.018-0.002
					c0.008-0.001,0.016-0.006,0.02-0.014c0.01-0.021,0.016-0.045,0.016-0.065c0-0.098-0.133-0.201-0.328-0.201
					c-0.193,0-0.344,0.111-0.344,0.252c0,0.143,0.154,0.253,0.354,0.253c0.238,0,0.434-0.119,0.555-0.221l0.018-0.014
					c0.02-0.018,0.039-0.034,0.059-0.051c0.125-0.107,0.242-0.209,0.383-0.219c-0.039,0.065-0.055,0.117-0.055,0.187
					c0,0.231,0.26,0.376,0.5,0.376c0.229,0,0.475-0.113,0.475-0.32c0-0.17-0.172-0.274-0.332-0.274
					c-0.057,0-0.139,0.012-0.209,0.065c-0.059-0.04-0.131-0.07-0.207-0.089c0.092-0.086,0.221-0.135,0.363-0.135
					c0.252,0,0.393,0.139,0.527,0.272l0.033,0.031c0.016,0.015,0.031,0.03,0.047,0.044c0.227,0.209,0.438,0.302,0.684,0.302
					c0.146,0,0.266-0.048,0.387-0.156c0.006-0.003,0.01-0.006,0.014-0.01c0.006-0.006,0.01-0.016,0.006-0.024
					c-0.004-0.014-0.014-0.024-0.025-0.03c-0.002-0.001-0.004-0.001-0.004-0.002c-0.012-0.004-0.025-0.005-0.035-0.003
					c-0.002,0-0.006,0-0.008-0.001c-0.131-0.017-0.236-0.08-0.291-0.176c-0.02-0.036-0.047-0.114-0.018-0.176
					c0.035,0.016,0.078,0.028,0.123,0.035c0.002,0.001,0.008,0.002,0.012,0.002l0,0c0.002,0,0.002,0,0.002,0
					c0.002,0.001,0.006,0.001,0.01,0.001l0.002-0.024l0.006,0.026h0.008c0.006,0.001,0.014,0.002,0.021,0.002
					c0.07,0.005,0.135-0.005,0.193-0.027c0.016-0.005,0.029-0.012,0.037-0.018c0.002,0,0.004-0.001,0.006-0.002
					c0.006-0.002,0.01-0.005,0.014-0.008c0.102-0.059,0.168-0.162,0.172-0.269c0.09-0.006,0.184-0.005,0.283,0.001
					c0.014,0.15,0.094,0.262,0.17,0.354c0.072,0.09,0.166,0.172,0.287,0.251c0.098,0.063,0.215,0.135,0.35,0.185
					c0.113,0.043,0.266,0.093,0.434,0.1c0.152,0.007,0.268-0.028,0.328-0.1c0.004-0.003,0.008-0.007,0.008-0.011
					c0.004-0.006,0.008-0.01,0.012-0.015c0.018-0.029,0.027-0.063,0.027-0.1c0-0.082-0.049-0.16-0.092-0.213
					c-0.037-0.047-0.082-0.09-0.139-0.138c-0.109-0.084-0.227-0.136-0.357-0.191c-0.135-0.058-0.275-0.104-0.414-0.139
					c-0.078-0.019-0.158-0.035-0.24-0.047c-0.086-0.016-0.176-0.025-0.268-0.032c0.023-0.064,0.078-0.113,0.158-0.146
					c0.045-0.018,0.102-0.027,0.168-0.027c0.084,0,0.186,0.017,0.27,0.043c0.098,0.031,0.186,0.063,0.271,0.1
					c0.143,0.061,0.273,0.136,0.398,0.207c0.029,0.017,0.059,0.033,0.088,0.05c0.152,0.086,0.301,0.167,0.449,0.246l0.047,0.025
					c0.01,0.006,0.02,0.01,0.029,0.015c0,0.001,0,0.001,0.002,0.002c0.004,0.003,0.502,0.29,0.971,0.386l0,0
					c0.002,0,0.002,0.001,0.004,0.001c0.055,0.011,0.109,0.02,0.162,0.025c0.074,0.009,0.143,0.013,0.207,0.013
					c0.404,0,0.549-0.173,0.6-0.283c0.006-0.002,0.01-0.002,0.012-0.002c0.043-0.012,0.264-0.07,0.463-0.236
					c0.059,0.046,0.252,0.192,0.492,0.243c0.01,0.008,0.018,0.018,0.025,0.026c0.01,0.01,0.02,0.021,0.029,0.029
					c0.004,0.003,0.006,0.006,0.006,0.006c0.006,0.005,0.012,0.01,0.018,0.015l0.01,0.007c0.002,0.002,0.004,0.004,0.006,0.005
					c0.146,0.111,0.342,0.174,0.535,0.174c0.098,0,0.191-0.009,0.283-0.027c0.18-0.037,0.346-0.095,0.471-0.141
					c0.133-0.05,0.271-0.111,0.426-0.189c0.127-0.065,0.262-0.135,0.396-0.214c0.053-0.031,0.107-0.062,0.162-0.092
					c0.074-0.042,0.15-0.084,0.225-0.131c0.014-0.009,0.029-0.018,0.045-0.026l0,0c0.002-0.001,0.004-0.001,0.004-0.002
					c0.043-0.024,0.09-0.049,0.146-0.076c0.031-0.016,0.063-0.031,0.096-0.046c0.172-0.077,0.418-0.17,0.623-0.17
					c0.031,0,0.061,0.002,0.088,0.007c0.006,0.001,0.012,0.002,0.02,0.003c0.068,0.017,0.154,0.056,0.191,0.15
					c-0.086,0.009-0.176,0.021-0.268,0.035c-0.23,0.038-0.43,0.095-0.625,0.179c-0.113,0.048-0.234,0.104-0.35,0.188
					c-0.051,0.038-0.096,0.08-0.141,0.132c-0.043,0.05-0.09,0.11-0.105,0.178c-0.014,0.063-0.004,0.121,0.031,0.169
					c0.043,0.062,0.125,0.104,0.219,0.111c0.146,0.014,0.268-0.014,0.377-0.044c0.172-0.046,0.33-0.116,0.473-0.206
					c0.436-0.266,0.512-0.512,0.514-0.649c0.104-0.005,0.203-0.005,0.295,0.002c0.002,0.025,0.006,0.049,0.016,0.071
					c0.02,0.066,0.082,0.184,0.26,0.228c0,0,0,0,0.002,0c0,0.001,0.004,0.002,0.006,0.002l0.002,0.001
					c0.006,0.001,0.008,0.001,0.006,0c0.012,0.003,0.025,0.006,0.041,0.008l0.002-0.024l0.006,0.026
					c0.006,0.001,0.016,0.001,0.021,0.002c0.004,0,0.01,0,0.016,0c0,0,0.002,0,0.002,0.001c0.084,0.003,0.158-0.014,0.227-0.048
					c0,0.001,0,0.002,0.002,0.004c0.014,0.027,0.014,0.063,0.01,0.088c-0.014,0.125-0.146,0.23-0.264,0.258
					c-0.012,0.003-0.023,0.004-0.033,0.005c-0.018,0.001-0.035,0.004-0.053,0.01c-0.004,0.001-0.006,0.003-0.008,0.004
					c-0.006,0.003-0.016,0.008-0.021,0.014c-0.008,0.006-0.01,0.013-0.01,0.021s0.004,0.015,0.01,0.02s0.012,0.007,0.018,0.009
					c0.121,0.108,0.24,0.157,0.387,0.157c0.246,0,0.457-0.093,0.684-0.302c0.025-0.024,0.053-0.05,0.078-0.076
					c0.137-0.134,0.277-0.271,0.527-0.271c0.143,0,0.271,0.048,0.365,0.134c-0.078,0.019-0.15,0.05-0.209,0.089
					c-0.072-0.054-0.152-0.065-0.209-0.065c-0.16,0-0.332,0.105-0.332,0.273c0,0.209,0.246,0.32,0.477,0.32
					c0.24,0,0.498-0.144,0.498-0.375c0-0.068-0.016-0.121-0.055-0.187c0.139,0.009,0.256,0.109,0.379,0.216l0.006,0.005
					c0.025,0.021,0.049,0.042,0.076,0.064c0.119,0.099,0.313,0.219,0.555,0.219c0.197,0,0.352-0.11,0.352-0.253
					C-24.328-55.786-24.479-55.897-24.67-55.897"/>
			</g>
			<g id="g136" transform="translate(46.5168,34.6004)">
				<path id="path138" inkscape:connector-curvature="0" fill="#6B212A" d="M-39.639-18.888c0.021,0,0.039,0.026,0.039,0.061
					c0,0.027-0.016,0.057-0.047,0.086c-0.023-0.026-0.035-0.055-0.035-0.086C-39.682-18.859-39.662-18.888-39.639-18.888
					 M-39.436-18.656c-0.061,0-0.111-0.014-0.15-0.039c0.041-0.041,0.063-0.086,0.063-0.132c0-0.075-0.051-0.137-0.115-0.137
					s-0.117,0.062-0.117,0.137c0,0.046,0.018,0.091,0.053,0.129c-0.059,0.035-0.133,0.063-0.205,0.074
					c-0.035-0.051-0.051-0.107-0.051-0.176c0-0.194,0.195-0.3,0.381-0.3c0.178,0,0.357,0.075,0.357,0.244
					C-39.221-18.738-39.309-18.656-39.436-18.656 M-36.194-18.475c-0.002,0-0.004,0.001-0.004,0.001
					c-0.004,0.002-0.008,0.004-0.012,0.006c-0.002,0.001-0.004,0.001-0.006,0.003l-0.002,0.001c-0.051,0.023-0.104,0.045-0.16,0.065
					c-0.145,0.055-0.32,0.102-0.523,0.139c-0.066,0.013-0.172,0.029-0.293,0.041c0.004-0.132,0.084-0.223,0.16-0.298
					c0.078-0.079,0.182-0.144,0.281-0.207l0.014-0.009c0.047-0.028,0.096-0.056,0.15-0.082c0.182-0.088,0.459-0.192,0.643-0.192
					c0.096,0,0.152,0.028,0.17,0.083C-35.713-18.728-36.092-18.526-36.194-18.475 M-37.668-18.25v0.012
					c0,0.006,0.002,0.01,0.002,0.016c-0.055-0.006-0.109-0.016-0.162-0.029c-0.018-0.006-0.031-0.011-0.047-0.014
					c-0.008-0.003-0.012-0.004-0.02-0.007c-0.043-0.015-0.08-0.031-0.113-0.05c-0.045-0.025-0.084-0.057-0.113-0.091
					c0.008-0.003,0.014-0.006,0.021-0.009c0.029-0.012,0.09-0.032,0.16-0.032c0.033,0,0.063,0.004,0.092,0.013
					c0.016,0.003,0.039,0.013,0.064,0.026C-37.744-18.392-37.68-18.34-37.668-18.25 M-35.055-18.309
					c-0.051,0.028-0.1,0.057-0.148,0.085c-0.07,0.043-0.145,0.086-0.219,0.125l-0.041,0.021c-0.232,0.123-0.473,0.25-0.74,0.348
					c-0.047,0.018-0.098,0.032-0.15,0.047c-0.023,0.006-0.047,0.013-0.068,0.02c-0.191,0.056-0.445,0.122-0.725,0.136
					c-0.291,0.015-0.531-0.019-0.768-0.104c-0.012-0.005-0.023-0.01-0.035-0.015c-0.004-0.002-0.006-0.003-0.008-0.003
					c-0.033-0.014-0.186-0.08-0.283-0.197c-0.025-0.033-0.047-0.068-0.061-0.104c-0.004-0.012-0.096-0.266,0.105-0.418
					c0.055,0.056,0.117,0.101,0.186,0.135c0.004,0.003,0.111,0.063,0.332,0.099c-0.004,0.006-0.004,0.011-0.006,0.018
					c-0.018,0.038-0.049,0.067-0.098,0.086c-0.004,0.002-0.008,0.003-0.008,0.003c-0.029,0.006-0.057,0.008-0.084,0.003
					c0,0-0.004,0-0.006,0c-0.002-0.001-0.006-0.002-0.008-0.003l-0.006-0.001c-0.021-0.005-0.039-0.013-0.055-0.021
					c-0.002-0.001-0.004-0.001-0.006-0.002l0,0c-0.016-0.01-0.029-0.021-0.041-0.034c-0.023-0.027-0.033-0.055-0.033-0.055
					c-0.004-0.013-0.018-0.02-0.029-0.018c-0.014,0.003-0.021,0.014-0.021,0.026c0.008,0.099,0.086,0.172,0.205,0.187
					c0.041,0.005,0.078,0.001,0.109-0.009c0.004-0.001,0.008-0.002,0.012-0.003l0.002-0.001c0.004-0.001,0.006-0.002,0.008-0.004
					c0.021-0.007,0.039-0.017,0.059-0.029c0.059-0.042,0.088-0.1,0.098-0.13c0.1,0.011,0.205,0.014,0.324,0.009
					c0.025,0.07,0.061,0.12,0.109,0.157c0.078,0.061,0.189,0.091,0.334,0.091c0.24,0,0.482-0.083,0.551-0.108
					c0.197-0.073,0.377-0.167,0.549-0.257c0.057-0.028,0.109-0.058,0.164-0.085c0.045-0.021,0.088-0.047,0.133-0.072l0.037-0.021
					c0.166-0.099,0.342-0.194,0.506-0.283c0.232-0.124,0.482-0.247,0.771-0.271c0.002,0,0.006,0,0.01,0l0,0
					c0.111-0.008,0.205-0.004,0.289,0.011h0.008l0.014,0.003c0.016,0.004,0.031,0.007,0.047,0.011
					c0.082,0.024,0.162,0.073,0.236,0.146c-0.098-0.008-0.197-0.008-0.291,0c-0.35,0.026-0.645,0.17-0.881,0.284
					C-34.805-18.448-34.924-18.383-35.055-18.309 M-33.033-18.541l0.072,0.058c0,0.002,0.002,0.003,0.004,0.004l0.021,0.018
					c0.016,0.014,0.035,0.029,0.041,0.033c0.002,0.001,0.008,0.002,0.012,0.002c0.014,0,0.025-0.009,0.068-0.049l0.014-0.013
					c0.002-0.003,0.006-0.006,0.012-0.01c0.02-0.014,0.135-0.098,0.256-0.146c0.004-0.001,0.008-0.002,0.01-0.003l-0.002,0.004
					c-0.004,0.006-0.102,0.14-0.143,0.351c-0.082-0.013-0.164-0.019-0.244-0.019c-0.063,0-0.125,0.003-0.186,0.011
					c-0.021-0.129-0.061-0.243-0.117-0.341C-33.154-18.618-33.094-18.585-33.033-18.541 M-33.324-17.663l-0.006,0.008
					c-0.074,0.085-0.152,0.127-0.232,0.127c-0.041,0-0.072-0.011-0.09-0.019c-0.004-0.002-0.008-0.004-0.012-0.006
					c0-0.001,0-0.001-0.002-0.001c-0.041-0.023-0.066-0.056-0.076-0.098c-0.025-0.106,0.059-0.238,0.061-0.24
					c0.006-0.009,0.012-0.017,0.018-0.024c0.072-0.097,0.213-0.223,0.479-0.276c0.018,0.121,0.008,0.237-0.033,0.344
					c-0.016,0.039-0.035,0.077-0.063,0.124c-0.004,0.007-0.01,0.014-0.014,0.021s-0.01,0.015-0.018,0.024
					C-33.317-17.674-33.32-17.669-33.324-17.663 M-32.274-18.07c0.004,0.003,0.008,0.005,0.01,0.005
					c0.039,0.027,0.074,0.056,0.105,0.088c0,0.002,0.002,0.003,0.002,0.005c0.02,0.019,0.033,0.035,0.045,0.051
					c0.004,0.005,0.006,0.008,0.014,0.018c0.004,0.006,0.008,0.011,0.012,0.021c0.043,0.067,0.09,0.167,0.059,0.261
					c-0.002,0.009-0.029,0.091-0.143,0.105c-0.014,0.001-0.029,0.001-0.043,0c-0.148-0.018-0.266-0.199-0.266-0.201
					c-0.1-0.157-0.104-0.338-0.096-0.43c0-0.008,0.002-0.015,0.002-0.021c0.002-0.005,0.002-0.013,0.004-0.021
					c0.047,0.01,0.158,0.036,0.275,0.108c0.004,0.003,0.008,0.006,0.014,0.009L-32.274-18.07z M-27.947-18.2
					c-0.037,0.009-0.078,0.016-0.119,0.021c0.006-0.089,0.064-0.188,0.191-0.224c0.035-0.009,0.072-0.014,0.107-0.014
					c0.064,0,0.119,0.016,0.162,0.043C-27.676-18.29-27.785-18.235-27.947-18.2 M-29.819-18.973c0.213,0,0.568,0.121,0.846,0.287
					l0.012,0.009c0.012,0.007,0.023,0.015,0.033,0.021c0.006,0.004,0.008,0.006,0.008,0.005l0.033,0.021
					c0.006,0.004,0.012,0.008,0.016,0.012c0.121,0.086,0.314,0.254,0.318,0.438c-0.031-0.003-0.061-0.007-0.086-0.01
					c-0.188-0.03-0.379-0.072-0.547-0.122c-0.08-0.027-0.785-0.271-0.811-0.541c0-0.002,0-0.004,0-0.008
					c0.002-0.035,0.014-0.055,0.02-0.064C-29.949-18.957-29.895-18.973-29.819-18.973 M-28.248-17.492
					c-0.143,0.012-0.252,0.012-0.395,0c-0.297-0.022-0.613-0.1-0.963-0.234c-0.264-0.103-0.498-0.229-0.713-0.351
					c0,0-0.002-0.001-0.004-0.002c-0.029-0.017-0.061-0.034-0.092-0.052c-0.027-0.018-0.057-0.033-0.086-0.051
					c-0.328-0.184-0.715-0.387-0.723-0.391c-0.109-0.053-0.207-0.093-0.295-0.122c-0.113-0.038-0.344-0.102-0.607-0.102
					c-0.043,0-0.084,0.001-0.125,0.005c0.006-0.005,0.012-0.01,0.016-0.014l0.006-0.004l0.004-0.005l0.004-0.002
					c0.002-0.001,0.004-0.003,0.006-0.005c0,0,0,0,0-0.001c0.105-0.073,0.234-0.118,0.383-0.134s0.301,0.002,0.461,0.052
					c0.113,0.039,0.287,0.12,0.518,0.239c0.006,0.004,0.611,0.345,0.813,0.449l0.053,0.027c0.037,0.02,0.074,0.039,0.111,0.061
					l0.07,0.033c0.09,0.042,0.184,0.087,0.281,0.128c0.014,0.005,0.324,0.144,0.611,0.144c0.229,0,0.377-0.086,0.443-0.257
					c0.092,0.001,0.191-0.001,0.314-0.006c0.018,0.051,0.063,0.137,0.178,0.171c0.07,0.019,0.145,0.013,0.203-0.019
					c0.1-0.054,0.117-0.154,0.119-0.159c0.002-0.012-0.004-0.023-0.018-0.028c-0.012-0.003-0.023,0.001-0.029,0.013l-0.004,0.008
					c-0.004,0.007-0.008,0.015-0.012,0.021c-0.029,0.044-0.082,0.096-0.166,0.096c-0.023,0-0.047-0.003-0.068-0.01
					c-0.023-0.009-0.047-0.022-0.066-0.038c-0.016-0.017-0.027-0.039-0.037-0.063c0.162-0.031,0.279-0.066,0.371-0.115
					c0,0,0-0.001,0.002-0.001c0.004-0.001,0.09-0.04,0.156-0.115c0.098,0.082,0.141,0.181,0.129,0.3
					c-0.021,0.217-0.201,0.342-0.348,0.408C-27.889-17.553-28.08-17.504-28.248-17.492 M-26.08-18.85
					c0.023,0,0.043,0.027,0.043,0.062c0,0.031-0.012,0.061-0.035,0.087c-0.029-0.03-0.047-0.06-0.047-0.087
					C-26.119-18.824-26.102-18.85-26.08-18.85 M-26.139-19.061c0.186,0,0.383,0.105,0.383,0.3c0,0.066-0.018,0.122-0.053,0.176
					c-0.072-0.012-0.148-0.04-0.205-0.074c0.035-0.04,0.053-0.084,0.053-0.129c0-0.074-0.055-0.138-0.119-0.138
					c-0.063,0-0.113,0.062-0.113,0.138c0,0.045,0.021,0.09,0.063,0.132c-0.041,0.025-0.092,0.038-0.152,0.038
					c-0.125,0-0.213-0.082-0.213-0.198C-26.496-18.986-26.317-19.061-26.139-19.061 M-24.68-19.08c-0.24,0-0.436,0.12-0.555,0.221
					c-0.027,0.021-0.051,0.043-0.078,0.065c-0.123,0.107-0.242,0.21-0.381,0.219c0.039-0.065,0.055-0.118,0.055-0.187
					c0-0.231-0.26-0.376-0.5-0.376c-0.23,0-0.475,0.112-0.475,0.32c0,0.169,0.172,0.273,0.33,0.273c0.057,0,0.137-0.011,0.211-0.064
					c0.057,0.039,0.131,0.07,0.207,0.088c-0.092,0.087-0.221,0.135-0.365,0.135c-0.252,0-0.391-0.138-0.527-0.271
					c-0.025-0.026-0.051-0.052-0.08-0.076c-0.225-0.209-0.436-0.302-0.682-0.302c-0.148,0-0.266,0.048-0.387,0.156
					c-0.006,0.002-0.012,0.005-0.018,0.009c-0.006,0.005-0.01,0.011-0.01,0.019s0.002,0.016,0.008,0.021
					c0.006,0.006,0.014,0.01,0.02,0.015c0.002,0.001,0.008,0.003,0.012,0.004c0.018,0.007,0.035,0.009,0.055,0.011
					c0.01,0.001,0.021,0.002,0.031,0.004c0.117,0.027,0.25,0.134,0.264,0.259c0.004,0.034,0,0.065-0.012,0.089
					c0,0.002,0,0.003,0,0.004c-0.002,0.001-0.002,0.004-0.002,0.005c-0.031-0.015-0.092-0.041-0.148-0.051
					c-0.033-0.004-0.064-0.004-0.092-0.002c-0.01,0-0.016,0.001-0.025,0.001c0,0-0.008,0.002-0.01,0.002
					c-0.051,0.008-0.096,0.022-0.137,0.044c-0.004,0.001-0.006,0.002-0.008,0.004c-0.049,0.025-0.082,0.056-0.104,0.077
					c-0.002,0.002-0.004,0.005-0.006,0.008c-0.004,0.004-0.008,0.008-0.012,0.013c-0.002,0.003-0.004,0.006-0.006,0.009
					c0,0.001,0,0.003-0.002,0.003c-0.008,0.012-0.016,0.024-0.023,0.036c-0.002,0.003-0.031,0.058-0.035,0.128
					c-0.086,0.006-0.184,0.004-0.268,0c-0.002-0.001-0.002-0.001-0.004-0.001l-0.02-0.001c0.012-0.305-0.42-0.596-0.436-0.607
					c-0.004-0.002-0.008-0.005-0.018-0.011c-0.018-0.013-0.031-0.021-0.039-0.026c-0.002-0.004-0.006-0.006-0.01-0.007
					c-0.143-0.092-0.307-0.163-0.484-0.212c-0.129-0.035-0.236-0.056-0.377-0.044c-0.098,0.01-0.184,0.055-0.227,0.121
					c0,0-0.004,0.006-0.008,0.018c-0.014,0.023-0.02,0.049-0.021,0.075c-0.01,0.109,0.051,0.281,0.4,0.47
					c0.07,0.038,0.141,0.069,0.201,0.095c0.193,0.083,0.393,0.14,0.625,0.179c0.1,0.016,0.189,0.028,0.281,0.036
					c-0.051,0.114-0.189,0.154-0.207,0.159c0,0.001-0.002,0.001-0.002,0.001c-0.09,0.018-0.203,0.011-0.33-0.018
					c-0.006-0.002-0.012-0.003-0.018-0.005l-0.012-0.002l0,0c-0.004-0.001-0.008-0.002-0.012-0.003
					c-0.203-0.055-0.582-0.263-0.736-0.35l-0.08-0.045l-0.002-0.001c-0.027-0.016-0.055-0.031-0.082-0.046
					c-0.045-0.025-0.09-0.05-0.133-0.075c-0.129-0.077-0.262-0.146-0.396-0.214c-0.035-0.019-0.072-0.036-0.109-0.053l-0.008-0.005
					c-0.07-0.036-0.143-0.069-0.221-0.102c-0.232-0.106-0.461-0.17-0.678-0.19c-0.051-0.006-0.105-0.008-0.162-0.008h-0.012
					c-0.076,0-0.117,0.008-0.117,0.008c-0.008,0.001-0.018,0.003-0.025,0.005c-0.002,0-0.006,0.001-0.008,0.001l0,0
					c-0.01,0.002-0.02,0.003-0.033,0.007l-0.021,0.005c-0.008,0.002-0.014,0.003-0.021,0.005l-0.012,0.004
					c-0.012,0.003-0.025,0.007-0.037,0.011c-0.006,0.001-0.01,0.003-0.014,0.005l-0.006,0.002c-0.141,0.048-0.26,0.121-0.357,0.217
					c-0.008,0.003-0.023,0.007-0.047,0.014l-0.014,0.005c-0.016,0.006-0.033,0.012-0.047,0.018
					c-0.105,0.038-0.248,0.102-0.354,0.197c-0.047-0.044-0.188-0.156-0.418-0.222c-0.061-0.074-0.135-0.136-0.221-0.185
					c-0.043-0.025-0.092-0.048-0.145-0.065c-0.041-0.014-0.066-0.017-0.066-0.017c-0.119-0.028-0.26-0.033-0.406-0.018
					c-0.07,0.006-0.148,0.02-0.232,0.039c0,0.001-0.107,0.026-0.141,0.04l0,0c-0.127,0.038-0.266,0.09-0.424,0.158
					c-0.08,0.032-0.166,0.071-0.262,0.121l-0.006,0.003c-0.031,0.016-0.061,0.031-0.09,0.048l-0.148,0.079
					c-0.127,0.069-0.254,0.138-0.385,0.211c-0.029,0.017-0.061,0.034-0.09,0.052c-0.125,0.071-0.254,0.146-0.396,0.205
					c-0.088,0.037-0.178,0.069-0.271,0.1c-0.086,0.027-0.186,0.043-0.27,0.043c-0.066,0-0.123-0.009-0.166-0.026
					c-0.082-0.033-0.135-0.082-0.16-0.146c0.09-0.007,0.18-0.018,0.268-0.032c0.08-0.013,0.16-0.029,0.24-0.047
					c0.141-0.035,0.279-0.082,0.416-0.14c0.113-0.048,0.242-0.103,0.355-0.191c0.055-0.044,0.1-0.089,0.141-0.138
					c0.033-0.041,0.09-0.124,0.09-0.213c0-0.034-0.01-0.069-0.027-0.098c-0.004-0.006-0.008-0.013-0.012-0.018
					c-0.002-0.002-0.004-0.004-0.006-0.006c-0.061-0.073-0.176-0.109-0.33-0.103c-0.131,0.006-0.27,0.037-0.434,0.099
					c-0.137,0.052-0.252,0.122-0.35,0.185c-0.123,0.081-0.215,0.161-0.287,0.252c-0.076,0.092-0.156,0.202-0.17,0.354
					c-0.105,0.007-0.203,0.007-0.291,0.001c-0.006-0.076-0.041-0.138-0.041-0.14c-0.066-0.125-0.203-0.192-0.373-0.183
					c-0.006,0-0.014,0-0.02,0.001c-0.002,0-0.006,0-0.014,0.001c-0.002,0.001-0.008,0.001-0.008,0.002
					c-0.002,0-0.01,0.001-0.01,0.001c-0.002,0-0.008,0.001-0.01,0.001c-0.045,0.008-0.088,0.02-0.125,0.035
					c-0.027-0.061,0-0.14,0.02-0.176c0.055-0.095,0.16-0.159,0.291-0.175c0.002-0.001,0.004-0.001,0.008-0.001
					c0.006,0,0.021,0.001,0.035-0.003c0.002-0.001,0.004-0.002,0.006-0.004c0.014-0.006,0.021-0.018,0.023-0.031
					c0.002-0.008,0-0.016-0.006-0.021c-0.004-0.006-0.01-0.009-0.014-0.011c-0.121-0.108-0.24-0.157-0.387-0.157
					c-0.248,0-0.457,0.094-0.684,0.303c-0.027,0.025-0.053,0.05-0.08,0.076c-0.135,0.134-0.275,0.271-0.527,0.271
					c-0.143,0-0.271-0.048-0.363-0.135c0.076-0.019,0.15-0.049,0.207-0.088c0.072,0.054,0.154,0.065,0.209,0.065
					c0.16,0,0.332-0.105,0.332-0.274c0-0.208-0.244-0.32-0.475-0.32c-0.24,0-0.5,0.144-0.5,0.376c0,0.069,0.016,0.121,0.055,0.186
					c-0.139-0.008-0.258-0.111-0.383-0.218l-0.076-0.066c-0.121-0.1-0.316-0.22-0.555-0.22c-0.197,0-0.354,0.111-0.354,0.252
					c0,0.142,0.152,0.252,0.344,0.252c0.197,0,0.328-0.104,0.328-0.2c0-0.019-0.004-0.04-0.014-0.064
					c-0.004-0.009-0.012-0.015-0.021-0.016c-0.006-0.001-0.012-0.001-0.018-0.001c-0.018,0-0.074,0.006-0.098,0.072
					c-0.031,0.087-0.07,0.134-0.188,0.134c-0.123,0-0.258-0.067-0.258-0.177c0-0.101,0.119-0.176,0.277-0.176
					c0.186,0,0.344,0.118,0.475,0.233c0.143,0.126,0.334,0.271,0.553,0.271c0.016,0,0.031,0,0.045-0.002
					c0.115,0.118,0.299,0.191,0.477,0.191c0.355,0,0.602-0.176,0.795-0.348c0.025-0.022,0.049-0.045,0.07-0.067
					c0.123-0.121,0.24-0.234,0.426-0.234c0.1,0,0.184,0.026,0.27,0.085c-0.043,0.01-0.086,0.025-0.123,0.045
					c-0.133,0.069-0.254,0.207-0.203,0.387c0.002,0.006,0.006,0.013,0.008,0.02c0.002,0.001,0.002,0.004,0.002,0.006
					c-0.053,0.037-0.207,0.17-0.162,0.409c0,0.001,0,0.007,0.002,0.008c0.006,0.048,0.023,0.092,0.039,0.129
					c0.072,0.15,0.207,0.263,0.426,0.351c0.105,0.043,0.203,0.063,0.346,0.087c0.133,0.021,0.279,0.031,0.436,0.031
					c0.285,0,0.594-0.036,0.846-0.103c0.334-0.087,0.613-0.229,0.863-0.37c0.145-0.082,0.279-0.168,0.41-0.251
					c0.182-0.114,0.35-0.223,0.545-0.322c0.141-0.072,0.252-0.12,0.375-0.16c0-0.001,0.014-0.006,0.039-0.013l0.021-0.006
					c0.004-0.002,0.006-0.002,0.008-0.003c0.072-0.021,0.211-0.055,0.342-0.059c0.053-0.002,0.104-0.002,0.16,0.002l0.014,0.002
					c0.031,0.002,0.063,0.004,0.092,0.009c0.004,0,0.01,0.001,0.014,0.001c0.057,0.07,0.109,0.155,0.156,0.247
					c0.029,0.061,0.053,0.122,0.068,0.183c-0.086,0.019-0.166,0.044-0.24,0.075c-0.002,0.001-0.004,0.002-0.01,0.005
					c-0.004,0.002-0.01,0.004-0.014,0.007l-0.016,0.007c-0.004,0.002-0.006,0.003-0.01,0.005c-0.033,0.017-0.053,0.028-0.053,0.028
					c0,0.001-0.002,0.001-0.002,0.002c-0.033,0.021-0.063,0.042-0.088,0.063c-0.107,0.092-0.168,0.182-0.189,0.282
					c-0.008,0.029-0.012,0.068-0.01,0.097c0.002,0.08,0.033,0.145,0.094,0.198c0.014,0.012,0.102,0.079,0.234,0.063
					c0,0,0.012-0.002,0.014-0.003c0.008-0.001,0.016-0.003,0.02-0.004c0.002,0,0.004,0,0.006-0.001
					c0.02-0.004,0.039-0.012,0.066-0.023c0.225-0.104,0.346-0.382,0.314-0.727c0.148-0.021,0.279-0.02,0.406,0.001
					c0,0.005,0,0.009,0,0.013l-0.002,0.007c0,0.001,0,0.007,0,0.007c-0.006,0.086,0,0.174,0.018,0.263
					c0.045,0.228,0.166,0.393,0.33,0.455c0.129,0.048,0.26,0.023,0.338-0.063c0.053-0.057,0.076-0.137,0.068-0.225
					c-0.043-0.321-0.404-0.459-0.557-0.503c-0.023-0.006-0.045-0.011-0.068-0.017c0.023-0.091,0.051-0.161,0.063-0.187
					c0.043-0.088,0.092-0.167,0.148-0.237c0.004-0.002,0.006-0.006,0.008-0.009c0.002-0.001,0.002-0.002,0.002-0.002l0.023-0.002
					c0.002-0.001,0.002-0.001,0.004-0.001c0.01-0.002,0.02-0.003,0.035-0.005h0.008c0.002,0,0.004-0.001,0.006-0.001
					c0.012-0.002,0.02-0.002,0.029-0.003l0.021-0.002c0.166-0.013,0.33,0.009,0.516,0.063c0.355,0.105,0.641,0.288,0.918,0.465
					c0.006,0.004,0.59,0.378,0.957,0.542c0.313,0.135,0.635,0.215,0.986,0.243c0.09,0.007,0.18,0.011,0.27,0.011
					c0.424,0,0.773-0.079,0.982-0.222c0.102-0.07,0.176-0.153,0.219-0.247c0.018-0.043,0.033-0.091,0.037-0.129
					c0.025-0.194-0.061-0.308-0.16-0.399c0.039-0.077,0.037-0.163-0.008-0.249c0-0.005-0.002-0.008-0.006-0.012v-0.001
					c-0.004-0.009-0.008-0.016-0.014-0.022c0-0.003-0.002-0.005-0.004-0.007c-0.053-0.077-0.145-0.143-0.248-0.177
					c-0.012-0.004-0.023-0.008-0.035-0.011c0.088-0.063,0.176-0.09,0.275-0.09c0.188,0,0.303,0.115,0.426,0.235
					c0.023,0.022,0.047,0.045,0.07,0.067c0.193,0.172,0.439,0.348,0.793,0.348c0.182,0,0.365-0.074,0.477-0.191
					c0.016,0.001,0.031,0.001,0.047,0.001c0.219,0,0.41-0.144,0.551-0.27c0.133-0.115,0.291-0.234,0.477-0.234
					c0.158,0,0.277,0.076,0.277,0.177c0,0.108-0.135,0.176-0.26,0.176c-0.115,0-0.154-0.045-0.186-0.133
					c-0.023-0.066-0.078-0.072-0.096-0.072c-0.008,0-0.014,0-0.02,0.001c-0.01,0.001-0.016,0.007-0.02,0.015
					C-24.992-18.825-25-18.801-25-18.774c0,0.096,0.133,0.199,0.33,0.199c0.191,0,0.342-0.111,0.342-0.252
					C-24.328-18.969-24.483-19.08-24.68-19.08"/>
			</g>
			<g id="g140" transform="translate(174.7439,54.3968)">
				<path id="path142" inkscape:connector-curvature="0" fill="#211D1D" d="M-152.157-41.109c0.105-0.102,0.148-0.183,0.148-0.248
					c0-0.083-0.031-0.099-0.064-0.099c-0.01-0.073,0.049-0.136,0.115-0.136c0.084,0,0.129,0.054,0.129,0.144
					c0,0.11-0.098,0.271-0.287,0.392L-152.157-41.109z"/>
			</g>
			<g id="g144" transform="translate(20.6179,51.5252)">
				<path id="path146" inkscape:connector-curvature="0" fill="#211D1D" d="M-16.912-37.886c0.045-0.044,0.1-0.122,0.1-0.246
					c0-0.166-0.111-0.263-0.252-0.261l-0.109,0.002c0,0.061,0,0.144-0.002,0.24c-0.002,0.081-0.008,0.165-0.008,0.25h0.119
					C-17.015-37.9-16.965-37.894-16.912-37.886 M-17.185-37.797c-0.002,0.244-0.002,0.488,0.004,0.664h0.145
					c0.225,0,0.314-0.138,0.314-0.272c0-0.254-0.16-0.378-0.367-0.387L-17.185-37.797z M-17.41-37.178v-1.039
					c0-0.179-0.035-0.213-0.059-0.25l0.016-0.039l0.398-0.011c0.297-0.01,0.434,0.162,0.434,0.322c0,0.137-0.088,0.247-0.219,0.323
					c0.17,0.05,0.318,0.162,0.318,0.393c0,0.276-0.209,0.454-0.535,0.454h-0.355C-17.408-37.098-17.41-37.178-17.41-37.178"/>
			</g>
			<g id="g148" transform="translate(31.1384,44.4901)">
				<path id="path150" inkscape:connector-curvature="0" fill="#211D1D" d="M-26.145-29.989c0.004-0.074,0.006-0.153,0.006-1.197
					c0-0.178-0.033-0.21-0.059-0.248l0.016-0.038c0,0,0.068-0.029,0.156-0.029c0.039,0,0.084,0.007,0.127,0.026
					c-0.012,0.252-0.023,0.583-0.023,0.893c0,0.157,0,0.346,0.008,0.47h0.258c0.133,0,0.225-0.052,0.238-0.119h0.041
					c0.031,0.038,0.021,0.196-0.025,0.243H-26.145z"/>
			</g>
			<g id="g152" transform="translate(66.2747,45.3534)">
				<path id="path154" inkscape:connector-curvature="0" fill="#211D1D" d="M-56.977-30.958c0.217,0,0.379-0.264,0.379-0.586
					c0-0.371-0.199-0.678-0.432-0.678c-0.219,0-0.383,0.262-0.383,0.581C-57.412-31.291-57.221-30.958-56.977-30.958 M-56.951-32.36
					c0.326,0,0.6,0.255,0.6,0.74c-0.01,0.448-0.285,0.797-0.732,0.797c-0.281,0-0.572-0.257-0.572-0.745
					C-57.657-32.034-57.358-32.36-56.951-32.36"/>
			</g>
			<g id="g156" transform="translate(99.4143,46.1102)">
				<path id="path158" inkscape:connector-curvature="0" fill="#211D1D" d="M-86.056-31.807c0-0.024,0.01-0.05,0.025-0.074
					c0.018,0.065,0.193,0.145,0.334,0.145c0.133,0,0.281-0.045,0.281-0.208c0-0.301-0.635-0.364-0.635-0.776
					c0-0.195,0.143-0.402,0.418-0.402c0.184,0,0.293,0.065,0.354,0.102c0.016,0.054,0.02,0.188-0.037,0.245l-0.045-0.01
					c-0.051-0.159-0.209-0.216-0.297-0.216c-0.102,0-0.217,0.061-0.217,0.191c0,0.296,0.674,0.349,0.674,0.802
					c0,0.233-0.195,0.43-0.486,0.43C-85.882-31.58-86.056-31.69-86.056-31.807"/>
			</g>
			<g id="g160" transform="translate(134.2361,44.2372)">
				<path id="path162" inkscape:connector-curvature="0" fill="#211D1D" d="M-116.612-29.705c-0.309,0-0.531-0.104-0.543-0.501
					c-0.004-0.171-0.01-0.363-0.01-0.728c0-0.178-0.035-0.21-0.059-0.248l0.016-0.038c0,0,0.068-0.029,0.154-0.029
					c0.041,0,0.086,0.007,0.129,0.026c-0.012,0.279-0.012,0.651-0.012,0.986c0,0.331,0.211,0.381,0.344,0.381
					c0.225,0,0.385-0.138,0.396-0.302c0,0,0.01-0.072,0.01-0.781c0-0.133-0.021-0.198-0.059-0.243l0.016-0.038
					c0.021-0.016,0.068-0.027,0.111-0.027c0.041,0,0.082,0.009,0.104,0.024c-0.016,0.299-0.021,0.645-0.021,0.998
					C-116.036-29.934-116.245-29.705-116.612-29.705"/>
			</g>
			<g id="g164" transform="translate(48.6331,45.3534)">
				<path id="path166" inkscape:connector-curvature="0" fill="#211D1D" d="M-41.495-30.958c0.217,0,0.379-0.264,0.379-0.586
					c0-0.371-0.201-0.678-0.432-0.678c-0.219,0-0.383,0.262-0.383,0.581C-41.931-31.291-41.742-30.958-41.495-30.958 M-41.47-32.36
					c0.326,0,0.598,0.255,0.598,0.74c-0.008,0.448-0.285,0.797-0.73,0.797c-0.281,0-0.572-0.257-0.572-0.745
					C-42.175-32.034-41.876-32.36-41.47-32.36"/>
			</g>
			<g id="g168" transform="translate(84.6091,44.2704)">
				<path id="path170" inkscape:connector-curvature="0" fill="#211D1D" d="M-73.065-29.742c-0.109-0.021-0.15-0.122-0.164-0.172
					l-0.371-0.911c-0.016-0.041-0.035-0.122-0.037-0.131c0.002,0.032,0.004,0.11,0.004,0.148c-0.004,0.271-0.01,0.702-0.016,0.921
					c0,0.04,0.002,0.091,0.008,0.117h-0.164l0.006-0.036c0.025-0.498,0.045-1.137,0.049-1.323c-0.031-0.059-0.055-0.081-0.061-0.086
					l0.014-0.038c0.039-0.014,0.094-0.029,0.156-0.029c0.055,0,0.109,0.011,0.143,0.033c0.059,0.232,0.395,1.045,0.496,1.259
					c0.418-1.071,0.447-1.146,0.461-1.182c0.033-0.086,0.158-0.088,0.301-0.102c-0.006,0.119-0.002,0.14-0.006,0.369
					c-0.008,0.342,0.004,0.738,0.014,1.002c0.002,0.04,0.006,0.097,0.016,0.133h-0.248l0.002-0.135
					c0.008-0.405-0.004-0.708-0.008-0.916c0-0.038-0.006-0.11-0.006-0.136l-0.047,0.146l-0.385,0.896l-0.061,0.191L-73.065-29.742z"
					/>
			</g>
			<g id="g172" transform="translate(118.4714,51.5252)">
				<path id="path174" inkscape:connector-curvature="0" fill="#211D1D" d="M-102.779-37.886c0.045-0.044,0.102-0.122,0.102-0.246
					c0-0.166-0.113-0.263-0.252-0.261l-0.111,0.002c0,0.061,0,0.144,0,0.24c-0.004,0.081-0.008,0.165-0.008,0.25h0.119
					C-102.883-37.9-102.83-37.894-102.779-37.886 M-103.05-37.797c-0.002,0.244-0.002,0.489,0.004,0.664h0.145
					c0.225,0,0.316-0.138,0.316-0.272c0-0.254-0.164-0.378-0.371-0.387L-103.05-37.797z M-103.275-37.178v-1.039
					c0-0.179-0.035-0.213-0.059-0.25l0.016-0.039l0.398-0.011c0.297-0.01,0.434,0.162,0.434,0.322c0,0.137-0.086,0.247-0.219,0.323
					c0.168,0.05,0.318,0.162,0.318,0.393c0,0.276-0.209,0.454-0.535,0.454h-0.357C-103.273-37.098-103.275-37.178-103.275-37.178"/>
			</g>
			<g id="g176" transform="translate(153.4558,52.535)">
				<path id="path178" inkscape:connector-curvature="0" fill="#211D1D" d="M-133.476-39.019c0-0.291-0.191-0.388-0.332-0.383
					l-0.121,0.004c-0.008,0.081-0.008,0.398-0.008,0.602v0.066c0.033,0.017,0.07,0.021,0.143,0.021
					C-133.621-38.71-133.476-38.829-133.476-39.019 M-134.162-38.034v-0.036c0-0.196,0.006-0.389,0.004-0.563
					c0-0.381,0.02-0.743-0.063-0.844l0.016-0.039c0.416-0.011,0.422-0.011,0.432-0.011c0.225,0,0.496,0.09,0.496,0.457
					c0,0.199-0.125,0.359-0.311,0.43c0.055,0.027,0.455,0.559,0.518,0.605h-0.303c-0.082-0.164-0.299-0.4-0.443-0.563
					c-0.041,0-0.08-0.004-0.121-0.013c0.006,0.228,0.012,0.508,0.021,0.576H-134.162z"/>
			</g>
			<g id="g180" transform="translate(165.6726,44.4901)">
				<path id="path182" inkscape:connector-curvature="0" fill="#211D1D" d="M-144.197-29.989v-0.036
					c0-0.166,0.002-0.293,0.002-0.385c0-0.144,0-0.218-0.002-0.257c-0.012-0.014-0.025-0.032-0.047-0.069l-0.217-0.379
					c-0.127-0.227-0.141-0.286-0.221-0.317l0.016-0.038c0.039-0.018,0.1-0.031,0.158-0.031c0.055,0,0.105,0.011,0.133,0.04
					c0.072,0.179,0.254,0.522,0.326,0.64c0,0,0.014-0.041,0.039-0.084l0.186-0.33c0.037-0.065,0.041-0.135,0.002-0.196l0.016-0.038
					c0.045-0.021,0.09-0.031,0.127-0.031s0.078,0.011,0.119,0.031c0,0.055-0.076,0.225-0.131,0.309l-0.277,0.445
					c0,0.088-0.002,0.214-0.002,0.341c0,0.149,0.006,0.299,0.018,0.387H-144.197z"/>
			</g>
			<g id="g184" transform="translate(180.655,46.1102)">
				<path id="path186" inkscape:connector-curvature="0" fill="#211D1D" d="M-157.344-31.807c0-0.024,0.008-0.05,0.025-0.074
					c0.018,0.065,0.191,0.145,0.334,0.145c0.133,0,0.281-0.045,0.281-0.208c0-0.301-0.635-0.364-0.635-0.776
					c0-0.195,0.143-0.402,0.416-0.402c0.186,0,0.293,0.065,0.354,0.102c0.016,0.054,0.02,0.188-0.037,0.245l-0.043-0.009
					c-0.053-0.16-0.211-0.217-0.297-0.217c-0.102,0-0.221,0.062-0.221,0.191c0,0.296,0.676,0.35,0.676,0.802
					c0,0.234-0.193,0.43-0.486,0.43C-157.17-31.58-157.344-31.69-157.344-31.807"/>
			</g>
			<g id="g188" transform="translate(188.239,61.7289)">
				<path id="path190" inkscape:connector-curvature="0" fill="#231F20" d="M-164-49.339h0.311v0.066h-0.115v0.314h-0.08v-0.314
					H-164V-49.339z"/>
			</g>
			<g id="g192" transform="translate(191.1238,61.7289)">
				<path id="path194" inkscape:connector-curvature="0" fill="#231F20" d="M-166.531-49.339h0.117l0.068,0.3h0.002l0.066-0.3h0.117
					v0.381h-0.074v-0.319l-0.002,0.001l-0.07,0.318h-0.078l-0.07-0.318h-0.002v0.318h-0.074V-49.339L-166.531-49.339z"/>
			</g>
		</g>
	</g>
</g>
</svg>
