<?xml version="1.0" encoding="utf-8"?>
<!-- Generator: Adobe Illustrator 16.0.0, SVG Export Plug-In . SVG Version: 6.00 Build 0)  -->
<!DOCTYPE svg PUBLIC "-//W3C//DTD SVG 1.1//EN" "http://www.w3.org/Graphics/SVG/1.1/DTD/svg11.dtd">
<svg version="1.1" id="Layer_1" xmlns="http://www.w3.org/2000/svg" xmlns:xlink="http://www.w3.org/1999/xlink" x="0px" y="0px"
	 width="28.112px" height="49.567px" viewBox="0 0 28.112 49.567" enable-background="new 0 0 28.112 49.567" xml:space="preserve">
<pattern  x="-555.442" y="462.802" width="1024" height="2332.091" patternUnits="userSpaceOnUse" id="Unnamed_Pattern" viewBox="0 -2332.091 1024 2332.091" overflow="visible">
	<g>
		<polygon fill="none" points="0,0 1024,0 1024,-2332.091 0,-2332.091 		"/>
		<g>
			<defs>
				<rect id="SVGID_1_" y="-2332.091" width="1024" height="2332.091"/>
			</defs>
			<clipPath id="SVGID_2_">
				<use xlink:href="#SVGID_1_"  overflow="visible"/>
			</clipPath>
			<path clip-path="url(#SVGID_2_)" fill-rule="evenodd" clip-rule="evenodd" fill="#F6901E" d="M569.498-462.802
				c-7.763,0-14.056,6.293-14.056,14.056c0,6.698,4.684,12.301,10.955,13.713c0.801,0.181,0.747,0.773,0.841,1.61l2.26,20.188
				l2.229-19.9c0.091-0.81,0.061-1.718,0.822-1.887c6.297-1.394,11.006-7.009,11.006-13.725
				C583.555-456.509,577.262-462.802,569.498-462.802"/>
			<path clip-path="url(#SVGID_2_)" fill-rule="evenodd" clip-rule="evenodd" fill="#FFFFFF" d="M569.498-436.392
				c6.805,0,12.354-5.55,12.354-12.354c0-6.805-5.55-12.354-12.354-12.354c-6.804,0-12.354,5.55-12.354,12.354
				C557.145-441.941,562.694-436.392,569.498-436.392"/>
			<path clip-path="url(#SVGID_2_)" fill="#221F1F" d="M560.898-449.729c-0.104-0.141-0.177-0.207-0.272-0.258
				c-0.093-0.052-0.207-0.08-0.32-0.08c-0.237,0-0.409,0.117-0.409,0.283c0,0.134,0.078,0.193,0.33,0.251l0.334,0.079
				c0.24,0.059,0.396,0.124,0.503,0.214c0.138,0.117,0.21,0.282,0.21,0.478c0,0.441-0.379,0.737-0.938,0.737
				c-0.309,0-0.581-0.079-0.773-0.23c-0.098-0.072-0.142-0.12-0.245-0.259l0.365-0.258c0.097,0.142,0.189,0.225,0.323,0.282
				c0.107,0.049,0.248,0.076,0.375,0.076c0.262,0,0.432-0.124,0.432-0.313c0-0.154-0.107-0.24-0.383-0.3l-0.3-0.064
				c-0.479-0.104-0.685-0.301-0.685-0.654c0-0.42,0.351-0.71,0.868-0.71c0.277,0,0.516,0.079,0.719,0.245
				c0.076,0.064,0.114,0.103,0.217,0.22L560.898-449.729z"/>
			<path clip-path="url(#SVGID_2_)" fill="#221F1F" d="M562.112-448.861h0.441c0.223,0,0.361-0.033,0.499-0.127
				c0.213-0.141,0.334-0.372,0.334-0.641c0-0.471-0.324-0.757-0.861-0.757h-0.837v2.293h0.424V-448.861z M562.112-449.229v-0.793
				h0.375c0.311,0,0.451,0.121,0.451,0.375c0,0.283-0.158,0.418-0.484,0.418H562.112z"/>
			<path clip-path="url(#SVGID_2_)" fill="#221F1F" d="M564.182-448.943h0.424l0.453,0.85h0.477l-0.503-0.919
				c0.114-0.052,0.155-0.079,0.22-0.131c0.155-0.124,0.238-0.303,0.238-0.509c0-0.169-0.063-0.348-0.165-0.475
				c-0.149-0.184-0.355-0.26-0.693-0.26h-0.874v2.293h0.424V-448.943z M564.182-449.309v-0.713h0.416
				c0.282,0,0.444,0.128,0.444,0.348c0,0.231-0.165,0.365-0.454,0.365H564.182z"/>
			<polygon clip-path="url(#SVGID_2_)" fill="#221F1F" points="566.473,-448.093 566.05,-448.093 566.05,-450.386 566.473,-450.386 
							"/>
			<polygon clip-path="url(#SVGID_2_)" fill="#221F1F" points="568.871,-448.093 568.489,-448.093 567.511,-449.663 
				567.511,-448.093 567.112,-448.093 567.112,-450.386 567.516,-450.386 568.468,-448.837 568.468,-450.386 568.871,-450.386 			
				"/>
			<path clip-path="url(#SVGID_2_)" fill="#221F1F" d="M571.446-448.093h-0.365v-0.196c-0.097,0.082-0.131,0.11-0.196,0.148
				c-0.131,0.071-0.296,0.116-0.458,0.116c-0.616,0-1.063-0.506-1.063-1.201c0-0.72,0.458-1.229,1.104-1.229
				c0.29,0,0.558,0.11,0.744,0.3c0.1,0.106,0.144,0.175,0.22,0.361l-0.396,0.165c-0.11-0.302-0.296-0.447-0.578-0.447
				c-0.386,0-0.637,0.324-0.637,0.823c0,0.509,0.255,0.83,0.653,0.83c0.334,0,0.544-0.2,0.578-0.548h-0.571v-0.372h0.965V-448.093z"
				/>
			<polygon clip-path="url(#SVGID_2_)" fill="#221F1F" points="573.566,-450.008 572.43,-450.008 572.43,-449.43 573.407,-449.43 
				573.407,-449.064 572.43,-449.064 572.43,-448.094 572.006,-448.094 572.006,-450.387 573.566,-450.387 			"/>
			<polygon clip-path="url(#SVGID_2_)" fill="#221F1F" points="574.384,-448.093 573.961,-448.093 573.961,-450.386 
				574.384,-450.386 			"/>
			<polygon clip-path="url(#SVGID_2_)" fill="#221F1F" points="576.604,-450.008 575.399,-450.008 575.399,-449.463 
				576.509,-449.463 576.509,-449.099 575.399,-449.099 575.399,-448.472 576.7,-448.472 576.7,-448.094 574.977,-448.094 
				574.977,-450.387 576.604,-450.387 			"/>
			<polygon clip-path="url(#SVGID_2_)" fill="#221F1F" points="577.555,-448.472 578.501,-448.472 578.501,-448.093 
				577.13,-448.093 577.13,-450.386 577.555,-450.386 			"/>
			<path clip-path="url(#SVGID_2_)" fill="#221F1F" d="M578.841-448.093h0.703c0.282,0,0.492-0.038,0.665-0.124
				c0.326-0.162,0.512-0.531,0.512-1.009c0-0.341-0.086-0.62-0.258-0.823c-0.072-0.086-0.158-0.159-0.254-0.21
				c-0.176-0.097-0.342-0.127-0.665-0.127h-0.703V-448.093z M579.265-448.472v-1.536h0.241c0.544,0,0.754,0.214,0.754,0.765
				c0,0.23-0.031,0.399-0.103,0.53c-0.098,0.18-0.266,0.241-0.651,0.241H579.265z"/>
			<path clip-path="url(#SVGID_2_)" fill="#FFFFFF" d="M291.722-382.833c-1.1,0-2,0.899-2,2v53c0,1.1,0.9,2,2,2h379.5v-57H291.722z"
				/>
		</g>
		<g>
			<defs>
				<rect id="SVGID_3_" y="-2332.091" width="1024" height="2332.091"/>
			</defs>
			<clipPath id="SVGID_4_">
				<use xlink:href="#SVGID_3_"  overflow="visible"/>
			</clipPath>
			<polygon clip-path="url(#SVGID_4_)" fill="#606060" points="613.308,-351.69 610.723,-356 608.137,-351.69 			"/>
			<polygon clip-path="url(#SVGID_4_)" fill="#606060" points="608.137,-350 610.722,-345.691 613.308,-350 			"/>
			<polygon clip-path="url(#SVGID_4_)" fill="#606060" points="455.307,-351.69 452.722,-356 450.136,-351.69 			"/>
			<polygon clip-path="url(#SVGID_4_)" fill="#606060" points="450.137,-350 452.722,-345.691 455.308,-350 			"/>
			<g clip-path="url(#SVGID_4_)">
				<defs>
					<rect id="SVGID_5_" x="697.433" y="-356.423" width="10.823" height="10.823"/>
				</defs>
				<clipPath id="SVGID_6_">
					<use xlink:href="#SVGID_5_"  overflow="visible"/>
				</clipPath>
				<g clip-path="url(#SVGID_6_)">
					<defs>
						<rect id="SVGID_7_" x="697.433" y="-356.423" width="10.823" height="10.823"/>
					</defs>
					<clipPath id="SVGID_8_">
						<use xlink:href="#SVGID_7_"  overflow="visible"/>
					</clipPath>
					<path clip-path="url(#SVGID_8_)" fill="#FFFFFF" d="M705.492-349.896c0.38-0.644,0.6-1.395,0.6-2.198
						c0-2.391-1.938-4.329-4.33-4.329c-2.39,0-4.329,1.938-4.329,4.329c0,2.392,1.939,4.329,4.329,4.329
						c0.804,0,1.555-0.22,2.199-0.6l2.446,2.447c0.424,0.424,1.109,0.424,1.531,0c0.424-0.423,0.424-1.108,0-1.53L705.492-349.896z
						 M705.009-352.095c0,1.79-1.458,3.247-3.247,3.247c-1.79,0-3.245-1.457-3.245-3.247s1.455-3.247,3.245-3.247
						C703.551-355.342,705.009-353.885,705.009-352.095"/>
				</g>
			</g>
			<path clip-path="url(#SVGID_4_)" fill="#FFFFFF" d="M616.022-499.041h-95.45c-0.535,0-0.973,0.438-0.973,0.974v27.771
				c0,0.535,0.438,0.974,0.973,0.974h44.722L568.33-464l3.082-5.323h44.61c0.535,0,0.973-0.438,0.973-0.974v-27.771
				C616.995-498.603,616.558-499.041,616.022-499.041"/>
			<path clip-path="url(#SVGID_4_)" fill="#8C6239" d="M554.822-472.798h-29.525c-1.101,0-2-0.899-2-2v-19.354c0-1.1,0.899-2,2-2
				h29.525c1.1,0,2,0.9,2,2v19.354C556.822-473.697,555.922-472.798,554.822-472.798"/>
			<path clip-path="url(#SVGID_4_)" fill="none" stroke="#F6901E" stroke-width="0.25" stroke-miterlimit="10" d="M614.213-495.187
				c0,1.009-0.818,1.827-1.827,1.827s-1.827-0.818-1.827-1.827s0.818-1.827,1.827-1.827S614.213-496.195,614.213-495.187z"/>
			
				<line clip-path="url(#SVGID_4_)" fill="none" stroke="#F6901E" stroke-width="0.25" stroke-miterlimit="10" x1="611.022" y1="-496.402" x2="613.739" y2="-493.959"/>
			
				<line clip-path="url(#SVGID_4_)" fill="none" stroke="#F6901E" stroke-width="0.25" stroke-miterlimit="10" x1="613.739" y1="-496.402" x2="611.021" y2="-493.959"/>
		</g>
		<text transform="matrix(1 0 0 1 559.9648 -489.1094)"><tspan x="0" y="0" fill="#606060" font-family="'Roboto-Light'" font-size="3">Lo</tspan><tspan x="3.261" y="0" fill="#606060" font-family="'Roboto-Light'" font-size="3">r</tspan><tspan x="4.243" y="0" fill="#606060" font-family="'Roboto-Light'" font-size="3">em Ipsum is simply </tspan></text>
		<text transform="matrix(1 0 0 1 559.9648 -485.5098)" fill="#606060" font-family="'Roboto-Light'" font-size="3">dummy text of the printing</text>
		<text transform="matrix(1 0 0 1 559.9648 -481.9092)"><tspan x="0" y="0" fill="#606060" font-family="'Roboto-Light'" font-size="3">Lo</tspan><tspan x="3.261" y="0" fill="#606060" font-family="'Roboto-Light'" font-size="3">r</tspan><tspan x="4.243" y="0" fill="#606060" font-family="'Roboto-Light'" font-size="3">em Ipsum is simply </tspan></text>
		<text transform="matrix(1 0 0 1 559.9648 -478.3096)" fill="#606060" font-family="'Roboto-Light'" font-size="3">dummy text of the printing</text>
	</g>
</pattern>
<g id="Layer_2">
	<g id="Layer_3">
		<path fill-rule="evenodd" clip-rule="evenodd" fill="url(#Unnamed_Pattern)" d="M14.056,0C6.293,0,0,6.293,0,14.056
			c0,6.698,4.684,12.301,10.955,13.713c0.801,0.181,0.747,0.773,0.841,1.61l2.26,20.188l2.229-19.9
			c0.091-0.81,0.061-1.718,0.822-1.887c6.297-1.394,11.006-7.009,11.006-13.725C28.112,6.293,21.819,0,14.056,0"/>
		<circle fill-rule="evenodd" clip-rule="evenodd" fill="#FFFFFF" cx="14.056" cy="14.083" r="12.344"/>
		<g>
			<path fill="#7C2F1B" d="M8.028,15.932H7.866v-0.278h0.813c0.332,0,0.564,0.232,0.564,0.578c0,0.344-0.232,0.585-0.564,0.585
				H8.356v0.611H8.028V15.932z M8.62,16.536c0.184,0,0.289-0.12,0.289-0.305c0-0.183-0.105-0.3-0.285-0.3H8.356v0.604H8.62z"/>
			<path fill="#7C2F1B" d="M9.317,17.15h0.039c0.043,0,0.063-0.01,0.078-0.055l0.527-1.442h0.342l0.525,1.442
				c0.014,0.045,0.035,0.055,0.078,0.055h0.039v0.277h-0.195c-0.125,0-0.17-0.032-0.209-0.145l-0.111-0.31h-0.6l-0.109,0.31
				c-0.041,0.112-0.082,0.145-0.207,0.145H9.317V17.15z M10.356,16.703l-0.152-0.445c-0.033-0.098-0.07-0.265-0.07-0.265H10.13
				c0,0-0.039,0.167-0.07,0.265l-0.154,0.445H10.356z"/>
			<path fill="#7C2F1B" d="M11.296,17.151h0.107c0.035,0,0.055-0.021,0.055-0.056v-1.442h0.295l0.674,0.982
				c0.068,0.103,0.146,0.25,0.146,0.25h0.006c0,0-0.018-0.147-0.018-0.25v-0.813c0-0.117,0.051-0.17,0.17-0.17h0.318v0.277h-0.105
				c-0.035,0-0.057,0.02-0.057,0.055v1.442h-0.291l-0.676-0.979c-0.07-0.1-0.146-0.25-0.146-0.25h-0.006c0,0,0.018,0.147,0.018,0.25
				v0.81c0,0.12-0.051,0.17-0.17,0.17h-0.32V17.151z"/>
			<path fill="#7C2F1B" d="M14.224,15.623c0.227,0,0.672,0.096,0.672,0.397v0.197h-0.297v-0.1c0-0.131-0.213-0.19-0.367-0.19
				c-0.318,0-0.568,0.228-0.568,0.598c0,0.348,0.256,0.628,0.578,0.628c0.334,0,0.537-0.234,0.537-0.234l0.172,0.234
				c0,0-0.256,0.306-0.715,0.306c-0.541,0-0.912-0.408-0.912-0.934C13.323,16.013,13.708,15.623,14.224,15.623"/>
			<path fill="#7C2F1B" d="M15.235,17.15h0.041c0.043,0,0.063-0.01,0.076-0.055l0.529-1.442h0.342l0.525,1.442
				c0.014,0.045,0.035,0.055,0.076,0.055h0.041v0.277h-0.195c-0.125,0-0.17-0.032-0.209-0.145l-0.111-0.31h-0.6l-0.109,0.31
				c-0.041,0.112-0.084,0.145-0.209,0.145h-0.197V17.15z M16.276,16.703l-0.152-0.445c-0.033-0.098-0.07-0.265-0.07-0.265h-0.006
				c0,0-0.037,0.167-0.07,0.265l-0.152,0.445H16.276z"/>
			<path fill="#7C2F1B" d="M17.329,15.985c0-0.035-0.021-0.055-0.057-0.055h-0.107v-0.277h0.32c0.121,0,0.17,0.053,0.17,0.17v0.553
				h0.127c0.063,0,0.111-0.006,0.141-0.058l0.357-0.665h0.359l-0.398,0.73c-0.055,0.1-0.113,0.13-0.113,0.13v0.005
				c0,0,0.061,0.015,0.115,0.122l0.225,0.452c0.025,0.053,0.068,0.059,0.125,0.059h0.047v0.276h-0.186
				c-0.133,0-0.191-0.018-0.248-0.132l-0.291-0.583c-0.029-0.057-0.084-0.061-0.154-0.061h-0.105v0.775h-0.326V15.985z"/>
			<path fill="#7C2F1B" d="M19.101,15.931h-0.162v-0.277h1.072c0.117,0,0.17,0.053,0.17,0.17v0.271h-0.297v-0.108
				c0-0.035-0.021-0.055-0.055-0.055h-0.4v0.465h0.574v0.277h-0.574v0.423c0,0.035,0.02,0.056,0.055,0.056h0.41
				c0.035,0,0.055-0.021,0.055-0.056v-0.107h0.297v0.27c0,0.12-0.053,0.17-0.17,0.17h-0.805c-0.121,0-0.17-0.05-0.17-0.17V15.931z"
				/>
			<path fill="#7C2F1B" d="M9.722,18.485c0-0.035-0.02-0.055-0.055-0.055H9.56v-0.278h0.318c0.121,0,0.172,0.054,0.172,0.171v0.582
				h0.781v-0.582c0-0.117,0.053-0.171,0.17-0.171h0.32v0.278h-0.107c-0.035,0-0.055,0.02-0.055,0.055v1.442h-0.328v-0.744H10.05
				v0.744H9.722V18.485z"/>
			<path fill="#7C2F1B" d="M12.536,18.123c0.521,0,0.918,0.397,0.918,0.905c0,0.522-0.396,0.93-0.918,0.93
				c-0.523,0-0.918-0.407-0.918-0.93C11.618,18.521,12.013,18.123,12.536,18.123 M12.536,19.653c0.32,0,0.578-0.271,0.578-0.625
				c0-0.34-0.258-0.601-0.578-0.601s-0.578,0.261-0.578,0.601C11.958,19.383,12.216,19.653,12.536,19.653"/>
			<path fill="#7C2F1B" d="M13.868,18.485c0-0.035-0.02-0.055-0.055-0.055h-0.107v-0.278h0.32c0.119,0,0.17,0.054,0.17,0.171v0.963
				c0,0.231,0.148,0.367,0.369,0.367c0.223,0,0.371-0.136,0.371-0.37v-0.96c0-0.117,0.049-0.171,0.17-0.171h0.32v0.278h-0.107
				c-0.035,0-0.057,0.02-0.057,0.055v0.81c0,0.393-0.277,0.663-0.693,0.663c-0.424,0-0.701-0.271-0.701-0.663V18.485z"/>
			<path fill="#7C2F1B" d="M15.919,19.453c0,0,0.182,0.21,0.43,0.21c0.135,0,0.254-0.072,0.254-0.21c0-0.303-0.834-0.277-0.834-0.83
				c0-0.287,0.25-0.5,0.592-0.5c0.209,0,0.527,0.098,0.527,0.35v0.165h-0.295v-0.08c0-0.082-0.117-0.137-0.234-0.137
				c-0.15,0-0.26,0.077-0.26,0.189c0,0.302,0.834,0.242,0.834,0.825c0,0.282-0.217,0.522-0.59,0.522
				c-0.393,0-0.609-0.275-0.609-0.275L15.919,19.453z"/>
			<path fill="#7C2F1B" d="M17.411,18.431h-0.162v-0.278h1.072c0.117,0,0.17,0.053,0.17,0.171v0.27h-0.299v-0.107
				c0-0.035-0.02-0.055-0.055-0.055h-0.398v0.465h0.574v0.278h-0.574v0.422c0,0.035,0.02,0.055,0.055,0.055h0.408
				c0.035,0,0.057-0.02,0.057-0.055v-0.107h0.297v0.27c0,0.121-0.053,0.17-0.17,0.17h-0.805c-0.121,0-0.17-0.049-0.17-0.17V18.431z"
				/>
			<path fill="#F26724" d="M10.882,21.225c0,0,0.072,0.084,0.172,0.084c0.055,0,0.102-0.028,0.102-0.084
				c0-0.12-0.334-0.11-0.334-0.332c0-0.114,0.102-0.199,0.238-0.199c0.082,0,0.211,0.038,0.211,0.14v0.065h-0.119v-0.031
				c0-0.033-0.047-0.056-0.094-0.056c-0.061,0-0.104,0.031-0.104,0.076c0,0.121,0.334,0.098,0.334,0.33
				c0,0.113-0.088,0.209-0.236,0.209c-0.156,0-0.244-0.11-0.244-0.11L10.882,21.225z"/>
			<path fill="#F26724" d="M11.601,21.035c0-0.016-0.008-0.022-0.021-0.022h-0.041v-0.107h0.123c0.047,0,0.066,0.021,0.066,0.067
				v0.313c0,0.014,0.008,0.021,0.021,0.021h0.039v0.107h-0.119c-0.049,0-0.068-0.021-0.068-0.068V21.035z M11.606,20.705h0.109
				v0.117h-0.109V20.705z"/>
			<path fill="#F26724" d="M12.087,21.035c0-0.016-0.008-0.022-0.023-0.022h-0.039v-0.107h0.117c0.045,0,0.066,0.021,0.066,0.057
				v0.016c0,0.011-0.002,0.021-0.002,0.021h0.002c0.021-0.043,0.076-0.106,0.18-0.106c0.113,0,0.178,0.06,0.178,0.194v0.198
				c0,0.015,0.01,0.022,0.023,0.022h0.039v0.107h-0.121c-0.047,0-0.068-0.021-0.068-0.068v-0.234c0-0.062-0.016-0.104-0.08-0.104
				c-0.068,0-0.117,0.043-0.137,0.104c-0.006,0.021-0.01,0.045-0.01,0.068v0.234h-0.125V21.035z"/>
			<path fill="#F26724" d="M13.147,20.893c0.066,0,0.184,0.027,0.184,0.115v0.061H13.22v-0.029c0-0.027-0.041-0.039-0.072-0.039
				c-0.088,0-0.15,0.066-0.15,0.159c0,0.104,0.076,0.156,0.158,0.156c0.086,0,0.15-0.068,0.15-0.068l0.053,0.088
				c0,0-0.076,0.092-0.215,0.092c-0.168,0-0.275-0.119-0.275-0.267C12.868,21.016,12.972,20.893,13.147,20.893"/>
			<path fill="#F26724" d="M13.854,20.893c0.145,0,0.227,0.107,0.227,0.242c0,0.015-0.004,0.047-0.004,0.047h-0.352
				c0.01,0.09,0.076,0.138,0.152,0.138c0.082,0,0.143-0.058,0.143-0.058l0.053,0.088c0,0-0.076,0.077-0.205,0.077
				c-0.168,0-0.273-0.122-0.273-0.267C13.595,21.003,13.7,20.893,13.854,20.893 M13.95,21.094c-0.002-0.061-0.045-0.103-0.096-0.103
				c-0.064,0-0.111,0.038-0.125,0.103H13.95z"/>
			<path fill="#F26724" d="M14.829,21.304h0.152v-0.395c0-0.023,0.002-0.047,0.002-0.047h-0.002c0,0-0.008,0.017-0.031,0.039
				l-0.057,0.055l-0.076-0.08l0.178-0.171h0.117v0.599h0.154v0.111h-0.438V21.304z"/>
			<path fill="#F26724" d="M15.581,21.286c0,0,0.047,0.022,0.1,0.022c0.111,0,0.172-0.094,0.188-0.194h-0.002
				c-0.021,0.031-0.08,0.053-0.131,0.053c-0.141,0-0.227-0.109-0.227-0.236c0-0.131,0.092-0.237,0.232-0.237
				c0.148,0,0.275,0.119,0.275,0.329c0,0.189-0.107,0.404-0.328,0.404c-0.09,0-0.146-0.03-0.146-0.03L15.581,21.286z M15.88,20.983
				c0-0.089-0.064-0.172-0.139-0.172c-0.066,0-0.105,0.052-0.105,0.119c0,0.071,0.045,0.13,0.131,0.13
				C15.827,21.061,15.88,21.027,15.88,20.983"/>
			<path fill="#F26724" d="M16.567,20.881c0.023-0.044,0.043-0.064,0.043-0.064v-0.003c0,0-0.014,0.003-0.049,0.003H16.39
				c-0.014,0-0.021,0.008-0.021,0.021v0.043h-0.119v-0.108c0-0.047,0.016-0.067,0.063-0.067h0.443v0.09l-0.338,0.62h-0.143
				L16.567,20.881z"/>
			<path fill="#F26724" d="M16.915,21.153l0.295-0.448h0.152v0.42h0.109v0.111h-0.109v0.178h-0.131v-0.178h-0.316V21.153z
				 M17.233,20.928c0-0.035,0.006-0.077,0.006-0.077h-0.002c0,0-0.02,0.038-0.039,0.064l-0.111,0.164
				c-0.018,0.026-0.035,0.047-0.035,0.047v0.002c0,0,0.029-0.003,0.063-0.003h0.119V20.928z"/>
			<path fill="#F26724" d="M17.71,12.748c0,0.586-0.395,1.066-0.879,1.066h-5.396c-0.484,0-0.879-0.48-0.879-1.066V7.724
				c0-0.586,0.395-1.065,0.879-1.065h5.396c0.484,0,0.879,0.479,0.879,1.065V12.748z"/>
			<path fill="#FFC316" d="M16.882,10.522c-0.002-0.067-0.035-0.134-0.1-0.186L14.39,8.438c-0.137-0.108-0.355-0.108-0.49,0
				l-2.393,1.899c-0.043,0.033-0.07,0.073-0.086,0.115c-0.035,0.052-0.055,0.108-0.055,0.167v1.236c0,0.23,0.289,0.416,0.648,0.416
				h4.238c0.359,0,0.648-0.186,0.648-0.416v-1.236C16.901,10.586,16.894,10.553,16.882,10.522"/>
			<path fill="#7C2F1B" d="M16.337,10.624l-0.773-0.464V9.703c0-0.096-0.092-0.173-0.205-0.173s-0.207,0.077-0.207,0.173v0.21
				l-0.869-0.522c-0.117-0.069-0.305-0.069-0.422,0l-2.057,1.233c-0.115,0.07-0.115,0.184,0,0.253h0.369
				c-0.004,0.011-0.004,0.021-0.004,0.031v0.804c0,0.148,0.201,0.27,0.449,0.27h2.943c0.248,0,0.449-0.121,0.449-0.27v-0.804
				c0-0.011-0.002-0.021-0.004-0.031h0.33C16.454,10.808,16.454,10.694,16.337,10.624 M13.921,11.508l-1.223,0.048
				c-0.1,0.004-0.18-0.073-0.18-0.172v-0.279c0-0.098,0.072-0.213,0.162-0.254l1.217-0.568c0.088-0.041,0.164,0.005,0.168,0.104
				l0.029,0.937C14.097,11.421,14.019,11.504,13.921,11.508"/>
			<path fill="#FFFFFF" d="M15.181,7.875c0.141-0.1,0.195-0.054,0.121,0.103c0,0-0.121,0.259,0.326,0.462
				c0.412,0.188-0.223,1.067-0.223,1.067c-0.367-0.197,0.18-0.557-0.365-0.941C14.628,8.273,15.181,7.875,15.181,7.875"/>
		</g>
	</g>
</g>
</svg>
