<?xml version="1.0" encoding="utf-8"?>
<!-- Generator: Adobe Illustrator 16.0.0, SVG Export Plug-In . SVG Version: 6.00 Build 0)  -->
<!DOCTYPE svg PUBLIC "-//W3C//DTD SVG 1.1//EN" "http://www.w3.org/Graphics/SVG/1.1/DTD/svg11.dtd">
<svg version="1.1" id="Layer_1" xmlns="http://www.w3.org/2000/svg" xmlns:xlink="http://www.w3.org/1999/xlink" x="0px" y="0px"
	 width="28.112px" height="49.567px" viewBox="0 0 28.112 49.567" enable-background="new 0 0 28.112 49.567" xml:space="preserve">
<pattern  x="-555.442" y="462.802" width="1024" height="2332.091" patternUnits="userSpaceOnUse" id="Unnamed_Pattern" viewBox="0 -2332.091 1024 2332.091" overflow="visible">
	<g>
		<polygon fill="none" points="0,0 1024,0 1024,-2332.091 0,-2332.091 		"/>
		<g>
			<defs>
				<rect id="SVGID_1_" y="-2332.091" width="1024" height="2332.091"/>
			</defs>
			<clipPath id="SVGID_2_">
				<use xlink:href="#SVGID_1_"  overflow="visible"/>
			</clipPath>
			<path clip-path="url(#SVGID_2_)" fill-rule="evenodd" clip-rule="evenodd" fill="#F6901E" d="M569.498-462.802
				c-7.763,0-14.056,6.293-14.056,14.056c0,6.698,4.684,12.301,10.955,13.713c0.801,0.181,0.747,0.773,0.841,1.61l2.26,20.188
				l2.229-19.9c0.091-0.81,0.061-1.718,0.822-1.887c6.297-1.394,11.006-7.009,11.006-13.725
				C583.555-456.509,577.262-462.802,569.498-462.802"/>
			<path clip-path="url(#SVGID_2_)" fill-rule="evenodd" clip-rule="evenodd" fill="#FFFFFF" d="M569.498-436.392
				c6.805,0,12.354-5.55,12.354-12.354c0-6.805-5.55-12.354-12.354-12.354c-6.804,0-12.354,5.55-12.354,12.354
				C557.145-441.941,562.694-436.392,569.498-436.392"/>
			<path clip-path="url(#SVGID_2_)" fill="#221F1F" d="M560.898-449.729c-0.104-0.141-0.177-0.207-0.272-0.258
				c-0.093-0.052-0.207-0.08-0.32-0.08c-0.237,0-0.409,0.117-0.409,0.283c0,0.134,0.078,0.193,0.33,0.251l0.334,0.079
				c0.24,0.059,0.396,0.124,0.503,0.214c0.138,0.117,0.21,0.282,0.21,0.478c0,0.441-0.379,0.737-0.938,0.737
				c-0.309,0-0.581-0.079-0.773-0.23c-0.098-0.072-0.142-0.12-0.245-0.259l0.365-0.258c0.097,0.142,0.189,0.225,0.323,0.282
				c0.107,0.049,0.248,0.076,0.375,0.076c0.262,0,0.432-0.124,0.432-0.313c0-0.154-0.107-0.24-0.383-0.3l-0.3-0.064
				c-0.479-0.104-0.685-0.301-0.685-0.654c0-0.42,0.351-0.71,0.868-0.71c0.277,0,0.516,0.079,0.719,0.245
				c0.076,0.064,0.114,0.103,0.217,0.22L560.898-449.729z"/>
			<path clip-path="url(#SVGID_2_)" fill="#221F1F" d="M562.112-448.861h0.441c0.223,0,0.361-0.033,0.499-0.127
				c0.213-0.141,0.334-0.372,0.334-0.641c0-0.471-0.324-0.757-0.861-0.757h-0.837v2.293h0.424V-448.861z M562.112-449.229v-0.793
				h0.375c0.311,0,0.451,0.121,0.451,0.375c0,0.283-0.158,0.418-0.484,0.418H562.112z"/>
			<path clip-path="url(#SVGID_2_)" fill="#221F1F" d="M564.182-448.943h0.424l0.453,0.85h0.477l-0.503-0.919
				c0.114-0.052,0.155-0.079,0.22-0.131c0.155-0.124,0.238-0.303,0.238-0.509c0-0.169-0.063-0.348-0.165-0.475
				c-0.149-0.184-0.355-0.26-0.693-0.26h-0.874v2.293h0.424V-448.943z M564.182-449.309v-0.713h0.416
				c0.282,0,0.444,0.128,0.444,0.348c0,0.231-0.165,0.365-0.454,0.365H564.182z"/>
			<polygon clip-path="url(#SVGID_2_)" fill="#221F1F" points="566.473,-448.093 566.05,-448.093 566.05,-450.386 566.473,-450.386 
							"/>
			<polygon clip-path="url(#SVGID_2_)" fill="#221F1F" points="568.871,-448.093 568.489,-448.093 567.511,-449.663 
				567.511,-448.093 567.112,-448.093 567.112,-450.386 567.516,-450.386 568.468,-448.837 568.468,-450.386 568.871,-450.386 			
				"/>
			<path clip-path="url(#SVGID_2_)" fill="#221F1F" d="M571.446-448.093h-0.365v-0.196c-0.097,0.082-0.131,0.11-0.196,0.148
				c-0.131,0.071-0.296,0.116-0.458,0.116c-0.616,0-1.063-0.506-1.063-1.201c0-0.72,0.458-1.229,1.104-1.229
				c0.29,0,0.558,0.11,0.744,0.3c0.1,0.106,0.144,0.175,0.22,0.361l-0.396,0.165c-0.11-0.302-0.296-0.447-0.578-0.447
				c-0.386,0-0.637,0.324-0.637,0.823c0,0.509,0.255,0.83,0.653,0.83c0.334,0,0.544-0.2,0.578-0.548h-0.571v-0.372h0.965V-448.093z"
				/>
			<polygon clip-path="url(#SVGID_2_)" fill="#221F1F" points="573.566,-450.008 572.43,-450.008 572.43,-449.43 573.407,-449.43 
				573.407,-449.064 572.43,-449.064 572.43,-448.094 572.006,-448.094 572.006,-450.387 573.566,-450.387 			"/>
			<polygon clip-path="url(#SVGID_2_)" fill="#221F1F" points="574.384,-448.093 573.961,-448.093 573.961,-450.386 
				574.384,-450.386 			"/>
			<polygon clip-path="url(#SVGID_2_)" fill="#221F1F" points="576.604,-450.008 575.399,-450.008 575.399,-449.463 
				576.509,-449.463 576.509,-449.099 575.399,-449.099 575.399,-448.472 576.7,-448.472 576.7,-448.094 574.977,-448.094 
				574.977,-450.387 576.604,-450.387 			"/>
			<polygon clip-path="url(#SVGID_2_)" fill="#221F1F" points="577.555,-448.472 578.501,-448.472 578.501,-448.093 
				577.13,-448.093 577.13,-450.386 577.555,-450.386 			"/>
			<path clip-path="url(#SVGID_2_)" fill="#221F1F" d="M578.841-448.093h0.703c0.282,0,0.492-0.038,0.665-0.124
				c0.326-0.162,0.512-0.531,0.512-1.009c0-0.341-0.086-0.62-0.258-0.823c-0.072-0.086-0.158-0.159-0.254-0.21
				c-0.176-0.097-0.342-0.127-0.665-0.127h-0.703V-448.093z M579.265-448.472v-1.536h0.241c0.544,0,0.754,0.214,0.754,0.765
				c0,0.23-0.031,0.399-0.103,0.53c-0.098,0.18-0.266,0.241-0.651,0.241H579.265z"/>
			<path clip-path="url(#SVGID_2_)" fill="#FFFFFF" d="M291.722-382.833c-1.1,0-2,0.899-2,2v53c0,1.1,0.9,2,2,2h379.5v-57H291.722z"
				/>
		</g>
		<g>
			<defs>
				<rect id="SVGID_3_" y="-2332.091" width="1024" height="2332.091"/>
			</defs>
			<clipPath id="SVGID_4_">
				<use xlink:href="#SVGID_3_"  overflow="visible"/>
			</clipPath>
			<polygon clip-path="url(#SVGID_4_)" fill="#606060" points="613.308,-351.69 610.723,-356 608.137,-351.69 			"/>
			<polygon clip-path="url(#SVGID_4_)" fill="#606060" points="608.137,-350 610.722,-345.691 613.308,-350 			"/>
			<polygon clip-path="url(#SVGID_4_)" fill="#606060" points="455.307,-351.69 452.722,-356 450.136,-351.69 			"/>
			<polygon clip-path="url(#SVGID_4_)" fill="#606060" points="450.137,-350 452.722,-345.691 455.308,-350 			"/>
			<g clip-path="url(#SVGID_4_)">
				<defs>
					<rect id="SVGID_5_" x="697.433" y="-356.423" width="10.823" height="10.823"/>
				</defs>
				<clipPath id="SVGID_6_">
					<use xlink:href="#SVGID_5_"  overflow="visible"/>
				</clipPath>
				<g clip-path="url(#SVGID_6_)">
					<defs>
						<rect id="SVGID_7_" x="697.433" y="-356.423" width="10.823" height="10.823"/>
					</defs>
					<clipPath id="SVGID_8_">
						<use xlink:href="#SVGID_7_"  overflow="visible"/>
					</clipPath>
					<path clip-path="url(#SVGID_8_)" fill="#FFFFFF" d="M705.492-349.896c0.38-0.644,0.6-1.395,0.6-2.198
						c0-2.391-1.938-4.329-4.33-4.329c-2.39,0-4.329,1.938-4.329,4.329c0,2.392,1.939,4.329,4.329,4.329
						c0.804,0,1.555-0.22,2.199-0.6l2.446,2.447c0.424,0.424,1.109,0.424,1.531,0c0.424-0.423,0.424-1.108,0-1.53L705.492-349.896z
						 M705.009-352.095c0,1.79-1.458,3.247-3.247,3.247c-1.79,0-3.245-1.457-3.245-3.247s1.455-3.247,3.245-3.247
						C703.551-355.342,705.009-353.885,705.009-352.095"/>
				</g>
			</g>
			<path clip-path="url(#SVGID_4_)" fill="#FFFFFF" d="M616.022-499.041h-95.45c-0.535,0-0.973,0.438-0.973,0.974v27.771
				c0,0.535,0.438,0.974,0.973,0.974h44.722L568.33-464l3.082-5.323h44.61c0.535,0,0.973-0.438,0.973-0.974v-27.771
				C616.995-498.603,616.558-499.041,616.022-499.041"/>
			<path clip-path="url(#SVGID_4_)" fill="#8C6239" d="M554.822-472.798h-29.525c-1.101,0-2-0.899-2-2v-19.354c0-1.1,0.899-2,2-2
				h29.525c1.1,0,2,0.9,2,2v19.354C556.822-473.697,555.922-472.798,554.822-472.798"/>
			<path clip-path="url(#SVGID_4_)" fill="none" stroke="#F6901E" stroke-width="0.25" stroke-miterlimit="10" d="M614.213-495.187
				c0,1.009-0.818,1.827-1.827,1.827s-1.827-0.818-1.827-1.827s0.818-1.827,1.827-1.827S614.213-496.195,614.213-495.187z"/>
			
				<line clip-path="url(#SVGID_4_)" fill="none" stroke="#F6901E" stroke-width="0.25" stroke-miterlimit="10" x1="611.022" y1="-496.402" x2="613.739" y2="-493.959"/>
			
				<line clip-path="url(#SVGID_4_)" fill="none" stroke="#F6901E" stroke-width="0.25" stroke-miterlimit="10" x1="613.739" y1="-496.402" x2="611.021" y2="-493.959"/>
		</g>
		<text transform="matrix(1 0 0 1 559.9648 -489.1094)"><tspan x="0" y="0" fill="#606060" font-family="'Roboto-Light'" font-size="3">Lo</tspan><tspan x="3.261" y="0" fill="#606060" font-family="'Roboto-Light'" font-size="3">r</tspan><tspan x="4.243" y="0" fill="#606060" font-family="'Roboto-Light'" font-size="3">em Ipsum is simply </tspan></text>
		<text transform="matrix(1 0 0 1 559.9648 -485.5098)" fill="#606060" font-family="'Roboto-Light'" font-size="3">dummy text of the printing</text>
		<text transform="matrix(1 0 0 1 559.9648 -481.9092)"><tspan x="0" y="0" fill="#606060" font-family="'Roboto-Light'" font-size="3">Lo</tspan><tspan x="3.261" y="0" fill="#606060" font-family="'Roboto-Light'" font-size="3">r</tspan><tspan x="4.243" y="0" fill="#606060" font-family="'Roboto-Light'" font-size="3">em Ipsum is simply </tspan></text>
		<text transform="matrix(1 0 0 1 559.9648 -478.3096)" fill="#606060" font-family="'Roboto-Light'" font-size="3">dummy text of the printing</text>
	</g>
</pattern>
<g id="Layer_2">
	<g id="Layer_3">
		<path fill-rule="evenodd" clip-rule="evenodd" fill="url(#Unnamed_Pattern)" d="M14.056,0C6.293,0,0,6.293,0,14.056
			c0,6.698,4.684,12.301,10.955,13.713c0.801,0.181,0.747,0.773,0.841,1.61l2.26,20.188l2.229-19.9
			c0.091-0.81,0.061-1.718,0.822-1.887c6.297-1.394,11.006-7.009,11.006-13.725C28.112,6.293,21.819,0,14.056,0"/>
		<circle fill-rule="evenodd" clip-rule="evenodd" fill="#FFFFFF" cx="14.056" cy="14.083" r="12.344"/>
		<g>
			<polygon fill="#FFFFFF" points="15.569,12.904 15.569,12.904 15.569,12.904 			"/>
			<path fill="#0563AB" d="M18.325,12.182c-1.203-0.6-2.393-0.663-3.132-0.449c-1.367,0.397-1.791,2.074-0.525,2.896
				c0.077,0.05,0.029,0.154-0.066,0.322c-0.119,0.208-0.34,0.617-0.729,0.912c-0.234,0.179-0.386,0.252-0.193,0.472
				c0,0,0.428,0.463,0.744,0.598c0.382,0.161,0.478,0.135,0.762-0.123c0.179-0.161,0.532-0.603,0.959-1.305
				c0.222-0.365,0.518-0.372,0.478,0.229c0,0-0.059,0.579-0.074,0.698c-0.049,0.345-0.012,0.464,0.309,0.467
				c0,0,0.688-0.036,0.926-0.069c0.335-0.043,0.316-0.097,0.404-0.351c0.47-1.364,0.51-3.706,0.51-3.706
				C18.716,12.46,18.613,12.325,18.325,12.182 M17.446,13.444c0,0-0.426,0.281-0.437,0.289c-0.036,0.027-0.086,0.06-0.093,0.19
				c-0.003,0.055-0.019,0.44-0.02,0.487c-0.001,0.054-0.025,0.199-0.199,0.051c0,0-0.29-0.246-0.333-0.283
				c-0.01-0.007-0.109-0.115-0.265-0.052l-0.455,0.176c0,0-0.273,0.107-0.171-0.13c0.098-0.23,0.165-0.423,0.186-0.484
				c0.023-0.064,0.015-0.155-0.04-0.219c-0.025-0.029-0.243-0.307-0.294-0.376c0,0-0.179-0.206,0.12-0.192
				c0,0,0.51,0.011,0.519,0.013c0.008,0,0.104,0.007,0.172-0.098c0.085-0.127,0.331-0.427,0.28-0.363
				c0.043-0.052,0.143-0.183,0.209,0.034c0,0,0.094,0.284,0.138,0.404c0.03,0.08,0.05,0.136,0.202,0.183l0.469,0.163
				C17.435,13.237,17.654,13.303,17.446,13.444"/>
			<path fill="#F17F21" d="M8.442,13.997c-0.218-0.351-0.568-0.575-0.986-0.633c-0.532-0.073-1.049,0.139-1.346,0.548
				c-0.219,0.302-0.289,0.666-0.197,1.024c0.22,0.864,1.099,1.104,1.648,0.948c0.621-0.179,0.969-0.529,1.063-1.071
				C8.669,14.552,8.604,14.254,8.442,13.997 M6.932,15.164c-0.174-0.056-0.304-0.323-0.241-0.614
				c0.063-0.29,0.274-0.491,0.471-0.432c0.174,0.054,0.303,0.338,0.242,0.629C7.339,15.057,7.131,15.229,6.932,15.164"/>
			<path fill="#76BC43" d="M19.552,13.335c-0.051,0.075-0.447,0.656-0.497,1.552c-0.021,0.397,0.159,0.748,0.485,0.938
				c0.36,0.211,0.829,0.194,1.253-0.048c0.91-0.521,1.012-1.829,0.986-2.421c-0.005-0.137-0.089-0.219-0.229-0.225
				c-0.054-0.002-0.169,0.002-0.299,0.013c-0.132,0.011-0.212,0.101-0.218,0.244l-0.002,0.039c-0.005,0.548-0.044,1.036-0.291,1.336
				c-0.162,0.198-0.355,0.276-0.482,0.226c-0.113-0.045-0.187-0.192-0.169-0.344c0.044-0.375,0.208-0.67,0.31-0.858l0.043-0.082
				c0.063-0.127,0.031-0.262-0.073-0.314c-0.06-0.03-0.191-0.077-0.308-0.119l-0.141-0.05
				C19.821,13.184,19.675,13.154,19.552,13.335"/>
			<path fill="#E51E5D" d="M22.74,12.952c-0.395,0.205-0.597,0.484-0.64,0.878c-0.057,0.532,0.692,0.903,0.871,0.996
				c0.215,0.113,0.223,0.244,0.168,0.322c-0.089,0.121-0.332,0.087-0.511,0.017c-0.197-0.074-0.298-0.167-0.459-0.348
				c-0.096-0.107-0.384,0.198-0.43,0.412c-0.021,0.097,0.019,0.143,0.08,0.23c0.157,0.223,0.664,0.618,1.397,0.672
				c0.203,0.015,0.729,0.026,1.086-0.294c0.144-0.128,0.301-0.343,0.354-0.598c0.037-0.177,0.034-0.407-0.108-0.617
				c-0.199-0.296-0.532-0.492-0.902-0.66c-0.539-0.246-0.436-0.392-0.315-0.458c0.114-0.064,0.498-0.019,0.799,0.257
				c0.152,0.141,0.469-0.294,0.338-0.442C23.988,12.781,23.171,12.73,22.74,12.952"/>
			<path fill="#76BC43" d="M11.647,12.99c-0.301,0.941-1.584,3.093-2.085,3.299c-0.07,0.029-0.085,0.037-0.159,0.028
				c-0.266-0.038-0.597-0.371-0.703-0.493c-0.049-0.055-0.15-0.18-0.068-0.246c0.313-0.25,0.702-0.631,0.721-0.854
				c0.004-0.049-0.011-0.1-0.029-0.124c-0.029-0.039-0.843-1.11-0.924-1.224c-0.139-0.196-0.138-0.242,0.015-0.317
				c0.153-0.075,0.397-0.177,0.569-0.244c0.171-0.065,0.197-0.02,0.245,0.035l0.729,0.917c0.053,0.036,0.1,0.025,0.139-0.019
				c0.092-0.111,0.486-0.821,0.549-0.934c0.072-0.123,0.191-0.089,0.313-0.09c0.127-0.002,0.326,0.001,0.533,0.01
				C11.689,12.745,11.708,12.802,11.647,12.99"/>
			<path fill="#E51E5D" d="M12.013,13.214c-0.328,0.204-0.484,0.462-0.492,0.807c-0.01,0.467,0.636,0.775,0.799,0.845
				c0.194,0.084,0.222,0.185,0.188,0.26c-0.052,0.111-0.168,0.132-0.304,0.104c-0.247-0.051-0.44-0.267-0.634-0.375
				c-0.11-0.061-0.273,0.148-0.297,0.338c-0.011,0.085,0.016,0.133,0.087,0.194c0.183,0.157,0.557,0.526,1.301,0.559
				c0.177,0.008,0.636-0.027,0.923-0.328c0.115-0.123,0.236-0.284,0.265-0.51c0.02-0.155-0.017-0.345-0.139-0.529
				c-0.103-0.154-0.29-0.31-0.617-0.445c-0.531-0.219-0.364-0.439-0.238-0.48c0.108-0.036,0.298-0.009,0.612,0.181
				c0.171,0.103,0.396-0.3,0.256-0.401C13.016,12.923,12.372,12.991,12.013,13.214"/>
			<path fill="#E51E5D" d="M3.43,12.704c1.154-0.009,1.545-0.03,2.587-0.201c0.234-0.039,0.254,0.077,0.292,0.152
				c0.031,0.063,0.093,0.388,0.089,0.472c-0.005,0.083,0.036,0.204-0.104,0.243c-0.439,0.122-0.554,0.16-0.845,0.247
				c-0.135,0.04-0.126,0.097-0.122,0.199c0.02,0.57,0.21,1.324,0.345,1.745c0.056,0.178,0.082,0.305-0.043,0.352
				c-0.172,0.063-0.653,0.193-0.781,0.221c-0.224,0.047-0.257-0.117-0.276-0.201c-0.19-0.758-0.284-1.53-0.303-1.818
				c-0.01-0.147-0.058-0.285-0.196-0.282c-0.143,0.003-0.302,0.021-0.61,0.025c-0.166,0.004-0.254-0.006-0.275-0.147
				c-0.022-0.143-0.017-0.787,0.008-0.888C3.22,12.722,3.337,12.706,3.43,12.704"/>
			<path fill="#0964AB" d="M24.94,13.178c0-0.1-0.083-0.18-0.187-0.18c-0.103,0-0.186,0.08-0.186,0.18s0.083,0.18,0.186,0.18
				C24.858,13.357,24.94,13.277,24.94,13.178"/>
			<path fill="#FFFFFF" d="M24.918,13.178c0,0.087-0.073,0.159-0.164,0.159c-0.09,0-0.163-0.072-0.163-0.159
				s0.073-0.159,0.163-0.159C24.845,13.019,24.918,13.091,24.918,13.178"/>
			<path fill="#0964AB" d="M24.679,13.291v-0.242h0.076c0.024,0,0.043,0.005,0.056,0.016c0.013,0.01,0.02,0.024,0.02,0.045
				c0,0.032-0.018,0.055-0.051,0.069l0.083,0.112h-0.043l-0.071-0.102h-0.033v0.102H24.679 M24.715,13.164h0.012
				c0.045,0,0.066-0.019,0.066-0.052c0-0.025-0.019-0.038-0.055-0.038h-0.023V13.164z"/>
		</g>
	</g>
</g>
</svg>
