<?xml version="1.0" encoding="utf-8"?>
<!-- Generator: Adobe Illustrator 16.0.0, SVG Export Plug-In . SVG Version: 6.00 Build 0)  -->
<!DOCTYPE svg PUBLIC "-//W3C//DTD SVG 1.1//EN" "http://www.w3.org/Graphics/SVG/1.1/DTD/svg11.dtd">
<svg version="1.1" id="Layer_1" xmlns="http://www.w3.org/2000/svg" xmlns:xlink="http://www.w3.org/1999/xlink" x="0px" y="0px"
	 width="28.112px" height="49.567px" viewBox="0 0 28.112 49.567" enable-background="new 0 0 28.112 49.567" xml:space="preserve">
<pattern  x="-555.442" y="462.802" width="1024" height="2332.091" patternUnits="userSpaceOnUse" id="Unnamed_Pattern" viewBox="0 -2332.091 1024 2332.091" overflow="visible">
	<g>
		<polygon fill="none" points="0,0 1024,0 1024,-2332.091 0,-2332.091 		"/>
		<g>
			<defs>
				<rect id="SVGID_1_" y="-2332.091" width="1024" height="2332.091"/>
			</defs>
			<clipPath id="SVGID_2_">
				<use xlink:href="#SVGID_1_"  overflow="visible"/>
			</clipPath>
			<path clip-path="url(#SVGID_2_)" fill-rule="evenodd" clip-rule="evenodd" fill="#F6901E" d="M569.498-462.802
				c-7.763,0-14.056,6.293-14.056,14.056c0,6.698,4.684,12.301,10.955,13.713c0.801,0.181,0.747,0.773,0.841,1.61l2.26,20.188
				l2.229-19.9c0.091-0.81,0.061-1.718,0.822-1.887c6.297-1.394,11.006-7.009,11.006-13.725
				C583.555-456.509,577.262-462.802,569.498-462.802"/>
			<path clip-path="url(#SVGID_2_)" fill-rule="evenodd" clip-rule="evenodd" fill="#FFFFFF" d="M569.498-436.392
				c6.805,0,12.354-5.55,12.354-12.354c0-6.805-5.55-12.354-12.354-12.354c-6.804,0-12.354,5.55-12.354,12.354
				C557.145-441.941,562.694-436.392,569.498-436.392"/>
			<path clip-path="url(#SVGID_2_)" fill="#221F1F" d="M560.898-449.729c-0.104-0.141-0.177-0.207-0.272-0.258
				c-0.093-0.052-0.207-0.08-0.32-0.08c-0.237,0-0.409,0.117-0.409,0.283c0,0.134,0.078,0.193,0.33,0.251l0.334,0.079
				c0.24,0.059,0.396,0.124,0.503,0.214c0.138,0.117,0.21,0.282,0.21,0.478c0,0.441-0.379,0.737-0.938,0.737
				c-0.309,0-0.581-0.079-0.773-0.23c-0.098-0.072-0.142-0.12-0.245-0.259l0.365-0.258c0.097,0.142,0.189,0.225,0.323,0.282
				c0.107,0.049,0.248,0.076,0.375,0.076c0.262,0,0.432-0.124,0.432-0.313c0-0.154-0.107-0.24-0.383-0.3l-0.3-0.064
				c-0.479-0.104-0.685-0.301-0.685-0.654c0-0.42,0.351-0.71,0.868-0.71c0.277,0,0.516,0.079,0.719,0.245
				c0.076,0.064,0.114,0.103,0.217,0.22L560.898-449.729z"/>
			<path clip-path="url(#SVGID_2_)" fill="#221F1F" d="M562.112-448.861h0.441c0.223,0,0.361-0.033,0.499-0.127
				c0.213-0.141,0.334-0.372,0.334-0.641c0-0.471-0.324-0.757-0.861-0.757h-0.837v2.293h0.424V-448.861z M562.112-449.229v-0.793
				h0.375c0.311,0,0.451,0.121,0.451,0.375c0,0.283-0.158,0.418-0.484,0.418H562.112z"/>
			<path clip-path="url(#SVGID_2_)" fill="#221F1F" d="M564.182-448.943h0.424l0.453,0.85h0.477l-0.503-0.919
				c0.114-0.052,0.155-0.079,0.22-0.131c0.155-0.124,0.238-0.303,0.238-0.509c0-0.169-0.063-0.348-0.165-0.475
				c-0.149-0.184-0.355-0.26-0.693-0.26h-0.874v2.293h0.424V-448.943z M564.182-449.309v-0.713h0.416
				c0.282,0,0.444,0.128,0.444,0.348c0,0.231-0.165,0.365-0.454,0.365H564.182z"/>
			<polygon clip-path="url(#SVGID_2_)" fill="#221F1F" points="566.473,-448.093 566.05,-448.093 566.05,-450.386 566.473,-450.386 
							"/>
			<polygon clip-path="url(#SVGID_2_)" fill="#221F1F" points="568.871,-448.093 568.489,-448.093 567.511,-449.663 
				567.511,-448.093 567.112,-448.093 567.112,-450.386 567.516,-450.386 568.468,-448.837 568.468,-450.386 568.871,-450.386 			
				"/>
			<path clip-path="url(#SVGID_2_)" fill="#221F1F" d="M571.446-448.093h-0.365v-0.196c-0.097,0.082-0.131,0.11-0.196,0.148
				c-0.131,0.071-0.296,0.116-0.458,0.116c-0.616,0-1.063-0.506-1.063-1.201c0-0.72,0.458-1.229,1.104-1.229
				c0.29,0,0.558,0.11,0.744,0.3c0.1,0.106,0.144,0.175,0.22,0.361l-0.396,0.165c-0.11-0.302-0.296-0.447-0.578-0.447
				c-0.386,0-0.637,0.324-0.637,0.823c0,0.509,0.255,0.83,0.653,0.83c0.334,0,0.544-0.2,0.578-0.548h-0.571v-0.372h0.965V-448.093z"
				/>
			<polygon clip-path="url(#SVGID_2_)" fill="#221F1F" points="573.566,-450.008 572.43,-450.008 572.43,-449.43 573.407,-449.43 
				573.407,-449.064 572.43,-449.064 572.43,-448.094 572.006,-448.094 572.006,-450.387 573.566,-450.387 			"/>
			<polygon clip-path="url(#SVGID_2_)" fill="#221F1F" points="574.384,-448.093 573.961,-448.093 573.961,-450.386 
				574.384,-450.386 			"/>
			<polygon clip-path="url(#SVGID_2_)" fill="#221F1F" points="576.604,-450.008 575.399,-450.008 575.399,-449.463 
				576.509,-449.463 576.509,-449.099 575.399,-449.099 575.399,-448.472 576.7,-448.472 576.7,-448.094 574.977,-448.094 
				574.977,-450.387 576.604,-450.387 			"/>
			<polygon clip-path="url(#SVGID_2_)" fill="#221F1F" points="577.555,-448.472 578.501,-448.472 578.501,-448.093 
				577.13,-448.093 577.13,-450.386 577.555,-450.386 			"/>
			<path clip-path="url(#SVGID_2_)" fill="#221F1F" d="M578.841-448.093h0.703c0.282,0,0.492-0.038,0.665-0.124
				c0.326-0.162,0.512-0.531,0.512-1.009c0-0.341-0.086-0.62-0.258-0.823c-0.072-0.086-0.158-0.159-0.254-0.21
				c-0.176-0.097-0.342-0.127-0.665-0.127h-0.703V-448.093z M579.265-448.472v-1.536h0.241c0.544,0,0.754,0.214,0.754,0.765
				c0,0.23-0.031,0.399-0.103,0.53c-0.098,0.18-0.266,0.241-0.651,0.241H579.265z"/>
			<path clip-path="url(#SVGID_2_)" fill="#FFFFFF" d="M291.722-382.833c-1.1,0-2,0.899-2,2v53c0,1.1,0.9,2,2,2h379.5v-57H291.722z"
				/>
		</g>
		<g>
			<defs>
				<rect id="SVGID_3_" y="-2332.091" width="1024" height="2332.091"/>
			</defs>
			<clipPath id="SVGID_4_">
				<use xlink:href="#SVGID_3_"  overflow="visible"/>
			</clipPath>
			<polygon clip-path="url(#SVGID_4_)" fill="#606060" points="613.308,-351.69 610.723,-356 608.137,-351.69 			"/>
			<polygon clip-path="url(#SVGID_4_)" fill="#606060" points="608.137,-350 610.722,-345.691 613.308,-350 			"/>
			<polygon clip-path="url(#SVGID_4_)" fill="#606060" points="455.307,-351.69 452.722,-356 450.136,-351.69 			"/>
			<polygon clip-path="url(#SVGID_4_)" fill="#606060" points="450.137,-350 452.722,-345.691 455.308,-350 			"/>
			<g clip-path="url(#SVGID_4_)">
				<defs>
					<rect id="SVGID_5_" x="697.433" y="-356.423" width="10.823" height="10.823"/>
				</defs>
				<clipPath id="SVGID_6_">
					<use xlink:href="#SVGID_5_"  overflow="visible"/>
				</clipPath>
				<g clip-path="url(#SVGID_6_)">
					<defs>
						<rect id="SVGID_7_" x="697.433" y="-356.423" width="10.823" height="10.823"/>
					</defs>
					<clipPath id="SVGID_8_">
						<use xlink:href="#SVGID_7_"  overflow="visible"/>
					</clipPath>
					<path clip-path="url(#SVGID_8_)" fill="#FFFFFF" d="M705.492-349.896c0.38-0.644,0.6-1.395,0.6-2.198
						c0-2.391-1.938-4.329-4.33-4.329c-2.39,0-4.329,1.938-4.329,4.329c0,2.392,1.939,4.329,4.329,4.329
						c0.804,0,1.555-0.22,2.199-0.6l2.446,2.447c0.424,0.424,1.109,0.424,1.531,0c0.424-0.423,0.424-1.108,0-1.53L705.492-349.896z
						 M705.009-352.095c0,1.79-1.458,3.247-3.247,3.247c-1.79,0-3.245-1.457-3.245-3.247s1.455-3.247,3.245-3.247
						C703.551-355.342,705.009-353.885,705.009-352.095"/>
				</g>
			</g>
			<path clip-path="url(#SVGID_4_)" fill="#FFFFFF" d="M616.022-499.041h-95.45c-0.535,0-0.973,0.438-0.973,0.974v27.771
				c0,0.535,0.438,0.974,0.973,0.974h44.722L568.33-464l3.082-5.323h44.61c0.535,0,0.973-0.438,0.973-0.974v-27.771
				C616.995-498.603,616.558-499.041,616.022-499.041"/>
			<path clip-path="url(#SVGID_4_)" fill="#8C6239" d="M554.822-472.798h-29.525c-1.101,0-2-0.899-2-2v-19.354c0-1.1,0.899-2,2-2
				h29.525c1.1,0,2,0.9,2,2v19.354C556.822-473.697,555.922-472.798,554.822-472.798"/>
			<path clip-path="url(#SVGID_4_)" fill="none" stroke="#F6901E" stroke-width="0.25" stroke-miterlimit="10" d="M614.213-495.187
				c0,1.009-0.818,1.827-1.827,1.827s-1.827-0.818-1.827-1.827s0.818-1.827,1.827-1.827S614.213-496.195,614.213-495.187z"/>
			
				<line clip-path="url(#SVGID_4_)" fill="none" stroke="#F6901E" stroke-width="0.25" stroke-miterlimit="10" x1="611.022" y1="-496.402" x2="613.739" y2="-493.959"/>
			
				<line clip-path="url(#SVGID_4_)" fill="none" stroke="#F6901E" stroke-width="0.25" stroke-miterlimit="10" x1="613.739" y1="-496.402" x2="611.021" y2="-493.959"/>
		</g>
		<text transform="matrix(1 0 0 1 559.9648 -489.1094)"><tspan x="0" y="0" fill="#606060" font-family="'Roboto-Light'" font-size="3">Lo</tspan><tspan x="3.261" y="0" fill="#606060" font-family="'Roboto-Light'" font-size="3">r</tspan><tspan x="4.243" y="0" fill="#606060" font-family="'Roboto-Light'" font-size="3">em Ipsum is simply </tspan></text>
		<text transform="matrix(1 0 0 1 559.9648 -485.5098)" fill="#606060" font-family="'Roboto-Light'" font-size="3">dummy text of the printing</text>
		<text transform="matrix(1 0 0 1 559.9648 -481.9092)"><tspan x="0" y="0" fill="#606060" font-family="'Roboto-Light'" font-size="3">Lo</tspan><tspan x="3.261" y="0" fill="#606060" font-family="'Roboto-Light'" font-size="3">r</tspan><tspan x="4.243" y="0" fill="#606060" font-family="'Roboto-Light'" font-size="3">em Ipsum is simply </tspan></text>
		<text transform="matrix(1 0 0 1 559.9648 -478.3096)" fill="#606060" font-family="'Roboto-Light'" font-size="3">dummy text of the printing</text>
	</g>
</pattern>
<g id="Layer_2">
	<g id="Layer_3">
		<path fill-rule="evenodd" clip-rule="evenodd" fill="url(#Unnamed_Pattern)" d="M14.056,0C6.293,0,0,6.293,0,14.056
			c0,6.698,4.684,12.301,10.955,13.713c0.801,0.181,0.747,0.773,0.841,1.61l2.26,20.188l2.229-19.9
			c0.091-0.81,0.061-1.718,0.822-1.887c6.297-1.394,11.006-7.009,11.006-13.725C28.112,6.293,21.819,0,14.056,0"/>
		<circle fill-rule="evenodd" clip-rule="evenodd" fill="#FFFFFF" cx="14.056" cy="14.083" r="12.344"/>
		<g>
			<path fill="#624C88" d="M14.394,13.169c-0.256,0.174-0.416,0.396-0.414,0.742c0.004,0.423,0.716,0.739,0.716,0.739
				c0.383,0.191,0.208,0.463-0.065,0.412c-0.238-0.043-0.427-0.154-0.583-0.266c-0.055-0.041-0.149-0.012-0.151,0.102
				c-0.001,0.063-0.001,0.233-0.001,0.233c0,0.052,0.033,0.103,0.084,0.15c0.123,0.121,0.416,0.356,1.035,0.356
				c0.451,0,0.956-0.188,1.017-0.764c0.031-0.29-0.151-0.641-0.753-0.896c-0.211-0.09-0.306-0.188-0.244-0.326
				c0.056-0.132,0.271-0.153,0.465-0.064c0.22,0.102,0.411-0.248,0.212-0.38C15.26,12.914,14.721,12.944,14.394,13.169"/>
			<path fill="#624C88" d="M23.102,13.169c-0.254,0.174-0.414,0.396-0.411,0.742c0.003,0.423,0.715,0.739,0.715,0.739
				c0.383,0.191,0.208,0.463-0.064,0.412c-0.24-0.043-0.428-0.154-0.585-0.266c-0.055-0.041-0.148-0.012-0.151,0.102
				c0,0.063,0,0.233,0,0.233c0,0.052,0.034,0.103,0.084,0.15c0.124,0.121,0.415,0.356,1.035,0.356c0.451,0,0.955-0.188,1.017-0.764
				c0.033-0.29-0.151-0.641-0.753-0.896c-0.211-0.09-0.307-0.188-0.245-0.326c0.058-0.132,0.271-0.153,0.465-0.064
				c0.221,0.102,0.412-0.248,0.213-0.38C23.969,12.914,23.43,12.944,23.102,13.169"/>
			<path fill="#624C88" d="M11.281,15.613c-0.34,0.022-0.521-0.059-0.542-0.243c-0.069-0.589-0.016-1.257,0.02-1.449
				c0.013-0.076,0.031-0.345,0.456-0.33c0.23,0.007,0.357,0.054,0.418,0.119c0.037,0.04,0.05,0.098,0.043,0.178
				c-0.019,0.216-0.028,0.956,0.057,1.338c0.02,0.091,0.008,0.168-0.037,0.229C11.648,15.517,11.538,15.596,11.281,15.613"/>
			<path fill="#624C88" d="M10.857,13.131c0-0.075,0.031-0.146,0.092-0.208c0.08-0.079,0.201-0.125,0.328-0.125
				c0.128,0,0.25,0.046,0.33,0.125c0.059,0.062,0.091,0.133,0.091,0.208c0,0.186-0.188,0.336-0.421,0.336
				c-0.127,0-0.248-0.047-0.328-0.127C10.889,13.28,10.857,13.208,10.857,13.131"/>
			<path fill="#624C88" d="M13.751,13.217c-0.027-0.067-0.093-0.163-0.318-0.192c-0.234-0.027-0.813,0.005-1.083,0.079
				c-0.3,0.083-0.336,0.299-0.363,0.474c-0.033,0.2-0.09,0.945,0.018,1.563c0.031,0.191,0.129,0.295,0.342,0.376
				c0.258,0.096,1.005,0.126,1.176,0.046c0.113-0.045,0.131-0.125,0.14-0.143c0.036-0.069,0.082-0.247,0.082-0.401
				c0-0.037-0.011-0.063-0.034-0.083c-0.041-0.032-0.111-0.032-0.145-0.024c-0.104,0.021-0.325,0.022-0.562,0.021
				c0,0-0.069,0.003-0.102-0.036c-0.017-0.019-0.028-0.051-0.026-0.08l0.01-0.107c0.004-0.055,0.051-0.098,0.105-0.096
				c0.193,0.002,0.586-0.032,0.607-0.035c0.03-0.003,0.081-0.049,0.092-0.102c0.009-0.039,0.02-0.158,0.022-0.256
				c0.001-0.088-0.11-0.105-0.113-0.105c-0.032-0.007-0.325-0.052-0.545-0.072c-0.03-0.003-0.057-0.02-0.074-0.043
				c-0.019-0.022-0.025-0.054-0.021-0.082c0.005-0.026,0.01-0.057,0.014-0.091c0.01-0.053,0.058-0.093,0.112-0.089
				c0.128,0.006,0.363,0.018,0.512,0.031c0.185,0.015,0.216-0.062,0.232-0.154C13.847,13.528,13.781,13.291,13.751,13.217"/>
			<path fill="#624C88" d="M20.193,14.707c0.007-0.82,0.369-1.458,0.412-1.53c0.081-0.14,0.185-0.138,0.281-0.104
				c0.115,0.038,0.326,0.101,0.402,0.136c0.072,0.034,0.106,0.132,0.062,0.24c-0.052,0.123-0.289,0.572-0.318,0.99
				c-0.018,0.285,0.276,0.595,0.627,0.108c0.352-0.486,0.295-1.17,0.295-1.262c0-0.09,0.033-0.182,0.151-0.197
				c0.119-0.016,0.25-0.023,0.293-0.023c0.104,0,0.166,0.057,0.176,0.165c0.035,0.414-0.01,1.653-0.847,2.201
				C20.998,15.908,20.186,15.496,20.193,14.707"/>
			<path fill="#624C88" d="M9.756,14.924c-0.115,0.123-0.377,0.126-0.657,0.115c0,0-0.023,0.002-0.042,0
				c-0.013-0.003-0.012-0.015-0.012-0.015l0.001-0.041l0.021-0.442c0,0,0-0.023,0-0.033c0-0.012,0.012-0.014,0.012-0.014
				l0.033-0.004c0.019-0.004,0.446-0.059,0.626,0.084c0.047,0.039,0.075,0.088,0.081,0.148C9.826,14.804,9.806,14.873,9.756,14.924
				 M9.044,13.559c0.001-0.007,0.002-0.013,0.004-0.015c0.009-0.005,0.035-0.008,0.039-0.01l0,0c0.018-0.004,0.419-0.08,0.577,0.031
				c0.042,0.028,0.067,0.067,0.074,0.112c0.009,0.062-0.011,0.122-0.058,0.173c-0.1,0.113-0.313,0.175-0.572,0.166
				c0,0-0.027-0.001-0.039-0.001c-0.013,0-0.013-0.013-0.013-0.013v-0.037l-0.013-0.378C9.044,13.588,9.042,13.571,9.044,13.559
				 M10.583,14.785c-0.018-0.399-0.369-0.526-0.573-0.6c-0.025-0.008-0.061-0.016-0.083-0.023c-0.024-0.009-0.023-0.017,0.001-0.028
				c0.024-0.013,0.069-0.035,0.069-0.035c0.099-0.047,0.415-0.235,0.36-0.6c-0.067-0.438-0.631-0.521-0.803-0.538H9.552
				c-0.185-0.017-0.682-0.011-1.03,0.112c-0.17,0.06-0.202,0.192-0.226,0.289l-0.007,0.029c-0.146,0.564-0.098,1.526,0.097,2.018
				c0.001,0.002,0.001,0.003,0.002,0.006l0.001,0.002c0,0.003,0.023,0.089,0.139,0.116c1.061,0.248,1.574-0.009,1.785-0.185
				C10.497,15.196,10.594,14.995,10.583,14.785"/>
			<path fill="#624C88" d="M4.669,14.924c-0.116,0.123-0.378,0.126-0.658,0.115c0,0-0.022,0.002-0.041,0
				c-0.014-0.003-0.014-0.015-0.014-0.015l0.003-0.041l0.02-0.442c0,0,0.001-0.023,0.001-0.033c0-0.012,0.013-0.014,0.013-0.014
				l0.032-0.004h0.001c0.019-0.004,0.444-0.059,0.623,0.084c0.05,0.039,0.077,0.088,0.082,0.148
				C4.738,14.804,4.718,14.873,4.669,14.924 M3.956,13.559c0-0.007,0.002-0.013,0.005-0.015c0.008-0.005,0.034-0.008,0.039-0.01l0,0
				c0.017-0.004,0.419-0.08,0.579,0.031c0.041,0.028,0.064,0.067,0.071,0.112c0.01,0.062-0.01,0.122-0.057,0.173
				c-0.1,0.113-0.314,0.175-0.572,0.166c0,0-0.027-0.001-0.039-0.001S3.97,14.003,3.97,14.003S3.954,13.571,3.956,13.559
				 M5.496,14.785c-0.017-0.399-0.369-0.526-0.575-0.6c-0.021-0.008-0.06-0.016-0.082-0.023c-0.024-0.009-0.021-0.017,0.002-0.028
				c0.023-0.013,0.07-0.035,0.07-0.035c0.098-0.047,0.413-0.235,0.357-0.6c-0.064-0.438-0.63-0.521-0.801-0.538
				c-0.003,0-0.003,0-0.003,0c-0.186-0.017-0.682-0.011-1.029,0.112c-0.172,0.06-0.202,0.192-0.227,0.289l-0.008,0.029
				c-0.143,0.564-0.097,1.526,0.098,2.018c0.001,0.002,0.002,0.003,0.002,0.006l0.001,0.002c0.001,0.003,0.022,0.089,0.14,0.116
				c1.06,0.248,1.574-0.009,1.784-0.185C5.41,15.196,5.507,14.995,5.496,14.785"/>
			<path fill="#624C88" d="M7.166,14.771c-0.164,0.021-0.404,0.025-0.573,0.012c-0.021-0.002-0.017-0.017-0.012-0.029
				c0.005-0.012,0.277-0.635,0.285-0.652c0.01-0.022,0.017-0.023,0.025,0c0.003,0.01,0.29,0.639,0.288,0.639
				C7.184,14.747,7.192,14.767,7.166,14.771 M8.162,15.104c-0.004-0.011-0.007-0.022-0.01-0.034
				c-0.185-0.706-0.614-1.571-0.848-1.935c-0.081-0.127-0.127-0.149-0.467-0.132c-0.32,0.017-0.421,0.148-0.521,0.318
				c-0.43,0.677-0.791,1.9-0.794,1.912c-0.042,0.149-0.035,0.193,0.379,0.328c0.179,0.059,0.298,0.069,0.36,0.031
				c0.041-0.023,0.056-0.069,0.067-0.129c0.006-0.029,0.022-0.087,0.051-0.17l0.007-0.021c0,0,0.005-0.011,0.016-0.009
				s0.022,0.003,0.022,0.003c0.229,0.039,0.572,0.011,0.853-0.067c0,0,0.014-0.004,0.024-0.007c0.014-0.005,0.017,0.009,0.017,0.009
				l0.009,0.025c0.046,0.147,0.08,0.258,0.092,0.304c0.011,0.041,0.032,0.067,0.065,0.079c0.058,0.023,0.183,0.015,0.445-0.154
				C8.211,15.275,8.188,15.196,8.162,15.104"/>
			<path fill="#624C88" d="M24.799,13.197h0.021c0.025,0,0.047-0.009,0.047-0.031c0-0.017-0.013-0.033-0.047-0.033
				c-0.009,0-0.016,0-0.021,0.002V13.197z M24.799,13.3H24.77v-0.186c0.015-0.003,0.029-0.005,0.052-0.005
				c0.028,0,0.047,0.006,0.059,0.015c0.011,0.007,0.017,0.021,0.017,0.037c0,0.025-0.016,0.04-0.036,0.047v0.001
				c0.017,0.003,0.027,0.019,0.031,0.045c0.005,0.03,0.009,0.041,0.011,0.046h-0.03c-0.005-0.005-0.009-0.022-0.013-0.047
				c-0.004-0.022-0.018-0.032-0.041-0.032h-0.02V13.3z M24.83,13.062c-0.073,0-0.135,0.063-0.135,0.142
				c0,0.079,0.062,0.142,0.135,0.142c0.074,0.002,0.134-0.063,0.134-0.141C24.964,13.125,24.904,13.062,24.83,13.062 M24.83,13.036
				c0.092,0,0.164,0.073,0.164,0.167s-0.072,0.167-0.164,0.167s-0.166-0.073-0.166-0.167S24.738,13.036,24.83,13.036"/>
			<path fill="#624C88" d="M18.993,13.474c0,0-0.351,0.242-0.358,0.248c-0.03,0.023-0.072,0.051-0.077,0.162
				c-0.004,0.047-0.016,0.375-0.016,0.416c-0.001,0.045-0.021,0.169-0.165,0.043c0,0-0.238-0.21-0.274-0.241
				c-0.009-0.006-0.09-0.1-0.218-0.045l-0.376,0.15c0,0-0.225,0.092-0.141-0.111c0.081-0.196,0.136-0.36,0.153-0.411
				c0.019-0.056,0.013-0.134-0.033-0.188c-0.02-0.024-0.2-0.263-0.242-0.321c0,0-0.147-0.176,0.099-0.164
				c0,0,0.421,0.01,0.428,0.011s0.086,0.005,0.142-0.083c0.069-0.108,0.272-0.363,0.231-0.31c0.034-0.045,0.117-0.156,0.172,0.028
				c0,0,0.077,0.242,0.114,0.345c0.024,0.069,0.041,0.116,0.166,0.156l0.387,0.141C18.984,13.299,19.164,13.354,18.993,13.474
				 M19.718,12.396c-0.993-0.512-1.972-0.565-2.581-0.382c-1.128,0.338-1.477,1.77-0.433,2.471c0.063,0.043,0.023,0.132-0.056,0.274
				c-0.098,0.178-0.28,0.526-0.601,0.779c-0.192,0.152-0.318,0.215-0.159,0.401c0,0,0.354,0.396,0.614,0.511
				c0.313,0.138,0.393,0.114,0.627-0.104c0.146-0.138,0.438-0.515,0.79-1.115c0.184-0.31,0.428-0.315,0.395,0.196
				c0,0-0.049,0.494-0.062,0.596c-0.04,0.294-0.009,0.396,0.255,0.399c0,0,0.566-0.031,0.763-0.06
				c0.276-0.038,0.261-0.083,0.334-0.301c0.386-1.163,0.419-3.162,0.419-3.162C20.039,12.633,19.955,12.52,19.718,12.396"/>
		</g>
	</g>
</g>
</svg>
