<?xml version="1.0" encoding="utf-8"?>
<!-- Generator: Adobe Illustrator 16.0.0, SVG Export Plug-In . SVG Version: 6.00 Build 0)  -->
<!DOCTYPE svg PUBLIC "-//W3C//DTD SVG 1.1//EN" "http://www.w3.org/Graphics/SVG/1.1/DTD/svg11.dtd">
<svg version="1.1" id="Layer_1" xmlns="http://www.w3.org/2000/svg" xmlns:xlink="http://www.w3.org/1999/xlink" x="0px" y="0px"
	 width="28.112px" height="49.567px" viewBox="0 0 28.112 49.567" enable-background="new 0 0 28.112 49.567" xml:space="preserve">
<pattern  x="-555.442" y="462.802" width="1024" height="2332.091" patternUnits="userSpaceOnUse" id="Unnamed_Pattern" viewBox="0 -2332.091 1024 2332.091" overflow="visible">
	<g>
		<polygon fill="none" points="0,0 1024,0 1024,-2332.091 0,-2332.091 		"/>
		<g>
			<defs>
				<rect id="SVGID_1_" y="-2332.091" width="1024" height="2332.091"/>
			</defs>
			<clipPath id="SVGID_2_">
				<use xlink:href="#SVGID_1_"  overflow="visible"/>
			</clipPath>
			<path clip-path="url(#SVGID_2_)" fill-rule="evenodd" clip-rule="evenodd" fill="#F6901E" d="M569.498-462.802
				c-7.763,0-14.056,6.293-14.056,14.056c0,6.698,4.684,12.301,10.955,13.713c0.801,0.181,0.747,0.773,0.841,1.61l2.26,20.188
				l2.229-19.9c0.091-0.81,0.061-1.718,0.822-1.887c6.297-1.394,11.006-7.009,11.006-13.725
				C583.555-456.509,577.262-462.802,569.498-462.802"/>
			<path clip-path="url(#SVGID_2_)" fill-rule="evenodd" clip-rule="evenodd" fill="#FFFFFF" d="M569.498-436.392
				c6.805,0,12.354-5.55,12.354-12.354c0-6.805-5.55-12.354-12.354-12.354c-6.804,0-12.354,5.55-12.354,12.354
				C557.145-441.941,562.694-436.392,569.498-436.392"/>
			<path clip-path="url(#SVGID_2_)" fill="#221F1F" d="M560.898-449.729c-0.104-0.141-0.177-0.207-0.272-0.258
				c-0.093-0.052-0.207-0.08-0.32-0.08c-0.237,0-0.409,0.117-0.409,0.283c0,0.134,0.078,0.193,0.33,0.251l0.334,0.079
				c0.24,0.059,0.396,0.124,0.503,0.214c0.138,0.117,0.21,0.282,0.21,0.478c0,0.441-0.379,0.737-0.938,0.737
				c-0.309,0-0.581-0.079-0.773-0.23c-0.098-0.072-0.142-0.12-0.245-0.259l0.365-0.258c0.097,0.142,0.189,0.225,0.323,0.282
				c0.107,0.049,0.248,0.076,0.375,0.076c0.262,0,0.432-0.124,0.432-0.313c0-0.154-0.107-0.24-0.383-0.3l-0.3-0.064
				c-0.479-0.104-0.685-0.301-0.685-0.654c0-0.42,0.351-0.71,0.868-0.71c0.277,0,0.516,0.079,0.719,0.245
				c0.076,0.064,0.114,0.103,0.217,0.22L560.898-449.729z"/>
			<path clip-path="url(#SVGID_2_)" fill="#221F1F" d="M562.112-448.861h0.441c0.223,0,0.361-0.033,0.499-0.127
				c0.213-0.141,0.334-0.372,0.334-0.641c0-0.471-0.324-0.757-0.861-0.757h-0.837v2.293h0.424V-448.861z M562.112-449.229v-0.793
				h0.375c0.311,0,0.451,0.121,0.451,0.375c0,0.283-0.158,0.418-0.484,0.418H562.112z"/>
			<path clip-path="url(#SVGID_2_)" fill="#221F1F" d="M564.182-448.943h0.424l0.453,0.85h0.477l-0.503-0.919
				c0.114-0.052,0.155-0.079,0.22-0.131c0.155-0.124,0.238-0.303,0.238-0.509c0-0.169-0.063-0.348-0.165-0.475
				c-0.149-0.184-0.355-0.26-0.693-0.26h-0.874v2.293h0.424V-448.943z M564.182-449.309v-0.713h0.416
				c0.282,0,0.444,0.128,0.444,0.348c0,0.231-0.165,0.365-0.454,0.365H564.182z"/>
			<polygon clip-path="url(#SVGID_2_)" fill="#221F1F" points="566.473,-448.093 566.05,-448.093 566.05,-450.386 566.473,-450.386 
							"/>
			<polygon clip-path="url(#SVGID_2_)" fill="#221F1F" points="568.871,-448.093 568.489,-448.093 567.511,-449.663 
				567.511,-448.093 567.112,-448.093 567.112,-450.386 567.516,-450.386 568.468,-448.837 568.468,-450.386 568.871,-450.386 			
				"/>
			<path clip-path="url(#SVGID_2_)" fill="#221F1F" d="M571.446-448.093h-0.365v-0.196c-0.097,0.082-0.131,0.11-0.196,0.148
				c-0.131,0.071-0.296,0.116-0.458,0.116c-0.616,0-1.063-0.506-1.063-1.201c0-0.72,0.458-1.229,1.104-1.229
				c0.29,0,0.558,0.11,0.744,0.3c0.1,0.106,0.144,0.175,0.22,0.361l-0.396,0.165c-0.11-0.302-0.296-0.447-0.578-0.447
				c-0.386,0-0.637,0.324-0.637,0.823c0,0.509,0.255,0.83,0.653,0.83c0.334,0,0.544-0.2,0.578-0.548h-0.571v-0.372h0.965V-448.093z"
				/>
			<polygon clip-path="url(#SVGID_2_)" fill="#221F1F" points="573.566,-450.008 572.43,-450.008 572.43,-449.43 573.407,-449.43 
				573.407,-449.064 572.43,-449.064 572.43,-448.094 572.006,-448.094 572.006,-450.387 573.566,-450.387 			"/>
			<polygon clip-path="url(#SVGID_2_)" fill="#221F1F" points="574.384,-448.093 573.961,-448.093 573.961,-450.386 
				574.384,-450.386 			"/>
			<polygon clip-path="url(#SVGID_2_)" fill="#221F1F" points="576.604,-450.008 575.399,-450.008 575.399,-449.463 
				576.509,-449.463 576.509,-449.099 575.399,-449.099 575.399,-448.472 576.7,-448.472 576.7,-448.094 574.977,-448.094 
				574.977,-450.387 576.604,-450.387 			"/>
			<polygon clip-path="url(#SVGID_2_)" fill="#221F1F" points="577.555,-448.472 578.501,-448.472 578.501,-448.093 
				577.13,-448.093 577.13,-450.386 577.555,-450.386 			"/>
			<path clip-path="url(#SVGID_2_)" fill="#221F1F" d="M578.841-448.093h0.703c0.282,0,0.492-0.038,0.665-0.124
				c0.326-0.162,0.512-0.531,0.512-1.009c0-0.341-0.086-0.62-0.258-0.823c-0.072-0.086-0.158-0.159-0.254-0.21
				c-0.176-0.097-0.342-0.127-0.665-0.127h-0.703V-448.093z M579.265-448.472v-1.536h0.241c0.544,0,0.754,0.214,0.754,0.765
				c0,0.23-0.031,0.399-0.103,0.53c-0.098,0.18-0.266,0.241-0.651,0.241H579.265z"/>
			<path clip-path="url(#SVGID_2_)" fill="#FFFFFF" d="M291.722-382.833c-1.1,0-2,0.899-2,2v53c0,1.1,0.9,2,2,2h379.5v-57H291.722z"
				/>
		</g>
		<g>
			<defs>
				<rect id="SVGID_3_" y="-2332.091" width="1024" height="2332.091"/>
			</defs>
			<clipPath id="SVGID_4_">
				<use xlink:href="#SVGID_3_"  overflow="visible"/>
			</clipPath>
			<polygon clip-path="url(#SVGID_4_)" fill="#606060" points="613.308,-351.69 610.723,-356 608.137,-351.69 			"/>
			<polygon clip-path="url(#SVGID_4_)" fill="#606060" points="608.137,-350 610.722,-345.691 613.308,-350 			"/>
			<polygon clip-path="url(#SVGID_4_)" fill="#606060" points="455.307,-351.69 452.722,-356 450.136,-351.69 			"/>
			<polygon clip-path="url(#SVGID_4_)" fill="#606060" points="450.137,-350 452.722,-345.691 455.308,-350 			"/>
			<g clip-path="url(#SVGID_4_)">
				<defs>
					<rect id="SVGID_5_" x="697.433" y="-356.423" width="10.823" height="10.823"/>
				</defs>
				<clipPath id="SVGID_6_">
					<use xlink:href="#SVGID_5_"  overflow="visible"/>
				</clipPath>
				<g clip-path="url(#SVGID_6_)">
					<defs>
						<rect id="SVGID_7_" x="697.433" y="-356.423" width="10.823" height="10.823"/>
					</defs>
					<clipPath id="SVGID_8_">
						<use xlink:href="#SVGID_7_"  overflow="visible"/>
					</clipPath>
					<path clip-path="url(#SVGID_8_)" fill="#FFFFFF" d="M705.492-349.896c0.38-0.644,0.6-1.395,0.6-2.198
						c0-2.391-1.938-4.329-4.33-4.329c-2.39,0-4.329,1.938-4.329,4.329c0,2.392,1.939,4.329,4.329,4.329
						c0.804,0,1.555-0.22,2.199-0.6l2.446,2.447c0.424,0.424,1.109,0.424,1.531,0c0.424-0.423,0.424-1.108,0-1.53L705.492-349.896z
						 M705.009-352.095c0,1.79-1.458,3.247-3.247,3.247c-1.79,0-3.245-1.457-3.245-3.247s1.455-3.247,3.245-3.247
						C703.551-355.342,705.009-353.885,705.009-352.095"/>
				</g>
			</g>
			<path clip-path="url(#SVGID_4_)" fill="#FFFFFF" d="M616.022-499.041h-95.45c-0.535,0-0.973,0.438-0.973,0.974v27.771
				c0,0.535,0.438,0.974,0.973,0.974h44.722L568.33-464l3.082-5.323h44.61c0.535,0,0.973-0.438,0.973-0.974v-27.771
				C616.995-498.603,616.558-499.041,616.022-499.041"/>
			<path clip-path="url(#SVGID_4_)" fill="#8C6239" d="M554.822-472.798h-29.525c-1.101,0-2-0.899-2-2v-19.354c0-1.1,0.899-2,2-2
				h29.525c1.1,0,2,0.9,2,2v19.354C556.822-473.697,555.922-472.798,554.822-472.798"/>
			<path clip-path="url(#SVGID_4_)" fill="none" stroke="#F6901E" stroke-width="0.25" stroke-miterlimit="10" d="M614.213-495.187
				c0,1.009-0.818,1.827-1.827,1.827s-1.827-0.818-1.827-1.827s0.818-1.827,1.827-1.827S614.213-496.195,614.213-495.187z"/>
			
				<line clip-path="url(#SVGID_4_)" fill="none" stroke="#F6901E" stroke-width="0.25" stroke-miterlimit="10" x1="611.022" y1="-496.402" x2="613.739" y2="-493.959"/>
			
				<line clip-path="url(#SVGID_4_)" fill="none" stroke="#F6901E" stroke-width="0.25" stroke-miterlimit="10" x1="613.739" y1="-496.402" x2="611.021" y2="-493.959"/>
		</g>
		<text transform="matrix(1 0 0 1 559.9648 -489.1094)"><tspan x="0" y="0" fill="#606060" font-family="'Roboto-Light'" font-size="3">Lo</tspan><tspan x="3.261" y="0" fill="#606060" font-family="'Roboto-Light'" font-size="3">r</tspan><tspan x="4.243" y="0" fill="#606060" font-family="'Roboto-Light'" font-size="3">em Ipsum is simply </tspan></text>
		<text transform="matrix(1 0 0 1 559.9648 -485.5098)" fill="#606060" font-family="'Roboto-Light'" font-size="3">dummy text of the printing</text>
		<text transform="matrix(1 0 0 1 559.9648 -481.9092)"><tspan x="0" y="0" fill="#606060" font-family="'Roboto-Light'" font-size="3">Lo</tspan><tspan x="3.261" y="0" fill="#606060" font-family="'Roboto-Light'" font-size="3">r</tspan><tspan x="4.243" y="0" fill="#606060" font-family="'Roboto-Light'" font-size="3">em Ipsum is simply </tspan></text>
		<text transform="matrix(1 0 0 1 559.9648 -478.3096)" fill="#606060" font-family="'Roboto-Light'" font-size="3">dummy text of the printing</text>
	</g>
</pattern>
<g id="Layer_2">
	<g id="Layer_3">
		<path fill-rule="evenodd" clip-rule="evenodd" fill="url(#Unnamed_Pattern)" d="M14.056,0C6.293,0,0,6.293,0,14.056
			c0,6.698,4.684,12.301,10.955,13.713c0.801,0.181,0.747,0.773,0.841,1.61l2.26,20.188l2.229-19.9
			c0.091-0.81,0.061-1.718,0.822-1.887c6.297-1.394,11.006-7.009,11.006-13.725C28.112,6.293,21.819,0,14.056,0"/>
		<circle fill-rule="evenodd" clip-rule="evenodd" fill="#FFFFFF" cx="14.056" cy="14.083" r="12.344"/>
		<g>
			<path fill-rule="evenodd" clip-rule="evenodd" fill="#C5910E" d="M23.572,11.423c1.236,0,2.244,1.008,2.244,2.244
				s-1.008,2.245-2.244,2.245c-1.234,0-2.243-1.009-2.243-2.245S22.338,11.423,23.572,11.423"/>
			<path fill-rule="evenodd" clip-rule="evenodd" fill="#B12C1B" d="M23.572,11.564c1.159,0,2.104,0.945,2.104,2.103
				s-0.944,2.103-2.104,2.103c-1.157,0-2.102-0.945-2.102-2.103S22.415,11.564,23.572,11.564"/>
			<path fill-rule="evenodd" clip-rule="evenodd" fill="#C43321" d="M25.409,14.69c-0.044,0.077-0.091,0.15-0.143,0.22
				c-0.017-0.079-0.038-0.175-0.055-0.224c-0.054-0.165-0.098-0.254-0.128-0.29c-0.01-0.014-0.021-0.024-0.031-0.036
				c-0.001,0.002-0.003,0.004-0.004,0.004c-0.041,0.045-0.146,0.026-0.135,0.125c0.004,0.068,0.138,0.282,0.05,0.334
				c-0.044,0.027-0.053,0.074-0.063,0.129c0.002,0.014,0.005,0.025,0.007,0.038c0.006,0.021,0.093,0.024,0.135,0.029
				c0.013,0.003,0.074,0.007,0.132,0.008c-0.033,0.038-0.066,0.076-0.103,0.113c-0.046-0.005-0.085-0.009-0.105-0.006
				c-0.009,0.001-0.013,0.001-0.015,0.012c-0.005,0.02,0.012,0.051,0.017,0.07c0.001,0.007,0.004,0.013,0.005,0.017
				c-0.042,0.038-0.084,0.073-0.128,0.106c0-0.006,0-0.013-0.001-0.021c-0.002-0.055-0.007-0.138-0.039-0.187
				c0-0.002,0-0.003-0.001-0.004c-0.02,0.011-0.041,0.017-0.06,0.008c-0.023-0.016-0.042-0.033-0.061-0.051
				c-0.023-0.004-0.048-0.008-0.068-0.011c-0.028-0.007-0.108-0.032-0.117,0.004c-0.019,0.021,0.011,0.194,0.027,0.222
				c0.092,0.032,0.187,0.064,0.274,0.071c-0.048,0.035-0.099,0.068-0.15,0.099c-0.042-0.011-0.082-0.021-0.117-0.026
				c-0.03-0.004-0.023,0.038-0.026,0.066c-0.007,0.075-0.077,0.048-0.085-0.012c-0.004-0.028-0.006-0.079-0.023-0.098
				c-0.019-0.021-0.217-0.09-0.239-0.098c-0.041-0.016-0.085-0.074-0.082-0.107c0.003-0.041,0.121,0.014,0.15,0.023
				c0.051,0.016,0.097,0.041,0.149,0.039c0.007-0.001,0.008-0.014,0.007-0.022c-0.001-0.037-0.024-0.209-0.032-0.213
				c-0.019-0.007-0.031-0.008-0.05-0.014c-0.098-0.032-0.149-0.032-0.244-0.071c-0.043-0.02-0.084-0.052-0.079-0.087
				c0.007-0.039,0.052-0.013,0.109,0.01c0.091,0.036,0.156,0.055,0.251,0.059c0.029,0.002,0.017-0.069,0.021-0.093
				c0.001-0.006,0.01-0.031,0.027-0.034c0.019-0.002,0.043,0.01,0.062,0.047c0.013,0.026,0.012,0.048,0.019,0.085
				c0.015,0.004,0.054,0.011,0.1,0.019c-0.035-0.049-0.067-0.098-0.108-0.141c-0.045-0.042-0.088-0.08-0.147-0.099
				c-0.051-0.014-0.193-0.03-0.113-0.113c0.031-0.031,0.088-0.038,0.103-0.035c0.155,0.023,0.219,0.105,0.363,0.292
				c0.087,0.113,0.107,0.065,0.126-0.04c0.05-0.262-0.044-0.318,0.009-0.471c0.039-0.108-0.097-0.209-0.049-0.286
				c0.072-0.119,0.224-0.069,0.336-0.079c0.23-0.021,0.393-0.102,0.366-0.369c-0.01-0.111-0.108-0.455-0.245-0.447
				c-0.169,0.009-0.456,0.107-0.607-0.016c-0.121-0.097-0.305-0.254-0.148-0.408c0.112-0.109,0.149-0.153,0.318-0.154
				c0.095-0.001,0.232,0.06,0.284,0.153c0.055,0.099-0.053,0.205-0.168,0.207c-0.069,0.001-0.107-0.023-0.174-0.049
				c-0.029-0.011-0.075-0.03-0.103-0.003c-0.029,0.028-0.015,0.108,0.011,0.134c0.028,0.026,0.084,0.018,0.12,0.014
				c0.161-0.014,0.287,0.024,0.436-0.079c0.145-0.102,0.018-0.353-0.053-0.414c-0.163-0.146-0.293-0.241-0.514-0.272
				c-0.108-0.015-0.278-0.012-0.388,0.005c-0.102,0.017-0.24,0.08-0.228,0.104c0.074,0.14,0.093,0.357,0.082,0.511
				c-0.037,0.489-0.507,0.57-0.911,0.6c-0.146,0.01-0.364-0.06-0.464-0.112c-0.123-0.064-0.217-0.181-0.182-0.319
				c0.019-0.073,0.065-0.15,0.102-0.204c0.081-0.121,0.189-0.183,0.326-0.213c0.174-0.043,0.313-0.025,0.405,0.03
				c0.033,0.022,0.109,0.07,0.161,0.13c0.078,0.089,0.106,0.16-0.017,0.251c-0.068,0.051-0.199,0.088-0.273,0.028
				c-0.022-0.019-0.136-0.113-0.085-0.143c0.026-0.017,0.203,0.029,0.193-0.042c-0.009-0.079-0.101-0.117-0.167-0.136
				c-0.194-0.051-0.463,0.19-0.457,0.381c0.009,0.291,0.404,0.213,0.597,0.169c0.102-0.024,0.202-0.051,0.299-0.095
				c0.101-0.045,0.179-0.143,0.221-0.253c0.058-0.144,0.06-0.381-0.007-0.521c-0.026-0.055-0.067-0.123-0.136-0.212
				c-0.046-0.061-0.09-0.121-0.152-0.166c-0.035-0.024-0.093-0.082-0.106-0.059c-0.013,0.025-0.031,0.084-0.037,0.122
				c-0.005,0.052-0.011,0.142-0.075,0.104c-0.033-0.02-0.045-0.044-0.045-0.088c0-0.058,0.019-0.104,0.04-0.159
				c0.007-0.018,0.021-0.039,0.018-0.043c-0.107-0.076-0.366-0.061-0.485-0.038c-0.385,0.075-0.676,0.317-0.814,0.688
				c-0.061,0.16-0.093,0.345-0.073,0.517c0.013,0.117,0.05,0.232,0.108,0.33c0.008,0.014,0.008,0.022,0.022,0.02
				c0.028-0.008,0.096-0.027,0.202-0.026c0.189,0.001,0.212,0.12,0.125,0.113c-0.016,0.002-0.155,0.019-0.212,0.039
				c-0.022,0.008-0.027,0.013-0.015,0.031c0.103,0.153,0.263,0.299,0.418,0.395c0.038,0.023,0.167,0.092,0.156,0.071
				c-0.064-0.12-0.042-0.252,0.069-0.334c0.156-0.116,0.263-0.195,0.467-0.178c0.116,0.01,0.208,0.041,0.298,0.126
				c0.073,0.069,0.111,0.144,0.007,0.226c-0.065,0.051-0.143,0.091-0.203,0.103c-0.069,0.012-0.136,0.103-0.201,0.026
				c-0.219-0.255,0.354-0.078,0.292-0.26c-0.017-0.048-0.053-0.066-0.1-0.082c-0.165-0.052-0.468,0.131-0.503,0.297
				c-0.004,0.016-0.018,0.078,0.055,0.131c0.038,0.028,0.13,0.017,0.085,0.087c-0.037,0.061-0.143,0.018-0.193,0.006
				c-0.251-0.059-0.474-0.268-0.643-0.455c-0.034-0.039-0.1-0.108-0.109-0.121c-0.008-0.012-0.081,0.064-0.111,0.098
				c-0.073,0.085-0.066,0.187,0.024,0.256c0.132,0.101,0.306,0.14,0.38,0.307c0.081,0.188-0.09,0.354-0.188,0.497
				c-0.077,0.112-0.11,0.224-0.103,0.336c-0.069-0.07-0.135-0.147-0.195-0.227c0.024-0.132,0.083-0.259,0.172-0.358
				c0.053-0.08,0.123-0.175,0.109-0.271c-0.009-0.048-0.021-0.064-0.061-0.086c-0.146-0.083-0.302-0.165-0.33-0.35
				c-0.012-0.141,0.067-0.25,0.179-0.328c0.029-0.018,0.028-0.02,0.012-0.048c-0.034-0.081-0.062-0.164-0.088-0.249
				c-0.065-0.313-0.022-0.616,0.136-0.895c0.144-0.242,0.383-0.435,0.653-0.529c0.242-0.084,0.523-0.095,0.757,0.026
				c0.052-0.033,0.104-0.064,0.161-0.084c0.184-0.063,0.379-0.049,0.497,0.09c0.045,0.054,0.094,0.141,0.051,0.21
				c-0.063,0.105-0.209,0.112-0.269,0.001c-0.013-0.024-0.021-0.042-0.011-0.067c0.012-0.033,0.049-0.014,0.075-0.027
				c0.007-0.004,0.004-0.03,0-0.036c-0.05-0.088-0.154-0.091-0.243-0.078c-0.065,0.01-0.181,0.061-0.149,0.076
				c0.025,0.012,0.063,0.039,0.089,0.06c0.066,0.06,0.127,0.115,0.18,0.187c0.027,0.035,0.053,0.071,0.086,0.101
				c0.013,0.012,0.028,0,0.042-0.007c0.23-0.141,0.447-0.159,0.731-0.105c0.312,0.058,0.472,0.225,0.641,0.424
				c0.094,0.111,0.172,0.358,0.092,0.479c-0.012,0.034-0.01,0.047,0.012,0.077c0.188,0.199,0.312,0.507,0.244,0.781
				c-0.059,0.128-0.154,0.21-0.301,0.208c-0.033,0-0.109,0.028-0.154,0.053c0.033,0.043,0.073,0.124,0.129,0.265
				C25.354,14.523,25.384,14.606,25.409,14.69 M24.379,15.608c-0.061,0.026-0.124,0.049-0.188,0.068
				c-0.118-0.095-0.237-0.188-0.362-0.278c-0.006-0.005-0.024-0.019-0.046-0.033c-0.054,0.05-0.109,0.087-0.132,0.096
				c-0.197,0.079-0.426-0.017-0.547-0.184c-0.043-0.062-0.053-0.146,0.043-0.129c0.044,0.01,0.071,0.021,0.108,0.046
				c0.081,0.055,0.157,0.13,0.255,0.081c0.023-0.011,0.051-0.038,0.078-0.069c-0.041-0.026-0.109-0.081-0.112-0.084
				c-0.022-0.031-0.009-0.061,0.025-0.069c0.051-0.011,0.091-0.012,0.132,0.003c0.014,0.004,0.029,0.01,0.045,0.019
				c0.008-0.014,0.014-0.028,0.018-0.037c0.027-0.082,0.048-0.225-0.029-0.292c-0.114-0.102-0.223-0.132-0.28-0.278
				c-0.065-0.169,0.114-0.063,0.13-0.085c0.106-0.13,0.162-0.086,0.304-0.12c0.081,0.006,0.159,0.039,0.203,0.111
				c0.041,0.068,0.163-0.053,0.15-0.117c-0.023-0.102-0.086-0.181-0.128-0.197c-0.023-0.008-0.043-0.016-0.047-0.005
				c-0.009,0.02-0.007,0.016-0.009,0.021c-0.012,0.062-0.096,0.103-0.138,0.058c-0.008-0.009-0.008-0.018-0.002-0.041
				c0.002-0.006,0.018-0.025,0.008-0.029c-0.008-0.004-0.041,0.004-0.057,0.011c-0.032,0.017-0.074,0.009-0.099-0.033
				c-0.021-0.036,0.032-0.082,0.077-0.099c0.026-0.009,0.053-0.02,0.071-0.025c0.034-0.012,0.058-0.057,0.077-0.088
				c0.076-0.128,0.215-0.268,0.349-0.334c0.168-0.085,0.444-0.168,0.593-0.003c0.032,0.035,0.07,0.132,0.069,0.225
				c-0.003,0.14-0.148,0.199-0.211,0.217c-0.124,0.037-0.26,0.002-0.284-0.146c-0.011-0.06,0.205-0.069,0.231-0.048
				c0.008,0.007,0.008,0.021,0.016,0.025c0.1,0.057,0.107-0.246-0.006-0.259c-0.157-0.02-0.295,0.062-0.423,0.151
				c-0.039,0.028-0.176,0.142-0.196,0.222c-0.016,0.065,0.004,0.057,0.041,0.072c0.164,0.065,0.22,0.191,0.225,0.347
				c0.006,0.146-0.079,0.214-0.182,0.241c-0.054,0.083-0.154,0.112-0.194,0.115c-0.044,0.013-0.088,0.014-0.138,0
				c-0.01-0.002-0.018-0.005-0.024-0.01c-0.012-0.005-0.024-0.01-0.036-0.018c-0.005-0.001-0.01-0.002-0.015-0.003
				c-0.016-0.002-0.015,0.015-0.008,0.022c0.036,0.036,0.087,0.087,0.113,0.13c0.095,0.155,0.083,0.325,0.062,0.422
				c-0.004,0.012-0.008,0.021-0.014,0.032C24.034,15.331,24.212,15.47,24.379,15.608 M22.659,15.561
				c-0.069-0.035-0.138-0.072-0.202-0.113c0.066-0.026,0.129-0.062,0.171-0.093c0.183-0.134,0.448-0.51,0.162-0.685
				c-0.061-0.039-0.206-0.036-0.246,0.032c-0.012,0.021-0.058,0.148-0.027,0.167c0.063,0.042,0.186-0.012,0.244-0.024
				c0.063-0.013-0.002,0.098,0.001,0.129c0.001,0.02,0.008,0.041-0.002,0.058c-0.05,0.08-0.2,0.102-0.271,0.042
				c-0.139-0.114-0.209-0.314-0.114-0.481c0.036-0.063,0.093-0.057,0.159-0.058c0.193-0.006,0.468,0.043,0.549,0.247
				c0.012,0.028,0.021,0.069,0.021,0.111c0.01,0.139-0.081,0.304-0.15,0.419C22.876,15.414,22.772,15.503,22.659,15.561
				 M21.506,13.277c0.029-0.153,0.075-0.302,0.136-0.441c0.044,0.021,0.083,0.052,0.108,0.091c0.046,0.069,0.06,0.155,0.015,0.229
				c-0.013,0.021-0.036,0.028-0.059,0.033c-0.021,0.002-0.074-0.018-0.089-0.001c-0.005,0.004,0.004,0.014,0.01,0.019
				c0.015,0.015,0.033,0.021,0.05,0.034c0.026,0.018,0.047,0.032,0.058,0.061c0.008,0.021-0.003,0.037-0.019,0.049
				c-0.039,0.024-0.117-0.01-0.149-0.031C21.547,13.309,21.526,13.294,21.506,13.277 M21.917,14.455
				c-0.081,0.035-0.188,0.064-0.26-0.006c-0.03-0.03-0.044-0.082-0.049-0.123c-0.01-0.065,0.015-0.139,0.064-0.184
				c0.015-0.015,0.033-0.025,0.052-0.033c0.043-0.017,0.097-0.016,0.136,0.006c0.076,0.042,0.117,0.09,0.168,0.161
				c0.012,0.016,0.036,0.024,0.04,0.046c0.005,0.028-0.012,0.046-0.036,0.062C21.995,14.408,21.959,14.438,21.917,14.455
				 M21.848,14.353c-0.062,0.03-0.116,0.053-0.145-0.021c-0.011-0.022-0.01-0.063,0.003-0.086c0.003-0.006,0.011-0.012,0.019-0.013
				c0.051-0.004,0.118,0.053,0.13,0.099C21.857,14.339,21.854,14.349,21.848,14.353 M23.043,14.63
				c-0.012-0.067-0.029-0.158,0.023-0.21c0.032-0.031,0.08-0.021,0.112,0.012c0.061,0.067,0.053,0.187-0.004,0.254
				C23.131,14.735,23.052,14.686,23.043,14.63 M25.206,13.658c-0.045-0.005-0.093-0.037-0.092-0.085
				c0.001-0.017,0.005-0.033,0.011-0.048c0.01-0.025,0.031-0.047,0.055-0.059c0.024-0.012,0.05-0.012,0.073-0.002
				c0.022,0.01,0.052,0.03,0.042,0.06c-0.008,0.02-0.026,0.041-0.03,0.057c-0.003,0.021,0.005,0.042-0.008,0.06
				C25.243,13.658,25.227,13.66,25.206,13.658 M22.728,12.627c0.058-0.072,0.137-0.116,0.098-0.216
				c-0.036-0.097-0.159-0.123-0.249-0.124c-0.129-0.002-0.235,0.159-0.177,0.274c0.032,0.063,0.092,0.126,0.165,0.129
				C22.653,12.692,22.68,12.689,22.728,12.627 M24.051,13.548c0.004-0.023-0.019-0.036-0.012-0.05
				c0.011-0.018,0.042-0.021,0.068-0.041c0.04-0.031,0.036-0.087-0.057-0.122c-0.089-0.033-0.152,0.021-0.175,0.094
				c-0.027,0.099,0.048,0.153,0.08,0.158C23.985,13.592,24.044,13.6,24.051,13.548 M24.825,12.813
				c-0.031-0.007-0.063-0.031-0.09-0.042c-0.028-0.011,0.011-0.039,0.021-0.044c0.025-0.015,0.058-0.025,0.082-0.024
				c0.021,0,0.089,0.043,0.075,0.077C24.896,12.82,24.861,12.821,24.825,12.813 M24.872,14.245c0.019-0.076-0.044-0.15-0.004-0.167
				c0.059-0.024,0.1,0.018,0.12,0.063c0.012,0.026,0,0.092-0.016,0.111C24.94,14.288,24.865,14.272,24.872,14.245 M23.898,14.465
				c-0.026,0.018-0.157,0.035-0.182,0.012c-0.049-0.045,0.026-0.092,0.071-0.107C23.818,14.358,23.954,14.426,23.898,14.465"/>
			<path fill-rule="evenodd" clip-rule="evenodd" fill="#FFFFFF" d="M24.166,14.769c0.023,0.033,0.021,0.053,0.005,0.088
				c-0.027,0.031-0.059,0.052-0.101,0.047c-0.03-0.006-0.06-0.017-0.086-0.028c-0.008,0.018-0.017,0.033-0.025,0.052
				c0.022,0.02,0.026,0.047,0.017,0.074c-0.017,0.038-0.048,0.056-0.09,0.049c-0.041,0.068-0.086,0.136-0.129,0.203
				c-0.041,0.062-0.081,0.121-0.124,0.179c-0.023,0.031-0.045,0.062-0.069,0.092c-0.044,0.054-0.095,0.109-0.162,0.128
				c-0.035,0.001-0.05-0.002-0.079-0.019c-0.035-0.034-0.05-0.069-0.033-0.12c0.02-0.05,0.052-0.096,0.083-0.143
				c0.011-0.016,0.022-0.034,0.031-0.052c-0.012-0.059,0.003-0.121-0.009-0.179c-0.037-0.198-0.097-0.367-0.163-0.557
				c-0.039-0.113-0.08-0.224-0.127-0.333c-0.093,0.012-0.172-0.022-0.236-0.09c-0.054-0.059-0.08-0.122-0.092-0.198
				c-0.061,0.031-0.147,0.044-0.215,0.045c-0.079-0.001-0.148-0.016-0.218-0.056c-0.071-0.052-0.129-0.119-0.141-0.211
				c-0.007-0.057-0.01-0.113-0.002-0.172c0.008-0.064,0.022-0.112,0.061-0.166c0.054-0.073,0.124-0.132,0.207-0.165
				c-0.044-0.021-0.096-0.03-0.131-0.063c-0.022-0.02-0.037-0.053-0.034-0.083c0.006-0.052,0.021-0.106,0.058-0.142
				c0.048-0.048,0.096-0.065,0.165-0.044c0.002-0.065,0.03-0.12,0.077-0.164c0.043-0.036,0.094-0.055,0.149-0.062
				c0.003-0.021,0.008-0.042,0.011-0.063c-0.013,0.01-0.03,0.013-0.045,0.014c-0.055-0.003-0.091-0.043-0.116-0.09
				c-0.032-0.067-0.059-0.144-0.039-0.22c0.013-0.044,0.043-0.082,0.079-0.11c0.035-0.024,0.069-0.034,0.111-0.029
				c0.07,0.013,0.126,0.068,0.149,0.133c0.07-0.091,0.163-0.167,0.268-0.219c0.065-0.029,0.135-0.053,0.207-0.063
				c-0.025-0.047-0.05-0.095-0.055-0.149c-0.009-0.091,0.072-0.164,0.153-0.192c0.085-0.03,0.162,0.012,0.209,0.082
				c0.025,0.039,0.041,0.079,0.035,0.126c-0.007,0.05-0.034,0.102-0.068,0.139c0.099,0.02,0.19,0.059,0.271,0.117
				c0.046,0.033,0.089,0.074,0.119,0.121c0.101,0.001,0.199,0.031,0.272,0.101c0.07,0.071,0.122,0.219,0.04,0.301
				c0.109,0.043,0.221,0.131,0.294,0.225c0.001-0.034,0.011-0.063,0.038-0.085c0.1-0.066,0.215,0.021,0.25,0.115
				c0.038,0.104-0.019,0.214-0.14,0.185c-0.021-0.005-0.038-0.014-0.054-0.027c0.016,0.053,0.025,0.106,0.034,0.162
				c0.011,0.084-0.008,0.176-0.052,0.248c-0.017,0.026-0.035,0.048-0.061,0.065c0.01,0.053,0.014,0.107,0.009,0.162
				c-0.012,0.172-0.099,0.396-0.303,0.394c-0.052-0.004-0.079-0.026-0.124-0.039c-0.005,0.074-0.021,0.146-0.038,0.217
				c-0.014,0.064-0.031,0.127-0.052,0.188c0.041,0.015,0.088,0.021,0.118,0.057c0.018,0.031,0.017,0.051,0,0.082
				c-0.019,0.027-0.042,0.04-0.073,0.045c-0.036,0-0.076-0.011-0.108-0.021c-0.01,0.021-0.02,0.041-0.029,0.063
				C24.101,14.729,24.137,14.741,24.166,14.769"/>
			<path fill-rule="evenodd" clip-rule="evenodd" fill="#FFD300" d="M24.002,14.04c0,0.311-0.151,0.604-0.306,0.859
				c-0.039,0.063-0.145,0.218-0.196,0.266c-0.021,0.021-0.047-0.216-0.052-0.258c-0.017-0.196-0.108-0.449-0.187-0.624
				c-0.036-0.081-0.078-0.118-0.064-0.185c0.006-0.025,0.041-0.069,0.059-0.103c0.029-0.053,0.054-0.126,0.047-0.205
				c-0.004-0.056,0.146,0.037,0.16,0.052c0.047,0.045,0.08,0.079,0.161,0.113C23.718,14.339,23.7,14.428,24.002,14.04"/>
			<path fill-rule="evenodd" clip-rule="evenodd" fill="#D4A00F" d="M23.158,13.992c0.013,0.015,0.03,0.045,0.03,0.055
				c-0.002,0.031-0.068,0.027-0.087,0.021c-0.009-0.002-0.04-0.086-0.041-0.09c-0.002-0.022,0.015-0.033,0.032-0.026
				C23.122,13.961,23.142,13.973,23.158,13.992 M23.753,14.849c-0.018-0.017-0.103-0.076-0.113-0.094
				c-0.004-0.008,0.023-0.053,0.028-0.062c0.009-0.013,0.019-0.033,0.026-0.048c0.004-0.008,0.009,0.004,0.019,0.01
				c0.031,0.021,0.079,0.058,0.12,0.083c0.004,0.004,0.017,0.01,0.008,0.024c-0.012,0.021-0.041,0.066-0.055,0.094
				C23.778,14.869,23.765,14.855,23.753,14.849 M23.652,14.503c-0.045-0.03-0.087-0.078-0.125-0.124c0-0.02,0.037-0.114,0.052-0.118
				c0.017-0.016,0.048,0.021,0.06,0.033c0.022,0.018,0.048,0.037,0.067,0.06c0.004,0.004,0.009,0.017,0.009,0.025
				c0.001,0.032-0.021,0.075-0.035,0.104C23.666,14.506,23.662,14.504,23.652,14.503 M23.74,14.574
				c-0.005-0.006-0.007-0.012-0.004-0.02c0.02-0.042,0.022-0.043,0.034-0.087c0.004-0.012,0.004-0.032,0.013-0.04
				c0.004-0.005,0.006-0.004,0.012-0.002c0.014,0.007,0.039,0.028,0.071,0.05c0.023,0.016,0.052,0.031,0.077,0.045
				c0.008,0.004,0.017,0.008,0.009,0.026c-0.017,0.035-0.034,0.071-0.06,0.119c-0.007,0.009-0.011,0.017-0.025,0.008
				C23.829,14.651,23.761,14.605,23.74,14.574 M23.215,14.104c0.061,0.143,0.166,0.412,0.216,0.597
				c0.042,0.13,0.105,0.386,0.082,0.509c-0.001,0.006-0.008,0.035,0.001,0.032c0.016-0.003,0.031-0.024,0.04-0.035
				c0.064-0.088,0.122-0.179,0.182-0.267c0.014-0.022,0.005-0.026-0.016-0.039c-0.026-0.019-0.064-0.05-0.086-0.067
				c-0.017-0.012-0.034-0.037-0.04-0.031c-0.035,0.039-0.049,0.047-0.069,0.045c-0.022-0.001-0.009-0.026,0-0.039
				c0.01-0.013,0.016-0.023,0.023-0.037c0.004-0.006-0.002-0.016-0.01-0.023c-0.012-0.018-0.022-0.029-0.05-0.059
				c-0.021-0.023-0.041-0.072,0.002-0.057c0.004,0.005,0.02,0.017,0.027,0.022c0.027,0.022,0.026,0.032,0.055,0.053
				c0.007,0.007,0.029-0.026,0.04-0.053c0.004-0.015,0.021-0.043,0.021-0.054c0-0.007-0.011-0.018-0.016-0.021
				c-0.054-0.042-0.089-0.096-0.131-0.129c-0.013-0.009-0.022,0.013-0.032,0.026c-0.024,0.035-0.053,0-0.039-0.031
				c0.008-0.015,0.021-0.041,0.019-0.055c-0.003-0.017-0.081-0.109-0.089-0.12c-0.018-0.021-0.021-0.062-0.009-0.076
				c0.013-0.02,0.055,0.041,0.066,0.055c0.021,0.023,0.035,0.049,0.062,0.063c0.004,0.001,0.008-0.004,0.012-0.008
				c0.01-0.02,0.05-0.111,0.046-0.116c-0.007-0.009-0.013-0.013-0.021-0.021c-0.039-0.044-0.063-0.06-0.1-0.108
				c-0.016-0.021-0.027-0.049-0.013-0.065c0.014-0.018,0.029,0.01,0.051,0.037c0.034,0.045,0.062,0.073,0.104,0.104
				c0.017,0.01,0.031-0.03,0.039-0.04c0.004-0.003,0.016-0.013,0.025-0.008c0.008,0.005,0.018,0.017,0.016,0.041
				c-0.001,0.017-0.009,0.027-0.015,0.048c0.014,0.015,0.094,0.083,0.125,0.114c0.011,0.009,0.018-0.007,0.021-0.017
				c0.014-0.043,0.075-0.035,0.071,0.001c-0.004,0.023-0.012,0.045-0.019,0.063c-0.003,0.013,0.037,0.039,0.059,0.056
				c0.009,0.01,0.115,0.078,0.12,0.07c0.016-0.033,0.052-0.142,0.063-0.186c0.021-0.098,0.026-0.153,0.022-0.182
				c-0.005-0.029-0.012-0.054-0.007-0.071c0.014-0.043,0.064-0.043,0.09-0.048c0.037-0.006,0.055,0.02,0.023,0.209
				c-0.022,0.111-0.042,0.204-0.08,0.31c-0.003,0.005-0.005,0.01-0.006,0.016c-0.003,0.007,0.029,0.018,0.04,0.022
				c0.017,0.007,0.039,0.012,0.058,0.02c0.015,0.004,0.05,0.012,0.044,0.034c-0.009,0.02-0.025,0.026-0.045,0.025
				c-0.034-0.004-0.08-0.019-0.105-0.03c-0.011-0.005-0.013-0.014-0.025,0.013c-0.017,0.035-0.04,0.092-0.054,0.116
				c-0.004,0.012-0.006,0.019-0.002,0.023c0.024,0.024,0.103,0.047,0.122,0.068c0.017,0.017-0.017,0.042-0.039,0.042
				c-0.016,0-0.072-0.018-0.114-0.04c-0.008-0.006-0.009-0.004-0.017,0.011c-0.016,0.027-0.041,0.082-0.052,0.098
				c-0.015,0.02-0.016,0.026-0.004,0.031c0.008,0.005,0.016,0.011,0.026,0.021c0.006,0.006-0.001,0.027-0.018,0.027
				c-0.01,0.001-0.027-0.003-0.037-0.008c-0.007-0.004-0.011,0.002-0.016,0.01c-0.049,0.085-0.103,0.167-0.156,0.25
				c-0.035,0.05-0.069,0.103-0.106,0.152c-0.048,0.061-0.118,0.17-0.191,0.196c-0.035,0.013-0.068-0.021-0.059-0.057
				c0.019-0.063,0.112-0.17,0.121-0.218c-0.007-0.026-0.007-0.048-0.006-0.075c0.006-0.238-0.101-0.477-0.169-0.669
				c-0.041-0.12-0.086-0.237-0.135-0.355c-0.004-0.009-0.034-0.076-0.038-0.084L23.215,14.104z"/>
			<path fill-rule="evenodd" clip-rule="evenodd" fill="#D4A00F" d="M23.431,12.522c0.049-0.02,0.101-0.019,0.111-0.079
				c0.011-0.059-0.043-0.107-0.087-0.136c-0.063-0.038-0.163,0.01-0.169,0.084c-0.002,0.041,0.008,0.089,0.044,0.112
				C23.373,12.531,23.388,12.538,23.431,12.522 M22.715,12.579c-0.026,0.002-0.056-0.038-0.066-0.059
				c-0.026-0.057-0.058-0.146-0.026-0.203c0.033-0.061,0.096-0.105,0.163-0.061c0.04,0.028,0.068,0.075,0.072,0.123
				c0.002,0.048-0.018,0.095-0.062,0.118c-0.013,0.007-0.025,0.004-0.039-0.002c-0.011-0.003-0.03-0.03-0.043-0.025
				c-0.003,0.001-0.002,0.007-0.001,0.013c0.003,0.01,0.01,0.021,0.015,0.03c0.008,0.017,0.014,0.03,0.011,0.047
				C22.736,12.573,22.725,12.578,22.715,12.579 M22.992,13.606c0.014-0.037,0.032-0.087,0.074-0.097
				c0.024-0.006,0.046,0.013,0.051,0.038c0.011,0.052-0.028,0.108-0.076,0.125C23.005,13.685,22.98,13.636,22.992,13.606
				 M23.812,13.37c0.009-0.01,0.001-0.023,0.009-0.028c0.012-0.006,0.028,0.002,0.046,0c0.029-0.004,0.045-0.032,0.009-0.077
				c-0.034-0.043-0.082-0.036-0.114-0.006c-0.043,0.04-0.023,0.09-0.008,0.103C23.766,13.372,23.794,13.395,23.812,13.37
				 M22.487,13.187c-0.052-0.008-0.114-0.023-0.128-0.08c-0.006-0.023,0.003-0.054,0.013-0.074c0.016-0.036,0.05-0.065,0.086-0.072
				c0.012-0.004,0.024-0.004,0.036-0.001c0.025,0.004,0.051,0.021,0.063,0.043c0.026,0.043,0.034,0.079,0.036,0.128
				c0.002,0.013,0.011,0.024,0.006,0.036c-0.006,0.016-0.02,0.019-0.035,0.02C22.539,13.187,22.512,13.19,22.487,13.187
				 M22.482,13.115c-0.04-0.004-0.073-0.009-0.065-0.055c0.003-0.014,0.015-0.033,0.026-0.04c0.004-0.002,0.011-0.003,0.015-0.001
				c0.025,0.014,0.042,0.062,0.034,0.087C22.491,13.11,22.487,13.116,22.482,13.115 M23.457,12.044
				c-0.014-0.004-0.024-0.011-0.03-0.023c-0.022-0.045-0.048-0.087-0.054-0.138c-0.002-0.009-0.002-0.019,0-0.029
				c0.008-0.038,0.033-0.056,0.062-0.08c0.012-0.012,0.028-0.019,0.044-0.026s0.035-0.011,0.055-0.009
				c0.033,0.003,0.063,0.019,0.085,0.044c0.019,0.023,0.035,0.052,0.042,0.082c0.008,0.042-0.02,0.092-0.043,0.125
				c-0.015,0.021-0.038,0.042-0.062,0.05C23.53,12.049,23.484,12.053,23.457,12.044 M23.482,11.989c-0.02,0-0.035-0.037-0.039-0.051
				c-0.012-0.036,0-0.077,0.024-0.105c0.021-0.021,0.088-0.055,0.104-0.012c0.006,0.012,0.006,0.026,0.001,0.039
				c-0.011,0.029-0.024,0.058-0.038,0.087C23.524,11.965,23.507,11.99,23.482,11.989 M24.351,13.767
				c-0.021-0.016-0.035-0.046-0.02-0.068c0.005-0.009,0.013-0.016,0.019-0.021c0.013-0.01,0.029-0.014,0.046-0.012
				c0.015,0.001,0.027,0.008,0.035,0.02c0.01,0.013,0.018,0.03,0.003,0.041c-0.009,0.009-0.023,0.013-0.031,0.021
				c-0.007,0.009-0.01,0.021-0.022,0.026C24.369,13.777,24.36,13.774,24.351,13.767 M24.779,13.047
				c-0.037-0.026-0.069-0.075-0.075-0.111c-0.005-0.026-0.008-0.073,0.022-0.082c0.021-0.005,0.043-0.003,0.061,0
				c0.032,0.008,0.056,0.03,0.074,0.058c0.015,0.021,0.03,0.051,0.033,0.078c0.001,0.023-0.01,0.059-0.037,0.067
				C24.828,13.067,24.805,13.065,24.779,13.047"/>
			<path fill-rule="evenodd" clip-rule="evenodd" fill="#BF3038" d="M23.574,13.93c0.025-0.008,0.055,0.008,0.062,0.013
				c0.07,0.058,0.077,0.116,0.093,0.252c0.01,0.083,0.034,0.064,0.075,0.017c0.103-0.113,0.071-0.17,0.144-0.229
				c0.051-0.042,0.013-0.131,0.061-0.157c0.071-0.038,0.13,0.033,0.189,0.062c0.12,0.058,0.226,0.066,0.291-0.074
				c0.027-0.059,0.081-0.258,0.011-0.295c-0.086-0.045-0.257-0.082-0.296-0.188c-0.029-0.084-0.076-0.216,0.047-0.245
				c0.089-0.021,0.12-0.031,0.204,0.018c0.048,0.028,0.097,0.098,0.095,0.16c-0.001,0.064-0.086,0.086-0.145,0.053
				c-0.035-0.021-0.046-0.043-0.072-0.075c-0.011-0.015-0.026-0.038-0.049-0.032c-0.022,0.005-0.04,0.049-0.034,0.069
				c0.006,0.021,0.035,0.033,0.056,0.042c0.084,0.042,0.136,0.098,0.239,0.091c0.102-0.009,0.113-0.17,0.096-0.221
				c-0.038-0.12-0.073-0.206-0.174-0.287c-0.049-0.04-0.135-0.088-0.193-0.112c-0.054-0.023-0.142-0.032-0.143-0.017
				c-0.005,0.091-0.06,0.204-0.11,0.275c-0.164,0.232-0.419,0.134-0.629,0.027c-0.075-0.038-0.163-0.137-0.197-0.192
				c-0.041-0.068-0.053-0.153,0.006-0.212c0.03-0.03,0.075-0.055,0.111-0.071c0.074-0.036,0.146-0.034,0.224-0.009
				c0.099,0.031,0.163,0.08,0.191,0.138c0.01,0.019,0.034,0.064,0.042,0.11c0.013,0.066,0.004,0.11-0.082,0.119
				c-0.05,0.005-0.125-0.016-0.145-0.068c-0.007-0.015-0.034-0.095,0-0.095c0.019,0,0.092,0.075,0.108,0.038
				c0.019-0.043-0.016-0.09-0.043-0.118c-0.08-0.083-0.284-0.043-0.339,0.053c-0.081,0.147,0.137,0.225,0.245,0.261
				c0.058,0.018,0.115,0.035,0.176,0.042c0.064,0.008,0.131-0.018,0.185-0.06c0.07-0.055,0.143-0.172,0.15-0.26
				c0.004-0.035,0.003-0.083-0.003-0.146c-0.005-0.045-0.009-0.086-0.028-0.128c-0.01-0.021-0.021-0.067-0.035-0.06
				c-0.014,0.008-0.039,0.031-0.054,0.05c-0.019,0.023-0.047,0.066-0.069,0.028c-0.01-0.019-0.007-0.034,0.006-0.057
				c0.018-0.028,0.04-0.047,0.066-0.065c0.009-0.008,0.023-0.014,0.021-0.018c-0.03-0.068-0.163-0.139-0.229-0.162
				c-0.213-0.077-0.429-0.043-0.607,0.099c-0.076,0.063-0.147,0.144-0.189,0.234c-0.028,0.061-0.043,0.13-0.044,0.196
				c0,0.008-0.004,0.012,0.006,0.015c0.017,0.006,0.055,0.015,0.106,0.047c0.094,0.058,0.07,0.123,0.029,0.093
				c-0.008-0.003-0.084-0.036-0.116-0.042c-0.014-0.003-0.019-0.003-0.019,0.011c0.007,0.105,0.043,0.226,0.092,0.319
				c0.011,0.023,0.055,0.096,0.057,0.08c0.003-0.077,0.054-0.136,0.132-0.144c0.112-0.012,0.188-0.019,0.285,0.051
				c0.054,0.037,0.091,0.082,0.109,0.15c0.015,0.056,0.012,0.104-0.063,0.113c-0.047,0.006-0.098,0.004-0.131-0.008
				c-0.039-0.017-0.098,0.009-0.107-0.048c-0.032-0.19,0.197,0.066,0.221-0.041c0.007-0.029-0.006-0.05-0.024-0.07
				c-0.066-0.076-0.271-0.074-0.337-0.004c-0.007,0.007-0.031,0.034-0.011,0.082c0.011,0.025,0.059,0.047,0.016,0.068
				c-0.036,0.019-0.076-0.034-0.098-0.055c-0.107-0.103-0.156-0.272-0.183-0.416c-0.006-0.029-0.018-0.083-0.02-0.093
				c0-0.008-0.059,0.008-0.083,0.018c-0.061,0.02-0.09,0.07-0.064,0.133c0.036,0.088,0.109,0.159,0.098,0.263
				c-0.016,0.118-0.149,0.15-0.24,0.191c-0.126,0.058-0.186,0.156-0.182,0.295c0.002,0.103,0.163,0.116,0.24,0.109
				c0.13-0.012,0.374-0.118,0.284-0.291c-0.02-0.037-0.093-0.079-0.131-0.056c-0.013,0.006-0.073,0.056-0.064,0.073
				c0.019,0.04,0.096,0.049,0.128,0.062c0.035,0.011-0.029,0.047-0.038,0.063c-0.005,0.011-0.006,0.022-0.018,0.027
				c-0.048,0.025-0.128-0.009-0.146-0.06c-0.035-0.098-0.01-0.217,0.087-0.271c0.037-0.021,0.062-0.001,0.096,0.02
				c0.096,0.054,0.218,0.158,0.198,0.283c-0.002,0.02-0.011,0.041-0.021,0.062c-0.037,0.071-0.133,0.127-0.199,0.164
				c-0.185,0.072-0.431,0.048-0.487-0.172c-0.012-0.091-0.014-0.18,0.021-0.266c0.052-0.095,0.142-0.171,0.244-0.204
				c0.051-0.024,0.113-0.05,0.136-0.103c0.01-0.024,0.008-0.036-0.005-0.059c-0.048-0.085-0.1-0.172-0.062-0.271
				c0.037-0.074,0.108-0.104,0.188-0.11c0.019,0.001,0.019-0.001,0.02-0.02c0.008-0.051,0.019-0.1,0.031-0.149
				c0.06-0.174,0.17-0.311,0.332-0.402c0.143-0.077,0.317-0.102,0.479-0.068c0.146,0.029,0.287,0.108,0.367,0.236
				c0.035,0,0.07,0,0.104,0.009c0.109,0.021,0.203,0.086,0.219,0.19c0.008,0.04,0.006,0.098-0.036,0.118
				c-0.063,0.033-0.137-0.005-0.134-0.078c0.001-0.016,0.002-0.026,0.015-0.037c0.017-0.012,0.029,0.008,0.046,0.009
				c0.005,0.001,0.011-0.014,0.011-0.018c0.001-0.06-0.049-0.09-0.098-0.11c-0.035-0.015-0.108-0.024-0.097-0.007
				c0.01,0.013,0.021,0.038,0.026,0.056c0.017,0.049,0.029,0.095,0.034,0.146c0.003,0.025,0.006,0.051,0.012,0.075
				c0.003,0.01,0.015,0.009,0.024,0.009c0.156-0.001,0.268,0.055,0.394,0.164c0.137,0.121,0.166,0.251,0.19,0.4
				c0.014,0.083-0.021,0.228-0.098,0.264c-0.015,0.014-0.018,0.021-0.016,0.044c0.033,0.152,0.004,0.342-0.11,0.458
				c-0.068,0.045-0.139,0.058-0.213,0.014c-0.021-0.012-0.095-0.025-0.112-0.018c-0.032,0.013-0.046,0.042-0.108,0.052
				c-0.034,0.01-0.08-0.03-0.104,0.021c-0.019,0.036-0.015,0.182-0.075,0.182c-0.056,0-0.07,0.075-0.149,0.1
				c-0.017,0.006-0.041,0.004-0.052-0.01c-0.036-0.092-0.027-0.173-0.042-0.251c-0.012-0.034-0.021-0.065-0.045-0.093
				C23.577,13.996,23.511,13.946,23.574,13.93 M23.566,13.89c-0.051,0.025-0.109,0.01-0.13,0c-0.025-0.008-0.047-0.02-0.067-0.042
				c-0.005-0.004-0.008-0.008-0.01-0.012c-0.004-0.006-0.009-0.013-0.014-0.019c0-0.003-0.003-0.005-0.006-0.006
				c-0.007-0.007-0.011,0.002-0.009,0.009c0.006,0.028,0.016,0.067,0.016,0.098c0.001,0.105-0.055,0.185-0.094,0.226
				c-0.048,0.045-0.178,0.059-0.206,0.056c-0.122-0.021-0.205-0.134-0.216-0.255c-0.003-0.041,0.017-0.087,0.06-0.05
				c0.019,0.017,0.028,0.031,0.04,0.055c0.023,0.051,0.038,0.111,0.103,0.116c0.04,0.002,0.134-0.041,0.161-0.064
				c0.038-0.031,0.091-0.096,0.073-0.152c-0.027-0.085-0.072-0.131-0.058-0.221c0.018-0.104,0.075,0.003,0.09-0.003
				c0.092-0.033,0.106,0.005,0.186,0.029c0.039,0.027,0.068,0.067,0.068,0.115c0,0.046,0.097,0.022,0.108-0.014
				c0.021-0.056,0.012-0.114-0.004-0.135c-0.01-0.011-0.018-0.02-0.022-0.017c-0.01,0.008-0.008,0.006-0.01,0.01
				c-0.024,0.025-0.078,0.021-0.085-0.014c-0.001-0.007,0-0.011,0.01-0.021c0.003-0.003,0.016-0.007,0.014-0.013
				c-0.003-0.004-0.022-0.011-0.032-0.012c-0.021-0.002-0.04-0.017-0.038-0.046c0-0.024,0.039-0.029,0.067-0.026
				c0.017,0.004,0.031,0.007,0.042,0.011c0.021,0.002,0.047-0.012,0.064-0.022c0.077-0.04,0.187-0.068,0.272-0.063
				c0.108,0.009,0.269,0.05,0.294,0.175c0.005,0.028-0.006,0.087-0.033,0.132c-0.043,0.069-0.133,0.055-0.168,0.046
				c-0.072-0.02-0.13-0.076-0.097-0.157c0.013-0.032,0.121,0.026,0.128,0.046c0.002,0.004-0.002,0.012,0,0.016
				c0.033,0.058,0.127-0.09,0.074-0.131c-0.072-0.055-0.165-0.055-0.254-0.049c-0.027,0.002-0.129,0.018-0.164,0.052
				c-0.026,0.027-0.015,0.028,0,0.048c0.063,0.08,0.051,0.159,0.008,0.237C23.688,13.897,23.626,13.905,23.566,13.89 M24.413,13.235
				c-0.014-0.012-0.022-0.033-0.034-0.046c-0.009-0.017,0.018-0.017,0.025-0.017c0.017,0,0.036,0.004,0.048,0.012
				c0.012,0.006,0.031,0.048,0.014,0.061C24.446,13.261,24.429,13.251,24.413,13.235 M24.011,13.958
				c0.032-0.032,0.024-0.087,0.049-0.084c0.036,0.006,0.044,0.038,0.04,0.067c-0.002,0.016-0.026,0.046-0.041,0.05
				C24.033,14,24,13.97,24.011,13.958 M23.465,13.778c-0.019,0.001-0.09-0.028-0.094-0.048c-0.012-0.036,0.039-0.038,0.067-0.031
				C23.457,13.702,23.504,13.774,23.465,13.778"/>
			<path fill-rule="evenodd" clip-rule="evenodd" fill="#FFFFFF" d="M17.782,16.058L5.315,16.057l-0.082-0.008
				c-0.149-0.027-0.271-0.082-0.392-0.177L4.784,15.82c-0.114-0.121-0.183-0.248-0.222-0.409c-0.024-0.146-0.021-0.283,0.028-0.424
				c-0.018,0.028-0.038,0.058-0.059,0.087c-0.113,0.145-0.249,0.232-0.42,0.296c-0.264,0.088-0.55,0.099-0.813,0.005l-0.055-0.021
				c-0.186-0.084-0.337-0.209-0.457-0.374c-0.042-0.043-0.083-0.092-0.119-0.141c-0.233-0.328-0.324-0.727-0.359-1.121
				c-0.026-0.341-0.018-0.683,0.035-1.02c0.074-0.434,0.239-0.89,0.588-1.179c0.127-0.103,0.266-0.173,0.427-0.204
				C3.57,11.276,3.811,11.285,4,11.394c0.086-0.114,0.223-0.126,0.355-0.112c0.056,0.007,0.099,0.021,0.151,0.046l0.051,0.037
				l0.052,0.067l0.004,0.027c0.051,0.024,0.078,0.066,0.11,0.11l0.015,0.073c-0.001,0.092-0.002,0.185-0.002,0.276
				c0.068-0.123,0.145-0.229,0.242-0.328l0.072-0.064c0.096-0.073,0.188-0.122,0.304-0.159c0.082-0.019,0.156-0.028,0.239-0.027
				c0.129,0.008,0.239,0.04,0.354,0.101c0.134,0.077,0.243,0.182,0.334,0.306c0.029,0.03,0.056,0.06,0.08,0.092
				c-0.025-0.11-0.023-0.213,0.014-0.321l0.032-0.055l0.07-0.063l0.081-0.019c0.326,0,0.652,0,0.978,0l0.088,0.027
				c0.037,0.04,0.076,0.074,0.093,0.129l0.016,0.004l0.064,0.063l0.028,0.054l0.022,0.079c0.012,0.084,0.009,0.159-0.012,0.242
				l-0.04,0.088l-0.055,0.059l-0.07,0.029l-0.034,0.005c-0.003,0.181-0.004,0.359-0.004,0.538c0.112-0.07,0.24-0.085,0.369-0.063
				l0.077,0.024c0.084,0.038,0.138,0.08,0.195,0.151l0.029,0.049c0.016,0.012,0.031,0.024,0.044,0.039c0-0.271,0-0.544,0-0.815
				c-0.024-0.024-0.04-0.052-0.05-0.084l-0.026-0.012l-0.057-0.061l-0.041-0.089c-0.021-0.095-0.022-0.18,0-0.276l0.014-0.041
				l0.029-0.052l0.063-0.063l0.083-0.026c0.226,0,0.45,0,0.676,0c0.184,0,0.359,0.017,0.534,0.082
				c0.035,0.013,0.067,0.027,0.101,0.044c0.154,0.083,0.28,0.199,0.382,0.339c0.4,0.42,0.473,1.044,0.404,1.598
				c-0.03,0.199-0.082,0.386-0.171,0.564c-0.06,0.11-0.126,0.206-0.211,0.298c-0.049,0.049-0.1,0.093-0.154,0.134h1.181
				c-0.031-0.036-0.059-0.078-0.091-0.11C10.87,14.177,10.78,14,10.758,13.791c-0.008-0.121,0.01-0.228,0.051-0.343
				c0.042-0.105,0.096-0.192,0.174-0.276c0.075-0.076,0.167-0.143,0.271-0.172l-0.004-0.005c-0.127-0.137-0.226-0.283-0.285-0.462
				c-0.071-0.232-0.071-0.482,0.031-0.705c0.066-0.138,0.154-0.249,0.274-0.343c0.098-0.073,0.197-0.12,0.314-0.151
				c0.115-0.026,0.221-0.028,0.335-0.011c0.098,0.02,0.187,0.053,0.278,0.09l0.048-0.027c0.111-0.042,0.231-0.046,0.348-0.018
				l0.047,0.019l0.062,0.045l0.029,0.051l0.011-0.02l0.082-0.065l0.086-0.018h1.488l0.086,0.018l0.08,0.065l0.042,0.077l0.073,0.059
				l0.04,0.072c0.012,0.049,0.019,0.086,0.02,0.135c-0.001,0.037-0.001,0.073-0.001,0.109c0.105-0.191,0.241-0.358,0.432-0.471
				c0.09-0.049,0.175-0.077,0.274-0.095c0.099-0.014,0.188-0.011,0.286,0.008c0.101,0.025,0.184,0.06,0.271,0.114
				c0.107,0.073,0.197,0.163,0.273,0.27l0.01,0.008c-0.011-0.087,0.004-0.162,0.038-0.243l0.035-0.052l0.064-0.051l0.077-0.023
				h0.655c0.127,0.005,0.235,0.052,0.302,0.162l0.044-0.082l0.066-0.058l0.08-0.022c0.254,0,0.507,0,0.762,0l0.09,0.037l0.03,0.036
				l0.036-0.038l0.086-0.035h1.884l0.053,0.007l0.057,0.019l0.054,0.034l0.046,0.047l0.035,0.068l0.034,0.021l0.045,0.047
				l0.031,0.052c0.015,0.046,0.022,0.083,0.025,0.13c0.005,0.269,0.012,0.536,0.015,0.804c0,0.039-0.005,0.07-0.015,0.106
				l-0.025,0.058l-0.054,0.06l-0.075,0.039c-0.086,0.012-0.169,0.011-0.255,0.009v0.887c0.059,0,0.111,0.001,0.168,0.009
				l0.075,0.039c0.03,0.034,0.069,0.072,0.08,0.118l0.035,0.019l0.053,0.058l0.026,0.059c0.01,0.036,0.015,0.068,0.016,0.106
				c-0.005,0.299-0.016,0.599-0.02,0.897c-0.001,0.042-0.006,0.078-0.016,0.119l-0.018,0.043l-0.027,0.045l-0.039,0.039
				l-0.045,0.026c-0.042,0.017-0.074,0.024-0.12,0.032l-0.068,0.004h-1.825l-0.08-0.021c-0.046-0.039-0.088-0.068-0.109-0.127
				c0.005,0.197-0.063,0.376-0.186,0.531l-0.053,0.058c-0.12,0.115-0.246,0.183-0.408,0.222
				C17.889,16.051,17.837,16.057,17.782,16.058"/>
			<path fill-rule="evenodd" clip-rule="evenodd" fill="#BF3038" d="M8.393,14.322c-0.041,0.001-0.047-0.243,0-0.247
				C8.43,14.069,8.5,14.067,8.527,14.04c0.018-0.022,0.018-0.062,0.019-0.088c0-0.674-0.001-1.347-0.001-2.021
				c-0.006-0.063-0.013-0.081-0.076-0.096c-0.025-0.005-0.051-0.007-0.076-0.012c-0.049-0.004-0.053-0.245,0-0.246
				c0.222,0,0.443-0.001,0.665,0c0.252,0.002,0.482,0.039,0.678,0.209c0.402,0.349,0.475,0.965,0.416,1.464
				c-0.039,0.326-0.159,0.655-0.424,0.865c-0.186,0.147-0.414,0.207-0.648,0.207H8.393z M9.136,13.983
				c0.005,0.053-0.002,0.075,0.056,0.082c0.271,0.008,0.293-0.304,0.311-0.506c0.022-0.251,0.025-0.505,0.023-0.758
				c-0.001-0.18-0.008-0.359-0.029-0.537c-0.018-0.142-0.047-0.361-0.205-0.42c-0.139-0.039-0.155,0.001-0.155,0.12v1.988
				C9.136,13.961,9.136,13.976,9.136,13.983"/>
			<path fill-rule="evenodd" clip-rule="evenodd" fill="#BF3038" d="M6.427,12.951c0,0.432-0.111,0.924-0.435,1.234
				c-0.098,0.093-0.224,0.161-0.359,0.177c-0.436,0.055-0.721-0.389-0.838-0.748c-0.125-0.39-0.129-0.845-0.027-1.236
				c0.097-0.368,0.358-0.84,0.795-0.84c0.408,0,0.666,0.415,0.773,0.76C6.401,12.509,6.427,12.73,6.427,12.951 M5.563,11.791
				c-0.125,0.002-0.16,0.199-0.176,0.292c-0.029,0.18-0.036,0.363-0.042,0.546c-0.006,0.282-0.006,0.567,0.009,0.852
				c0.007,0.128,0.017,0.258,0.043,0.384c0.019,0.087,0.078,0.288,0.212,0.228c0.088-0.039,0.118-0.199,0.133-0.281
				c0.026-0.164,0.035-0.332,0.04-0.498c0.009-0.287,0.009-0.574-0.005-0.859c-0.008-0.137-0.017-0.273-0.044-0.407
				C5.718,11.963,5.677,11.791,5.563,11.791"/>
			<path fill-rule="evenodd" clip-rule="evenodd" fill="#BF3038" d="M7.937,14.322c0.15,0.006,0.182-0.076,0.143-0.182
				c-0.063-0.162-0.123-0.372-0.134-0.404c-0.024-0.078-0.032-0.202,0.077-0.325c0.096-0.11,0.122-0.193,0.135-0.303
				c0.042-0.364-0.553-0.427-0.596,0.076c-0.019,0.191,0.043,0.46,0.149,0.624c0.052,0.079,0.174,0.233,0.029,0.283
				c-0.115,0.041-0.404,0.072-0.416-0.102c0-0.68-0.009-1.358,0-2.039c0-0.03,0.01-0.095,0.047-0.103
				c0.048-0.009,0.084-0.015,0.131-0.021c0.051-0.006,0.057-0.251,0.004-0.25H6.581c-0.057-0.003-0.048,0.25,0,0.246
				c0.024,0.005,0.051,0.006,0.076,0.012c0.061,0.019,0.075,0.031,0.075,0.096c0,0.675,0.001,1.348,0.001,2.021
				c-0.001,0.026-0.001,0.065-0.019,0.088c-0.027,0.027-0.098,0.029-0.134,0.035c-0.045,0.01-0.043,0.245,0,0.247
				C7.031,14.322,7.486,14.309,7.937,14.322"/>
			<path fill-rule="evenodd" clip-rule="evenodd" fill="#BF3038" d="M4.414,13.862c0.05,0,0.054,0.051,0.054,0.077
				c-0.002,0.304-0.021,0.629-0.208,0.88c-0.173,0.231-0.511,0.308-0.79,0.282c-0.297-0.025-0.527-0.196-0.684-0.444
				c-0.256-0.409-0.302-0.939-0.292-1.409c0.01-0.489,0.102-1.04,0.419-1.432c0.114-0.14,0.267-0.255,0.441-0.299
				c0.141-0.036,0.349-0.038,0.484,0.017c0.058,0.022,0.109,0.06,0.162,0.093c0.01,0.006,0.021,0.003,0.03,0
				c0.041-0.014,0.098-0.072,0.134-0.123c0.031-0.049,0.264-0.039,0.262,0.021c-0.004,0.394,0.001,0.714,0.005,1.104
				c0,0.021,0.015,0.109-0.063,0.109H4.189c-0.067-0.005-0.074-0.092-0.08-0.124c-0.056-0.224-0.114-0.425-0.227-0.624
				c-0.044-0.077-0.12-0.196-0.219-0.205c-0.172-0.015-0.232,0.263-0.254,0.379c-0.112,0.604-0.103,1.3-0.04,1.916
				c0.019,0.192,0.059,0.654,0.341,0.68c0.152,0.014,0.268-0.073,0.339-0.202c0.1-0.184,0.112-0.4,0.114-0.607
				c0-0.029,0.001-0.09,0.065-0.088H4.414z"/>
			<path fill-rule="evenodd" clip-rule="evenodd" fill="#D4A00F" d="M9.374,11.972c-0.108-0.022-0.122,0.02-0.122,0.13
				c0,0.639,0,1.275,0,1.915c-0.022,0.004-0.047,0.008-0.068,0.003c-0.001-0.003-0.001-0.008-0.001-0.013
				c-0.001-0.017-0.002-0.036-0.002-0.055c0-0.642-0.001-1.284,0-1.925c0-0.033-0.001-0.066,0-0.101
				c0.002-0.015,0.002-0.033,0.009-0.048c0.008-0.007,0.024-0.005,0.031-0.005c0.023,0.004,0.047,0.007,0.067,0.016
				c0.015,0.008,0.026,0.016,0.04,0.026C9.347,11.934,9.361,11.951,9.374,11.972 M8.507,14.459c-0.017,0-0.028-0.043-0.03-0.093
				h0.603c0.267,0,0.525-0.077,0.725-0.259c0.279-0.254,0.381-0.634,0.403-0.999c0.021-0.316-0.017-0.609-0.128-0.905
				c0.199,0.346,0.232,0.8,0.187,1.183c-0.038,0.326-0.159,0.655-0.424,0.865c-0.185,0.147-0.414,0.208-0.647,0.208H8.507z"/>
			<path fill-rule="evenodd" clip-rule="evenodd" fill="#D4A00F" d="M5.656,11.93c-0.109,0.021-0.141,0.203-0.154,0.289
				c-0.029,0.181-0.038,0.364-0.041,0.546c-0.008,0.283-0.008,0.567,0.008,0.852C5.476,13.744,5.485,13.873,5.512,14
				c0.003,0.013,0.007,0.026,0.011,0.042c-0.015-0.013-0.027-0.032-0.036-0.05c-0.04-0.078-0.056-0.167-0.066-0.254
				c-0.018-0.13-0.024-0.261-0.029-0.394C5.38,13.072,5.383,12.8,5.392,12.527c0.006-0.159,0.016-0.319,0.045-0.476
				c0.012-0.064,0.035-0.173,0.095-0.209c0.042-0.025,0.078,0.004,0.102,0.038C5.643,11.896,5.649,11.913,5.656,11.93 M5.261,14.33
				c0.104,0.058,0.216,0.086,0.335,0.079c0.375-0.021,0.63-0.377,0.749-0.7c0.089-0.242,0.126-0.502,0.126-0.759
				c0-0.277-0.041-0.567-0.151-0.823c0.128,0.228,0.205,0.506,0.215,0.769c0.006,0.124,0.009,0.248,0,0.373
				c-0.02,0.384-0.147,0.786-0.427,1.052c-0.098,0.094-0.224,0.161-0.358,0.179C5.557,14.522,5.394,14.45,5.261,14.33"/>
			<path fill-rule="evenodd" clip-rule="evenodd" fill="#D4A00F" d="M8.052,14.453c0.097,0.004,0.144-0.021,0.155-0.071
				c0.012-0.056-0.026-0.142-0.045-0.193c-0.049-0.142-0.093-0.289-0.101-0.316c-0.025-0.078-0.033-0.201,0.075-0.326
				c0.098-0.109,0.122-0.192,0.135-0.301c0.012-0.093-0.021-0.168-0.072-0.217c0.006,0.075-0.003,0.146-0.026,0.218
				c-0.024,0.073-0.068,0.135-0.118,0.192c-0.032,0.039-0.06,0.081-0.072,0.13c-0.015,0.053-0.01,0.107,0.007,0.158
				c0.039,0.129,0.077,0.258,0.124,0.383c0.026,0.07,0.041,0.139-0.012,0.203c-0.073,0.062-0.162,0.048-0.249,0.046
				c-0.142-0.002-0.282-0.003-0.423-0.002c-0.255,0.002-0.51,0.008-0.765,0.009c0.003,0.05,0.013,0.092,0.03,0.094
				C7.146,14.459,7.602,14.438,8.052,14.453 M7.439,14.066c-0.001-0.659-0.008-1.318,0-1.979c0-0.03,0.011-0.096,0.046-0.104
				c0.048-0.009,0.085-0.014,0.131-0.021c0.052-0.006,0.058-0.25,0.005-0.249H7.587c-0.002,0.028-0.006,0.057-0.015,0.084
				c-0.004,0.018-0.013,0.037-0.025,0.052c-0.021,0.023-0.049,0.021-0.079,0.027c-0.024,0.003-0.048,0.006-0.072,0.011
				c-0.028,0.007-0.027,0.041-0.028,0.064c-0.007,0.679-0.001,1.357,0.001,2.035C7.368,14.03,7.402,14.054,7.439,14.066"/>
			<path fill-rule="evenodd" clip-rule="evenodd" fill="#D4A00F" d="M3.1,15.028c0.352,0.208,0.939,0.154,1.195-0.184
				c0.133-0.174,0.187-0.397,0.205-0.613c0.007-0.078,0.004-0.156,0.01-0.233C4.522,13.996,4.538,13.999,4.542,14
				c0.037,0.007,0.04,0.052,0.04,0.075c-0.001,0.305-0.02,0.629-0.208,0.88c-0.174,0.231-0.51,0.309-0.788,0.283
				C3.396,15.222,3.232,15.147,3.1,15.028 M3.787,11.922c-0.175-0.025-0.239,0.255-0.263,0.378c-0.112,0.604-0.103,1.3-0.04,1.916
				c0.01,0.098,0.024,0.261,0.072,0.403c-0.087-0.131-0.113-0.283-0.133-0.437c-0.063-0.527-0.08-1.077-0.027-1.605
				c0.015-0.148,0.033-0.296,0.063-0.442C3.494,11.972,3.6,11.674,3.787,11.922 M4.469,11.616c0.041,0.008,0.073,0.022,0.072,0.044
				C4.54,11.792,4.54,11.915,4.54,12.035c0.001,0.228,0.004,0.455,0.002,0.682c-0.001,0.04-0.002,0.079-0.003,0.111
				c0,0.034-0.022,0.047-0.058,0.047H4.305c-0.051-0.005-0.067-0.055-0.075-0.093c0.047,0,0.093,0,0.14,0
				c0.025,0,0.051-0.008,0.07-0.025c0.013-0.011,0.022-0.025,0.026-0.041c0.009-0.023,0.011-0.047,0.01-0.071
				c-0.002-0.029-0.002-0.059-0.002-0.089C4.472,12.242,4.467,11.929,4.469,11.616"/>
			<path fill-rule="evenodd" clip-rule="evenodd" fill="#D4A00F" d="M20.646,11.714c0.054,0.007,0.07,0.043,0.071,0.099
				c0.004,0.338,0.009,0.444,0.015,0.782c0,0.03,0.003,0.086-0.052,0.086c-0.092,0-0.067-0.001-0.158,0
				c-0.062,0.002-0.071-0.041-0.077-0.063c-0.002-0.01-0.004-0.02-0.007-0.029c0.037,0,0.075,0,0.112,0c0.01,0,0.021,0,0.032-0.001
				c0.019-0.002,0.039-0.013,0.053-0.027c0.019-0.022,0.024-0.053,0.024-0.082c0.001-0.017,0-0.034,0-0.052L20.646,11.714z
				 M20.045,12.048c-0.008-0.006-0.018-0.011-0.026-0.013c-0.077-0.027-0.197-0.042-0.278-0.028
				c-0.072,0.015-0.057,0.105-0.057,0.165v0.805c-0.022,0.016-0.046,0.027-0.071,0.039v-0.979c-0.001-0.031-0.003-0.062,0.001-0.092
				c0.001-0.014,0.003-0.023,0.016-0.029c0.016-0.004,0.032-0.004,0.048-0.006c0.066-0.002,0.135,0.006,0.199,0.026
				c0.029,0.01,0.058,0.026,0.083,0.042l0.034,0.024c0.019,0.015,0.034,0.028,0.05,0.043C20.043,12.045,20.044,12.046,20.045,12.048
				 M20.236,12.717h0.02c0.055,0.004,0.052,0.048,0.052,0.07v0.599v0.588c0,0.024,0.003,0.067-0.052,0.07h-0.155
				c-0.071-0.001-0.076-0.025-0.078-0.038c-0.002-0.018-0.006-0.036-0.008-0.054c0.043,0,0.085,0.002,0.128,0
				c0.06-0.001,0.094-0.045,0.094-0.104V12.717z M19.684,13.548v1.165l-0.007-0.002l-0.026-0.002l-0.021-0.005
				c-0.015-0.006-0.016-0.033-0.016-0.046c-0.001-0.011-0.001-0.021-0.001-0.032v-1.151c0.038,0.018,0.075,0.039,0.108,0.067
				l0.021,0.018c0.005,0.006,0.009,0.01,0.014,0.017C19.733,13.565,19.709,13.556,19.684,13.548 M20.687,14.099h0.022
				c0.055,0,0.05,0.058,0.05,0.087c-0.004,0.338-0.013,0.473-0.018,0.811c-0.005,0.142,0.017,0.185-0.138,0.185h-1.802
				c-0.026,0.001-0.04-0.041-0.045-0.093h1.675c0.053,0,0.105,0.003,0.155-0.011c0.032-0.01,0.059-0.031,0.069-0.062
				c0.015-0.038,0.013-0.077,0.013-0.118c0.001-0.012,0.001-0.023,0.001-0.036C20.673,14.607,20.684,14.353,20.687,14.099"/>
			<path fill-rule="evenodd" clip-rule="evenodd" fill="#D4A00F" d="M17.316,14.212c0.01,0.001,0.019,0.004,0.03,0.005
				c0.054,0.015,0.057,0.239,0,0.242H16.65c-0.029-0.002-0.047-0.044-0.051-0.094h0.634c0.022-0.002,0.034-0.008,0.05-0.025
				c0.009-0.011,0.018-0.026,0.021-0.041C17.313,14.271,17.316,14.242,17.316,14.212 M17.143,12.865c0,0.37,0,0.741,0,1.111
				c0,0.015,0,0.029,0.002,0.044c-0.015-0.005-0.03-0.011-0.042-0.021c-0.012-0.011-0.016-0.023-0.02-0.038
				c-0.013-0.054-0.012-0.108-0.012-0.163v-1.098C17.096,12.756,17.117,12.811,17.143,12.865 M18.447,11.714
				c0.014,0,0.029-0.001,0.046,0c0.017,0.003,0.025,0.012,0.025,0.023c0,0.05,0.003,0.089-0.002,0.134
				c-0.005,0.048-0.015,0.085-0.034,0.087c-0.052,0.006-0.121,0.014-0.161,0.052c-0.015,0.012-0.02,0.025-0.025,0.041
				c-0.013,0.047-0.016,0.095-0.018,0.144v2.164c0,0.049,0.018,0.146-0.052,0.145c-0.105,0.001-0.101,0.001-0.205,0
				c-0.061,0.001-0.085-0.056-0.099-0.093c0.063,0,0.127,0.001,0.19,0c0.027,0,0.052-0.01,0.069-0.03
				c0.01-0.013,0.019-0.03,0.021-0.046c0.009-0.037,0.005-0.073,0.004-0.111c0-0.699,0.001-1.398,0.001-2.098
				c0-0.051-0.009-0.181,0.027-0.22c0.027-0.022,0.065-0.027,0.099-0.033c0.017-0.004,0.034-0.005,0.051-0.008
				c0.012-0.002,0.026-0.016,0.034-0.026c0.006-0.01,0.011-0.02,0.014-0.031C18.441,11.778,18.447,11.744,18.447,11.714"/>
			<path fill-rule="evenodd" clip-rule="evenodd" fill="#D4A00F" d="M15.654,11.929c-0.107,0.022-0.141,0.205-0.155,0.291
				c-0.027,0.168-0.034,0.339-0.04,0.509c-0.009,0.283-0.009,0.571,0.006,0.855c0.007,0.134,0.016,0.268,0.042,0.398
				c0.003,0.021,0.008,0.04,0.013,0.06c-0.001-0.001-0.001-0.001-0.002-0.001c-0.043-0.047-0.062-0.106-0.075-0.166
				c-0.025-0.112-0.036-0.227-0.045-0.343c-0.016-0.276-0.019-0.555-0.014-0.833c0.005-0.177,0.011-0.355,0.033-0.531
				c0.009-0.072,0.019-0.146,0.042-0.217c0.015-0.038,0.033-0.086,0.071-0.108c0.011-0.006,0.019-0.008,0.032-0.009
				c0.004,0,0.01,0.001,0.016,0.003c0.027,0.009,0.044,0.03,0.059,0.055C15.644,11.904,15.65,11.916,15.654,11.929 M16.536,13.229
				c-0.011,0.263-0.071,0.524-0.189,0.759c-0.141,0.274-0.383,0.542-0.719,0.512c-0.117-0.01-0.22-0.054-0.311-0.12
				c-0.013-0.01-0.044-0.033-0.06-0.05c0.045,0.022,0.089,0.043,0.137,0.057c0.08,0.022,0.163,0.028,0.244,0.019
				c0.104-0.012,0.199-0.054,0.285-0.111c0.075-0.052,0.142-0.118,0.199-0.191c0.111-0.143,0.193-0.308,0.248-0.479
				c0.048-0.151,0.077-0.31,0.089-0.467c0.015-0.185,0.01-0.372-0.015-0.557c-0.019-0.138-0.053-0.274-0.102-0.405
				c-0.008-0.022-0.016-0.042-0.025-0.063c0.138,0.24,0.205,0.52,0.218,0.797C16.54,13.029,16.54,13.13,16.536,13.229"/>
			<path fill-rule="evenodd" clip-rule="evenodd" fill="#D4A00F" d="M13.314,12.297c-0.041,0.114-0.063,0.235-0.084,0.357
				c-0.005,0.027-0.008,0.073-0.047,0.073H13.03c-0.051,0-0.053-0.047-0.051-0.094l0,0h0.047c0.021,0,0.038,0.001,0.058-0.001
				c0.015-0.003,0.023-0.006,0.036-0.016c0.022-0.022,0.029-0.045,0.035-0.075c0.003-0.013,0.004-0.025,0.007-0.038
				c0.028-0.167,0.063-0.338,0.152-0.486V12.297z M13.767,14.459h-0.476c-0.02,0-0.031-0.043-0.035-0.094h0.876
				c0.04-0.005,0.054-0.033,0.065-0.068c0.007-0.029,0.01-0.06,0.011-0.088c0.013,0,0.024,0.002,0.036,0.002
				c0.049,0.002,0.046,0.25,0,0.248H13.767z M14.063,12.17v1.854c-0.014,0-0.028-0.003-0.042-0.007
				c-0.004,0-0.012-0.003-0.016-0.007c-0.013-0.028-0.013-0.063-0.014-0.095l-0.001-1.898C14.021,12.067,14.044,12.117,14.063,12.17
				 M14.469,11.714h0.023c0.061,0,0.049,0.092,0.048,0.117c-0.002,0.149,0.001,0.29,0.004,0.432
				c0.002,0.145,0.005,0.271,0.004,0.431c0,0.023-0.019,0.034-0.043,0.034H14.35c-0.038,0-0.04-0.046-0.044-0.073
				c-0.001-0.007-0.002-0.013-0.004-0.021h0.055c0.017,0,0.031,0.001,0.048-0.001c0.014-0.001,0.028-0.006,0.04-0.015
				c0.011-0.007,0.021-0.019,0.026-0.029c0.012-0.025,0.013-0.046,0.014-0.073l-0.001-0.019c-0.01-0.258-0.016-0.517-0.016-0.775
				L14.469,11.714z"/>
			<path fill-rule="evenodd" clip-rule="evenodd" fill="#D4A00F" d="M11.98,11.918c-0.172-0.059-0.325,0.059-0.279,0.245
				c-0.045-0.062-0.089-0.146-0.078-0.223c0.006-0.046,0.038-0.096,0.08-0.117c0.045-0.022,0.102-0.016,0.147-0.001
				C11.902,11.841,11.946,11.878,11.98,11.918 M12.602,11.685c0.037,0.004,0.066,0.012,0.07,0.026
				c0.006,0.027-0.008,0.433-0.005,0.769c-0.001,0.022-0.001,0.044,0.001,0.066l0,0c0.002,0.047,0.002,0.092,0.004,0.134
				c0,0.029-0.004,0.047-0.047,0.049h-0.197c-0.043-0.002-0.047-0.032-0.052-0.051c-0.002-0.014-0.005-0.027-0.009-0.043h0.135
				c0.037-0.003,0.055-0.003,0.083-0.03c0.014-0.023,0.014-0.034,0.015-0.063c-0.009-0.236-0.004-0.47,0-0.705
				C12.601,11.786,12.601,11.735,12.602,11.685 M11.777,13.406c0.047,0.051,0.076,0.115,0.076,0.186c0,0.099-0.056,0.2-0.183,0.273
				c-0.101,0.057-0.163,0.153-0.148,0.252c-0.018-0.019-0.036-0.045-0.047-0.069c-0.037-0.074-0.035-0.136,0.014-0.205
				c0.025-0.032,0.054-0.057,0.088-0.075c0.079-0.048,0.145-0.107,0.181-0.193C11.778,13.52,11.787,13.462,11.777,13.406
				 M11.875,14.579c-0.221,0-0.48-0.13-0.563-0.211c0.076,0.044,0.146,0.068,0.192,0.082c0.101,0.029,0.192,0.038,0.296,0.036
				c0.145-0.003,0.281-0.031,0.418-0.079c0.122-0.055,0.21-0.11,0.306-0.201c0.132-0.144,0.207-0.315,0.22-0.512
				c0.007-0.085,0.001-0.17-0.015-0.253c-0.01-0.063-0.026-0.123-0.05-0.182c0.035,0.06,0.065,0.121,0.089,0.188
				c0.058,0.179,0.068,0.371,0.019,0.552C12.668,14.401,12.299,14.58,11.875,14.579"/>
			<path fill-rule="evenodd" clip-rule="evenodd" fill="#BF3038" d="M6.308,15.341c-0.01,0.076-0.04,0.135-0.089,0.175
				c-0.049,0.042-0.111,0.063-0.188,0.063c-0.093,0-0.166-0.029-0.222-0.09c-0.057-0.06-0.085-0.138-0.085-0.236
				c0-0.103,0.028-0.184,0.086-0.242c0.058-0.063,0.133-0.092,0.229-0.092c0.077,0,0.139,0.02,0.187,0.06
				c0.05,0.04,0.076,0.096,0.084,0.164H6.158c-0.007-0.029-0.021-0.053-0.041-0.067c-0.021-0.015-0.048-0.023-0.081-0.023
				c-0.047,0-0.082,0.018-0.107,0.053c-0.027,0.036-0.04,0.084-0.04,0.146c0,0.063,0.013,0.109,0.037,0.145
				c0.025,0.034,0.061,0.051,0.105,0.051c0.036,0,0.064-0.009,0.087-0.026s0.035-0.043,0.04-0.077H6.308z"/>
			<path fill-rule="evenodd" clip-rule="evenodd" fill="#BF3038" d="M7.505,15.202h0.119c0.032,0,0.057-0.005,0.072-0.018
				c0.015-0.012,0.022-0.031,0.022-0.057c0-0.024-0.008-0.041-0.021-0.052c-0.015-0.013-0.038-0.017-0.068-0.017H7.505V15.202z
				 M7.346,15.562v-0.629h0.3c0.079,0,0.139,0.015,0.176,0.044c0.038,0.027,0.057,0.072,0.057,0.132
				c0,0.034-0.008,0.064-0.024,0.089c-0.016,0.026-0.041,0.048-0.074,0.064c0.028,0.01,0.046,0.024,0.058,0.042
				c0.012,0.019,0.019,0.051,0.021,0.097c0,0.013,0.001,0.029,0.002,0.052c0.001,0.05,0.011,0.08,0.025,0.086v0.023H7.718
				c-0.009-0.023-0.013-0.053-0.016-0.091c-0.001-0.039-0.002-0.064-0.003-0.073c-0.002-0.025-0.01-0.043-0.024-0.055
				c-0.014-0.011-0.035-0.017-0.063-0.017H7.505v0.235H7.346z"/>
			<polygon fill-rule="evenodd" clip-rule="evenodd" fill="#BF3038" points="8.932,15.562 8.932,14.933 9.408,14.933 9.408,15.063 
				9.092,15.063 9.092,15.173 9.381,15.173 9.381,15.299 9.092,15.299 9.092,15.434 9.419,15.434 9.419,15.562 			"/>
			<path fill-rule="evenodd" clip-rule="evenodd" fill="#BF3038" d="M10.639,15.316h0.137l-0.07-0.217L10.639,15.316z
				 M10.623,14.933h0.176l0.222,0.629h-0.173l-0.037-0.115H10.6l-0.035,0.115h-0.168L10.623,14.933z"/>
			<path fill-rule="evenodd" clip-rule="evenodd" fill="#BF3038" d="M12.027,15.562v-0.629h0.222l0.083,0.306
				c0.006,0.028,0.013,0.055,0.02,0.079c0.006,0.025,0.011,0.05,0.016,0.074c0.005-0.024,0.013-0.052,0.019-0.08
				c0.007-0.029,0.016-0.059,0.023-0.09l0.077-0.289h0.223v0.629h-0.147v-0.279c0-0.019,0.001-0.047,0.001-0.083
				c0.001-0.035,0.002-0.075,0.004-0.122l-0.12,0.484h-0.16l-0.116-0.484c0.001,0.057,0.003,0.106,0.004,0.151
				c0.001,0.043,0.001,0.078,0.001,0.104v0.229H12.027z"/>
			<polygon fill-rule="evenodd" clip-rule="evenodd" fill="#BF3038" points="13.777,15.562 13.777,14.933 14.255,14.933 
				14.255,15.063 13.938,15.063 13.938,15.173 14.227,15.173 14.227,15.299 13.938,15.299 13.938,15.434 14.265,15.434 
				14.265,15.562 			"/>
			<path fill-rule="evenodd" clip-rule="evenodd" fill="#BF3038" d="M15.464,15.202h0.119c0.033,0,0.057-0.005,0.072-0.018
				c0.015-0.012,0.022-0.031,0.022-0.057c0-0.024-0.008-0.041-0.022-0.052c-0.015-0.013-0.038-0.017-0.067-0.017h-0.124V15.202z
				 M15.304,15.562v-0.629h0.301c0.08,0,0.138,0.015,0.176,0.044c0.039,0.027,0.058,0.072,0.058,0.132
				c0,0.034-0.008,0.064-0.025,0.089c-0.016,0.026-0.041,0.048-0.075,0.064c0.028,0.01,0.048,0.024,0.059,0.042
				c0.012,0.019,0.019,0.051,0.021,0.097c0.001,0.013,0.002,0.029,0.003,0.052c0.001,0.05,0.011,0.08,0.025,0.086v0.023h-0.169
				c-0.008-0.023-0.013-0.053-0.014-0.091c-0.001-0.039-0.002-0.064-0.003-0.073c-0.003-0.025-0.011-0.043-0.025-0.055
				c-0.015-0.011-0.034-0.017-0.063-0.017h-0.106v0.235H15.304z"/>
			<polygon fill-rule="evenodd" clip-rule="evenodd" fill="#BF3038" points="17.037,15.562 17.037,15.324 16.82,14.933 17,14.933 
				17.115,15.186 17.23,14.933 17.413,14.933 17.194,15.324 17.194,15.562 			"/>
			<path fill-rule="evenodd" clip-rule="evenodd" fill="#D4A00F" d="M17.779,15.791c0.3,0,0.544-0.243,0.544-0.543
				s-0.244-0.544-0.544-0.544H5.357c-0.3,0-0.544,0.244-0.544,0.544s0.244,0.543,0.544,0.543H17.779z M17.779,15.861
				c0.339,0,0.612-0.275,0.612-0.613c0-0.337-0.273-0.611-0.612-0.611H5.357c-0.338,0-0.612,0.274-0.612,0.611
				c0,0.338,0.274,0.613,0.612,0.613H17.779z"/>
			<path fill-rule="evenodd" clip-rule="evenodd" fill="#BF3038" d="M19.567,13.412v1.214c0.002,0.045,0,0.1,0.047,0.119
				c0.311,0.086,0.636-0.345,0.705-0.584c0.017-0.053,0.027-0.083,0.041-0.137c0.005-0.021,0.013-0.067,0.074-0.063h0.159
				c0.054,0,0.051,0.059,0.051,0.086c-0.005,0.34-0.013,0.474-0.018,0.813c-0.006,0.142,0.017,0.185-0.139,0.185h-1.8
				c-0.07,0-0.056-0.277,0-0.282c0.05-0.007,0.123-0.01,0.161-0.043c0.032-0.029,0.033-0.09,0.033-0.13c0-0.855,0-1.715,0-2.571
				c-0.005-0.114-0.081-0.176-0.194-0.189c-0.047,0.005-0.06-0.244,0-0.252h1.831c0.063,0.004,0.08,0.04,0.082,0.099
				c0.004,0.339,0.01,0.445,0.015,0.784c0,0.027,0.004,0.086-0.051,0.086h-0.159c-0.062,0.005-0.072-0.042-0.075-0.064
				c-0.05-0.219-0.206-0.491-0.427-0.583c-0.077-0.027-0.196-0.041-0.279-0.027c-0.072,0.015-0.058,0.104-0.058,0.165v1.041
				c0.176-0.056,0.287-0.161,0.326-0.372c0.005-0.026,0.01-0.057,0.014-0.085c0.003-0.013,0.008-0.037,0.079-0.039h0.155
				c0.054,0.003,0.052,0.048,0.052,0.07v0.599v0.587c0,0.025,0.002,0.068-0.052,0.071h-0.155c-0.071-0.001-0.076-0.025-0.079-0.038
				c-0.004-0.028-0.009-0.058-0.014-0.085C19.854,13.575,19.743,13.468,19.567,13.412"/>
			<path fill-rule="evenodd" clip-rule="evenodd" fill="#BF3038" d="M17.027,12.494v1.347c0.002,0.054,0.003,0.111,0.023,0.162
				c0.013,0.024,0.029,0.038,0.054,0.05c0.041,0.017,0.083,0.021,0.126,0.028c0.056,0.015,0.059,0.239,0,0.241h-0.694
				c-0.071-0.003-0.071-0.223,0-0.243c0.05-0.008,0.111-0.012,0.152-0.045c0.013-0.011,0.018-0.021,0.024-0.038
				c0.02-0.056,0.021-0.116,0.021-0.176c0-0.631,0-1.264,0-1.896c-0.001-0.018-0.004-0.051-0.02-0.061
				c-0.01-0.008-0.022-0.011-0.033-0.015c-0.05-0.014-0.104-0.018-0.155-0.022c-0.061-0.005-0.069-0.244,0-0.249h0.624
				c0.096,0,0.133,0.046,0.163,0.114l0.559,1.278c0-0.304-0.001-0.607-0.001-0.912c-0.001-0.052-0.003-0.105-0.019-0.153
				c-0.012-0.025-0.022-0.037-0.047-0.051c-0.042-0.019-0.088-0.024-0.133-0.031c-0.049-0.001-0.061-0.245,0-0.245h0.696
				c0.049,0.004,0.046,0.248,0,0.245c-0.053,0.009-0.12,0.014-0.163,0.052c-0.014,0.012-0.018,0.024-0.024,0.041
				c-0.013,0.048-0.016,0.095-0.017,0.143v2.165c0,0.048,0.017,0.146-0.053,0.145h-0.206c-0.066,0.001-0.087-0.069-0.103-0.104
				C17.545,13.674,17.286,13.084,17.027,12.494"/>
			<path fill-rule="evenodd" clip-rule="evenodd" fill="#BF3038" d="M16.426,12.95c-0.002,0.309-0.053,0.625-0.195,0.901
				c-0.141,0.275-0.382,0.543-0.718,0.513c-0.389-0.034-0.629-0.45-0.73-0.784c-0.098-0.326-0.109-0.688-0.055-1.021
				c0.05-0.31,0.183-0.644,0.42-0.857c0.235-0.212,0.574-0.219,0.814-0.011c0.095,0.08,0.172,0.185,0.235,0.292
				C16.366,12.271,16.427,12.62,16.426,12.95 M15.563,11.791c-0.127,0-0.163,0.201-0.18,0.293c-0.025,0.167-0.033,0.338-0.038,0.508
				c-0.01,0.284-0.01,0.572,0.005,0.855c0.008,0.134,0.016,0.269,0.042,0.4c0.016,0.078,0.038,0.165,0.096,0.224
				c0.045,0.047,0.118,0.039,0.159-0.011c0.057-0.069,0.077-0.164,0.092-0.25c0.03-0.177,0.037-0.355,0.043-0.534
				c0.006-0.285,0.006-0.572-0.01-0.855c-0.007-0.132-0.016-0.264-0.043-0.393C15.711,11.947,15.67,11.793,15.563,11.791"/>
			<path fill-rule="evenodd" clip-rule="evenodd" fill="#BF3038" d="M13.653,14.322h-0.477c-0.046,0.002-0.049-0.244,0-0.247
				c0.041-0.004,0.079-0.006,0.118-0.016c0.019-0.005,0.034-0.011,0.044-0.029c0.015-0.037,0.017-0.081,0.018-0.121v-2.024
				c-0.156,0.179-0.203,0.405-0.241,0.634c-0.005,0.028-0.006,0.073-0.045,0.073c-0.069,0-0.085,0-0.155-0.001
				c-0.049,0-0.053-0.047-0.05-0.093c0.012-0.273,0.017-0.523,0.015-0.802c0-0.025-0.013-0.119,0.048-0.119h0.726h0.724
				c0.062,0,0.048,0.094,0.048,0.119c-0.001,0.278,0.005,0.528,0.017,0.802c0.001,0.046-0.001,0.093-0.051,0.093
				c-0.069,0.001-0.086,0.001-0.154,0.001c-0.039,0-0.041-0.045-0.046-0.073c-0.038-0.229-0.084-0.455-0.241-0.634v2.024
				c0,0.04,0.001,0.084,0.018,0.121c0.009,0.019,0.025,0.024,0.043,0.029c0.04,0.01,0.079,0.012,0.12,0.016
				c0.049,0.003,0.045,0.249,0,0.247H13.653z"/>
			<path fill-rule="evenodd" clip-rule="evenodd" fill="#BF3038" d="M11.759,14.443c-0.448,0-0.806-0.349-0.806-0.72
				c0-0.229,0.175-0.541,0.459-0.554c0.179-0.009,0.326,0.128,0.326,0.286c0,0.1-0.054,0.199-0.184,0.273
				c-0.108,0.062-0.172,0.17-0.142,0.276c0.098,0.35,0.622,0.332,0.807-0.012c0.123-0.225-0.112-0.463-0.27-0.617
				c-0.16-0.159-0.342-0.305-0.502-0.461c-0.109-0.108-0.195-0.212-0.259-0.347c-0.093-0.203-0.107-0.43-0.025-0.639
				c0.095-0.212,0.279-0.383,0.538-0.418c0.154-0.017,0.264,0.02,0.401,0.075c0.029,0.011,0.066,0.027,0.096,0.031
				c0.063-0.002,0.09-0.002,0.116-0.045c0.011-0.029,0.23-0.042,0.24,0c0.009,0.034-0.014,0.62,0,0.969
				c0.002,0.03-0.003,0.048-0.045,0.05h-0.198c-0.042-0.002-0.048-0.032-0.051-0.051c-0.041-0.22-0.144-0.668-0.391-0.758
				c-0.072-0.025-0.157-0.026-0.209,0.014c-0.148,0.117-0.072,0.295,0.017,0.408c0.106,0.133,0.232,0.252,0.363,0.365
				c0.114,0.1,0.228,0.196,0.332,0.307c0.126,0.133,0.221,0.266,0.28,0.435c0.057,0.178,0.067,0.371,0.018,0.551
				C12.553,14.265,12.184,14.443,11.759,14.443"/>
			<path fill="#D4A00F" d="M25.315,15.513c0.05,0,0.089,0.015,0.12,0.047c0.031,0.03,0.048,0.073,0.049,0.124
				c-0.001,0.053-0.018,0.094-0.05,0.125c-0.031,0.032-0.069,0.048-0.119,0.048c-0.051,0-0.09-0.016-0.121-0.049
				c-0.032-0.031-0.048-0.073-0.048-0.124s0.017-0.094,0.049-0.124C25.227,15.527,25.267,15.513,25.315,15.513 M25.315,15.551
				c-0.036,0.001-0.065,0.014-0.087,0.039c-0.021,0.024-0.033,0.056-0.033,0.094c0,0.037,0.012,0.069,0.033,0.094
				c0.021,0.026,0.052,0.039,0.09,0.04c0.027,0,0.053-0.012,0.077-0.034c0.025-0.021,0.038-0.054,0.039-0.1
				c0-0.038-0.011-0.068-0.034-0.094C25.38,15.565,25.351,15.552,25.315,15.551 M25.248,15.591h0.066
				c0.051-0.001,0.075,0.019,0.075,0.057c-0.001,0.03-0.014,0.046-0.043,0.048l0.046,0.081h-0.045l-0.042-0.078h-0.019v0.078h-0.039
				V15.591z M25.287,15.623v0.045h0.032c0.009,0.001,0.016-0.001,0.021-0.005c0.006-0.003,0.009-0.009,0.009-0.02
				c0-0.009-0.004-0.016-0.011-0.019c-0.008-0.002-0.015-0.002-0.023-0.002H25.287z"/>
		</g>
	</g>
</g>
</svg>
