<?xml version="1.0" encoding="utf-8"?>
<!-- Generator: Adobe Illustrator 16.0.0, SVG Export Plug-In . SVG Version: 6.00 Build 0)  -->
<!DOCTYPE svg PUBLIC "-//W3C//DTD SVG 1.1//EN" "http://www.w3.org/Graphics/SVG/1.1/DTD/svg11.dtd">
<svg version="1.1" id="Layer_1" xmlns="http://www.w3.org/2000/svg" xmlns:xlink="http://www.w3.org/1999/xlink" x="0px" y="0px"
	 width="28.112px" height="49.567px" viewBox="0 0 28.112 49.567" enable-background="new 0 0 28.112 49.567" xml:space="preserve">
<g>
	<path fill-rule="evenodd" clip-rule="evenodd" fill="#F69121" d="M14.056,0C6.293,0,0,6.293,0,14.056
		c0,6.698,4.684,12.301,10.955,13.713c0.801,0.181,0.747,0.773,0.841,1.61l2.26,20.188l2.229-19.9
		c0.091-0.81,0.061-1.718,0.822-1.887c6.297-1.394,11.006-7.009,11.006-13.725C28.112,6.293,21.819,0,14.056,0"/>
	<path fill-rule="evenodd" clip-rule="evenodd" fill="#FFFFFF" d="M14.056,26.41c6.805,0,12.354-5.55,12.354-12.354
		c0-6.805-5.55-12.354-12.354-12.354c-6.804,0-12.354,5.55-12.354,12.354C1.702,20.86,7.252,26.41,14.056,26.41"/>
	<path fill="#221F1F" d="M5.456,13.073c-0.104-0.141-0.177-0.207-0.272-0.258c-0.093-0.052-0.207-0.08-0.32-0.08
		c-0.237,0-0.409,0.117-0.409,0.283c0,0.134,0.078,0.193,0.33,0.251l0.334,0.079c0.24,0.059,0.396,0.124,0.503,0.214
		c0.138,0.117,0.21,0.282,0.21,0.478c0,0.441-0.379,0.737-0.938,0.737c-0.309,0-0.581-0.079-0.773-0.23
		c-0.098-0.072-0.142-0.12-0.245-0.259L4.24,14.03c0.097,0.142,0.189,0.225,0.323,0.282c0.107,0.049,0.248,0.076,0.375,0.076
		c0.262,0,0.432-0.124,0.432-0.313c0-0.154-0.107-0.24-0.383-0.3l-0.3-0.064c-0.479-0.104-0.685-0.301-0.685-0.654
		c0-0.42,0.351-0.71,0.868-0.71c0.277,0,0.516,0.079,0.719,0.245c0.076,0.064,0.114,0.103,0.217,0.22L5.456,13.073z"/>
	<path fill="#221F1F" d="M6.67,14.709H6.246v-2.293h0.837c0.537,0,0.861,0.286,0.861,0.757c0,0.269-0.121,0.5-0.334,0.641
		c-0.138,0.094-0.276,0.127-0.499,0.127H6.67V14.709z M7.012,13.573c0.326,0,0.484-0.135,0.484-0.418
		c0-0.254-0.141-0.375-0.451-0.375H6.67v0.793H7.012z"/>
	<path fill="#221F1F" d="M8.739,14.708H8.315v-2.293h0.874c0.338,0,0.544,0.076,0.693,0.26c0.103,0.127,0.165,0.306,0.165,0.475
		c0,0.206-0.083,0.385-0.238,0.509c-0.064,0.052-0.105,0.079-0.22,0.131l0.503,0.919H9.616l-0.453-0.85H8.739V14.708z M9.146,13.493
		c0.289,0,0.454-0.134,0.454-0.365c0-0.22-0.162-0.348-0.444-0.348H8.739v0.713H9.146z"/>
	<rect x="10.607" y="12.416" fill="#221F1F" width="0.423" height="2.293"/>
	<polygon fill="#221F1F" points="13.429,14.709 13.047,14.709 12.068,13.139 12.068,14.709 11.67,14.709 11.67,12.416 
		12.073,12.416 13.025,13.965 13.025,12.416 13.429,12.416 	"/>
	<path fill="#221F1F" d="M16.004,14.709h-0.365v-0.196c-0.097,0.082-0.131,0.11-0.196,0.148c-0.131,0.071-0.296,0.116-0.458,0.116
		c-0.616,0-1.063-0.506-1.063-1.201c0-0.72,0.458-1.229,1.104-1.229c0.29,0,0.558,0.11,0.744,0.3c0.1,0.106,0.144,0.175,0.22,0.361
		l-0.396,0.165c-0.11-0.302-0.296-0.447-0.578-0.447c-0.386,0-0.637,0.324-0.637,0.823c0,0.509,0.255,0.83,0.653,0.83
		c0.334,0,0.544-0.2,0.578-0.548h-0.571v-0.372h0.965V14.709z"/>
	<polygon fill="#221F1F" points="18.124,12.794 16.987,12.794 16.987,13.372 17.965,13.372 17.965,13.737 16.987,13.737 
		16.987,14.708 16.563,14.708 16.563,12.415 18.124,12.415 	"/>
	<rect x="18.519" y="12.416" fill="#221F1F" width="0.423" height="2.293"/>
	<polygon fill="#221F1F" points="21.162,12.794 19.957,12.794 19.957,13.339 21.066,13.339 21.066,13.703 19.957,13.703 
		19.957,14.33 21.258,14.33 21.258,14.708 19.534,14.708 19.534,12.415 21.162,12.415 	"/>
	<polygon fill="#221F1F" points="22.112,14.33 23.059,14.33 23.059,14.709 21.688,14.709 21.688,12.416 22.112,12.416 	"/>
	<path fill="#221F1F" d="M23.398,12.416h0.703c0.323,0,0.489,0.03,0.665,0.127c0.096,0.051,0.182,0.124,0.254,0.21
		c0.172,0.203,0.258,0.482,0.258,0.823c0,0.478-0.186,0.847-0.512,1.009c-0.173,0.086-0.383,0.124-0.665,0.124h-0.703V12.416z
		 M24.063,14.33c0.386,0,0.554-0.062,0.651-0.241c0.071-0.131,0.103-0.3,0.103-0.53c0-0.551-0.21-0.765-0.754-0.765h-0.241v1.536
		H24.063z"/>
</g>
</svg>
