<?xml version="1.0" encoding="utf-8"?>
<!-- Generator: Adobe Illustrator 16.0.0, SVG Export Plug-In . SVG Version: 6.00 Build 0)  -->
<!DOCTYPE svg PUBLIC "-//W3C//DTD SVG 1.1//EN" "http://www.w3.org/Graphics/SVG/1.1/DTD/svg11.dtd">
<svg version="1.1" id="Layer_1" xmlns="http://www.w3.org/2000/svg" xmlns:xlink="http://www.w3.org/1999/xlink" x="0px" y="0px"
	 width="96.178px" height="96.178px" viewBox="0 0 96.178 96.178" enable-background="new 0 0 96.178 96.178" xml:space="preserve">
<g>
	<g>
		<path fill="#FFFFFF" d="M48.088,0.342c26.328,0,47.748,21.42,47.748,47.747c0,26.328-21.42,47.748-47.748,47.748
			c-26.327,0-47.747-21.42-47.747-47.748C0.342,21.762,21.762,0.342,48.088,0.342 M48.088,0C21.529,0,0,21.531,0,48.088
			c0,26.559,21.529,48.09,48.088,48.09s48.09-21.531,48.09-48.09C96.178,21.531,74.647,0,48.088,0"/>
	</g>
	<g>
		
			<rect x="-0.132" y="48.112" transform="matrix(0.7436 0.6687 -0.6687 0.7436 44.5529 -19.6965)" fill="#FFFFFF" width="96.175" height="0.25"/>
	</g>
	<g>
		
			<rect x="47.831" y="0.149" transform="matrix(0.669 0.7433 -0.7433 0.669 51.7293 -19.6769)" fill="#FFFFFF" width="0.25" height="96.175"/>
	</g>
</g>
</svg>
