<?xml version="1.0" encoding="utf-8"?>
<!-- Generator: Adobe Illustrator 16.0.0, SVG Export Plug-In . SVG Version: 6.00 Build 0)  -->
<!DOCTYPE svg PUBLIC "-//W3C//DTD SVG 1.1//EN" "http://www.w3.org/Graphics/SVG/1.1/DTD/svg11.dtd">
<svg version="1.1" id="Layer_1" xmlns="http://www.w3.org/2000/svg" xmlns:xlink="http://www.w3.org/1999/xlink" x="0px" y="0px"
	 width="357.311px" height="266.897px" viewBox="0 0 357.311 266.897" enable-background="new 0 0 357.311 266.897"
	 xml:space="preserve">
<g>
	<g opacity="0.3">
		<g>
			<defs>
				<rect id="SVGID_1_" x="9.502" width="274.312" height="245.743"/>
			</defs>
			<clipPath id="SVGID_2_">
				<use xlink:href="#SVGID_1_"  overflow="visible"/>
			</clipPath>
			<path clip-path="url(#SVGID_2_)" fill="#D9D9D8" d="M283.31,148.721c0.321-3.813,0.504-7.667,0.504-11.563
				C283.813,61.407,222.407,0,146.657,0C70.909,0,9.501,61.407,9.501,137.158c0,44.194,20.909,83.501,53.369,108.584h66.679v-23.856
				h42.944v-24.653h43.739V174.17h42.149v-25.449H283.31z"/>
		</g>
	</g>
	<path fill="#9C9C9D" d="M320.514,245.049H45.937c-0.225,0-0.41-0.185-0.41-0.41v-0.614c0-0.226,0.185-0.409,0.41-0.409h274.578
		c0.227,0,0.41,0.184,0.41,0.409v0.614C320.924,244.865,320.741,245.049,320.514,245.049"/>
	<path fill="#9C9C9D" d="M36.794,245.049h-19.54c-0.226,0-0.41-0.184-0.41-0.41v-0.614c0-0.226,0.184-0.409,0.41-0.409h19.54
		c0.225,0,0.41,0.184,0.41,0.409v0.614C37.204,244.866,37.02,245.049,36.794,245.049"/>
	<path fill="#9C9C9D" d="M70.837,78.548H44.276c-0.199,0-0.362-0.163-0.362-0.362v-0.544c0-0.199,0.163-0.362,0.362-0.362h26.561
		c0.199,0,0.362,0.163,0.362,0.362v0.544C71.199,78.385,71.036,78.548,70.837,78.548"/>
	<path fill="#9C9C9D" d="M82.158,71.357H66.432c-0.2,0-0.363-0.163-0.363-0.362v-0.544c0-0.199,0.163-0.362,0.363-0.362h15.726
		c0.199,0,0.362,0.163,0.362,0.362v0.544C82.52,71.194,82.357,71.357,82.158,71.357"/>
	<path fill="#9C9C9D" d="M64.146,71.357h-4.892c-0.199,0-0.362-0.163-0.362-0.362v-0.544c0-0.199,0.163-0.362,0.362-0.362h4.892
		c0.199,0,0.362,0.163,0.362,0.362v0.544C64.508,71.194,64.345,71.357,64.146,71.357"/>
	<path fill="#9C9C9D" d="M250.09,76.604h26.561c0.199,0,0.362-0.163,0.362-0.362v-0.544c0-0.199-0.163-0.362-0.362-0.362H250.09
		c-0.199,0-0.362,0.163-0.362,0.362v0.544C249.728,76.441,249.891,76.604,250.09,76.604"/>
	<path fill="#9C9C9D" d="M238.77,69.413h15.726c0.199,0,0.362-0.163,0.362-0.362v-0.544c0-0.199-0.163-0.362-0.362-0.362H238.77
		c-0.199,0-0.362,0.163-0.362,0.362v0.544C238.407,69.25,238.57,69.413,238.77,69.413"/>
	<path fill="#9C9C9D" d="M256.781,69.413h4.892c0.199,0,0.362-0.163,0.362-0.362v-0.544c0-0.199-0.163-0.362-0.362-0.362h-4.892
		c-0.199,0-0.362,0.163-0.362,0.362v0.544C256.418,69.25,256.582,69.413,256.781,69.413"/>
	<path fill="#9C9C9D" d="M356.903,246.846h-19.541c-0.225,0-0.409-0.185-0.409-0.41v-0.614c0-0.226,0.185-0.41,0.409-0.41h19.541
		c0.225,0,0.408,0.185,0.408,0.41v0.614C357.311,246.662,357.127,246.846,356.903,246.846"/>
	<circle fill="none" stroke="#575757" stroke-miterlimit="10" cx="323.361" cy="216.369" r="4.5"/>
	<circle fill="none" stroke="#575757" stroke-miterlimit="10" cx="40.744" cy="121.86" r="3.292"/>
	<circle fill="none" stroke="#575757" stroke-miterlimit="10" cx="29.549" cy="142.971" r="7.902"/>
	<circle fill="none" stroke="#F68D52" stroke-miterlimit="10" cx="250.757" cy="28.382" r="3.164"/>
	<line fill="none" stroke="#F68D52" stroke-miterlimit="10" x1="221.541" y1="62.4" x2="228.899" y2="62.4"/>
	<line fill="none" stroke="#F68D52" stroke-miterlimit="10" x1="225.22" y1="66.08" x2="225.22" y2="58.721"/>
	<line fill="none" stroke="#F68D52" stroke-miterlimit="10" x1="0" y1="101.907" x2="7.359" y2="101.907"/>
	<line fill="none" stroke="#F68D52" stroke-miterlimit="10" x1="3.68" y1="105.587" x2="3.68" y2="98.228"/>
	<circle fill="none" stroke="#575757" stroke-miterlimit="10" cx="133.09" cy="68.058" r="3"/>
	<path fill="#93D1E5" d="M264.393,230.196H60.439c-3.975,0-0.106-2.646-0.106-6.622v-107.94c0-3.976,3.222-7.199,7.198-7.199
		h189.816c3.975,0,7.198,3.223,7.198,7.199v107.94C264.545,227.55,268.369,230.196,264.393,230.196"/>
	<path fill="#DBF0F6" d="M223.979,171.377H100.854c-1.885,0-3.413-1.528-3.413-3.413v-21.623c0-1.885,1.528-3.413,3.413-3.413
		h123.126c1.885,0,3.413,1.528,3.413,3.413v21.623C227.393,169.849,225.864,171.377,223.979,171.377"/>
	<path fill="#575757" d="M266.41,232.213H58.423v-116.94c0-4.565,3.715-8.28,8.28-8.28h191.559c4.492,0,8.148,3.656,8.148,8.148
		V232.213z M60.44,230.196h203.953V115.141c0-3.381-2.751-6.131-6.131-6.131H66.703c-3.453,0-6.263,2.811-6.263,6.263V230.196z"/>
	<rect x="70.8" y="116.784" fill="#FFFFFF" width="183.233" height="108.964"/>
	<path fill="#575757" d="M254.915,226.631H69.917v-110.73h184.998V226.631z M71.682,224.867h181.469V117.666H71.682V224.867z"/>
	<rect x="70.8" y="126.552" fill="#575757" width="183.233" height="1.764"/>
	<path fill="#EE6B7A" d="M79.376,125.446c-1.696,0-3.075-1.379-3.075-3.075s1.379-3.076,3.075-3.076c1.696,0,3.075,1.38,3.075,3.076
		S81.073,125.446,79.376,125.446"/>
	<path fill="#575757" d="M79.376,125.446c-1.696,0-3.075-1.379-3.075-3.076c0-1.696,1.379-3.075,3.075-3.075
		c1.696,0,3.075,1.379,3.075,3.075C82.452,124.067,81.073,125.446,79.376,125.446 M79.376,120.826c-0.852,0-1.545,0.694-1.545,1.545
		c0,0.852,0.693,1.546,1.545,1.546s1.545-0.694,1.545-1.546C80.921,121.52,80.229,120.826,79.376,120.826"/>
	<path fill="#6DBDEA" d="M86.896,125.446c-1.696,0-3.075-1.379-3.075-3.075s1.379-3.076,3.075-3.076c1.696,0,3.075,1.38,3.075,3.076
		S88.593,125.446,86.896,125.446"/>
	<path fill="#F9A160" d="M94.417,125.446c-1.696,0-3.075-1.379-3.075-3.075s1.379-3.076,3.075-3.076c1.696,0,3.075,1.38,3.075,3.076
		S96.113,125.446,94.417,125.446"/>
	<path fill="#575757" d="M94.417,125.446c-1.696,0-3.075-1.379-3.075-3.076c0-1.696,1.379-3.075,3.075-3.075
		c1.696,0,3.075,1.379,3.075,3.075C97.492,124.067,96.113,125.446,94.417,125.446 M94.417,120.826c-0.852,0-1.545,0.694-1.545,1.545
		c0,0.852,0.693,1.546,1.545,1.546s1.545-0.694,1.545-1.546C95.961,121.52,95.269,120.826,94.417,120.826"/>
	<path fill="#575757" d="M222.725,170.165H98.125c-1.846,0-3.349-1.503-3.349-3.349v-23.097c0-1.846,1.503-3.349,3.349-3.349
		h124.599c1.846,0,3.349,1.503,3.349,3.349v23.097C226.074,168.662,224.57,170.165,222.725,170.165 M98.125,141.716
		c-1.105,0-2.004,0.898-2.004,2.003v23.097c0,1.104,0.899,2.004,2.004,2.004h124.599c1.105,0,2.004-0.899,2.004-2.004v-23.097
		c0-1.104-0.899-2.003-2.004-2.003H98.125z"/>
	<path fill="#575757" d="M122.23,164.767h-13.37c-0.372,0-0.673-0.301-0.673-0.673v-10.28c0-0.371,0.301-0.672,0.673-0.672h0.359
		c-0.002-0.052-0.003-0.104-0.003-0.157c0-4.074,2.839-7.39,6.329-7.39c3.49,0,6.329,3.315,6.329,7.39
		c0,0.054-0.002,0.105-0.004,0.157h0.36c0.372,0,0.673,0.301,0.673,0.672v10.28C122.903,164.466,122.602,164.767,122.23,164.767
		 M109.532,163.422h12.026v-8.936h-0.427c-0.191,0-0.372-0.08-0.5-0.222c-0.127-0.141-0.189-0.33-0.169-0.52l0.023-0.211
		c0.022-0.182,0.044-0.362,0.044-0.55c0-3.334-2.236-6.046-4.984-6.046c-2.748,0-4.984,2.712-4.984,6.046
		c0,0.192,0.023,0.378,0.044,0.563l0.023,0.196c0.02,0.188-0.042,0.378-0.169,0.52c-0.128,0.142-0.309,0.223-0.5,0.223h-0.427
		V163.422z M119.228,154.303h-7.366c-0.341,0-0.628-0.255-0.668-0.592c-0.032-0.269-0.061-0.518-0.061-0.777
		c0-2.955,1.979-5.358,4.412-5.358c2.433,0,4.412,2.403,4.412,5.358c0,0.248-0.027,0.488-0.055,0.727
		C119.862,154,119.569,154.303,119.228,154.303 M112.478,152.958h6.134v-0.024c0-2.214-1.376-4.014-3.067-4.014
		c-1.691,0-3.067,1.8-3.067,4.014V152.958z"/>
	<path fill="#575757" d="M116.883,161.391h-2.701c-0.209,0-0.405-0.098-0.533-0.263c-0.128-0.166-0.171-0.381-0.117-0.582
		l0.581-2.202c-0.243-0.264-0.518-0.682-0.598-1.276c-0.101-0.755,0.29-1.485,0.994-1.861c0.75-0.4,1.643-0.296,2.275,0.262
		c0.396,0.35,0.614,0.793,0.632,1.281c0.024,0.628-0.287,1.186-0.527,1.517l0.641,2.27c0.057,0.202,0.016,0.421-0.111,0.588
		C117.292,161.292,117.093,161.391,116.883,161.391 M115.055,160.045h0.939l-0.485-1.721L115.055,160.045z M115.469,156.311
		c-0.121,0-0.235,0.034-0.327,0.083c-0.079,0.042-0.333,0.202-0.294,0.496c0.059,0.435,0.366,0.646,0.369,0.647
		c0.142,0.085,0.243,0.217,0.292,0.366c0.03-0.096,0.083-0.185,0.156-0.26c0.137-0.145,0.42-0.544,0.407-0.846
		c-0.003-0.079-0.026-0.188-0.179-0.322C115.758,156.356,115.609,156.311,115.469,156.311"/>
	<path fill="#FCB415" d="M141.636,154.289H137.3l3.066-3.066c0.263-0.264,0.263-0.688,0-0.951c-0.263-0.262-0.688-0.262-0.951,0
		l-3.066,3.067V149c0-0.37-0.301-0.672-0.673-0.672c-0.372,0-0.672,0.302-0.672,0.672v4.336l-3.066-3.065
		c-0.262-0.262-0.688-0.262-0.95,0c-0.263,0.263-0.263,0.688,0,0.951l3.066,3.066h-4.336c-0.372,0-0.673,0.302-0.673,0.673
		s0.301,0.673,0.673,0.673h4.335l-3.065,3.065c-0.263,0.262-0.263,0.688,0,0.95c0.131,0.132,0.303,0.198,0.475,0.198
		c0.172,0,0.344-0.066,0.475-0.198l3.066-3.065v4.336c0,0.371,0.3,0.673,0.672,0.673c0.372,0,0.673-0.302,0.673-0.673v-4.338
		l3.066,3.067c0.131,0.132,0.304,0.198,0.476,0.198s0.344-0.066,0.475-0.198c0.263-0.262,0.263-0.688,0-0.95l-3.066-3.065h4.336
		c0.372,0,0.672-0.302,0.672-0.673S142.008,154.289,141.636,154.289"/>
	<path fill="#FCB415" d="M159.487,154.289h-4.336l3.066-3.066c0.263-0.264,0.263-0.688,0-0.951c-0.263-0.262-0.688-0.262-0.951,0
		l-3.066,3.067V149c0-0.37-0.301-0.672-0.673-0.672c-0.372,0-0.672,0.302-0.672,0.672v4.336l-3.066-3.065
		c-0.262-0.262-0.688-0.262-0.95,0c-0.263,0.263-0.263,0.688,0,0.951l3.066,3.066h-4.336c-0.372,0-0.673,0.302-0.673,0.673
		s0.301,0.673,0.673,0.673h4.335l-3.065,3.065c-0.263,0.262-0.263,0.688,0,0.95c0.131,0.132,0.303,0.198,0.475,0.198
		c0.172,0,0.344-0.066,0.475-0.198l3.066-3.065v4.336c0,0.371,0.3,0.673,0.672,0.673c0.372,0,0.673-0.302,0.673-0.673v-4.338
		l3.066,3.067c0.132,0.132,0.304,0.198,0.476,0.198s0.344-0.066,0.475-0.198c0.263-0.262,0.263-0.688,0-0.95l-3.066-3.065h4.336
		c0.372,0,0.672-0.302,0.672-0.673S159.859,154.289,159.487,154.289"/>
	<path fill="#FCB415" d="M177.338,154.289h-4.336l3.066-3.066c0.263-0.264,0.263-0.688,0-0.951c-0.263-0.262-0.688-0.262-0.951,0
		l-3.066,3.067V149c0-0.37-0.301-0.672-0.673-0.672s-0.672,0.302-0.672,0.672v4.336l-3.066-3.065c-0.262-0.262-0.688-0.262-0.95,0
		c-0.263,0.263-0.263,0.688,0,0.951l3.066,3.066h-4.336c-0.372,0-0.673,0.302-0.673,0.673s0.301,0.673,0.673,0.673h4.335
		l-3.065,3.065c-0.263,0.262-0.263,0.688,0,0.95c0.131,0.132,0.303,0.198,0.475,0.198c0.172,0,0.344-0.066,0.475-0.198l3.066-3.065
		v4.336c0,0.371,0.3,0.673,0.672,0.673s0.673-0.302,0.673-0.673v-4.338l3.066,3.067c0.132,0.132,0.304,0.198,0.476,0.198
		s0.344-0.066,0.475-0.198c0.263-0.262,0.263-0.688,0-0.95l-3.066-3.065h4.336c0.372,0,0.673-0.302,0.673-0.673
		S177.71,154.289,177.338,154.289"/>
	<path fill="#FCB415" d="M195.189,154.289h-4.336l3.066-3.066c0.263-0.264,0.263-0.688,0-0.951c-0.262-0.262-0.688-0.262-0.951,0
		l-3.066,3.067V149c0-0.37-0.301-0.672-0.673-0.672s-0.672,0.302-0.672,0.672v4.336l-3.066-3.065c-0.262-0.262-0.688-0.262-0.95,0
		c-0.263,0.263-0.263,0.688,0,0.951l3.066,3.066h-4.336c-0.372,0-0.673,0.302-0.673,0.673s0.301,0.673,0.673,0.673h4.335
		l-3.065,3.065c-0.263,0.262-0.263,0.688,0,0.95c0.131,0.132,0.303,0.198,0.475,0.198c0.172,0,0.344-0.066,0.475-0.198l3.066-3.065
		v4.336c0,0.371,0.3,0.673,0.672,0.673s0.673-0.302,0.673-0.673v-4.338l3.066,3.067c0.132,0.132,0.304,0.198,0.476,0.198
		s0.344-0.066,0.475-0.198c0.263-0.262,0.263-0.688,0-0.95l-3.066-3.065h4.336c0.372,0,0.673-0.302,0.673-0.673
		S195.561,154.289,195.189,154.289"/>
	<path fill="#FCB415" d="M213.04,154.289h-4.336l3.066-3.066c0.263-0.264,0.263-0.688,0-0.951c-0.262-0.262-0.688-0.262-0.951,0
		l-3.066,3.067V149c0-0.37-0.301-0.672-0.673-0.672c-0.372,0-0.672,0.302-0.672,0.672v4.336l-3.066-3.065
		c-0.262-0.262-0.688-0.262-0.95,0c-0.263,0.263-0.263,0.688,0,0.951l3.066,3.066h-4.336c-0.372,0-0.673,0.302-0.673,0.673
		s0.301,0.673,0.673,0.673h4.335l-3.065,3.065c-0.263,0.262-0.263,0.688,0,0.95c0.131,0.132,0.303,0.198,0.475,0.198
		c0.172,0,0.344-0.066,0.475-0.198l3.066-3.065v4.336c0,0.371,0.3,0.673,0.672,0.673c0.372,0,0.673-0.302,0.673-0.673v-4.338
		l3.066,3.067c0.132,0.132,0.304,0.198,0.476,0.198s0.344-0.066,0.475-0.198c0.263-0.262,0.263-0.688,0-0.95l-3.065-3.065h4.335
		c0.372,0,0.672-0.302,0.672-0.673S213.412,154.289,213.04,154.289"/>
	<g opacity="0.3">
		<g>
			<defs>
				<rect id="SVGID_3_" x="38.363" y="231.531" width="248.152" height="13.123"/>
			</defs>
			<clipPath id="SVGID_4_">
				<use xlink:href="#SVGID_3_"  overflow="visible"/>
			</clipPath>
			<path clip-path="url(#SVGID_4_)" fill="#D9D9D8" d="M275.944,244.654H48.688c-5.703,0-10.326-4.623-10.326-10.326v-1.142
				c0-0.914,0.741-1.655,1.655-1.655h244.597c1.05,0,1.9,0.851,1.9,1.899v0.651C286.515,239.92,281.782,244.654,275.944,244.654"/>
		</g>
	</g>
	<path fill="#575757" d="M275.365,245.432H48.956c-6.48,0-11.752-5.272-11.752-11.752v-0.658c0-1.505,1.224-2.73,2.73-2.73h244.452
		c1.647,0,2.987,1.34,2.987,2.986v0.146C287.373,240.045,281.986,245.432,275.365,245.432 M39.934,232.309
		c-0.393,0-0.713,0.32-0.713,0.713v0.658c0,5.367,4.367,9.733,9.735,9.733h226.409c5.509,0,9.991-4.48,9.991-9.989v-0.146
		c0-0.534-0.435-0.969-0.97-0.969H39.934z"/>
	<g opacity="0.66">
		<g>
			<defs>
				<rect id="SVGID_5_" x="95.493" y="178.053" width="129.346" height="22.223"/>
			</defs>
			<clipPath id="SVGID_6_">
				<use xlink:href="#SVGID_5_"  overflow="visible"/>
			</clipPath>
			<rect x="95.493" y="178.053" clip-path="url(#SVGID_6_)" fill="#D9D9D8" width="129.346" height="22.223"/>
		</g>
	</g>
	<rect x="100.417" y="183.235" fill="#575757" width="118.434" height="1.345"/>
	<rect x="100.417" y="188.159" fill="#575757" width="118.434" height="1.346"/>
	<rect x="100.417" y="193.083" fill="#575757" width="118.434" height="1.346"/>
	<path fill="#AED252" d="M170.375,211.615c0,4.791-3.884,8.675-8.675,8.675s-8.675-3.884-8.675-8.675s3.884-8.675,8.675-8.675
		S170.375,206.824,170.375,211.615"/>
	<path fill="#FFFFFF" d="M160.897,214.994c-0.176,0-0.352-0.068-0.484-0.206l-3.406-3.533c-0.258-0.268-0.251-0.693,0.017-0.95
		c0.267-0.259,0.693-0.251,0.951,0.017l2.94,3.05l4.528-4.353c0.268-0.258,0.693-0.25,0.951,0.018
		c0.257,0.269,0.249,0.694-0.018,0.951l-5.013,4.82C161.232,214.932,161.065,214.994,160.897,214.994"/>
	<path fill="#FFFFFF" d="M311.746,262.785l-14.127-18.497c0,0-13.254-8.884-15.875-15.001c-2.622-6.116-7.719-20.826-7.719-20.826
		l4.951-42.383l3.059-5.097c0,0,9.612,6.262,12.815,11.214c3.205,4.952,8.448,12.526,8.448,12.526s4.078,4.223,5.534,14.127
		c1.456,9.903,2.33,23.157,2.33,23.157s-0.874,5.389,3.35,9.903c4.225,4.516,16.021,16.604,16.021,16.604"/>
	<path fill="#575757" d="M311.211,263.193l-14.061-18.408c-1.29-0.872-13.444-9.208-16.026-15.232
		c-2.601-6.068-7.685-20.724-7.737-20.871l-0.05-0.146l0.018-0.153l4.969-42.526l3.492-5.819l0.585,0.381
		c0.397,0.259,9.769,6.397,13.015,11.413c3.04,4.697,7.984,11.856,8.406,12.467c0.463,0.5,4.266,4.862,5.675,14.453
		c1.443,9.816,2.327,23.078,2.337,23.21l0.004,0.075l-0.012,0.075c-0.008,0.052-0.757,5.134,3.178,9.339
		c4.17,4.457,15.893,16.472,16.01,16.593l-0.961,0.938c-0.119-0.121-11.852-12.145-16.03-16.612
		c-4.166-4.452-3.636-9.65-3.536-10.39c-0.07-1.058-0.939-13.64-2.32-23.033c-1.408-9.58-5.313-13.718-5.353-13.758l-0.069-0.085
		c-0.053-0.076-5.285-7.639-8.458-12.543c-2.642-4.083-9.927-9.196-12.039-10.628l-2.62,4.368l-4.918,42.085
		c0.537,1.545,5.208,14.935,7.651,20.637c2.515,5.866,15.501,14.62,15.632,14.708l0.16,0.15l14.127,18.497L311.211,263.193z"/>
	<path fill="#FFFFFF" d="M279.19,222.801h-36.436c-3.509,0-6.354-2.845-6.354-6.354v-70.563c0-3.509,2.845-6.354,6.354-6.354h36.436
		c3.509,0,6.354,2.845,6.354,6.354v70.563C285.544,219.957,282.699,222.801,279.19,222.801"/>
	<path fill="#575757" d="M280.561,223.474h-39.178c-3.118,0-5.655-2.537-5.655-5.655v-73.305c0-3.119,2.537-5.656,5.655-5.656
		h39.178c3.118,0,5.655,2.537,5.655,5.656v73.305C286.216,220.937,283.679,223.474,280.561,223.474 M241.383,140.203
		c-2.376,0-4.31,1.934-4.31,4.312v73.305c0,2.376,1.934,4.311,4.31,4.311h39.178c2.377,0,4.311-1.935,4.311-4.311v-73.305
		c0-2.378-1.934-4.312-4.311-4.312H241.383z"/>
	<rect x="239.063" y="149.223" fill="#FFFFFF" width="43.819" height="65.115"/>
	<path fill="#575757" d="M283.555,215.01H238.39v-66.459h45.165V215.01z M239.735,213.665h42.475v-63.77h-42.475V213.665z"/>
	<path fill="#FCB415" d="M273.053,171.282c0.063-0.594,0.153-1.18,0.153-1.794c0-8.025-5.477-14.531-12.234-14.531
		c-6.757,0-12.235,6.506-12.235,14.531c0,0.614,0.09,1.2,0.153,1.794h-2.378v22.236h28.921v-22.236H273.053z M268.939,170.884
		h-15.935c-0.059-0.495-0.121-0.99-0.121-1.507c0-5.598,3.622-10.137,8.089-10.137c4.467,0,8.089,4.539,8.089,10.137
		C269.062,169.894,268.998,170.389,268.939,170.884"/>
	<path fill="#575757" d="M276.105,194.19h-30.266v-23.581h2.298c-0.04-0.36-0.072-0.732-0.072-1.122
		c0-8.382,5.79-15.202,12.907-15.202c7.116,0,12.907,6.82,12.907,15.202c0,0.39-0.033,0.762-0.072,1.122h2.298V194.19z
		 M247.185,192.844h27.576v-20.891h-2.454l0.126-1.166c0.053-0.447,0.102-0.868,0.102-1.301c0-7.641-5.187-13.857-11.562-13.857
		s-11.562,6.217-11.562,13.857c0,0.432,0.049,0.853,0.1,1.299l0.126,1.168h-2.452V192.844z M268.939,171.558h-16.531l-0.071-0.594
		c-0.066-0.541-0.127-1.048-0.127-1.587c0-5.96,3.931-10.809,8.762-10.809c4.831,0,8.76,4.849,8.76,10.809
		c0,0.533-0.059,1.035-0.117,1.521l-0.071,0.592L268.939,171.558z M253.604,170.212h14.736c0.028-0.279,0.048-0.556,0.048-0.835
		c0-5.219-3.326-9.464-7.416-9.464c-4.089,0-7.417,4.245-7.417,9.464C253.555,169.657,253.575,169.933,253.604,170.212"/>
	<path fill="#DBF0F6" d="M259.511,180.58l-1.486,5.635h5.841l-1.59-5.635c0,0,2.61-2.688,0.415-4.631
		c-1.936-1.712-4.977-0.139-4.666,2.177C258.251,179.817,259.511,180.58,259.511,180.58"/>
	<path fill="#575757" d="M264.754,186.886h-7.603l1.596-6.049c-0.475-0.423-1.208-1.277-1.389-2.622
		c-0.175-1.304,0.508-2.572,1.741-3.231c1.332-0.711,2.917-0.529,4.037,0.46c0.7,0.619,1.071,1.366,1.103,2.218
		c0.052,1.333-0.778,2.54-1.217,3.085L264.754,186.886z M258.897,185.542h4.08l-1.453-5.152l0.269-0.278
		c0.011-0.011,1.15-1.211,1.103-2.402c-0.02-0.476-0.233-0.886-0.651-1.256c-0.845-0.746-1.851-0.635-2.513-0.281
		c-0.583,0.311-1.163,0.964-1.042,1.865c0.18,1.332,1.133,1.944,1.174,1.971l0.418,0.263l-0.121,0.481L258.897,185.542z"/>
	<path fill="#575757" d="M265.067,145.937h-8.327c-0.973,0-1.765-0.792-1.765-1.766c0-0.972,0.792-1.764,1.765-1.764h8.327
		c0.973,0,1.765,0.792,1.765,1.764C266.833,145.145,266.041,145.937,265.067,145.937 M256.741,143.752
		c-0.231,0-0.42,0.188-0.42,0.419c0,0.232,0.189,0.42,0.42,0.42h8.327c0.232,0,0.42-0.188,0.42-0.42c0-0.23-0.188-0.419-0.42-0.419
		H256.741z"/>
	<rect x="248.673" y="199.856" fill="#E0E0DE" width="25.975" height="11.021"/>
	<path fill="#575757" d="M273.519,203.557H249.8c-0.371,0-0.672-0.301-0.672-0.672s0.301-0.673,0.672-0.673h23.719
		c0.372,0,0.672,0.302,0.672,0.673S273.891,203.557,273.519,203.557"/>
	<path fill="#575757" d="M273.519,208.52H249.8c-0.371,0-0.672-0.301-0.672-0.672s0.301-0.673,0.672-0.673h23.719
		c0.372,0,0.672,0.302,0.672,0.673S273.891,208.52,273.519,208.52"/>
	<path fill="#FFFFFF" d="M289.776,233.431c0,0-7.695-9.838-8.084-16.073c-0.39-6.234-0.39-36.139-0.39-36.139
		s-0.699-5.302,5.553-5.358c3.898-0.035,5.747,3.117,5.65,5.455c-0.098,2.338,0,18.995,0,18.995"/>
	<path fill="#575757" d="M289.778,234.103c-0.201,0-0.397-0.089-0.531-0.258c-0.319-0.408-7.829-10.075-8.227-16.445
		c-0.38-6.083-0.39-34.92-0.39-36.145c-0.038-0.361-0.19-2.503,1.251-4.161c1.082-1.244,2.752-1.887,4.967-1.905h0.072
		c2.29,0,3.737,0.996,4.551,1.837c1.132,1.168,1.77,2.782,1.704,4.318c-0.095,2.295,0,18.798,0.001,18.964
		c0.002,0.371-0.297,0.673-0.669,0.676h-0.003c-0.37,0-0.67-0.299-0.674-0.669c-0.002-0.68-0.096-16.7,0.002-19.026
		c0.049-1.158-0.461-2.433-1.327-3.328c-0.632-0.652-1.767-1.427-3.587-1.427h-0.058c-1.806,0.017-3.137,0.498-3.955,1.432
		c-1.151,1.316-0.939,3.149-0.936,3.168l0.005,0.086c0,0.299,0.005,29.955,0.387,36.097c0.374,5.957,7.869,15.604,7.945,15.701
		c0.228,0.292,0.177,0.715-0.116,0.943C290.067,234.057,289.922,234.103,289.778,234.103"/>
	<path fill="#575757" d="M295.689,206.793c-0.132,0-0.267-0.039-0.384-0.121c-3.113-2.168-3.365-4.735-3.375-4.843
		c-0.03-0.37,0.244-0.696,0.615-0.728c0.354-0.026,0.691,0.241,0.726,0.609c0.01,0.093,0.245,2.077,2.803,3.856
		c0.306,0.213,0.38,0.633,0.168,0.938C296.111,206.692,295.902,206.793,295.689,206.793"/>
	<path fill="#575757" d="M286.94,187.947c-2.343,0-4.299-1.839-4.453-4.188l-0.027-2.851h0.068c0.341-2.149,2.178-3.759,4.412-3.759
		c2.468,0,4.479,2.01,4.479,4.479c0,0.052-0.021,2.098-0.021,2.098l-0.006,0.598h-0.074
		C290.917,186.396,289.09,187.947,286.94,187.947 M283.675,181.693l0.019,2.021c0.111,1.682,1.537,3.024,3.246,3.024
		c1.707,0,3.134-1.343,3.248-3.058l0.004-0.078c0.004-0.425,0.02-1.91,0.02-1.974c0-1.804-1.467-3.271-3.271-3.271
		c-1.775,0-3.207,1.393-3.261,3.172L283.675,181.693z M290.815,181.63h0.008H290.815z"/>
	<line fill="none" stroke="#9C9C9D" stroke-miterlimit="10" x1="37.384" y1="256.657" x2="131.676" y2="256.657"/>
	<line fill="none" stroke="#9C9C9D" stroke-miterlimit="10" x1="95.56" y1="266.897" x2="194.425" y2="266.897"/>
	<line fill="none" stroke="#9C9C9D" stroke-miterlimit="10" x1="143.887" y1="254.779" x2="229.408" y2="254.779"/>
	<line fill="none" stroke="#9C9C9D" stroke-miterlimit="10" x1="241.911" y1="254.779" x2="258.87" y2="254.779"/>
	<line fill="none" stroke="#9C9C9D" stroke-miterlimit="10" x1="66.554" y1="266.897" x2="83.513" y2="266.897"/>
	<line fill="none" stroke="#9C9C9D" stroke-miterlimit="10" x1="207.578" y1="266.897" x2="250.39" y2="266.897"/>
	<line fill="none" stroke="#9C9C9D" stroke-miterlimit="10" x1="267.349" y1="254.779" x2="302.286" y2="254.779"/>
	<path fill="#575757" d="M86.896,125.446c-1.696,0-3.075-1.379-3.075-3.076c0-1.696,1.379-3.075,3.075-3.075
		c1.696,0,3.075,1.379,3.075,3.075C89.972,124.067,88.593,125.446,86.896,125.446 M86.896,120.826c-0.852,0-1.545,0.694-1.545,1.545
		c0,0.852,0.693,1.546,1.545,1.546s1.545-0.694,1.545-1.546C88.441,121.52,87.749,120.826,86.896,120.826"/>
	<path fill="#575757" d="M264.38,221.298h-6.952c-1.455,0-2.638-1.185-2.638-2.64s1.183-2.638,2.638-2.638h6.952
		c1.455,0,2.638,1.183,2.638,2.638S265.835,221.298,264.38,221.298 M257.428,217.738c-0.508,0-0.921,0.413-0.921,0.921
		c0,0.51,0.413,0.923,0.921,0.923h6.952c0.508,0,0.921-0.413,0.921-0.923c0-0.508-0.413-0.921-0.921-0.921H257.428z"/>
	<path fill="#575757" d="M161.796,221.706c-5.346,0-9.696-4.351-9.696-9.696c0-5.347,4.35-9.697,9.696-9.697
		c5.347,0,9.697,4.351,9.697,9.697C171.493,217.355,167.143,221.706,161.796,221.706 M161.796,203.712
		c-4.574,0-8.296,3.722-8.296,8.297c0,4.574,3.722,8.296,8.296,8.296c4.575,0,8.297-3.722,8.297-8.296
		C170.093,207.434,166.371,203.712,161.796,203.712"/>
</g>
</svg>
