<?xml version="1.0" encoding="utf-8"?>
<!-- Generator: Adobe Illustrator 16.0.0, SVG Export Plug-In . SVG Version: 6.00 Build 0)  -->
<!DOCTYPE svg PUBLIC "-//W3C//DTD SVG 1.1//EN" "http://www.w3.org/Graphics/SVG/1.1/DTD/svg11.dtd">
<svg version="1.1" id="Layer_1" xmlns="http://www.w3.org/2000/svg" xmlns:xlink="http://www.w3.org/1999/xlink" x="0px" y="0px"
	 width="120.564px" height="21.353px" viewBox="0 0 120.564 21.353" enable-background="new 0 0 120.564 21.353"
	 xml:space="preserve">
<g>
	<g>
		<path fill="#F69121" d="M19.52,8.571c-0.203,0.158-0.301,0.241-0.405,0.317c-1.729,1.258-3.454,2.525-5.197,3.765
			c-0.348,0.247-0.445,0.449-0.3,0.879c0.692,2.037,1.341,4.09,2.005,6.136c0.036,0.112,0.067,0.228,0.135,0.454
			c-0.191-0.134-0.304-0.208-0.413-0.288c-1.774-1.289-3.553-2.574-5.318-3.874c-0.248-0.184-0.41-0.182-0.658,0.001
			c-1.766,1.301-3.544,2.585-5.318,3.873c-0.108,0.079-0.22,0.152-0.41,0.286c0.063-0.213,0.098-0.345,0.14-0.474
			c0.679-2.085,1.348-4.172,2.042-6.251c0.105-0.316,0.035-0.47-0.225-0.656c-1.772-1.269-3.532-2.555-5.295-3.837
			C0.193,8.825,0.092,8.741,0,8.571h0.41c2.193,0,4.387-0.005,6.58,0.006C7.28,8.58,7.411,8.492,7.501,8.21
			c0.665-2.088,1.35-4.17,2.028-6.255C9.57,1.827,9.615,1.701,9.691,1.479c0.078,0.21,0.132,0.337,0.175,0.468
			c0.671,2.059,1.351,4.114,1.999,6.18c0.109,0.348,0.256,0.456,0.611,0.454c2.166-0.017,4.333-0.009,6.499-0.009H19.52z"/>
	</g>
	<g>
		<path fill="#F69121" d="M44.417,8.571c-0.203,0.158-0.302,0.241-0.406,0.317c-1.729,1.258-3.454,2.525-5.196,3.765
			c-0.348,0.247-0.445,0.449-0.299,0.879c0.691,2.037,1.34,4.09,2.004,6.136c0.037,0.112,0.067,0.228,0.135,0.454
			c-0.191-0.134-0.303-0.208-0.413-0.288c-1.774-1.289-3.552-2.574-5.318-3.874c-0.249-0.184-0.409-0.182-0.657,0.001
			c-1.767,1.301-3.545,2.585-5.319,3.873c-0.108,0.079-0.22,0.152-0.41,0.286c0.062-0.213,0.098-0.345,0.14-0.474
			c0.678-2.085,1.349-4.172,2.042-6.251c0.106-0.316,0.034-0.47-0.225-0.656c-1.772-1.269-3.532-2.555-5.295-3.837
			c-0.107-0.077-0.209-0.161-0.302-0.331h0.41c2.194,0,4.388-0.005,6.582,0.006c0.289,0.003,0.42-0.085,0.51-0.367
			c0.664-2.088,1.35-4.17,2.027-6.255c0.042-0.128,0.086-0.254,0.162-0.477c0.079,0.21,0.133,0.337,0.176,0.468
			c0.67,2.059,1.351,4.114,1.998,6.18c0.11,0.348,0.256,0.456,0.611,0.454c2.167-0.017,4.333-0.009,6.5-0.009H44.417z"/>
	</g>
	<g>
		<path fill="#F69121" d="M69.314,8.571c-0.203,0.158-0.301,0.241-0.405,0.317c-1.731,1.258-3.455,2.525-5.198,3.765
			c-0.347,0.247-0.445,0.449-0.299,0.879c0.691,2.037,1.34,4.09,2.004,6.136c0.037,0.112,0.068,0.228,0.135,0.454
			c-0.191-0.134-0.303-0.208-0.412-0.288c-1.774-1.289-3.553-2.574-5.318-3.874c-0.248-0.184-0.41-0.182-0.658,0.001
			c-1.766,1.301-3.544,2.585-5.319,3.873c-0.107,0.079-0.219,0.152-0.409,0.286c0.062-0.213,0.098-0.345,0.14-0.474
			c0.678-2.085,1.348-4.172,2.042-6.251c0.105-0.316,0.034-0.47-0.226-0.656c-1.771-1.269-3.531-2.555-5.295-3.837
			c-0.106-0.077-0.209-0.161-0.301-0.331h0.411c2.193,0,4.386-0.005,6.58,0.006c0.29,0.003,0.42-0.085,0.51-0.367
			c0.666-2.088,1.35-4.17,2.028-6.255c0.042-0.128,0.087-0.254,0.163-0.477c0.078,0.21,0.132,0.337,0.175,0.468
			c0.67,2.059,1.35,4.114,1.999,6.18c0.109,0.348,0.254,0.456,0.611,0.454c2.166-0.017,4.332-0.009,6.498-0.009H69.314z"/>
	</g>
	<g>
		<path fill="#F69121" d="M94.211,8.571c-0.203,0.158-0.301,0.241-0.404,0.317c-1.73,1.258-3.455,2.525-5.198,3.765
			c-0.348,0.247-0.445,0.449-0.3,0.879c0.692,2.037,1.342,4.09,2.006,6.136c0.035,0.112,0.066,0.228,0.134,0.454
			c-0.191-0.134-0.304-0.208-0.413-0.288c-1.774-1.289-3.552-2.574-5.318-3.874c-0.248-0.184-0.41-0.182-0.658,0.001
			c-1.766,1.301-3.543,2.585-5.318,3.873c-0.108,0.079-0.219,0.152-0.41,0.286c0.063-0.213,0.098-0.345,0.14-0.474
			c0.679-2.085,1.349-4.172,2.042-6.251c0.106-0.316,0.035-0.47-0.225-0.656c-1.771-1.269-3.532-2.555-5.295-3.837
			c-0.107-0.077-0.209-0.161-0.301-0.331h0.41c2.193,0,4.388-0.005,6.58,0.006c0.291,0.003,0.422-0.085,0.511-0.367
			c0.666-2.088,1.35-4.17,2.028-6.255c0.041-0.128,0.086-0.254,0.162-0.477c0.078,0.21,0.133,0.337,0.176,0.468
			c0.67,2.059,1.35,4.114,1.998,6.18c0.109,0.348,0.254,0.456,0.611,0.454c2.166-0.017,4.333-0.009,6.499-0.009H94.211z"/>
	</g>
	<g>
		<path fill="#F69121" d="M116.233,21.353l-2.862-2.034c-1.353-0.982-2.707-1.965-4.053-2.956c-1.466,1.033-2.876,2.055-4.285,3.077
			l-2.688,1.906l0.451-1.538c0.036-0.125,0.064-0.222,0.095-0.316l0.406-1.251c0.541-1.669,1.082-3.339,1.638-5.003
			c0.042-0.022,0.024-0.044-0.043-0.092c-1.446-1.035-2.886-2.083-4.325-3.131l-0.971-0.707c-0.15-0.107-0.31-0.244-0.448-0.496
			l-0.404-0.74l4.389-0.001c1.15,0,2.299,0.001,3.448,0.007c0.515-1.539,1.01-3.055,1.504-4.572L109.257,0l0.561,1.486
			c0.046,0.119,0.082,0.212,0.112,0.307l0.458,1.404c0.521,1.591,1.041,3.182,1.542,4.779c0.017,0.054,0.031,0.085,0.04,0.103
			c0.011-0.002,0.039,0.001,0.085,0.001c1.122-0.009,2.239-0.011,3.356-0.011l5.152,0.002l-1.347,1.051
			c-0.088,0.07-0.153,0.121-0.22,0.17l-1.269,0.925c-1.307,0.953-2.614,1.906-3.932,2.843c-0.128,0.091-0.154,0.133-0.156,0.138l0,0
			c0.001,0-0.003,0.047,0.04,0.174c0.504,1.482,0.984,2.973,1.464,4.463L116.233,21.353z M109.286,15.323
			c0.275,0,0.488,0.134,0.625,0.234c1.344,0.989,2.696,1.971,4.047,2.952l0.46,0.334l-0.227-0.702
			c-0.479-1.485-0.957-2.971-1.459-4.448c-0.267-0.789,0.118-1.188,0.484-1.448c1.314-0.935,2.618-1.886,3.922-2.836l0.464-0.338
			l-2.191-0.001c-1.114,0-2.229,0.002-3.343,0.011c-0.584,0-0.917-0.248-1.092-0.804c-0.5-1.593-1.019-3.181-1.538-4.768
			l-0.151-0.462l-0.25,0.769c-0.494,1.515-0.988,3.029-1.471,4.546c-0.155,0.482-0.474,0.716-0.974,0.716
			c-1.164-0.006-2.312-0.007-3.459-0.007l-2.163,0l0.185,0.135c1.437,1.046,2.874,2.092,4.32,3.127
			c0.284,0.205,0.633,0.553,0.408,1.223c-0.555,1.661-1.095,3.327-1.635,4.994l-0.095,0.293l0.292-0.212
			c1.407-1.02,2.814-2.041,4.213-3.071C108.797,15.458,109.011,15.323,109.286,15.323z"/>
	</g>
</g>
</svg>
