<?xml version="1.0" encoding="utf-8"?>
<!-- Generator: Adobe Illustrator 16.0.0, SVG Export Plug-In . SVG Version: 6.00 Build 0)  -->
<!DOCTYPE svg PUBLIC "-//W3C//DTD SVG 1.1//EN" "http://www.w3.org/Graphics/SVG/1.1/DTD/svg11.dtd">
<svg version="1.1" id="Layer_1" xmlns="http://www.w3.org/2000/svg" xmlns:xlink="http://www.w3.org/1999/xlink" x="0px" y="0px"
	 width="159.934px" height="165.365px" viewBox="0 0 159.934 165.365" enable-background="new 0 0 159.934 165.365"
	 xml:space="preserve">
<g>
	<g>
		<defs>
			<path id="SVGID_1_" d="M0,79.967c0,44.165,35.802,79.967,79.967,79.967s79.967-35.802,79.967-79.967S124.132,0,79.967,0
				S0,35.802,0,79.967"/>
		</defs>
		<clipPath id="SVGID_2_">
			<use xlink:href="#SVGID_1_"  overflow="visible"/>
		</clipPath>
		
			<linearGradient id="SVGID_3_" gradientUnits="userSpaceOnUse" x1="-310.0391" y1="1532.3247" x2="-309.0391" y2="1532.3247" gradientTransform="matrix(82.9942 169.8306 169.8306 -82.9942 -234458.6719 179837.375)">
			<stop  offset="0" style="stop-color:#FFEFC6"/>
			<stop  offset="0.1757" style="stop-color:#FFEFC6"/>
			<stop  offset="0.2733" style="stop-color:#FBE1B0"/>
			<stop  offset="0.5132" style="stop-color:#F1C484"/>
			<stop  offset="0.7229" style="stop-color:#EBB066"/>
			<stop  offset="0.8922" style="stop-color:#E7A453"/>
			<stop  offset="1" style="stop-color:#E6A04C"/>
		</linearGradient>
		<polygon clip-path="url(#SVGID_2_)" fill="url(#SVGID_3_)" points="129.102,-63.09 223.025,129.103 30.832,223.025 
			-63.091,30.832 		"/>
	</g>
	<path fill="#343041" d="M92.98,87.895c0.711,0.551,1.804,0.533,2.496-0.041c-1.681-0.917-2.217-3.068-2.304-4.981
		c-0.192-4.286,0.962-8.817-0.79-12.733c-1.331-2.975-4.275-5.101-7.48-5.694c-3.206-0.592-6.602,0.274-9.3,2.102
		c-0.875,0.594-1.7,1.302-2.238,2.212c-0.563,0.953-0.778,2.069-0.915,3.168c-0.289,2.321-0.268,4.679,0.063,6.994
		c0.27,1.89,0.771,3.804,1.914,5.333c0.821,1.099,2.049,2.166,3.356,2.732l16.319,1.552C93.737,88.309,93.365,88.091,92.98,87.895"
		/>
	<path fill="#BC5B69" d="M66.855,91.363c-2.939,3.139-4.303,7.627-3.844,11.903c-0.268,0.175-0.228,0.406-0.13,0.71
		c0.384,1.191,0.571,2.445,0.56,3.696h15.566c6.024,0,11.915-2.216,17.937-2.033c1.512,0.046,3.368-0.037,4.047-1.387
		c0.19-0.377,0.251-0.805,0.292-1.225c0.551-5.654-2.39-11.472-7.181-14.489l-16.321-1.552c0.253,0.109,0.508,0.207,0.764,0.274
		C74.302,86.557,69.794,88.223,66.855,91.363"/>
	<rect x="64.381" y="130.656" fill="#3B95A8" width="35.521" height="5.572"/>
	<rect x="67.863" y="142.265" fill="#3B95A8" width="31.11" height="4.875"/>
	<rect x="67.98" y="113.708" fill="#3B95A8" width="28.672" height="16.832"/>
	<rect x="77.266" y="88.286" fill="#B2DDF6" width="9.983" height="15.787"/>
	<rect x="79.356" y="89.679" fill="#343041" width="0.813" height="1.277"/>
	<rect x="69.488" y="114.521" fill="#78CFE0" width="25.771" height="20.082"/>
	<rect x="85.391" y="130.656" fill="#78CFE0" width="7.778" height="28.673"/>
	<rect x="71.577" y="131.817" fill="#78CFE0" width="7.43" height="27.512"/>
	<rect x="44.646" y="107.672" fill="#3B95A8" width="75.57" height="6.617"/>
	<rect x="95.137" y="135.839" transform="matrix(1 -0.0068 0.0068 1 -1.02 0.6645)" fill="#3B95A8" width="3.945" height="28.673"/>
	
		<rect x="65.738" y="135.839" transform="matrix(1 -0.0043 0.0043 1 -0.6498 0.2947)" fill="#3B95A8" width="3.946" height="28.673"/>
	<path fill="#FFFFFF" d="M41.048,60.542c0,7.757-6.289,14.046-14.046,14.046s-14.046-6.289-14.046-14.046
		c0-7.758,6.289-14.046,14.046-14.046S41.048,52.785,41.048,60.542"/>
	<line fill="none" stroke="#FFFFFF" stroke-miterlimit="10" x1="37.333" y1="69.016" x2="45.458" y2="74.241"/>
	<path fill="#FFFFFF" d="M134.088,76.619c-7.043-3.252-10.116-11.598-6.863-18.641c3.252-7.042,11.597-10.115,18.64-6.863
		s10.116,11.598,6.864,18.641C149.477,76.798,141.131,79.871,134.088,76.619"/>
	<line fill="none" stroke="#FFFFFF" stroke-miterlimit="10" x1="127.952" y1="69.694" x2="119.803" y2="74.881"/>
	<path fill="#FFFFFF" d="M108.94,53.581c-7.661,1.219-14.86-4.002-16.08-11.663c-1.219-7.661,4.002-14.86,11.663-16.08
		c7.662-1.219,14.86,4.002,16.08,11.663S116.601,52.36,108.94,53.581"/>
	<line fill="none" stroke="#FFFFFF" stroke-miterlimit="10" x1="99.988" y1="51.244" x2="96.106" y2="60.09"/>
	<path fill="#FFFFFF" d="M74.317,47.914c-4.887,6.024-13.733,6.946-19.757,2.058c-6.024-4.887-6.946-13.733-2.058-19.757
		c4.887-6.023,13.732-6.946,19.757-2.058C78.283,33.043,79.205,41.89,74.317,47.914"/>
	<line fill="none" stroke="#FFFFFF" stroke-miterlimit="10" x1="66.093" y1="52.154" x2="69.113" y2="61.33"/>
	<path fill="#EFB8A8" d="M85.484,78.839c-1.675-0.994-2.989-2.481-4.343-3.881c-1.355-1.4-2.671-2.411-4.506-3.065
		c0.504,0.147,0.83,0.679,0.854,1.203c0.025,0.524-0.202,1.032-0.507,1.46c-0.618,0.866-1.581,1.479-2.629,1.671
		c-1.281,6.496,3.842,9.449,6.034,10.477c1.688,0.279,3.487,0.031,5.042-0.703c2.684-1.269,4.646-3.798,5.632-6.599
		C89.313,80.262,87.159,79.833,85.484,78.839"/>
	<path fill="#FFFFFF" d="M78.136,107.803c0.413-2.108,2.094-3.917,4.167-4.481c0.057-0.015-0.029-0.033,0.014-0.075h20.002
		l-0.381,4.684c0.043-0.042,0.085-0.084,0.127-0.127c0.01-0.128-0.263-0.128-0.253,0H78.136z"/>
	<path fill="#FFFFFF" d="M74.778,98.573c-0.525-0.675-1.082-1.469-0.918-2.309c0.162-0.826,0.955-1.351,1.678-1.782
		c0.643-0.383,1.285-0.766,1.928-1.148c0.403,0.611,0.393,1.467-0.024,2.068c0.636-0.522,1.392-1.02,2.211-0.939
		c0.817,0.081,1.541,1.056,1.086,1.742c0.346-0.052,0.691-0.104,1.038-0.154c0.616,0.622,0.459,1.818-0.297,2.261
		c0.274,0.082,0.398,0.428,0.331,0.707c-0.066,0.279-0.271,0.503-0.474,0.706c-1.053,1.052-2.28,1.912-3.499,2.765
		c-2.799,1.959-5.89,2.975-8.689,4.934c-2.201,0.023-4.151,0.842-6.308,0.402c-0.094-1.216-0.24-2.688-0.335-3.904
		c-0.01-0.14-0.015-0.297,0.08-0.401c0.081-0.089,0.212-0.11,0.333-0.123c1.298-0.139,2.621-0.054,3.902-0.306
		c2.041-0.4,3.814-1.613,5.523-2.798C73.091,99.777,74.075,99.147,74.778,98.573"/>
	<rect x="69.488" y="120.209" fill="#AADFF7" width="25.771" height="4.295"/>
	<rect x="69.373" y="161.07" fill="#343041" width="11.376" height="4.295"/>
	<rect x="83.883" y="160.838" fill="#343041" width="11.26" height="4.527"/>
</g>
</svg>
