<?xml version="1.0" encoding="utf-8"?>
<!-- Generator: Adobe Illustrator 16.0.0, SVG Export Plug-In . SVG Version: 6.00 Build 0)  -->
<!DOCTYPE svg PUBLIC "-//W3C//DTD SVG 1.1//EN" "http://www.w3.org/Graphics/SVG/1.1/DTD/svg11.dtd">
<svg version="1.1" id="Layer_1" xmlns="http://www.w3.org/2000/svg" xmlns:xlink="http://www.w3.org/1999/xlink" x="0px" y="0px"
	 width="159.934px" height="166.41px" viewBox="0 0 159.934 166.41" enable-background="new 0 0 159.934 166.41"
	 xml:space="preserve">
<g>
	<g opacity="0.7">
		<g>
			<defs>
				<rect id="SVGID_1_" x="60.533" y="160.11" width="33.615" height="6.3"/>
			</defs>
			<clipPath id="SVGID_2_">
				<use xlink:href="#SVGID_1_"  overflow="visible"/>
			</clipPath>
			<g clip-path="url(#SVGID_2_)">
				<defs>
					<path id="SVGID_3_" d="M61.841,162.117c-0.594,0.201-1.256,0.542-1.305,1.112c-0.035,0.407,0.273,0.778,0.624,1.04
						c0.619,0.463,1.397,0.711,2.17,0.91c2.255,0.582,4.6,0.815,6.936,0.973c3.823,0.258,7.663,0.321,11.493,0.186
						c2.938-0.103,5.902-0.327,8.698-1.136c1.223-0.353,2.447-0.844,3.288-1.715c0.271-0.281,0.507-0.664,0.355-1.011
						c-0.15-0.346-0.604-0.483-1.002-0.576c-8.215-1.908-16.91-2.41-25.239-0.917C65.866,161.341,63.75,161.474,61.841,162.117"/>
				</defs>
				<clipPath id="SVGID_4_">
					<use xlink:href="#SVGID_3_"  overflow="visible"/>
				</clipPath>
				
					<linearGradient id="SVGID_5_" gradientUnits="userSpaceOnUse" x1="-195.6763" y1="1537.1519" x2="-194.6768" y2="1537.1519" gradientTransform="matrix(33.5725 0.9438 0.8497 -30.2139 5323.7783 46790.5352)">
					<stop  offset="0" style="stop-color:#EBF7FE"/>
					<stop  offset="0.0388" style="stop-color:#BFC4CF"/>
					<stop  offset="0.0889" style="stop-color:#999BAB"/>
					<stop  offset="0.1453" style="stop-color:#7C7C8F"/>
					<stop  offset="0.2077" style="stop-color:#67667B"/>
					<stop  offset="0.278" style="stop-color:#56566D"/>
					<stop  offset="0.3602" style="stop-color:#4A4B63"/>
					<stop  offset="0.4618" style="stop-color:#41435C"/>
					<stop  offset="0.6044" style="stop-color:#3D3F58"/>
					<stop  offset="1" style="stop-color:#3B3E57"/>
				</linearGradient>
				<polygon clip-path="url(#SVGID_4_)" fill="url(#SVGID_5_)" points="60.528,158.542 94.448,159.496 94.226,167.421 
					60.305,166.467 				"/>
			</g>
		</g>
	</g>
	<g opacity="0.89">
		<g>
			<defs>
				<rect id="SVGID_6_" width="159.934" height="159.93"/>
			</defs>
			<clipPath id="SVGID_7_">
				<use xlink:href="#SVGID_6_"  overflow="visible"/>
			</clipPath>
			<g clip-path="url(#SVGID_7_)">
				<defs>
					<path id="SVGID_8_" d="M159.934,79.965c0,44.164-35.802,79.967-79.966,79.967C35.803,159.932,0,124.129,0,79.965
						C0,35.8,35.803-0.002,79.968-0.002C124.132-0.002,159.934,35.8,159.934,79.965"/>
				</defs>
				<clipPath id="SVGID_9_">
					<use xlink:href="#SVGID_8_"  overflow="visible"/>
				</clipPath>
				
					<linearGradient id="SVGID_10_" gradientUnits="userSpaceOnUse" x1="-181.9688" y1="1532.6499" x2="-180.9692" y2="1532.6499" gradientTransform="matrix(101.8266 159.5634 159.5634 -101.8266 -226008.5781 185081.2031)">
					<stop  offset="0" style="stop-color:#EBF7FE"/>
					<stop  offset="0.0494" style="stop-color:#E6EDF8"/>
					<stop  offset="0.7076" style="stop-color:#A98EC1"/>
					<stop  offset="1" style="stop-color:#9670AF"/>
				</linearGradient>
				<polygon clip-path="url(#SVGID_9_)" fill="url(#SVGID_10_)" points="113.65,-72.528 232.46,113.648 46.283,232.458 
					-72.526,46.282 				"/>
			</g>
		</g>
	</g>
	<path fill="#EFB8A8" d="M91.816,69.458c1.082,0.713,2.48,0.803,3.747,0.529c1.266-0.274,2.434-0.877,3.584-1.473
		c0.562-0.292,0.66,0.434,1.223,0.142c0.408-0.211,3.917,3.498,4.271,3.205c0.768-0.632-1.423-6.534-1.254-7.513
		c0.168-0.98,0.084-1.985-0.054-2.97c0.591,0,1.146-0.367,1.466-0.864c0.322-0.496,0.437-1.104,0.432-1.695
		c-0.006-0.587-0.134-1.197-0.507-1.651c-0.373-0.453-1.032-0.701-1.571-0.469c-0.666,0.287-0.88,1.115-0.95,1.836
		c-0.055,0.57-0.073,1.144-0.052,1.716c-0.647,0.159-1.337,0.13-1.969-0.083c0.383-2.274,0.703-4.652,0.008-6.85
		c-0.189-0.601-0.463-1.188-0.905-1.633c-1.065-1.069-2.772-1.047-4.278-0.952c-1.06,0.066-2.129,0.134-3.15,0.427
		s-2.004,0.833-2.64,1.684c-0.694,0.93-0.91,2.125-1.057,3.277c-0.144,1.13-0.241,2.265-0.293,3.403
		c-0.077,1.707-0.045,3.449,0.481,5.075c0.699,2.163,2.274,4.009,4.248,5.137c-0.341-0.015-0.731-0.144-0.968-0.39
		c0.368-0.017,0.741,0.105,1.028,0.335"/>
	<path fill="#D3E3E2" d="M105.048,111.602c0.316,0,18.747-2.848,18.747-2.848s-1.897,3.718-2.294,3.876
		c-0.395,0.159-3.876,1.345-6.17,1.582c-2.294,0.238-8.543,1.108-8.543,1.108s-2.294,0.712-2.847-0.238
		C103.387,114.132,105.048,111.602,105.048,111.602"/>
	<path fill="#ED2B2E" d="M99.669,137.547c0.316,0,27.369-3.164,27.369-3.164s1.187-2.136,1.345-2.373
		c0.158-0.238,3.006-1.187,3.006-1.187l-7.594-22.069l-2.294,2.215l-21.357,2.768l-1.978,1.899c0,0,1.661,19.221,1.503,20.012
		S99.669,137.547,99.669,137.547"/>
	<path fill="#343041" d="M69.212,52.327c-0.842,5.419-2.806,10.662-5.729,15.302c-0.444,0.704-0.912,1.397-1.261,2.153
		c-0.41,0.894-0.646,1.858-0.845,2.822c-0.396,1.931-0.645,3.889-0.895,5.845c-0.233,1.826-0.467,3.651-0.699,5.477
		c-0.039,0.307-0.091,0.641-0.316,0.855c-0.168,0.159-0.402,0.222-0.629,0.275c-3.143,0.748-6.438,0.85-9.62,0.296
		c-1.269-0.221-2.562-0.564-3.572-1.361c2.149-6.031,3.509-12.281,4.395-18.623c0.468-3.352,0.759-6.747,1.682-10.004
		c0.278-0.982,0.626-1.973,1.285-2.752c0.69-0.816,1.668-1.335,2.663-1.728C60.086,49.135,65.184,49.808,69.212,52.327"/>
	<path fill="#EFB8A8" d="M63.584,54.874c0.092-0.374,0.3-0.833,0.686-0.809c0.48,0.031-0.104,6.307-0.197,6.909
		c-0.35,2.277-0.927,4.662-1.939,6.742C61.715,63.559,62.587,58.906,63.584,54.874"/>
	<path fill="#DC707B" d="M67.006,70.594c-0.717,0.609-0.4,1.828,0.269,2.489c0.669,0.66,1.588,1.021,2.258,1.68
		c0.916,0.901,1.246,2.223,1.537,3.474c0.646,2.775,1.295,5.572,1.382,8.419c0.17,5.519-1.76,11.161-0.245,16.469
		c-0.587-0.061-1.186-0.004-1.751,0.166c-0.052-0.368-0.104-0.737-0.154-1.105c-3.61-0.322-7.22-0.644-10.829-0.966
		c0.076,2.039,0.152,4.078,0.229,6.116c-1.191-0.217-2.408-0.304-3.619-0.259c-0.035-6.723-2.79-13.377-1.738-20.017
		c0.255-1.611,0.73-3.181,0.975-4.794c0.253-1.679,0.252-3.384,0.303-5.082c0.041-1.365,0.135-2.793,0.837-3.965
		c1-1.667,2.942-2.394,4.722-2.896c1.05-0.296,1.499-0.071,2.558,0.18C64.387,70.657,66.435,71.079,67.006,70.594"/>
	<path fill="#FFFFFF" d="M59.283,96.933c0.018-0.756-0.063-1.514-0.243-2.248c-0.163-0.67-0.406-1.319-0.553-1.992
		c-0.359-1.661-0.114-3.403,0.379-5.029c0.499,2.119,0.891,4.263,1.173,6.421c0.169,1.287,0.231,2.776-0.696,3.683
		c-0.029-0.838-0.058-1.677-0.086-2.515"/>
	<path fill="#CA6571" d="M61.464,90.239c1.333,0.855,2.665,1.711,3.998,2.566c0.777-1.405,1.558-2.811,2.337-4.216
		c1.473,1.186,2.879,2.457,4.207,3.803l0.018-3.444c0.001-0.097,0-0.198-0.039-0.287c-0.059-0.135-0.195-0.217-0.321-0.292
		c-1.33-0.787-2.569-1.729-3.685-2.799c-0.979,1.261-1.958,2.522-2.938,3.783c-1.381-1.034-2.864-1.931-4.423-2.67
		c-0.53,1.092-1.072,2.227-1.104,3.44c-0.014,0.538,0.075,1.073,0.163,1.604c0.147,0.893,0.222,1.858,0.492,2.716
		C60.823,94.25,61.464,90.994,61.464,90.239"/>
	<path fill="#CA6571" d="M59.813,83.76c0.86,0.135,1.542,0.771,2.234,1.299c0.667,0.508,1.392,0.939,2.156,1.282
		c0.677-1.335,1.447-2.599,2.3-3.829c1.604,1.208,3.28,2.319,5.018,3.325c0.405-1.316,0.488-2.73,0.24-4.084
		c-0.142-0.776-0.389-1.528-0.661-2.268c-0.252,0.952-0.551,1.893-0.892,2.817c-1.354-0.961-2.755-1.859-4.194-2.689
		c-0.7,1.52-1.659,2.921-2.823,4.124c-0.972-0.67-1.926-1.367-2.858-2.09C60.166,82.367,59.98,83.042,59.813,83.76"/>
	<path fill="none" stroke="#DC2529" stroke-width="0.25" stroke-miterlimit="10" d="M56.476,109.384
		c-0.386,0.856-0.771,1.713-1.157,2.569c-0.137,0.305-0.275,0.617-0.307,0.95c-0.03,0.332,0.067,0.696,0.33,0.903
		c0.262,0.207,0.703,0.188,0.886-0.091c0.01,0.435,0.425,0.818,0.859,0.793c0.434-0.025,0.803-0.454,0.762-0.887
		c0.104,0.323,0.068,0.676,0.145,1.006c0.077,0.331,0.342,0.671,0.68,0.639c0.448-0.042,0.576-0.627,0.587-1.076
		c0.011-0.449,0.021-0.898,0.033-1.346c0.015-0.591,0.121-1.318,0.676-1.519c0.33,0.26,0.413,0.725,0.405,1.145
		c-0.009,0.419-0.083,0.848,0.025,1.254c0.11,0.405,0.486,0.785,0.899,0.711c-0.584-1.485,0.313-3.344-0.548-4.688
		c-0.269-0.419-0.678-0.725-1.004-1.101s-0.577-0.887-0.43-1.362c-0.04,0.128-1.978-0.246-2.239,0.031
		c-0.158,0.167-0.105,0.631-0.149,0.839C56.837,108.583,56.654,108.987,56.476,109.384z"/>
	<path fill="none" stroke="#DC2529" stroke-width="0.25" stroke-miterlimit="10" d="M71.243,106.927
		c0.468-0.027,0.914,0.387,0.923,0.855c0.005,0.217-0.07,0.427-0.092,0.643c-0.02,0.215,0.033,0.465,0.219,0.575
		c0.139-0.219,0.515-0.168,0.642,0.056c0.127,0.225,0.034,0.526-0.157,0.7c-0.191,0.173-0.455,0.242-0.711,0.271
		c-0.398,0.043-0.8,0.002-1.195-0.056c-0.268-0.039-0.559-0.1-0.73-0.309c-0.149-0.182-0.172-0.434-0.187-0.67
		c-0.099-1.719-0.034-3.447,0.194-5.153c0.063-0.479,0.669-0.635,1.149-0.679c0.343-0.032,0.772-0.015,0.914,0.297
		c0.176,0.382,0.521,0.653,0.813,0.956c1.143,1.187,1.474,2.916,1.754,4.54c-0.656-0.526-1.163-1.235-1.45-2.025
		c-0.053-0.146-0.297-0.111-0.371,0.027c-0.073,0.138-0.033,0.306,0.002,0.458c0.037,0.152,0.066,0.326-0.022,0.454
		c-0.11,0.157-0.353,0.165-0.518,0.068s-0.27-0.267-0.368-0.431c-0.199-0.332-0.62-0.515-0.998-0.433
		c-0.298,0.063-0.554,0.285-0.657,0.563C70.569,107.29,70.824,106.952,71.243,106.927z"/>
	<path fill="#77CAD9" d="M56.488,118.754c0.038,0.228,0.087,0.47,0.251,0.633c0.186,0.183,0.467,0.218,0.728,0.236
		c1.355,0.093,2.718-0.01,4.076-0.053c2.603-0.083,5.212,0.053,7.79,0.407c0.136,0.019,0.292,0.031,0.388-0.066
		c0.072-0.073,0.084-0.184,0.092-0.287c0.292-4.096-0.262-8.223,0.11-12.313c0.145-1.584,0.428-3.165,0.359-4.754
		c-0.008-0.182-0.022-0.371-0.115-0.527c-0.089-0.152-0.241-0.255-0.396-0.342c-0.653-0.364-1.405-0.508-2.146-0.602
		c-1.257-0.16-2.524-0.194-3.791-0.229c-1.593-0.042-3.186-0.085-4.778-0.127c-0.225-0.007-0.469-0.006-0.646,0.132
		c-0.148,0.117-0.216,0.307-0.275,0.487c-0.653,1.975-1.428,4.054-1.813,6.101c-0.197,1.046-0.063,2.188-0.086,3.249
		c-0.026,1.275-0.071,2.551-0.062,3.827C56.185,115.941,56.258,117.358,56.488,118.754"/>
	<path fill="#77CAD9" d="M68.906,158.157c-0.146-5.236,0.103-10.483,0.739-15.682c-1.864,0.184-3.741,0.243-5.614,0.178
		c0.32,0.908,0.603,1.834,0.771,2.783c0.188,1.052,0.232,2.123,0.277,3.19c0.102,2.409,0.205,4.817,0.307,7.226
		c0.026,0.61-0.146,1.792,0.421,2.223C66.451,158.563,68.159,158.227,68.906,158.157"/>
	<path fill="#77CAD9" d="M43.462,148.083c0.235,0.526,0.672,0.93,1.098,1.318c1.247-0.762,2.322-1.771,3.388-2.773
		c1.775-1.67,3.551-3.34,5.327-5.01c-0.741-0.426-1.616-0.535-2.466-0.637c-0.829-0.099-1.657-0.198-2.485-0.297
		c-0.198-0.024-1.298,1.678-1.474,1.897c-0.527,0.663-1.063,1.32-1.608,1.969C44.449,145.494,42.83,146.674,43.462,148.083"/>
	<path fill="#EA2232" d="M42.188,159.053c-0.45-0.77-0.644-1.659-0.804-2.537c-0.356-1.965-0.571-3.955-0.642-5.951
		c-0.039-1.117-0.031-2.25,0.243-3.333c0.071-0.276,0.179-0.574,0.427-0.714c0.177-0.1,0.392-0.099,0.596-0.095
		c0.586,0.012,1.172,0.023,1.758,0.035c-0.433-0.027-0.832,0.28-1.04,0.661c-0.207,0.382-0.26,0.825-0.298,1.258
		c-0.205,2.313-0.113,4.659,0.368,6.93c0.109,0.517,0.425,1.16,0.943,1.067c-0.156,0.028-0.139,2.415-0.2,2.679
		C43.341,159.897,42.601,159.757,42.188,159.053"/>
	<path fill="#EFB8A8" d="M44.645,149.52c0.1-0.672,0.192-1.394-0.112-2.001c-0.198-0.395-0.559-0.704-0.979-0.838
		c-0.282-0.091-0.613-0.097-0.854,0.075c-0.229,0.164-0.332,0.451-0.412,0.721c-0.691,2.314-0.796,4.801-0.301,7.165
		c0.112,0.531,0.423,1.72,1.148,1.75c0.689,0.028,0.653-1.092,0.724-1.567C44.119,153.056,44.383,151.288,44.645,149.52"/>
	<path fill="#32595A" d="M43.377,119.354c0,0.177-2.542,22.88-2.542,22.88l27.491,1.774l2.128-2.542l2.484,0.118l-3.43-23.649
		l-2.188,1.774L43.377,119.354z"/>
	<path fill="#ED2B2E" d="M44.618,139.042c1.655-9.992,3.784-17.973,3.784-17.973l11.647,0.591l0.65-0.237l1.123-0.532l1.833,17.974
		l-3.548-0.355l-0.118-0.059l-1.597,1.478C58.394,139.929,44.599,139.159,44.618,139.042"/>
	<polygon fill="#BD2428" points="58.394,139.929 60.05,121.66 61.822,120.891 63.655,138.865 60.108,138.51 	"/>
	<polygon fill="#D3E3E2" points="43.377,119.354 43.377,119.472 48.343,117.758 69.509,117.935 67.321,119.709 	"/>
	<path fill="none" stroke="#DC2529" stroke-width="0.25" stroke-miterlimit="10" d="M50.449,121.704
		c0.661-2.521,1.962-4.822,3.29-7.065c0.352-0.595,0.743-1.222,1.371-1.511c0.352-0.163,0.749-0.202,1.138-0.207
		c0.341-0.005,0.687,0.016,1.011,0.122c0.86,0.282,1.438,1.133,1.644,2.015c0.206,0.883,0.106,1.804,0.005,2.705
		c-0.176,1.566-0.352,3.131-0.528,4.696"/>
	<path fill="none" stroke="#DC2529" stroke-width="0.25" stroke-miterlimit="10" d="M53.095,120.398
		c0.552-2.041,1.35-4.015,2.37-5.866c0.193-0.35,0.401-0.705,0.72-0.946c0.492-0.374,1.158-0.413,1.774-0.363
		c0.393,0.032,0.798,0.1,1.127,0.319c0.588,0.389,0.791,1.146,0.917,1.838c0.338,1.849,0.45,3.738,0.336,5.614"/>
	<path fill="none" stroke="#DC2529" stroke-width="0.25" stroke-miterlimit="10" d="M56.749,113.33
		c0.66-0.226,1.397-0.294,2.049-0.047c0.506,0.192,0.924,0.556,1.331,0.913c1.169,1.029,2.396,2.144,2.81,3.644"/>
	<path fill="none" stroke="#DC2529" stroke-width="0.25" stroke-miterlimit="10" d="M72.354,108.035
		c0.224,0.036,0.335,0.285,0.409,0.499c0.64,1.868,1.283,3.747,1.604,5.696c0.112,0.68,0.188,1.375,0.451,2.011"/>
	<path fill="none" stroke="#DC2529" stroke-width="0.25" stroke-miterlimit="10" d="M73.063,108.166
		c-0.111-0.034-0.205-0.123-0.243-0.232c0.84,0.504,1.371,1.443,1.965,2.222c0.721,0.942,1.482,1.854,2.281,2.73
		c0.021,0.022,0.05,0.047,0.077,0.033c0.027-0.013-0.01-0.066-0.021-0.038"/>
	<path fill="#ED2B2E" d="M69.807,114.718c0.198-0.04,11.391-0.555,11.391-0.555l1.904-1.866l5.279,23.218l-2.977,0.674l-1.509,2.064
		l-11.39,0.358l-2.694-18.987"/>
	<path fill="#D3E3E2" d="M69.887,112.774l13.057-0.516l-1.905,2.302l-10.914,0.198l-0.396-1.786
		C69.807,112.893,69.887,112.774,69.887,112.774"/>
	<path fill="#C28839" d="M75.958,138.247c-0.592,0.502-1.15,1.043-1.672,1.618c1.52,1.454,2.956,2.996,4.3,4.614
		c4.633-4.718,9.128-9.572,13.479-14.553c1.106-1.268,2.213-2.555,3.04-4.022c1.232-2.185,3.164-6.893,4.196-9.179
		c-1.559-4.064-5.466-5.484-6.493-9.713c-0.764,5.165-2.047,10.237-3.328,15.299c-0.113,0.447-0.229,0.899-0.448,1.305
		c-0.192,0.352-0.457,0.659-0.72,0.962c-0.67,0.771-1.339,1.54-2.008,2.311c-0.013-0.013-0.212-0.051-0.225-0.064
		c0.078-0.057,0.092,0.238,0.044,0.321c-0.312,0.544-0.688,1.046-1.071,1.544c-2.562,3.342-5.336,6.521-8.301,9.513
		c-0.143,0.145-0.301,0.296-0.503,0.326C76.047,138.557,75.917,138.446,75.958,138.247"/>
	<path fill="#8B4920" d="M73.103,142.302c-0.063,0.038-0.129,0.084-0.142,0.155c-0.008,0.054,0.02,0.107,0.046,0.156
		c1.182,2.119,2.536,4.142,4.047,6.042c1.192,1.5,2.492,2.934,4.031,4.075c0.159,0.118,0.326,0.236,0.519,0.282
		c0.192,0.046,0.419,0.005,0.543-0.149c0.186-0.23,0.067-0.57-0.065-0.834c-1.232-2.457-3.209-4.641-3.597-7.363
		c-0.025-0.171-0.043-0.344-0.104-0.506c-0.067-0.183-0.186-0.343-0.306-0.497c-0.652-0.839-1.403-1.599-2.231-2.264
		c-0.554-0.445-0.649-0.368-1.24-0.009C74.104,141.695,73.603,141.999,73.103,142.302"/>
	<path fill="#C1923B" d="M104.187,103.111c0.366,1.691,0.688,3.393,0.965,5.101c0.497,3.057,0.852,6.136,1.205,9.213
		c0.22,1.91,0.439,3.821,0.659,5.731c1.116,9.709,2.233,19.423,2.887,29.175c-0.752,0.235-1.686,0.43-2.474,0.407
		c-1.265-0.038-2.531-0.075-3.796-0.113c0.105,0.083,0.105,0.103-0.002,0.023c-0.107-0.079-0.104-0.238-0.09-0.371
		c0.808-8.234-2.196-16.458-1.606-24.71c0.48-6.713-5.555-12.119-8.266-18.279c-0.377-0.857-0.755-1.716-1.03-2.611
		c-0.406-1.317-0.583-2.693-0.715-4.065c0.965,0.636,2.176,0.739,3.331,0.785c2.906,0.116,5.821-0.013,8.707-0.382
		C104.207,102.982,104.135,102.87,104.187,103.111"/>
	<path fill="#EFB8A8" d="M84.759,107.835c-0.35,2.012-0.699,4.062-0.433,6.086c0.025,0.184,0.1,0.412,0.285,0.426
		c-0.05-0.949,0.055-1.906,0.31-2.822c0.053-0.191,0.175-0.424,0.371-0.395c0.179,0.026,0.243,0.247,0.262,0.426
		c0.113,1.146-0.103,2.352,0.324,3.421c0.055,0.134,0.198,0.287,0.313,0.2c0.064-0.051,0.063-0.148,0.055-0.23
		c-0.108-1.134-0.078-2.282,0.091-3.409c0.023-0.152,0.11-0.349,0.261-0.313c0.058,0.014,0.102,0.063,0.133,0.115
		c0.12,0.193,0.13,0.433,0.128,0.66c-0.008,1.122-0.219,2.259,0.014,3.357c0.05,0.232,0.207,0.517,0.438,0.462
		c0.204-0.05,0.246-0.317,0.246-0.526c-0.002-2.09-0.005-4.18-0.006-6.27c0-0.172,0.001-0.348,0.064-0.507
		c0.066-0.158,0.212-0.296,0.384-0.297c0.159-0.001,0.296,0.112,0.406,0.229c0.433,0.457,0.693,1.046,1.053,1.563
		c0.36,0.517,0.885,0.991,1.515,1.009c0.197,0.006,0.458-0.13,0.39-0.316c-0.027-0.071-0.095-0.117-0.158-0.158
		c-0.72-0.474-1.332-1.11-1.777-1.848c-0.512-0.844-0.834-1.85-1.617-2.448c-0.112-0.086-0.236-0.163-0.376-0.183
		c-0.106-0.015-0.213,0.005-0.318,0.024c-0.524,0.097-1.365,0.083-1.834,0.337C84.893,106.636,84.759,107.423,84.759,107.835"/>
	<path fill="#EFB8A8" d="M108.821,106.465c-0.014-0.039-0.025-0.082-0.012-0.121c0.021-0.059,0.092-0.082,0.154-0.09
		c0.359-0.044,0.695,0.174,0.993,0.383c-0.104-0.176-0.212-0.357-0.251-0.559c-0.039-0.201,0.004-0.431,0.158-0.564
		c0.23-0.2,0.602-0.108,0.832,0.088c0.232,0.197,0.38,0.474,0.588,0.696c-0.226-0.196-0.332-0.493-0.429-0.776
		c-0.047-0.137-0.095-0.279-0.08-0.423c0.014-0.144,0.109-0.291,0.251-0.318c0.112-0.021,0.224,0.036,0.32,0.099
		c0.35,0.231,0.614,0.565,0.874,0.894c0.306,0.388,0.611,0.776,0.918,1.163c0.144,0.183,0.28,0.471,0.101,0.619
		c-0.08,0.066-0.195,0.069-0.299,0.063c-0.52-0.033-1.028-0.213-1.451-0.514c0.111,0.102,0.189,0.239,0.222,0.387
		c0.008,0.036,0.013,0.076-0.005,0.109c-0.025,0.049-0.088,0.062-0.142,0.071c-0.366,0.056-0.785,0.105-1.096-0.139
		c0.165,0.159,0.163,0.407-0.066,0.464c-0.144,0.037-0.506-0.25-0.617-0.326C109.347,107.37,108.996,106.975,108.821,106.465"/>
	<path fill="#EFB8A8" d="M109.328,106.33c-0.285-1.306-0.412-2.646-0.378-3.983c0.595-0.427,1.188-0.854,1.781-1.28
		c0.065-0.046,0.134-0.094,0.213-0.097c0.061-0.003,0.117,0.021,0.172,0.046c1.823,0.843,2.37,3.275,4.055,4.368
		c-0.233,0.227-0.612,0.239-0.912,0.116c-0.301-0.123-0.541-0.356-0.772-0.583c-0.271-0.266-0.544-0.532-0.814-0.798
		c0.116,0.29,0.015,0.652-0.236,0.839c-0.25,0.188-0.627,0.182-0.872-0.012"/>
	<path fill="none" stroke="#DC2529" stroke-width="0.25" stroke-miterlimit="10" d="M108.872,102.573
		c0.145-0.04,0.237-0.176,0.324-0.298c0.54-0.761,1.318-1.35,2.197-1.666c-1.272-2.628-2.393-5.329-3.354-8.087
		c-0.117,2.005-0.234,4.009-0.352,6.014c-0.045,0.778-0.299,1.818-0.068,2.576C107.74,101.503,108.394,102.706,108.872,102.573z"/>
	<path fill="#FFFFFF" d="M106.646,73.229c0.751,1.063,1.004,2.391,1.2,3.677c0.317,2.067,0.539,4.148,0.666,6.236
		c0.062,1.001,0.101,2.006,0.057,3.009c-0.044,0.996-0.168,1.988-0.216,2.983c-0.057,1.184-0.005,2.368-0.02,3.552
		c-0.036,2.962-0.493,5.903-1.08,8.806c-0.043,0.211-0.085,0.287-0.06,0.501c-2.553,0.759-5.173,1.525-7.83,1.347
		c-0.748-0.051-1.449,0.542-2.199,0.566c-1.119,0.035-2.292-0.317-3.384-0.565c-0.404-0.091-0.784-0.263-1.16-0.435l-1.392-0.632
		c-0.07-0.032-0.146-0.067-0.184-0.135c-0.029-0.05-0.033-0.11-0.036-0.168c-0.178-3.411-0.356-6.823-0.534-10.235
		c-0.073-1.378-0.135-2.818,0.435-4.075c1.172-2.591,2.367-5.013,2.926-7.8c0.383-1.91,0.465-3.904,1.221-5.698
		c0.132-0.314,0.347-0.663,0.687-0.678c0.115-0.006,0.238,0.029,0.341-0.023c0.101-0.052,0.146-0.17,0.231-0.244
		c0.22-0.191,0.553-0.017,0.801,0.136c1.345,0.834,2.999,0.949,4.579,1.039c1.362,0.077,2.871,0.106,3.92-0.769
		c0.166-0.138,0.319-0.299,0.517-0.386C106.33,73.152,106.521,73.052,106.646,73.229"/>
	<path fill="#D58666" d="M78.674,78.054c0.042,0.662,0.382,1.263,0.715,1.838c1.012,1.746,2.022,3.494,3.035,5.24
		c0.126,0.218,0.266,0.449,0.494,0.555c0.364,0.167,0.784-0.049,1.113-0.279c1.936-1.354,3.311-3.369,4.407-5.461
		s1.96-4.303,3.123-6.359c0.158-0.279,0.356-0.582,0.672-0.647c0.186-0.039,0.378,0.017,0.556,0.085
		c0.631,0.243,1.192,0.664,1.603,1.202c0.188,0.248,0.35,0.525,0.599,0.711c0.325,0.241,0.746,0.293,1.148,0.337
		c2.044,0.227,4.089,0.453,6.133,0.68c0.629,0.069,1.276,0.138,1.885-0.033c0.836-0.235,1.487-0.889,2.02-1.575
		c0.384-0.496,0.744-1.037,1.282-1.358c0.172-0.102,0.361-0.183,0.487-0.335c0.243-0.289,0.173-0.718,0.091-1.086
		c-0.3-1.341-0.6-2.682-0.899-4.023c-0.067-0.301-0.139-0.611-0.315-0.865c-0.419-0.606-1.262-0.696-1.998-0.729
		c-0.229-0.011-0.493-0.007-0.64,0.169c-0.109,0.13-0.117,0.313-0.12,0.482c-0.014,0.726-0.028,1.452-0.042,2.178
		c-1.436,0.061-2.883-0.212-4.197-0.79c-1.646,1.364-3.786,2.118-5.924,2.084c-0.528-0.008-1.101-0.083-1.473-0.458
		c0.024,0.319-0.052,0.644-0.217,0.918l-4.081,0.293c-0.367,0.027-0.741,0.054-1.085,0.185c-0.384,0.146-0.708,0.412-1.026,0.669
		c-1.469,1.187-2.994,2.303-4.568,3.346C80.38,75.737,78.575,76.481,78.674,78.054"/>
	<path fill="#85191B" d="M106.243,67.485c0.217-0.117,0.472-0.239,0.534-0.478c0.075-0.28-0.163-0.546-0.408-0.7
		c-0.568-0.357-1.295-0.449-1.936-0.246c-0.162,0.052-0.329,0.131-0.412,0.278c-0.061,0.109-0.068,0.239-0.069,0.363
		c-0.002,0.691,0.099,1.443,0.187,2.113C104.931,68.579,105.523,67.872,106.243,67.485"/>
	<path fill="#343041" d="M94.058,59.914c-0.053,0.068-0.155-0.012-0.194-0.088c-0.293-0.569-0.27-1.29,0.061-1.838
		c0.104-0.171,0.237-0.328,0.413-0.422c0.176-0.095,0.397-0.117,0.574-0.025c0.213,0.111,0.318,0.355,0.376,0.588
		c0.137,0.543,0.108,1.126-0.082,1.652c-0.104,0.29-0.331,0.606-0.636,0.568c-0.129-0.015-0.24-0.093-0.345-0.168
		c-0.138-0.097-0.28-0.202-0.351-0.355c-0.12-0.263,0.016-0.575-0.041-0.859"/>
	<path fill="#343041" d="M96.929,57.001c-0.166-0.608-0.646-1.096-1.205-1.387c-0.559-0.291-1.192-0.406-1.82-0.464
		c-0.217-0.019-0.471-0.016-0.601,0.157c-0.065,0.087-0.083,0.199-0.092,0.307c-0.038,0.492-0.015,0.446,0.34,0.531
		c0.37,0.088,0.798,0.056,1.18,0.127C95.058,56.332,96.831,56.643,96.929,57.001"/>
	<path fill="#343041" d="M90.145,57.592c0.112-0.201,0.229-0.414,0.226-0.645c-0.006-0.339-0.291-0.63-0.618-0.724
		c-0.326-0.094-0.68-0.023-0.993,0.109c-0.446,0.189-0.904,0.638-0.69,1.156c0.354-0.03,0.669-0.225,1.047-0.221
		C89.207,57.267,90.214,57.468,90.145,57.592"/>
	<path fill="#343041" d="M89.53,58.433c0.152,0.221,0.193,0.503,0.18,0.772c-0.028,0.528-0.259,1.043-0.634,1.416
		c-0.81,0.802-1.333-0.547-1.124-1.226C88.13,58.816,88.886,57.508,89.53,58.433"/>
	<path fill="none" stroke="#D09084" stroke-miterlimit="10" d="M91.013,60.268c-1.058,0.317-1.948,1.146-2.34,2.178
		c-0.02,0.05-0.038,0.103-0.031,0.157c0.012,0.082,0.079,0.143,0.148,0.189c0.298,0.195,0.674,0.22,1.028,0.212
		c0.875-0.023,1.745-0.216,2.547-0.567"/>
	<path fill="#FFFFFF" d="M89.921,64.73c0.021,0.16,0.18,0.274,0.339,0.295c0.161,0.022,0.321-0.028,0.474-0.081
		c1.384-0.478,2.675-1.222,3.781-2.18c-0.107,0.662-0.236,1.366-0.701,1.85c-0.176,0.183-0.391,0.323-0.604,0.46
		c-0.405,0.259-0.822,0.514-1.286,0.64s-1.403,0.14-1.668-0.391c-0.268-0.538,0.518-0.635,0.896-0.777
		c1.219-0.459,2.395-1.096,3.499-1.783c0.311,1.243,0.097,2.609-0.58,3.697c-0.235,0.379-0.538,0.735-0.942,0.922
		c-0.71,0.327-1.595,0.038-2.127-0.533c-0.498-0.534-0.813-1.354-0.82-2.082"/>
	<path fill="#343041" d="M88.97,51.56c-1.012-1.079-1.49-2.592-1.469-4.07c0.022-1.479,0.515-2.923,1.237-4.212
		c-0.07,0.533,0.016,1.086,0.246,1.572c0.18-1.686,0.902-3.311,2.035-4.574c-0.142,1.302,0.753,2.641,2.01,3.01
		c-0.077-1.265,0.326-2.553,1.111-3.548c-0.326,1.114,0.265,2.332,1.149,3.082c0.887,0.75,2.018,1.129,3.119,1.492
		c-0.303-0.815-0.905-1.514-1.665-1.935c1.515,0.451,3.074,0.923,4.299,1.922c1.227,0.998,2.047,2.665,1.586,4.177
		c1.073-0.647,2.545-0.357,3.477,0.481s1.374,2.117,1.443,3.369c0.069,1.252-0.195,2.496-0.483,3.716
		c-0.818,3.467-1.831,6.885-2.844,10.3c-0.689-1.473-0.938-3.148-0.706-4.758c-0.636-0.329-1.334-0.535-2.048-0.602
		c-0.397-0.038-0.807-0.034-1.187-0.156c-0.82-0.264-1.357-1.068-1.613-1.892c-0.256-0.823-0.294-1.696-0.48-2.537
		c-0.3-1.34-1.007-2.611-2.089-3.457c-1.081-0.846-2.55-1.228-3.877-0.875c-0.635,0.169-1.216,0.491-1.788,0.811
		c-0.339,0.189-1.561,1.114-1.847,0.785C88.293,53.324,88.841,51.933,88.97,51.56"/>
	<path fill="none" stroke="#DC2529" stroke-width="0.25" stroke-miterlimit="10" d="M110.137,63.313c0,0.03,0,0.06,0.001,0.09"/>
	<path fill="#EFB8A8" d="M70.983,56.66c0.705,1.532,0.906,3.245,0.996,4.93c0.009,0.178,0.021,0.367,0.122,0.514
		c0.101,0.145,0.271,0.223,0.435,0.286c0.704,0.267,1.469,0.373,2.219,0.307c-0.425,1.097-1.503,1.911-2.675,2.019
		c0.081,0.907-0.095,1.815-0.271,2.709c-0.043,0.218-0.085,0.437-0.128,0.655l-0.396,2.024c-0.051,0.258-0.109,0.532-0.295,0.718
		c-0.218,0.219-0.555,0.259-0.863,0.269c-1.335,0.041-2.675-0.269-4.001-0.108c-0.438,0.053-0.874,0.158-1.316,0.151
		c-0.621-0.01-1.218-0.241-1.797-0.469c-0.578-0.227-1.231-0.54-1.37-1.146c-0.083-0.366,0.058-0.751,0.273-1.058
		c0.215-0.308,0.503-0.555,0.764-0.825c1.719-1.77,2.226-4.351,2.689-6.773c0.242-1.265,1.737-8.182,3.979-6.536
		C70.064,54.85,70.622,55.875,70.983,56.66"/>
	<path fill="none" stroke="#DC2529" stroke-width="0.25" stroke-miterlimit="10" d="M74.568,56.458
		c-0.016,0.015-0.03,0.03-0.044,0.045"/>
	<path fill="#343041" d="M69.102,63.637c-0.188,0.026-0.335-0.157-0.422-0.327c-0.396-0.772-0.43-1.721-0.089-2.52
		c0.074-0.176,0.181-0.358,0.361-0.424c0.161-0.059,0.349-0.005,0.483,0.102c0.136,0.106,0.228,0.259,0.301,0.415
		c0.287,0.606,0.354,1.313,0.184,1.961c-0.065,0.249-0.17,0.498-0.361,0.67c-0.192,0.173-0.486,0.249-0.715,0.131
		c-0.297-0.153-0.367-0.539-0.403-0.871"/>
	<path fill="#FFFFFF" d="M72.196,66.449c-0.309,0.526-0.354,1.158-0.499,1.75c-0.013,0.049-0.026,0.101-0.063,0.133
		c-0.06,0.054-0.152,0.041-0.229,0.023c-0.368-0.086-3.021-1.158-2.635-1.637c0.205-0.255,1.178,0.047,1.431,0.063
		C70.879,66.83,71.571,66.72,72.196,66.449"/>
	<path fill="#343041" d="M70.521,59.625c-0.036-0.248-0.029-0.502,0.021-0.748c-0.633-0.035-1.265-0.07-1.896-0.105
		c-0.402-0.022-1.335-0.262-1.163,0.472C67.668,60.039,70.475,59.304,70.521,59.625"/>
	<path fill="none" stroke="#DC2529" stroke-width="0.25" stroke-miterlimit="10" d="M107.544,115.826
		c0.04-2.718,0.801-5.373,1.674-7.947c0.415-1.223,0.969-2.562,2.152-3.077c0.375-0.163,0.83-0.22,1.182-0.009
		c0.215,0.129,0.365,0.342,0.501,0.553c1.732,2.673,2.448,5.861,3.106,8.977"/>
	<path fill="none" stroke="#DC2529" stroke-width="0.25" stroke-miterlimit="10" d="M109.192,111.041
		c-0.161-1.556,0.085-3.152,0.708-4.587c0.419-0.964,1.188-1.961,2.238-1.955c0.824,0.005,1.497,0.627,2.079,1.21
		c0.944,0.945,1.89,1.889,2.832,2.834c0.389,0.387,0.776,0.776,1.1,1.219"/>
	<path fill="#FFFFFF" d="M88.145,105.383c0.119-0.078,0.24-0.162,0.313-0.284c0.117-0.198,0.082-0.446,0.047-0.674
		c-0.674-4.342,0.182-8.759,1.036-13.068c0.063-0.33,0.13-0.662,0.257-0.972c0.133-0.325,0.328-0.619,0.521-0.912
		c1.591-2.397,3.151-4.829,4.34-7.449c1.188-2.619,2-5.448,2.021-8.325c0-0.137-0.005-0.286-0.092-0.393
		c-0.095-0.115-0.257-0.145-0.404-0.164c-1.559-0.207-3.231-0.202-4.551-1.057c-1.332,1.322-2.388,2.922-3.078,4.666
		c-0.942,2.375-1.207,4.979-2.181,7.341c-0.555,1.342-1.331,2.589-1.789,3.966c-0.476,1.425-0.28,2.461-0.355,3.961
		c-0.159,3.226-0.236,7.095,0.08,10.248c0.127,1.281,0.196,3.465,0.945,4.02C86.177,106.971,87.394,105.878,88.145,105.383"/>
	<path fill="#FDC282" d="M65.324,159.544c3.318,1.031,6.837,1.416,10.3,1.127c-1.698-0.64-3.398-1.281-5.097-1.922
		c-0.624-0.235-1.25-0.471-1.897-0.626c-0.84-0.2-2.173-0.446-3.012-0.127C65.108,158.189,64.578,159.313,65.324,159.544"/>
	<path fill="#EA2232" d="M64.565,161.399c0.02,0.143,0.049,0.293,0.146,0.399c0.12,0.132,0.312,0.163,0.489,0.186
		c4.531,0.588,9.117,0.632,13.682,0.456c0.148-0.244,0.063-0.576-0.129-0.788c-0.192-0.211-0.465-0.327-0.733-0.425
		c-0.771-0.28-1.581-0.459-2.398-0.529c-0.849-0.073-1.702-0.031-2.553-0.056c-1.88-0.054-3.732-0.439-5.546-0.923
		c-0.497-0.134-2.17-0.929-2.617-0.748C64.375,159.184,64.5,160.92,64.565,161.399"/>
	<g opacity="0.7">
		<g>
			<defs>
				<rect id="SVGID_11_" x="96.425" y="155.15" width="26.944" height="5.71"/>
			</defs>
			<clipPath id="SVGID_12_">
				<use xlink:href="#SVGID_11_"  overflow="visible"/>
			</clipPath>
			<g clip-path="url(#SVGID_12_)">
				<defs>
					<path id="SVGID_13_" d="M103.893,155.583c-1.718,0.319-3.438,0.638-5.156,0.958c-0.572,0.106-1.15,0.214-1.679,0.453
						c-0.293,0.133-0.599,0.35-0.63,0.667c-0.029,0.282,0.168,0.534,0.369,0.733c1.302,1.286,3.197,1.769,5.019,2.03
						c2.262,0.325,4.553,0.39,6.839,0.423c4.652,0.068,9.478-0.027,13.682-1.998c0.502-0.236,1.065-0.616,1.031-1.164
						c-0.021-0.379-0.335-0.677-0.657-0.883c-0.645-0.411-1.399-0.617-2.147-0.786c-4.531-1.025-9.236-0.915-13.883-0.796
						c-1.501,0.038-3.045,0.086-4.421,0.679"/>
				</defs>
				<clipPath id="SVGID_14_">
					<use xlink:href="#SVGID_13_"  overflow="visible"/>
				</clipPath>
				
					<linearGradient id="SVGID_15_" gradientUnits="userSpaceOnUse" x1="-199.4326" y1="1537.9839" x2="-198.4331" y2="1537.9839" gradientTransform="matrix(26.9454 0 0 -26.9454 5470.1875 41599.5625)">
					<stop  offset="0" style="stop-color:#EBF7FE"/>
					<stop  offset="0.0388" style="stop-color:#BFC4CF"/>
					<stop  offset="0.0889" style="stop-color:#999BAB"/>
					<stop  offset="0.1453" style="stop-color:#7C7C8F"/>
					<stop  offset="0.2077" style="stop-color:#67667B"/>
					<stop  offset="0.278" style="stop-color:#56566D"/>
					<stop  offset="0.3602" style="stop-color:#4A4B63"/>
					<stop  offset="0.4618" style="stop-color:#41435C"/>
					<stop  offset="0.6044" style="stop-color:#3D3F58"/>
					<stop  offset="1" style="stop-color:#3B3E57"/>
				</linearGradient>
				<rect x="96.398" y="154.991" clip-path="url(#SVGID_14_)" fill="url(#SVGID_15_)" width="27.003" height="5.924"/>
			</g>
		</g>
	</g>
	<path fill="#8B4920" d="M103.361,155.68c3.688,0.582,7.458,0.393,11.162-0.076c1.795-0.228,3.659-0.553,5.108-1.636
		c-0.655-0.803-1.867-0.762-2.902-0.707c-1.658,0.089-3.324,0.033-4.972-0.169c-0.744-0.09-1.488-0.212-2.197-0.451
		c-0.449-0.152-0.881-0.349-1.333-0.489c-0.702-0.217-1.444-0.29-2.178-0.264c-0.647,0.023-1.945,0.004-2.33,0.646
		C103.578,152.769,103.513,155.704,103.361,155.68"/>
</g>
</svg>
