<?xml version="1.0" encoding="utf-8"?>
<!-- Generator: Adobe Illustrator 16.0.0, SVG Export Plug-In . SVG Version: 6.00 Build 0)  -->
<!DOCTYPE svg PUBLIC "-//W3C//DTD SVG 1.1//EN" "http://www.w3.org/Graphics/SVG/1.1/DTD/svg11.dtd">
<svg version="1.1" id="Layer_1" xmlns="http://www.w3.org/2000/svg" xmlns:xlink="http://www.w3.org/1999/xlink" x="0px" y="0px"
	 width="159.933px" height="159.933px" viewBox="0 0 159.933 159.933" enable-background="new 0 0 159.933 159.933"
	 xml:space="preserve">
<g>
	<g>
		<defs>
			<path id="SVGID_1_" d="M0,79.966c0,44.164,35.802,79.967,79.966,79.967c44.165,0,79.967-35.803,79.967-79.967
				C159.933,35.802,124.131,0,79.966,0C35.802,0,0,35.802,0,79.966"/>
		</defs>
		<clipPath id="SVGID_2_">
			<use xlink:href="#SVGID_1_"  overflow="visible"/>
		</clipPath>
		
			<linearGradient id="SVGID_3_" gradientUnits="userSpaceOnUse" x1="51.9771" y1="1630.3511" x2="52.9771" y2="1630.3511" gradientTransform="matrix(109.1212 144.4706 144.4706 -109.1212 -241186.4688 170400.8125)">
			<stop  offset="0" style="stop-color:#EEF9FE"/>
			<stop  offset="0.2458" style="stop-color:#EEF9FE"/>
			<stop  offset="0.5166" style="stop-color:#C4E5F8"/>
			<stop  offset="1" style="stop-color:#69C4EF"/>
		</linearGradient>
		<polygon clip-path="url(#SVGID_2_)" fill="url(#SVGID_3_)" points="101.835,-76.918 236.851,101.835 58.098,236.851 
			-76.918,58.098 		"/>
	</g>
	<path fill="none" stroke="#D62329" stroke-width="0.25" stroke-miterlimit="10" d="M47.632,74.858
		c2.515,1.687,5.717,2.314,8.682,1.699c2.246-0.465,4.29-1.59,6.395-2.505c0.846-0.368,1.726-0.708,2.648-0.756
		c0.921-0.049,1.903,0.235,2.503,0.938"/>
	<path fill="#343041" d="M41.75,70.268c0.915,2.148-0.191,4.576-1.292,6.635c-1.102,2.059-2.251,4.45-1.412,6.628
		c-4.24-0.229-8.481-0.458-12.722-0.688c0.036-3.947-0.491-7.887-0.071-11.812c0.42-3.925,1.535-7.882,3.956-11
		c2.422-3.117,6.316-5.266,10.244-4.873c0,0.028-0.137-0.26-0.137-0.232c2.518-0.648,5.33,0.173,7.553,1.521
		c3.561,2.161,5.409,6.471,5.516,10.635c-3.91-0.081-7.821-0.161-11.732-0.242C42.282,68.142,42.517,69.041,41.75,70.268"/>
	<path fill="#777677" d="M69.136,126.436c8.309,11.241,23.216,31.402,23.216,31.402h-4.644l-22.36-20.405l-7.453,6.964l-4.151-7.481
		l1.585-3.027l5.132-6.353L69.136,126.436z"/>
	<g opacity="0.68">
		<g>
			<defs>
				<rect id="SVGID_4_" x="34.08" y="95.634" width="60.001" height="28.9"/>
			</defs>
			<clipPath id="SVGID_5_">
				<use xlink:href="#SVGID_4_"  overflow="visible"/>
			</clipPath>
			<path clip-path="url(#SVGID_5_)" fill="#143241" d="M37.18,95.972c0.938,0.497,1.603,1.378,2.222,2.241
				c3.49,4.866,6.56,10.063,10.576,14.505c2.13,2.356,4.572,4.52,7.5,5.751c3.133,1.317,6.658,1.487,10.019,0.99
				c3.362-0.498,6.594-1.633,9.765-2.857c2.241-0.866,4.5-1.788,6.889-2.049c-0.299,0.759-1.189,1.055-1.95,1.349
				c-0.761,0.293-1.605,0.857-1.551,1.671c2.501-0.75,5.09-1.509,7.681-1.192c2.592,0.316,5.205,2.005,5.75,4.559
				c-6.077-0.689-12.273-0.324-18.227,1.073c-3.818,0.895-7.57,2.216-11.482,2.476c-5.429,0.36-10.912-1.406-15.335-4.575
				c-4.422-3.169-7.806-7.682-9.96-12.679c-1.084-2.514-1.871-5.161-3.163-7.584c-0.377-0.707-2.051-2.501-1.811-3.283
				C34.428,95.308,36.496,95.61,37.18,95.972"/>
		</g>
	</g>
	<path fill="#63AED1" d="M85.587,98.896c1.291-0.503,2.595-1,3.958-1.25c1.282-0.235,2.442,0.107,3.741,0.226
		c3.778,0.345,7.978,1.535,11.233,2.333c8.532,2.091,17.458,3.805,26.182,4.838c-0.116,0.82-0.797,1.506-0.631,2.317
		c-9.565,0.351-19.065-1.396-28.593-2.302c-9.528-0.906-19.441-0.918-28.298,2.71c-1.259,0.516-2.722,1.094-3.917,0.116
		c-1.317-1.08-0.52-1.829,0.689-2.381c3.261-1.488,6.55-2.918,9.863-4.288C81.73,100.422,83.655,99.649,85.587,98.896"/>
	<path fill="#EFB8A8" d="M38.839,80.3c1.508,0.192,3.039,0.203,4.549,0.033c-0.483-1.314-0.691-2.727-0.609-4.124
		c0.087,0.033,0.141,0.134,0.121,0.225c1.776,0.881,3.873,0.04,5.082-1.532c0.528-0.685,0.855-1.534,1.507-2.102
		c0.703-0.613,1.747-0.803,2.621-0.478c-1.049-1.582-1.396-3.612-0.931-5.453c-1.56-0.507-3.124-1.016-4.728-1.361
		c-1.171-0.252-2.383-0.416-3.565-0.223c-1.182,0.193-2.341,0.783-3.005,1.78c-0.935,1.402-0.723,3.235-0.71,4.92
		c0.007,1.054-0.077,2.106-0.161,3.156C38.872,76.867,38.978,78.574,38.839,80.3"/>
	<path fill="#EFB8A8" d="M80.938,72.026c0.442,1.763,0.132,3.647-0.537,5.338c-0.668,1.69-1.678,3.22-2.68,4.737
		c-1.905,2.882-3.809,5.764-5.714,8.646c-1.464,2.214-2.934,4.441-4.025,6.861c-1.532-1.308-3.127-2.543-4.776-3.7
		c3.529-3.72,6.951-7.646,10.264-11.56c0.316-0.373,0.635-0.754,0.823-1.204c0.37-0.881,0.192-1.881,0.216-2.836
		c0.027-1.097,0.336-2.186,0.888-3.134c0.373,1.233,0.745,2.467,1.118,3.7c1.291-2.273,2.581-4.546,3.872-6.819
		c0.085-0.148,0.178-0.306,0.333-0.378c0.155-0.071,0.383-0.003,0.408,0.166C81.153,72.012,80.971,72.193,80.938,72.026"/>
	<path fill="#EFB8A8" d="M59.579,91.491l7.583-10.253c0.251-0.339,0.505-0.684,0.65-1.079c0.157-0.425,0.179-0.885,0.275-1.327
		c0.543-2.503,3.249-3.97,4.203-6.347c0.101-0.251,0.03-0.264-0.22-0.366c-0.158-0.065-0.323,0.064-0.445,0.183
		c-1.167,1.147-2.265,2.365-3.286,3.645c1.115-1.599,1.923-3.235,2.95-4.891c-1.215,1.131-2.526,1.821-3.742,2.952
		c-0.748,0.697-1.513,1.416-1.954,2.338c-0.27,0.567-0.408,1.191-0.688,1.753c-0.292,0.584-0.729,1.081-1.164,1.568
		c-2.509,2.809-5.116,5.531-7.815,8.159c-0.049-0.07-0.221-0.087-0.209-0.002C57.071,88.88,58.127,90.573,59.579,91.491"/>
	<path fill="none" stroke="#D62329" stroke-width="0.25" stroke-miterlimit="10" d="M67.803,79.714
		c1.206,0.987,2.412,1.975,3.618,2.961c0.946-1.524,1.923-3.029,2.929-4.513c2.135-3.15,3.936-6.609,6.035-9.783
		c-1.791-0.83-3.583-1.66-5.374-2.49c-2.459,3.57-4.918,7.14-7.378,10.71c-0.473,0.687-0.963,1.552-0.601,2.302
		C67.253,79.361,67.409,79.393,67.803,79.714z"/>
	<path fill="none" stroke="#D62329" stroke-width="0.25" stroke-miterlimit="10" d="M68.319,78.164
		c0.934,0.896,1.949,1.707,3.028,2.421c2.27-3.818,4.764-7.502,7.467-11.027c-1.338-0.733-2.621-1.565-3.837-2.486
		c-1.039,1.563-2.077,3.126-3.116,4.69c-1.001,1.506-2.285,2.806-3.301,4.302c-0.23,0.339-0.462,0.692-0.536,1.094
		C67.949,77.56,68.024,77.881,68.319,78.164z"/>
	<g opacity="0.58">
		<g>
			<defs>
				<rect id="SVGID_6_" x="131.279" y="96.784" width="12.488" height="18.82"/>
			</defs>
			<clipPath id="SVGID_7_">
				<use xlink:href="#SVGID_6_"  overflow="visible"/>
			</clipPath>
			<path clip-path="url(#SVGID_7_)" fill="#36626B" d="M133.552,107.044c-0.336,0.122-0.689,0.238-0.827,0.504
				c-0.166,0.321-0.086,0.725,0.11,1.029c0.195,0.304,0.489,0.529,0.777,0.748c0.086,1.798-0.886,3.47-2.333,4.541
				c1.221,0.745,2.487,1.506,3.905,1.697c1.417,0.19,3.036-0.348,3.672-1.629c0.261-0.526,0.336-1.122,0.447-1.7
				c0.216-1.121,0.584-2.206,0.951-3.287c1.083-3.194,2.167-6.387,3.251-9.581c0.258-0.761,0.473-1.72-0.11-2.272
				c-0.419-0.397-1.105-0.383-1.619-0.121c-0.515,0.262-0.896,0.721-1.261,1.169c-1.243,1.528-2.442,3.091-3.62,4.671
				c-0.637,0.856-1.115,1.826-1.734,2.697c-0.313,0.441-0.651,0.972-1.096,1.295C133.927,106.906,133.742,106.976,133.552,107.044"
				/>
		</g>
	</g>
	<g opacity="0.58">
		<g>
			<defs>
				<rect id="SVGID_8_" x="133.1" y="92.184" width="7.723" height="20.17"/>
			</defs>
			<clipPath id="SVGID_9_">
				<use xlink:href="#SVGID_8_"  overflow="visible"/>
			</clipPath>
			<path clip-path="url(#SVGID_9_)" fill="#36626B" d="M133.115,105.537c-0.046-0.379,0.023-0.761,0.094-1.136
				c0.656-3.435,1.544-6.825,2.654-10.141c0.323-0.966,0.921-2.112,1.94-2.073c0.613,0.023,1.126,0.52,1.361,1.087
				c0.235,0.567,0.247,1.198,0.262,1.812c0.116,4.978,0.559,9.948,1.326,14.869c0.053,0.34,0.107,0.69,0.038,1.028
				c-0.15,0.735-0.877,1.25-1.621,1.349c-0.743,0.099-1.492-0.143-2.17-0.465C134.56,110.708,133.431,108.109,133.115,105.537"/>
		</g>
	</g>
	<path fill="#EFB8A8" d="M130.18,106.513c0.041,0.344-0.018,0.698-0.167,1.01c0.971,0.062,1.943,0.124,2.914,0.185
		c0.168,0.011,0.342,0.021,0.498-0.042c0.25-0.1,0.398-0.37,0.43-0.637c0.032-0.266-0.031-0.535-0.095-0.796
		c-1.138-0.246-2.296-0.399-3.458-0.457c-0.128,0.474-0.06,1.189-0.325,1.608c-0.149,0.236-0.473,0.158-0.596,0.319
		c-0.276,0.36-0.397,0.942-0.55,1.359c-0.224,0.617-1.459,3.116-1.154,3.759c0.237,0.501,1.67,0.028,2.16,0.086
		c0.749,0.088,1.173,0.081,1.762,0.553c0.236,0.189,0.573-0.045,0.766-0.277c0.88-1.057,1.427-2.388,1.544-3.759
		c0.028-0.32,0.029-0.659-0.118-0.945c-0.194-0.38-0.608-0.594-1.015-0.719c-0.859-0.265-1.768-0.243-2.669-0.16"/>
	<path fill="#4DA6B7" d="M68.745,120.604c3.064-0.041,6.008-1.137,8.839-2.308c4.841-2.003,9.573-4.269,14.168-6.785
		c0.346-0.189,0.707-0.384,1.1-0.396c0.479-0.013,0.917,0.246,1.345,0.461c2.136,1.077,4.611,1.201,7.002,1.257
		c8.942,0.21,17.544,0.7,26.478,0.246c-0.036-0.048-0.318,0.074-0.26,0.087c0.058,0.012,0.26-0.519,0.522-0.926
		c0.988-1.534,1.48-3.346,1.862-5.131c-12.276-2.45-24.606-4.642-37.019-6.255c-1.634-0.212-3.292-0.417-4.923-0.183
		c-1.733,0.249-3.353,0.981-4.961,1.673c-4.622,1.989-9.36,3.708-14.181,5.148C69.728,111.964,70.98,116.601,68.745,120.604"/>
	<path fill="none" stroke="#D62329" stroke-width="0.25" stroke-miterlimit="10" d="M123.013,120.249
		c-1.239-0.893-2.478-1.786-3.716-2.678"/>
	<path fill="#DC707B" d="M33.496,89.864c0.527,2.331,1.816,4.407,3.083,6.433c3.313,5.294,6.625,10.589,9.937,15.884
		c1.867,2.985,3.913,6.13,7.119,7.585c1.268,0.575,2.65,0.849,4.028,1.046c3.849,0.551,7.778,0.537,11.623-0.042
		c1.105-4.403,1.003-9.102-0.29-13.453c-0.096-0.323-0.202-0.651-0.41-0.915c-0.534-0.681-1.524-0.727-2.342-1.011
		c-1.876-0.649-2.9-2.597-4.127-4.157c-1.483-1.886-3.442-3.334-5.106-5.062c-2.837-2.946-4.754-6.63-6.987-10.057
		c-0.757-1.162-1.564-2.311-2.599-3.235c-1.788-1.598-4.233-2.436-6.625-2.273C35.796,80.948,32.36,84.848,33.496,89.864"/>
	<path fill="#DC707B" d="M47.447,97.288c1.943,2.399,4.231,4.519,6.771,6.274c0.807,0.558,1.493,1.386,2.257,2
		c0.555,0.446,0.812,0.814,1.318,1.175c1.038,0.738,2.526,0.52,3.589-0.18c1.064-0.701,1.799-1.789,2.506-2.849l3.601-5.398
		c-1.499-1.274-2.996-2.548-4.494-3.822c-1.59,1.376-3.181,2.751-4.772,4.127c-0.024,0.021-0.049,0.042-0.068,0.068"/>
	<path fill="#BC5B69" d="M47.447,97.288c1.581,1.742,3.325,3.306,5.176,4.715c0.464,0.351,0.939,0.686,1.42,1.011
		c0.474,0.297,1.017,0.699,1.441,1.097c0.446,0.399,0.856,0.797,1.296,1.143c0.507,0.395,0.884,0.859,1.302,1.125
		c0.791,0.532,1.958,0.394,2.844-0.114c0.904-0.527,1.593-1.433,2.243-2.377c1.306-1.939,2.623-3.891,3.959-5.818l0.08,0.57
		c-1.477-1.298-2.93-2.624-4.397-3.935l0.37-0.002c-1.653,1.353-3.338,2.668-5.026,3.979c0.752-0.762,1.536-1.487,2.311-2.223
		c0.776-0.734,1.55-1.472,2.344-2.186l0.176-0.158l0.193,0.156c1.529,1.237,3.072,2.458,4.59,3.708l0.292,0.24l-0.212,0.331
		c-1.271,1.976-2.553,3.934-3.86,5.895c-0.658,0.983-1.438,2.001-2.582,2.666c-1.117,0.628-2.645,0.851-3.844,0.02
		c-0.558-0.396-0.914-0.875-1.329-1.208c-0.476-0.389-0.888-0.833-1.293-1.24c-0.415-0.425-0.801-0.747-1.301-1.104
		c-0.473-0.358-0.938-0.726-1.391-1.108C50.429,100.954,48.822,99.193,47.447,97.288"/>
	<path fill="#DC707B" d="M55.309,87.804c1.52,1.326,3.016,2.678,4.489,4.056c-1.099,1.359-2.14,2.766-3.117,4.215
		c-1.144-1.556-2.288-3.112-3.432-4.669c-0.655-0.892-0.094-1.089,0.562-1.785C53.949,89.475,55.377,87.864,55.309,87.804"/>
	<path fill="#605A69" d="M48.612,69.616c0,0.525-0.426,0.95-0.951,0.95c-0.525,0-0.95-0.425-0.95-0.95c0-0.525,0.425-0.95,0.95-0.95
		C48.187,68.666,48.612,69.09,48.612,69.616"/>
	<path fill="#C0BBBC" d="M22.524,94.111c4.21,0.052,8.084,2.548,10.815,5.753c2.731,3.205,4.511,7.09,6.33,10.888
		c1.82,3.797,3.762,7.63,6.73,10.617c2.825,2.843,6.526,4.805,10.465,5.548c10.681,2.013,21.136-4.778,32.004-4.848
		c1.306-0.009,2.648,0.09,3.833,0.639c1.185,0.55,2.193,1.631,2.341,2.929c0.978-0.302,1.666-0.556,2.644-0.858
		c-1.121-3.643-5.075-5.79-8.874-6.092c-3.8-0.302-7.544,0.837-11.242,1.763c-3.804,0.952-7.662,1.69-11.548,2.21
		c-5.361,0.715-11.318,0.861-15.597-2.446c-2-1.546-3.422-3.703-4.79-5.828c-1.653-2.567-3.283-5.15-4.795-7.802
		c-2.156-3.784-4.106-7.757-7.077-10.942c-2.971-3.184-7.244-5.523-11.56-4.937C22.305,92.088,22.422,92.728,22.524,94.111"/>
	<path fill="#784D8E" d="M32.946,156.684c-0.221-0.663-0.249-1.372-0.264-2.07c-0.121-5.731,0.5-11.478,1.844-17.05
		c0.37-1.535,0.813-3.095,1.744-4.37c1.256-1.72,3.277-2.738,5.337-3.282c2.608-0.689,5.419-0.704,7.978,0.148
		c2.56,0.853,4.846,2.599,6.177,4.946c0.83,1.461,1.276,3.104,1.689,4.732c1.451,5.712,2.605,11.57,2.358,17.457
		c-0.025,0.592-0.085,1.236-0.492,1.666c-0.252,0.267-0.603,0.411-0.954,0.517c-1.003,0.3-2.066,0.322-3.114,0.342
		c-2.295,0.042-4.59,0.085-6.886,0.127c-3.368,0.063-6.73,0.088-10.098-0.019C36.141,159.76,33.695,158.924,32.946,156.684"/>
	<path fill="#89639F" d="M37.309,149.182c1.529,0.146,3.068,0.292,4.597,0.152c0.758-0.07,1.509-0.21,2.269-0.253
		c0.571-0.033,1.142-0.011,1.713,0.011c0.341,0.013,0.693,0.029,1.004,0.17c0.312,0.141,0.576,0.44,0.571,0.782
		c-0.197-0.56-0.173-1.194,0.064-1.737c0.396-0.326,1.04-0.162,1.361,0.238c0.32,0.4,0.378,0.953,0.326,1.463
		c-0.044,0.429-0.163,0.865-0.437,1.199s-0.727,0.543-1.146,0.44c-0.419-0.104-0.737-0.578-0.593-0.985
		c0.058-0.166,0.17-0.379,0.032-0.488c-0.06-0.049-0.145-0.048-0.222-0.044c-2.141,0.09-4.285,0.084-6.425-0.018
		c-0.589-0.028-2.57,0.166-2.998-0.231c-0.397-0.368-0.045-2.032-0.007-2.563c0.026-0.365,0.067-0.757,0.307-1.034
		c0.212-0.246,0.542-0.353,0.857-0.43c1.747-0.433,3.576-0.349,5.373-0.261c2.171,0.106,4.341,0.212,6.511,0.318
		c0.409,0.02,0.833,0.044,1.196,0.235c0.8,0.421,1.003,1.46,1.071,2.362c0.183,2.427,0.049,4.878-0.397,7.27
		c-3.039,0.178-6.087,0.214-9.13,0.107c-2.225-0.078-5.734,0.473-5.869-2.534c-0.051-1.149-0.064-2.3-0.039-3.45"/>
	<path fill="#6A4481" d="M47.315,129.745c0.036-0.663-0.405-1.252-0.87-1.726c-0.192-0.195-0.401-0.389-0.663-0.469
		c-0.411-0.126-0.848,0.051-1.232,0.244c-0.355,0.179-0.714,0.384-0.946,0.707c-0.233,0.323-0.306,0.792-0.074,1.114
		c-0.685,0.182-1.39,0.294-2.098,0.334c0.041-0.147,0.083-0.294,0.125-0.441c-0.051,0.11-0.022,0.307-0.072,0.417
		c-0.022-1.391,0.754-2.768,1.955-3.471c1.202-0.703,2.782-0.705,3.985-0.004c1.203,0.701,1.981,2.077,1.962,3.469
		c-0.346-0.145-0.737-0.121-1.111-0.094c-0.354,0.025-0.708,0.051-1.062,0.076c-0.03,0.002-0.069,0.011-0.076,0.041
		c-0.007,0.031,0.059,0.036,0.045,0.008"/>
	<path fill="#666A6E" d="M113.441,157.682c0.713,0.035,1.44-0.262,1.906-0.803c0.465-0.542,0.647-1.32,0.448-2.006
		c-0.046-0.156-0.113-0.31-0.227-0.427c-0.123-0.125-0.291-0.195-0.455-0.258c-1.11-0.424-3.316-0.886-3.931,0.57
		C110.597,156.143,112.161,157.619,113.441,157.682"/>
	<path fill="#666A6E" d="M121.812,157.682c0.713,0.035,1.44-0.262,1.905-0.803c0.466-0.542,0.648-1.32,0.449-2.006
		c-0.046-0.156-0.113-0.31-0.227-0.427c-0.123-0.125-0.291-0.195-0.456-0.258c-1.109-0.424-3.315-0.886-3.93,0.57
		C118.967,156.143,120.531,157.619,121.812,157.682"/>
	<path fill="#666A6E" d="M127.873,157.682c0.713,0.035,1.44-0.262,1.905-0.803c0.466-0.542,0.648-1.32,0.449-2.006
		c-0.046-0.156-0.113-0.31-0.227-0.427c-0.123-0.125-0.291-0.195-0.456-0.258c-1.109-0.424-3.315-0.886-3.93,0.57
		C125.028,156.143,126.592,157.619,127.873,157.682"/>
	<path fill="#2C5070" d="M111.319,154.864c0.101,0.222-0.261,0.362-0.498,0.305c-0.744-0.178-1.419-0.808-1.553-1.562
		c-0.157-0.886,0.139-1.467,0.132-2.233c-0.065-6.408,0.192-36.946,0.192-36.946c0.641-0.547,1.415-0.942,2.192-1.268
		c0.764-0.32,1.651-0.561,2.426-0.269h12.799c-0.025-0.116,0.01-0.244,0.082-0.338c1.096,0.251,2.19,0.501,3.285,0.752
		c0.468,0.107,0.992,0.254,1.22,0.676c0.288,0.531-0.073,1.225,0.123,1.796v38.098c-0.226,0.475-0.536,0.9-1.015,1.117
		c-0.634,0.289-1.366,0.326-2.063,0.326L111.319,154.864z"/>
	<path fill="#5A799F" d="M115.816,142.46c0.996,0.368,2.097,0.25,3.151,0.126c-0.087-0.596-0.082-1.206,0.014-1.801
		c-0.991,0.063-1.992-0.042-2.947-0.312c0-4.204,0.117-8.148,0.117-13.195c0.989,0.271,2.052,0.269,3.04-0.006l-0.277-1.826
		c-0.801-0.185-1.62-0.372-2.438-0.288c-0.818,0.085-1.649,0.493-2.025,1.225c-0.261,0.508-0.275,1.104-0.283,1.676
		c-0.04,2.882-0.081,5.764-0.122,8.645C114.029,137.924,113.445,142.46,115.816,142.46"/>
	<path fill="#F8FCFF" d="M41.916,68.613c0,1.982-1.607,3.59-3.59,3.59c-1.982,0-3.59-1.608-3.59-3.59c0-1.983,1.608-3.59,3.59-3.59
		C40.309,65.023,41.916,66.63,41.916,68.613"/>
	<path fill="#E5E8E9" d="M40.207,65.427c1.026-3.105,2.16-6.187,3.4-9.236c0.135-0.332,0.308-0.698,0.686-0.839
		c0.563-0.208,1.204,0.21,1.809,0.12c-0.734-0.594-2.124-1.695-3.134-1.659c-1.011,0.037-1.066-0.329-2,0
		c-0.199,0.071-0.996,1.663-1.121,1.812c-0.095,0.114-0.13,0.255-0.163,0.391c-0.724,2.993-1.448,5.985-2.172,8.978"/>
	<circle fill="none" stroke="#D62329" stroke-width="0.25" stroke-miterlimit="10" cx="47.257" cy="69.926" r="0.963"/>
</g>
</svg>
