<?xml version="1.0" encoding="utf-8"?>
<!-- Generator: Adobe Illustrator 16.0.0, SVG Export Plug-In . SVG Version: 6.00 Build 0)  -->
<!DOCTYPE svg PUBLIC "-//W3C//DTD SVG 1.1//EN" "http://www.w3.org/Graphics/SVG/1.1/DTD/svg11.dtd">
<svg version="1.1" id="Layer_1" xmlns="http://www.w3.org/2000/svg" xmlns:xlink="http://www.w3.org/1999/xlink" x="0px" y="0px"
	 width="84px" height="57px" viewBox="0 0 84 57" enable-background="new 0 0 84 57" xml:space="preserve">
<g>
	<path fill="#FFFFFF" d="M66.096,10.218H29.631V0.203h36.464V10.218z M31.227,8.623H64.5V1.797H31.227V8.623z"/>
	<path fill="#FFFFFF" d="M65.566,8.623H30.158l-6.492,4.989l0.08,0.81c0.563,0.087,1.113,0.204,1.645,0.361l-0.051-0.446l5.36-4.119
		h34.329l11.57,8.768v1.217l-44.186-0.322c0.546,0.779,1.022,1.611,1.406,2.495l44.377,0.323v-4.506L65.566,8.623z"/>
	<rect x="17.144" y="55.405" fill="#FFFFFF" width="58.446" height="1.595"/>
	<rect x="9.533" y="55.405" fill="#FFFFFF" width="4.616" height="1.595"/>
	<rect x="71.361" y="33.912" fill="#FFFFFF" width="1.596" height="22.291"/>
	<polygon fill="#FFFFFF" points="67.467,56.202 65.873,56.202 65.873,40.721 55.366,40.721 55.366,56.202 53.771,56.202 
		53.771,39.125 67.467,39.125 	"/>
	<path fill="#FFFFFF" d="M51.063,51.199H35.558V39.125h15.505V51.199z M37.152,49.604h12.314v-8.885H37.152V49.604z"/>
	<path fill="#FFFFFF" d="M59.496,34.515c-3.639,0-6.599-3.006-6.599-6.701l0.001-0.056l1.596,0.001v0.056
		c0,2.814,2.243,5.105,5.002,5.105c2.76,0,5.004-2.291,5.004-5.106l-0.002-0.055h1.596l0.002,0.055
		C66.096,31.509,63.135,34.515,59.496,34.515"/>
	<path fill="#FFFFFF" d="M71.098,34.515c-3.637,0-6.598-3.006-6.598-6.701l0.002-0.058l1.594,0.014v0.039
		c0,2.82,2.244,5.111,5.002,5.111c2.76,0,5.004-2.291,5.004-5.106L76.1,27.77l1.596-0.022l0.002,0.066
		C77.697,31.509,74.736,34.515,71.098,34.515"/>
	<path fill="#FFFFFF" d="M47.863,34.515c-3.638,0-6.599-3.006-6.599-6.701l0.001-0.058l1.596,0.014l-0.001,0.039
		c0,2.82,2.244,5.111,5.003,5.111c2.76,0,5.003-2.291,5.003-5.106l-0.001-0.044l1.596-0.022v0.066
		C54.461,31.509,51.502,34.515,47.863,34.515"/>
	<path fill="#FFFFFF" d="M42.952,27.748l-1.595,0.023l0.001,0.043c0,2.815-2.245,5.106-5.003,5.106
		c-0.585,0-1.143-0.108-1.665-0.297c-0.138,0.515-0.302,1.021-0.507,1.512c0.681,0.242,1.41,0.38,2.172,0.38
		c3.638,0,6.598-3.007,6.598-6.701L42.952,27.748z"/>
	
		<rect x="73.918" y="24.057" transform="matrix(0.0076 1 -1 0.0076 101.1472 -52.2089)" fill="#FFFFFF" width="5.918" height="1.596"/>
	<rect x="64.5" y="22.336" fill="#FFFFFF" width="1.596" height="6.025"/>
	<rect x="52.867" y="22.336" fill="#FFFFFF" width="1.594" height="6.025"/>
	<rect x="41.265" y="22.336" fill="#FFFFFF" width="1.595" height="6.025"/>
	<rect x="4.917" y="55.405" fill="#FFFFFF" width="2.308" height="1.595"/>
	<rect x="77.336" y="55.094" fill="#FFFFFF" width="1.746" height="1.595"/>
	<polygon fill="#FFFFFF" points="58.402,10.218 58.402,12.361 63.871,18.739 63.871,20.135 66.48,20.135 66.48,18.556 
		61.076,12.239 61.076,10.218 	"/>
	<polygon fill="#FFFFFF" points="50.143,10.721 50.143,12.604 52.512,19.164 52.512,20.917 54.881,20.917 54.881,18.921 
		52.867,12.3 52.867,10.721 	"/>
	<polygon fill="#FFFFFF" points="45.526,10.721 45.526,12.118 43.309,18.739 43.309,20.439 40.728,20.439 40.728,18.678 
		43.309,12.057 43.309,10.721 	"/>
	<polygon fill="#FFFFFF" points="37.569,10.721 37.569,12.422 32.256,18.344 30.039,16.977 35.141,11.875 35.141,10.721 	"/>
	<path fill="#FFFFFF" d="M21.306,33.715c-2.975,0-5.396-2.421-5.396-5.396c0-2.976,2.421-5.396,5.396-5.396s5.396,2.42,5.396,5.396
		C26.702,31.294,24.281,33.715,21.306,33.715 M21.306,24.518c-2.095,0-3.8,1.705-3.8,3.801c0,2.095,1.705,3.8,3.8,3.8
		c2.096,0,3.801-1.705,3.801-3.8C25.107,26.223,23.402,24.518,21.306,24.518"/>
	<path fill="#FFFFFF" d="M12.784,41.455C9.472,38,6.4,34.063,6.35,28.7c-0.042-4.523,2.024-8.924,5.526-11.773
		c3.526-2.869,8.286-3.987,12.731-2.988c4.334,0.973,8.111,3.934,10.104,7.92c2.139,4.282,2.058,9.559-0.212,13.772
		c-0.292,0.541-0.623,1.073-0.984,1.581l-1.3-0.925c0.323-0.454,0.619-0.93,0.879-1.413c2.028-3.763,2.1-8.477,0.189-12.302
		c-1.78-3.562-5.154-6.208-9.025-7.077c-3.972-0.892-8.225,0.106-11.375,2.669c-3.13,2.546-4.975,6.479-4.937,10.521
		c0.044,4.807,2.905,8.448,5.99,11.667L12.784,41.455z"/>
	<path fill="#FFFFFF" d="M20.6,56.633h1.068l0.19-1.334c0.01-0.068,1.113-7.066,11.654-18.1l-1.153-1.103
		c-7.172,7.505-10.113,13.188-11.301,16.306c-3-8.363-9.847-15.166-10.166-15.479l-1.119,1.137
		c0.083,0.082,8.306,8.256,10.52,17.318L20.6,56.633z"/>
</g>
</svg>
