<?xml version="1.0" encoding="utf-8"?>
<!-- Generator: Adobe Illustrator 16.0.0, SVG Export Plug-In . SVG Version: 6.00 Build 0)  -->
<!DOCTYPE svg PUBLIC "-//W3C//DTD SVG 1.1//EN" "http://www.w3.org/Graphics/SVG/1.1/DTD/svg11.dtd">
<svg version="1.1" id="Layer_1" xmlns="http://www.w3.org/2000/svg" xmlns:xlink="http://www.w3.org/1999/xlink" x="0px" y="0px"
	 width="84px" height="57px" viewBox="0 0 84 57" enable-background="new 0 0 84 57" xml:space="preserve">
<g>
	<g>
		<rect x="5.794" y="55.444" fill="#FFFFFF" width="4.503" height="1.556"/>
	</g>
	<g>
		<rect x="1.291" y="55.444" fill="#FFFFFF" width="2.252" height="1.556"/>
	</g>
	<g>
		<rect x="76.809" y="55.444" fill="#FFFFFF" width="5.9" height="1.556"/>
	</g>
	<g>
		<polygon fill="#FFFFFF" points="51.67,56.902 13.766,56.902 13.766,15.854 21.635,15.854 21.635,18.293 16.205,18.293 
			16.205,54.464 49.231,54.464 49.231,18.293 43.107,18.293 43.107,15.854 51.67,15.854 		"/>
	</g>
	<g>
		<polygon fill="#FFFFFF" points="73.141,56.902 54.189,56.902 54.189,54.464 70.702,54.464 70.702,11.505 47.651,11.505 
			47.651,13.749 45.213,13.749 45.213,9.067 73.141,9.067 		"/>
	</g>
	<g>
		<path fill="#FFFFFF" d="M41.834,22.541h-2.439v-8.527c0-3.369-2.741-6.11-6.111-6.11h-0.994c-3.369,0-6.11,2.741-6.11,6.11v8.527
			H23.74v-8.527c0-4.714,3.835-8.549,8.549-8.549h0.994c4.715,0,8.551,3.835,8.551,8.549V22.541z"/>
	</g>
	<g>
		<rect x="27.356" y="15.854" fill="#FFFFFF" width="10.609" height="2.439"/>
	</g>
	<g>
		<rect x="23.238" y="20.269" fill="#FFFFFF" width="3.49" height="3.902"/>
	</g>
	<g>
		<rect x="38.869" y="20.269" fill="#FFFFFF" width="3.49" height="3.902"/>
	</g>
	<g>
		<path fill="#FFFFFF" d="M56.426,11.504h-9.488V3.341h9.488V11.504z M49.376,9.066h4.611V5.779h-4.611V9.066z"/>
	</g>
	<g>
		<path fill="#FFFFFF" d="M63.476,11.52h-9.488V0h9.488V11.52z M56.426,9.081h4.611V2.438h-4.611V9.081z"/>
	</g>
	<g>
		<path fill="#FFFFFF" d="M70.524,11.045h-9.487V4.066h9.487V11.045z M63.476,8.606h4.61V6.504h-4.61V8.606z"/>
	</g>
</g>
</svg>
