<?xml version="1.0" encoding="utf-8"?>
<!-- Generator: Adobe Illustrator 16.0.0, SVG Export Plug-In . SVG Version: 6.00 Build 0)  -->
<!DOCTYPE svg PUBLIC "-//W3C//DTD SVG 1.1//EN" "http://www.w3.org/Graphics/SVG/1.1/DTD/svg11.dtd">
<svg version="1.1" id="Layer_1" xmlns="http://www.w3.org/2000/svg" xmlns:xlink="http://www.w3.org/1999/xlink" x="0px" y="0px"
	 width="84px" height="57px" viewBox="0 0 84 57" enable-background="new 0 0 84 57" xml:space="preserve">
<g>
	<path fill="#FFFFFF" d="M35.397,48.728h-7.18l-13.89-13.89c-0.058-0.054-1.824-1.735-1.863-4.111
		c-0.023-1.467,0.604-2.849,1.863-4.108c3.673-3.674,16.447-16.061,16.576-16.185l1.014,1.046
		c-0.128,0.124-12.894,12.504-16.56,16.169c-0.97,0.97-1.453,1.999-1.437,3.054c0.029,1.767,1.406,3.076,1.419,3.089l13.481,13.479
		h6.575V48.728z"/>
	<rect x="26.488" y="6.631" fill="#FFFFFF" width="16.412" height="1.458"/>
	<rect x="16.719" y="47.271" fill="#FFFFFF" width="16.412" height="1.457"/>
	<path fill="#FFFFFF" d="M38.102,57c-1.018,0-1.942-0.409-2.751-1.217l-3.829-3.83l1.03-1.03l3.829,3.829
		c0.545,0.544,1.123,0.801,1.766,0.79c1.427-0.027,2.722-1.381,2.734-1.395l0.021-0.022c0.224-0.224,22.452-22.297,24.615-24.459
		c1.812-1.812,1.571-3.117,1.568-3.13l-0.024-0.091V9.03l-7.349-7.349H43.447c-2.61,0-3.996,1.914-4.054,1.995l-0.082,0.097
		l-4.103,4.103l-1.03-1.03l4.063-4.064c0.299-0.399,2.062-2.558,5.205-2.558h16.87l8.201,8.203v17.851
		c0.085,0.482,0.203,2.244-1.971,4.417c-2.148,2.148-24.057,23.905-24.611,24.454c-0.166,0.177-1.769,1.812-3.762,1.85
		C38.149,57,38.126,57,38.102,57"/>
	<rect x="17.892" y="6.631" fill="#FFFFFF" width="1.72" height="1.458"/>
	<rect x="22.112" y="6.631" fill="#FFFFFF" width="1.719" height="1.458"/>
	<rect x="12.334" y="47.271" fill="#FFFFFF" width="1.719" height="1.457"/>
	<rect x="8.138" y="47.271" fill="#FFFFFF" width="1.72" height="1.457"/>
	<path fill="#FFFFFF" d="M39.802,46.257l-4.664-4.08l-5.461,0.248l-1.408-5.637l-4.571-3.324l2.581-5.495l-0.999-5.745l5.286-2.147
		l2.586-5.339l5.803,2.073l5.53-2.597l2.67,5.34l5.953,1.53l-1.078,6.428l3.164,4.665l-4.566,4.064l-0.582,5.766h-5.909
		L39.802,46.257z M35.657,40.693l4.088,3.578l3.795-3.722h5.188l0.508-5.02l4.035-3.593l-2.775-4.09l0.954-5.685L46.148,20.8
		l-2.331-4.663l-4.787,2.249l-5.139-1.835l-2.259,4.665l-4.717,1.916l0.876,5.04l-2.264,4.821l4.024,2.928l1.249,4.993
		L35.657,40.693z"/>
	
		<rect x="38.615" y="21.076" transform="matrix(0.7944 0.6074 -0.6074 0.7944 26.5621 -17.6434)" fill="#FFFFFF" width="1.457" height="18.678"/>
	<path fill="#FFFFFF" d="M36.354,28.66h-1.287c-1.205,0-2.187-0.98-2.187-2.186V23.41c0-1.206,0.981-2.187,2.187-2.187h1.287
		c1.206,0,2.186,0.981,2.186,2.187v3.064C38.539,27.68,37.56,28.66,36.354,28.66 M35.066,22.681c-0.401,0-0.729,0.327-0.729,0.729
		v3.064c0,0.402,0.328,0.729,0.729,0.729h1.287c0.401,0,0.729-0.327,0.729-0.729V23.41c0-0.402-0.327-0.729-0.729-0.729H35.066z"/>
	<path fill="#FFFFFF" d="M44.1,38.567h-1.287c-1.206,0-2.186-0.979-2.186-2.186v-3.064c0-1.205,0.979-2.187,2.186-2.187H44.1
		c1.205,0,2.187,0.981,2.187,2.187v3.064C46.286,37.588,45.305,38.567,44.1,38.567 M42.813,32.589c-0.401,0-0.729,0.327-0.729,0.729
		v3.064c0,0.402,0.327,0.729,0.729,0.729H44.1c0.401,0,0.729-0.326,0.729-0.729v-3.064c0-0.401-0.328-0.729-0.729-0.729H42.813z"/>
	<path fill="#FFFFFF" d="M59.146,16.688c-0.84,0-1.629-0.323-2.225-0.911l-3.652-3.603c-1.243-1.227-1.259-3.236-0.035-4.479
		l1.51-1.532c0.591-0.601,1.383-0.934,2.23-0.94c0.857-0.008,1.646,0.319,2.245,0.911l3.652,3.604
		c1.244,1.227,1.26,3.236,0.036,4.479l-1.509,1.532c-0.592,0.6-1.385,0.934-2.232,0.939C59.16,16.688,59.153,16.688,59.146,16.688
		 M56.994,6.681h-0.011c-0.458,0.003-0.886,0.182-1.202,0.504l-1.511,1.533c-0.659,0.67-0.65,1.755,0.021,2.418l3.653,3.604
		c0.322,0.319,0.757,0.5,1.212,0.491c0.458-0.003,0.885-0.182,1.202-0.505l1.51-1.532c0.66-0.67,0.65-1.756-0.021-2.419
		l-3.652-3.603C57.874,6.855,57.448,6.681,56.994,6.681"/>
	<path fill="#FFFFFF" d="M66.791,21.688V20.23c4.198,0,7.614-3.415,7.614-7.613c0-4.199-3.416-7.614-7.614-7.614
		c-2.303,0-4.458,1.027-5.913,2.817l-1.131-0.919c1.732-2.133,4.301-3.355,7.044-3.355c5.002,0,9.071,4.069,9.071,9.071
		C75.862,17.619,71.793,21.688,66.791,21.688"/>
</g>
</svg>
