<?xml version="1.0" encoding="utf-8"?>
<!-- Generator: Adobe Illustrator 16.0.0, SVG Export Plug-In . SVG Version: 6.00 Build 0)  -->
<!DOCTYPE svg PUBLIC "-//W3C//DTD SVG 1.1//EN" "http://www.w3.org/Graphics/SVG/1.1/DTD/svg11.dtd">
<svg version="1.1" id="Layer_1" xmlns="http://www.w3.org/2000/svg" xmlns:xlink="http://www.w3.org/1999/xlink" x="0px" y="0px"
	 width="84px" height="57px" viewBox="0 0 84 57" enable-background="new 0 0 84 57" xml:space="preserve">
<g>
	<g>
		<rect x="17.706" y="55.538" fill="#FFFFFF" width="4.616" height="1.596"/>
	</g>
	<g>
		<rect x="13.089" y="55.538" fill="#FFFFFF" width="2.309" height="1.596"/>
	</g>
	<g>
		<path fill="#FFFFFF" d="M70.91,57.236H25.266V-0.236H70.91V57.236z M27.266,55.236H68.91V1.764H27.266V55.236z"/>
	</g>
	<g>
		<path fill="#FFFFFF" d="M67.105,16.583H29.482V3.843h37.624V16.583z M31.482,14.583h33.624v-8.74H31.482V14.583z"/>
	</g>
	<g>
		<rect x="41.768" y="9.329" fill="#FFFFFF" width="1.835" height="1.836"/>
	</g>
	<g>
		<rect x="47.375" y="9.329" fill="#FFFFFF" width="1.836" height="1.836"/>
	</g>
	<g>
		<rect x="52.984" y="9.329" fill="#FFFFFF" width="1.836" height="1.836"/>
	</g>
	<g>
		<rect x="30.482" y="18.575" fill="#FFFFFF" width="5.575" height="2.447"/>
	</g>
	<g>
		<rect x="40.816" y="18.575" fill="#FFFFFF" width="5.573" height="2.447"/>
	</g>
	<g>
		<rect x="50.197" y="18.575" fill="#FFFFFF" width="5.574" height="2.447"/>
	</g>
	<g>
		<rect x="60.529" y="18.575" fill="#FFFFFF" width="5.576" height="2.447"/>
	</g>
	<g>
		<path fill="#FFFFFF" d="M40.389,37.702h-3.907c-3.584,0-6.5-2.916-6.5-6.5V30.15c0-3.584,2.916-6.5,6.5-6.5h3.907
			c3.583,0,6.5,2.916,6.5,6.5v1.052C46.889,34.786,43.973,37.702,40.389,37.702z M36.482,24.65c-3.033,0-5.5,2.467-5.5,5.5v1.052
			c0,3.032,2.467,5.5,5.5,5.5h3.907c3.033,0,5.5-2.468,5.5-5.5V30.15c0-3.033-2.467-5.5-5.5-5.5H36.482z"/>
	</g>
	<g>
		<path fill="#FFFFFF" d="M60.104,37.702h-3.906c-3.584,0-6.5-2.916-6.5-6.5V30.15c0-3.584,2.916-6.5,6.5-6.5h3.906
			c3.584,0,6.5,2.916,6.5,6.5v1.052C66.604,34.786,63.688,37.702,60.104,37.702z M56.197,24.65c-3.033,0-5.5,2.467-5.5,5.5v1.052
			c0,3.032,2.467,5.5,5.5,5.5h3.906c3.033,0,5.5-2.468,5.5-5.5V30.15c0-3.033-2.467-5.5-5.5-5.5H56.197z"/>
	</g>
	<g>
		<path fill="#FFFFFF" d="M60.104,53.398h-3.906c-3.584,0-6.5-2.916-6.5-6.5v-1.052c0-3.584,2.916-6.5,6.5-6.5h3.906
			c3.584,0,6.5,2.916,6.5,6.5v1.052C66.604,50.482,63.688,53.398,60.104,53.398z M56.197,40.347c-3.033,0-5.5,2.467-5.5,5.5v1.052
			c0,3.032,2.467,5.5,5.5,5.5h3.906c3.033,0,5.5-2.468,5.5-5.5v-1.052c0-3.033-2.467-5.5-5.5-5.5H56.197z"/>
	</g>
	<g>
		<path fill="#FFFFFF" d="M40.389,53.398h-3.907c-3.584,0-6.5-2.916-6.5-6.5v-1.052c0-3.584,2.916-6.5,6.5-6.5h3.907
			c3.583,0,6.5,2.916,6.5,6.5v1.052C46.889,50.482,43.973,53.398,40.389,53.398z M36.482,40.347c-3.033,0-5.5,2.467-5.5,5.5v1.052
			c0,3.032,2.467,5.5,5.5,5.5h3.907c3.033,0,5.5-2.468,5.5-5.5v-1.052c0-3.033-2.467-5.5-5.5-5.5H36.482z"/>
	</g>
	<g>
		
			<rect x="33.56" y="29.812" transform="matrix(0.7071 0.7071 -0.7071 0.7071 33.0249 -18.1051)" fill="#FFFFFF" width="9.614" height="2"/>
	</g>
	<g>
		
			<rect x="37.368" y="26.005" transform="matrix(0.7071 0.7071 -0.7071 0.7071 33.0252 -18.1058)" fill="#FFFFFF" width="2" height="9.614"/>
	</g>
	<g>
		<rect x="57.15" y="25.936" fill="#FFFFFF" width="2" height="9.771"/>
	</g>
	<g>
		<rect x="53.264" y="29.821" fill="#FFFFFF" width="9.771" height="2"/>
	</g>
	<g>
		<rect x="53.264" y="43.544" fill="#FFFFFF" width="9.771" height="2"/>
	</g>
	<g>
		<rect x="53.264" y="46.943" fill="#FFFFFF" width="9.771" height="2"/>
	</g>
	<g>
		
			<rect x="37.652" y="41.387" transform="matrix(0.7071 0.7071 -0.7071 0.7071 44.0406 -13.7784)" fill="#FFFFFF" width="2" height="9.772"/>
	</g>
</g>
</svg>
