<?xml version="1.0" encoding="utf-8"?>
<!-- Generator: Adobe Illustrator 16.0.0, SVG Export Plug-In . SVG Version: 6.00 Build 0)  -->
<!DOCTYPE svg PUBLIC "-//W3C//DTD SVG 1.1//EN" "http://www.w3.org/Graphics/SVG/1.1/DTD/svg11.dtd">
<svg version="1.1" id="Layer_1" xmlns="http://www.w3.org/2000/svg" xmlns:xlink="http://www.w3.org/1999/xlink" x="0px" y="0px"
	 width="10.996px" height="10.997px" viewBox="0 0 10.996 10.997" enable-background="new 0 0 10.996 10.997" xml:space="preserve">
<g>
	<path fill="#FFFFFF" d="M4.656,9.312c-1.244,0-2.413-0.484-3.293-1.364C0.483,7.069,0,5.9,0,4.656s0.483-2.413,1.363-3.293
		C2.243,0.484,3.412,0,4.656,0c1.243,0,2.412,0.484,3.292,1.363c0.88,0.88,1.363,2.049,1.363,3.293S8.828,7.069,7.948,7.948
		C7.068,8.828,5.899,9.312,4.656,9.312 M4.656,0.888c-2.078,0-3.769,1.69-3.769,3.768c0,2.077,1.69,3.768,3.769,3.768
		c2.077,0,3.768-1.691,3.768-3.768C8.424,2.578,6.733,0.888,4.656,0.888"/>
	<path fill="#FFFFFF" d="M10.553,10.997c-0.113,0-0.228-0.043-0.314-0.13l-2.92-2.92c-0.174-0.174-0.174-0.455,0-0.629
		c0.173-0.173,0.455-0.173,0.628,0l2.92,2.921c0.174,0.173,0.174,0.454,0,0.628C10.78,10.954,10.666,10.997,10.553,10.997"/>
</g>
</svg>
