<?xml version="1.0" encoding="utf-8"?>
<!-- Generator: Adobe Illustrator 16.0.0, SVG Export Plug-In . SVG Version: 6.00 Build 0)  -->
<!DOCTYPE svg PUBLIC "-//W3C//DTD SVG 1.1//EN" "http://www.w3.org/Graphics/SVG/1.1/DTD/svg11.dtd">
<svg version="1.1" id="Layer_1" xmlns="http://www.w3.org/2000/svg" xmlns:xlink="http://www.w3.org/1999/xlink" x="0px" y="0px"
	 width="98.883px" height="68.231px" viewBox="0 0 98.883 68.231" enable-background="new 0 0 98.883 68.231" xml:space="preserve">
<g>
	<path fill="#BB8536" d="M25.551,64.945h-5.345l-1.208,3.286h-1.763l4.934-12.76h1.48l4.854,12.76h-1.76L25.551,64.945z
		 M20.741,63.499h4.293l-2.104-5.809h-0.052L20.741,63.499z"/>
	<polygon fill="#BB8536" points="57.433,66.873 63.471,66.873 63.471,68.23 55.707,68.23 55.707,55.473 57.433,55.473 	"/>
	<polygon fill="#BB8536" points="91.75,66.873 98.883,66.873 98.883,68.23 89.805,68.23 89.805,66.943 96.622,56.831 89.9,56.831 
		89.9,55.473 98.593,55.473 98.593,56.708 	"/>
	<polygon fill="#BB8536" points="74.141,66.873 74.141,56.831 80.782,56.831 80.782,55.473 72.414,55.473 72.414,68.23 
		80.878,68.23 80.878,66.873 	"/>
	<rect x="75.868" y="60.959" fill="#BB8536" width="4.686" height="1.358"/>
	<path fill="#BB8536" d="M45.941,62.571c-0.44-0.59-1.046-0.968-1.818-1.132c0.592-0.216,1.067-0.547,1.428-0.994
		c0.363-0.446,0.545-0.953,0.545-1.521c0-1.149-0.377-2.014-1.132-2.588c-0.753-0.574-1.796-0.863-3.128-0.863h-4.162V68.23h4.715
		c1.297,0,2.324-0.309,3.081-0.923c0.754-0.617,1.134-1.509,1.134-2.679C46.604,63.848,46.383,63.161,45.941,62.571 M44.221,66.292
		c-0.438,0.389-1.05,0.58-1.832,0.58H39.4v-1.371h-0.025v-8.05H39.4V56.83h2.436c0.818,0,1.444,0.171,1.88,0.514
		c0.437,0.341,0.653,0.857,0.653,1.545c0,0.633-0.2,1.125-0.605,1.477c-0.402,0.354-0.925,0.532-1.567,0.532h-1.111v1.356h1.558
		c0.76,0,1.322,0.215,1.688,0.639c0.365,0.425,0.546,1.01,0.546,1.754C44.876,65.356,44.659,65.904,44.221,66.292"/>
	<rect x="4.09" y="58.219" fill="#BB8536" width="1.729" height="10.012"/>
	<rect y="55.472" fill="#BB8536" width="9.919" height="1.358"/>
	<path fill="#BB8536" d="M75.175,22.475l-0.01-0.092l-0.008-0.043l-0.074-0.226L62.53,0.351C62.407,0.133,62.176,0,61.925,0H36.922
		l-0.028,0.003L36.771,0.02l-0.047,0.01l-0.149,0.064l0,0l-0.009,0.005l-0.124,0.096l-0.03,0.032l-0.08,0.103l-0.017,0.021
		L23.799,22.133c-0.124,0.215-0.124,0.479-0.001,0.693l12.461,21.897l0.016,0.022l0.078,0.104l0.031,0.033l0.121,0.092l0.011,0.01
		l0.003,0.002l0.092,0.037l0.075,0.031l0.181,0.024l0.002-0.002h25.008c0.249,0,0.481-0.134,0.605-0.35L75.02,22.924
		c0.097-0.12,0.157-0.271,0.157-0.437L75.175,22.475z M65.667,36.378h-6.734l7.542-13.189h6.778L65.667,36.378z M73.275,21.786
		h-6.821L62.5,14.873c-0.124-0.216-0.357-0.352-0.608-0.352l-16.25-0.003l-3.355-5.843H57.73c0.249,0,0.48-0.135,0.604-0.35
		c0.126-0.217,0.127-0.482,0.004-0.7L54.79,1.4h6.729L73.275,21.786z M36.866,42.963l-7.52-13.214l3.376-5.856l7.498,13.187
		L36.866,42.963z M53.178,1.4l3.348,5.871H41.491L38.133,1.4H53.178z M41.07,9.354l3.357,5.863l-3.38,5.85l-3.344-5.839L41.07,9.354
		z M52.35,15.918l-3.382,5.858h-6.7l3.373-5.858H52.35z M48.977,23.179l3.365,5.868L45.6,29.059l-3.354-5.88H48.977z M45.592,30.446
		h6.759l-3.404,5.933h-6.74L45.592,30.446z M53.558,28.327l-2.848-4.948l-0.517-0.901l3.374-5.852l3.367,5.841L53.558,28.327z
		 M54.774,15.915l6.711,0.007l3.352,5.861h-6.688L54.774,15.915z M36.922,2.107l3.345,5.831l-3.976,6.939
		c-0.124,0.217-0.124,0.481-0.001,0.696l4.094,7.156l0.046,0.105l0.019,0.024l3.935,6.892l-3.37,5.888l-7.677-13.504
		c-0.124-0.219-0.357-0.353-0.608-0.354h-0.002c-0.249,0-0.479,0.134-0.605,0.352l-3.574,6.204l-3.332-5.854L36.922,2.107z
		 M61.47,43.678H38.073l3.36-5.897h7.918c0.253,0,0.483-0.134,0.608-0.353l4.207-7.328l0.041-0.094l3.939-6.82h6.717l-7.745,13.543
		c-0.124,0.217-0.124,0.482,0.002,0.699c0.125,0.216,0.356,0.349,0.605,0.349l7.135,0.004L61.47,43.678z"/>
	<path fill="#BB8536" d="M25.551,64.945h-5.345l-1.208,3.286h-1.763l4.934-12.76h1.48l4.854,12.76h-1.76L25.551,64.945z
		 M20.741,63.499h4.293l-2.104-5.809h-0.052L20.741,63.499z"/>
	<polygon fill="#BB8536" points="57.433,66.873 63.471,66.873 63.471,68.23 55.707,68.23 55.707,55.473 57.433,55.473 	"/>
	<polygon fill="#BB8536" points="91.75,66.873 98.883,66.873 98.883,68.23 89.805,68.23 89.805,66.943 96.622,56.831 89.9,56.831 
		89.9,55.473 98.593,55.473 98.593,56.708 	"/>
	<polygon fill="#BB8536" points="74.141,66.873 74.141,56.831 80.782,56.831 80.782,55.473 72.414,55.473 72.414,68.23 
		80.878,68.23 80.878,66.873 	"/>
	<rect x="75.868" y="60.959" fill="#BB8536" width="4.686" height="1.358"/>
	<path fill="#BB8536" d="M45.941,62.571c-0.44-0.59-1.046-0.968-1.818-1.132c0.592-0.216,1.067-0.547,1.428-0.994
		c0.363-0.446,0.545-0.953,0.545-1.521c0-1.149-0.377-2.014-1.132-2.588c-0.753-0.574-1.796-0.863-3.128-0.863h-4.162V68.23h4.715
		c1.297,0,2.324-0.309,3.081-0.923c0.754-0.617,1.134-1.509,1.134-2.679C46.604,63.848,46.383,63.161,45.941,62.571 M44.221,66.292
		c-0.438,0.389-1.05,0.58-1.832,0.58H39.4v-1.371h-0.025v-8.05H39.4V56.83h2.436c0.818,0,1.444,0.171,1.88,0.514
		c0.437,0.341,0.653,0.857,0.653,1.545c0,0.633-0.2,1.125-0.605,1.477c-0.402,0.354-0.925,0.532-1.567,0.532h-1.111v1.356h1.558
		c0.76,0,1.322,0.215,1.688,0.639c0.365,0.425,0.546,1.01,0.546,1.754C44.876,65.356,44.659,65.904,44.221,66.292"/>
	<rect x="4.09" y="58.219" fill="#BB8536" width="1.729" height="10.012"/>
	<rect y="55.472" fill="#BB8536" width="9.919" height="1.358"/>
	<path fill="#BB8536" d="M75.175,22.475l-0.01-0.092l-0.008-0.043l-0.074-0.226L62.53,0.351C62.407,0.133,62.176,0,61.925,0H36.922
		l-0.028,0.003L36.771,0.02l-0.047,0.01l-0.149,0.064l0,0l-0.009,0.005l-0.124,0.096l-0.03,0.032l-0.08,0.103l-0.017,0.021
		L23.799,22.133c-0.124,0.215-0.124,0.479-0.001,0.693l12.461,21.897l0.016,0.022l0.078,0.104l0.031,0.033l0.121,0.092l0.011,0.01
		l0.003,0.002l0.092,0.037l0.075,0.031l0.181,0.024l0.002-0.002h25.008c0.249,0,0.481-0.134,0.605-0.35L75.02,22.924
		c0.097-0.12,0.157-0.271,0.157-0.437L75.175,22.475z M65.667,36.378h-6.734l7.542-13.189h6.778L65.667,36.378z M73.275,21.786
		h-6.821L62.5,14.873c-0.124-0.216-0.357-0.352-0.608-0.352l-16.25-0.003l-3.355-5.843H57.73c0.249,0,0.48-0.135,0.604-0.35
		c0.126-0.217,0.127-0.482,0.004-0.7L54.79,1.4h6.729L73.275,21.786z M36.866,42.963l-7.52-13.214l3.376-5.856l7.498,13.187
		L36.866,42.963z M53.178,1.4l3.348,5.871H41.491L38.133,1.4H53.178z M41.07,9.354l3.357,5.863l-3.38,5.85l-3.344-5.839L41.07,9.354
		z M52.35,15.918l-3.382,5.858h-6.7l3.373-5.858H52.35z M48.977,23.179l3.365,5.868L45.6,29.059l-3.354-5.88H48.977z M45.592,30.446
		h6.759l-3.404,5.933h-6.74L45.592,30.446z M53.558,28.327l-2.848-4.948l-0.517-0.901l3.374-5.852l3.367,5.841L53.558,28.327z
		 M54.774,15.915l6.711,0.007l3.352,5.861h-6.688L54.774,15.915z M36.922,2.107l3.345,5.831l-3.976,6.939
		c-0.124,0.217-0.124,0.481-0.001,0.696l4.094,7.156l0.046,0.105l0.019,0.024l3.935,6.892l-3.37,5.888l-7.677-13.504
		c-0.124-0.219-0.357-0.353-0.608-0.354h-0.002c-0.249,0-0.479,0.134-0.605,0.352l-3.574,6.204l-3.332-5.854L36.922,2.107z
		 M61.47,43.678H38.073l3.36-5.897h7.918c0.253,0,0.483-0.134,0.608-0.353l4.207-7.328l0.041-0.094l3.939-6.82h6.717l-7.745,13.543
		c-0.124,0.217-0.124,0.482,0.002,0.699c0.125,0.216,0.356,0.349,0.605,0.349l7.135,0.004L61.47,43.678z"/>
</g>
</svg>
