<?xml version="1.0" encoding="utf-8"?>
<!-- Generator: Adobe Illustrator 16.0.0, SVG Export Plug-In . SVG Version: 6.00 Build 0)  -->
<!DOCTYPE svg PUBLIC "-//W3C//DTD SVG 1.1//EN" "http://www.w3.org/Graphics/SVG/1.1/DTD/svg11.dtd">
<svg version="1.1" id="Layer_1" xmlns="http://www.w3.org/2000/svg" xmlns:xlink="http://www.w3.org/1999/xlink" x="0px" y="0px"
	 width="128.285px" height="128.286px" viewBox="0 0 128.285 128.286" enable-background="new 0 0 128.285 128.286"
	 xml:space="preserve">
<path fill="#FFCF71" d="M128.285,64.144c0,35.425-28.718,64.143-64.143,64.143C28.719,128.286,0,99.568,0,64.144S28.719,0,64.143,0
	C99.567,0,128.285,28.719,128.285,64.144"/>
<path fill="#575858" d="M30.828,56.769H20.204c-0.101,0-0.181-0.082-0.181-0.182v-0.148c0-0.1,0.08-0.181,0.181-0.181h10.624
	c0.1,0,0.181,0.081,0.181,0.181v0.148C31.009,56.687,30.928,56.769,30.828,56.769"/>
<path fill="#575858" d="M30.092,52.501H23.83c-0.1,0-0.182-0.082-0.182-0.182v-0.148c0-0.099,0.082-0.181,0.182-0.181h6.262
	c0.1,0,0.181,0.082,0.181,0.181v0.148C30.272,52.419,30.191,52.501,30.092,52.501"/>
<path fill="#575858" d="M22.839,52.501H20.94c-0.101,0-0.182-0.082-0.182-0.182v-0.148c0-0.099,0.081-0.181,0.182-0.181h1.898
	c0.101,0,0.182,0.082,0.182,0.181v0.148C23.021,52.419,22.939,52.501,22.839,52.501"/>
<path fill="#575858" d="M114.864,62.164H104.24c-0.1,0-0.181-0.082-0.181-0.182v-0.147c0-0.101,0.081-0.181,0.181-0.181h10.624
	c0.101,0,0.182,0.08,0.182,0.181v0.147C115.046,62.082,114.965,62.164,114.864,62.164"/>
<path fill="#575858" d="M108.635,57.935h-6.262c-0.099,0-0.181-0.082-0.181-0.181v-0.149c0-0.099,0.082-0.181,0.181-0.181h6.262
	c0.101,0,0.182,0.082,0.182,0.181v0.149C108.816,57.853,108.735,57.935,108.635,57.935"/>
<path fill="#575858" d="M101.383,57.935h-1.899c-0.1,0-0.181-0.082-0.181-0.181v-0.149c0-0.099,0.081-0.181,0.181-0.181h1.899
	c0.1,0,0.181,0.082,0.181,0.181v0.149C101.563,57.853,101.482,57.935,101.383,57.935"/>
<circle fill="none" stroke="#575858" stroke-miterlimit="10" cx="29.774" cy="82.014" r="1.186"/>
<circle fill="none" stroke="#575858" stroke-miterlimit="10" cx="108.76" cy="74.494" r="1.186"/>
<line fill="#575858" x1="23.317" y1="63.855" x2="26.075" y2="63.855"/>
<line fill="#575858" x1="24.696" y1="65.234" x2="24.696" y2="62.478"/>
<circle fill="none" stroke="#575858" stroke-miterlimit="10" cx="97.895" cy="47.983" r="1.186"/>
<path fill="#575858" d="M37.688,74.624c0.001-9.015,0-18.029,0.006-27.044c0.001-1.98,0.663-3.661,2.281-4.9
	c1.096-0.841,2.347-1.209,3.7-1.215c4.485-0.016,8.971-0.019,13.457,0.01c0.62,0.004,0.781-0.17,0.761-0.773
	c-0.049-1.39-0.025-2.783-0.031-4.175c0.015-0.617,0.036-1.234,0.045-1.853c0.012-0.85,0.114-0.962,0.952-0.963
	c2.475-0.003,4.95-0.001,7.426-0.001h24.797c1.379,0,1.378,0,1.407,1.368c0.002,0.088,0.017,0.176,0.024,0.265
	c-0.006,4.952-0.014,9.906-0.017,14.859c-0.001,1.113-0.203,2.199-0.74,3.162c-1.078,1.928-2.764,2.931-4.985,2.958
	c-1.857,0.022-3.715,0.006-5.572,0.007c-2.964,0-5.927,0.013-8.89-0.013c-0.531-0.004-0.695,0.154-0.666,0.674
	c0.041,0.729,0.061,1.464-0.004,2.188c-0.063,0.688,0.253,0.754,0.809,0.701c3.256-0.3,6.52-0.45,9.79-0.392
	c0.581,0.011,1.016,0.245,1.352,0.702c0.44,0.6,0.837,0.68,1.45,0.251c0.778-0.544,1.56-1.088,2.302-1.679
	c0.458-0.365,0.886-0.397,1.406-0.178c2.399,1.015,4.805,2.018,7.215,3.007c0.384,0.157,0.555,0.38,0.547,0.793
	c-0.01,0.507,0.023,1.014,0.039,1.521c0.056,0.573-0.189,0.961-0.722,1.172c-0.08,0.008-0.14,0.038-0.141,0.131l0.002-0.003
	c-0.306-0.053-0.557,0.113-0.817,0.219c-2.102,0.851-4.207,1.694-6.295,2.577c-0.458,0.194-0.787,0.115-1.152-0.157
	c-0.796-0.595-1.598-1.179-2.412-1.744c-0.563-0.393-0.976-0.309-1.38,0.222c-0.385,0.502-0.863,0.779-1.527,0.761
	c-1.849-0.051-3.7,0.073-5.548-0.138c-1.438-0.164-2.887-0.242-4.328-0.376c-0.359-0.033-0.586-0.025-0.582,0.444
	c0.02,2.118,0.015,4.238,0.014,6.357c0,0.234,0.015,0.437,0.286,0.522c1.382,0.439,2.47,1.316,3.456,2.343
	c0.364,0.664,0.833,1.269,1.119,2.1c0.925-1.219,2.115-1.788,3.509-1.968c0.735,0.056,1.441,0.231,2.124,0.504
	c0.436,0.336,0.949,0.579,1.275,1.044c0.248,0.353,0.39,0.3,0.56-0.077c0.849-1.89,2.268-3.184,4.212-3.88
	c1.904-0.681,3.776-0.498,5.612,0.284c0.534,0.356,1.068,0.712,1.602,1.067c1.929,1.85,2.746,4.094,2.404,6.752
	c-0.197,0.599-0.338,1.224-0.601,1.792c-1.07,2.309-2.935,3.627-5.378,4.185c-2.655,0.336-4.9-0.477-6.748-2.403
	c-0.356-0.535-0.712-1.07-1.068-1.605c-0.427-1.088-0.744-2.193-0.695-3.384c0.063-1.522-0.838-2.653-2.354-3.02
	c-0.473-0.18-0.96-0.141-1.438-0.064c-1.303,0.205-2.564,1.474-2.583,2.582c-0.008,0.462,0.02,0.926,0.029,1.389
	c-0.039,0.149-0.091,0.296-0.117,0.447c-0.373,2.222-1.559,3.882-3.435,5.104c-0.577,0.376-1.517,0.319-1.744,0.999
	c-0.22,0.656-0.046,1.442-0.054,2.17c-0.009,0.753-0.136,0.869-0.896,0.89c-1.145,0.028-2.293-0.072-3.437,0.057
	c-0.847-0.098-1.693-0.084-2.54-0.011c-2.305-0.017-4.609-0.041-6.913-0.042c-0.832,0-1.667-0.072-2.497,0.054
	c-0.844-0.099-1.688-0.085-2.533-0.012c-2.208-0.017-4.417-0.043-6.625-0.042c-0.925,0-1.854-0.075-2.778,0.053
	c-0.846-0.098-1.692-0.084-2.54-0.011c-0.771-0.017-1.543-0.056-2.313-0.04c-0.62,0.012-0.875-0.229-0.868-0.862
	c0.019-1.635-0.004-3.27-0.011-4.905c-0.003-0.841-0.005-1.683-0.007-2.524C37.68,80.111,37.685,77.368,37.688,74.624"/>
<path fill="#FFFFFF" d="M59.033,37.199c-0.085,0.845-0.104,1.689,0.014,2.534c-0.012,0.439-0.014,0.88-0.039,1.319
	c-0.017,0.311,0.099,0.428,0.416,0.424c2.577-0.018,5.154-0.024,7.731-0.034c0.842,0.003,1.685,0.006,2.526,0.009
	c0.528,0.008,1.058,0.003,1.584,0.024c2.432,0.102,4.892-0.307,7.283,0.434c0.128,0.084,0.253,0.175,0.385,0.251
	c1.724,1.002,2.764,2.448,2.987,4.464c0.161,1.456,0.02,2.914,0.106,4.369c0.14,2.31,2.071,4.171,4.449,4.257
	c2.477,0.09,4.539-1.613,4.852-3.961c0.121-0.905,0.081-1.807,0.083-2.711c0.008-4.375-0.005-8.75,0.015-13.125
	c0.003-0.521-0.135-0.678-0.662-0.666c-1.766,0.041-3.533,0.032-5.301,0.042c-3.181-0.068-6.364-0.055-9.546-0.006
	c-0.841-0.003-1.682-0.006-2.522-0.008c-3.141,0.002-6.28,0.005-9.421,0.008c-0.841-0.003-1.682-0.006-2.522-0.008
	c-0.662-0.009-1.324-0.008-1.986-0.028c-0.315-0.01-0.502,0.056-0.482,0.431C59.015,35.877,59.017,36.538,59.033,37.199"/>
<path fill="#575858" d="M69.412,74.651c-0.368,0.165-0.769,0.036-1.146,0.126c-2.677,0.637-4.721,3.081-4.731,5.698
	c-0.1,0.778-0.032,1.533,0.309,2.25c0.271,1.16,0.936,2.059,1.852,2.79c1.728,1.576,4.485,1.967,6.615,0.917
	c2.294-1.131,3.476-3.031,3.561-5.543c0.049-1.428-0.339-2.794-1.38-3.881c-0.689-1.017-1.637-1.672-2.813-2.002
	C70.958,74.66,70.194,74.599,69.412,74.651"/>
<path fill="#575858" d="M85.983,84.889c0.183,0.35,0.483,0.568,0.813,0.76c0.11,0.105,0.208,0.229,0.332,0.312
	c3.684,2.458,8.715,0.413,9.558-3.943c0.352-1.812,0.021-3.549-1.253-5.002c-0.192-0.328-0.41-0.631-0.759-0.813
	c-0.524-0.568-1.188-0.911-1.906-1.159c-2.472-0.896-4.708-0.413-6.533,1.411c-1.824,1.826-2.3,4.063-1.41,6.536
	C85.08,83.703,85.414,84.368,85.983,84.889"/>
<path fill="#575858" d="M92.097,63.855c-0.571-0.091-1.065-0.132-1.474,0.483c-0.427,0.643-1.305,0.724-1.953,0.339
	c-0.62-0.368-0.932-0.976-0.809-1.665c0.119-0.668,0.544-1.088,1.179-1.29c0.595-0.188,1.288,0.05,1.696,0.592
	c0.158,0.21,0.248,0.441,0.589,0.426c0.79-0.036,1.582-0.034,2.373-0.049c0.563,0.045,1.128,0.094,1.804-0.05
	c-0.542-0.348-1.034-0.5-1.511-0.682c-1.811-0.756-3.621-1.505-5.425-2.272c-0.302-0.128-0.524-0.104-0.781,0.097
	c-0.696,0.541-1.628,0.925-2.055,1.622c-0.415,0.68-0.088,1.676-0.117,2.532c-0.012,0.286,0.013,0.574-0.006,0.86
	c-0.02,0.27,0.07,0.452,0.295,0.609c0.651,0.454,1.295,0.922,1.928,1.399c0.218,0.164,0.417,0.209,0.667,0.094
	c0.58-0.266,1.166-0.519,1.749-0.776c1.74-0.698,3.48-1.397,5.22-2.096c-0.016-0.058-0.032-0.115-0.047-0.174H92.097z"/>
<path fill="#575858" d="M71.674,62.954c-0.011,0.705-0.018,1.41-0.035,2.115c-0.009,0.348,0.117,0.524,0.493,0.535
	c1.647,0.049,3.291,0.16,4.926,0.39c0.862,0.12,0.984-0.001,0.984-0.85c0-1.344-0.019-2.689,0.009-4.033
	c0.01-0.448-0.129-0.561-0.562-0.521c-1.229,0.111-2.461,0.182-3.69,0.27C71.622,60.802,71.501,60.921,71.674,62.954"/>
<path fill="#FFFFFF" d="M38.799,71.98c-0.002,2.121-0.005,4.242-0.007,6.364c-0.022,0.041-0.023,0.083-0.003,0.126
	c-0.007,3.604,0.005,7.208-0.035,10.812c-0.008,0.655,0.182,0.792,0.809,0.791c9.862-0.021,19.726-0.016,29.589-0.014
	c1.479,0,1.466,0.004,1.424-1.515c-0.01-0.379-0.11-0.501-0.498-0.461c-0.981,0.099-1.945-0.041-2.857-0.408
	c-3.109-1.258-4.703-3.591-4.856-6.928c0.022-0.343,0.046-0.686,0.069-1.028l0.549-1.788c0.112-0.252,0.226-0.504,0.338-0.756
	c0.131-0.176,0.262-0.351,0.392-0.525c1.507-2.033,3.506-3.136,6.058-3.079c0.654,0.015,0.813-0.151,0.811-0.785
	c-0.021-6.739,0-13.477-0.021-20.216c-0.007-1.852,0.094-3.707-0.05-5.558c0.164-1.75,0.929-3.192,2.228-4.363
	c0.028-0.021,0.059-0.041,0.088-0.062c-0.034-0.005-0.068-0.01-0.103-0.015c-1.542-0.022-3.085-0.069-4.627,0.025
	c-0.844-0.081-1.688-0.061-2.533-0.017c-1.348-0.011-2.695-0.033-4.042-0.028c-1.789,0.005-3.577,0.028-5.366,0.045
	c-0.845-0.081-1.69-0.061-2.535-0.017c-1.348-0.011-2.695-0.033-4.042-0.028c-1.789,0.005-3.578,0.028-5.367,0.045
	c-0.703-0.1-1.406-0.05-2.067,0.18c-2.438,0.847-3.52,2.591-3.342,5.316c-0.002,3.138-0.004,6.276-0.006,9.415l0.006,2.527
	l-0.006,9.415L38.799,71.98z"/>
<path fill="#575858" d="M79.122,63.218h0.003c0,0.771,0.011,1.545-0.005,2.316c-0.006,0.312,0.038,0.491,0.421,0.479
	c0.86-0.024,1.723-0.006,2.582-0.006c0.497,0,0.714-0.256,0.711-0.746c-0.007-1.323-0.006-2.648-0.001-3.972
	c0.002-0.49-0.217-0.737-0.717-0.734c-0.86,0.005-1.722,0.012-2.582-0.005c-0.313-0.005-0.426,0.097-0.418,0.416
	C79.136,61.717,79.122,62.468,79.122,63.218"/>
<path fill="#575858" d="M84.545,63.308h-0.006c0-0.396-0.006-0.794,0.003-1.189c0.004-0.232-0.046-0.379-0.325-0.366
	c-0.229,0.011-0.305,0.116-0.305,0.329c0.002,0.794,0,1.588-0.01,2.381c-0.003,0.247,0.082,0.356,0.344,0.359
	c0.3,0.003,0.302-0.179,0.3-0.39C84.542,64.058,84.545,63.683,84.545,63.308"/>
<path fill="#575858" d="M89.449,63.834c0.314-0.05,0.536-0.204,0.538-0.551c0.001-0.348-0.215-0.541-0.536-0.543
	c-0.319-0.001-0.537,0.188-0.539,0.537C88.91,63.627,89.127,63.782,89.449,63.834"/>
<path fill="#749DD2" d="M95.686,65.208c0.001-0.093,0.063-0.123,0.142-0.131C95.811,65.153,95.777,65.211,95.686,65.208"/>
<path fill="#E1E1E1" d="M70.509,47.013c0.143,1.851,0.042,3.706,0.048,5.558c0.022,6.739,0.001,13.477,0.022,20.216
	c0.002,0.634-0.156,0.8-0.812,0.785c-2.551-0.057-4.549,1.046-6.057,3.079c-0.13,0.175-0.261,0.35-0.392,0.525
	c-0.186-0.447-0.576-0.407-0.954-0.407c-5.213,0.002-10.426,0.001-15.639,0.001c-0.31,0-0.62-0.027-0.928,0.001
	c-0.345,0.031-0.671,0.137-0.67,0.576c0.002,0.479,0.354,0.486,0.7,0.486c3.642,0.005,7.283-0.005,10.924,0.093
	c2.074,0.056,4.152,0.007,6.229,0.006l-0.55,1.788c-0.132-0.015-0.263-0.04-0.395-0.04c-5.365-0.002-10.731-0.002-16.096-0.002
	c-0.111,0-0.226-0.01-0.33,0.014c-0.322,0.073-0.536,0.272-0.456,0.609c0.063,0.264,0.185,0.462,0.582,0.46
	c5.542-0.022,11.085-0.014,16.627-0.013c0.151,3.337,1.746,5.67,4.856,6.928c0.911,0.367,1.875,0.507,2.856,0.407
	c0.388-0.039,0.488,0.083,0.498,0.462c0.042,1.519,0.055,1.515-1.424,1.515c-9.863-0.002-19.727-0.007-29.589,0.014
	c-0.627,0.001-0.816-0.136-0.809-0.791c0.04-3.604,0.029-7.208,0.035-10.812l0.101-0.126c0.183-0.157,0.373-0.305,0.543-0.475
	c1.764-1.757,3.521-3.519,5.284-5.275c0.185-0.185,0.334-0.416,0.605-0.496c5.743,0.007,11.486,0.014,17.23,0.019
	c0.152,0,0.313-0.012,0.456-0.057c0.243-0.078,0.322-0.271,0.317-0.52c-0.005-0.232-0.116-0.393-0.325-0.441
	c-0.211-0.051-0.436-0.058-0.655-0.058c-3.27,0-6.539,0.009-9.809,0.004c-2.031-0.002-4.063-0.021-6.094-0.032
	c1.213-1.496,2.622-2.799,4.037-4.094c0.123,0.044,0.25,0.081,0.368,0.136c2.843,1.283,5.574,1.057,8.062-0.805
	c2.438-1.823,3.449-4.33,3.087-7.374c-0.11-0.934-0.503-1.772-0.829-2.636c0.074-0.107,0.133-0.229,0.224-0.322
	c2.87-2.875,5.745-5.748,8.617-8.622C70.15,47.156,70.283,47.003,70.509,47.013 M54.283,73.958c-2.785,0-5.569,0.001-8.354-0.002
	c-0.38-0.001-0.765,0.038-0.778,0.505c-0.017,0.506,0.375,0.572,0.787,0.571c5.524-0.006,11.051-0.008,16.575-0.009
	c0.407,0,0.789-0.046,0.801-0.563c0.013-0.584-0.441-0.501-0.809-0.501C59.764,73.957,57.024,73.958,54.283,73.958"/>
<path fill="#E1E1E1" d="M85.463,34.829c1.768-0.01,3.535-0.001,5.302-0.042c0.526-0.012,0.664,0.146,0.661,0.666
	c-0.02,4.375-0.007,8.75-0.015,13.125c-0.002,0.903,0.038,1.807-0.083,2.711c-0.312,2.349-2.375,4.051-4.852,3.96
	c-2.377-0.086-4.31-1.945-4.449-4.256c-0.087-1.456,0.055-2.914-0.106-4.369c-0.224-2.017-1.264-3.462-2.986-4.464
	c-0.134-0.077-0.257-0.167-0.387-0.251c0.095-0.29,0.346-0.452,0.544-0.651C81.213,39.112,83.338,36.972,85.463,34.829"/>
<path fill="#6FBCE9" d="M74.49,77.009c1.041,1.086,1.429,2.452,1.38,3.881c-0.086,2.513-1.266,4.411-3.56,5.542
	c-2.131,1.051-4.889,0.66-6.616-0.916c0.181-0.158,0.372-0.308,0.542-0.478c2.522-2.52,5.043-5.044,7.567-7.562
	C74,77.28,74.154,77.006,74.49,77.009"/>
<path fill="#6FBCE9" d="M95.433,77.016c1.272,1.453,1.604,3.189,1.253,5.001c-0.843,4.355-5.874,6.4-9.559,3.942
	c-0.123-0.083-0.222-0.205-0.331-0.31c0.158-0.181,0.308-0.372,0.478-0.542c2.443-2.447,4.888-4.893,7.336-7.336
	C94.872,77.509,95.157,77.267,95.433,77.016"/>
<path fill="#FFFFFF" d="M74.49,77.01c-0.336-0.003-0.49,0.271-0.686,0.466c-2.525,2.519-5.045,5.043-7.569,7.563
	c-0.17,0.169-0.361,0.319-0.541,0.478c-0.917-0.731-1.58-1.63-1.851-2.79c0.196,0.004,0.319-0.124,0.444-0.25
	c0.685-0.686,1.37-1.369,2.055-2.054c0.14-0.141,0.297-0.271,0.278-0.499c0.66-0.66,1.318-1.321,1.978-1.981
	c0.103-0.032,0.237-0.034,0.304-0.101c0.93-0.939,1.927-1.813,2.775-2.834C72.854,75.337,73.801,75.992,74.49,77.01 M67.015,82.844
	c0.243,0.002,0.387-0.139,0.527-0.279c1.253-1.251,2.499-2.505,3.755-3.753c0.263-0.261,0.435-0.561,0.151-0.864
	c-0.313-0.336-0.633-0.163-0.913,0.121c-0.574,0.583-1.156,1.157-1.734,1.735c-0.688,0.688-1.377,1.376-2.063,2.066
	c-0.178,0.182-0.304,0.386-0.169,0.653C66.666,82.717,66.818,82.826,67.015,82.844"/>
<path fill="#F2F2F2" d="M73.798,60.859c1.231-0.087,2.463-0.158,3.691-0.27c0.433-0.039,0.571,0.073,0.562,0.521
	c-0.026,1.344-0.01,2.688-0.01,4.034c0,0.848-0.122,0.968-0.983,0.848c-1.635-0.228-3.278-0.341-4.926-0.388
	c-0.377-0.012-0.502-0.188-0.493-0.537c0.019-0.704,0.024-1.409,0.034-2.114C72.546,62.422,73.223,61.691,73.798,60.859"/>
<path fill="#FFFFFF" d="M93.698,62.692c-0.791,0.014-1.583,0.012-2.374,0.048c-0.34,0.016-0.43-0.215-0.588-0.425
	c-0.408-0.542-1.102-0.781-1.696-0.592c-0.635,0.2-1.06,0.622-1.179,1.288c-0.123,0.69,0.188,1.299,0.809,1.666
	c0.648,0.386,1.526,0.305,1.953-0.339c0.408-0.615,0.902-0.573,1.474-0.482c0.03,0.343-0.274,0.467-0.445,0.678
	c-0.447,0.549-1.112,0.906-1.405,1.591c-0.583,0.258-1.169,0.511-1.749,0.776c-0.25,0.115-0.449,0.071-0.667-0.093
	c-0.633-0.479-1.277-0.946-1.928-1.401c-0.226-0.157-0.314-0.339-0.295-0.609c0.019-0.284-0.005-0.572,0.006-0.859
	c0.029-0.856-0.298-1.853,0.117-2.532c0.426-0.697,1.358-1.081,2.054-1.622c0.258-0.2,0.48-0.224,0.782-0.096
	c1.804,0.767,3.614,1.516,5.424,2.271C93.893,62.203,93.796,62.448,93.698,62.692"/>
<path fill="#FFFFFF" d="M84.824,82.989c-0.891-2.472-0.414-4.71,1.411-6.535c1.823-1.823,4.06-2.307,6.532-1.411
	c0.048,0.31-0.162,0.482-0.351,0.67c-2.309,2.308-4.616,4.614-6.924,6.924C85.305,82.824,85.134,83.036,84.824,82.989
	 M89.722,77.618c-0.005-0.217-0.104-0.381-0.302-0.468c-0.253-0.109-0.473-0.032-0.66,0.154c-0.56,0.557-1.121,1.115-1.678,1.676
	c-0.259,0.261-0.398,0.563-0.078,0.855c0.312,0.284,0.605,0.135,0.864-0.125c0.526-0.529,1.055-1.057,1.582-1.586
	C89.592,77.984,89.722,77.836,89.722,77.618"/>
<path fill="#575858" d="M62.981,77.931c-2.076,0.001-4.154,0.05-6.229-0.005c-3.641-0.098-7.281-0.087-10.923-0.093
	c-0.347,0-0.699-0.006-0.7-0.486c-0.002-0.438,0.325-0.546,0.67-0.577c0.308-0.026,0.618-0.001,0.928-0.001
	c5.213,0,10.426,0.001,15.639-0.001c0.378,0,0.768-0.04,0.954,0.407C63.207,77.427,63.095,77.679,62.981,77.931"/>
<path fill="#EC6C79" d="M79.122,63.218c0-0.75,0.014-1.501-0.006-2.251c-0.008-0.319,0.104-0.421,0.418-0.416
	c0.86,0.017,1.722,0.01,2.582,0.005c0.5-0.003,0.719,0.244,0.717,0.734c-0.005,1.323-0.006,2.648,0.001,3.972
	c0.003,0.49-0.214,0.746-0.711,0.746c-0.859,0-1.722-0.019-2.582,0.006c-0.383,0.012-0.427-0.168-0.421-0.479
	c0.016-0.771,0.005-1.545,0.005-2.316H79.122z"/>
<path fill="#575858" d="M62.363,80.748c-5.542-0.001-11.084-0.01-16.626,0.013c-0.397,0.002-0.52-0.196-0.582-0.46
	c-0.081-0.337,0.135-0.536,0.455-0.609c0.106-0.023,0.221-0.014,0.33-0.014c5.365,0,10.731,0,16.098,0.002
	c0.131,0,0.263,0.025,0.394,0.04C62.41,80.063,62.387,80.405,62.363,80.748"/>
<path fill="#FFFFFF" d="M92.601,77.958c0.557-0.361,0.947-0.9,1.431-1.34c0.192-0.175,0.346-0.405,0.644-0.416
	c0.348,0.182,0.566,0.485,0.758,0.813c-0.275,0.252-0.561,0.493-0.823,0.756c-2.448,2.442-4.893,4.889-7.336,7.336
	c-0.17,0.17-0.319,0.361-0.479,0.542c-0.327-0.192-0.63-0.412-0.812-0.76c0.437-0.871,1.222-1.418,1.913-2.053
	c0.316,0.057-0.214,0.217,0,0"/>
<path fill="#FFFFFF" d="M69.412,74.651c-0.004,0.254-0.205,0.381-0.357,0.534c-1.639,1.643-3.279,3.282-4.921,4.923
	c-0.17,0.169-0.319,0.376-0.6,0.367c0.011-2.617,2.055-5.062,4.731-5.698C68.644,74.688,69.044,74.816,69.412,74.651"/>
<path fill="#F2F2F2" d="M90.246,66.125c0.293-0.686,0.958-1.042,1.405-1.59c0.171-0.211,0.476-0.336,0.445-0.68h3.322
	c0.015,0.059,0.031,0.116,0.047,0.175C93.726,64.728,91.986,65.427,90.246,66.125"/>
<path fill="#F2F2F2" d="M93.698,62.692c0.098-0.244,0.194-0.489,0.292-0.733c0.478,0.184,0.97,0.334,1.512,0.683
	C94.826,62.784,94.262,62.736,93.698,62.692"/>
<path fill="#CCDAEF" d="M72.734,42.649c-0.02-0.022-0.023-0.048-0.013-0.076c0.034,0.006,0.068,0.011,0.102,0.015
	C72.794,42.608,72.764,42.629,72.734,42.649"/>
<path fill="#F2F2F2" d="M38.792,78.344c0.033-0.001,0.064-0.001,0.098,0l-0.101,0.126C38.768,78.427,38.769,78.386,38.792,78.344"/>
<path fill="#575858" d="M47.355,63.752c-0.23-0.581-0.461-1.163-0.691-1.744c-1.003-4.342,1.348-7.767,4.356-9.136
	c1.651-0.753,3.363-0.821,5.117-0.507c0.622,0.248,1.243,0.496,1.865,0.744c1.33,0.768,2.345,1.852,3.165,3.131
	c0.326,0.863,0.719,1.703,0.829,2.638c0.362,3.044-0.648,5.55-3.087,7.374c-2.488,1.86-5.219,2.088-8.061,0.803
	c-0.119-0.053-0.246-0.09-0.369-0.134C49.207,66.092,48.108,65.092,47.355,63.752 M60.98,60.009c0.003-3.719-3.02-6.753-6.727-6.754
	c-3.714-0.001-6.74,3.011-6.753,6.723c-0.013,3.731,3.065,6.801,6.787,6.769C57.972,66.715,60.978,63.688,60.98,60.009"/>
<path fill="#575858" d="M45.322,72.098c-0.343-0.777-0.189-1.02,0.666-1.049c0.151-0.005,0.303-0.022,0.455-0.036
	c2.031,0.013,4.063,0.031,6.094,0.034c3.27,0.004,6.539-0.005,9.809-0.004c0.22,0,0.444,0.006,0.655,0.056
	c0.209,0.049,0.32,0.209,0.325,0.442c0.005,0.249-0.074,0.441-0.317,0.519c-0.144,0.046-0.304,0.058-0.457,0.058
	C56.809,72.113,51.065,72.104,45.322,72.098"/>
<path fill="#575858" d="M54.283,73.958c2.741,0,5.48-0.001,8.222,0.002c0.367,0,0.821-0.083,0.809,0.501
	c-0.012,0.517-0.394,0.563-0.801,0.563c-5.524,0.001-11.051,0.003-16.575,0.009c-0.412,0.001-0.804-0.065-0.787-0.571
	c0.014-0.467,0.398-0.506,0.778-0.505C48.714,73.959,51.498,73.958,54.283,73.958"/>
<path fill="#575858" d="M67.015,82.844c-0.196-0.018-0.349-0.127-0.445-0.32c-0.135-0.268-0.009-0.472,0.169-0.653
	c0.686-0.69,1.374-1.379,2.063-2.066c0.578-0.578,1.16-1.152,1.734-1.735c0.28-0.284,0.6-0.457,0.913-0.121
	c0.283,0.304,0.111,0.604-0.151,0.864c-1.256,1.248-2.502,2.502-3.755,3.753C67.401,82.705,67.258,82.846,67.015,82.844"/>
<path fill="#575858" d="M66.622,79.923c-0.306,0.057-0.627,0.135-0.794-0.237c-0.155-0.344,0.053-0.577,0.28-0.801
	c0.482-0.477,0.961-0.957,1.438-1.438c0.222-0.224,0.452-0.439,0.8-0.293c0.376,0.16,0.308,0.48,0.253,0.788
	C67.94,78.602,67.281,79.263,66.622,79.923"/>
<path fill="#F68D52" d="M60.98,60.009c-0.004,3.679-3.009,6.705-6.692,6.737c-3.721,0.032-6.8-3.038-6.787-6.769
	c0.013-3.712,3.039-6.725,6.753-6.724C57.962,53.255,60.984,56.289,60.98,60.009 M54.016,55.372
	c-0.157,0.016-0.472,0.017-0.771,0.084c-2.17,0.495-3.671,2.313-3.721,4.489c-0.048,2.063,1.388,3.962,3.482,4.544
	c1.666,0.464,3.119-0.001,4.387-1.129c0.244-0.218,0.309-0.462,0.087-0.756c-0.232-0.306-0.483-0.249-0.75-0.083
	c-0.131,0.081-0.244,0.188-0.366,0.283c-1.323,1.028-3.222,1.023-4.464-0.059c-1.402-1.22-1.706-2.824-0.846-4.451
	c1.047-1.982,3.574-2.455,5.397-1.048c0.309,0.239,0.631,0.626,1.01,0.176c0.409-0.485-0.055-0.745-0.369-1.007
	C56.247,55.71,55.267,55.369,54.016,55.372"/>
<path fill="#FFFFFF" d="M54.016,55.372c1.251-0.003,2.231,0.338,3.077,1.044c0.314,0.262,0.778,0.521,0.369,1.007
	c-0.379,0.45-0.701,0.063-1.01-0.176c-1.823-1.407-4.351-0.935-5.397,1.048c-0.86,1.627-0.557,3.231,0.846,4.451
	c1.242,1.082,3.141,1.087,4.464,0.059c0.122-0.095,0.235-0.202,0.366-0.283c0.267-0.166,0.518-0.223,0.75,0.083
	c0.222,0.294,0.157,0.538-0.087,0.756c-1.268,1.128-2.721,1.593-4.387,1.129c-2.095-0.582-3.53-2.481-3.482-4.544
	c0.05-2.177,1.551-3.994,3.721-4.489C53.544,55.389,53.858,55.388,54.016,55.372"/>
</svg>
